<?xml version="1.0" encoding="UTF-8" standalone="no"?>
<!-- Created with Inkscape (http://www.inkscape.org/) -->

<svg
   width="210mm"
   height="297mm"
   viewBox="0 0 210 297"
   version="1.1"
   id="svg5"
   xml:space="preserve"
   inkscape:version="1.2.2 (732a01da63, 2022-12-09)"
   sodipodi:docname="lasercut.svg"
   xmlns:inkscape="http://www.inkscape.org/namespaces/inkscape"
   xmlns:sodipodi="http://sodipodi.sourceforge.net/DTD/sodipodi-0.dtd"
   xmlns="http://www.w3.org/2000/svg"
   xmlns:svg="http://www.w3.org/2000/svg"><sodipodi:namedview
     id="namedview7"
     pagecolor="#ffffff"
     bordercolor="#666666"
     borderopacity="1.0"
     inkscape:showpageshadow="2"
     inkscape:pageopacity="0.0"
     inkscape:pagecheckerboard="0"
     inkscape:deskcolor="#d1d1d1"
     inkscape:document-units="mm"
     showgrid="false"
     inkscape:zoom="0.14866305"
     inkscape:cx="-322.87781"
     inkscape:cy="-571.76279"
     inkscape:window-width="2880"
     inkscape:window-height="1526"
     inkscape:window-x="421"
     inkscape:window-y="-11"
     inkscape:window-maximized="1"
     inkscape:current-layer="layer1" /><defs
     id="defs2" /><g
     inkscape:label="Layer 1"
     inkscape:groupmode="layer"
     id="layer1"><g
       id="g1784"
       inkscape:export-filename="lasercut.png"
       inkscape:export-xdpi="100"
       inkscape:export-ydpi="100"><rect
         style="fill:#ffffff;stroke-width:6.17164"
         id="rect1282"
         width="2839.3374"
         height="1467.4187"
         x="-1375.7487"
         y="-579.72217"
         ry="0" /><g
         id="g1124"
         transform="matrix(6.3802677e-5,0,0,6.3802677e-5,-1379.3184,-636.78659)"><g
           style="fill:#000000;fill-opacity:1;stroke:#000000;stroke-linecap:round;stroke-linejoin:round;stroke-opacity:1"
           id="g461" /><g
           style="fill:#000000;fill-opacity:0;stroke:#000000;stroke-width:0;stroke-linecap:round;stroke-linejoin:round;stroke-opacity:1"
           id="g811"><g
             id="g463" /><g
             style="fill:#000000;fill-opacity:0;stroke:#000000;stroke-width:1.99898e+06;stroke-linecap:round;stroke-linejoin:round;stroke-opacity:1"
             id="g485"><path
               d="m 40019510,5239060 v 749300"
               id="path465" /><path
               d="m 27319510,5239060 v 749300"
               id="path467" /><path
               d="m 24779510,5239060 v 749300"
               id="path469" /><path
               d="m 24779510,21403620 v 749300"
               id="path471" /><path
               d="m 27319510,21403620 v 749300"
               id="path473" /><path
               d="m 29859510,21403620 v 749300"
               id="path475" /><path
               d="m 32399510,21403620 v 749300"
               id="path477" /><path
               d="m 34939510,21403620 v 749300"
               id="path479" /><path
               d="m 37479510,21403620 v 749300"
               id="path481" /><path
               d="m 40019510,21403620 v 749300"
               id="path483" /></g><g
             id="g487" /><g
             id="g489" /><g
             style="fill:#000000;fill-opacity:0;stroke:#000000;stroke-width:1.99898e+06;stroke-linecap:round;stroke-linejoin:round;stroke-opacity:1"
             id="g491" /><g
             style="fill:#000000;fill-opacity:0;stroke:#000000;stroke-width:1;stroke-linecap:round;stroke-linejoin:round;stroke-opacity:1"
             id="g493" /><g
             style="fill:#000000;fill-opacity:1;stroke:#000000;stroke-width:1;stroke-linecap:round;stroke-linejoin:round;stroke-opacity:1"
             id="g499"><path
               style="fill:#000000;fill-opacity:1;fill-rule:evenodd;stroke:#000000;stroke-width:1;stroke-linecap:round;stroke-linejoin:round;stroke-opacity:1"
               d="m 38481000,2184700 18079,-90887 51483,-77051 77051,-51483 90887,-18079 h 1386000 l 90887,18079 77051,51483 51483,77051 18079,90887 v 475000 l -18079,90887 -51483,77051 -77051,51483 -90887,18079 h -1386000 l -90887,-18079 -77051,-51483 -51483,-77051 -18079,-90887 z"
               id="path495" /><path
               style="fill:#000000;fill-opacity:1;fill-rule:evenodd;stroke:#000000;stroke-width:1;stroke-linecap:round;stroke-linejoin:round;stroke-opacity:1"
               d="m 41192000,2147200 15224,-76537 43355,-64884 64884,-43355 76537,-15224 h 400000 l 76537,15224 64884,43355 43355,64884 15224,76537 v 550000 l -15224,76537 -43355,64884 -64884,43355 -76537,15224 h -400000 l -76537,-15224 -64884,-43355 -43355,-64884 -15224,-76537 z"
               id="path497" /></g><g
             id="g501" /><g
             style="fill:#000000;fill-opacity:1;stroke:#000000;stroke-width:1;stroke-linecap:round;stroke-linejoin:round;stroke-opacity:1"
             id="g507"><path
               style="fill:#000000;fill-opacity:1;fill-rule:evenodd;stroke:#000000;stroke-width:1;stroke-linecap:round;stroke-linejoin:round;stroke-opacity:1"
               d="m 21466000,8044500 -18079,90887 -51483,77051 -77051,51483 -90887,18079 h -600000 l -90887,-18079 -77051,-51483 -51483,-77051 -18079,-90887 v -475000 l 18079,-90887 51483,-77051 77051,-51483 90887,-18079 h 600000 l 90887,18079 77051,51483 51483,77051 18079,90887 z"
               id="path503" /><path
               style="fill:#000000;fill-opacity:1;fill-rule:evenodd;stroke:#000000;stroke-width:1;stroke-linecap:round;stroke-linejoin:round;stroke-opacity:1"
               d="m 19741000,8044500 -18079,90887 -51483,77051 -77051,51483 -90887,18079 h -600000 l -90887,-18079 -77051,-51483 -51483,-77051 -18079,-90887 v -475000 l 18079,-90887 51483,-77051 77051,-51483 90887,-18079 h 600000 l 90887,18079 77051,51483 51483,77051 18079,90887 z"
               id="path505" /></g><g
             id="g509" /><g
             style="fill:#000000;fill-opacity:1;stroke:#000000;stroke-width:1;stroke-linecap:round;stroke-linejoin:round;stroke-opacity:1"
             id="g515"><path
               style="fill:#000000;fill-opacity:1;fill-rule:evenodd;stroke:#000000;stroke-width:1;stroke-linecap:round;stroke-linejoin:round;stroke-opacity:1"
               d="m 16386000,3472500 -18079,90887 -51483,77051 -77051,51483 -90887,18079 h -600000 l -90887,-18079 -77051,-51483 -51483,-77051 -18079,-90887 v -475000 l 18079,-90887 51483,-77051 77051,-51483 90887,-18079 h 600000 l 90887,18079 77051,51483 51483,77051 18079,90887 z"
               id="path511" /><path
               style="fill:#000000;fill-opacity:1;fill-rule:evenodd;stroke:#000000;stroke-width:1;stroke-linecap:round;stroke-linejoin:round;stroke-opacity:1"
               d="m 14661000,3472500 -18079,90887 -51483,77051 -77051,51483 -90887,18079 h -600000 l -90887,-18079 -77051,-51483 -51483,-77051 -18079,-90887 v -475000 l 18079,-90887 51483,-77051 77051,-51483 90887,-18079 h 600000 l 90887,18079 77051,51483 51483,77051 18079,90887 z"
               id="path513" /></g><g
             id="g517" /><g
             style="fill:#000000;fill-opacity:1;stroke:#000000;stroke-width:1;stroke-linecap:round;stroke-linejoin:round;stroke-opacity:1"
             id="g521"><path
               style="fill:#000000;fill-opacity:1;fill-rule:evenodd;stroke:#000000;stroke-width:1;stroke-linecap:round;stroke-linejoin:round;stroke-opacity:1"
               d="m 6870000,5767000 -95671,-19030 -81106,-54193 -54193,-81106 -19030,-95671 v -500000 l 19030,-95671 54193,-81106 81106,-54193 95671,-19030 h 1500000 l 95671,19030 81106,54193 54193,81106 19030,95671 v 500000 l -19030,95671 -54193,81106 -81106,54193 -95671,19030 z"
               id="path519" /></g><g
             id="g523" /><g
             style="fill:#000000;fill-opacity:1;stroke:#000000;stroke-width:1;stroke-linecap:round;stroke-linejoin:round;stroke-opacity:1"
             id="g527"><path
               style="fill:#000000;fill-opacity:1;fill-rule:evenodd;stroke:#000000;stroke-width:1;stroke-linecap:round;stroke-linejoin:round;stroke-opacity:1"
               d="m 3822000,3735000 -95671,-19030 -81106,-54193 -54193,-81106 -19030,-95671 v -500000 l 19030,-95671 54193,-81106 81106,-54193 95671,-19030 h 1500000 l 95671,19030 81106,54193 54193,81106 19030,95671 v 500000 l -19030,95671 -54193,81106 -81106,54193 -95671,19030 z"
               id="path525" /></g><g
             id="g529" /><g
             style="fill:#000000;fill-opacity:1;stroke:#000000;stroke-width:1;stroke-linecap:round;stroke-linejoin:round;stroke-opacity:1"
             id="g535"><path
               style="fill:#000000;fill-opacity:1;fill-rule:evenodd;stroke:#000000;stroke-width:1;stroke-linecap:round;stroke-linejoin:round;stroke-opacity:1"
               d="m 41193000,3214000 15224,-76537 43355,-64884 64884,-43355 76537,-15224 h 400000 l 76537,15224 64884,43355 43355,64884 15224,76537 v 550000 l -15224,76537 -43355,64884 -64884,43355 -76537,15224 h -400000 l -76537,-15224 -64884,-43355 -43355,-64884 -15224,-76537 z"
               id="path531" /><path
               style="fill:#000000;fill-opacity:1;fill-rule:evenodd;stroke:#000000;stroke-width:1;stroke-linecap:round;stroke-linejoin:round;stroke-opacity:1"
               d="m 42843000,3214000 15224,-76537 43355,-64884 64884,-43355 76537,-15224 h 400000 l 76537,15224 64884,43355 43355,64884 15224,76537 v 550000 l -15224,76537 -43355,64884 -64884,43355 -76537,15224 h -400000 l -76537,-15224 -64884,-43355 -43355,-64884 -15224,-76537 z"
               id="path533" /></g><g
             id="g537" /><g
             style="fill:#000000;fill-opacity:1;stroke:#000000;stroke-width:1;stroke-linecap:round;stroke-linejoin:round;stroke-opacity:1"
             id="g543"><path
               style="fill:#000000;fill-opacity:1;fill-rule:evenodd;stroke:#000000;stroke-width:1;stroke-linecap:round;stroke-linejoin:round;stroke-opacity:1"
               d="m 6988000,11600500 -18079,90887 -51483,77051 -77051,51483 -90887,18079 h -600000 l -90887,-18079 -77051,-51483 -51483,-77051 -18079,-90887 v -475000 l 18079,-90887 51483,-77051 77051,-51483 90887,-18079 h 600000 l 90887,18079 77051,51483 51483,77051 18079,90887 z"
               id="path539" /><path
               style="fill:#000000;fill-opacity:1;fill-rule:evenodd;stroke:#000000;stroke-width:1;stroke-linecap:round;stroke-linejoin:round;stroke-opacity:1"
               d="m 5263000,11600500 -18079,90887 -51483,77051 -77051,51483 -90887,18079 h -600000 l -90887,-18079 -77051,-51483 -51483,-77051 -18079,-90887 v -475000 l 18079,-90887 51483,-77051 77051,-51483 90887,-18079 h 600000 l 90887,18079 77051,51483 51483,77051 18079,90887 z"
               id="path541" /></g><g
             id="g545" /><g
             style="fill:#000000;fill-opacity:1;stroke:#000000;stroke-width:1;stroke-linecap:round;stroke-linejoin:round;stroke-opacity:1"
             id="g549"><path
               style="fill:#000000;fill-opacity:1;fill-rule:evenodd;stroke:#000000;stroke-width:1;stroke-linecap:round;stroke-linejoin:round;stroke-opacity:1"
               d="m 6870000,10339000 -95671,-19030 -81106,-54193 -54193,-81106 -19030,-95671 v -500000 l 19030,-95671 54193,-81106 81106,-54193 95671,-19030 h 1500000 l 95671,19030 81106,54193 54193,81106 19030,95671 v 500000 l -19030,95671 -54193,81106 -81106,54193 -95671,19030 z"
               id="path547" /></g><g
             id="g551" /><g
             style="fill:#000000;fill-opacity:1;stroke:#000000;stroke-width:1;stroke-linecap:round;stroke-linejoin:round;stroke-opacity:1"
             id="g555"><path
               style="fill:#000000;fill-opacity:1;fill-rule:evenodd;stroke:#000000;stroke-width:1;stroke-linecap:round;stroke-linejoin:round;stroke-opacity:1"
               d="m 6870000,3735000 -95671,-19030 -81106,-54193 -54193,-81106 -19030,-95671 v -500000 l 19030,-95671 54193,-81106 81106,-54193 95671,-19030 h 1500000 l 95671,19030 81106,54193 54193,81106 19030,95671 v 500000 l -19030,95671 -54193,81106 -81106,54193 -95671,19030 z"
               id="path553" /></g><g
             id="g557" /><g
             style="fill:#000000;fill-opacity:1;stroke:#000000;stroke-width:1;stroke-linecap:round;stroke-linejoin:round;stroke-opacity:1"
             id="g571"><path
               style="fill:#000000;fill-opacity:1;fill-rule:evenodd;stroke:#000000;stroke-width:1;stroke-linecap:round;stroke-linejoin:round;stroke-opacity:1"
               d="m 21844000,15769000 v 2500000 h -2162000 v -2500000 z"
               id="path559" /><path
               style="fill:#000000;fill-opacity:1;fill-rule:evenodd;stroke:#000000;stroke-width:1;stroke-linecap:round;stroke-linejoin:round;stroke-opacity:1"
               d="m 9782000,15769000 v 2500000 H 7620000 v -2500000 z"
               id="path561" /><path
               style="fill:#000000;fill-opacity:1;fill-rule:evenodd;stroke:#000000;stroke-width:1;stroke-linecap:round;stroke-linejoin:round;stroke-opacity:1"
               d="m 21844000,11469000 v 2500000 h -2162000 v -2500000 z"
               id="path563" /><path
               style="fill:#000000;fill-opacity:1;fill-rule:evenodd;stroke:#000000;stroke-width:1;stroke-linecap:round;stroke-linejoin:round;stroke-opacity:1"
               d="m 13182000,18869000 v 1130000 h -2900000 v -1130000 z"
               id="path565" /><path
               style="fill:#000000;fill-opacity:1;fill-rule:evenodd;stroke:#000000;stroke-width:1;stroke-linecap:round;stroke-linejoin:round;stroke-opacity:1"
               d="m 9782000,11469000 v 2500000 H 7620000 v -2500000 z"
               id="path567" /><path
               style="fill:#000000;fill-opacity:1;fill-rule:evenodd;stroke:#000000;stroke-width:1;stroke-linecap:round;stroke-linejoin:round;stroke-opacity:1"
               d="m 17682000,9331000 v 1638000 H 9782000 V 9331000 Z"
               id="path569" /></g><g
             id="g573" /><g
             style="fill:#000000;fill-opacity:1;stroke:#000000;stroke-width:1;stroke-linecap:round;stroke-linejoin:round;stroke-opacity:1"
             id="g577"><path
               style="fill:#000000;fill-opacity:1;fill-rule:evenodd;stroke:#000000;stroke-width:1;stroke-linecap:round;stroke-linejoin:round;stroke-opacity:1"
               d="m 3822000,5767000 -95671,-19030 -81106,-54193 -54193,-81106 -19030,-95671 v -500000 l 19030,-95671 54193,-81106 81106,-54193 95671,-19030 h 1500000 l 95671,19030 81106,54193 54193,81106 19030,95671 v 500000 l -19030,95671 -54193,81106 -81106,54193 -95671,19030 z"
               id="path575" /></g><g
             id="g579" /><g
             style="fill:#000000;fill-opacity:1;stroke:#000000;stroke-width:1;stroke-linecap:round;stroke-linejoin:round;stroke-opacity:1"
             id="g589"><path
               style="fill:#000000;fill-opacity:1;fill-rule:evenodd;stroke:#000000;stroke-width:1;stroke-linecap:round;stroke-linejoin:round;stroke-opacity:1"
               d="m 21396000,22400000 v 650000 h -1050000 v -650000 z"
               id="path581" /><path
               style="fill:#000000;fill-opacity:1;fill-rule:evenodd;stroke:#000000;stroke-width:1;stroke-linecap:round;stroke-linejoin:round;stroke-opacity:1"
               d="m 17246000,22400000 v 650000 h -1050000 v -650000 z"
               id="path583" /><path
               style="fill:#000000;fill-opacity:1;fill-rule:evenodd;stroke:#000000;stroke-width:1;stroke-linecap:round;stroke-linejoin:round;stroke-opacity:1"
               d="m 17271000,20250000 v 650000 h -1050000 v -650000 z"
               id="path585" /><path
               style="fill:#000000;fill-opacity:1;fill-rule:evenodd;stroke:#000000;stroke-width:1;stroke-linecap:round;stroke-linejoin:round;stroke-opacity:1"
               d="m 21396000,20250000 v 650000 h -1050000 v -650000 z"
               id="path587" /></g><g
             id="g591" /><g
             style="fill:#000000;fill-opacity:1;stroke:#000000;stroke-width:1;stroke-linecap:round;stroke-linejoin:round;stroke-opacity:1"
             id="g595"><path
               style="fill:#000000;fill-opacity:1;fill-rule:evenodd;stroke:#000000;stroke-width:1;stroke-linecap:round;stroke-linejoin:round;stroke-opacity:1"
               d="m 6870000,8307000 -95671,-19030 -81106,-54193 -54193,-81106 -19030,-95671 v -500000 l 19030,-95671 54193,-81106 81106,-54193 95671,-19030 h 1500000 l 95671,19030 81106,54193 54193,81106 19030,95671 v 500000 l -19030,95671 -54193,81106 -81106,54193 -95671,19030 z"
               id="path593" /></g><g
             id="g597" /><g
             style="fill:#000000;fill-opacity:1;stroke:#000000;stroke-width:1;stroke-linecap:round;stroke-linejoin:round;stroke-opacity:1"
             id="g601"><path
               style="fill:#000000;fill-opacity:1;fill-rule:evenodd;stroke:#000000;stroke-width:1;stroke-linecap:round;stroke-linejoin:round;stroke-opacity:1"
               d="m 3822000,8307000 -95671,-19030 -81106,-54193 -54193,-81106 -19030,-95671 v -500000 l 19030,-95671 54193,-81106 81106,-54193 95671,-19030 h 1500000 l 95671,19030 81106,54193 54193,81106 19030,95671 v 500000 l -19030,95671 -54193,81106 -81106,54193 -95671,19030 z"
               id="path599" /></g><g
             id="g603" /><g
             style="fill:#000000;fill-opacity:1;stroke:#000000;stroke-width:1;stroke-linecap:round;stroke-linejoin:round;stroke-opacity:1"
             id="g621"><path
               style="fill:#000000;fill-opacity:1;fill-rule:evenodd;stroke:#000000;stroke-width:1;stroke-linecap:round;stroke-linejoin:round;stroke-opacity:1"
               d="m 11282000,4482000 11418,-57403 32516,-48663 48663,-32516 57403,-11418 h 1250000 l 57403,11418 48663,32516 32516,48663 11418,57403 v 300000 l -11418,57403 -32516,48663 -48663,32516 -57403,11418 h -1250000 l -57403,-11418 -48663,-32516 -32516,-48663 -11418,-57403 z"
               id="path605" /><path
               style="fill:#000000;fill-opacity:1;fill-rule:evenodd;stroke:#000000;stroke-width:1;stroke-linecap:round;stroke-linejoin:round;stroke-opacity:1"
               d="m 11282000,5752000 11418,-57403 32516,-48663 48663,-32516 57403,-11418 h 1250000 l 57403,11418 48663,32516 32516,48663 11418,57403 v 300000 l -11418,57403 -32516,48663 -48663,32516 -57403,11418 h -1250000 l -57403,-11418 -48663,-32516 -32516,-48663 -11418,-57403 z"
               id="path607" /><path
               style="fill:#000000;fill-opacity:1;fill-rule:evenodd;stroke:#000000;stroke-width:1;stroke-linecap:round;stroke-linejoin:round;stroke-opacity:1"
               d="m 11282000,7022000 11418,-57403 32516,-48663 48663,-32516 57403,-11418 h 1250000 l 57403,11418 48663,32516 32516,48663 11418,57403 v 300000 l -11418,57403 -32516,48663 -48663,32516 -57403,11418 h -1250000 l -57403,-11418 -48663,-32516 -32516,-48663 -11418,-57403 z"
               id="path609" /><path
               style="fill:#000000;fill-opacity:1;fill-rule:evenodd;stroke:#000000;stroke-width:1;stroke-linecap:round;stroke-linejoin:round;stroke-opacity:1"
               d="m 11282000,8292000 11418,-57403 32516,-48663 48663,-32516 57403,-11418 h 1250000 l 57403,11418 48663,32516 32516,48663 11418,57403 v 300000 l -11418,57403 -32516,48663 -48663,32516 -57403,11418 h -1250000 l -57403,-11418 -48663,-32516 -32516,-48663 -11418,-57403 z"
               id="path611" /><path
               style="fill:#000000;fill-opacity:1;fill-rule:evenodd;stroke:#000000;stroke-width:1;stroke-linecap:round;stroke-linejoin:round;stroke-opacity:1"
               d="m 16632000,8292000 11418,-57403 32516,-48663 48663,-32516 57403,-11418 h 1250000 l 57403,11418 48663,32516 32516,48663 11418,57403 v 300000 l -11418,57403 -32516,48663 -48663,32516 -57403,11418 h -1250000 l -57403,-11418 -48663,-32516 -32516,-48663 -11418,-57403 z"
               id="path613" /><path
               style="fill:#000000;fill-opacity:1;fill-rule:evenodd;stroke:#000000;stroke-width:1;stroke-linecap:round;stroke-linejoin:round;stroke-opacity:1"
               d="m 16632000,7022000 11418,-57403 32516,-48663 48663,-32516 57403,-11418 h 1250000 l 57403,11418 48663,32516 32516,48663 11418,57403 v 300000 l -11418,57403 -32516,48663 -48663,32516 -57403,11418 h -1250000 l -57403,-11418 -48663,-32516 -32516,-48663 -11418,-57403 z"
               id="path615" /><path
               style="fill:#000000;fill-opacity:1;fill-rule:evenodd;stroke:#000000;stroke-width:1;stroke-linecap:round;stroke-linejoin:round;stroke-opacity:1"
               d="m 16632000,5752000 11418,-57403 32516,-48663 48663,-32516 57403,-11418 h 1250000 l 57403,11418 48663,32516 32516,48663 11418,57403 v 300000 l -11418,57403 -32516,48663 -48663,32516 -57403,11418 h -1250000 l -57403,-11418 -48663,-32516 -32516,-48663 -11418,-57403 z"
               id="path617" /><path
               style="fill:#000000;fill-opacity:1;fill-rule:evenodd;stroke:#000000;stroke-width:1;stroke-linecap:round;stroke-linejoin:round;stroke-opacity:1"
               d="m 16632000,4482000 11418,-57403 32516,-48663 48663,-32516 57403,-11418 h 1250000 l 57403,11418 48663,32516 32516,48663 11418,57403 v 300000 l -11418,57403 -32516,48663 -48663,32516 -57403,11418 h -1250000 l -57403,-11418 -48663,-32516 -32516,-48663 -11418,-57403 z"
               id="path619" /></g><g
             id="g623" /><g
             style="fill:#000000;fill-opacity:1;stroke:#000000;stroke-width:1;stroke-linecap:round;stroke-linejoin:round;stroke-opacity:1"
             id="g629"><path
               style="fill:#000000;fill-opacity:1;fill-rule:evenodd;stroke:#000000;stroke-width:1;stroke-linecap:round;stroke-linejoin:round;stroke-opacity:1"
               d="m 18666000,5537500 18079,-90887 51483,-77051 77051,-51483 90887,-18079 h 500000 l 90887,18079 77051,51483 51483,77051 18079,90887 v 475000 l -18079,90887 -51483,77051 -77051,51483 -90887,18079 h -500000 l -90887,-18079 -77051,-51483 -51483,-77051 -18079,-90887 z"
               id="path625" /><path
               style="fill:#000000;fill-opacity:1;fill-rule:evenodd;stroke:#000000;stroke-width:1;stroke-linecap:round;stroke-linejoin:round;stroke-opacity:1"
               d="m 20491000,5537500 18079,-90887 51483,-77051 77051,-51483 90887,-18079 h 500000 l 90887,18079 77051,51483 51483,77051 18079,90887 v 475000 l -18079,90887 -51483,77051 -77051,51483 -90887,18079 h -500000 l -90887,-18079 -77051,-51483 -51483,-77051 -18079,-90887 z"
               id="path627" /></g><g
             id="g631" /><g
             style="fill:#000000;fill-opacity:1;stroke:#000000;stroke-width:1;stroke-linecap:round;stroke-linejoin:round;stroke-opacity:1"
             id="g637"><path
               style="fill:#000000;fill-opacity:1;fill-rule:evenodd;stroke:#000000;stroke-width:1;stroke-linecap:round;stroke-linejoin:round;stroke-opacity:1"
               d="m 10139000,7762000 -76537,-15224 -64884,-43355 -43355,-64884 -15224,-76537 v -400000 l 15224,-76537 43355,-64884 64884,-43355 76537,-15224 h 550000 l 76537,15224 64884,43355 43355,64884 15224,76537 v 400000 l -15224,76537 -43355,64884 -64884,43355 -76537,15224 z"
               id="path633" /><path
               style="fill:#000000;fill-opacity:1;fill-rule:evenodd;stroke:#000000;stroke-width:1;stroke-linecap:round;stroke-linejoin:round;stroke-opacity:1"
               d="m 10139000,6112000 -76537,-15224 -64884,-43355 -43355,-64884 -15224,-76537 v -400000 l 15224,-76537 43355,-64884 64884,-43355 76537,-15224 h 550000 l 76537,15224 64884,43355 43355,64884 15224,76537 v 400000 l -15224,76537 -43355,64884 -64884,43355 -76537,15224 z"
               id="path635" /></g><g
             id="g639" /><g
             style="fill:#000000;fill-opacity:1;stroke:#000000;stroke-width:1;stroke-linecap:round;stroke-linejoin:round;stroke-opacity:1"
             id="g645"><path
               style="fill:#000000;fill-opacity:1;fill-rule:evenodd;stroke:#000000;stroke-width:1;stroke-linecap:round;stroke-linejoin:round;stroke-opacity:1"
               d="m 4917001,17548000 -95671,-19030 -81106,-54194 -54194,-81106 -19029,-95672 -1,-999997 19030,-95671 54194,-81106 81106,-54194 95672,-19029 1849997,-1 95671,19030 81106,54194 54194,81106 19029,95672 1,999997 -19030,95671 -54194,81106 -81106,54194 -95672,19029 z"
               id="path641" /><path
               style="fill:#000000;fill-opacity:1;fill-rule:evenodd;stroke:#000000;stroke-width:1;stroke-linecap:round;stroke-linejoin:round;stroke-opacity:1"
               d="m 4917001,14298000 -95671,-19030 -81106,-54194 -54194,-81106 -19029,-95672 -1,-999997 19030,-95671 54194,-81106 81106,-54194 95672,-19029 1849997,-1 95671,19030 81106,54194 54194,81106 19029,95672 1,999997 -19030,95671 -54194,81106 -81106,54194 -95672,19029 z"
               id="path643" /></g><g
             id="g647" /><g
             id="g649" /><g
             style="fill:#000000;fill-opacity:1;stroke:#000000;stroke-width:1;stroke-linecap:round;stroke-linejoin:round;stroke-opacity:1"
             id="g653"><path
               style="fill:#000000;fill-opacity:1;fill-rule:evenodd;stroke:#000000;stroke-width:1;stroke-linecap:round;stroke-linejoin:round;stroke-opacity:1"
               d="m 3822000,10339000 -95671,-19030 -81106,-54193 -54193,-81106 -19030,-95671 v -500000 l 19030,-95671 54193,-81106 81106,-54193 95671,-19030 h 1500000 l 95671,19030 81106,54193 54193,81106 19030,95671 v 500000 l -19030,95671 -54193,81106 -81106,54193 -95671,19030 z"
               id="path651" /></g><g
             id="g655" /><g
             id="g657" /><g
             id="g659" /><g
             style="fill:#000000;fill-opacity:1;stroke:#000000;stroke-width:1;stroke-linecap:round;stroke-linejoin:round;stroke-opacity:1"
             id="g661" /><g
             style="fill:#000000;fill-opacity:1;stroke:#000000;stroke-width:600000;stroke-linecap:round;stroke-linejoin:round;stroke-opacity:1"
             id="g663" /><g
             style="fill:#000000;fill-opacity:0;stroke:#000000;stroke-width:600000;stroke-linecap:round;stroke-linejoin:round;stroke-opacity:1"
             id="g673"><path
               d="M 5308000,16798000 3556000,15046000"
               id="path665" /><path
               d="M 3556000,12532500 4725500,11363000"
               id="path667" /><path
               d="m 3048000,3235000 -508000,508000"
               id="path669" /><path
               d="M 4725500,9992500 4572000,9839000"
               id="path671" /></g><g
             style="fill:#000000;fill-opacity:0;stroke:#000000;stroke-width:800000;stroke-linecap:round;stroke-linejoin:round;stroke-opacity:1"
             id="g677"><path
               d="M 5842000,16798000 H 8480000"
               id="path675" /></g><g
             style="fill:#000000;fill-opacity:0;stroke:#000000;stroke-width:600000;stroke-linecap:round;stroke-linejoin:round;stroke-opacity:1"
             id="g681"><path
               d="M 2540000,3743000 V 9331000"
               id="path679" /></g><g
             style="fill:#000000;fill-opacity:0;stroke:#000000;stroke-width:800000;stroke-linecap:round;stroke-linejoin:round;stroke-opacity:1"
             id="g685"><path
               d="m 8480000,16798000 221000,221000"
               id="path683" /></g><g
             style="fill:#000000;fill-opacity:0;stroke:#000000;stroke-width:600000;stroke-linecap:round;stroke-linejoin:round;stroke-opacity:1"
             id="g727"><path
               d="m 2540000,9331000 508000,508000"
               id="path687" /><path
               d="m 15848500,3235000 v 100500"
               id="path689" /><path
               d="M 5080000,3235000 H 4572000"
               id="path691" /><path
               d="M 3048000,9839000 H 4572000"
               id="path693" /><path
               d="M 15848500,3081500 14732000,1965000"
               id="path695" /><path
               d="M 14732000,1965000 H 6350000"
               id="path697" /><path
               d="M 4725500,11363000 V 9992500"
               id="path699" /><path
               d="M 15848500,3235000 V 3081500"
               id="path701" /><path
               d="m 17145000,4632000 h 262000"
               id="path703" /><path
               d="M 3556000,15046000 V 12532500"
               id="path705" /><path
               d="m 15848500,3335500 1296500,1296500"
               id="path707" /><path
               d="M 6350000,1965000 5080000,3235000"
               id="path709" /><path
               d="M 4572000,3235000 H 3048000"
               id="path711" /><path
               d="M 5842000,16798000 H 5308000"
               id="path713" /><path
               d="m 27319510,8173490 -903510,903510"
               id="path715" /><path
               d="M 26416000,9077000 H 22198500"
               id="path717" /><path
               d="M 20978500,5775000 V 7757000"
               id="path719" /><path
               d="M 22198500,9077000 20928500,7807000"
               id="path721" /><path
               d="m 20978500,7757000 -50000,50000"
               id="path723" /><path
               d="M 27319510,5613710 V 8173490"
               id="path725" /></g><g
             style="fill:#000000;fill-opacity:0;stroke:#000000;stroke-width:800000;stroke-linecap:round;stroke-linejoin:round;stroke-opacity:1"
             id="g735"><path
               d="M 32834000,17019000 H 20763000"
               id="path729" /><path
               d="M 34939510,21778270 V 19124510"
               id="path731" /><path
               d="M 34939510,19124510 32834000,17019000"
               id="path733" /></g><g
             style="fill:#000000;fill-opacity:0;stroke:#000000;stroke-width:600000;stroke-linecap:round;stroke-linejoin:round;stroke-opacity:1"
             id="g769"><path
               d="m 8763000,4632000 h 3294000"
               id="path737" /><path
               d="M 4572000,5267000 H 7620000"
               id="path739" /><path
               d="m 8128000,5267000 635000,-635000"
               id="path741" /><path
               d="m 7620000,5267000 h 508000"
               id="path743" /><path
               d="m 17407000,5902000 h 1619500"
               id="path745" /><path
               d="m 19026500,5902000 127000,-127000"
               id="path747" /><path
               d="m 7620000,7807000 h 508000"
               id="path749" /><path
               d="m 8763000,8442000 h 3294000"
               id="path751" /><path
               d="M 4572000,7807000 H 7620000"
               id="path753" /><path
               d="m 8128000,7807000 635000,635000"
               id="path755" /><path
               d="m 22861270,21778270 h 1918240"
               id="path757" /><path
               d="m 21912000,22725000 948000,-948000"
               id="path759" /><path
               d="m 22860000,21777000 1270,1270"
               id="path761" /><path
               d="m 20871000,22725000 h 1041000"
               id="path763" /><path
               d="m 16721000,22725000 h 4150000"
               id="path765" /><path
               d="M 40019510,5062490 41593000,3489000"
               id="path767" /></g><g
             style="fill:#000000;fill-opacity:0;stroke:#000000;stroke-width:800000;stroke-linecap:round;stroke-linejoin:round;stroke-opacity:1"
             id="g773"><path
               d="m 41593000,2423200 -1000,-1000"
               id="path771" /></g><g
             style="fill:#000000;fill-opacity:0;stroke:#000000;stroke-width:600000;stroke-linecap:round;stroke-linejoin:round;stroke-opacity:1"
             id="g777"><path
               d="M 40019510,5613710 V 5062490"
               id="path775" /></g><g
             style="fill:#000000;fill-opacity:0;stroke:#000000;stroke-width:800000;stroke-linecap:round;stroke-linejoin:round;stroke-opacity:1"
             id="g781"><path
               d="M 41593000,3489000 V 2423200"
               id="path779" /></g><g
             id="g783" /><g
             style="fill:#000000;fill-opacity:0;stroke:#000000;stroke-width:800000;stroke-linecap:round;stroke-linejoin:round;stroke-opacity:1"
             id="g791"><g
               id="g785" /><g
               style="fill:#000000;fill-opacity:1;stroke:#000000;stroke-width:1;stroke-linecap:round;stroke-linejoin:round;stroke-opacity:1"
               id="g789"><path
                 style="fill:#000000;fill-opacity:1;fill-rule:evenodd;stroke:#000000;stroke-width:1;stroke-linecap:round;stroke-linejoin:round;stroke-opacity:1"
                 d="m 11077912,5459758 52796,29722 126795,92983 3,1 20094,14736 h 1144000 l 96819,19258 82079,54844 54844,82079 19258,96819 v 103600 l -19258,96819 -54844,82079 -82079,54844 -96819,19258 h -1110847 l -65189,-8543 -333014,-88804 h -2 l -15948,-4253 h -534400 l -96819,-19258 -82079,-54844 -54844,-82079 -19258,-96819 v -158700 l 19258,-96819 54844,-82079 82079,-54844 96819,-19258 h 618893 z"
                 id="path787" /></g></g><g
             style="fill:#000000;fill-opacity:1;stroke:#000000;stroke-width:1;stroke-linecap:round;stroke-linejoin:round;stroke-opacity:1"
             id="g797"><g
               id="g795"><path
                 style="fill:#000000;fill-opacity:1;fill-rule:evenodd;stroke:#000000;stroke-width:1;stroke-linecap:round;stroke-linejoin:round;stroke-opacity:1"
                 d="m 43891319,1426758 82079,54844 54844,82079 19258,96819 v 21477000 l -19258,96819 -54844,82079 -82079,54844 -96819,19258 h -2012500 l -96819,-19258 -82079,-54844 -54844,-82079 -19258,-96819 v -3773500 l -381000,-381000 h -2286000 l -381000,381000 v 3773500 l -19258,96819 -54844,82079 -82079,54844 -96819,19258 h -1526000 l -96819,-19258 -82079,-54844 -54844,-82079 -19258,-96819 v -3773500 l -746738,-746738 -20268,-23731 -3444,-5965 -43554,-48371 -8573,-10038 -10841,-13388 -12162,-12162 -9118,-9608 -34666,-38500 -8873,-9855 -10731,-7796 -9847,-8867 250,-278 -13154,-11235 -1976239,-1976239 -11235,-13154 -278,250 -8867,-9847 -7796,-10731 -48355,-43539 -9608,-9118 -12162,-12162 -13388,-10841 -10038,-8573 -48371,-43554 -11481,-6628 -8651,-6286 -8976,-5830 -10306,-8345 -11812,-6019 -10,-6 -46167,-23523 -11639,-6319 -13665,-7889 -42681,-24642 -12611,-4097 -9771,-4351 -9991,-3835 -11813,-6019 -62847,-16840 -12697,-3761 -61898,-20112 -13186,-1386 -10447,-2221 -10582,-1676 -12810,-3432 -64972,-3405 -13205,-1039 -10532,-1107 -6584,-692 h -17209 l -13241,-347 -567,-30 -64403,-3375 -13095,2074 -13243,694 -20,-373 -17242,1357 h -9729294 l -96819,-19258 -82079,-54844 -616601,-616601 -10536,-14058 -14058,-10536 -120603,-120603 h -66293 l -47141,-5527 -4850,-1818 -33447,-3633 -21919,-2382 h -8 l -6808,-740 h -2258268 l -6808,740 h -8 l -39592,4301 -3,1 -15771,1713 -31807,11924 -87703,32878 -2,1 -16877,6327 -14421,10808 -2,1 -87712,65737 -14421,10808 -87354,116556 -51130,136389 -6755,62182 v 2596268 l 6755,62182 18619,49665 24374,65018 8137,21706 10808,14421 1,2 54017,72074 22528,30059 14421,10808 87712,65737 2,1 14421,10808 16877,6327 2,1 51222,19202 68288,25600 15771,1713 3,1 39592,4301 h 8 l 6808,740 h 1957134 l 96819,19258 82079,54844 54844,82079 19258,96819 v 1731500 l -19258,96819 -54844,82079 -82079,54844 -96819,19258 h -5336000 l -96819,-19258 -82079,-54844 -54844,-82079 -19258,-96819 v -1166204 l 19258,-96819 54844,-82079 1830898,-1830898 v -4467204 l 19258,-96819 54844,-82079 2592898,-2592898 V 9206688 l 19258,-96819 54844,-82079 82079,-54844 96819,-19258 96819,19258 82079,54844 613953,613953 1863,1883 62557,63881 31037,20002 20780,14932 28855,23035 12737,6157 10457,5055 26939,15116 21662,13961 34705,12632 23557,9951 33249,16073 13775,3180 5,2 11328,2615 29618,8773 24210,8812 36628,4627 25198,4488 35974,8306 41030,143 274,9 980,124 h 36493 l 883,2 101725,355 1345,-301 1040,-56 h 4117369 l 2650,14 75300,789 h 2 l 14145,148 13829,-2990 h 1 l 22258,-4812 25254,-4136 8226,-923 28466,-3193 24335,-8474 29731,-8357 11358,-2456 4,-1 13827,-2990 12815,-5976 7,-2 20633,-9622 23723,-9633 21504,-7488 4,-2 13356,-4651 21860,-13659 27129,-14730 23361,-10894 29177,-22633 20977,-14633 31320,-19570 29121,-28918 193,-180 780,-606 25653,-25653 625,-623 69534,-69050 4,-4 2796,-2777 737,-1162 701,-781 636970,-636970 82079,-54844 96819,-19258 h 927112 l 96819,19258 82079,54844 54844,82079 19258,96819 v 2013292 l -5,1546 -471,77083 4952,17328 1,4 794,2779 7183,33649 410,2860 2556,17846 7460,16408 547,1870 10371,28186 798,1784 4955,17336 9619,15245 2,4 1535,2433 16344,30290 1196,2630 7461,16409 11767,13656 1045,1634 17872,24154 1265,1486 9619,15246 13509,11931 1,1 2164,1911 24184,24482 1888,2191 3,2 11762,13651 15120,9801 1460,1273 23936,18169 1636,1075 13512,11933 16317,7661 2617,1229 30067,16700 17563,11384 17270,5165 1767,816 28056,10713 1870,572 16322,7663 20675,3219 33547,7592 20044,5994 35036,214 v 41 l 350,14 934,145 h 30706 l 1547,5 77082,471 1594,-456 298,-20 h 8419479 l 1546,5 59061,361 h 1 l 18021,110 17328,-4952 4,-1 2779,-794 33460,-7156 625,-90 36060,-2583 h 1001623 L 41529000,9331000 V 4801188 l 19258,-96819 54844,-82079 76076,-76076 82079,-54844 84687,-18871 h 3690 l 5780,-531 54275,-4986 4,-1 13369,-1228 12810,-4014 3,-1 136273,-42706 14551,-4560 146682,-88833 121258,-121258 88833,-146682 42023,-134094 5244,-16733 1,-4 4013,-12806 3364,-36607 2853,-31047 v -10 l 530,-5763 V 2514609 l 1357,-17242 -373,-20 694,-13243 2074,-13095 -3405,-64970 -347,-13241 v -17208 l -667,-6344 -334,-12749 v -265931 l -6746,-73428 -13376,-42683 -11577,-75657 v -238298 l 19258,-96819 54844,-82079 82079,-54844 96819,-19258 h 1072700 z"
                 id="path793" /></g></g><g
             style="fill:#000000;fill-opacity:1;stroke:#000000;stroke-width:1;stroke-linecap:round;stroke-linejoin:round;stroke-opacity:1"
             id="g803"><g
               id="g801"><path
                 style="fill:#000000;fill-opacity:1;fill-rule:evenodd;stroke:#000000;stroke-width:1;stroke-linecap:round;stroke-linejoin:round;stroke-opacity:1"
                 d="m 12518419,6886458 82079,54844 54844,82079 19258,96819 v 103600 l -19258,96819 -54844,82079 -82079,54844 -96819,19258 h -1144000 l -12253,8985 -8,5 -134631,98730 -89464,41725 -60151,7255 h -593493 l -96819,-19258 -82079,-54844 -54844,-82079 -19258,-96819 v -158700 l 19258,-96819 54844,-82079 82079,-54844 96819,-19258 h 509000 l 15948,-4253 h 2 l 333014,-88804 65189,-8543 h 1110847 z"
                 id="path799" /></g></g><g
             style="fill:#000000;fill-opacity:1;stroke:#000000;stroke-width:1;stroke-linecap:round;stroke-linejoin:round;stroke-opacity:1"
             id="g809"><g
               id="g807"><path
                 style="fill:#000000;fill-opacity:1;fill-rule:evenodd;stroke:#000000;stroke-width:1;stroke-linecap:round;stroke-linejoin:round;stroke-opacity:1"
                 d="m 2256819,1426758 82079,54844 54844,82079 19258,96819 v 961313 l -19258,96819 -54844,82078 -363638,363638 -1883,1863 -63884,62560 -20002,31037 -14932,20780 -23035,28855 -6157,12737 -5055,10457 -15116,26939 -13961,21662 -12632,34705 -9951,23557 -16073,33249 -3180,13775 -2,5 -2615,11328 -8773,29618 -8812,24210 -4438,35134 -189,1494 -4488,25198 -8306,35974 -143,41022 -9,282 -124,980 v 36493 l -2,883 -355,101725 301,1345 56,1040 v 5487869 l -14,2650 -277,26484 -660,62963 2990,13829 v 1 l 4812,22258 4136,25254 4116,36692 8474,24334 8357,29732 2456,11358 1,4 2990,13827 5976,12815 2,7 9622,20633 9632,23720 12142,34867 13659,21860 14730,27129 10894,23361 22633,29177 14633,20977 19570,31320 9967,10037 18951,19084 180,193 606,780 25653,25653 622,624 71832,72335 1162,737 781,701 437223,437223 1863,1883 62557,63881 31037,20002 20780,14932 28855,23035 23199,11215 26938,15117 9765,6294 10,5 11883,7658 34691,12626 23579,9961 20507,9914 4,1 12729,6154 13779,3181 5,2 11326,2615 29608,8770 10924,3976 7,2 13288,4836 36628,4627 25198,4488 35974,8306 41030,143 274,9 980,124 h 36493 l 881,2 643,2 15098,53 96751,19596 81887,55130 54556,82271 18922,96001 v 637757 l -19258,96819 -54844,82079 -236641,236641 -1883,1863 -63881,62557 -20002,31037 -14932,20780 -23035,28855 -6157,12737 -5055,10457 -15116,26939 -13961,21662 -12632,34705 -9951,23557 -16073,33249 -3180,13775 -2,5 -2615,11328 -8773,29618 -8812,24210 -4537,35919 -90,709 -4488,25198 -8306,35974 -49,14146 -94,26876 -9,282 -124,980 v 36493 l -2,883 -355,101725 301,1345 56,1040 v 2413369 l -14,2650 -937,89447 2990,13829 v 1 l 4812,22258 4136,25254 4116,36692 8474,24334 8357,29732 2456,11358 1,4 2990,13827 5976,12815 2,7 9622,20633 9632,23720 12142,34867 13659,21860 14730,27129 10894,23361 22633,29177 14633,20977 19570,31320 9967,10037 18951,19084 180,193 606,780 25653,25653 623,625 66732,67199 5099,5135 1162,737 781,701 1036270,1036270 54844,82079 19258,96819 v 451712 l 10974,105765 55976,167780 93072,150403 125175,124957 150565,92810 167877,55682 104461,10703 h 1950800 l 6514,-676 h 2 l 8477,-879 98290,9165 87300,46081 63020,75981 29146,94315 1351,26107 v 10540 l 6755,62182 51130,136389 87354,116556 14421,10808 87712,65737 2,1 14421,10808 16877,6327 2,1 51222,19202 68288,25600 15771,1713 3,1 39592,4301 h 8 l 6808,740 h 2258268 l 6808,-740 h 8 l 39592,-4301 3,-1 15771,-1713 68288,-25600 51222,-19202 2,-1 16877,-6327 14421,-10808 2,-1 87712,-65737 14421,-10808 87354,-116556 51130,-136389 6755,-62182 v -2596268 l -2020,-18595 -1480,-27324 v -501947 l -254000,-254000 H 4825000 l -96819,-19258 -82079,-54844 -54844,-82079 -19258,-96819 v -1547204 l 19258,-96819 54844,-82079 105796,-105796 82079,-54844 96819,-19258 h 657204 l 381000,-381000 v -1144000 l 19258,-96819 54844,-82079 82079,-54844 49372,-9821 -910,-4576 24439,-4861 h 24918 l 381000,-381000 V 9584000 l 19258,-96819 54844,-82079 82079,-54844 96819,-19258 h 6097000 l 381000,-381000 v -224561 l 2681,-29599 -119,-9 2548,-32374 390,-4955 v -433004 l -2938,-37329 119,-9 -2681,-29599 v -703122 l 2681,-29599 -119,-9 2548,-32374 390,-4955 v -433004 l -2938,-37329 119,-9 -2681,-29599 v -703122 l 2681,-29599 -119,-9 2548,-32374 390,-4955 v -433004 l -2938,-37329 119,-9 -2681,-29599 v -703122 l 2681,-29599 -119,-9 2548,-32374 390,-4955 v -433004 l -2938,-37329 119,-9 -2681,-29599 v -224561 l -381000,-381000 H 7111000 l -96819,-19258 -82079,-54844 -54844,-82079 -19258,-96819 v -463500 l 19258,-96819 54844,-82079 82079,-54844 96819,-19258 h 7181312 l 96819,19258 82079,54844 110488,110488 54844,82079 19258,96819 v 580612 l 1399098,1399098 54844,82079 19258,96819 v 322965 l -2681,29599 119,9 -2938,37329 v 433004 l 390,4955 2548,32374 -119,9 2681,29599 v 224561 l 431800,431800 h 2744200 l 96819,19258 82079,54844 54844,82079 19258,96819 v 2004404 l -19258,96819 -54844,82079 -1629796,1629796 -82079,54844 -96819,19258 h -5610204 l -381000,381000 v 5969000 l 1449898,1449898 54844,82079 19258,96819 v 4176704 l -19258,96819 -54844,82079 -82079,54844 -96819,19258 H 817500 l -96819,-19258 -82079,-54844 -54844,-82079 -19258,-96819 v -2488500 h 1128026 l 19865,252403 59104,246188 96889,233911 132288,215874 164430,192522 192522,164430 215874,132288 233911,96889 9658,2319 4,1 89718,21539 146808,35245 189204,14891 h 126398 l 189204,-14891 146808,-35245 89718,-21539 4,-1 9658,-2319 233911,-96889 215874,-132288 192522,-164430 164430,-192522 132288,-215874 96889,-233911 59104,-246188 19865,-252403 -19865,-252403 -59104,-246188 -96889,-233911 -132288,-215874 -164430,-192522 -192522,-164430 -215874,-132288 -233911,-96889 -9658,-2319 -4,-1 -89718,-21539 -146808,-35245 -189204,-14891 h -126398 l -189204,14891 -146808,35245 -89718,21539 -4,1 -9658,2319 -233911,96889 -215874,132288 -192522,164430 -164430,192522 -132288,215874 -96889,233911 -59104,246188 -19865,252403 H 564500 V 1660500 l 19258,-96819 54844,-82079 82079,-54844 96819,-19258 h 1342500 z"
                 id="path805" /></g></g></g><g
           style="fill:#ffffff;fill-opacity:1;stroke:#ffffff;stroke-width:1;stroke-linecap:round;stroke-linejoin:round;stroke-opacity:1"
           id="g815"><circle
             cx="3306000"
             cy="20649000"
             r="1099999.5"
             id="circle813" /></g><g
           style="fill:#ffffff;fill-opacity:1;stroke:#ffffff;stroke-width:21200;stroke-linecap:round;stroke-linejoin:round;stroke-opacity:1"
           id="g817" /><g
           style="fill:#ffffff;fill-opacity:1;stroke:#ffffff;stroke-width:1;stroke-linecap:round;stroke-linejoin:round;stroke-opacity:1"
           id="g821"><circle
             cx="21806000"
             cy="3149000"
             r="1099999.5"
             id="circle819" /></g><g
           style="fill:#ffffff;fill-opacity:1;stroke:#ffffff;stroke-width:21200;stroke-linecap:round;stroke-linejoin:round;stroke-opacity:1"
           id="g823" /><g
           style="fill:#000000;fill-opacity:1;stroke:#000000;stroke-width:21200;stroke-linecap:round;stroke-linejoin:round;stroke-opacity:1"
           id="g825" /><g
           style="fill:#000000;fill-opacity:1;stroke:#000000;stroke-width:100000;stroke-linecap:round;stroke-linejoin:round;stroke-opacity:1"
           id="g827" /><g
           style="fill:#000000;fill-opacity:0;stroke:#000000;stroke-width:100000;stroke-linecap:round;stroke-linejoin:round;stroke-opacity:1"
           id="g897"><path
             d="M 44556000,23899000 H 56000"
             id="path829" /><path
             d="M 29556000,11149000 V 899000"
             id="path831" /><path
             d="M 56000,23899000 V 899000"
             id="path833" /><path
             d="M 44556000,899000 H 38056000"
             id="path835" /><path
             d="M 38056000,11149000 H 29556000"
             id="path837" /><path
             d="M 38056000,899000 V 11149000"
             id="path839" /><path
             d="M 44556000,899000 V 23899000"
             id="path841" /><path
             d="M 56000,899000 H 29556000"
             id="path843" /><g
             id="g845" /><g
             id="g847" /><g
             id="g849" /><g
             id="g851" /><g
             id="g853" /><g
             id="g855" /><g
             id="g857" /><g
             id="g859" /><g
             id="g861" /><g
             id="g863" /><g
             id="g865" /><g
             id="g867" /><g
             id="g869" /><g
             id="g871" /><g
             id="g873" /><g
             id="g875" /><g
             id="g877" /><g
             id="g879" /><g
             id="g881" /><g
             id="g883" /><g
             id="g885" /><g
             id="g887" /><g
             id="g889" /><g
             id="g891" /><g
             id="g893" /><g
             id="g895" /></g></g></g></g></svg>
