<?xml version="1.0" standalone="no"?>
 <!DOCTYPE svg PUBLIC "-//W3C//DTD SVG 1.1//EN" 
 "http://www.w3.org/Graphics/SVG/1.1/DTD/svg11.dtd"> 
<svg
  xmlns:svg="http://www.w3.org/2000/svg"
  xmlns="http://www.w3.org/2000/svg"
  xmlns:xlink="http://www.w3.org/1999/xlink"
  version="1.1"
  width="4.536440cm" height="2.405380cm" viewBox="0 0 45364400 24053800">
<title>SVG Picture created as MainBoard-F_Cu.svg date 2023/05/05 19:30:15 </title>
  <desc>Picture generated by PCBNEW </desc>
<g style="fill:#000000; fill-opacity:1.000000;stroke:#000000; stroke-opacity:1.000000;
stroke-linecap:round; stroke-linejoin:round;"
 transform="translate(0 0) scale(1 1)">
</g>
<g style="fill:#000000; fill-opacity:0.0; 
stroke:#000000; stroke-width:0.000000; stroke-opacity:1; 
stroke-linecap:round; stroke-linejoin:round;">
<g >
</g>
<g style="fill:#000000; fill-opacity:0.0; 
stroke:#000000; stroke-width:1998980.000000; stroke-opacity:1; 
stroke-linecap:round; stroke-linejoin:round;">
<path d="M40019510 5239060
L40019510 5988360
" />
<path d="M27319510 5239060
L27319510 5988360
" />
<path d="M24779510 5239060
L24779510 5988360
" />
<path d="M24779510 21403620
L24779510 22152920
" />
<path d="M27319510 21403620
L27319510 22152920
" />
<path d="M29859510 21403620
L29859510 22152920
" />
<path d="M32399510 21403620
L32399510 22152920
" />
<path d="M34939510 21403620
L34939510 22152920
" />
<path d="M37479510 21403620
L37479510 22152920
" />
<path d="M40019510 21403620
L40019510 22152920
" />
</g>
<g >
</g>
<g >
</g>
<g style="fill:#000000; fill-opacity:0.0; 
stroke:#000000; stroke-width:1998980.000000; stroke-opacity:1; 
stroke-linecap:round; stroke-linejoin:round;">
</g>
<g style="fill:#000000; fill-opacity:0.0; 
stroke:#000000; stroke-width:1.000000; stroke-opacity:1; 
stroke-linecap:round; stroke-linejoin:round;">
</g>
<g style="fill:#000000; fill-opacity:1.0; 
stroke:#000000; stroke-width:1.000000; stroke-opacity:1; 
stroke-linecap:round; stroke-linejoin:round;">
<path style="fill:#000000; fill-opacity:1.0; 
stroke:#000000; stroke-width:1.000000; stroke-opacity:1; 
stroke-linecap:round; stroke-linejoin:round;fill-rule:evenodd;"
d="M 38481000.000000,2184700.000000
38499079.000000,2093813.000000
38550562.000000,2016762.000000
38627613.000000,1965279.000000
38718500.000000,1947200.000000
40104500.000000,1947200.000000
40195387.000000,1965279.000000
40272438.000000,2016762.000000
40323921.000000,2093813.000000
40342000.000000,2184700.000000
40342000.000000,2659700.000000
40323921.000000,2750587.000000
40272438.000000,2827638.000000
40195387.000000,2879121.000000
40104500.000000,2897200.000000
38718500.000000,2897200.000000
38627613.000000,2879121.000000
38550562.000000,2827638.000000
38499079.000000,2750587.000000
38481000.000000,2659700.000000
Z" /> 
<path style="fill:#000000; fill-opacity:1.0; 
stroke:#000000; stroke-width:1.000000; stroke-opacity:1; 
stroke-linecap:round; stroke-linejoin:round;fill-rule:evenodd;"
d="M 41192000.000000,2147200.000000
41207224.000000,2070663.000000
41250579.000000,2005779.000000
41315463.000000,1962424.000000
41392000.000000,1947200.000000
41792000.000000,1947200.000000
41868537.000000,1962424.000000
41933421.000000,2005779.000000
41976776.000000,2070663.000000
41992000.000000,2147200.000000
41992000.000000,2697200.000000
41976776.000000,2773737.000000
41933421.000000,2838621.000000
41868537.000000,2881976.000000
41792000.000000,2897200.000000
41392000.000000,2897200.000000
41315463.000000,2881976.000000
41250579.000000,2838621.000000
41207224.000000,2773737.000000
41192000.000000,2697200.000000
Z" /> 
</g>
<g >
</g>
<g style="fill:#000000; fill-opacity:1.0; 
stroke:#000000; stroke-width:1.000000; stroke-opacity:1; 
stroke-linecap:round; stroke-linejoin:round;">
<path style="fill:#000000; fill-opacity:1.0; 
stroke:#000000; stroke-width:1.000000; stroke-opacity:1; 
stroke-linecap:round; stroke-linejoin:round;fill-rule:evenodd;"
d="M 21466000.000000,8044500.000000
21447921.000000,8135387.000000
21396438.000000,8212438.000000
21319387.000000,8263921.000000
21228500.000000,8282000.000000
20628500.000000,8282000.000000
20537613.000000,8263921.000000
20460562.000000,8212438.000000
20409079.000000,8135387.000000
20391000.000000,8044500.000000
20391000.000000,7569500.000000
20409079.000000,7478613.000000
20460562.000000,7401562.000000
20537613.000000,7350079.000000
20628500.000000,7332000.000000
21228500.000000,7332000.000000
21319387.000000,7350079.000000
21396438.000000,7401562.000000
21447921.000000,7478613.000000
21466000.000000,7569500.000000
Z" /> 
<path style="fill:#000000; fill-opacity:1.0; 
stroke:#000000; stroke-width:1.000000; stroke-opacity:1; 
stroke-linecap:round; stroke-linejoin:round;fill-rule:evenodd;"
d="M 19741000.000000,8044500.000000
19722921.000000,8135387.000000
19671438.000000,8212438.000000
19594387.000000,8263921.000000
19503500.000000,8282000.000000
18903500.000000,8282000.000000
18812613.000000,8263921.000000
18735562.000000,8212438.000000
18684079.000000,8135387.000000
18666000.000000,8044500.000000
18666000.000000,7569500.000000
18684079.000000,7478613.000000
18735562.000000,7401562.000000
18812613.000000,7350079.000000
18903500.000000,7332000.000000
19503500.000000,7332000.000000
19594387.000000,7350079.000000
19671438.000000,7401562.000000
19722921.000000,7478613.000000
19741000.000000,7569500.000000
Z" /> 
</g>
<g >
</g>
<g style="fill:#000000; fill-opacity:1.0; 
stroke:#000000; stroke-width:1.000000; stroke-opacity:1; 
stroke-linecap:round; stroke-linejoin:round;">
<path style="fill:#000000; fill-opacity:1.0; 
stroke:#000000; stroke-width:1.000000; stroke-opacity:1; 
stroke-linecap:round; stroke-linejoin:round;fill-rule:evenodd;"
d="M 16386000.000000,3472500.000000
16367921.000000,3563387.000000
16316438.000000,3640438.000000
16239387.000000,3691921.000000
16148500.000000,3710000.000000
15548500.000000,3710000.000000
15457613.000000,3691921.000000
15380562.000000,3640438.000000
15329079.000000,3563387.000000
15311000.000000,3472500.000000
15311000.000000,2997500.000000
15329079.000000,2906613.000000
15380562.000000,2829562.000000
15457613.000000,2778079.000000
15548500.000000,2760000.000000
16148500.000000,2760000.000000
16239387.000000,2778079.000000
16316438.000000,2829562.000000
16367921.000000,2906613.000000
16386000.000000,2997500.000000
Z" /> 
<path style="fill:#000000; fill-opacity:1.0; 
stroke:#000000; stroke-width:1.000000; stroke-opacity:1; 
stroke-linecap:round; stroke-linejoin:round;fill-rule:evenodd;"
d="M 14661000.000000,3472500.000000
14642921.000000,3563387.000000
14591438.000000,3640438.000000
14514387.000000,3691921.000000
14423500.000000,3710000.000000
13823500.000000,3710000.000000
13732613.000000,3691921.000000
13655562.000000,3640438.000000
13604079.000000,3563387.000000
13586000.000000,3472500.000000
13586000.000000,2997500.000000
13604079.000000,2906613.000000
13655562.000000,2829562.000000
13732613.000000,2778079.000000
13823500.000000,2760000.000000
14423500.000000,2760000.000000
14514387.000000,2778079.000000
14591438.000000,2829562.000000
14642921.000000,2906613.000000
14661000.000000,2997500.000000
Z" /> 
</g>
<g >
</g>
<g style="fill:#000000; fill-opacity:1.0; 
stroke:#000000; stroke-width:1.000000; stroke-opacity:1; 
stroke-linecap:round; stroke-linejoin:round;">
<path style="fill:#000000; fill-opacity:1.0; 
stroke:#000000; stroke-width:1.000000; stroke-opacity:1; 
stroke-linecap:round; stroke-linejoin:round;fill-rule:evenodd;"
d="M 6870000.000000,5767000.000000
6774329.000000,5747970.000000
6693223.000000,5693777.000000
6639030.000000,5612671.000000
6620000.000000,5517000.000000
6620000.000000,5017000.000000
6639030.000000,4921329.000000
6693223.000000,4840223.000000
6774329.000000,4786030.000000
6870000.000000,4767000.000000
8370000.000000,4767000.000000
8465671.000000,4786030.000000
8546777.000000,4840223.000000
8600970.000000,4921329.000000
8620000.000000,5017000.000000
8620000.000000,5517000.000000
8600970.000000,5612671.000000
8546777.000000,5693777.000000
8465671.000000,5747970.000000
8370000.000000,5767000.000000
Z" /> 
</g>
<g >
</g>
<g style="fill:#000000; fill-opacity:1.0; 
stroke:#000000; stroke-width:1.000000; stroke-opacity:1; 
stroke-linecap:round; stroke-linejoin:round;">
<path style="fill:#000000; fill-opacity:1.0; 
stroke:#000000; stroke-width:1.000000; stroke-opacity:1; 
stroke-linecap:round; stroke-linejoin:round;fill-rule:evenodd;"
d="M 3822000.000000,3735000.000000
3726329.000000,3715970.000000
3645223.000000,3661777.000000
3591030.000000,3580671.000000
3572000.000000,3485000.000000
3572000.000000,2985000.000000
3591030.000000,2889329.000000
3645223.000000,2808223.000000
3726329.000000,2754030.000000
3822000.000000,2735000.000000
5322000.000000,2735000.000000
5417671.000000,2754030.000000
5498777.000000,2808223.000000
5552970.000000,2889329.000000
5572000.000000,2985000.000000
5572000.000000,3485000.000000
5552970.000000,3580671.000000
5498777.000000,3661777.000000
5417671.000000,3715970.000000
5322000.000000,3735000.000000
Z" /> 
</g>
<g >
</g>
<g style="fill:#000000; fill-opacity:1.0; 
stroke:#000000; stroke-width:1.000000; stroke-opacity:1; 
stroke-linecap:round; stroke-linejoin:round;">
<path style="fill:#000000; fill-opacity:1.0; 
stroke:#000000; stroke-width:1.000000; stroke-opacity:1; 
stroke-linecap:round; stroke-linejoin:round;fill-rule:evenodd;"
d="M 41193000.000000,3214000.000000
41208224.000000,3137463.000000
41251579.000000,3072579.000000
41316463.000000,3029224.000000
41393000.000000,3014000.000000
41793000.000000,3014000.000000
41869537.000000,3029224.000000
41934421.000000,3072579.000000
41977776.000000,3137463.000000
41993000.000000,3214000.000000
41993000.000000,3764000.000000
41977776.000000,3840537.000000
41934421.000000,3905421.000000
41869537.000000,3948776.000000
41793000.000000,3964000.000000
41393000.000000,3964000.000000
41316463.000000,3948776.000000
41251579.000000,3905421.000000
41208224.000000,3840537.000000
41193000.000000,3764000.000000
Z" /> 
<path style="fill:#000000; fill-opacity:1.0; 
stroke:#000000; stroke-width:1.000000; stroke-opacity:1; 
stroke-linecap:round; stroke-linejoin:round;fill-rule:evenodd;"
d="M 42843000.000000,3214000.000000
42858224.000000,3137463.000000
42901579.000000,3072579.000000
42966463.000000,3029224.000000
43043000.000000,3014000.000000
43443000.000000,3014000.000000
43519537.000000,3029224.000000
43584421.000000,3072579.000000
43627776.000000,3137463.000000
43643000.000000,3214000.000000
43643000.000000,3764000.000000
43627776.000000,3840537.000000
43584421.000000,3905421.000000
43519537.000000,3948776.000000
43443000.000000,3964000.000000
43043000.000000,3964000.000000
42966463.000000,3948776.000000
42901579.000000,3905421.000000
42858224.000000,3840537.000000
42843000.000000,3764000.000000
Z" /> 
</g>
<g >
</g>
<g style="fill:#000000; fill-opacity:1.0; 
stroke:#000000; stroke-width:1.000000; stroke-opacity:1; 
stroke-linecap:round; stroke-linejoin:round;">
<path style="fill:#000000; fill-opacity:1.0; 
stroke:#000000; stroke-width:1.000000; stroke-opacity:1; 
stroke-linecap:round; stroke-linejoin:round;fill-rule:evenodd;"
d="M 6988000.000000,11600500.000000
6969921.000000,11691387.000000
6918438.000000,11768438.000000
6841387.000000,11819921.000000
6750500.000000,11838000.000000
6150500.000000,11838000.000000
6059613.000000,11819921.000000
5982562.000000,11768438.000000
5931079.000000,11691387.000000
5913000.000000,11600500.000000
5913000.000000,11125500.000000
5931079.000000,11034613.000000
5982562.000000,10957562.000000
6059613.000000,10906079.000000
6150500.000000,10888000.000000
6750500.000000,10888000.000000
6841387.000000,10906079.000000
6918438.000000,10957562.000000
6969921.000000,11034613.000000
6988000.000000,11125500.000000
Z" /> 
<path style="fill:#000000; fill-opacity:1.0; 
stroke:#000000; stroke-width:1.000000; stroke-opacity:1; 
stroke-linecap:round; stroke-linejoin:round;fill-rule:evenodd;"
d="M 5263000.000000,11600500.000000
5244921.000000,11691387.000000
5193438.000000,11768438.000000
5116387.000000,11819921.000000
5025500.000000,11838000.000000
4425500.000000,11838000.000000
4334613.000000,11819921.000000
4257562.000000,11768438.000000
4206079.000000,11691387.000000
4188000.000000,11600500.000000
4188000.000000,11125500.000000
4206079.000000,11034613.000000
4257562.000000,10957562.000000
4334613.000000,10906079.000000
4425500.000000,10888000.000000
5025500.000000,10888000.000000
5116387.000000,10906079.000000
5193438.000000,10957562.000000
5244921.000000,11034613.000000
5263000.000000,11125500.000000
Z" /> 
</g>
<g >
</g>
<g style="fill:#000000; fill-opacity:1.0; 
stroke:#000000; stroke-width:1.000000; stroke-opacity:1; 
stroke-linecap:round; stroke-linejoin:round;">
<path style="fill:#000000; fill-opacity:1.0; 
stroke:#000000; stroke-width:1.000000; stroke-opacity:1; 
stroke-linecap:round; stroke-linejoin:round;fill-rule:evenodd;"
d="M 6870000.000000,10339000.000000
6774329.000000,10319970.000000
6693223.000000,10265777.000000
6639030.000000,10184671.000000
6620000.000000,10089000.000000
6620000.000000,9589000.000000
6639030.000000,9493329.000000
6693223.000000,9412223.000000
6774329.000000,9358030.000000
6870000.000000,9339000.000000
8370000.000000,9339000.000000
8465671.000000,9358030.000000
8546777.000000,9412223.000000
8600970.000000,9493329.000000
8620000.000000,9589000.000000
8620000.000000,10089000.000000
8600970.000000,10184671.000000
8546777.000000,10265777.000000
8465671.000000,10319970.000000
8370000.000000,10339000.000000
Z" /> 
</g>
<g >
</g>
<g style="fill:#000000; fill-opacity:1.0; 
stroke:#000000; stroke-width:1.000000; stroke-opacity:1; 
stroke-linecap:round; stroke-linejoin:round;">
<path style="fill:#000000; fill-opacity:1.0; 
stroke:#000000; stroke-width:1.000000; stroke-opacity:1; 
stroke-linecap:round; stroke-linejoin:round;fill-rule:evenodd;"
d="M 6870000.000000,3735000.000000
6774329.000000,3715970.000000
6693223.000000,3661777.000000
6639030.000000,3580671.000000
6620000.000000,3485000.000000
6620000.000000,2985000.000000
6639030.000000,2889329.000000
6693223.000000,2808223.000000
6774329.000000,2754030.000000
6870000.000000,2735000.000000
8370000.000000,2735000.000000
8465671.000000,2754030.000000
8546777.000000,2808223.000000
8600970.000000,2889329.000000
8620000.000000,2985000.000000
8620000.000000,3485000.000000
8600970.000000,3580671.000000
8546777.000000,3661777.000000
8465671.000000,3715970.000000
8370000.000000,3735000.000000
Z" /> 
</g>
<g >
</g>
<g style="fill:#000000; fill-opacity:1.0; 
stroke:#000000; stroke-width:1.000000; stroke-opacity:1; 
stroke-linecap:round; stroke-linejoin:round;">
<path style="fill:#000000; fill-opacity:1.0; 
stroke:#000000; stroke-width:1.000000; stroke-opacity:1; 
stroke-linecap:round; stroke-linejoin:round;fill-rule:evenodd;"
d="M 21844000.000000,15769000.000000
21844000.000000,18269000.000000
19682000.000000,18269000.000000
19682000.000000,15769000.000000
Z" /> 
<path style="fill:#000000; fill-opacity:1.0; 
stroke:#000000; stroke-width:1.000000; stroke-opacity:1; 
stroke-linecap:round; stroke-linejoin:round;fill-rule:evenodd;"
d="M 9782000.000000,15769000.000000
9782000.000000,18269000.000000
7620000.000000,18269000.000000
7620000.000000,15769000.000000
Z" /> 
<path style="fill:#000000; fill-opacity:1.0; 
stroke:#000000; stroke-width:1.000000; stroke-opacity:1; 
stroke-linecap:round; stroke-linejoin:round;fill-rule:evenodd;"
d="M 21844000.000000,11469000.000000
21844000.000000,13969000.000000
19682000.000000,13969000.000000
19682000.000000,11469000.000000
Z" /> 
<path style="fill:#000000; fill-opacity:1.0; 
stroke:#000000; stroke-width:1.000000; stroke-opacity:1; 
stroke-linecap:round; stroke-linejoin:round;fill-rule:evenodd;"
d="M 13182000.000000,18869000.000000
13182000.000000,19999000.000000
10282000.000000,19999000.000000
10282000.000000,18869000.000000
Z" /> 
<path style="fill:#000000; fill-opacity:1.0; 
stroke:#000000; stroke-width:1.000000; stroke-opacity:1; 
stroke-linecap:round; stroke-linejoin:round;fill-rule:evenodd;"
d="M 9782000.000000,11469000.000000
9782000.000000,13969000.000000
7620000.000000,13969000.000000
7620000.000000,11469000.000000
Z" /> 
<path style="fill:#000000; fill-opacity:1.0; 
stroke:#000000; stroke-width:1.000000; stroke-opacity:1; 
stroke-linecap:round; stroke-linejoin:round;fill-rule:evenodd;"
d="M 17682000.000000,9331000.000000
17682000.000000,10969000.000000
9782000.000000,10969000.000000
9782000.000000,9331000.000000
Z" /> 
</g>
<g >
</g>
<g style="fill:#000000; fill-opacity:1.0; 
stroke:#000000; stroke-width:1.000000; stroke-opacity:1; 
stroke-linecap:round; stroke-linejoin:round;">
<path style="fill:#000000; fill-opacity:1.0; 
stroke:#000000; stroke-width:1.000000; stroke-opacity:1; 
stroke-linecap:round; stroke-linejoin:round;fill-rule:evenodd;"
d="M 3822000.000000,5767000.000000
3726329.000000,5747970.000000
3645223.000000,5693777.000000
3591030.000000,5612671.000000
3572000.000000,5517000.000000
3572000.000000,5017000.000000
3591030.000000,4921329.000000
3645223.000000,4840223.000000
3726329.000000,4786030.000000
3822000.000000,4767000.000000
5322000.000000,4767000.000000
5417671.000000,4786030.000000
5498777.000000,4840223.000000
5552970.000000,4921329.000000
5572000.000000,5017000.000000
5572000.000000,5517000.000000
5552970.000000,5612671.000000
5498777.000000,5693777.000000
5417671.000000,5747970.000000
5322000.000000,5767000.000000
Z" /> 
</g>
<g >
</g>
<g style="fill:#000000; fill-opacity:1.0; 
stroke:#000000; stroke-width:1.000000; stroke-opacity:1; 
stroke-linecap:round; stroke-linejoin:round;">
<path style="fill:#000000; fill-opacity:1.0; 
stroke:#000000; stroke-width:1.000000; stroke-opacity:1; 
stroke-linecap:round; stroke-linejoin:round;fill-rule:evenodd;"
d="M 21396000.000000,22400000.000000
21396000.000000,23050000.000000
20346000.000000,23050000.000000
20346000.000000,22400000.000000
Z" /> 
<path style="fill:#000000; fill-opacity:1.0; 
stroke:#000000; stroke-width:1.000000; stroke-opacity:1; 
stroke-linecap:round; stroke-linejoin:round;fill-rule:evenodd;"
d="M 17246000.000000,22400000.000000
17246000.000000,23050000.000000
16196000.000000,23050000.000000
16196000.000000,22400000.000000
Z" /> 
<path style="fill:#000000; fill-opacity:1.0; 
stroke:#000000; stroke-width:1.000000; stroke-opacity:1; 
stroke-linecap:round; stroke-linejoin:round;fill-rule:evenodd;"
d="M 17271000.000000,20250000.000000
17271000.000000,20900000.000000
16221000.000000,20900000.000000
16221000.000000,20250000.000000
Z" /> 
<path style="fill:#000000; fill-opacity:1.0; 
stroke:#000000; stroke-width:1.000000; stroke-opacity:1; 
stroke-linecap:round; stroke-linejoin:round;fill-rule:evenodd;"
d="M 21396000.000000,20250000.000000
21396000.000000,20900000.000000
20346000.000000,20900000.000000
20346000.000000,20250000.000000
Z" /> 
</g>
<g >
</g>
<g style="fill:#000000; fill-opacity:1.0; 
stroke:#000000; stroke-width:1.000000; stroke-opacity:1; 
stroke-linecap:round; stroke-linejoin:round;">
<path style="fill:#000000; fill-opacity:1.0; 
stroke:#000000; stroke-width:1.000000; stroke-opacity:1; 
stroke-linecap:round; stroke-linejoin:round;fill-rule:evenodd;"
d="M 6870000.000000,8307000.000000
6774329.000000,8287970.000000
6693223.000000,8233777.000000
6639030.000000,8152671.000000
6620000.000000,8057000.000000
6620000.000000,7557000.000000
6639030.000000,7461329.000000
6693223.000000,7380223.000000
6774329.000000,7326030.000000
6870000.000000,7307000.000000
8370000.000000,7307000.000000
8465671.000000,7326030.000000
8546777.000000,7380223.000000
8600970.000000,7461329.000000
8620000.000000,7557000.000000
8620000.000000,8057000.000000
8600970.000000,8152671.000000
8546777.000000,8233777.000000
8465671.000000,8287970.000000
8370000.000000,8307000.000000
Z" /> 
</g>
<g >
</g>
<g style="fill:#000000; fill-opacity:1.0; 
stroke:#000000; stroke-width:1.000000; stroke-opacity:1; 
stroke-linecap:round; stroke-linejoin:round;">
<path style="fill:#000000; fill-opacity:1.0; 
stroke:#000000; stroke-width:1.000000; stroke-opacity:1; 
stroke-linecap:round; stroke-linejoin:round;fill-rule:evenodd;"
d="M 3822000.000000,8307000.000000
3726329.000000,8287970.000000
3645223.000000,8233777.000000
3591030.000000,8152671.000000
3572000.000000,8057000.000000
3572000.000000,7557000.000000
3591030.000000,7461329.000000
3645223.000000,7380223.000000
3726329.000000,7326030.000000
3822000.000000,7307000.000000
5322000.000000,7307000.000000
5417671.000000,7326030.000000
5498777.000000,7380223.000000
5552970.000000,7461329.000000
5572000.000000,7557000.000000
5572000.000000,8057000.000000
5552970.000000,8152671.000000
5498777.000000,8233777.000000
5417671.000000,8287970.000000
5322000.000000,8307000.000000
Z" /> 
</g>
<g >
</g>
<g style="fill:#000000; fill-opacity:1.0; 
stroke:#000000; stroke-width:1.000000; stroke-opacity:1; 
stroke-linecap:round; stroke-linejoin:round;">
<path style="fill:#000000; fill-opacity:1.0; 
stroke:#000000; stroke-width:1.000000; stroke-opacity:1; 
stroke-linecap:round; stroke-linejoin:round;fill-rule:evenodd;"
d="M 11282000.000000,4482000.000000
11293418.000000,4424597.000000
11325934.000000,4375934.000000
11374597.000000,4343418.000000
11432000.000000,4332000.000000
12682000.000000,4332000.000000
12739403.000000,4343418.000000
12788066.000000,4375934.000000
12820582.000000,4424597.000000
12832000.000000,4482000.000000
12832000.000000,4782000.000000
12820582.000000,4839403.000000
12788066.000000,4888066.000000
12739403.000000,4920582.000000
12682000.000000,4932000.000000
11432000.000000,4932000.000000
11374597.000000,4920582.000000
11325934.000000,4888066.000000
11293418.000000,4839403.000000
11282000.000000,4782000.000000
Z" /> 
<path style="fill:#000000; fill-opacity:1.0; 
stroke:#000000; stroke-width:1.000000; stroke-opacity:1; 
stroke-linecap:round; stroke-linejoin:round;fill-rule:evenodd;"
d="M 11282000.000000,5752000.000000
11293418.000000,5694597.000000
11325934.000000,5645934.000000
11374597.000000,5613418.000000
11432000.000000,5602000.000000
12682000.000000,5602000.000000
12739403.000000,5613418.000000
12788066.000000,5645934.000000
12820582.000000,5694597.000000
12832000.000000,5752000.000000
12832000.000000,6052000.000000
12820582.000000,6109403.000000
12788066.000000,6158066.000000
12739403.000000,6190582.000000
12682000.000000,6202000.000000
11432000.000000,6202000.000000
11374597.000000,6190582.000000
11325934.000000,6158066.000000
11293418.000000,6109403.000000
11282000.000000,6052000.000000
Z" /> 
<path style="fill:#000000; fill-opacity:1.0; 
stroke:#000000; stroke-width:1.000000; stroke-opacity:1; 
stroke-linecap:round; stroke-linejoin:round;fill-rule:evenodd;"
d="M 11282000.000000,7022000.000000
11293418.000000,6964597.000000
11325934.000000,6915934.000000
11374597.000000,6883418.000000
11432000.000000,6872000.000000
12682000.000000,6872000.000000
12739403.000000,6883418.000000
12788066.000000,6915934.000000
12820582.000000,6964597.000000
12832000.000000,7022000.000000
12832000.000000,7322000.000000
12820582.000000,7379403.000000
12788066.000000,7428066.000000
12739403.000000,7460582.000000
12682000.000000,7472000.000000
11432000.000000,7472000.000000
11374597.000000,7460582.000000
11325934.000000,7428066.000000
11293418.000000,7379403.000000
11282000.000000,7322000.000000
Z" /> 
<path style="fill:#000000; fill-opacity:1.0; 
stroke:#000000; stroke-width:1.000000; stroke-opacity:1; 
stroke-linecap:round; stroke-linejoin:round;fill-rule:evenodd;"
d="M 11282000.000000,8292000.000000
11293418.000000,8234597.000000
11325934.000000,8185934.000000
11374597.000000,8153418.000000
11432000.000000,8142000.000000
12682000.000000,8142000.000000
12739403.000000,8153418.000000
12788066.000000,8185934.000000
12820582.000000,8234597.000000
12832000.000000,8292000.000000
12832000.000000,8592000.000000
12820582.000000,8649403.000000
12788066.000000,8698066.000000
12739403.000000,8730582.000000
12682000.000000,8742000.000000
11432000.000000,8742000.000000
11374597.000000,8730582.000000
11325934.000000,8698066.000000
11293418.000000,8649403.000000
11282000.000000,8592000.000000
Z" /> 
<path style="fill:#000000; fill-opacity:1.0; 
stroke:#000000; stroke-width:1.000000; stroke-opacity:1; 
stroke-linecap:round; stroke-linejoin:round;fill-rule:evenodd;"
d="M 16632000.000000,8292000.000000
16643418.000000,8234597.000000
16675934.000000,8185934.000000
16724597.000000,8153418.000000
16782000.000000,8142000.000000
18032000.000000,8142000.000000
18089403.000000,8153418.000000
18138066.000000,8185934.000000
18170582.000000,8234597.000000
18182000.000000,8292000.000000
18182000.000000,8592000.000000
18170582.000000,8649403.000000
18138066.000000,8698066.000000
18089403.000000,8730582.000000
18032000.000000,8742000.000000
16782000.000000,8742000.000000
16724597.000000,8730582.000000
16675934.000000,8698066.000000
16643418.000000,8649403.000000
16632000.000000,8592000.000000
Z" /> 
<path style="fill:#000000; fill-opacity:1.0; 
stroke:#000000; stroke-width:1.000000; stroke-opacity:1; 
stroke-linecap:round; stroke-linejoin:round;fill-rule:evenodd;"
d="M 16632000.000000,7022000.000000
16643418.000000,6964597.000000
16675934.000000,6915934.000000
16724597.000000,6883418.000000
16782000.000000,6872000.000000
18032000.000000,6872000.000000
18089403.000000,6883418.000000
18138066.000000,6915934.000000
18170582.000000,6964597.000000
18182000.000000,7022000.000000
18182000.000000,7322000.000000
18170582.000000,7379403.000000
18138066.000000,7428066.000000
18089403.000000,7460582.000000
18032000.000000,7472000.000000
16782000.000000,7472000.000000
16724597.000000,7460582.000000
16675934.000000,7428066.000000
16643418.000000,7379403.000000
16632000.000000,7322000.000000
Z" /> 
<path style="fill:#000000; fill-opacity:1.0; 
stroke:#000000; stroke-width:1.000000; stroke-opacity:1; 
stroke-linecap:round; stroke-linejoin:round;fill-rule:evenodd;"
d="M 16632000.000000,5752000.000000
16643418.000000,5694597.000000
16675934.000000,5645934.000000
16724597.000000,5613418.000000
16782000.000000,5602000.000000
18032000.000000,5602000.000000
18089403.000000,5613418.000000
18138066.000000,5645934.000000
18170582.000000,5694597.000000
18182000.000000,5752000.000000
18182000.000000,6052000.000000
18170582.000000,6109403.000000
18138066.000000,6158066.000000
18089403.000000,6190582.000000
18032000.000000,6202000.000000
16782000.000000,6202000.000000
16724597.000000,6190582.000000
16675934.000000,6158066.000000
16643418.000000,6109403.000000
16632000.000000,6052000.000000
Z" /> 
<path style="fill:#000000; fill-opacity:1.0; 
stroke:#000000; stroke-width:1.000000; stroke-opacity:1; 
stroke-linecap:round; stroke-linejoin:round;fill-rule:evenodd;"
d="M 16632000.000000,4482000.000000
16643418.000000,4424597.000000
16675934.000000,4375934.000000
16724597.000000,4343418.000000
16782000.000000,4332000.000000
18032000.000000,4332000.000000
18089403.000000,4343418.000000
18138066.000000,4375934.000000
18170582.000000,4424597.000000
18182000.000000,4482000.000000
18182000.000000,4782000.000000
18170582.000000,4839403.000000
18138066.000000,4888066.000000
18089403.000000,4920582.000000
18032000.000000,4932000.000000
16782000.000000,4932000.000000
16724597.000000,4920582.000000
16675934.000000,4888066.000000
16643418.000000,4839403.000000
16632000.000000,4782000.000000
Z" /> 
</g>
<g >
</g>
<g style="fill:#000000; fill-opacity:1.0; 
stroke:#000000; stroke-width:1.000000; stroke-opacity:1; 
stroke-linecap:round; stroke-linejoin:round;">
<path style="fill:#000000; fill-opacity:1.0; 
stroke:#000000; stroke-width:1.000000; stroke-opacity:1; 
stroke-linecap:round; stroke-linejoin:round;fill-rule:evenodd;"
d="M 18666000.000000,5537500.000000
18684079.000000,5446613.000000
18735562.000000,5369562.000000
18812613.000000,5318079.000000
18903500.000000,5300000.000000
19403500.000000,5300000.000000
19494387.000000,5318079.000000
19571438.000000,5369562.000000
19622921.000000,5446613.000000
19641000.000000,5537500.000000
19641000.000000,6012500.000000
19622921.000000,6103387.000000
19571438.000000,6180438.000000
19494387.000000,6231921.000000
19403500.000000,6250000.000000
18903500.000000,6250000.000000
18812613.000000,6231921.000000
18735562.000000,6180438.000000
18684079.000000,6103387.000000
18666000.000000,6012500.000000
Z" /> 
<path style="fill:#000000; fill-opacity:1.0; 
stroke:#000000; stroke-width:1.000000; stroke-opacity:1; 
stroke-linecap:round; stroke-linejoin:round;fill-rule:evenodd;"
d="M 20491000.000000,5537500.000000
20509079.000000,5446613.000000
20560562.000000,5369562.000000
20637613.000000,5318079.000000
20728500.000000,5300000.000000
21228500.000000,5300000.000000
21319387.000000,5318079.000000
21396438.000000,5369562.000000
21447921.000000,5446613.000000
21466000.000000,5537500.000000
21466000.000000,6012500.000000
21447921.000000,6103387.000000
21396438.000000,6180438.000000
21319387.000000,6231921.000000
21228500.000000,6250000.000000
20728500.000000,6250000.000000
20637613.000000,6231921.000000
20560562.000000,6180438.000000
20509079.000000,6103387.000000
20491000.000000,6012500.000000
Z" /> 
</g>
<g >
</g>
<g style="fill:#000000; fill-opacity:1.0; 
stroke:#000000; stroke-width:1.000000; stroke-opacity:1; 
stroke-linecap:round; stroke-linejoin:round;">
<path style="fill:#000000; fill-opacity:1.0; 
stroke:#000000; stroke-width:1.000000; stroke-opacity:1; 
stroke-linecap:round; stroke-linejoin:round;fill-rule:evenodd;"
d="M 10139000.000000,7762000.000000
10062463.000000,7746776.000000
9997579.000000,7703421.000000
9954224.000000,7638537.000000
9939000.000000,7562000.000000
9939000.000000,7162000.000000
9954224.000000,7085463.000000
9997579.000000,7020579.000000
10062463.000000,6977224.000000
10139000.000000,6962000.000000
10689000.000000,6962000.000000
10765537.000000,6977224.000000
10830421.000000,7020579.000000
10873776.000000,7085463.000000
10889000.000000,7162000.000000
10889000.000000,7562000.000000
10873776.000000,7638537.000000
10830421.000000,7703421.000000
10765537.000000,7746776.000000
10689000.000000,7762000.000000
Z" /> 
<path style="fill:#000000; fill-opacity:1.0; 
stroke:#000000; stroke-width:1.000000; stroke-opacity:1; 
stroke-linecap:round; stroke-linejoin:round;fill-rule:evenodd;"
d="M 10139000.000000,6112000.000000
10062463.000000,6096776.000000
9997579.000000,6053421.000000
9954224.000000,5988537.000000
9939000.000000,5912000.000000
9939000.000000,5512000.000000
9954224.000000,5435463.000000
9997579.000000,5370579.000000
10062463.000000,5327224.000000
10139000.000000,5312000.000000
10689000.000000,5312000.000000
10765537.000000,5327224.000000
10830421.000000,5370579.000000
10873776.000000,5435463.000000
10889000.000000,5512000.000000
10889000.000000,5912000.000000
10873776.000000,5988537.000000
10830421.000000,6053421.000000
10765537.000000,6096776.000000
10689000.000000,6112000.000000
Z" /> 
</g>
<g >
</g>
<g style="fill:#000000; fill-opacity:1.0; 
stroke:#000000; stroke-width:1.000000; stroke-opacity:1; 
stroke-linecap:round; stroke-linejoin:round;">
<path style="fill:#000000; fill-opacity:1.0; 
stroke:#000000; stroke-width:1.000000; stroke-opacity:1; 
stroke-linecap:round; stroke-linejoin:round;fill-rule:evenodd;"
d="M 4917001.000000,17548000.000000
4821330.000000,17528970.000000
4740224.000000,17474776.000000
4686030.000000,17393670.000000
4667001.000000,17297998.000000
4667000.000000,16298001.000000
4686030.000000,16202330.000000
4740224.000000,16121224.000000
4821330.000000,16067030.000000
4917002.000000,16048001.000000
6766999.000000,16048000.000000
6862670.000000,16067030.000000
6943776.000000,16121224.000000
6997970.000000,16202330.000000
7016999.000000,16298002.000000
7017000.000000,17297999.000000
6997970.000000,17393670.000000
6943776.000000,17474776.000000
6862670.000000,17528970.000000
6766998.000000,17547999.000000
Z" /> 
<path style="fill:#000000; fill-opacity:1.0; 
stroke:#000000; stroke-width:1.000000; stroke-opacity:1; 
stroke-linecap:round; stroke-linejoin:round;fill-rule:evenodd;"
d="M 4917001.000000,14298000.000000
4821330.000000,14278970.000000
4740224.000000,14224776.000000
4686030.000000,14143670.000000
4667001.000000,14047998.000000
4667000.000000,13048001.000000
4686030.000000,12952330.000000
4740224.000000,12871224.000000
4821330.000000,12817030.000000
4917002.000000,12798001.000000
6766999.000000,12798000.000000
6862670.000000,12817030.000000
6943776.000000,12871224.000000
6997970.000000,12952330.000000
7016999.000000,13048002.000000
7017000.000000,14047999.000000
6997970.000000,14143670.000000
6943776.000000,14224776.000000
6862670.000000,14278970.000000
6766998.000000,14297999.000000
Z" /> 
</g>
<g >
</g>
<g >
</g>
<g style="fill:#000000; fill-opacity:1.0; 
stroke:#000000; stroke-width:1.000000; stroke-opacity:1; 
stroke-linecap:round; stroke-linejoin:round;">
<path style="fill:#000000; fill-opacity:1.0; 
stroke:#000000; stroke-width:1.000000; stroke-opacity:1; 
stroke-linecap:round; stroke-linejoin:round;fill-rule:evenodd;"
d="M 3822000.000000,10339000.000000
3726329.000000,10319970.000000
3645223.000000,10265777.000000
3591030.000000,10184671.000000
3572000.000000,10089000.000000
3572000.000000,9589000.000000
3591030.000000,9493329.000000
3645223.000000,9412223.000000
3726329.000000,9358030.000000
3822000.000000,9339000.000000
5322000.000000,9339000.000000
5417671.000000,9358030.000000
5498777.000000,9412223.000000
5552970.000000,9493329.000000
5572000.000000,9589000.000000
5572000.000000,10089000.000000
5552970.000000,10184671.000000
5498777.000000,10265777.000000
5417671.000000,10319970.000000
5322000.000000,10339000.000000
Z" /> 
</g>
<g >
</g>
<g >
</g>
<g >
</g>
<g style="fill:#000000; fill-opacity:1.0; 
stroke:#000000; stroke-width:1.000000; stroke-opacity:1; 
stroke-linecap:round; stroke-linejoin:round;">
</g>
<g style="fill:#000000; fill-opacity:1.0; 
stroke:#000000; stroke-width:600000.000000; stroke-opacity:1; 
stroke-linecap:round; stroke-linejoin:round;">
</g>
<g style="fill:#000000; fill-opacity:0.0; 
stroke:#000000; stroke-width:600000.000000; stroke-opacity:1; 
stroke-linecap:round; stroke-linejoin:round;">
<path d="M5308000 16798000
L3556000 15046000
" />
<path d="M3556000 12532500
L4725500 11363000
" />
<path d="M3048000 3235000
L2540000 3743000
" />
<path d="M4725500 9992500
L4572000 9839000
" />
</g>
<g style="fill:#000000; fill-opacity:0.0; 
stroke:#000000; stroke-width:800000.000000; stroke-opacity:1; 
stroke-linecap:round; stroke-linejoin:round;">
<path d="M5842000 16798000
L8480000 16798000
" />
</g>
<g style="fill:#000000; fill-opacity:0.0; 
stroke:#000000; stroke-width:600000.000000; stroke-opacity:1; 
stroke-linecap:round; stroke-linejoin:round;">
<path d="M2540000 3743000
L2540000 9331000
" />
</g>
<g style="fill:#000000; fill-opacity:0.0; 
stroke:#000000; stroke-width:800000.000000; stroke-opacity:1; 
stroke-linecap:round; stroke-linejoin:round;">
<path d="M8480000 16798000
L8701000 17019000
" />
</g>
<g style="fill:#000000; fill-opacity:0.0; 
stroke:#000000; stroke-width:600000.000000; stroke-opacity:1; 
stroke-linecap:round; stroke-linejoin:round;">
<path d="M2540000 9331000
L3048000 9839000
" />
<path d="M15848500 3235000
L15848500 3335500
" />
<path d="M5080000 3235000
L4572000 3235000
" />
<path d="M3048000 9839000
L4572000 9839000
" />
<path d="M15848500 3081500
L14732000 1965000
" />
<path d="M14732000 1965000
L6350000 1965000
" />
<path d="M4725500 11363000
L4725500 9992500
" />
<path d="M15848500 3235000
L15848500 3081500
" />
<path d="M17145000 4632000
L17407000 4632000
" />
<path d="M3556000 15046000
L3556000 12532500
" />
<path d="M15848500 3335500
L17145000 4632000
" />
<path d="M6350000 1965000
L5080000 3235000
" />
<path d="M4572000 3235000
L3048000 3235000
" />
<path d="M5842000 16798000
L5308000 16798000
" />
<path d="M27319510 8173490
L26416000 9077000
" />
<path d="M26416000 9077000
L22198500 9077000
" />
<path d="M20978500 5775000
L20978500 7757000
" />
<path d="M22198500 9077000
L20928500 7807000
" />
<path d="M20978500 7757000
L20928500 7807000
" />
<path d="M27319510 5613710
L27319510 8173490
" />
</g>
<g style="fill:#000000; fill-opacity:0.0; 
stroke:#000000; stroke-width:800000.000000; stroke-opacity:1; 
stroke-linecap:round; stroke-linejoin:round;">
<path d="M32834000 17019000
L20763000 17019000
" />
<path d="M34939510 21778270
L34939510 19124510
" />
<path d="M34939510 19124510
L32834000 17019000
" />
</g>
<g style="fill:#000000; fill-opacity:0.0; 
stroke:#000000; stroke-width:600000.000000; stroke-opacity:1; 
stroke-linecap:round; stroke-linejoin:round;">
<path d="M8763000 4632000
L12057000 4632000
" />
<path d="M4572000 5267000
L7620000 5267000
" />
<path d="M8128000 5267000
L8763000 4632000
" />
<path d="M7620000 5267000
L8128000 5267000
" />
<path d="M17407000 5902000
L19026500 5902000
" />
<path d="M19026500 5902000
L19153500 5775000
" />
<path d="M7620000 7807000
L8128000 7807000
" />
<path d="M8763000 8442000
L12057000 8442000
" />
<path d="M4572000 7807000
L7620000 7807000
" />
<path d="M8128000 7807000
L8763000 8442000
" />
<path d="M22861270 21778270
L24779510 21778270
" />
<path d="M21912000 22725000
L22860000 21777000
" />
<path d="M22860000 21777000
L22861270 21778270
" />
<path d="M20871000 22725000
L21912000 22725000
" />
<path d="M16721000 22725000
L20871000 22725000
" />
<path d="M40019510 5062490
L41593000 3489000
" />
</g>
<g style="fill:#000000; fill-opacity:0.0; 
stroke:#000000; stroke-width:800000.000000; stroke-opacity:1; 
stroke-linecap:round; stroke-linejoin:round;">
<path d="M41593000 2423200
L41592000 2422200
" />
</g>
<g style="fill:#000000; fill-opacity:0.0; 
stroke:#000000; stroke-width:600000.000000; stroke-opacity:1; 
stroke-linecap:round; stroke-linejoin:round;">
<path d="M40019510 5613710
L40019510 5062490
" />
</g>
<g style="fill:#000000; fill-opacity:0.0; 
stroke:#000000; stroke-width:800000.000000; stroke-opacity:1; 
stroke-linecap:round; stroke-linejoin:round;">
<path d="M41593000 3489000
L41593000 2423200
" />
</g>
<g >
</g>
<g style="fill:#000000; fill-opacity:0.0; 
stroke:#000000; stroke-width:800000.000000; stroke-opacity:1; 
stroke-linecap:round; stroke-linejoin:round;">
<g >
</g>
<g style="fill:#000000; fill-opacity:1.0; 
stroke:#000000; stroke-width:1.000000; stroke-opacity:1; 
stroke-linecap:round; stroke-linejoin:round;">
<path style="fill:#000000; fill-opacity:1.0; 
stroke:#000000; stroke-width:1.000000; stroke-opacity:1; 
stroke-linecap:round; stroke-linejoin:round;fill-rule:evenodd;"
d="M 11077912.000000,5459758.000000
11130708.000000,5489480.000000
11257503.000000,5582463.000000
11257506.000000,5582464.000000
11277600.000000,5597200.000000
12421600.000000,5597200.000000
12518419.000000,5616458.000000
12600498.000000,5671302.000000
12655342.000000,5753381.000000
12674600.000000,5850200.000000
12674600.000000,5953800.000000
12655342.000000,6050619.000000
12600498.000000,6132698.000000
12518419.000000,6187542.000000
12421600.000000,6206800.000000
11310753.000000,6206800.000000
11245564.000000,6198257.000000
10912550.000000,6109453.000000
10912548.000000,6109453.000000
10896600.000000,6105200.000000
10362200.000000,6105200.000000
10265381.000000,6085942.000000
10183302.000000,6031098.000000
10128458.000000,5949019.000000
10109200.000000,5852200.000000
10109200.000000,5693500.000000
10128458.000000,5596681.000000
10183302.000000,5514602.000000
10265381.000000,5459758.000000
10362200.000000,5440500.000000
10981093.000000,5440500.000000
Z" /> 
</g>
</g>
<g style="fill:#000000; fill-opacity:1.0; 
stroke:#000000; stroke-width:1.000000; stroke-opacity:1; 
stroke-linecap:round; stroke-linejoin:round;">
<g >
<path style="fill:#000000; fill-opacity:1.0; 
stroke:#000000; stroke-width:1.000000; stroke-opacity:1; 
stroke-linecap:round; stroke-linejoin:round;fill-rule:evenodd;"
d="M 43891319.000000,1426758.000000
43973398.000000,1481602.000000
44028242.000000,1563681.000000
44047500.000000,1660500.000000
44047500.000000,23137500.000000
44028242.000000,23234319.000000
43973398.000000,23316398.000000
43891319.000000,23371242.000000
43794500.000000,23390500.000000
41782000.000000,23390500.000000
41685181.000000,23371242.000000
41603102.000000,23316398.000000
41548258.000000,23234319.000000
41529000.000000,23137500.000000
41529000.000000,19364000.000000
41148000.000000,18983000.000000
38862000.000000,18983000.000000
38481000.000000,19364000.000000
38481000.000000,23137500.000000
38461742.000000,23234319.000000
38406898.000000,23316398.000000
38324819.000000,23371242.000000
38228000.000000,23390500.000000
36702000.000000,23390500.000000
36605181.000000,23371242.000000
36523102.000000,23316398.000000
36468258.000000,23234319.000000
36449000.000000,23137500.000000
36449000.000000,19364000.000000
35702262.000000,18617262.000000
35681994.000000,18593531.000000
35678550.000000,18587566.000000
35634996.000000,18539195.000000
35626423.000000,18529157.000000
35615582.000000,18515769.000000
35603420.000000,18503607.000000
35594302.000000,18493999.000000
35559636.000000,18455499.000000
35550763.000000,18445644.000000
35540032.000000,18437848.000000
35530185.000000,18428981.000000
35530435.000000,18428703.000000
35517281.000000,18417468.000000
33541042.000000,16441229.000000
33529807.000000,16428075.000000
33529529.000000,16428325.000000
33520662.000000,16418478.000000
33512866.000000,16407747.000000
33464511.000000,16364208.000000
33454903.000000,16355090.000000
33442741.000000,16342928.000000
33429353.000000,16332087.000000
33419315.000000,16323514.000000
33370944.000000,16279960.000000
33359463.000000,16273332.000000
33350812.000000,16267046.000000
33341836.000000,16261216.000000
33331530.000000,16252871.000000
33319718.000000,16246852.000000
33319708.000000,16246846.000000
33273541.000000,16223323.000000
33261902.000000,16217004.000000
33248237.000000,16209115.000000
33205556.000000,16184473.000000
33192945.000000,16180376.000000
33183174.000000,16176025.000000
33173183.000000,16172190.000000
33161370.000000,16166171.000000
33098523.000000,16149331.000000
33085826.000000,16145570.000000
33023928.000000,16125458.000000
33010742.000000,16124072.000000
33000295.000000,16121851.000000
32989713.000000,16120175.000000
32976903.000000,16116743.000000
32911931.000000,16113338.000000
32898726.000000,16112299.000000
32888194.000000,16111192.000000
32881610.000000,16110500.000000
32864401.000000,16110500.000000
32851160.000000,16110153.000000
32850593.000000,16110123.000000
32786190.000000,16106748.000000
32773095.000000,16108822.000000
32759852.000000,16109516.000000
32759832.000000,16109143.000000
32742590.000000,16110500.000000
23013296.000000,16110500.000000
22916477.000000,16091242.000000
22834398.000000,16036398.000000
22217797.000000,15419797.000000
22207261.000000,15405739.000000
22193203.000000,15395203.000000
22072600.000000,15274600.000000
22006307.000000,15274600.000000
21959166.000000,15269073.000000
21954316.000000,15267255.000000
21920869.000000,15263622.000000
21898950.000000,15261240.000000
21898942.000000,15261240.000000
21892134.000000,15260500.000000
19633866.000000,15260500.000000
19627058.000000,15261240.000000
19627050.000000,15261240.000000
19587458.000000,15265541.000000
19587455.000000,15265542.000000
19571684.000000,15267255.000000
19539877.000000,15279179.000000
19452174.000000,15312057.000000
19452172.000000,15312058.000000
19435295.000000,15318385.000000
19420874.000000,15329193.000000
19420872.000000,15329194.000000
19333160.000000,15394931.000000
19318739.000000,15405739.000000
19231385.000000,15522295.000000
19180255.000000,15658684.000000
19173500.000000,15720866.000000
19173500.000000,18317134.000000
19180255.000000,18379316.000000
19198874.000000,18428981.000000
19223248.000000,18493999.000000
19231385.000000,18515705.000000
19242193.000000,18530126.000000
19242194.000000,18530128.000000
19296211.000000,18602202.000000
19318739.000000,18632261.000000
19333160.000000,18643069.000000
19420872.000000,18708806.000000
19420874.000000,18708807.000000
19435295.000000,18719615.000000
19452172.000000,18725942.000000
19452174.000000,18725943.000000
19503396.000000,18745145.000000
19571684.000000,18770745.000000
19587455.000000,18772458.000000
19587458.000000,18772459.000000
19627050.000000,18776760.000000
19627058.000000,18776760.000000
19633866.000000,18777500.000000
21591000.000000,18777500.000000
21687819.000000,18796758.000000
21769898.000000,18851602.000000
21824742.000000,18933681.000000
21844000.000000,19030500.000000
21844000.000000,20762000.000000
21824742.000000,20858819.000000
21769898.000000,20940898.000000
21687819.000000,20995742.000000
21591000.000000,21015000.000000
16255000.000000,21015000.000000
16158181.000000,20995742.000000
16076102.000000,20940898.000000
16021258.000000,20858819.000000
16002000.000000,20762000.000000
16002000.000000,19595796.000000
16021258.000000,19498977.000000
16076102.000000,19416898.000000
17907000.000000,17586000.000000
17907000.000000,13118796.000000
17926258.000000,13021977.000000
17981102.000000,12939898.000000
20574000.000000,10347000.000000
20574000.000000,9206688.000000
20593258.000000,9109869.000000
20648102.000000,9027790.000000
20730181.000000,8972946.000000
20827000.000000,8953688.000000
20923819.000000,8972946.000000
21005898.000000,9027790.000000
21619851.000000,9641743.000000
21621714.000000,9643626.000000
21684271.000000,9707507.000000
21715308.000000,9727509.000000
21736088.000000,9742441.000000
21764943.000000,9765476.000000
21777680.000000,9771633.000000
21788137.000000,9776688.000000
21815076.000000,9791804.000000
21836738.000000,9805765.000000
21871443.000000,9818397.000000
21895000.000000,9828348.000000
21928249.000000,9844421.000000
21942024.000000,9847601.000000
21942029.000000,9847603.000000
21953357.000000,9850218.000000
21982975.000000,9858991.000000
22007185.000000,9867803.000000
22043813.000000,9872430.000000
22069011.000000,9876918.000000
22104985.000000,9885224.000000
22146015.000000,9885367.000000
22146289.000000,9885376.000000
22147269.000000,9885500.000000
22183762.000000,9885500.000000
22184645.000000,9885502.000000
22286370.000000,9885857.000000
22287715.000000,9885556.000000
22288755.000000,9885500.000000
26406124.000000,9885500.000000
26408774.000000,9885514.000000
26484074.000000,9886303.000000
26484076.000000,9886303.000000
26498221.000000,9886451.000000
26512050.000000,9883461.000000
26512051.000000,9883461.000000
26534309.000000,9878649.000000
26559563.000000,9874513.000000
26567789.000000,9873590.000000
26596255.000000,9870397.000000
26620590.000000,9861923.000000
26650321.000000,9853566.000000
26661679.000000,9851110.000000
26661683.000000,9851109.000000
26675510.000000,9848119.000000
26688325.000000,9842143.000000
26688332.000000,9842141.000000
26708965.000000,9832519.000000
26732688.000000,9822886.000000
26754192.000000,9815398.000000
26754196.000000,9815396.000000
26767552.000000,9810745.000000
26789412.000000,9797086.000000
26816541.000000,9782356.000000
26839902.000000,9771462.000000
26869079.000000,9748829.000000
26890056.000000,9734196.000000
26921376.000000,9714626.000000
26950497.000000,9685708.000000
26950690.000000,9685528.000000
26951470.000000,9684922.000000
26977123.000000,9659269.000000
26977748.000000,9658646.000000
27047282.000000,9589596.000000
27047286.000000,9589592.000000
27050082.000000,9586815.000000
27050819.000000,9585653.000000
27051520.000000,9584872.000000
27688490.000000,8947902.000000
27770569.000000,8893058.000000
27867388.000000,8873800.000000
28794500.000000,8873800.000000
28891319.000000,8893058.000000
28973398.000000,8947902.000000
29028242.000000,9029981.000000
29047500.000000,9126800.000000
29047500.000000,11140092.000000
29047495.000000,11141638.000000
29047024.000000,11218721.000000
29051976.000000,11236049.000000
29051977.000000,11236053.000000
29052771.000000,11238832.000000
29059954.000000,11272481.000000
29060364.000000,11275341.000000
29062920.000000,11293187.000000
29070380.000000,11309595.000000
29070927.000000,11311465.000000
29081298.000000,11339651.000000
29082096.000000,11341435.000000
29087051.000000,11358771.000000
29096670.000000,11374016.000000
29096672.000000,11374020.000000
29098207.000000,11376453.000000
29114551.000000,11406743.000000
29115747.000000,11409373.000000
29123208.000000,11425782.000000
29134975.000000,11439438.000000
29136020.000000,11441072.000000
29153892.000000,11465226.000000
29155157.000000,11466712.000000
29164776.000000,11481958.000000
29178285.000000,11493889.000000
29178286.000000,11493890.000000
29180450.000000,11495801.000000
29204634.000000,11520283.000000
29206522.000000,11522474.000000
29206525.000000,11522476.000000
29218287.000000,11536127.000000
29233407.000000,11545928.000000
29234867.000000,11547201.000000
29258803.000000,11565370.000000
29260439.000000,11566445.000000
29273951.000000,11578378.000000
29290268.000000,11586039.000000
29292885.000000,11587268.000000
29322952.000000,11603968.000000
29340515.000000,11615352.000000
29357785.000000,11620517.000000
29359552.000000,11621333.000000
29387608.000000,11632046.000000
29389478.000000,11632618.000000
29405800.000000,11640281.000000
29426475.000000,11643500.000000
29460022.000000,11651092.000000
29480066.000000,11657086.000000
29515102.000000,11657300.000000
29515102.000000,11657341.000000
29515452.000000,11657355.000000
29516386.000000,11657500.000000
29547092.000000,11657500.000000
29548639.000000,11657505.000000
29625721.000000,11657976.000000
29627315.000000,11657520.000000
29627613.000000,11657500.000000
38047092.000000,11657500.000000
38048638.000000,11657505.000000
38107699.000000,11657866.000000
38107700.000000,11657866.000000
38125721.000000,11657976.000000
38143049.000000,11653024.000000
38143053.000000,11653023.000000
38145832.000000,11652229.000000
38179292.000000,11645073.000000
38179917.000000,11644983.000000
38215977.000000,11642400.000000
39217600.000000,11642400.000000
41529000.000000,9331000.000000
41529000.000000,4801188.000000
41548258.000000,4704369.000000
41603102.000000,4622290.000000
41679178.000000,4546214.000000
41761257.000000,4491370.000000
41845944.000000,4472499.000000
41849634.000000,4472499.000000
41855414.000000,4471968.000000
41909689.000000,4466982.000000
41909693.000000,4466981.000000
41923062.000000,4465753.000000
41935872.000000,4461739.000000
41935875.000000,4461738.000000
42072148.000000,4419032.000000
42086699.000000,4414472.000000
42233381.000000,4325639.000000
42354639.000000,4204381.000000
42443472.000000,4057699.000000
42485495.000000,3923605.000000
42490739.000000,3906872.000000
42490740.000000,3906868.000000
42494753.000000,3894062.000000
42498117.000000,3857455.000000
42500970.000000,3826408.000000
42500970.000000,3826398.000000
42501500.000000,3820635.000000
42501500.000000,2514609.000000
42502857.000000,2497367.000000
42502484.000000,2497347.000000
42503178.000000,2484104.000000
42505252.000000,2471009.000000
42501847.000000,2406039.000000
42501500.000000,2392798.000000
42501500.000000,2375590.000000
42500833.000000,2369246.000000
42500499.000000,2356497.000000
42500499.000000,2090566.000000
42493753.000000,2017138.000000
42480377.000000,1974455.000000
42468800.000000,1898798.000000
42468800.000000,1660500.000000
42488058.000000,1563681.000000
42542902.000000,1481602.000000
42624981.000000,1426758.000000
42721800.000000,1407500.000000
43794500.000000,1407500.000000
Z" /> 
</g>
</g>
<g style="fill:#000000; fill-opacity:1.0; 
stroke:#000000; stroke-width:1.000000; stroke-opacity:1; 
stroke-linecap:round; stroke-linejoin:round;">
<g >
<path style="fill:#000000; fill-opacity:1.0; 
stroke:#000000; stroke-width:1.000000; stroke-opacity:1; 
stroke-linecap:round; stroke-linejoin:round;fill-rule:evenodd;"
d="M 12518419.000000,6886458.000000
12600498.000000,6941302.000000
12655342.000000,7023381.000000
12674600.000000,7120200.000000
12674600.000000,7223800.000000
12655342.000000,7320619.000000
12600498.000000,7402698.000000
12518419.000000,7457542.000000
12421600.000000,7476800.000000
11277600.000000,7476800.000000
11265347.000000,7485785.000000
11265339.000000,7485790.000000
11130708.000000,7584520.000000
11041244.000000,7626245.000000
10981093.000000,7633500.000000
10387600.000000,7633500.000000
10290781.000000,7614242.000000
10208702.000000,7559398.000000
10153858.000000,7477319.000000
10134600.000000,7380500.000000
10134600.000000,7221800.000000
10153858.000000,7124981.000000
10208702.000000,7042902.000000
10290781.000000,6988058.000000
10387600.000000,6968800.000000
10896600.000000,6968800.000000
10912548.000000,6964547.000000
10912550.000000,6964547.000000
11245564.000000,6875743.000000
11310753.000000,6867200.000000
12421600.000000,6867200.000000
Z" /> 
</g>
</g>
<g style="fill:#000000; fill-opacity:1.0; 
stroke:#000000; stroke-width:1.000000; stroke-opacity:1; 
stroke-linecap:round; stroke-linejoin:round;">
<g >
<path style="fill:#000000; fill-opacity:1.0; 
stroke:#000000; stroke-width:1.000000; stroke-opacity:1; 
stroke-linecap:round; stroke-linejoin:round;fill-rule:evenodd;"
d="M 2256819.000000,1426758.000000
2338898.000000,1481602.000000
2393742.000000,1563681.000000
2413000.000000,1660500.000000
2413000.000000,2621813.000000
2393742.000000,2718632.000000
2338898.000000,2800710.000000
1975260.000000,3164348.000000
1973377.000000,3166211.000000
1909493.000000,3228771.000000
1889491.000000,3259808.000000
1874559.000000,3280588.000000
1851524.000000,3309443.000000
1845367.000000,3322180.000000
1840312.000000,3332637.000000
1825196.000000,3359576.000000
1811235.000000,3381238.000000
1798603.000000,3415943.000000
1788652.000000,3439500.000000
1772579.000000,3472749.000000
1769399.000000,3486524.000000
1769397.000000,3486529.000000
1766782.000000,3497857.000000
1758009.000000,3527475.000000
1749197.000000,3551685.000000
1744759.000000,3586819.000000
1744570.000000,3588313.000000
1740082.000000,3613511.000000
1731776.000000,3649485.000000
1731633.000000,3690507.000000
1731624.000000,3690789.000000
1731500.000000,3691769.000000
1731500.000000,3728262.000000
1731498.000000,3729145.000000
1731143.000000,3830870.000000
1731444.000000,3832215.000000
1731500.000000,3833255.000000
1731500.000000,9321124.000000
1731486.000000,9323774.000000
1731209.000000,9350258.000000
1730549.000000,9413221.000000
1733539.000000,9427050.000000
1733539.000000,9427051.000000
1738351.000000,9449309.000000
1742487.000000,9474563.000000
1746603.000000,9511255.000000
1755077.000000,9535589.000000
1763434.000000,9565321.000000
1765890.000000,9576679.000000
1765891.000000,9576683.000000
1768881.000000,9590510.000000
1774857.000000,9603325.000000
1774859.000000,9603332.000000
1784481.000000,9623965.000000
1794113.000000,9647685.000000
1806255.000000,9682552.000000
1819914.000000,9704412.000000
1834644.000000,9731541.000000
1845538.000000,9754902.000000
1868171.000000,9784079.000000
1882804.000000,9805056.000000
1902374.000000,9836376.000000
1912341.000000,9846413.000000
1931292.000000,9865497.000000
1931472.000000,9865690.000000
1932078.000000,9866470.000000
1957731.000000,9892123.000000
1958353.000000,9892747.000000
2030185.000000,9965082.000000
2031347.000000,9965819.000000
2032128.000000,9966520.000000
2469351.000000,10403743.000000
2471214.000000,10405626.000000
2533771.000000,10469507.000000
2564808.000000,10489509.000000
2585588.000000,10504441.000000
2614443.000000,10527476.000000
2637642.000000,10538691.000000
2664580.000000,10553808.000000
2674345.000000,10560102.000000
2674355.000000,10560107.000000
2686238.000000,10567765.000000
2720929.000000,10580391.000000
2744508.000000,10590352.000000
2765015.000000,10600266.000000
2765019.000000,10600267.000000
2777748.000000,10606421.000000
2791527.000000,10609602.000000
2791532.000000,10609604.000000
2802858.000000,10612219.000000
2832466.000000,10620989.000000
2843390.000000,10624965.000000
2843397.000000,10624967.000000
2856685.000000,10629803.000000
2893313.000000,10634430.000000
2918511.000000,10638918.000000
2954485.000000,10647224.000000
2995515.000000,10647367.000000
2995789.000000,10647376.000000
2996769.000000,10647500.000000
3033262.000000,10647500.000000
3034143.000000,10647502.000000
3034786.000000,10647504.000000
3049884.000000,10647557.000000
3146635.000000,10667153.000000
3228522.000000,10722283.000000
3283078.000000,10804554.000000
3302000.000000,10900555.000000
3302000.000000,11538312.000000
3282742.000000,11635131.000000
3227898.000000,11717210.000000
2991257.000000,11953851.000000
2989374.000000,11955714.000000
2925493.000000,12018271.000000
2905491.000000,12049308.000000
2890559.000000,12070088.000000
2867524.000000,12098943.000000
2861367.000000,12111680.000000
2856312.000000,12122137.000000
2841196.000000,12149076.000000
2827235.000000,12170738.000000
2814603.000000,12205443.000000
2804652.000000,12229000.000000
2788579.000000,12262249.000000
2785399.000000,12276024.000000
2785397.000000,12276029.000000
2782782.000000,12287357.000000
2774009.000000,12316975.000000
2765197.000000,12341185.000000
2760660.000000,12377104.000000
2760570.000000,12377813.000000
2756082.000000,12403011.000000
2747776.000000,12438985.000000
2747727.000000,12453131.000000
2747633.000000,12480007.000000
2747624.000000,12480289.000000
2747500.000000,12481269.000000
2747500.000000,12517762.000000
2747498.000000,12518645.000000
2747143.000000,12620370.000000
2747444.000000,12621715.000000
2747500.000000,12622755.000000
2747500.000000,15036124.000000
2747486.000000,15038774.000000
2746549.000000,15128221.000000
2749539.000000,15142050.000000
2749539.000000,15142051.000000
2754351.000000,15164309.000000
2758487.000000,15189563.000000
2762603.000000,15226255.000000
2771077.000000,15250589.000000
2779434.000000,15280321.000000
2781890.000000,15291679.000000
2781891.000000,15291683.000000
2784881.000000,15305510.000000
2790857.000000,15318325.000000
2790859.000000,15318332.000000
2800481.000000,15338965.000000
2810113.000000,15362685.000000
2822255.000000,15397552.000000
2835914.000000,15419412.000000
2850644.000000,15446541.000000
2861538.000000,15469902.000000
2884171.000000,15499079.000000
2898804.000000,15520056.000000
2918374.000000,15551376.000000
2928341.000000,15561413.000000
2947292.000000,15580497.000000
2947472.000000,15580690.000000
2948078.000000,15581470.000000
2973731.000000,15607123.000000
2974354.000000,15607748.000000
3041086.000000,15674947.000000
3046185.000000,15680082.000000
3047347.000000,15680819.000000
3048128.000000,15681520.000000
4084398.000000,16717790.000000
4139242.000000,16799869.000000
4158500.000000,16896688.000000
4158500.000000,17348400.000000
4169474.000000,17454165.000000
4225450.000000,17621945.000000
4318522.000000,17772348.000000
4443697.000000,17897305.000000
4594262.000000,17990115.000000
4762139.000000,18045797.000000
4866600.000000,18056500.000000
6817400.000000,18056500.000000
6823914.000000,18055824.000000
6823916.000000,18055824.000000
6832393.000000,18054945.000000
6930683.000000,18064110.000000
7017983.000000,18110191.000000
7081003.000000,18186172.000000
7110149.000000,18280487.000000
7111500.000000,18306594.000000
7111500.000000,18317134.000000
7118255.000000,18379316.000000
7169385.000000,18515705.000000
7256739.000000,18632261.000000
7271160.000000,18643069.000000
7358872.000000,18708806.000000
7358874.000000,18708807.000000
7373295.000000,18719615.000000
7390172.000000,18725942.000000
7390174.000000,18725943.000000
7441396.000000,18745145.000000
7509684.000000,18770745.000000
7525455.000000,18772458.000000
7525458.000000,18772459.000000
7565050.000000,18776760.000000
7565058.000000,18776760.000000
7571866.000000,18777500.000000
9830134.000000,18777500.000000
9836942.000000,18776760.000000
9836950.000000,18776760.000000
9876542.000000,18772459.000000
9876545.000000,18772458.000000
9892316.000000,18770745.000000
9960604.000000,18745145.000000
10011826.000000,18725943.000000
10011828.000000,18725942.000000
10028705.000000,18719615.000000
10043126.000000,18708807.000000
10043128.000000,18708806.000000
10130840.000000,18643069.000000
10145261.000000,18632261.000000
10232615.000000,18515705.000000
10283745.000000,18379316.000000
10290500.000000,18317134.000000
10290500.000000,15720866.000000
10288480.000000,15702271.000000
10287000.000000,15674947.000000
10287000.000000,15173000.000000
10033000.000000,14919000.000000
4825000.000000,14919000.000000
4728181.000000,14899742.000000
4646102.000000,14844898.000000
4591258.000000,14762819.000000
4572000.000000,14666000.000000
4572000.000000,13118796.000000
4591258.000000,13021977.000000
4646102.000000,12939898.000000
4751898.000000,12834102.000000
4833977.000000,12779258.000000
4930796.000000,12760000.000000
5588000.000000,12760000.000000
5969000.000000,12379000.000000
5969000.000000,11235000.000000
5988258.000000,11138181.000000
6043102.000000,11056102.000000
6125181.000000,11001258.000000
6174553.000000,10991437.000000
6173643.000000,10986861.000000
6198082.000000,10982000.000000
6223000.000000,10982000.000000
6604000.000000,10601000.000000
6604000.000000,9584000.000000
6623258.000000,9487181.000000
6678102.000000,9405102.000000
6760181.000000,9350258.000000
6857000.000000,9331000.000000
12954000.000000,9331000.000000
13335000.000000,8950000.000000
13335000.000000,8725439.000000
13337681.000000,8695840.000000
13337562.000000,8695831.000000
13340110.000000,8663457.000000
13340500.000000,8658502.000000
13340500.000000,8225498.000000
13337562.000000,8188169.000000
13337681.000000,8188160.000000
13335000.000000,8158561.000000
13335000.000000,7455439.000000
13337681.000000,7425840.000000
13337562.000000,7425831.000000
13340110.000000,7393457.000000
13340500.000000,7388502.000000
13340500.000000,6955498.000000
13337562.000000,6918169.000000
13337681.000000,6918160.000000
13335000.000000,6888561.000000
13335000.000000,6185439.000000
13337681.000000,6155840.000000
13337562.000000,6155831.000000
13340110.000000,6123457.000000
13340500.000000,6118502.000000
13340500.000000,5685498.000000
13337562.000000,5648169.000000
13337681.000000,5648160.000000
13335000.000000,5618561.000000
13335000.000000,4915439.000000
13337681.000000,4885840.000000
13337562.000000,4885831.000000
13340110.000000,4853457.000000
13340500.000000,4848502.000000
13340500.000000,4415498.000000
13337562.000000,4378169.000000
13337681.000000,4378160.000000
13335000.000000,4348561.000000
13335000.000000,4124000.000000
12954000.000000,3743000.000000
7111000.000000,3743000.000000
7014181.000000,3723742.000000
6932102.000000,3668898.000000
6877258.000000,3586819.000000
6858000.000000,3490000.000000
6858000.000000,3026500.000000
6877258.000000,2929681.000000
6932102.000000,2847602.000000
7014181.000000,2792758.000000
7111000.000000,2773500.000000
14292312.000000,2773500.000000
14389131.000000,2792758.000000
14471210.000000,2847602.000000
14581698.000000,2958090.000000
14636542.000000,3040169.000000
14655800.000000,3136988.000000
14655800.000000,3717600.000000
16054898.000000,5116698.000000
16109742.000000,5198777.000000
16129000.000000,5295596.000000
16129000.000000,5618561.000000
16126319.000000,5648160.000000
16126438.000000,5648169.000000
16123500.000000,5685498.000000
16123500.000000,6118502.000000
16123890.000000,6123457.000000
16126438.000000,6155831.000000
16126319.000000,6155840.000000
16129000.000000,6185439.000000
16129000.000000,6410000.000000
16560800.000000,6841800.000000
19305000.000000,6841800.000000
19401819.000000,6861058.000000
19483898.000000,6915902.000000
19538742.000000,6997981.000000
19558000.000000,7094800.000000
19558000.000000,9099204.000000
19538742.000000,9196023.000000
19483898.000000,9278102.000000
17854102.000000,10907898.000000
17772023.000000,10962742.000000
17675204.000000,10982000.000000
12065000.000000,10982000.000000
11684000.000000,11363000.000000
11684000.000000,17332000.000000
13133898.000000,18781898.000000
13188742.000000,18863977.000000
13208000.000000,18960796.000000
13208000.000000,23137500.000000
13188742.000000,23234319.000000
13133898.000000,23316398.000000
13051819.000000,23371242.000000
12955000.000000,23390500.000000
817500.000000,23390500.000000
720681.000000,23371242.000000
638602.000000,23316398.000000
583758.000000,23234319.000000
564500.000000,23137500.000000
564500.000000,20649000.000000
1692526.000000,20649000.000000
1712391.000000,20901403.000000
1771495.000000,21147591.000000
1868384.000000,21381502.000000
2000672.000000,21597376.000000
2165102.000000,21789898.000000
2357624.000000,21954328.000000
2573498.000000,22086616.000000
2807409.000000,22183505.000000
2817067.000000,22185824.000000
2817071.000000,22185825.000000
2906789.000000,22207364.000000
3053597.000000,22242609.000000
3242801.000000,22257500.000000
3369199.000000,22257500.000000
3558403.000000,22242609.000000
3705211.000000,22207364.000000
3794929.000000,22185825.000000
3794933.000000,22185824.000000
3804591.000000,22183505.000000
4038502.000000,22086616.000000
4254376.000000,21954328.000000
4446898.000000,21789898.000000
4611328.000000,21597376.000000
4743616.000000,21381502.000000
4840505.000000,21147591.000000
4899609.000000,20901403.000000
4919474.000000,20649000.000000
4899609.000000,20396597.000000
4840505.000000,20150409.000000
4743616.000000,19916498.000000
4611328.000000,19700624.000000
4446898.000000,19508102.000000
4254376.000000,19343672.000000
4038502.000000,19211384.000000
3804591.000000,19114495.000000
3794933.000000,19112176.000000
3794929.000000,19112175.000000
3705211.000000,19090636.000000
3558403.000000,19055391.000000
3369199.000000,19040500.000000
3242801.000000,19040500.000000
3053597.000000,19055391.000000
2906789.000000,19090636.000000
2817071.000000,19112175.000000
2817067.000000,19112176.000000
2807409.000000,19114495.000000
2573498.000000,19211384.000000
2357624.000000,19343672.000000
2165102.000000,19508102.000000
2000672.000000,19700624.000000
1868384.000000,19916498.000000
1771495.000000,20150409.000000
1712391.000000,20396597.000000
1692526.000000,20649000.000000
564500.000000,20649000.000000
564500.000000,1660500.000000
583758.000000,1563681.000000
638602.000000,1481602.000000
720681.000000,1426758.000000
817500.000000,1407500.000000
2160000.000000,1407500.000000
Z" /> 
</g>
</g>
</g>
<g style="fill:#FFFFFF; fill-opacity:1.0; 
stroke:#FFFFFF; stroke-width:1.000000; stroke-opacity:1; 
stroke-linecap:round; stroke-linejoin:round;">
<circle cx="3306000.000000" cy="20649000.000000" r="1099999.500000" /> 
</g>
<g style="fill:#FFFFFF; fill-opacity:1.0; 
stroke:#FFFFFF; stroke-width:21200.000000; stroke-opacity:1; 
stroke-linecap:round; stroke-linejoin:round;">
</g>
<g style="fill:#FFFFFF; fill-opacity:1.0; 
stroke:#FFFFFF; stroke-width:1.000000; stroke-opacity:1; 
stroke-linecap:round; stroke-linejoin:round;">
<circle cx="21806000.000000" cy="3149000.000000" r="1099999.500000" /> 
</g>
<g style="fill:#FFFFFF; fill-opacity:1.0; 
stroke:#FFFFFF; stroke-width:21200.000000; stroke-opacity:1; 
stroke-linecap:round; stroke-linejoin:round;">
</g>
<g style="fill:#000000; fill-opacity:1.0; 
stroke:#000000; stroke-width:21200.000000; stroke-opacity:1; 
stroke-linecap:round; stroke-linejoin:round;">
</g>
<g style="fill:#000000; fill-opacity:1.0; 
stroke:#000000; stroke-width:100000.000000; stroke-opacity:1; 
stroke-linecap:round; stroke-linejoin:round;">
</g>
<g style="fill:#000000; fill-opacity:0.0; 
stroke:#000000; stroke-width:100000.000000; stroke-opacity:1; 
stroke-linecap:round; stroke-linejoin:round;">
<path d="M44556000 23899000
L56000 23899000
" />
<path d="M29556000 11149000
L29556000 899000
" />
<path d="M56000 23899000
L56000 899000
" />
<path d="M44556000 899000
L38056000 899000
" />
<path d="M38056000 11149000
L29556000 11149000
" />
<path d="M38056000 899000
L38056000 11149000
" />
<path d="M44556000 899000
L44556000 23899000
" />
<path d="M56000 899000
L29556000 899000
" />
<g >
</g>
<g >
</g>
<g >
</g>
<g >
</g>
<g >
</g>
<g >
</g>
<g >
</g>
<g >
</g>
<g >
</g>
<g >
</g>
<g >
</g>
<g >
</g>
<g >
</g>
<g >
</g>
<g >
</g>
<g >
</g>
<g >
</g>
<g >
</g>
<g >
</g>
<g >
</g>
<g >
</g>
<g >
</g>
<g >
</g>
<g >
</g>
<g >
</g>
<g >
</g>
</g> 
</svg>
