0
SECTION
2
HEADER
9
$INSUNITS
70
4
9
$ACADVER
1
AC1014
9
$HANDSEED
5
FFFF
0
ENDSEC
0
SECTION
2
TABLES
0
TABLE
2
VPORT
5
8
100
AcDbSymbolTable
0
ENDTAB
0
TABLE
2
LTYPE
5
5
100
AcDbSymbolTable
0
LTYPE
5
14
100
AcDbSymbolTableRecord
100
AcDbLinetypeTableRecord
2
BYBLOCK
70
0
0
LTYPE
5
15
100
AcDbSymbolTableRecord
100
AcDbLinetypeTableRecord
2
BYLAYER
70
0
0
ENDTAB
0
TABLE
2
LAYER
5
2
100
AcDbSymbolTable
70
2
0
LAYER
5
50
100
AcDbSymbolTableRecord
100
AcDbLayerTableRecord
2
0
70
0
6
CONTINUOUS
0
ENDTAB
0
TABLE
2
STYLE
5
3
100
AcDbSymbolTable
70
1
0
STYLE
5
11
100
AcDbSymbolTableRecord
100
AcDbTextStyleTableRecord
2
STANDARD
70
0
0
ENDTAB
0
TABLE
2
VIEW
5
6
100
AcDbSymbolTable
70
0
0
ENDTAB
0
TABLE
2
UCS
5
7
100
AcDbSymbolTable
70
0
0
ENDTAB
0
TABLE
2
APPID
5
9
100
AcDbSymbolTable
70
2
0
APPID
5
12
100
AcDbSymbolTableRecord
100
AcDbRegAppTableRecord
2
ACAD
70
0
0
ENDTAB
0
TABLE
2
DIMSTYLE
5
A
100
AcDbSymbolTable
70
1
0
ENDTAB
0
TABLE
2
BLOCK_RECORD
5
1
100
AcDbSymbolTable
70
1
0
BLOCK_RECORD
5
1F
100
AcDbSymbolTableRecord
100
AcDbBlockTableRecord
2
*MODEL_SPACE
0
BLOCK_RECORD
5
1B
100
AcDbSymbolTableRecord
100
AcDbBlockTableRecord
2
*PAPER_SPACE
0
ENDTAB
0
ENDSEC
0
SECTION
2
BLOCKS
0
BLOCK
5
20
100
AcDbEntity
100
AcDbBlockBegin
2
*MODEL_SPACE
0
ENDBLK
5
21
100
AcDbEntity
100
AcDbBlockEnd
0
BLOCK
5
1C
100
AcDbEntity
100
AcDbBlockBegin
2
*PAPER_SPACE
0
ENDBLK
5
1D
100
AcDbEntity
100
AcDbBlockEnd
0
ENDSEC
0
SECTION
2
ENTITIES
0
LWPOLYLINE
5
100
100
AcDbEntity
8
0
100
AcDbPolyline
90
4
70
1
43
0.0
10
10.147500000000001
20
-4.7444999999999986
42
0.99999999999999989
10
10.147500000000001
20
-3.8554999999999984
10
9.2584999999999997
20
-3.8554999999999984
42
0.99999999999999989
10
9.2584999999999997
20
-4.7444999999999986
0
LWPOLYLINE
5
101
100
AcDbEntity
8
0
100
AcDbPolyline
90
4
70
1
43
0.0
10
10.147500000000001
20
3.8554999999999984
10
9.2585000000000015
20
3.8554999999999984
42
-0.99999999999999989
10
9.258499999999998
20
4.7444999999999986
10
10.147500000000001
20
4.7444999999999986
42
-0.99999999999999989
0
LWPOLYLINE
5
102
100
AcDbEntity
8
0
100
AcDbPolyline
90
8
70
1
43
0.0
10
2.2860000000000005
20
-3.4289999999999998
10
2.7940000000000005
20
-3.4290000000000003
42
-0.41420000000000057
10
3.0480000000000009
20
-3.6830000000000007
10
3.048
20
-5.2070000000000016
42
-0.4141999999999999
10
2.7939999999999996
20
-5.4610000000000012
10
2.2859999999999996
20
-5.4610000000000003
42
-0.4141999999999999
10
2.0319999999999991
20
-5.2070000000000007
10
2.032
20
-3.6830000000000003
42
-0.41420000000000023
0
LWPOLYLINE
5
103
100
AcDbEntity
8
0
100
AcDbPolyline
90
4
70
1
43
0.0
10
5.045799999999999
20
-3.8427999999999987
42
0.99999999999999989
10
5.045799999999999
20
-4.7571999999999983
10
5.9601999999999986
20
-4.7571999999999983
42
0.99999999999999989
10
5.9601999999999986
20
-3.8427999999999987
0
LWPOLYLINE
5
104
100
AcDbEntity
8
0
100
AcDbPolyline
90
4
70
1
43
0.0
10
5.9601999999999986
20
3.8427999999999987
10
5.045799999999999
20
3.8427999999999987
42
-0.99999999999999989
10
5.045799999999999
20
4.7571999999999983
10
5.9601999999999986
20
4.7571999999999983
42
-0.99999999999999989
0
LWPOLYLINE
5
105
100
AcDbEntity
8
0
100
AcDbPolyline
90
8
70
1
43
0.0
10
0.88900000000000035
20
-5.4610000000000003
42
0.41419999999999957
10
1.1430000000000002
20
-5.2070000000000007
10
1.1430000000000002
20
-3.6830000000000007
42
0.41420000000000057
10
0.88899999999999979
20
-3.4290000000000003
10
0.38099999999999973
20
-3.4290000000000003
42
0.41420000000000029
10
0.12699999999999972
20
-3.6830000000000007
10
0.12699999999999989
20
-5.2070000000000007
42
0.41419999999999985
10
0.38100000000000017
20
-5.4610000000000003
0
LWPOLYLINE
5
106
100
AcDbEntity
8
0
100
AcDbPolyline
90
8
70
1
43
0.0
10
10.793699999999999
20
6.9850000000000012
42
0.41420000000000018
10
8.8900000000000006
20
8.8887
10
-8.2550000000000008
20
8.8887
42
0.41420000000000018
10
-10.1587
20
6.9850000000000012
10
-10.158700000000003
20
-6.9850000000000056
42
0.41419999999999901
10
-8.2550000000000026
20
-8.8887
10
8.8900000000000006
20
-8.8887
42
0.41420000000000068
10
10.793699999999999
20
-6.9850000000000021
0
CIRCLE
5
107
100
AcDbEntity
8
0
100
AcDbCircle
10
-8.8900000000000006
20
1.27
30
0
40
0.57150000000000034
210
0
220
0
230
-1
0
CIRCLE
5
108
100
AcDbEntity
8
0
100
AcDbCircle
10
-8.8900000000000006
20
-1.27
30
0
40
0.57150000000000034
210
0
220
0
230
-1
0
CIRCLE
5
109
100
AcDbEntity
8
0
100
AcDbCircle
10
-6.3499999999999979
20
1.27
30
0
40
0.57150000000000034
210
0
220
0
230
-1
0
CIRCLE
5
110
100
AcDbEntity
8
0
100
AcDbCircle
10
-6.3499999999999979
20
-1.27
30
0
40
0.57150000000000034
210
0
220
0
230
-1
0
LWPOLYLINE
5
111
100
AcDbEntity
8
0
100
AcDbPolyline
90
4
70
1
43
0.0
10
10.147500000000001
20
-4.7444999999999986
42
0.99999999999999989
10
10.147500000000001
20
-3.8554999999999984
10
9.2584999999999997
20
-3.8554999999999984
42
0.99999999999999989
10
9.2584999999999997
20
-4.7444999999999986
0
CIRCLE
5
112
100
AcDbEntity
8
0
100
AcDbCircle
10
8.8900000000000006
20
1.27
30
0
40
0.57150000000000034
210
0
220
0
230
1
0
LWPOLYLINE
5
113
100
AcDbEntity
8
0
100
AcDbPolyline
90
4
70
1
43
0.0
10
10.147500000000001
20
3.8554999999999984
10
9.2585000000000015
20
3.8554999999999984
42
-0.99999999999999989
10
9.258499999999998
20
4.7444999999999986
10
10.147500000000001
20
4.7444999999999986
42
-0.99999999999999989
0
CIRCLE
5
114
100
AcDbEntity
8
0
100
AcDbCircle
10
8.8900000000000006
20
-1.27
30
0
40
0.57150000000000034
210
0
220
0
230
1
0
LWPOLYLINE
5
115
100
AcDbEntity
8
0
100
AcDbPolyline
90
8
70
1
43
0.0
10
2.2860000000000005
20
-3.4289999999999998
10
2.7940000000000005
20
-3.4290000000000003
42
-0.41419999999999924
10
3.0480000000000009
20
-3.6830000000000007
10
3.048
20
-5.2070000000000016
42
-0.41420000000000251
10
2.7939999999999996
20
-5.4610000000000012
10
2.2859999999999996
20
-5.4610000000000003
42
-0.41420000000000023
10
2.0319999999999991
20
-5.2070000000000007
10
2.032
20
-3.6830000000000003
42
-0.41420000000000023
0
LWPOLYLINE
5
116
100
AcDbEntity
8
0
100
AcDbPolyline
90
4
70
1
43
0.0
10
5.045799999999999
20
-3.8427999999999987
42
0.99999999999999989
10
5.045799999999999
20
-4.7571999999999983
10
5.9601999999999986
20
-4.7571999999999983
42
0.99999999999999989
10
5.9601999999999986
20
-3.8427999999999987
0
CIRCLE
5
117
100
AcDbEntity
8
0
100
AcDbCircle
10
6.3499999999999979
20
1.27
30
0
40
0.57150000000000034
210
0
220
0
230
1
0
LWPOLYLINE
5
118
100
AcDbEntity
8
0
100
AcDbPolyline
90
4
70
1
43
0.0
10
5.9601999999999986
20
3.8427999999999987
10
5.045799999999999
20
3.8427999999999987
42
-0.99999999999999989
10
5.045799999999999
20
4.7571999999999983
10
5.9601999999999986
20
4.7571999999999983
42
-0.99999999999999989
0
CIRCLE
5
119
100
AcDbEntity
8
0
100
AcDbCircle
10
6.3499999999999979
20
-1.27
30
0
40
0.57150000000000034
210
0
220
0
230
1
0
LWPOLYLINE
5
120
100
AcDbEntity
8
0
100
AcDbPolyline
90
8
70
1
43
0.0
10
0.88900000000000035
20
-5.4610000000000003
42
0.4141999999999999
10
1.1430000000000007
20
-5.2070000000000007
10
1.1430000000000002
20
-3.6830000000000007
42
0.4142000000000004
10
0.88899999999999979
20
-3.4290000000000003
10
0.38099999999999973
20
-3.4290000000000003
42
0.41420000000000046
10
0.12699999999999972
20
-3.6830000000000007
10
0.12699999999999986
20
-5.2070000000000007
42
0.41419999999999996
10
0.38100000000000017
20
-5.4610000000000003
0
LWPOLYLINE
5
121
100
AcDbEntity
8
0
100
AcDbPolyline
90
8
70
1
43
0.0
10
10.793699999999999
20
6.9850000000000012
42
0.41420000000000018
10
8.8900000000000006
20
8.8887
10
-8.2550000000000008
20
8.8887
42
0.41420000000000018
10
-10.1587
20
6.9850000000000012
10
-10.158700000000003
20
-6.9850000000000056
42
0.41419999999999912
10
-8.2550000000000026
20
-8.8887
10
8.8900000000000006
20
-8.8887
42
0.41420000000000068
10
10.793699999999999
20
-6.9850000000000021
0
ENDSEC
0
SECTION
2
OBJECTS
0
DICTIONARY
5
C
100
AcDbDictionary
3
ACAD_GROUP
350
D
3
ACAD_MLINESTYLE
350
17
0
DICTIONARY
5
D
100
AcDbDictionary
0
DICTIONARY
5
1A
330
C
100
AcDbDictionary
0
DICTIONARY
5
17
100
AcDbDictionary
0
ENDSEC
0
EOF
