G04 #@! TF.GenerationSoftware,KiCad,Pcbnew,(6.0.7)*
G04 #@! TF.CreationDate,2022-10-10T16:00:36+09:00*
G04 #@! TF.ProjectId,MainBoard,4d61696e-426f-4617-9264-2e6b69636164,rev?*
G04 #@! TF.SameCoordinates,Original*
G04 #@! TF.FileFunction,Paste,Top*
G04 #@! TF.FilePolarity,Positive*
%FSLAX46Y46*%
G04 Gerber Fmt 4.6, Leading zero omitted, Abs format (unit mm)*
G04 Created by KiCad (PCBNEW (6.0.7)) date 2022-10-10 16:00:36*
%MOMM*%
%LPD*%
G01*
G04 APERTURE LIST*
G04 Aperture macros list*
%AMRoundRect*
0 Rectangle with rounded corners*
0 $1 Rounding radius*
0 $2 $3 $4 $5 $6 $7 $8 $9 X,Y pos of 4 corners*
0 Add a 4 corners polygon primitive as box body*
4,1,4,$2,$3,$4,$5,$6,$7,$8,$9,$2,$3,0*
0 Add four circle primitives for the rounded corners*
1,1,$1+$1,$2,$3*
1,1,$1+$1,$4,$5*
1,1,$1+$1,$6,$7*
1,1,$1+$1,$8,$9*
0 Add four rect primitives between the rounded corners*
20,1,$1+$1,$2,$3,$4,$5,0*
20,1,$1+$1,$4,$5,$6,$7,0*
20,1,$1+$1,$6,$7,$8,$9,0*
20,1,$1+$1,$8,$9,$2,$3,0*%
G04 Aperture macros list end*
%ADD10RoundRect,0.250000X0.750000X-0.250000X0.750000X0.250000X-0.750000X0.250000X-0.750000X-0.250000X0*%
%ADD11RoundRect,0.237500X-0.237500X0.300000X-0.237500X-0.300000X0.237500X-0.300000X0.237500X0.300000X0*%
%ADD12R,2.000000X2.000000*%
%ADD13R,2.600000X1.900000*%
%ADD14RoundRect,0.237500X0.250000X0.237500X-0.250000X0.237500X-0.250000X-0.237500X0.250000X-0.237500X0*%
%ADD15RoundRect,0.237500X-0.237500X0.250000X-0.237500X-0.250000X0.237500X-0.250000X0.237500X0.250000X0*%
%ADD16RoundRect,0.237500X-0.300000X-0.237500X0.300000X-0.237500X0.300000X0.237500X-0.300000X0.237500X0*%
%ADD17O,0.449999X1.400000*%
%ADD18RoundRect,0.237500X-0.250000X-0.237500X0.250000X-0.237500X0.250000X0.237500X-0.250000X0.237500X0*%
%ADD19RoundRect,0.237500X0.237500X-0.300000X0.237500X0.300000X-0.237500X0.300000X-0.237500X-0.300000X0*%
%ADD20O,2.748280X1.998980*%
%ADD21RoundRect,0.237500X0.300000X0.237500X-0.300000X0.237500X-0.300000X-0.237500X0.300000X-0.237500X0*%
%ADD22RoundRect,0.237500X0.237500X-0.250000X0.237500X0.250000X-0.237500X0.250000X-0.237500X-0.250000X0*%
G04 APERTURE END LIST*
D10*
X186436000Y-99314000D03*
X186436000Y-97536000D03*
D11*
X190627000Y-89688500D03*
X190627000Y-91413500D03*
D10*
X186436000Y-95707200D03*
X189230000Y-95707200D03*
D11*
X179070000Y-95784500D03*
X179070000Y-97509500D03*
D10*
X186436000Y-93980000D03*
D12*
X140764000Y-97155000D03*
X146764000Y-97155000D03*
D13*
X170083000Y-81026000D03*
X170083000Y-84836000D03*
X170083000Y-88646000D03*
X187383000Y-88646000D03*
X187383000Y-86106000D03*
X187383000Y-83566000D03*
X187383000Y-81026000D03*
D14*
X184300500Y-97536000D03*
X182475500Y-97536000D03*
D15*
X169926000Y-93829500D03*
X169926000Y-95654500D03*
X168402000Y-97385500D03*
X168402000Y-99210500D03*
D10*
X189230000Y-93980000D03*
D11*
X177546000Y-95784500D03*
X177546000Y-97509500D03*
D16*
X182525500Y-99314000D03*
X184250500Y-99314000D03*
D17*
X171461001Y-99215999D03*
X172111002Y-99215999D03*
X172761001Y-99215999D03*
X173411002Y-99215999D03*
X174061001Y-99215999D03*
X174711002Y-99215999D03*
X175361001Y-99215999D03*
X176011002Y-99215999D03*
X176011002Y-93315998D03*
X175361001Y-93315998D03*
X174711002Y-93315998D03*
X174061001Y-93315998D03*
X173411002Y-93315998D03*
X172761001Y-93315998D03*
X172111002Y-93315998D03*
X171461001Y-93315998D03*
D11*
X180848000Y-95784500D03*
X180848000Y-97509500D03*
D18*
X145772500Y-78613000D03*
X147597500Y-78613000D03*
D19*
X190627000Y-83158500D03*
X190627000Y-81433500D03*
D10*
X189230000Y-97536000D03*
D14*
X184300500Y-95758000D03*
X182475500Y-95758000D03*
D20*
X149698710Y-81900490D03*
X149698710Y-84440490D03*
X149698710Y-86980490D03*
X149698710Y-89520490D03*
X149698710Y-92060490D03*
X149698710Y-94600490D03*
X149698710Y-97140490D03*
X165863270Y-97140490D03*
X165863270Y-94600490D03*
X165863270Y-92060490D03*
X165863270Y-89520490D03*
X165863270Y-86980490D03*
X165863270Y-84440490D03*
X165863270Y-81900490D03*
D21*
X179551500Y-93091000D03*
X177826500Y-93091000D03*
D22*
X168402000Y-95654500D03*
X168402000Y-93829500D03*
D11*
X169926000Y-97435500D03*
X169926000Y-99160500D03*
X167487600Y-78131500D03*
X167487600Y-79856500D03*
D18*
X141835500Y-78613000D03*
X143660500Y-78613000D03*
D10*
X189230000Y-99314000D03*
D16*
X163983500Y-78232000D03*
X165708500Y-78232000D03*
D21*
X184250500Y-93980000D03*
X182525500Y-93980000D03*
M02*
