G04 #@! TF.GenerationSoftware,KiCad,Pcbnew,(6.0.7)*
G04 #@! TF.CreationDate,2022-10-10T16:00:36+09:00*
G04 #@! TF.ProjectId,MainBoard,4d61696e-426f-4617-9264-2e6b69636164,rev?*
G04 #@! TF.SameCoordinates,Original*
G04 #@! TF.FileFunction,Legend,Top*
G04 #@! TF.FilePolarity,Positive*
%FSLAX46Y46*%
G04 Gerber Fmt 4.6, Leading zero omitted, Abs format (unit mm)*
G04 Created by KiCad (PCBNEW (6.0.7)) date 2022-10-10 16:00:36*
%MOMM*%
%LPD*%
G01*
G04 APERTURE LIST*
G04 Aperture macros list*
%AMRoundRect*
0 Rectangle with rounded corners*
0 $1 Rounding radius*
0 $2 $3 $4 $5 $6 $7 $8 $9 X,Y pos of 4 corners*
0 Add a 4 corners polygon primitive as box body*
4,1,4,$2,$3,$4,$5,$6,$7,$8,$9,$2,$3,0*
0 Add four circle primitives for the rounded corners*
1,1,$1+$1,$2,$3*
1,1,$1+$1,$4,$5*
1,1,$1+$1,$6,$7*
1,1,$1+$1,$8,$9*
0 Add four rect primitives between the rounded corners*
20,1,$1+$1,$2,$3,$4,$5,0*
20,1,$1+$1,$4,$5,$6,$7,0*
20,1,$1+$1,$6,$7,$8,$9,0*
20,1,$1+$1,$8,$9,$2,$3,0*%
G04 Aperture macros list end*
%ADD10C,0.150000*%
%ADD11C,0.254000*%
%ADD12C,0.120000*%
%ADD13C,0.100000*%
%ADD14C,0.066040*%
%ADD15C,0.127000*%
%ADD16RoundRect,0.250000X0.750000X-0.250000X0.750000X0.250000X-0.750000X0.250000X-0.750000X-0.250000X0*%
%ADD17RoundRect,0.237500X-0.237500X0.300000X-0.237500X-0.300000X0.237500X-0.300000X0.237500X0.300000X0*%
%ADD18RoundRect,0.381000X0.381000X-0.381000X0.381000X0.381000X-0.381000X0.381000X-0.381000X-0.381000X0*%
%ADD19R,2.000000X2.000000*%
%ADD20R,2.600000X1.900000*%
%ADD21RoundRect,0.237500X0.250000X0.237500X-0.250000X0.237500X-0.250000X-0.237500X0.250000X-0.237500X0*%
%ADD22RoundRect,0.237500X-0.237500X0.250000X-0.237500X-0.250000X0.237500X-0.250000X0.237500X0.250000X0*%
%ADD23RoundRect,0.237500X-0.300000X-0.237500X0.300000X-0.237500X0.300000X0.237500X-0.300000X0.237500X0*%
%ADD24O,0.449999X1.400000*%
%ADD25RoundRect,0.787500X-0.812500X-0.787500X0.812500X-0.787500X0.812500X0.787500X-0.812500X0.787500X0*%
%ADD26RoundRect,0.237500X-0.250000X-0.237500X0.250000X-0.237500X0.250000X0.237500X-0.250000X0.237500X0*%
%ADD27RoundRect,0.237500X0.237500X-0.300000X0.237500X0.300000X-0.237500X0.300000X-0.237500X-0.300000X0*%
%ADD28O,2.748280X1.998980*%
%ADD29RoundRect,0.237500X0.300000X0.237500X-0.300000X0.237500X-0.300000X-0.237500X0.300000X-0.237500X0*%
%ADD30RoundRect,0.237500X0.237500X-0.250000X0.237500X0.250000X-0.237500X0.250000X-0.237500X-0.250000X0*%
G04 APERTURE END LIST*
D10*
X187604428Y-98952095D02*
X187642523Y-98914000D01*
X187718714Y-98875904D01*
X187909190Y-98875904D01*
X187985380Y-98914000D01*
X188023476Y-98952095D01*
X188061571Y-99028285D01*
X188061571Y-99104476D01*
X188023476Y-99218761D01*
X187566333Y-99675904D01*
X188061571Y-99675904D01*
X187959980Y-97364571D02*
X187959980Y-97897904D01*
X187769504Y-97059809D02*
X187579028Y-97631238D01*
X188074266Y-97631238D01*
X191238142Y-88050666D02*
X191285761Y-88098285D01*
X191333380Y-88241142D01*
X191333380Y-88336380D01*
X191285761Y-88479238D01*
X191190523Y-88574476D01*
X191095285Y-88622095D01*
X190904809Y-88669714D01*
X190761952Y-88669714D01*
X190571476Y-88622095D01*
X190476238Y-88574476D01*
X190381000Y-88479238D01*
X190333380Y-88336380D01*
X190333380Y-88241142D01*
X190381000Y-88098285D01*
X190428619Y-88050666D01*
X190428619Y-87669714D02*
X190381000Y-87622095D01*
X190333380Y-87526857D01*
X190333380Y-87288761D01*
X190381000Y-87193523D01*
X190428619Y-87145904D01*
X190523857Y-87098285D01*
X190619095Y-87098285D01*
X190761952Y-87145904D01*
X191333380Y-87717333D01*
X191333380Y-87098285D01*
X187591733Y-95269104D02*
X188086971Y-95269104D01*
X187820304Y-95573866D01*
X187934590Y-95573866D01*
X188010780Y-95611961D01*
X188048876Y-95650057D01*
X188086971Y-95726247D01*
X188086971Y-95916723D01*
X188048876Y-95992914D01*
X188010780Y-96031009D01*
X187934590Y-96069104D01*
X187706019Y-96069104D01*
X187629828Y-96031009D01*
X187591733Y-95992914D01*
X191198476Y-95269104D02*
X190817523Y-95269104D01*
X190779428Y-95650057D01*
X190817523Y-95611961D01*
X190893714Y-95573866D01*
X191084190Y-95573866D01*
X191160380Y-95611961D01*
X191198476Y-95650057D01*
X191236571Y-95726247D01*
X191236571Y-95916723D01*
X191198476Y-95992914D01*
X191160380Y-96031009D01*
X191084190Y-96069104D01*
X190893714Y-96069104D01*
X190817523Y-96031009D01*
X190779428Y-95992914D01*
X179355714Y-99320333D02*
X179393809Y-99358428D01*
X179431904Y-99472714D01*
X179431904Y-99548904D01*
X179393809Y-99663190D01*
X179317619Y-99739380D01*
X179241428Y-99777476D01*
X179089047Y-99815571D01*
X178974761Y-99815571D01*
X178822380Y-99777476D01*
X178746190Y-99739380D01*
X178670000Y-99663190D01*
X178631904Y-99548904D01*
X178631904Y-99472714D01*
X178670000Y-99358428D01*
X178708095Y-99320333D01*
X179431904Y-98939380D02*
X179431904Y-98787000D01*
X179393809Y-98710809D01*
X179355714Y-98672714D01*
X179241428Y-98596523D01*
X179089047Y-98558428D01*
X178784285Y-98558428D01*
X178708095Y-98596523D01*
X178670000Y-98634619D01*
X178631904Y-98710809D01*
X178631904Y-98863190D01*
X178670000Y-98939380D01*
X178708095Y-98977476D01*
X178784285Y-99015571D01*
X178974761Y-99015571D01*
X179050952Y-98977476D01*
X179089047Y-98939380D01*
X179127142Y-98863190D01*
X179127142Y-98710809D01*
X179089047Y-98634619D01*
X179050952Y-98596523D01*
X178974761Y-98558428D01*
X188061571Y-94341904D02*
X187604428Y-94341904D01*
X187833000Y-94341904D02*
X187833000Y-93541904D01*
X187756809Y-93656190D01*
X187680619Y-93732380D01*
X187604428Y-93770476D01*
X141454476Y-93162380D02*
X141454476Y-92162380D01*
X141835428Y-92162380D01*
X141930666Y-92210000D01*
X141978285Y-92257619D01*
X142025904Y-92352857D01*
X142025904Y-92495714D01*
X141978285Y-92590952D01*
X141930666Y-92638571D01*
X141835428Y-92686190D01*
X141454476Y-92686190D01*
X142644952Y-92162380D02*
X142835428Y-92162380D01*
X142930666Y-92210000D01*
X143025904Y-92305238D01*
X143073523Y-92495714D01*
X143073523Y-92829047D01*
X143025904Y-93019523D01*
X142930666Y-93114761D01*
X142835428Y-93162380D01*
X142644952Y-93162380D01*
X142549714Y-93114761D01*
X142454476Y-93019523D01*
X142406857Y-92829047D01*
X142406857Y-92495714D01*
X142454476Y-92305238D01*
X142549714Y-92210000D01*
X142644952Y-92162380D01*
X143406857Y-92162380D02*
X143644952Y-93162380D01*
X143835428Y-92448095D01*
X144025904Y-93162380D01*
X144264000Y-92162380D01*
X144644952Y-92638571D02*
X144978285Y-92638571D01*
X145121142Y-93162380D02*
X144644952Y-93162380D01*
X144644952Y-92162380D01*
X145121142Y-92162380D01*
X146121142Y-93162380D02*
X145787809Y-92686190D01*
X145549714Y-93162380D02*
X145549714Y-92162380D01*
X145930666Y-92162380D01*
X146025904Y-92210000D01*
X146073523Y-92257619D01*
X146121142Y-92352857D01*
X146121142Y-92495714D01*
X146073523Y-92590952D01*
X146025904Y-92638571D01*
X145930666Y-92686190D01*
X145549714Y-92686190D01*
X141882761Y-100425142D02*
X141930380Y-100282285D01*
X141930380Y-100044190D01*
X141882761Y-99948952D01*
X141835142Y-99901333D01*
X141739904Y-99853714D01*
X141644666Y-99853714D01*
X141549428Y-99901333D01*
X141501809Y-99948952D01*
X141454190Y-100044190D01*
X141406571Y-100234666D01*
X141358952Y-100329904D01*
X141311333Y-100377523D01*
X141216095Y-100425142D01*
X141120857Y-100425142D01*
X141025619Y-100377523D01*
X140978000Y-100329904D01*
X140930380Y-100234666D01*
X140930380Y-99996571D01*
X140978000Y-99853714D01*
X140930380Y-99520380D02*
X141930380Y-99282285D01*
X141216095Y-99091809D01*
X141930380Y-98901333D01*
X140930380Y-98663238D01*
D11*
X176451380Y-88712523D02*
X176451380Y-87442523D01*
X176753761Y-87442523D01*
X176935190Y-87503000D01*
X177056142Y-87623952D01*
X177116619Y-87744904D01*
X177177095Y-87986809D01*
X177177095Y-88168238D01*
X177116619Y-88410142D01*
X177056142Y-88531095D01*
X176935190Y-88652047D01*
X176753761Y-88712523D01*
X176451380Y-88712523D01*
X178447095Y-88591571D02*
X178386619Y-88652047D01*
X178205190Y-88712523D01*
X178084238Y-88712523D01*
X177902809Y-88652047D01*
X177781857Y-88531095D01*
X177721380Y-88410142D01*
X177660904Y-88168238D01*
X177660904Y-87986809D01*
X177721380Y-87744904D01*
X177781857Y-87623952D01*
X177902809Y-87503000D01*
X178084238Y-87442523D01*
X178205190Y-87442523D01*
X178386619Y-87503000D01*
X178447095Y-87563476D01*
X178991380Y-88712523D02*
X178991380Y-87442523D01*
X179293761Y-87442523D01*
X179475190Y-87503000D01*
X179596142Y-87623952D01*
X179656619Y-87744904D01*
X179717095Y-87986809D01*
X179717095Y-88168238D01*
X179656619Y-88410142D01*
X179596142Y-88531095D01*
X179475190Y-88652047D01*
X179293761Y-88712523D01*
X178991380Y-88712523D01*
X180987095Y-88591571D02*
X180926619Y-88652047D01*
X180745190Y-88712523D01*
X180624238Y-88712523D01*
X180442809Y-88652047D01*
X180321857Y-88531095D01*
X180261380Y-88410142D01*
X180200904Y-88168238D01*
X180200904Y-87986809D01*
X180261380Y-87744904D01*
X180321857Y-87623952D01*
X180442809Y-87503000D01*
X180624238Y-87442523D01*
X180745190Y-87442523D01*
X180926619Y-87503000D01*
X180987095Y-87563476D01*
D10*
X180714666Y-99294904D02*
X180448000Y-98913952D01*
X180257523Y-99294904D02*
X180257523Y-98494904D01*
X180562285Y-98494904D01*
X180638476Y-98533000D01*
X180676571Y-98571095D01*
X180714666Y-98647285D01*
X180714666Y-98761571D01*
X180676571Y-98837761D01*
X180638476Y-98875857D01*
X180562285Y-98913952D01*
X180257523Y-98913952D01*
X181019428Y-98571095D02*
X181057523Y-98533000D01*
X181133714Y-98494904D01*
X181324190Y-98494904D01*
X181400380Y-98533000D01*
X181438476Y-98571095D01*
X181476571Y-98647285D01*
X181476571Y-98723476D01*
X181438476Y-98837761D01*
X180981333Y-99294904D01*
X181476571Y-99294904D01*
X169792666Y-92944904D02*
X169526000Y-92563952D01*
X169335523Y-92944904D02*
X169335523Y-92144904D01*
X169640285Y-92144904D01*
X169716476Y-92183000D01*
X169754571Y-92221095D01*
X169792666Y-92297285D01*
X169792666Y-92411571D01*
X169754571Y-92487761D01*
X169716476Y-92525857D01*
X169640285Y-92563952D01*
X169335523Y-92563952D01*
X170516476Y-92144904D02*
X170135523Y-92144904D01*
X170097428Y-92525857D01*
X170135523Y-92487761D01*
X170211714Y-92449666D01*
X170402190Y-92449666D01*
X170478380Y-92487761D01*
X170516476Y-92525857D01*
X170554571Y-92602047D01*
X170554571Y-92792523D01*
X170516476Y-92868714D01*
X170478380Y-92906809D01*
X170402190Y-92944904D01*
X170211714Y-92944904D01*
X170135523Y-92906809D01*
X170097428Y-92868714D01*
X167697104Y-99320333D02*
X167316152Y-99587000D01*
X167697104Y-99777476D02*
X166897104Y-99777476D01*
X166897104Y-99472714D01*
X166935200Y-99396523D01*
X166973295Y-99358428D01*
X167049485Y-99320333D01*
X167163771Y-99320333D01*
X167239961Y-99358428D01*
X167278057Y-99396523D01*
X167316152Y-99472714D01*
X167316152Y-99777476D01*
X166897104Y-99053666D02*
X166897104Y-98558428D01*
X167201866Y-98825095D01*
X167201866Y-98710809D01*
X167239961Y-98634619D01*
X167278057Y-98596523D01*
X167354247Y-98558428D01*
X167544723Y-98558428D01*
X167620914Y-98596523D01*
X167659009Y-98634619D01*
X167697104Y-98710809D01*
X167697104Y-98939380D01*
X167659009Y-99015571D01*
X167620914Y-99053666D01*
X190868333Y-93541904D02*
X191401666Y-93541904D01*
X191058809Y-94341904D01*
X177831714Y-99320333D02*
X177869809Y-99358428D01*
X177907904Y-99472714D01*
X177907904Y-99548904D01*
X177869809Y-99663190D01*
X177793619Y-99739380D01*
X177717428Y-99777476D01*
X177565047Y-99815571D01*
X177450761Y-99815571D01*
X177298380Y-99777476D01*
X177222190Y-99739380D01*
X177146000Y-99663190D01*
X177107904Y-99548904D01*
X177107904Y-99472714D01*
X177146000Y-99358428D01*
X177184095Y-99320333D01*
X177450761Y-98863190D02*
X177412666Y-98939380D01*
X177374571Y-98977476D01*
X177298380Y-99015571D01*
X177260285Y-99015571D01*
X177184095Y-98977476D01*
X177146000Y-98939380D01*
X177107904Y-98863190D01*
X177107904Y-98710809D01*
X177146000Y-98634619D01*
X177184095Y-98596523D01*
X177260285Y-98558428D01*
X177298380Y-98558428D01*
X177374571Y-98596523D01*
X177412666Y-98634619D01*
X177450761Y-98710809D01*
X177450761Y-98863190D01*
X177488857Y-98939380D01*
X177526952Y-98977476D01*
X177603142Y-99015571D01*
X177755523Y-99015571D01*
X177831714Y-98977476D01*
X177869809Y-98939380D01*
X177907904Y-98863190D01*
X177907904Y-98710809D01*
X177869809Y-98634619D01*
X177831714Y-98596523D01*
X177755523Y-98558428D01*
X177603142Y-98558428D01*
X177526952Y-98596523D01*
X177488857Y-98634619D01*
X177450761Y-98710809D01*
X180714666Y-100361714D02*
X180676571Y-100399809D01*
X180562285Y-100437904D01*
X180486095Y-100437904D01*
X180371809Y-100399809D01*
X180295619Y-100323619D01*
X180257523Y-100247428D01*
X180219428Y-100095047D01*
X180219428Y-99980761D01*
X180257523Y-99828380D01*
X180295619Y-99752190D01*
X180371809Y-99676000D01*
X180486095Y-99637904D01*
X180562285Y-99637904D01*
X180676571Y-99676000D01*
X180714666Y-99714095D01*
X180981333Y-99637904D02*
X181514666Y-99637904D01*
X181171809Y-100437904D01*
X155868857Y-86415571D02*
X156011714Y-86463190D01*
X156059333Y-86510809D01*
X156106952Y-86606047D01*
X156106952Y-86748904D01*
X156059333Y-86844142D01*
X156011714Y-86891761D01*
X155916476Y-86939380D01*
X155535523Y-86939380D01*
X155535523Y-85939380D01*
X155868857Y-85939380D01*
X155964095Y-85987000D01*
X156011714Y-86034619D01*
X156059333Y-86129857D01*
X156059333Y-86225095D01*
X156011714Y-86320333D01*
X155964095Y-86367952D01*
X155868857Y-86415571D01*
X155535523Y-86415571D01*
X156487904Y-86653666D02*
X156964095Y-86653666D01*
X156392666Y-86939380D02*
X156726000Y-85939380D01*
X157059333Y-86939380D01*
X157249809Y-85939380D02*
X157821238Y-85939380D01*
X157535523Y-86939380D02*
X157535523Y-85939380D01*
X158154571Y-86558428D02*
X158916476Y-86558428D01*
X181286114Y-94367333D02*
X181324209Y-94405428D01*
X181362304Y-94519714D01*
X181362304Y-94595904D01*
X181324209Y-94710190D01*
X181248019Y-94786380D01*
X181171828Y-94824476D01*
X181019447Y-94862571D01*
X180905161Y-94862571D01*
X180752780Y-94824476D01*
X180676590Y-94786380D01*
X180600400Y-94710190D01*
X180562304Y-94595904D01*
X180562304Y-94519714D01*
X180600400Y-94405428D01*
X180638495Y-94367333D01*
X180562304Y-93681619D02*
X180562304Y-93834000D01*
X180600400Y-93910190D01*
X180638495Y-93948285D01*
X180752780Y-94024476D01*
X180905161Y-94062571D01*
X181209923Y-94062571D01*
X181286114Y-94024476D01*
X181324209Y-93986380D01*
X181362304Y-93910190D01*
X181362304Y-93757809D01*
X181324209Y-93681619D01*
X181286114Y-93643523D01*
X181209923Y-93605428D01*
X181019447Y-93605428D01*
X180943257Y-93643523D01*
X180905161Y-93681619D01*
X180867066Y-93757809D01*
X180867066Y-93910190D01*
X180905161Y-93986380D01*
X180943257Y-94024476D01*
X181019447Y-94062571D01*
X149058333Y-78684380D02*
X148725000Y-78208190D01*
X148486904Y-78684380D02*
X148486904Y-77684380D01*
X148867857Y-77684380D01*
X148963095Y-77732000D01*
X149010714Y-77779619D01*
X149058333Y-77874857D01*
X149058333Y-78017714D01*
X149010714Y-78112952D01*
X148963095Y-78160571D01*
X148867857Y-78208190D01*
X148486904Y-78208190D01*
X149391666Y-77684380D02*
X150058333Y-77684380D01*
X149629761Y-78684380D01*
X155868857Y-89844571D02*
X156011714Y-89892190D01*
X156059333Y-89939809D01*
X156106952Y-90035047D01*
X156106952Y-90177904D01*
X156059333Y-90273142D01*
X156011714Y-90320761D01*
X155916476Y-90368380D01*
X155535523Y-90368380D01*
X155535523Y-89368380D01*
X155868857Y-89368380D01*
X155964095Y-89416000D01*
X156011714Y-89463619D01*
X156059333Y-89558857D01*
X156059333Y-89654095D01*
X156011714Y-89749333D01*
X155964095Y-89796952D01*
X155868857Y-89844571D01*
X155535523Y-89844571D01*
X156487904Y-90082666D02*
X156964095Y-90082666D01*
X156392666Y-90368380D02*
X156726000Y-89368380D01*
X157059333Y-90368380D01*
X157249809Y-89368380D02*
X157821238Y-89368380D01*
X157535523Y-90368380D02*
X157535523Y-89368380D01*
X158154571Y-89987428D02*
X158916476Y-89987428D01*
X158535523Y-90368380D02*
X158535523Y-89606476D01*
X191238142Y-79668666D02*
X191285761Y-79716285D01*
X191333380Y-79859142D01*
X191333380Y-79954380D01*
X191285761Y-80097238D01*
X191190523Y-80192476D01*
X191095285Y-80240095D01*
X190904809Y-80287714D01*
X190761952Y-80287714D01*
X190571476Y-80240095D01*
X190476238Y-80192476D01*
X190381000Y-80097238D01*
X190333380Y-79954380D01*
X190333380Y-79859142D01*
X190381000Y-79716285D01*
X190428619Y-79668666D01*
X191333380Y-78716285D02*
X191333380Y-79287714D01*
X191333380Y-79002000D02*
X190333380Y-79002000D01*
X190476238Y-79097238D01*
X190571476Y-79192476D01*
X190619095Y-79287714D01*
X191160380Y-97097904D02*
X191008000Y-97097904D01*
X190931809Y-97136000D01*
X190893714Y-97174095D01*
X190817523Y-97288380D01*
X190779428Y-97440761D01*
X190779428Y-97745523D01*
X190817523Y-97821714D01*
X190855619Y-97859809D01*
X190931809Y-97897904D01*
X191084190Y-97897904D01*
X191160380Y-97859809D01*
X191198476Y-97821714D01*
X191236571Y-97745523D01*
X191236571Y-97555047D01*
X191198476Y-97478857D01*
X191160380Y-97440761D01*
X191084190Y-97402666D01*
X190931809Y-97402666D01*
X190855619Y-97440761D01*
X190817523Y-97478857D01*
X190779428Y-97555047D01*
X183254666Y-93071904D02*
X182988000Y-92690952D01*
X182797523Y-93071904D02*
X182797523Y-92271904D01*
X183102285Y-92271904D01*
X183178476Y-92310000D01*
X183216571Y-92348095D01*
X183254666Y-92424285D01*
X183254666Y-92538571D01*
X183216571Y-92614761D01*
X183178476Y-92652857D01*
X183102285Y-92690952D01*
X182797523Y-92690952D01*
X184016571Y-93071904D02*
X183559428Y-93071904D01*
X183788000Y-93071904D02*
X183788000Y-92271904D01*
X183711809Y-92386190D01*
X183635619Y-92462380D01*
X183559428Y-92500476D01*
X178555666Y-94646714D02*
X178517571Y-94684809D01*
X178403285Y-94722904D01*
X178327095Y-94722904D01*
X178212809Y-94684809D01*
X178136619Y-94608619D01*
X178098523Y-94532428D01*
X178060428Y-94380047D01*
X178060428Y-94265761D01*
X178098523Y-94113380D01*
X178136619Y-94037190D01*
X178212809Y-93961000D01*
X178327095Y-93922904D01*
X178403285Y-93922904D01*
X178517571Y-93961000D01*
X178555666Y-93999095D01*
X178822333Y-93922904D02*
X179317571Y-93922904D01*
X179050904Y-94227666D01*
X179165190Y-94227666D01*
X179241380Y-94265761D01*
X179279476Y-94303857D01*
X179317571Y-94380047D01*
X179317571Y-94570523D01*
X179279476Y-94646714D01*
X179241380Y-94684809D01*
X179165190Y-94722904D01*
X178936619Y-94722904D01*
X178860428Y-94684809D01*
X178822333Y-94646714D01*
X168268666Y-92944904D02*
X168002000Y-92563952D01*
X167811523Y-92944904D02*
X167811523Y-92144904D01*
X168116285Y-92144904D01*
X168192476Y-92183000D01*
X168230571Y-92221095D01*
X168268666Y-92297285D01*
X168268666Y-92411571D01*
X168230571Y-92487761D01*
X168192476Y-92525857D01*
X168116285Y-92563952D01*
X167811523Y-92563952D01*
X168954380Y-92411571D02*
X168954380Y-92944904D01*
X168763904Y-92106809D02*
X168573428Y-92678238D01*
X169068666Y-92678238D01*
X171989714Y-97669285D02*
X172027809Y-97707380D01*
X172065904Y-97821666D01*
X172065904Y-97897857D01*
X172027809Y-98012142D01*
X171951619Y-98088333D01*
X171875428Y-98126428D01*
X171723047Y-98164523D01*
X171608761Y-98164523D01*
X171456380Y-98126428D01*
X171380190Y-98088333D01*
X171304000Y-98012142D01*
X171265904Y-97897857D01*
X171265904Y-97821666D01*
X171304000Y-97707380D01*
X171342095Y-97669285D01*
X172065904Y-96907380D02*
X172065904Y-97364523D01*
X172065904Y-97135952D02*
X171265904Y-97135952D01*
X171380190Y-97212142D01*
X171456380Y-97288333D01*
X171494476Y-97364523D01*
X171265904Y-96412142D02*
X171265904Y-96335952D01*
X171304000Y-96259761D01*
X171342095Y-96221666D01*
X171418285Y-96183571D01*
X171570666Y-96145476D01*
X171761142Y-96145476D01*
X171913523Y-96183571D01*
X171989714Y-96221666D01*
X172027809Y-96259761D01*
X172065904Y-96335952D01*
X172065904Y-96412142D01*
X172027809Y-96488333D01*
X171989714Y-96526428D01*
X171913523Y-96564523D01*
X171761142Y-96602619D01*
X171570666Y-96602619D01*
X171418285Y-96564523D01*
X171342095Y-96526428D01*
X171304000Y-96488333D01*
X171265904Y-96412142D01*
X169029142Y-79097142D02*
X168981523Y-79144761D01*
X168838666Y-79192380D01*
X168743428Y-79192380D01*
X168600571Y-79144761D01*
X168505333Y-79049523D01*
X168457714Y-78954285D01*
X168410095Y-78763809D01*
X168410095Y-78620952D01*
X168457714Y-78430476D01*
X168505333Y-78335238D01*
X168600571Y-78240000D01*
X168743428Y-78192380D01*
X168838666Y-78192380D01*
X168981523Y-78240000D01*
X169029142Y-78287619D01*
X169981523Y-79192380D02*
X169410095Y-79192380D01*
X169695809Y-79192380D02*
X169695809Y-78192380D01*
X169600571Y-78335238D01*
X169505333Y-78430476D01*
X169410095Y-78478095D01*
X170933904Y-79192380D02*
X170362476Y-79192380D01*
X170648190Y-79192380D02*
X170648190Y-78192380D01*
X170552952Y-78335238D01*
X170457714Y-78430476D01*
X170362476Y-78478095D01*
X140914380Y-78779666D02*
X140438190Y-79113000D01*
X140914380Y-79351095D02*
X139914380Y-79351095D01*
X139914380Y-78970142D01*
X139962000Y-78874904D01*
X140009619Y-78827285D01*
X140104857Y-78779666D01*
X140247714Y-78779666D01*
X140342952Y-78827285D01*
X140390571Y-78874904D01*
X140438190Y-78970142D01*
X140438190Y-79351095D01*
X139914380Y-77922523D02*
X139914380Y-78113000D01*
X139962000Y-78208238D01*
X140009619Y-78255857D01*
X140152476Y-78351095D01*
X140342952Y-78398714D01*
X140723904Y-78398714D01*
X140819142Y-78351095D01*
X140866761Y-78303476D01*
X140914380Y-78208238D01*
X140914380Y-78017761D01*
X140866761Y-77922523D01*
X140819142Y-77874904D01*
X140723904Y-77827285D01*
X140485809Y-77827285D01*
X140390571Y-77874904D01*
X140342952Y-77922523D01*
X140295333Y-78017761D01*
X140295333Y-78208238D01*
X140342952Y-78303476D01*
X140390571Y-78351095D01*
X140485809Y-78398714D01*
X190931809Y-99218761D02*
X190855619Y-99180666D01*
X190817523Y-99142571D01*
X190779428Y-99066380D01*
X190779428Y-99028285D01*
X190817523Y-98952095D01*
X190855619Y-98914000D01*
X190931809Y-98875904D01*
X191084190Y-98875904D01*
X191160380Y-98914000D01*
X191198476Y-98952095D01*
X191236571Y-99028285D01*
X191236571Y-99066380D01*
X191198476Y-99142571D01*
X191160380Y-99180666D01*
X191084190Y-99218761D01*
X190931809Y-99218761D01*
X190855619Y-99256857D01*
X190817523Y-99294952D01*
X190779428Y-99371142D01*
X190779428Y-99523523D01*
X190817523Y-99599714D01*
X190855619Y-99637809D01*
X190931809Y-99675904D01*
X191084190Y-99675904D01*
X191160380Y-99637809D01*
X191198476Y-99599714D01*
X191236571Y-99523523D01*
X191236571Y-99371142D01*
X191198476Y-99294952D01*
X191160380Y-99256857D01*
X191084190Y-99218761D01*
X164806333Y-80113142D02*
X164758714Y-80160761D01*
X164615857Y-80208380D01*
X164520619Y-80208380D01*
X164377761Y-80160761D01*
X164282523Y-80065523D01*
X164234904Y-79970285D01*
X164187285Y-79779809D01*
X164187285Y-79636952D01*
X164234904Y-79446476D01*
X164282523Y-79351238D01*
X164377761Y-79256000D01*
X164520619Y-79208380D01*
X164615857Y-79208380D01*
X164758714Y-79256000D01*
X164806333Y-79303619D01*
X165663476Y-79541714D02*
X165663476Y-80208380D01*
X165425380Y-79160761D02*
X165187285Y-79875047D01*
X165806333Y-79875047D01*
X183254666Y-91598714D02*
X183216571Y-91636809D01*
X183102285Y-91674904D01*
X183026095Y-91674904D01*
X182911809Y-91636809D01*
X182835619Y-91560619D01*
X182797523Y-91484428D01*
X182759428Y-91332047D01*
X182759428Y-91217761D01*
X182797523Y-91065380D01*
X182835619Y-90989190D01*
X182911809Y-90913000D01*
X183026095Y-90874904D01*
X183102285Y-90874904D01*
X183216571Y-90913000D01*
X183254666Y-90951095D01*
X183978476Y-90874904D02*
X183597523Y-90874904D01*
X183559428Y-91255857D01*
X183597523Y-91217761D01*
X183673714Y-91179666D01*
X183864190Y-91179666D01*
X183940380Y-91217761D01*
X183978476Y-91255857D01*
X184016571Y-91332047D01*
X184016571Y-91522523D01*
X183978476Y-91598714D01*
X183940380Y-91636809D01*
X183864190Y-91674904D01*
X183673714Y-91674904D01*
X183597523Y-91636809D01*
X183559428Y-91598714D01*
D12*
X191137000Y-90404733D02*
X191137000Y-90697267D01*
X190117000Y-90404733D02*
X190117000Y-90697267D01*
X178560000Y-96500733D02*
X178560000Y-96793267D01*
X179580000Y-96500733D02*
X179580000Y-96793267D01*
X147664000Y-93614000D02*
X139864000Y-93614000D01*
X139864000Y-79614000D02*
X139864000Y-93614000D01*
X139864000Y-79614000D02*
X147664000Y-79614000D01*
X147664000Y-79614000D02*
X147664000Y-93614000D01*
D13*
X146764000Y-93705000D02*
X140764000Y-93705000D01*
X138064000Y-96955000D02*
X138064000Y-96955000D01*
X138164000Y-96955000D02*
X138164000Y-96955000D01*
X140764000Y-100605000D02*
X140764000Y-98655000D01*
X146764000Y-100655000D02*
X140764000Y-100605000D01*
X146764000Y-98655000D02*
X146764000Y-100655000D01*
X146764000Y-95655000D02*
X146764000Y-93705000D01*
X140764000Y-93705000D02*
X140764000Y-95655000D01*
X138164000Y-96955000D02*
G75*
G03*
X138064000Y-96955000I-50000J0D01*
G01*
X138064000Y-96955000D02*
G75*
G03*
X138164000Y-96955000I50000J0D01*
G01*
X168583000Y-77836000D02*
X188883000Y-77836000D01*
X168583000Y-91836000D02*
X168583000Y-91836000D01*
X188883000Y-77836000D02*
X188883000Y-77836000D01*
X168583000Y-91836000D02*
X188883000Y-91836000D01*
X188883000Y-91836000D02*
X188883000Y-91836000D01*
X188883000Y-91836000D02*
X168583000Y-91836000D01*
X168583000Y-77836000D02*
X168583000Y-77836000D01*
X188883000Y-77836000D02*
X168583000Y-77836000D01*
D12*
X183642724Y-98058500D02*
X183133276Y-98058500D01*
X183642724Y-97013500D02*
X183133276Y-97013500D01*
X170448500Y-94487276D02*
X170448500Y-94996724D01*
X169403500Y-94487276D02*
X169403500Y-94996724D01*
X168924500Y-98043276D02*
X168924500Y-98552724D01*
X167879500Y-98043276D02*
X167879500Y-98552724D01*
X177036000Y-96500733D02*
X177036000Y-96793267D01*
X178056000Y-96500733D02*
X178056000Y-96793267D01*
X183241733Y-99824000D02*
X183534267Y-99824000D01*
X183241733Y-98804000D02*
X183534267Y-98804000D01*
X176285997Y-98115999D02*
X176285997Y-94416001D01*
X170986000Y-99766001D02*
X170986000Y-94416001D01*
X180338000Y-96500733D02*
X180338000Y-96793267D01*
X181358000Y-96500733D02*
X181358000Y-96793267D01*
X146430276Y-78090500D02*
X146939724Y-78090500D01*
X146430276Y-79135500D02*
X146939724Y-79135500D01*
X190117000Y-82442267D02*
X190117000Y-82149733D01*
X191137000Y-82442267D02*
X191137000Y-82149733D01*
X183642724Y-96280500D02*
X183133276Y-96280500D01*
X183642724Y-95235500D02*
X183133276Y-95235500D01*
D14*
X155215590Y-82238310D02*
X160295590Y-82238310D01*
X152548590Y-85669850D02*
X154326590Y-85669850D01*
X162962590Y-81603310D02*
X162962590Y-78936310D01*
X155215590Y-82238310D02*
X155215590Y-79698310D01*
X152548590Y-83000310D02*
X154326590Y-83000310D01*
X161184590Y-81603310D02*
X161184590Y-78936310D01*
X161184590Y-81603310D02*
X162962590Y-81603310D01*
X152548590Y-78936310D02*
X154326590Y-78936310D01*
D15*
X153264870Y-77595190D02*
X162259010Y-77595190D01*
D14*
X161184590Y-85669850D02*
X161184590Y-83000310D01*
X152548590Y-81603310D02*
X154326590Y-81603310D01*
X152548590Y-81603310D02*
X152548590Y-78936310D01*
X161184590Y-78936310D02*
X162962590Y-78936310D01*
X162962590Y-85669850D02*
X162962590Y-83000310D01*
D15*
X148865590Y-100018310D02*
X166663370Y-100018310D01*
X162259010Y-84948490D02*
X153259790Y-84948490D01*
D14*
X161184590Y-83000310D02*
X162962590Y-83000310D01*
X161184590Y-85669850D02*
X162962590Y-85669850D01*
D15*
X166663370Y-100018310D02*
X166663370Y-79020130D01*
D14*
X152548590Y-85669850D02*
X152548590Y-83000310D01*
D15*
X153259790Y-84948490D02*
X153259790Y-77595190D01*
D14*
X154326590Y-85669850D02*
X154326590Y-83000310D01*
X155215590Y-79698310D02*
X160295590Y-79698310D01*
X160295590Y-82238310D02*
X160295590Y-79698310D01*
D15*
X149536150Y-79020130D02*
X148865590Y-79690690D01*
X166663370Y-79020130D02*
X149536150Y-79020130D01*
X162259010Y-77595190D02*
X162259010Y-84948490D01*
D14*
X154326590Y-81603310D02*
X154326590Y-78936310D01*
D15*
X148865590Y-79690690D02*
X148865590Y-100018310D01*
D12*
X178835267Y-93601000D02*
X178542733Y-93601000D01*
X178835267Y-92581000D02*
X178542733Y-92581000D01*
X168924500Y-94996724D02*
X168924500Y-94487276D01*
X167879500Y-94996724D02*
X167879500Y-94487276D01*
X169416000Y-98151733D02*
X169416000Y-98444267D01*
X170436000Y-98151733D02*
X170436000Y-98444267D01*
X167997600Y-78847733D02*
X167997600Y-79140267D01*
X166977600Y-78847733D02*
X166977600Y-79140267D01*
X142493276Y-78090500D02*
X143002724Y-78090500D01*
X142493276Y-79135500D02*
X143002724Y-79135500D01*
X164699733Y-78742000D02*
X164992267Y-78742000D01*
X164699733Y-77722000D02*
X164992267Y-77722000D01*
X183534267Y-94490000D02*
X183241733Y-94490000D01*
X183534267Y-93470000D02*
X183241733Y-93470000D01*
%LPC*%
D16*
X186436000Y-99314000D03*
X186436000Y-97536000D03*
D17*
X190627000Y-89688500D03*
X190627000Y-91413500D03*
D16*
X186436000Y-95707200D03*
X189230000Y-95707200D03*
D17*
X179070000Y-95784500D03*
X179070000Y-97509500D03*
D16*
X186436000Y-93980000D03*
D18*
X143764000Y-89154000D03*
X143764000Y-86614000D03*
X143764000Y-84074000D03*
D19*
X140764000Y-97155000D03*
X146764000Y-97155000D03*
D20*
X170083000Y-81026000D03*
X170083000Y-84836000D03*
X170083000Y-88646000D03*
X187383000Y-88646000D03*
X187383000Y-86106000D03*
X187383000Y-83566000D03*
X187383000Y-81026000D03*
D21*
X184300500Y-97536000D03*
X182475500Y-97536000D03*
D22*
X169926000Y-93829500D03*
X169926000Y-95654500D03*
X168402000Y-97385500D03*
X168402000Y-99210500D03*
D16*
X189230000Y-93980000D03*
D17*
X177546000Y-95784500D03*
X177546000Y-97509500D03*
D23*
X182525500Y-99314000D03*
X184250500Y-99314000D03*
D24*
X171461001Y-99215999D03*
X172111002Y-99215999D03*
X172761001Y-99215999D03*
X173411002Y-99215999D03*
X174061001Y-99215999D03*
X174711002Y-99215999D03*
X175361001Y-99215999D03*
X176011002Y-99215999D03*
X176011002Y-93315998D03*
X175361001Y-93315998D03*
X174711002Y-93315998D03*
X174061001Y-93315998D03*
X173411002Y-93315998D03*
X172761001Y-93315998D03*
X172111002Y-93315998D03*
X171461001Y-93315998D03*
D25*
X153314400Y-87400200D03*
D17*
X180848000Y-95784500D03*
X180848000Y-97509500D03*
D26*
X145772500Y-78613000D03*
X147597500Y-78613000D03*
D25*
X153314400Y-89155200D03*
D27*
X190627000Y-83158500D03*
X190627000Y-81433500D03*
D16*
X189230000Y-97536000D03*
D21*
X184300500Y-95758000D03*
X182475500Y-95758000D03*
D28*
X149698710Y-81900490D03*
X149698710Y-84440490D03*
X149698710Y-86980490D03*
X149698710Y-89520490D03*
X149698710Y-92060490D03*
X149698710Y-94600490D03*
X149698710Y-97140490D03*
X165863270Y-97140490D03*
X165863270Y-94600490D03*
X165863270Y-92060490D03*
X165863270Y-89520490D03*
X165863270Y-86980490D03*
X165863270Y-84440490D03*
X165863270Y-81900490D03*
D29*
X179551500Y-93091000D03*
X177826500Y-93091000D03*
D30*
X168402000Y-95654500D03*
X168402000Y-93829500D03*
D17*
X169926000Y-97435500D03*
X169926000Y-99160500D03*
X167487600Y-78131500D03*
X167487600Y-79856500D03*
D26*
X141835500Y-78613000D03*
X143660500Y-78613000D03*
D16*
X189230000Y-99314000D03*
D23*
X163983500Y-78232000D03*
X165708500Y-78232000D03*
D29*
X184250500Y-93980000D03*
X182525500Y-93980000D03*
M02*
