G04 #@! TF.GenerationSoftware,KiCad,Pcbnew,(6.0.7)*
G04 #@! TF.CreationDate,2022-10-10T16:00:36+09:00*
G04 #@! TF.ProjectId,MainBoard,4d61696e-426f-4617-9264-2e6b69636164,rev?*
G04 #@! TF.SameCoordinates,Original*
G04 #@! TF.FileFunction,Copper,L2,Bot*
G04 #@! TF.FilePolarity,Positive*
%FSLAX46Y46*%
G04 Gerber Fmt 4.6, Leading zero omitted, Abs format (unit mm)*
G04 Created by KiCad (PCBNEW (6.0.7)) date 2022-10-10 16:00:36*
%MOMM*%
%LPD*%
G01*
G04 APERTURE LIST*
G04 Aperture macros list*
%AMRoundRect*
0 Rectangle with rounded corners*
0 $1 Rounding radius*
0 $2 $3 $4 $5 $6 $7 $8 $9 X,Y pos of 4 corners*
0 Add a 4 corners polygon primitive as box body*
4,1,4,$2,$3,$4,$5,$6,$7,$8,$9,$2,$3,0*
0 Add four circle primitives for the rounded corners*
1,1,$1+$1,$2,$3*
1,1,$1+$1,$4,$5*
1,1,$1+$1,$6,$7*
1,1,$1+$1,$8,$9*
0 Add four rect primitives between the rounded corners*
20,1,$1+$1,$2,$3,$4,$5,0*
20,1,$1+$1,$4,$5,$6,$7,0*
20,1,$1+$1,$6,$7,$8,$9,0*
20,1,$1+$1,$8,$9,$2,$3,0*%
G04 Aperture macros list end*
G04 #@! TA.AperFunction,ComponentPad*
%ADD10RoundRect,0.381000X0.381000X-0.381000X0.381000X0.381000X-0.381000X0.381000X-0.381000X-0.381000X0*%
G04 #@! TD*
G04 #@! TA.AperFunction,CastellatedPad*
%ADD11RoundRect,0.787500X-0.812500X-0.787500X0.812500X-0.787500X0.812500X0.787500X-0.812500X0.787500X0*%
G04 #@! TD*
G04 #@! TA.AperFunction,SMDPad,CuDef*
%ADD12R,3.500000X1.000000*%
G04 #@! TD*
G04 #@! TA.AperFunction,SMDPad,CuDef*
%ADD13R,3.400000X1.500000*%
G04 #@! TD*
G04 #@! TA.AperFunction,ViaPad*
%ADD14C,0.600000*%
G04 #@! TD*
G04 #@! TA.AperFunction,Conductor*
%ADD15C,0.600000*%
G04 #@! TD*
G04 #@! TA.AperFunction,Conductor*
%ADD16C,0.300000*%
G04 #@! TD*
G04 APERTURE END LIST*
D10*
X143764000Y-89154000D03*
X143764000Y-86614000D03*
X143764000Y-84074000D03*
D11*
X153314400Y-87400200D03*
X153314400Y-89155200D03*
D12*
X141530000Y-94758000D03*
X141530000Y-96758000D03*
D13*
X147280000Y-92408000D03*
X147280000Y-99108000D03*
D14*
X183388000Y-96647000D03*
X163957000Y-88265000D03*
X161442400Y-90805000D03*
X156083000Y-87249000D03*
X151638000Y-85344000D03*
X144526000Y-96901000D03*
X144526000Y-95250000D03*
X144526000Y-93599000D03*
X144526000Y-98552000D03*
X144526000Y-100203000D03*
X142367000Y-98806000D03*
X140208000Y-100203000D03*
X142367000Y-100203000D03*
X140208000Y-98806000D03*
X143256000Y-91440000D03*
X144780000Y-91440000D03*
X147320000Y-87884000D03*
X147320000Y-85598000D03*
X147320000Y-83312000D03*
X145542000Y-83312000D03*
X145542000Y-85598000D03*
X143764000Y-81915000D03*
X143764000Y-80010000D03*
X140208000Y-92964000D03*
X140208000Y-90932000D03*
X141732000Y-86360000D03*
X141732000Y-88900000D03*
X140208000Y-80010000D03*
X140208000Y-83820000D03*
X140208000Y-86360000D03*
X140208000Y-88900000D03*
X140208000Y-81915000D03*
X163957000Y-80010000D03*
X166116000Y-80010000D03*
X167894000Y-81280000D03*
X163957000Y-85598000D03*
X163957000Y-83312000D03*
X148717000Y-79756000D03*
X150368000Y-79756000D03*
X147066000Y-79756000D03*
X150368000Y-78232000D03*
X160274000Y-78232000D03*
X155194000Y-78232000D03*
X157734000Y-78232000D03*
X162560000Y-78232000D03*
X152654000Y-78232000D03*
X151638000Y-83185000D03*
X158750000Y-86106000D03*
X162052000Y-89408000D03*
X160401000Y-87757000D03*
X159385000Y-90805000D03*
X156083000Y-90805000D03*
X157734000Y-90805000D03*
X157734000Y-89027000D03*
X156083000Y-89027000D03*
X157734000Y-97663000D03*
X155194000Y-97663000D03*
X160274000Y-95123000D03*
X155194000Y-95123000D03*
X157734000Y-95123000D03*
X162814000Y-95123000D03*
X152654000Y-95123000D03*
X157734000Y-92583000D03*
X160274000Y-92583000D03*
X162814000Y-92583000D03*
X152654000Y-92583000D03*
X155194000Y-92583000D03*
X167487600Y-98298000D03*
X149860000Y-98933000D03*
X149860000Y-100203000D03*
X152273000Y-98425000D03*
X152273000Y-100203000D03*
X155194000Y-100203000D03*
X157734000Y-100203000D03*
X165100000Y-100203000D03*
X167386000Y-100203000D03*
X191008000Y-93853000D03*
X169291000Y-100203000D03*
X170561000Y-100203000D03*
X173228000Y-97663000D03*
X173228000Y-96520000D03*
X176784000Y-99949000D03*
X178181000Y-99949000D03*
X179578000Y-99949000D03*
X180975000Y-99949000D03*
X185115200Y-100203000D03*
X185166000Y-78740000D03*
X191008000Y-100203000D03*
X189738000Y-78740000D03*
X180594000Y-85598000D03*
X182880000Y-85598000D03*
X182880000Y-81026000D03*
X182880000Y-83312000D03*
X185089800Y-94742000D03*
X179705000Y-90678000D03*
X182880000Y-90678000D03*
X187198000Y-90424000D03*
X182880000Y-78740000D03*
X174498000Y-96901000D03*
X188976000Y-90424000D03*
X180594000Y-78740000D03*
X179705000Y-92075000D03*
X181102000Y-90678000D03*
X174599600Y-91084400D03*
X185115200Y-98552000D03*
X175564800Y-91084400D03*
X176530000Y-96901000D03*
X190119000Y-84582000D03*
X187833000Y-100203000D03*
X182880000Y-89027000D03*
X181102000Y-92075000D03*
X180594000Y-81026000D03*
X175514000Y-96901000D03*
X180594000Y-83312000D03*
X187756800Y-98501200D03*
X187452000Y-78740000D03*
X190119000Y-88138000D03*
X187833000Y-96621600D03*
X190119000Y-86360000D03*
X185115200Y-93218000D03*
X182880000Y-87249000D03*
X169164000Y-83185000D03*
X175006000Y-89662000D03*
X172720000Y-83312000D03*
X172720000Y-78740000D03*
X177673000Y-90678000D03*
X172720000Y-85598000D03*
X175006000Y-81026000D03*
X175006000Y-87630000D03*
X177673000Y-92075000D03*
X177292000Y-83312000D03*
X175006000Y-78740000D03*
X177292000Y-81026000D03*
X169164000Y-78486000D03*
X177292000Y-85598000D03*
X175006000Y-85598000D03*
X170942000Y-83185000D03*
X172720000Y-81026000D03*
X170942000Y-78486000D03*
X175006000Y-83312000D03*
X177292000Y-78740000D03*
X168325800Y-86029800D03*
X171450000Y-94615000D03*
X169164000Y-96520000D03*
X169926000Y-92710000D03*
D15*
X143764000Y-86614000D02*
X146939000Y-89789000D01*
X146939000Y-89789000D02*
X151765000Y-89789000D01*
D16*
X171450000Y-95504000D02*
X171450000Y-94615000D01*
X169164000Y-96520000D02*
X170434000Y-96520000D01*
X170434000Y-96520000D02*
X171450000Y-95504000D01*
D15*
X141530000Y-94758000D02*
X141530000Y-91388000D01*
X141530000Y-91388000D02*
X143764000Y-89154000D01*
D16*
X169926000Y-92710000D02*
X168021000Y-90805000D01*
X168021000Y-90805000D02*
X161442400Y-90805000D01*
G04 #@! TA.AperFunction,Conductor*
G36*
X191641621Y-77320502D02*
G01*
X191688114Y-77374158D01*
X191699500Y-77426500D01*
X191699500Y-100573500D01*
X191679498Y-100641621D01*
X191625842Y-100688114D01*
X191573500Y-100699500D01*
X173938200Y-100699500D01*
X173870079Y-100679498D01*
X173823586Y-100625842D01*
X173812200Y-100573500D01*
X173812200Y-91288990D01*
X173832202Y-91220869D01*
X173849105Y-91199895D01*
X174334095Y-90714905D01*
X174396407Y-90680879D01*
X174423190Y-90678000D01*
X175715810Y-90678000D01*
X175783931Y-90698002D01*
X175804905Y-90714905D01*
X176620095Y-91530095D01*
X176654121Y-91592407D01*
X176657000Y-91619190D01*
X176657000Y-93599000D01*
X176784000Y-93726000D01*
X178689000Y-93726000D01*
X178943000Y-93472000D01*
X178943000Y-77426500D01*
X178963002Y-77358379D01*
X179016658Y-77311886D01*
X179069000Y-77300500D01*
X191573500Y-77300500D01*
X191641621Y-77320502D01*
G37*
G04 #@! TD.AperFunction*
G04 #@! TA.AperFunction,Conductor*
G36*
X178377121Y-77320502D02*
G01*
X178423614Y-77374158D01*
X178435000Y-77426500D01*
X178435000Y-93419810D01*
X178414998Y-93487931D01*
X178398095Y-93508905D01*
X178344905Y-93562095D01*
X178282593Y-93596121D01*
X178255810Y-93599000D01*
X177090190Y-93599000D01*
X177022069Y-93578998D01*
X177001095Y-93562095D01*
X176947905Y-93508905D01*
X176913879Y-93446593D01*
X176911000Y-93419810D01*
X176911000Y-91440000D01*
X175895000Y-90424000D01*
X174244000Y-90424000D01*
X173659800Y-91008200D01*
X173659800Y-100573500D01*
X173639798Y-100641621D01*
X173586142Y-100688114D01*
X173533800Y-100699500D01*
X139426500Y-100699500D01*
X139358379Y-100679498D01*
X139311886Y-100625842D01*
X139300500Y-100573500D01*
X139300500Y-98332933D01*
X145325500Y-98332933D01*
X145325501Y-99883066D01*
X145340266Y-99957301D01*
X145396516Y-100041484D01*
X145480699Y-100097734D01*
X145554933Y-100112500D01*
X147279721Y-100112500D01*
X149005066Y-100112499D01*
X149040818Y-100105388D01*
X149067126Y-100100156D01*
X149067128Y-100100155D01*
X149079301Y-100097734D01*
X149089621Y-100090839D01*
X149089622Y-100090838D01*
X149153168Y-100048377D01*
X149163484Y-100041484D01*
X149219734Y-99957301D01*
X149234500Y-99883067D01*
X149234499Y-98332934D01*
X149219734Y-98258699D01*
X149163484Y-98174516D01*
X149079301Y-98118266D01*
X149005067Y-98103500D01*
X147280279Y-98103500D01*
X145554934Y-98103501D01*
X145519182Y-98110612D01*
X145492874Y-98115844D01*
X145492872Y-98115845D01*
X145480699Y-98118266D01*
X145470379Y-98125161D01*
X145470378Y-98125162D01*
X145409985Y-98165516D01*
X145396516Y-98174516D01*
X145340266Y-98258699D01*
X145325500Y-98332933D01*
X139300500Y-98332933D01*
X139300500Y-96520000D01*
X168604715Y-96520000D01*
X168623772Y-96664754D01*
X168626931Y-96672380D01*
X168661670Y-96756246D01*
X168679645Y-96799642D01*
X168701818Y-96828538D01*
X168760487Y-96904997D01*
X168768526Y-96915474D01*
X168775076Y-96920500D01*
X168775079Y-96920503D01*
X168877804Y-96999327D01*
X168884357Y-97004355D01*
X169019246Y-97060228D01*
X169164000Y-97079285D01*
X169172188Y-97078207D01*
X169300566Y-97061306D01*
X169308754Y-97060228D01*
X169443643Y-97004355D01*
X169513778Y-96950538D01*
X169579998Y-96924937D01*
X169590482Y-96924500D01*
X170498066Y-96924500D01*
X170507498Y-96921435D01*
X170507500Y-96921435D01*
X170519287Y-96917605D01*
X170538513Y-96912989D01*
X170550762Y-96911049D01*
X170560555Y-96909498D01*
X170580439Y-96899366D01*
X170598705Y-96891801D01*
X170610496Y-96887970D01*
X170619929Y-96884905D01*
X170637989Y-96871784D01*
X170654846Y-96861454D01*
X170674723Y-96851326D01*
X170697511Y-96828538D01*
X170697515Y-96828535D01*
X171758535Y-95767515D01*
X171758538Y-95767511D01*
X171781326Y-95744723D01*
X171791455Y-95724844D01*
X171801784Y-95707989D01*
X171809075Y-95697953D01*
X171814905Y-95689929D01*
X171821801Y-95668704D01*
X171829367Y-95650438D01*
X171834997Y-95639388D01*
X171839498Y-95630555D01*
X171842989Y-95608513D01*
X171847605Y-95589287D01*
X171851435Y-95577500D01*
X171851435Y-95577498D01*
X171854500Y-95568066D01*
X171854500Y-95041482D01*
X171874502Y-94973361D01*
X171880529Y-94964789D01*
X171934355Y-94894642D01*
X171990228Y-94759754D01*
X172009285Y-94615000D01*
X171990228Y-94470246D01*
X171934355Y-94335358D01*
X171858381Y-94236347D01*
X171850501Y-94226077D01*
X171850500Y-94226076D01*
X171845474Y-94219526D01*
X171838924Y-94214500D01*
X171838921Y-94214497D01*
X171736196Y-94135673D01*
X171736194Y-94135672D01*
X171729643Y-94130645D01*
X171594754Y-94074772D01*
X171450000Y-94055715D01*
X171441812Y-94056793D01*
X171313432Y-94073694D01*
X171313430Y-94073695D01*
X171305246Y-94074772D01*
X171257430Y-94094578D01*
X171177986Y-94127485D01*
X171177984Y-94127486D01*
X171170358Y-94130645D01*
X171054526Y-94219526D01*
X170965645Y-94335358D01*
X170909772Y-94470246D01*
X170890715Y-94615000D01*
X170909772Y-94759754D01*
X170965645Y-94894642D01*
X171019464Y-94964780D01*
X171045063Y-95030999D01*
X171045500Y-95041482D01*
X171045500Y-95284260D01*
X171025498Y-95352381D01*
X171008595Y-95373355D01*
X170303355Y-96078595D01*
X170241043Y-96112621D01*
X170214260Y-96115500D01*
X169590482Y-96115500D01*
X169522361Y-96095498D01*
X169513778Y-96089462D01*
X169450196Y-96040673D01*
X169450194Y-96040672D01*
X169443643Y-96035645D01*
X169308754Y-95979772D01*
X169164000Y-95960715D01*
X169155812Y-95961793D01*
X169027432Y-95978694D01*
X169027430Y-95978695D01*
X169019246Y-95979772D01*
X168971430Y-95999578D01*
X168891986Y-96032485D01*
X168891984Y-96032486D01*
X168884358Y-96035645D01*
X168768526Y-96124526D01*
X168679645Y-96240358D01*
X168623772Y-96375246D01*
X168604715Y-96520000D01*
X139300500Y-96520000D01*
X139300500Y-95405572D01*
X139320502Y-95337451D01*
X139374158Y-95290958D01*
X139444432Y-95280854D01*
X139509012Y-95310348D01*
X139539274Y-95352314D01*
X139540266Y-95357301D01*
X139596516Y-95441484D01*
X139680699Y-95497734D01*
X139754933Y-95512500D01*
X141529713Y-95512500D01*
X143305066Y-95512499D01*
X143340818Y-95505388D01*
X143367126Y-95500156D01*
X143367128Y-95500155D01*
X143379301Y-95497734D01*
X143389621Y-95490839D01*
X143389622Y-95490838D01*
X143453168Y-95448377D01*
X143463484Y-95441484D01*
X143519734Y-95357301D01*
X143534500Y-95283067D01*
X143534499Y-94232934D01*
X143519734Y-94158699D01*
X143504349Y-94135673D01*
X143470377Y-94084832D01*
X143463484Y-94074516D01*
X143379301Y-94018266D01*
X143305067Y-94003500D01*
X142210500Y-94003500D01*
X142142379Y-93983498D01*
X142095886Y-93929842D01*
X142084500Y-93877500D01*
X142084500Y-91669871D01*
X142095346Y-91632933D01*
X145325500Y-91632933D01*
X145325501Y-93183066D01*
X145340266Y-93257301D01*
X145347161Y-93267620D01*
X145347162Y-93267622D01*
X145387516Y-93328015D01*
X145396516Y-93341484D01*
X145480699Y-93397734D01*
X145554933Y-93412500D01*
X147279721Y-93412500D01*
X149005066Y-93412499D01*
X149040818Y-93405388D01*
X149067126Y-93400156D01*
X149067128Y-93400155D01*
X149079301Y-93397734D01*
X149089621Y-93390839D01*
X149089622Y-93390838D01*
X149153168Y-93348377D01*
X149163484Y-93341484D01*
X149219734Y-93257301D01*
X149234500Y-93183067D01*
X149234499Y-91632934D01*
X149219734Y-91558699D01*
X149163484Y-91474516D01*
X149079301Y-91418266D01*
X149005067Y-91403500D01*
X147280279Y-91403500D01*
X145554934Y-91403501D01*
X145519182Y-91410612D01*
X145492874Y-91415844D01*
X145492872Y-91415845D01*
X145480699Y-91418266D01*
X145470379Y-91425161D01*
X145470378Y-91425162D01*
X145455999Y-91434770D01*
X145396516Y-91474516D01*
X145340266Y-91558699D01*
X145325500Y-91632933D01*
X142095346Y-91632933D01*
X142104502Y-91601750D01*
X142121405Y-91580776D01*
X143494776Y-90207405D01*
X143557088Y-90173379D01*
X143583871Y-90170500D01*
X144178529Y-90170499D01*
X144209180Y-90170499D01*
X144228423Y-90168985D01*
X144238786Y-90168170D01*
X144238787Y-90168170D01*
X144245204Y-90167665D01*
X144251384Y-90165870D01*
X144251387Y-90165869D01*
X144391780Y-90125081D01*
X144391782Y-90125080D01*
X144399393Y-90122869D01*
X144537598Y-90041135D01*
X144651135Y-89927598D01*
X144732869Y-89789393D01*
X144735081Y-89781780D01*
X144775871Y-89641381D01*
X144775872Y-89641376D01*
X144777665Y-89635204D01*
X144780500Y-89599181D01*
X144780499Y-88718870D01*
X144800501Y-88650749D01*
X144854157Y-88604256D01*
X144924431Y-88594152D01*
X144989011Y-88623645D01*
X144995594Y-88629775D01*
X146536232Y-90170413D01*
X146539885Y-90174221D01*
X146570400Y-90207405D01*
X146582226Y-90220266D01*
X146589521Y-90224789D01*
X146589522Y-90224790D01*
X146619506Y-90243381D01*
X146629288Y-90250104D01*
X146645561Y-90262456D01*
X146664235Y-90276630D01*
X146672220Y-90279791D01*
X146672219Y-90279791D01*
X146678396Y-90282237D01*
X146698402Y-90292300D01*
X146704037Y-90295794D01*
X146704046Y-90295798D01*
X146711344Y-90300323D01*
X146719591Y-90302719D01*
X146753480Y-90312565D01*
X146764702Y-90316407D01*
X146805490Y-90332556D01*
X146819098Y-90333987D01*
X146820633Y-90334148D01*
X146842605Y-90338459D01*
X146857235Y-90342709D01*
X146868007Y-90343500D01*
X146903005Y-90343500D01*
X146916175Y-90344190D01*
X146930227Y-90345667D01*
X146948037Y-90347539D01*
X146956581Y-90348437D01*
X146975346Y-90345263D01*
X146996348Y-90343500D01*
X151455986Y-90343500D01*
X151524107Y-90363502D01*
X151572311Y-90421079D01*
X151574207Y-90425633D01*
X151579138Y-90437480D01*
X151582565Y-90442599D01*
X151582567Y-90442603D01*
X151660665Y-90559265D01*
X151692815Y-90607290D01*
X151837310Y-90751785D01*
X151842434Y-90755215D01*
X152001997Y-90862033D01*
X152002001Y-90862035D01*
X152007120Y-90865462D01*
X152012805Y-90867829D01*
X152012808Y-90867830D01*
X152185337Y-90939646D01*
X152195775Y-90943991D01*
X152201808Y-90945207D01*
X152201813Y-90945209D01*
X152322901Y-90969624D01*
X152396090Y-90984382D01*
X152400761Y-90984619D01*
X152400774Y-90984619D01*
X152402368Y-90984700D01*
X154226432Y-90984700D01*
X154228031Y-90984619D01*
X154228041Y-90984619D01*
X154228048Y-90984618D01*
X154232710Y-90984382D01*
X154305899Y-90969624D01*
X154426987Y-90945209D01*
X154426992Y-90945207D01*
X154433025Y-90943991D01*
X154443463Y-90939646D01*
X154615992Y-90867830D01*
X154615995Y-90867829D01*
X154621680Y-90865462D01*
X154626799Y-90862035D01*
X154626803Y-90862033D01*
X154711998Y-90805000D01*
X160883115Y-90805000D01*
X160902172Y-90949754D01*
X160905331Y-90957380D01*
X160933513Y-91025416D01*
X160958045Y-91084642D01*
X161046926Y-91200474D01*
X161053476Y-91205500D01*
X161053479Y-91205503D01*
X161151622Y-91280811D01*
X161162757Y-91289355D01*
X161297646Y-91345228D01*
X161442400Y-91364285D01*
X161450588Y-91363207D01*
X161578966Y-91346306D01*
X161587154Y-91345228D01*
X161722043Y-91289355D01*
X161767480Y-91254490D01*
X161792178Y-91235538D01*
X161858398Y-91209937D01*
X161868882Y-91209500D01*
X167801260Y-91209500D01*
X167869381Y-91229502D01*
X167890355Y-91246405D01*
X169338406Y-92694456D01*
X169372432Y-92756768D01*
X169374232Y-92767099D01*
X169385772Y-92854754D01*
X169441645Y-92989642D01*
X169530526Y-93105474D01*
X169537076Y-93110500D01*
X169537079Y-93110503D01*
X169639804Y-93189327D01*
X169646357Y-93194355D01*
X169763221Y-93242762D01*
X169768934Y-93245128D01*
X169781246Y-93250228D01*
X169926000Y-93269285D01*
X169934188Y-93268207D01*
X170062566Y-93251306D01*
X170070754Y-93250228D01*
X170083067Y-93245128D01*
X170088779Y-93242762D01*
X170205643Y-93194355D01*
X170212196Y-93189327D01*
X170314921Y-93110503D01*
X170314924Y-93110500D01*
X170321474Y-93105474D01*
X170410355Y-92989642D01*
X170466228Y-92854754D01*
X170485285Y-92710000D01*
X170466228Y-92565246D01*
X170410355Y-92430358D01*
X170321474Y-92314526D01*
X170314924Y-92309500D01*
X170314921Y-92309497D01*
X170212196Y-92230673D01*
X170212194Y-92230672D01*
X170205643Y-92225645D01*
X170070754Y-92169772D01*
X169983104Y-92158233D01*
X169918178Y-92129511D01*
X169910456Y-92122406D01*
X168284515Y-90496465D01*
X168284511Y-90496462D01*
X168261723Y-90473674D01*
X168241844Y-90463545D01*
X168224989Y-90453216D01*
X168214953Y-90445925D01*
X168206929Y-90440095D01*
X168185704Y-90433199D01*
X168167438Y-90425633D01*
X168164233Y-90424000D01*
X168147555Y-90415502D01*
X168125513Y-90412011D01*
X168106287Y-90407395D01*
X168094500Y-90403565D01*
X168094498Y-90403565D01*
X168085066Y-90400500D01*
X161868882Y-90400500D01*
X161800761Y-90380498D01*
X161792178Y-90374462D01*
X161728596Y-90325673D01*
X161728594Y-90325672D01*
X161722043Y-90320645D01*
X161587154Y-90264772D01*
X161442400Y-90245715D01*
X161434212Y-90246793D01*
X161305832Y-90263694D01*
X161305830Y-90263695D01*
X161297646Y-90264772D01*
X161281553Y-90271438D01*
X161170386Y-90317485D01*
X161170384Y-90317486D01*
X161162758Y-90320645D01*
X161132973Y-90343500D01*
X161054695Y-90403565D01*
X161046926Y-90409526D01*
X160958045Y-90525358D01*
X160902172Y-90660246D01*
X160883115Y-90805000D01*
X154711998Y-90805000D01*
X154786366Y-90755215D01*
X154791490Y-90751785D01*
X154935985Y-90607290D01*
X154968135Y-90559265D01*
X155046233Y-90442603D01*
X155046235Y-90442599D01*
X155049662Y-90437480D01*
X155054594Y-90425633D01*
X155125825Y-90254509D01*
X155128191Y-90248825D01*
X155129407Y-90242792D01*
X155129409Y-90242787D01*
X155167657Y-90053096D01*
X155168582Y-90048510D01*
X155168818Y-90043848D01*
X155168819Y-90043841D01*
X155168819Y-90043822D01*
X155168900Y-90042232D01*
X155168900Y-89106438D01*
X155188902Y-89038317D01*
X155228791Y-88999174D01*
X155232361Y-88996974D01*
X155243134Y-88991040D01*
X155264219Y-88980733D01*
X155274669Y-88975625D01*
X155282578Y-88967099D01*
X155285316Y-88965066D01*
X155287846Y-88962772D01*
X155297748Y-88956668D01*
X155304787Y-88947412D01*
X155304792Y-88947407D01*
X155319007Y-88928713D01*
X155326926Y-88919292D01*
X155342890Y-88902082D01*
X155350801Y-88893554D01*
X155355110Y-88882753D01*
X155356929Y-88879876D01*
X155358466Y-88876819D01*
X155365508Y-88867559D01*
X155375274Y-88833832D01*
X155379273Y-88822186D01*
X155392283Y-88789578D01*
X155392900Y-88783285D01*
X155392900Y-88780203D01*
X155393050Y-88777133D01*
X155393166Y-88777139D01*
X155393465Y-88771017D01*
X155396646Y-88760032D01*
X155393370Y-88722206D01*
X155392900Y-88711334D01*
X155392900Y-87877574D01*
X155393465Y-87866017D01*
X155396646Y-87855032D01*
X155393370Y-87817206D01*
X155392900Y-87806334D01*
X155392900Y-87797252D01*
X155391676Y-87790679D01*
X155390016Y-87778480D01*
X155387991Y-87755095D01*
X155387991Y-87755094D01*
X155386987Y-87743504D01*
X155381880Y-87733055D01*
X155380968Y-87729767D01*
X155379739Y-87726583D01*
X155377609Y-87715147D01*
X155359179Y-87685248D01*
X155353240Y-87674466D01*
X155342933Y-87653381D01*
X155337825Y-87642931D01*
X155329299Y-87635022D01*
X155327266Y-87632284D01*
X155324972Y-87629754D01*
X155318868Y-87619852D01*
X155309612Y-87612813D01*
X155309607Y-87612808D01*
X155290913Y-87598593D01*
X155281492Y-87590674D01*
X155264282Y-87574710D01*
X155264283Y-87574710D01*
X155255754Y-87566799D01*
X155244953Y-87562490D01*
X155242076Y-87560671D01*
X155239019Y-87559134D01*
X155229759Y-87552092D01*
X155196032Y-87542326D01*
X155184392Y-87538329D01*
X155151778Y-87525317D01*
X155145485Y-87524700D01*
X155142403Y-87524700D01*
X155139333Y-87524550D01*
X155139339Y-87524434D01*
X155133217Y-87524135D01*
X155122232Y-87520954D01*
X155084406Y-87524230D01*
X155073534Y-87524700D01*
X154779109Y-87524700D01*
X154709016Y-87503404D01*
X154705627Y-87501135D01*
X154621680Y-87444938D01*
X154615995Y-87442571D01*
X154615992Y-87442570D01*
X154486156Y-87388525D01*
X154430953Y-87343880D01*
X154408650Y-87276478D01*
X154426328Y-87207717D01*
X154478374Y-87159429D01*
X154534577Y-87146200D01*
X155150285Y-87146200D01*
X155165524Y-87141725D01*
X155166729Y-87140335D01*
X155168400Y-87132652D01*
X155168400Y-86514835D01*
X155168320Y-86511650D01*
X155168318Y-86511611D01*
X155167156Y-86502353D01*
X155128929Y-86312767D01*
X155125339Y-86301026D01*
X155051588Y-86123850D01*
X155045788Y-86113034D01*
X154939027Y-85953555D01*
X154931234Y-85944068D01*
X154795532Y-85808366D01*
X154786045Y-85800573D01*
X154626566Y-85693812D01*
X154615750Y-85688012D01*
X154438574Y-85614261D01*
X154426833Y-85610671D01*
X154237247Y-85572444D01*
X154227989Y-85571282D01*
X154227950Y-85571280D01*
X154224765Y-85571200D01*
X153586515Y-85571200D01*
X153571276Y-85575675D01*
X153570071Y-85577065D01*
X153568400Y-85584748D01*
X153568400Y-87128085D01*
X153579005Y-87164202D01*
X153579005Y-87235198D01*
X153540621Y-87294924D01*
X153476041Y-87324418D01*
X153458109Y-87325700D01*
X153174011Y-87325700D01*
X153105890Y-87305698D01*
X153059397Y-87252042D01*
X153049293Y-87181768D01*
X153053685Y-87172149D01*
X153051893Y-87171759D01*
X153060400Y-87132652D01*
X153060400Y-85589315D01*
X153055925Y-85574076D01*
X153054535Y-85572871D01*
X153046852Y-85571200D01*
X152404035Y-85571200D01*
X152400850Y-85571280D01*
X152400811Y-85571282D01*
X152391553Y-85572444D01*
X152201967Y-85610671D01*
X152190226Y-85614261D01*
X152013050Y-85688012D01*
X152002234Y-85693812D01*
X151842755Y-85800573D01*
X151833268Y-85808366D01*
X151697566Y-85944068D01*
X151689773Y-85953555D01*
X151583012Y-86113034D01*
X151577212Y-86123850D01*
X151503461Y-86301026D01*
X151499871Y-86312767D01*
X151461644Y-86502353D01*
X151460482Y-86511611D01*
X151460480Y-86511650D01*
X151460400Y-86514835D01*
X151460400Y-87128085D01*
X151464875Y-87143324D01*
X151466265Y-87144529D01*
X151473948Y-87146200D01*
X152094223Y-87146200D01*
X152162344Y-87166202D01*
X152208837Y-87219858D01*
X152218941Y-87290132D01*
X152189447Y-87354712D01*
X152142644Y-87388525D01*
X152012808Y-87442570D01*
X152012805Y-87442571D01*
X152007120Y-87444938D01*
X151923173Y-87501135D01*
X151919784Y-87503404D01*
X151849691Y-87524700D01*
X151588774Y-87524700D01*
X151577217Y-87524135D01*
X151566232Y-87520954D01*
X151528406Y-87524230D01*
X151517534Y-87524700D01*
X151508452Y-87524700D01*
X151502751Y-87525762D01*
X151502749Y-87525762D01*
X151501879Y-87525924D01*
X151489680Y-87527584D01*
X151466295Y-87529609D01*
X151466294Y-87529609D01*
X151454704Y-87530613D01*
X151444255Y-87535720D01*
X151440967Y-87536632D01*
X151437783Y-87537861D01*
X151426347Y-87539991D01*
X151406716Y-87552092D01*
X151396448Y-87558421D01*
X151385665Y-87564360D01*
X151354131Y-87579775D01*
X151346222Y-87588301D01*
X151343484Y-87590334D01*
X151340954Y-87592628D01*
X151331052Y-87598732D01*
X151324013Y-87607988D01*
X151324008Y-87607993D01*
X151309793Y-87626687D01*
X151301874Y-87636108D01*
X151277999Y-87661846D01*
X151273690Y-87672647D01*
X151271871Y-87675524D01*
X151270334Y-87678581D01*
X151263292Y-87687841D01*
X151260056Y-87699017D01*
X151253526Y-87721567D01*
X151249529Y-87733208D01*
X151236517Y-87765822D01*
X151235900Y-87772115D01*
X151235900Y-87775197D01*
X151235750Y-87778267D01*
X151235634Y-87778261D01*
X151235335Y-87784383D01*
X151232154Y-87795368D01*
X151233158Y-87806959D01*
X151235430Y-87833194D01*
X151235900Y-87844066D01*
X151235900Y-88677826D01*
X151235335Y-88689383D01*
X151232154Y-88700368D01*
X151234045Y-88722206D01*
X151235430Y-88738194D01*
X151235900Y-88749066D01*
X151235900Y-88758148D01*
X151236962Y-88763849D01*
X151236962Y-88763851D01*
X151237124Y-88764721D01*
X151238784Y-88776920D01*
X151238803Y-88777133D01*
X151241813Y-88811896D01*
X151246920Y-88822345D01*
X151247832Y-88825633D01*
X151249061Y-88828817D01*
X151251191Y-88840253D01*
X151261134Y-88856383D01*
X151269621Y-88870152D01*
X151275560Y-88880934D01*
X151290975Y-88912469D01*
X151299501Y-88920378D01*
X151301534Y-88923116D01*
X151303828Y-88925646D01*
X151309932Y-88935548D01*
X151319188Y-88942587D01*
X151319193Y-88942592D01*
X151337887Y-88956807D01*
X151347308Y-88964726D01*
X151373046Y-88988601D01*
X151383849Y-88992911D01*
X151386720Y-88994726D01*
X151389118Y-88995932D01*
X151390466Y-88997192D01*
X151391962Y-88998038D01*
X151392845Y-88998597D01*
X151393659Y-88999215D01*
X151393557Y-88999377D01*
X151397178Y-89001891D01*
X151399031Y-89003300D01*
X151398188Y-89004408D01*
X151440990Y-89044407D01*
X151458420Y-89113231D01*
X151435875Y-89180552D01*
X151380511Y-89224998D01*
X151332509Y-89234500D01*
X147220871Y-89234500D01*
X147152750Y-89214498D01*
X147131776Y-89197595D01*
X144817405Y-86883224D01*
X144783379Y-86820912D01*
X144780500Y-86794129D01*
X144780499Y-86171293D01*
X144780499Y-86168820D01*
X144777665Y-86132796D01*
X144732869Y-85978607D01*
X144651135Y-85840402D01*
X144537598Y-85726865D01*
X144399393Y-85645131D01*
X144391782Y-85642920D01*
X144391780Y-85642919D01*
X144251381Y-85602129D01*
X144251376Y-85602128D01*
X144245204Y-85600335D01*
X144223581Y-85598633D01*
X144211638Y-85597693D01*
X144211629Y-85597693D01*
X144209181Y-85597500D01*
X143764361Y-85597500D01*
X143318820Y-85597501D01*
X143299577Y-85599015D01*
X143289214Y-85599830D01*
X143289213Y-85599830D01*
X143282796Y-85600335D01*
X143276616Y-85602130D01*
X143276613Y-85602131D01*
X143136220Y-85642919D01*
X143136218Y-85642920D01*
X143128607Y-85645131D01*
X142990402Y-85726865D01*
X142876865Y-85840402D01*
X142795131Y-85978607D01*
X142792920Y-85986218D01*
X142792919Y-85986220D01*
X142752129Y-86126619D01*
X142752128Y-86126624D01*
X142750335Y-86132796D01*
X142749831Y-86139206D01*
X142747694Y-86166356D01*
X142747500Y-86168819D01*
X142747501Y-87059180D01*
X142750335Y-87095204D01*
X142752130Y-87101384D01*
X142752131Y-87101387D01*
X142775484Y-87181768D01*
X142795131Y-87249393D01*
X142799166Y-87256215D01*
X142799166Y-87256216D01*
X142840259Y-87325700D01*
X142876865Y-87387598D01*
X142990402Y-87501135D01*
X142997223Y-87505169D01*
X143087268Y-87558421D01*
X143128607Y-87582869D01*
X143136218Y-87585080D01*
X143136220Y-87585081D01*
X143276619Y-87625871D01*
X143276624Y-87625872D01*
X143282796Y-87627665D01*
X143304419Y-87629367D01*
X143316362Y-87630307D01*
X143316371Y-87630307D01*
X143318819Y-87630500D01*
X143349422Y-87630500D01*
X143944128Y-87630499D01*
X144012249Y-87650501D01*
X144033223Y-87667404D01*
X144288224Y-87922405D01*
X144322250Y-87984717D01*
X144317185Y-88055532D01*
X144274638Y-88112368D01*
X144208118Y-88137179D01*
X144199129Y-88137500D01*
X143494617Y-88137501D01*
X143318820Y-88137501D01*
X143299577Y-88139015D01*
X143289214Y-88139830D01*
X143289213Y-88139830D01*
X143282796Y-88140335D01*
X143276616Y-88142130D01*
X143276613Y-88142131D01*
X143136220Y-88182919D01*
X143136218Y-88182920D01*
X143128607Y-88185131D01*
X142990402Y-88266865D01*
X142876865Y-88380402D01*
X142795131Y-88518607D01*
X142792920Y-88526218D01*
X142792919Y-88526220D01*
X142752129Y-88666619D01*
X142752128Y-88666624D01*
X142750335Y-88672796D01*
X142747500Y-88708819D01*
X142747501Y-89044407D01*
X142747501Y-89334128D01*
X142727499Y-89402249D01*
X142710596Y-89423223D01*
X141148587Y-90985232D01*
X141144779Y-90988885D01*
X141098734Y-91031226D01*
X141094211Y-91038521D01*
X141094210Y-91038522D01*
X141075619Y-91068506D01*
X141068896Y-91078288D01*
X141042370Y-91113235D01*
X141039209Y-91121219D01*
X141036763Y-91127396D01*
X141026700Y-91147402D01*
X141023206Y-91153037D01*
X141023202Y-91153046D01*
X141018677Y-91160344D01*
X141016281Y-91168591D01*
X141006435Y-91202480D01*
X141002593Y-91213702D01*
X140986444Y-91254490D01*
X140985546Y-91263035D01*
X140984852Y-91269633D01*
X140980541Y-91291605D01*
X140976291Y-91306235D01*
X140975500Y-91317007D01*
X140975500Y-91352005D01*
X140974810Y-91365175D01*
X140970563Y-91405581D01*
X140973737Y-91424346D01*
X140975500Y-91445348D01*
X140975500Y-93877501D01*
X140955498Y-93945622D01*
X140901842Y-93992115D01*
X140849500Y-94003501D01*
X139754934Y-94003501D01*
X139719182Y-94010612D01*
X139692874Y-94015844D01*
X139692872Y-94015845D01*
X139680699Y-94018266D01*
X139670379Y-94025161D01*
X139670378Y-94025162D01*
X139624653Y-94055715D01*
X139596516Y-94074516D01*
X139540266Y-94158699D01*
X139539414Y-94162983D01*
X139498360Y-94213926D01*
X139430997Y-94236347D01*
X139362205Y-94218788D01*
X139313827Y-94166826D01*
X139300500Y-94110427D01*
X139300500Y-83628819D01*
X142747500Y-83628819D01*
X142747501Y-84519180D01*
X142750335Y-84555204D01*
X142795131Y-84709393D01*
X142876865Y-84847598D01*
X142990402Y-84961135D01*
X143128607Y-85042869D01*
X143136218Y-85045080D01*
X143136220Y-85045081D01*
X143276619Y-85085871D01*
X143276624Y-85085872D01*
X143282796Y-85087665D01*
X143304419Y-85089367D01*
X143316362Y-85090307D01*
X143316371Y-85090307D01*
X143318819Y-85090500D01*
X143763639Y-85090500D01*
X144209180Y-85090499D01*
X144228423Y-85088985D01*
X144238786Y-85088170D01*
X144238787Y-85088170D01*
X144245204Y-85087665D01*
X144251384Y-85085870D01*
X144251387Y-85085869D01*
X144391780Y-85045081D01*
X144391782Y-85045080D01*
X144399393Y-85042869D01*
X144537598Y-84961135D01*
X144651135Y-84847598D01*
X144732869Y-84709393D01*
X144775869Y-84561387D01*
X144775871Y-84561381D01*
X144775872Y-84561376D01*
X144777665Y-84555204D01*
X144779367Y-84533581D01*
X144780307Y-84521638D01*
X144780307Y-84521629D01*
X144780500Y-84519181D01*
X144780499Y-83628820D01*
X144777665Y-83592796D01*
X144732869Y-83438607D01*
X144651135Y-83300402D01*
X144537598Y-83186865D01*
X144399393Y-83105131D01*
X144391782Y-83102920D01*
X144391780Y-83102919D01*
X144251381Y-83062129D01*
X144251376Y-83062128D01*
X144245204Y-83060335D01*
X144223581Y-83058633D01*
X144211638Y-83057693D01*
X144211629Y-83057693D01*
X144209181Y-83057500D01*
X143764361Y-83057500D01*
X143318820Y-83057501D01*
X143299577Y-83059015D01*
X143289214Y-83059830D01*
X143289213Y-83059830D01*
X143282796Y-83060335D01*
X143276616Y-83062130D01*
X143276613Y-83062131D01*
X143136220Y-83102919D01*
X143136218Y-83102920D01*
X143128607Y-83105131D01*
X142990402Y-83186865D01*
X142876865Y-83300402D01*
X142795131Y-83438607D01*
X142792920Y-83446218D01*
X142792919Y-83446220D01*
X142752129Y-83586619D01*
X142752128Y-83586624D01*
X142750335Y-83592796D01*
X142749831Y-83599206D01*
X142747694Y-83626356D01*
X142747500Y-83628819D01*
X139300500Y-83628819D01*
X139300500Y-77426500D01*
X139320502Y-77358379D01*
X139374158Y-77311886D01*
X139426500Y-77300500D01*
X178309000Y-77300500D01*
X178377121Y-77320502D01*
G37*
G04 #@! TD.AperFunction*
M02*
