G04 #@! TF.GenerationSoftware,KiCad,Pcbnew,(6.0.7)*
G04 #@! TF.CreationDate,2022-10-10T16:00:36+09:00*
G04 #@! TF.ProjectId,MainBoard,4d61696e-426f-4617-9264-2e6b69636164,rev?*
G04 #@! TF.SameCoordinates,Original*
G04 #@! TF.FileFunction,Copper,L1,Top*
G04 #@! TF.FilePolarity,Positive*
%FSLAX46Y46*%
G04 Gerber Fmt 4.6, Leading zero omitted, Abs format (unit mm)*
G04 Created by KiCad (PCBNEW (6.0.7)) date 2022-10-10 16:00:36*
%MOMM*%
%LPD*%
G01*
G04 APERTURE LIST*
G04 Aperture macros list*
%AMRoundRect*
0 Rectangle with rounded corners*
0 $1 Rounding radius*
0 $2 $3 $4 $5 $6 $7 $8 $9 X,Y pos of 4 corners*
0 Add a 4 corners polygon primitive as box body*
4,1,4,$2,$3,$4,$5,$6,$7,$8,$9,$2,$3,0*
0 Add four circle primitives for the rounded corners*
1,1,$1+$1,$2,$3*
1,1,$1+$1,$4,$5*
1,1,$1+$1,$6,$7*
1,1,$1+$1,$8,$9*
0 Add four rect primitives between the rounded corners*
20,1,$1+$1,$2,$3,$4,$5,0*
20,1,$1+$1,$4,$5,$6,$7,0*
20,1,$1+$1,$6,$7,$8,$9,0*
20,1,$1+$1,$8,$9,$2,$3,0*%
G04 Aperture macros list end*
G04 #@! TA.AperFunction,SMDPad,CuDef*
%ADD10RoundRect,0.250000X0.750000X-0.250000X0.750000X0.250000X-0.750000X0.250000X-0.750000X-0.250000X0*%
G04 #@! TD*
G04 #@! TA.AperFunction,SMDPad,CuDef*
%ADD11RoundRect,0.237500X-0.237500X0.300000X-0.237500X-0.300000X0.237500X-0.300000X0.237500X0.300000X0*%
G04 #@! TD*
G04 #@! TA.AperFunction,ComponentPad*
%ADD12RoundRect,0.381000X0.381000X-0.381000X0.381000X0.381000X-0.381000X0.381000X-0.381000X-0.381000X0*%
G04 #@! TD*
G04 #@! TA.AperFunction,SMDPad,CuDef*
%ADD13R,2.000000X2.000000*%
G04 #@! TD*
G04 #@! TA.AperFunction,SMDPad,CuDef*
%ADD14R,2.600000X1.900000*%
G04 #@! TD*
G04 #@! TA.AperFunction,SMDPad,CuDef*
%ADD15RoundRect,0.237500X0.250000X0.237500X-0.250000X0.237500X-0.250000X-0.237500X0.250000X-0.237500X0*%
G04 #@! TD*
G04 #@! TA.AperFunction,SMDPad,CuDef*
%ADD16RoundRect,0.237500X-0.237500X0.250000X-0.237500X-0.250000X0.237500X-0.250000X0.237500X0.250000X0*%
G04 #@! TD*
G04 #@! TA.AperFunction,SMDPad,CuDef*
%ADD17RoundRect,0.237500X-0.300000X-0.237500X0.300000X-0.237500X0.300000X0.237500X-0.300000X0.237500X0*%
G04 #@! TD*
G04 #@! TA.AperFunction,SMDPad,CuDef*
%ADD18O,0.449999X1.400000*%
G04 #@! TD*
G04 #@! TA.AperFunction,CastellatedPad*
%ADD19RoundRect,0.787500X-0.812500X-0.787500X0.812500X-0.787500X0.812500X0.787500X-0.812500X0.787500X0*%
G04 #@! TD*
G04 #@! TA.AperFunction,SMDPad,CuDef*
%ADD20RoundRect,0.237500X-0.250000X-0.237500X0.250000X-0.237500X0.250000X0.237500X-0.250000X0.237500X0*%
G04 #@! TD*
G04 #@! TA.AperFunction,SMDPad,CuDef*
%ADD21RoundRect,0.237500X0.237500X-0.300000X0.237500X0.300000X-0.237500X0.300000X-0.237500X-0.300000X0*%
G04 #@! TD*
G04 #@! TA.AperFunction,SMDPad,CuDef*
%ADD22O,2.748280X1.998980*%
G04 #@! TD*
G04 #@! TA.AperFunction,SMDPad,CuDef*
%ADD23RoundRect,0.237500X0.300000X0.237500X-0.300000X0.237500X-0.300000X-0.237500X0.300000X-0.237500X0*%
G04 #@! TD*
G04 #@! TA.AperFunction,SMDPad,CuDef*
%ADD24RoundRect,0.237500X0.237500X-0.250000X0.237500X0.250000X-0.237500X0.250000X-0.237500X-0.250000X0*%
G04 #@! TD*
G04 #@! TA.AperFunction,ViaPad*
%ADD25C,0.600000*%
G04 #@! TD*
G04 #@! TA.AperFunction,Conductor*
%ADD26C,0.300000*%
G04 #@! TD*
G04 #@! TA.AperFunction,Conductor*
%ADD27C,0.400000*%
G04 #@! TD*
G04 APERTURE END LIST*
D10*
X186436000Y-99314000D03*
X186436000Y-97536000D03*
D11*
X190627000Y-89688500D03*
X190627000Y-91413500D03*
D10*
X186436000Y-95707200D03*
X189230000Y-95707200D03*
D11*
X179070000Y-95784500D03*
X179070000Y-97509500D03*
D10*
X186436000Y-93980000D03*
D12*
X143764000Y-89154000D03*
X143764000Y-86614000D03*
X143764000Y-84074000D03*
D13*
X140764000Y-97155000D03*
X146764000Y-97155000D03*
D14*
X170083000Y-81026000D03*
X170083000Y-84836000D03*
X170083000Y-88646000D03*
X187383000Y-88646000D03*
X187383000Y-86106000D03*
X187383000Y-83566000D03*
X187383000Y-81026000D03*
D15*
X184300500Y-97536000D03*
X182475500Y-97536000D03*
D16*
X169926000Y-93829500D03*
X169926000Y-95654500D03*
X168402000Y-97385500D03*
X168402000Y-99210500D03*
D10*
X189230000Y-93980000D03*
D11*
X177546000Y-95784500D03*
X177546000Y-97509500D03*
D17*
X182525500Y-99314000D03*
X184250500Y-99314000D03*
D18*
X171461001Y-99215999D03*
X172111002Y-99215999D03*
X172761001Y-99215999D03*
X173411002Y-99215999D03*
X174061001Y-99215999D03*
X174711002Y-99215999D03*
X175361001Y-99215999D03*
X176011002Y-99215999D03*
X176011002Y-93315998D03*
X175361001Y-93315998D03*
X174711002Y-93315998D03*
X174061001Y-93315998D03*
X173411002Y-93315998D03*
X172761001Y-93315998D03*
X172111002Y-93315998D03*
X171461001Y-93315998D03*
D19*
X153314400Y-87400200D03*
D11*
X180848000Y-95784500D03*
X180848000Y-97509500D03*
D20*
X145772500Y-78613000D03*
X147597500Y-78613000D03*
D19*
X153314400Y-89155200D03*
D21*
X190627000Y-83158500D03*
X190627000Y-81433500D03*
D10*
X189230000Y-97536000D03*
D15*
X184300500Y-95758000D03*
X182475500Y-95758000D03*
D22*
X149698710Y-81900490D03*
X149698710Y-84440490D03*
X149698710Y-86980490D03*
X149698710Y-89520490D03*
X149698710Y-92060490D03*
X149698710Y-94600490D03*
X149698710Y-97140490D03*
X165863270Y-97140490D03*
X165863270Y-94600490D03*
X165863270Y-92060490D03*
X165863270Y-89520490D03*
X165863270Y-86980490D03*
X165863270Y-84440490D03*
X165863270Y-81900490D03*
D23*
X179551500Y-93091000D03*
X177826500Y-93091000D03*
D24*
X168402000Y-95654500D03*
X168402000Y-93829500D03*
D11*
X169926000Y-97435500D03*
X169926000Y-99160500D03*
X167487600Y-78131500D03*
X167487600Y-79856500D03*
D20*
X141835500Y-78613000D03*
X143660500Y-78613000D03*
D10*
X189230000Y-99314000D03*
D17*
X163983500Y-78232000D03*
X165708500Y-78232000D03*
D23*
X184250500Y-93980000D03*
X182525500Y-93980000D03*
D25*
X183388000Y-96647000D03*
X163957000Y-88265000D03*
X161442400Y-90805000D03*
X156083000Y-87249000D03*
X151638000Y-85344000D03*
X144526000Y-96901000D03*
X144526000Y-95250000D03*
X144526000Y-93599000D03*
X144526000Y-98552000D03*
X144526000Y-100203000D03*
X142367000Y-98806000D03*
X140208000Y-100203000D03*
X142367000Y-100203000D03*
X140208000Y-98806000D03*
X143256000Y-91440000D03*
X144780000Y-91440000D03*
X147320000Y-87884000D03*
X147320000Y-85598000D03*
X147320000Y-83312000D03*
X145542000Y-83312000D03*
X145542000Y-85598000D03*
X143764000Y-81915000D03*
X143764000Y-80010000D03*
X140208000Y-92964000D03*
X140208000Y-90932000D03*
X141732000Y-86360000D03*
X141732000Y-88900000D03*
X140208000Y-80010000D03*
X140208000Y-83820000D03*
X140208000Y-86360000D03*
X140208000Y-88900000D03*
X140208000Y-81915000D03*
X163957000Y-80010000D03*
X166116000Y-80010000D03*
X167894000Y-81280000D03*
X163957000Y-85598000D03*
X163957000Y-83312000D03*
X148717000Y-79756000D03*
X150368000Y-79756000D03*
X147066000Y-79756000D03*
X150368000Y-78232000D03*
X160274000Y-78232000D03*
X155194000Y-78232000D03*
X157734000Y-78232000D03*
X162560000Y-78232000D03*
X152654000Y-78232000D03*
X151638000Y-83185000D03*
X158750000Y-86106000D03*
X162052000Y-89408000D03*
X160401000Y-87757000D03*
X159385000Y-90805000D03*
X156083000Y-90805000D03*
X157734000Y-90805000D03*
X157734000Y-89027000D03*
X156083000Y-89027000D03*
X157734000Y-97663000D03*
X155194000Y-97663000D03*
X160274000Y-95123000D03*
X155194000Y-95123000D03*
X157734000Y-95123000D03*
X162814000Y-95123000D03*
X152654000Y-95123000D03*
X157734000Y-92583000D03*
X160274000Y-92583000D03*
X162814000Y-92583000D03*
X152654000Y-92583000D03*
X155194000Y-92583000D03*
X167487600Y-98298000D03*
X149860000Y-98933000D03*
X149860000Y-100203000D03*
X152273000Y-98425000D03*
X152273000Y-100203000D03*
X155194000Y-100203000D03*
X157734000Y-100203000D03*
X165100000Y-100203000D03*
X167386000Y-100203000D03*
X191008000Y-93853000D03*
X169291000Y-100203000D03*
X170561000Y-100203000D03*
X173228000Y-97663000D03*
X173228000Y-96520000D03*
X176784000Y-99949000D03*
X178181000Y-99949000D03*
X179578000Y-99949000D03*
X180975000Y-99949000D03*
X185115200Y-100203000D03*
X185166000Y-78740000D03*
X191008000Y-100203000D03*
X189738000Y-78740000D03*
X180594000Y-85598000D03*
X182880000Y-85598000D03*
X182880000Y-81026000D03*
X182880000Y-83312000D03*
X185089800Y-94742000D03*
X179705000Y-90678000D03*
X182880000Y-90678000D03*
X187198000Y-90424000D03*
X182880000Y-78740000D03*
X174498000Y-96901000D03*
X188976000Y-90424000D03*
X180594000Y-78740000D03*
X179705000Y-92075000D03*
X181102000Y-90678000D03*
X174599600Y-91084400D03*
X185115200Y-98552000D03*
X175564800Y-91084400D03*
X176530000Y-96901000D03*
X190119000Y-84582000D03*
X187833000Y-100203000D03*
X182880000Y-89027000D03*
X181102000Y-92075000D03*
X180594000Y-81026000D03*
X175514000Y-96901000D03*
X180594000Y-83312000D03*
X187756800Y-98501200D03*
X187452000Y-78740000D03*
X190119000Y-88138000D03*
X187833000Y-96621600D03*
X190119000Y-86360000D03*
X185115200Y-93218000D03*
X182880000Y-87249000D03*
X169164000Y-83185000D03*
X175006000Y-89662000D03*
X172720000Y-83312000D03*
X172720000Y-78740000D03*
X177673000Y-90678000D03*
X172720000Y-85598000D03*
X175006000Y-81026000D03*
X175006000Y-87630000D03*
X177673000Y-92075000D03*
X177292000Y-83312000D03*
X175006000Y-78740000D03*
X177292000Y-81026000D03*
X169164000Y-78486000D03*
X177292000Y-85598000D03*
X175006000Y-85598000D03*
X170942000Y-83185000D03*
X172720000Y-81026000D03*
X170942000Y-78486000D03*
X175006000Y-83312000D03*
X177292000Y-78740000D03*
X168325800Y-86029800D03*
X171450000Y-94615000D03*
X169164000Y-96520000D03*
X169926000Y-92710000D03*
D26*
X155077890Y-84440490D02*
X161442400Y-90805000D01*
D27*
X175159500Y-95784500D02*
X177546000Y-95784500D01*
X189230000Y-93980000D02*
X189611000Y-93980000D01*
X189230000Y-93980000D02*
X189865000Y-93980000D01*
X174061001Y-92435799D02*
X174061001Y-93315998D01*
X188722000Y-93980000D02*
X189230000Y-93980000D01*
X189738000Y-99314000D02*
X189230000Y-99314000D01*
X177546000Y-95784500D02*
X179070000Y-95784500D01*
X175514000Y-91948000D02*
X174548800Y-91948000D01*
X180594000Y-94107000D02*
X182372000Y-92329000D01*
X174061001Y-94686001D02*
X175159500Y-95784500D01*
X187383000Y-81026000D02*
X186817000Y-81026000D01*
X176011002Y-93715002D02*
X176403000Y-94107000D01*
X176011002Y-92445002D02*
X175514000Y-91948000D01*
X176403000Y-94107000D02*
X180594000Y-94107000D01*
X190754000Y-94869000D02*
X190754000Y-98298000D01*
X176011002Y-93315998D02*
X176011002Y-93715002D01*
X190627000Y-81433500D02*
X187790500Y-81433500D01*
X189611000Y-93980000D02*
X190627000Y-92964000D01*
X174061001Y-93315998D02*
X174061001Y-94686001D01*
X185039000Y-90043000D02*
X186409500Y-91413500D01*
X176011002Y-93315998D02*
X176011002Y-92445002D01*
X187071000Y-92329000D02*
X188722000Y-93980000D01*
X190754000Y-98298000D02*
X189738000Y-99314000D01*
X187790500Y-81433500D02*
X187383000Y-81026000D01*
X190627000Y-92964000D02*
X190627000Y-91413500D01*
X182372000Y-92329000D02*
X187071000Y-92329000D01*
X189865000Y-93980000D02*
X190754000Y-94869000D01*
X185039000Y-82804000D02*
X185039000Y-90043000D01*
X186817000Y-81026000D02*
X185039000Y-82804000D01*
X186409500Y-91413500D02*
X190627000Y-91413500D01*
X174548800Y-91948000D02*
X174061001Y-92435799D01*
X173411002Y-88448002D02*
X173411002Y-93315998D01*
X168502500Y-79856500D02*
X169672000Y-81026000D01*
X167487600Y-79856500D02*
X168502500Y-79856500D01*
X170561000Y-98044000D02*
X172339000Y-98044000D01*
X170561000Y-98044000D02*
X169952500Y-97435500D01*
X169799000Y-81026000D02*
X170083000Y-81026000D01*
X168021000Y-82804000D02*
X169799000Y-81026000D01*
X165708500Y-78232000D02*
X165863100Y-78232000D01*
X169672000Y-81026000D02*
X170083000Y-81026000D01*
X169926000Y-97435500D02*
X169926000Y-97409000D01*
X166003510Y-86980490D02*
X168021000Y-84963000D01*
X169952500Y-97435500D02*
X169926000Y-97435500D01*
X169926000Y-97409000D02*
X170688000Y-96647000D01*
X170688000Y-96647000D02*
X171831000Y-96647000D01*
X171831000Y-96647000D02*
X173411002Y-95066998D01*
X165863100Y-78232000D02*
X167487600Y-79856500D01*
X172339000Y-98044000D02*
X172761001Y-98466001D01*
X172761001Y-98466001D02*
X172761001Y-99215999D01*
X173411002Y-95066998D02*
X173411002Y-93315998D01*
X165863270Y-86980490D02*
X171943490Y-86980490D01*
X168021000Y-84963000D02*
X168021000Y-82804000D01*
X171943490Y-86980490D02*
X173411002Y-88448002D01*
X165863270Y-86980490D02*
X166003510Y-86980490D01*
D26*
X186436000Y-95707200D02*
X189230000Y-95707200D01*
X184300500Y-95758000D02*
X186385200Y-95758000D01*
X186385200Y-95758000D02*
X186436000Y-95707200D01*
X184300500Y-97536000D02*
X186436000Y-97536000D01*
X186436000Y-97536000D02*
X189230000Y-97536000D01*
D27*
X141835500Y-84685500D02*
X143764000Y-86614000D01*
X141835500Y-78613000D02*
X141835500Y-84685500D01*
D26*
X171461001Y-93315998D02*
X171461001Y-94603999D01*
X171461001Y-94603999D02*
X171450000Y-94615000D01*
X168402000Y-97385500D02*
X168402000Y-97282000D01*
X168402000Y-97282000D02*
X169164000Y-96520000D01*
X154684100Y-99210500D02*
X168402000Y-99210500D01*
X149698710Y-97140490D02*
X152614090Y-97140490D01*
X152614090Y-97140490D02*
X154684100Y-99210500D01*
X167692700Y-95654500D02*
X166206710Y-97140490D01*
X166206710Y-97140490D02*
X165863270Y-97140490D01*
X168402000Y-95654500D02*
X167692700Y-95654500D01*
X169291000Y-91694000D02*
X168402000Y-92583000D01*
X168402000Y-92583000D02*
X168402000Y-93829500D01*
X172111002Y-92228002D02*
X171577000Y-91694000D01*
X171577000Y-91694000D02*
X169291000Y-91694000D01*
X172111002Y-93315998D02*
X172111002Y-92228002D01*
X172761001Y-94700999D02*
X171807500Y-95654500D01*
X172761001Y-93315998D02*
X172761001Y-94700999D01*
X171807500Y-95654500D02*
X169926000Y-95654500D01*
D27*
X145772500Y-80240500D02*
X145772500Y-78613000D01*
X149698710Y-81900490D02*
X147432490Y-81900490D01*
X143660500Y-78613000D02*
X145772500Y-78613000D01*
X147432490Y-81900490D02*
X145772500Y-80240500D01*
D26*
X169926000Y-93829500D02*
X169926000Y-92710000D01*
X149698710Y-84440490D02*
X155077890Y-84440490D01*
X175361001Y-93315998D02*
X175361001Y-94208001D01*
X182449000Y-95784500D02*
X182475500Y-95758000D01*
X182475500Y-94030000D02*
X182525500Y-93980000D01*
X182475500Y-95758000D02*
X182475500Y-94030000D01*
X175361001Y-94208001D02*
X175895000Y-94742000D01*
X179805500Y-94742000D02*
X180848000Y-95784500D01*
X180848000Y-95784500D02*
X182449000Y-95784500D01*
X175895000Y-94742000D02*
X179805500Y-94742000D01*
X175361001Y-99215999D02*
X175361001Y-98349399D01*
X175361001Y-98349399D02*
X175768000Y-97942400D01*
X179551500Y-98806000D02*
X180848000Y-97509500D01*
X182475500Y-99264000D02*
X182525500Y-99314000D01*
X180848000Y-97509500D02*
X182449000Y-97509500D01*
X176428400Y-97942400D02*
X177292000Y-98806000D01*
X177292000Y-98806000D02*
X179551500Y-98806000D01*
X182475500Y-97536000D02*
X182475500Y-99264000D01*
X175768000Y-97942400D02*
X176428400Y-97942400D01*
X182449000Y-97509500D02*
X182475500Y-97536000D01*
D27*
X146764000Y-92123000D02*
X146764000Y-97155000D01*
X149698710Y-89520490D02*
X149366510Y-89520490D01*
X149366510Y-89520490D02*
X146764000Y-92123000D01*
G04 #@! TA.AperFunction,Conductor*
G36*
X191641621Y-77320502D02*
G01*
X191688114Y-77374158D01*
X191699500Y-77426500D01*
X191699500Y-100573500D01*
X191679498Y-100641621D01*
X191625842Y-100688114D01*
X191573500Y-100699500D01*
X173938200Y-100699500D01*
X173870079Y-100679498D01*
X173823586Y-100625842D01*
X173812200Y-100573500D01*
X173812200Y-99992934D01*
X173824145Y-99939385D01*
X173834550Y-99917224D01*
X173874265Y-99832634D01*
X173875645Y-99823772D01*
X173875646Y-99823768D01*
X173889753Y-99733160D01*
X173890501Y-99728357D01*
X173890501Y-98706567D01*
X173880093Y-98633894D01*
X173877233Y-98613922D01*
X173877233Y-98613920D01*
X173875960Y-98605035D01*
X173855425Y-98559869D01*
X173823499Y-98489652D01*
X173812200Y-98437501D01*
X173812200Y-95384150D01*
X173832202Y-95316029D01*
X173885858Y-95269536D01*
X173956132Y-95259432D01*
X174020712Y-95288926D01*
X174027295Y-95295055D01*
X174813751Y-96081511D01*
X174823606Y-96092600D01*
X174844859Y-96119559D01*
X174852606Y-96124913D01*
X174852610Y-96124917D01*
X174893572Y-96153228D01*
X174896792Y-96155529D01*
X174936842Y-96185110D01*
X174936844Y-96185111D01*
X174944423Y-96190709D01*
X174951298Y-96193123D01*
X174957289Y-96197264D01*
X174966269Y-96200104D01*
X175013755Y-96215122D01*
X175017508Y-96216374D01*
X175073374Y-96235992D01*
X175080574Y-96236275D01*
X175080748Y-96236309D01*
X175087597Y-96238475D01*
X175094268Y-96239000D01*
X175147449Y-96239000D01*
X175152395Y-96239097D01*
X175209937Y-96241358D01*
X175217092Y-96239461D01*
X175225467Y-96239000D01*
X176753614Y-96239000D01*
X176821735Y-96259002D01*
X176863832Y-96307584D01*
X176865045Y-96306920D01*
X176868115Y-96312528D01*
X176868228Y-96312658D01*
X176868358Y-96312972D01*
X176869356Y-96314795D01*
X176872507Y-96323199D01*
X176957026Y-96435974D01*
X177069801Y-96520493D01*
X177078202Y-96523643D01*
X177078205Y-96523644D01*
X177111995Y-96536311D01*
X177201764Y-96569964D01*
X177261930Y-96576500D01*
X177830070Y-96576500D01*
X177890236Y-96569964D01*
X177980005Y-96536311D01*
X178013795Y-96523644D01*
X178013798Y-96523643D01*
X178022199Y-96520493D01*
X178134974Y-96435974D01*
X178162767Y-96398889D01*
X178207173Y-96339638D01*
X178264032Y-96297122D01*
X178334851Y-96292096D01*
X178397144Y-96326156D01*
X178408827Y-96339638D01*
X178453233Y-96398889D01*
X178481026Y-96435974D01*
X178593801Y-96520493D01*
X178602202Y-96523643D01*
X178602205Y-96523644D01*
X178635995Y-96536311D01*
X178725764Y-96569964D01*
X178785930Y-96576500D01*
X179354070Y-96576500D01*
X179414236Y-96569964D01*
X179504005Y-96536311D01*
X179537795Y-96523644D01*
X179537798Y-96523643D01*
X179546199Y-96520493D01*
X179658974Y-96435974D01*
X179743493Y-96323199D01*
X179747494Y-96312528D01*
X179788942Y-96201964D01*
X179792964Y-96191236D01*
X179799500Y-96131070D01*
X179799500Y-95612240D01*
X179819502Y-95544119D01*
X179873158Y-95497626D01*
X179943432Y-95487522D01*
X180008012Y-95517016D01*
X180014595Y-95523145D01*
X180081595Y-95590145D01*
X180115621Y-95652457D01*
X180118500Y-95679240D01*
X180118500Y-96131070D01*
X180125036Y-96191236D01*
X180129058Y-96201964D01*
X180170507Y-96312528D01*
X180174507Y-96323199D01*
X180259026Y-96435974D01*
X180371801Y-96520493D01*
X180380202Y-96523643D01*
X180380205Y-96523644D01*
X180394541Y-96529018D01*
X180451306Y-96571660D01*
X180476005Y-96638222D01*
X180460797Y-96707571D01*
X180410511Y-96757689D01*
X180394541Y-96764982D01*
X180380205Y-96770356D01*
X180380202Y-96770357D01*
X180371801Y-96773507D01*
X180259026Y-96858026D01*
X180174507Y-96970801D01*
X180171357Y-96979202D01*
X180171356Y-96979205D01*
X180156493Y-97018852D01*
X180125036Y-97102764D01*
X180118500Y-97162930D01*
X180118500Y-97614760D01*
X180098498Y-97682881D01*
X180081595Y-97703855D01*
X179420855Y-98364595D01*
X179358543Y-98398621D01*
X179331760Y-98401500D01*
X177511740Y-98401500D01*
X177443619Y-98381498D01*
X177422645Y-98364595D01*
X176691915Y-97633865D01*
X176691911Y-97633862D01*
X176669123Y-97611074D01*
X176649244Y-97600945D01*
X176632389Y-97590616D01*
X176622353Y-97583325D01*
X176614329Y-97577495D01*
X176593104Y-97570599D01*
X176574838Y-97563033D01*
X176574832Y-97563030D01*
X176554955Y-97552902D01*
X176532913Y-97549411D01*
X176513687Y-97544795D01*
X176501900Y-97540965D01*
X176501898Y-97540965D01*
X176492466Y-97537900D01*
X175703934Y-97537900D01*
X175694502Y-97540965D01*
X175694500Y-97540965D01*
X175682713Y-97544795D01*
X175663487Y-97549411D01*
X175641445Y-97552902D01*
X175632609Y-97557404D01*
X175632607Y-97557405D01*
X175621568Y-97563030D01*
X175603300Y-97570597D01*
X175591506Y-97574429D01*
X175591501Y-97574431D01*
X175582072Y-97577495D01*
X175574052Y-97583322D01*
X175574050Y-97583323D01*
X175564017Y-97590613D01*
X175547158Y-97600944D01*
X175527277Y-97611074D01*
X175504486Y-97633865D01*
X175052466Y-98085884D01*
X175052463Y-98085888D01*
X175029675Y-98108676D01*
X175019547Y-98128553D01*
X175009217Y-98145410D01*
X174996096Y-98163470D01*
X174993031Y-98172903D01*
X174989200Y-98184694D01*
X174981634Y-98202961D01*
X174978306Y-98209493D01*
X174976962Y-98212130D01*
X174928213Y-98263744D01*
X174859298Y-98280809D01*
X174828597Y-98275643D01*
X174782605Y-98261889D01*
X174773629Y-98261834D01*
X174773628Y-98261834D01*
X174716082Y-98261483D01*
X174645257Y-98261050D01*
X174513194Y-98298794D01*
X174397033Y-98372086D01*
X174391090Y-98378815D01*
X174391089Y-98378816D01*
X174341971Y-98434432D01*
X174306112Y-98475035D01*
X174247739Y-98599364D01*
X174246359Y-98608226D01*
X174246358Y-98608230D01*
X174241647Y-98638490D01*
X174231503Y-98703641D01*
X174231503Y-99725431D01*
X174232139Y-99729869D01*
X174243438Y-99808764D01*
X174246044Y-99826963D01*
X174302893Y-99951997D01*
X174392550Y-100056049D01*
X174507807Y-100130755D01*
X174639399Y-100170109D01*
X174648375Y-100170164D01*
X174648376Y-100170164D01*
X174705922Y-100170515D01*
X174776747Y-100170948D01*
X174908810Y-100133204D01*
X174968749Y-100095385D01*
X175037035Y-100075951D01*
X175104515Y-100096213D01*
X175157806Y-100130755D01*
X175289398Y-100170109D01*
X175298374Y-100170164D01*
X175298375Y-100170164D01*
X175355921Y-100170515D01*
X175426746Y-100170948D01*
X175558809Y-100133204D01*
X175566400Y-100128415D01*
X175661359Y-100068500D01*
X175674970Y-100059912D01*
X175689791Y-100043131D01*
X175759948Y-99963692D01*
X175765891Y-99956963D01*
X175824264Y-99832634D01*
X175825644Y-99823772D01*
X175825645Y-99823768D01*
X175839752Y-99733160D01*
X175840500Y-99728357D01*
X175840500Y-98706567D01*
X175830092Y-98633894D01*
X175827232Y-98613922D01*
X175827232Y-98613920D01*
X175825959Y-98605035D01*
X175815675Y-98582416D01*
X175805687Y-98512126D01*
X175835287Y-98447594D01*
X175841280Y-98441169D01*
X175898644Y-98383805D01*
X175960956Y-98349779D01*
X175987739Y-98346900D01*
X176208660Y-98346900D01*
X176276781Y-98366902D01*
X176297755Y-98383805D01*
X177028485Y-99114535D01*
X177028489Y-99114538D01*
X177051277Y-99137326D01*
X177071154Y-99147454D01*
X177088011Y-99157784D01*
X177106071Y-99170905D01*
X177115504Y-99173970D01*
X177127295Y-99177801D01*
X177145561Y-99185366D01*
X177165445Y-99195498D01*
X177175238Y-99197049D01*
X177187487Y-99198989D01*
X177206713Y-99203605D01*
X177218500Y-99207435D01*
X177218502Y-99207435D01*
X177227934Y-99210500D01*
X179615566Y-99210500D01*
X179624998Y-99207435D01*
X179625000Y-99207435D01*
X179636787Y-99203605D01*
X179656013Y-99198989D01*
X179668262Y-99197049D01*
X179678055Y-99195498D01*
X179697939Y-99185366D01*
X179716205Y-99177801D01*
X179727996Y-99173970D01*
X179737429Y-99170905D01*
X179755489Y-99157784D01*
X179772346Y-99147454D01*
X179792223Y-99137326D01*
X179815011Y-99114538D01*
X179815015Y-99114535D01*
X180591145Y-98338405D01*
X180653457Y-98304379D01*
X180680240Y-98301500D01*
X181132070Y-98301500D01*
X181192236Y-98294964D01*
X181237387Y-98278037D01*
X181315795Y-98248644D01*
X181315798Y-98248643D01*
X181324199Y-98245493D01*
X181436974Y-98160974D01*
X181521493Y-98048199D01*
X181528030Y-98030764D01*
X181541148Y-97995770D01*
X181583790Y-97939006D01*
X181650352Y-97914306D01*
X181659130Y-97914000D01*
X181665366Y-97914000D01*
X181733487Y-97934002D01*
X181779980Y-97987658D01*
X181783347Y-97995768D01*
X181789507Y-98012199D01*
X181794889Y-98019381D01*
X181794890Y-98019382D01*
X181824188Y-98058474D01*
X181874026Y-98124974D01*
X181986801Y-98209493D01*
X181995206Y-98212644D01*
X182003080Y-98216955D01*
X182001586Y-98219683D01*
X182046005Y-98253060D01*
X182070695Y-98319626D01*
X182071000Y-98328386D01*
X182071000Y-98521614D01*
X182050998Y-98589735D01*
X182002416Y-98631832D01*
X182003080Y-98633045D01*
X181997472Y-98636115D01*
X181997342Y-98636228D01*
X181997028Y-98636358D01*
X181995203Y-98637357D01*
X181986801Y-98640507D01*
X181874026Y-98725026D01*
X181789507Y-98837801D01*
X181740036Y-98969764D01*
X181733500Y-99029930D01*
X181733500Y-99598070D01*
X181740036Y-99658236D01*
X181742810Y-99665635D01*
X181763547Y-99720950D01*
X181789507Y-99790199D01*
X181874026Y-99902974D01*
X181986801Y-99987493D01*
X181995202Y-99990643D01*
X181995205Y-99990644D01*
X182049695Y-100011071D01*
X182118764Y-100036964D01*
X182178930Y-100043500D01*
X182872070Y-100043500D01*
X182932236Y-100036964D01*
X183001305Y-100011071D01*
X183055795Y-99990644D01*
X183055798Y-99990643D01*
X183064199Y-99987493D01*
X183176974Y-99902974D01*
X183261493Y-99790199D01*
X183287454Y-99720950D01*
X183308190Y-99665635D01*
X183310964Y-99658236D01*
X183317500Y-99598070D01*
X183317500Y-99029930D01*
X183310964Y-98969764D01*
X183261493Y-98837801D01*
X183176974Y-98725026D01*
X183064199Y-98640507D01*
X183055798Y-98637357D01*
X183055795Y-98637356D01*
X182961770Y-98602108D01*
X182905006Y-98559466D01*
X182880306Y-98492905D01*
X182880000Y-98484126D01*
X182880000Y-98328386D01*
X182900002Y-98260265D01*
X182948584Y-98218168D01*
X182947920Y-98216955D01*
X182953528Y-98213885D01*
X182953658Y-98213772D01*
X182953972Y-98213642D01*
X182955797Y-98212643D01*
X182964199Y-98209493D01*
X183076974Y-98124974D01*
X183161493Y-98012199D01*
X183164645Y-98003793D01*
X183208190Y-97887635D01*
X183210964Y-97880236D01*
X183217500Y-97820070D01*
X183217500Y-97251930D01*
X183210964Y-97191764D01*
X183185100Y-97122772D01*
X183164644Y-97068205D01*
X183164643Y-97068202D01*
X183161493Y-97059801D01*
X183076974Y-96947026D01*
X182964199Y-96862507D01*
X182955798Y-96859357D01*
X182955795Y-96859356D01*
X182876265Y-96829542D01*
X182832236Y-96813036D01*
X182772070Y-96806500D01*
X182178930Y-96806500D01*
X182118764Y-96813036D01*
X182074735Y-96829542D01*
X181995205Y-96859356D01*
X181995202Y-96859357D01*
X181986801Y-96862507D01*
X181874026Y-96947026D01*
X181868645Y-96954206D01*
X181793432Y-97054564D01*
X181736573Y-97097080D01*
X181692605Y-97105000D01*
X181659130Y-97105000D01*
X181591009Y-97084998D01*
X181544516Y-97031342D01*
X181541148Y-97023230D01*
X181524644Y-96979205D01*
X181524643Y-96979202D01*
X181521493Y-96970801D01*
X181436974Y-96858026D01*
X181324199Y-96773507D01*
X181315798Y-96770357D01*
X181315795Y-96770356D01*
X181301459Y-96764982D01*
X181244694Y-96722340D01*
X181219995Y-96655778D01*
X181235203Y-96586429D01*
X181285489Y-96536311D01*
X181301459Y-96529018D01*
X181315795Y-96523644D01*
X181315798Y-96523643D01*
X181324199Y-96520493D01*
X181436974Y-96435974D01*
X181521493Y-96323199D01*
X181525494Y-96312528D01*
X181541148Y-96270770D01*
X181583790Y-96214006D01*
X181650352Y-96189306D01*
X181659130Y-96189000D01*
X181692605Y-96189000D01*
X181760726Y-96209002D01*
X181793432Y-96239436D01*
X181874026Y-96346974D01*
X181986801Y-96431493D01*
X181995202Y-96434643D01*
X181995205Y-96434644D01*
X182066393Y-96461331D01*
X182118764Y-96480964D01*
X182178930Y-96487500D01*
X182772070Y-96487500D01*
X182832236Y-96480964D01*
X182884607Y-96461331D01*
X182955795Y-96434644D01*
X182955798Y-96434643D01*
X182964199Y-96431493D01*
X183076974Y-96346974D01*
X183161493Y-96234199D01*
X183168176Y-96216374D01*
X183199918Y-96131702D01*
X183210964Y-96102236D01*
X183217500Y-96042070D01*
X183217500Y-95473930D01*
X183210964Y-95413764D01*
X183165249Y-95291819D01*
X183164644Y-95290205D01*
X183164643Y-95290202D01*
X183161493Y-95281801D01*
X183076974Y-95169026D01*
X182964199Y-95084507D01*
X182955794Y-95081356D01*
X182947920Y-95077045D01*
X182949414Y-95074317D01*
X182904995Y-95040940D01*
X182880305Y-94974374D01*
X182880000Y-94965614D01*
X182880000Y-94809874D01*
X182900002Y-94741753D01*
X182953658Y-94695260D01*
X182961770Y-94691892D01*
X183055795Y-94656644D01*
X183055798Y-94656643D01*
X183064199Y-94653493D01*
X183176974Y-94568974D01*
X183261493Y-94456199D01*
X183269382Y-94435157D01*
X183303783Y-94343391D01*
X183310964Y-94324236D01*
X183317500Y-94264070D01*
X183317500Y-93695930D01*
X183310964Y-93635764D01*
X183261493Y-93503801D01*
X183176974Y-93391026D01*
X183064199Y-93306507D01*
X183055798Y-93303357D01*
X183055795Y-93303356D01*
X182969202Y-93270894D01*
X182932236Y-93257036D01*
X182872070Y-93250500D01*
X182397450Y-93250500D01*
X182329329Y-93230498D01*
X182282836Y-93176842D01*
X182272732Y-93106568D01*
X182302226Y-93041988D01*
X182308355Y-93035405D01*
X182523355Y-92820405D01*
X182585667Y-92786379D01*
X182612450Y-92783500D01*
X186830550Y-92783500D01*
X186898671Y-92803502D01*
X186919645Y-92820405D01*
X187938595Y-93839355D01*
X187972621Y-93901667D01*
X187975500Y-93928450D01*
X187975500Y-94277756D01*
X187982202Y-94339448D01*
X188032929Y-94474764D01*
X188038309Y-94481943D01*
X188038311Y-94481946D01*
X188093640Y-94555771D01*
X188119596Y-94590404D01*
X188126776Y-94595785D01*
X188228054Y-94671689D01*
X188228057Y-94671691D01*
X188235236Y-94677071D01*
X188364414Y-94725497D01*
X188364737Y-94725618D01*
X188421502Y-94768259D01*
X188446202Y-94834820D01*
X188430995Y-94904169D01*
X188380709Y-94954288D01*
X188364738Y-94961582D01*
X188235236Y-95010129D01*
X188228057Y-95015509D01*
X188228054Y-95015511D01*
X188141703Y-95080228D01*
X188119596Y-95096796D01*
X188114215Y-95103976D01*
X188038311Y-95205254D01*
X188038309Y-95205257D01*
X188032929Y-95212436D01*
X188029779Y-95220838D01*
X188029777Y-95220842D01*
X188029744Y-95220931D01*
X188029687Y-95221006D01*
X188025467Y-95228715D01*
X188024354Y-95228106D01*
X187987102Y-95277695D01*
X187920540Y-95302394D01*
X187911763Y-95302700D01*
X187754237Y-95302700D01*
X187686116Y-95282698D01*
X187639623Y-95229042D01*
X187636256Y-95220931D01*
X187636223Y-95220842D01*
X187636221Y-95220838D01*
X187633071Y-95212436D01*
X187627691Y-95205257D01*
X187627689Y-95205254D01*
X187551785Y-95103976D01*
X187546404Y-95096796D01*
X187524297Y-95080228D01*
X187437946Y-95015511D01*
X187437943Y-95015509D01*
X187430764Y-95010129D01*
X187312019Y-94965614D01*
X187302843Y-94962174D01*
X187302841Y-94962174D01*
X187295448Y-94959402D01*
X187287598Y-94958549D01*
X187287597Y-94958549D01*
X187237153Y-94953069D01*
X187237152Y-94953069D01*
X187233756Y-94952700D01*
X185638244Y-94952700D01*
X185634848Y-94953069D01*
X185634847Y-94953069D01*
X185584403Y-94958549D01*
X185584402Y-94958549D01*
X185576552Y-94959402D01*
X185569159Y-94962174D01*
X185569157Y-94962174D01*
X185559981Y-94965614D01*
X185441236Y-95010129D01*
X185434057Y-95015509D01*
X185434054Y-95015511D01*
X185347703Y-95080228D01*
X185325596Y-95096796D01*
X185320215Y-95103976D01*
X185244311Y-95205254D01*
X185244309Y-95205257D01*
X185238929Y-95212436D01*
X185235778Y-95220840D01*
X185235778Y-95220841D01*
X185226421Y-95245801D01*
X185217524Y-95269536D01*
X185216800Y-95271466D01*
X185174160Y-95328231D01*
X185107598Y-95352932D01*
X185038249Y-95337725D01*
X184988977Y-95288426D01*
X184986493Y-95281801D01*
X184901974Y-95169026D01*
X184789199Y-95084507D01*
X184780798Y-95081357D01*
X184780795Y-95081356D01*
X184684764Y-95045356D01*
X184657236Y-95035036D01*
X184597070Y-95028500D01*
X184003930Y-95028500D01*
X183943764Y-95035036D01*
X183916236Y-95045356D01*
X183820205Y-95081356D01*
X183820202Y-95081357D01*
X183811801Y-95084507D01*
X183699026Y-95169026D01*
X183614507Y-95281801D01*
X183611357Y-95290202D01*
X183611356Y-95290205D01*
X183610751Y-95291819D01*
X183565036Y-95413764D01*
X183558500Y-95473930D01*
X183558500Y-96042070D01*
X183565036Y-96102236D01*
X183576082Y-96131702D01*
X183607825Y-96216374D01*
X183614507Y-96234199D01*
X183699026Y-96346974D01*
X183811801Y-96431493D01*
X183820202Y-96434643D01*
X183820205Y-96434644D01*
X183891393Y-96461331D01*
X183943764Y-96480964D01*
X184003930Y-96487500D01*
X184597070Y-96487500D01*
X184657236Y-96480964D01*
X184709607Y-96461331D01*
X184780795Y-96434644D01*
X184780798Y-96434643D01*
X184789199Y-96431493D01*
X184901974Y-96346974D01*
X184986493Y-96234199D01*
X184989047Y-96227386D01*
X185038698Y-96177846D01*
X185098961Y-96162500D01*
X185146325Y-96162500D01*
X185214446Y-96182502D01*
X185247151Y-96212935D01*
X185281676Y-96259002D01*
X185325596Y-96317604D01*
X185337007Y-96326156D01*
X185434054Y-96398889D01*
X185434057Y-96398891D01*
X185441236Y-96404271D01*
X185522257Y-96434644D01*
X185569157Y-96452226D01*
X185569159Y-96452226D01*
X185576552Y-96454998D01*
X185584402Y-96455851D01*
X185584403Y-96455851D01*
X185634847Y-96461331D01*
X185638244Y-96461700D01*
X187233756Y-96461700D01*
X187237153Y-96461331D01*
X187287597Y-96455851D01*
X187287598Y-96455851D01*
X187295448Y-96454998D01*
X187302841Y-96452226D01*
X187302843Y-96452226D01*
X187349743Y-96434644D01*
X187430764Y-96404271D01*
X187437943Y-96398891D01*
X187437946Y-96398889D01*
X187534993Y-96326156D01*
X187546404Y-96317604D01*
X187590324Y-96259002D01*
X187627689Y-96209146D01*
X187627691Y-96209143D01*
X187633071Y-96201964D01*
X187636221Y-96193562D01*
X187636223Y-96193558D01*
X187636256Y-96193469D01*
X187636313Y-96193394D01*
X187640533Y-96185685D01*
X187641646Y-96186294D01*
X187678898Y-96136705D01*
X187745460Y-96112006D01*
X187754237Y-96111700D01*
X187911763Y-96111700D01*
X187979884Y-96131702D01*
X188026377Y-96185358D01*
X188029744Y-96193469D01*
X188029777Y-96193558D01*
X188029779Y-96193562D01*
X188032929Y-96201964D01*
X188038309Y-96209143D01*
X188038311Y-96209146D01*
X188075676Y-96259002D01*
X188119596Y-96317604D01*
X188131007Y-96326156D01*
X188228054Y-96398889D01*
X188228057Y-96398891D01*
X188235236Y-96404271D01*
X188316257Y-96434644D01*
X188363157Y-96452226D01*
X188363159Y-96452226D01*
X188370552Y-96454998D01*
X188378402Y-96455851D01*
X188378403Y-96455851D01*
X188428847Y-96461331D01*
X188432244Y-96461700D01*
X190027756Y-96461700D01*
X190031153Y-96461331D01*
X190081597Y-96455851D01*
X190081598Y-96455851D01*
X190089448Y-96454998D01*
X190096843Y-96452226D01*
X190101381Y-96450524D01*
X190129272Y-96440069D01*
X190200078Y-96434886D01*
X190262447Y-96468807D01*
X190296576Y-96531062D01*
X190299500Y-96558051D01*
X190299500Y-96685149D01*
X190279498Y-96753270D01*
X190225842Y-96799763D01*
X190155568Y-96809867D01*
X190129275Y-96803132D01*
X190101381Y-96792676D01*
X190096840Y-96790973D01*
X190096839Y-96790973D01*
X190089448Y-96788202D01*
X190081598Y-96787349D01*
X190081597Y-96787349D01*
X190031153Y-96781869D01*
X190031152Y-96781869D01*
X190027756Y-96781500D01*
X188432244Y-96781500D01*
X188428848Y-96781869D01*
X188428847Y-96781869D01*
X188378403Y-96787349D01*
X188378402Y-96787349D01*
X188370552Y-96788202D01*
X188363159Y-96790974D01*
X188363157Y-96790974D01*
X188330728Y-96803131D01*
X188235236Y-96838929D01*
X188228057Y-96844309D01*
X188228054Y-96844311D01*
X188196593Y-96867890D01*
X188119596Y-96925596D01*
X188114215Y-96932776D01*
X188038311Y-97034054D01*
X188038309Y-97034057D01*
X188032929Y-97041236D01*
X188029779Y-97049638D01*
X188029777Y-97049642D01*
X188029744Y-97049731D01*
X188029687Y-97049806D01*
X188025467Y-97057515D01*
X188024354Y-97056906D01*
X187987102Y-97106495D01*
X187920540Y-97131194D01*
X187911763Y-97131500D01*
X187754237Y-97131500D01*
X187686116Y-97111498D01*
X187639623Y-97057842D01*
X187636256Y-97049731D01*
X187636223Y-97049642D01*
X187636221Y-97049638D01*
X187633071Y-97041236D01*
X187627691Y-97034057D01*
X187627689Y-97034054D01*
X187551785Y-96932776D01*
X187546404Y-96925596D01*
X187469407Y-96867890D01*
X187437946Y-96844311D01*
X187437943Y-96844309D01*
X187430764Y-96838929D01*
X187335272Y-96803131D01*
X187302843Y-96790974D01*
X187302841Y-96790974D01*
X187295448Y-96788202D01*
X187287598Y-96787349D01*
X187287597Y-96787349D01*
X187237153Y-96781869D01*
X187237152Y-96781869D01*
X187233756Y-96781500D01*
X185638244Y-96781500D01*
X185634848Y-96781869D01*
X185634847Y-96781869D01*
X185584403Y-96787349D01*
X185584402Y-96787349D01*
X185576552Y-96788202D01*
X185569159Y-96790974D01*
X185569157Y-96790974D01*
X185536728Y-96803131D01*
X185441236Y-96838929D01*
X185434057Y-96844309D01*
X185434054Y-96844311D01*
X185402593Y-96867890D01*
X185325596Y-96925596D01*
X185320215Y-96932776D01*
X185244311Y-97034054D01*
X185244309Y-97034057D01*
X185238929Y-97041236D01*
X185235779Y-97049638D01*
X185235777Y-97049642D01*
X185235744Y-97049731D01*
X185235687Y-97049806D01*
X185231467Y-97057515D01*
X185230354Y-97056906D01*
X185193102Y-97106495D01*
X185126540Y-97131194D01*
X185117763Y-97131500D01*
X185098961Y-97131500D01*
X185030840Y-97111498D01*
X184989076Y-97066690D01*
X184986493Y-97059801D01*
X184901974Y-96947026D01*
X184789199Y-96862507D01*
X184780798Y-96859357D01*
X184780795Y-96859356D01*
X184701265Y-96829542D01*
X184657236Y-96813036D01*
X184597070Y-96806500D01*
X184003930Y-96806500D01*
X183943764Y-96813036D01*
X183899735Y-96829542D01*
X183820205Y-96859356D01*
X183820202Y-96859357D01*
X183811801Y-96862507D01*
X183699026Y-96947026D01*
X183614507Y-97059801D01*
X183611357Y-97068202D01*
X183611356Y-97068205D01*
X183590900Y-97122772D01*
X183565036Y-97191764D01*
X183558500Y-97251930D01*
X183558500Y-97820070D01*
X183565036Y-97880236D01*
X183567810Y-97887635D01*
X183611356Y-98003793D01*
X183614507Y-98012199D01*
X183699026Y-98124974D01*
X183811801Y-98209493D01*
X183820202Y-98212643D01*
X183820205Y-98212644D01*
X183871926Y-98232033D01*
X183943764Y-98258964D01*
X184003930Y-98265500D01*
X184597070Y-98265500D01*
X184657236Y-98258964D01*
X184729074Y-98232033D01*
X184780795Y-98212644D01*
X184780798Y-98212643D01*
X184789199Y-98209493D01*
X184901974Y-98124974D01*
X184986493Y-98012199D01*
X184989047Y-98005386D01*
X185038698Y-97955846D01*
X185098961Y-97940500D01*
X185117763Y-97940500D01*
X185185884Y-97960502D01*
X185232377Y-98014158D01*
X185235744Y-98022269D01*
X185235777Y-98022358D01*
X185235779Y-98022362D01*
X185238929Y-98030764D01*
X185244309Y-98037943D01*
X185244311Y-98037946D01*
X185303944Y-98117514D01*
X185325596Y-98146404D01*
X185337661Y-98155446D01*
X185434054Y-98227689D01*
X185434057Y-98227691D01*
X185441236Y-98233071D01*
X185530954Y-98266704D01*
X185569157Y-98281026D01*
X185569159Y-98281026D01*
X185576552Y-98283798D01*
X185584402Y-98284651D01*
X185584403Y-98284651D01*
X185634847Y-98290131D01*
X185638244Y-98290500D01*
X187233756Y-98290500D01*
X187237153Y-98290131D01*
X187287597Y-98284651D01*
X187287598Y-98284651D01*
X187295448Y-98283798D01*
X187302841Y-98281026D01*
X187302843Y-98281026D01*
X187341046Y-98266704D01*
X187430764Y-98233071D01*
X187437943Y-98227691D01*
X187437946Y-98227689D01*
X187534339Y-98155446D01*
X187546404Y-98146404D01*
X187568056Y-98117514D01*
X187627689Y-98037946D01*
X187627691Y-98037943D01*
X187633071Y-98030764D01*
X187636221Y-98022362D01*
X187636223Y-98022358D01*
X187636256Y-98022269D01*
X187636313Y-98022194D01*
X187640533Y-98014485D01*
X187641646Y-98015094D01*
X187678898Y-97965505D01*
X187745460Y-97940806D01*
X187754237Y-97940500D01*
X187911763Y-97940500D01*
X187979884Y-97960502D01*
X188026377Y-98014158D01*
X188029744Y-98022269D01*
X188029777Y-98022358D01*
X188029779Y-98022362D01*
X188032929Y-98030764D01*
X188038309Y-98037943D01*
X188038311Y-98037946D01*
X188097944Y-98117514D01*
X188119596Y-98146404D01*
X188131661Y-98155446D01*
X188228054Y-98227689D01*
X188228057Y-98227691D01*
X188235236Y-98233071D01*
X188324954Y-98266704D01*
X188363157Y-98281026D01*
X188363159Y-98281026D01*
X188370552Y-98283798D01*
X188378402Y-98284651D01*
X188378403Y-98284651D01*
X188428847Y-98290131D01*
X188432244Y-98290500D01*
X189814550Y-98290500D01*
X189882671Y-98310502D01*
X189929164Y-98364158D01*
X189939268Y-98434432D01*
X189909774Y-98499012D01*
X189903645Y-98505595D01*
X189886645Y-98522595D01*
X189824333Y-98556621D01*
X189797550Y-98559500D01*
X188432244Y-98559500D01*
X188428848Y-98559869D01*
X188428847Y-98559869D01*
X188378403Y-98565349D01*
X188378402Y-98565349D01*
X188370552Y-98566202D01*
X188363159Y-98568974D01*
X188363157Y-98568974D01*
X188327298Y-98582417D01*
X188235236Y-98616929D01*
X188228057Y-98622309D01*
X188228054Y-98622311D01*
X188196593Y-98645890D01*
X188119596Y-98703596D01*
X188114215Y-98710776D01*
X188038311Y-98812054D01*
X188038309Y-98812057D01*
X188032929Y-98819236D01*
X187982202Y-98954552D01*
X187975500Y-99016244D01*
X187975500Y-99611756D01*
X187982202Y-99673448D01*
X188032929Y-99808764D01*
X188038309Y-99815943D01*
X188038311Y-99815946D01*
X188098154Y-99895794D01*
X188119596Y-99924404D01*
X188126776Y-99929785D01*
X188228054Y-100005689D01*
X188228057Y-100005691D01*
X188235236Y-100011071D01*
X188324954Y-100044704D01*
X188363157Y-100059026D01*
X188363159Y-100059026D01*
X188370552Y-100061798D01*
X188378402Y-100062651D01*
X188378403Y-100062651D01*
X188397283Y-100064702D01*
X188432244Y-100068500D01*
X190027756Y-100068500D01*
X190062717Y-100064702D01*
X190081597Y-100062651D01*
X190081598Y-100062651D01*
X190089448Y-100061798D01*
X190096841Y-100059026D01*
X190096843Y-100059026D01*
X190135046Y-100044704D01*
X190224764Y-100011071D01*
X190231943Y-100005691D01*
X190231946Y-100005689D01*
X190333224Y-99929785D01*
X190340404Y-99924404D01*
X190361846Y-99895794D01*
X190421689Y-99815946D01*
X190421691Y-99815943D01*
X190427071Y-99808764D01*
X190477798Y-99673448D01*
X190484500Y-99611756D01*
X190484500Y-99262450D01*
X190504502Y-99194329D01*
X190521405Y-99173355D01*
X191051011Y-98643749D01*
X191062100Y-98633894D01*
X191064716Y-98631832D01*
X191089059Y-98612641D01*
X191121155Y-98566202D01*
X191122742Y-98563906D01*
X191125024Y-98560713D01*
X191160209Y-98513076D01*
X191162623Y-98506203D01*
X191166764Y-98500211D01*
X191184629Y-98443722D01*
X191185880Y-98439973D01*
X191205493Y-98384126D01*
X191205776Y-98376922D01*
X191205809Y-98376751D01*
X191207975Y-98369903D01*
X191208500Y-98363232D01*
X191208500Y-98310062D01*
X191208597Y-98305116D01*
X191210359Y-98260265D01*
X191210858Y-98247563D01*
X191208961Y-98240408D01*
X191208500Y-98232033D01*
X191208500Y-94903456D01*
X191209373Y-94888647D01*
X191212300Y-94863915D01*
X191213407Y-94854562D01*
X191205246Y-94809874D01*
X191202771Y-94796320D01*
X191202122Y-94792418D01*
X191194716Y-94743164D01*
X191194715Y-94743161D01*
X191193315Y-94733849D01*
X191190162Y-94727282D01*
X191188853Y-94720117D01*
X191161538Y-94667533D01*
X191159788Y-94664030D01*
X191134154Y-94610647D01*
X191129259Y-94605352D01*
X191129166Y-94605213D01*
X191125852Y-94598834D01*
X191121506Y-94593746D01*
X191083924Y-94556164D01*
X191080494Y-94552598D01*
X191068468Y-94539588D01*
X191041383Y-94510288D01*
X191034983Y-94506570D01*
X191028723Y-94500963D01*
X190521405Y-93993645D01*
X190487379Y-93931333D01*
X190484500Y-93904550D01*
X190484500Y-93801450D01*
X190504502Y-93733329D01*
X190521405Y-93712355D01*
X190924011Y-93309749D01*
X190935100Y-93299894D01*
X190936444Y-93298835D01*
X190962059Y-93278641D01*
X190981508Y-93250500D01*
X190995742Y-93229906D01*
X190998024Y-93226713D01*
X191033209Y-93179076D01*
X191035623Y-93172203D01*
X191039764Y-93166211D01*
X191057629Y-93109722D01*
X191058880Y-93105973D01*
X191078493Y-93050126D01*
X191078776Y-93042922D01*
X191078809Y-93042751D01*
X191080975Y-93035903D01*
X191081500Y-93029232D01*
X191081500Y-92976062D01*
X191081597Y-92971116D01*
X191083488Y-92922976D01*
X191083858Y-92913563D01*
X191081961Y-92906408D01*
X191081500Y-92898033D01*
X191081500Y-92228783D01*
X191101502Y-92160662D01*
X191131936Y-92127956D01*
X191208794Y-92070355D01*
X191215974Y-92064974D01*
X191300493Y-91952199D01*
X191304494Y-91941528D01*
X191347190Y-91827635D01*
X191349964Y-91820236D01*
X191356500Y-91760070D01*
X191356500Y-91066930D01*
X191349964Y-91006764D01*
X191300493Y-90874801D01*
X191215974Y-90762026D01*
X191103199Y-90677507D01*
X191094798Y-90674357D01*
X191094795Y-90674356D01*
X191016387Y-90644963D01*
X190971236Y-90628036D01*
X190911070Y-90621500D01*
X190342930Y-90621500D01*
X190282764Y-90628036D01*
X190237613Y-90644963D01*
X190159205Y-90674356D01*
X190159202Y-90674357D01*
X190150801Y-90677507D01*
X190038026Y-90762026D01*
X189953507Y-90874801D01*
X189950356Y-90883206D01*
X189946045Y-90891080D01*
X189943317Y-90889586D01*
X189909940Y-90934005D01*
X189843374Y-90958695D01*
X189834614Y-90959000D01*
X186649950Y-90959000D01*
X186581829Y-90938998D01*
X186560855Y-90922095D01*
X185530405Y-89891645D01*
X185496379Y-89829333D01*
X185493500Y-89802550D01*
X185493500Y-87670933D01*
X185828500Y-87670933D01*
X185828501Y-89621066D01*
X185835612Y-89656818D01*
X185836643Y-89662000D01*
X185843266Y-89695301D01*
X185899516Y-89779484D01*
X185983699Y-89835734D01*
X186057933Y-89850500D01*
X187382785Y-89850500D01*
X188708066Y-89850499D01*
X188743818Y-89843388D01*
X188770126Y-89838156D01*
X188770128Y-89838155D01*
X188782301Y-89835734D01*
X188792621Y-89828839D01*
X188792622Y-89828838D01*
X188856168Y-89786377D01*
X188866484Y-89779484D01*
X188922734Y-89695301D01*
X188937500Y-89621067D01*
X188937499Y-87670934D01*
X188930388Y-87635182D01*
X188925156Y-87608874D01*
X188925155Y-87608872D01*
X188922734Y-87596699D01*
X188866484Y-87512516D01*
X188782301Y-87456266D01*
X188708067Y-87441500D01*
X187383215Y-87441500D01*
X186057934Y-87441501D01*
X186022182Y-87448612D01*
X185995874Y-87453844D01*
X185995872Y-87453845D01*
X185983699Y-87456266D01*
X185973379Y-87463161D01*
X185973378Y-87463162D01*
X185940328Y-87485246D01*
X185899516Y-87512516D01*
X185843266Y-87596699D01*
X185828500Y-87670933D01*
X185493500Y-87670933D01*
X185493500Y-83044450D01*
X185513502Y-82976329D01*
X185530405Y-82955355D01*
X185613405Y-82872355D01*
X185675717Y-82838329D01*
X185746532Y-82843394D01*
X185803368Y-82885941D01*
X185828179Y-82952461D01*
X185828500Y-82961450D01*
X185828501Y-83796355D01*
X185828501Y-84541066D01*
X185843266Y-84615301D01*
X185899516Y-84699484D01*
X185983699Y-84755734D01*
X186057933Y-84770500D01*
X187382785Y-84770500D01*
X188708066Y-84770499D01*
X188743818Y-84763388D01*
X188770126Y-84758156D01*
X188770128Y-84758155D01*
X188782301Y-84755734D01*
X188792621Y-84748839D01*
X188792622Y-84748838D01*
X188856168Y-84706377D01*
X188866484Y-84699484D01*
X188922734Y-84615301D01*
X188937500Y-84541067D01*
X188937499Y-82590934D01*
X188927309Y-82539702D01*
X188925156Y-82528874D01*
X188925155Y-82528872D01*
X188922734Y-82516699D01*
X188909643Y-82497106D01*
X188873377Y-82442832D01*
X188866484Y-82432516D01*
X188818964Y-82400764D01*
X188773438Y-82346287D01*
X188764591Y-82275844D01*
X188795232Y-82211800D01*
X188818962Y-82191238D01*
X188866484Y-82159484D01*
X188922734Y-82075301D01*
X188937500Y-82001067D01*
X188937500Y-81999998D01*
X188963414Y-81935820D01*
X189021368Y-81894809D01*
X189062226Y-81888000D01*
X189834614Y-81888000D01*
X189902735Y-81908002D01*
X189944832Y-81956584D01*
X189946045Y-81955920D01*
X189949115Y-81961528D01*
X189949228Y-81961658D01*
X189949358Y-81961972D01*
X189950356Y-81963795D01*
X189953507Y-81972199D01*
X190038026Y-82084974D01*
X190150801Y-82169493D01*
X190159202Y-82172643D01*
X190159205Y-82172644D01*
X190208797Y-82191235D01*
X190282764Y-82218964D01*
X190342930Y-82225500D01*
X190911070Y-82225500D01*
X190971236Y-82218964D01*
X191045203Y-82191235D01*
X191094795Y-82172644D01*
X191094798Y-82172643D01*
X191103199Y-82169493D01*
X191215974Y-82084974D01*
X191300493Y-81972199D01*
X191304494Y-81961528D01*
X191347190Y-81847635D01*
X191349964Y-81840236D01*
X191356500Y-81780070D01*
X191356500Y-81086930D01*
X191349964Y-81026764D01*
X191300493Y-80894801D01*
X191215974Y-80782026D01*
X191103199Y-80697507D01*
X191094798Y-80694357D01*
X191094795Y-80694356D01*
X191016387Y-80664963D01*
X190971236Y-80648036D01*
X190911070Y-80641500D01*
X190342930Y-80641500D01*
X190282764Y-80648036D01*
X190237613Y-80664963D01*
X190159205Y-80694356D01*
X190159202Y-80694357D01*
X190150801Y-80697507D01*
X190038026Y-80782026D01*
X189953507Y-80894801D01*
X189950356Y-80903206D01*
X189946045Y-80911080D01*
X189943317Y-80909586D01*
X189909940Y-80954005D01*
X189843374Y-80978695D01*
X189834614Y-80979000D01*
X189063499Y-80979000D01*
X188995378Y-80958998D01*
X188948885Y-80905342D01*
X188937499Y-80853000D01*
X188937499Y-80050934D01*
X188922734Y-79976699D01*
X188866484Y-79892516D01*
X188782301Y-79836266D01*
X188708067Y-79821500D01*
X187383215Y-79821500D01*
X186057934Y-79821501D01*
X186022182Y-79828612D01*
X185995874Y-79833844D01*
X185995872Y-79833845D01*
X185983699Y-79836266D01*
X185973379Y-79843161D01*
X185973378Y-79843162D01*
X185912985Y-79883516D01*
X185899516Y-79892516D01*
X185843266Y-79976699D01*
X185828500Y-80050933D01*
X185828501Y-80702890D01*
X185828501Y-81319549D01*
X185808499Y-81387670D01*
X185791596Y-81408644D01*
X184741989Y-82458251D01*
X184730900Y-82468106D01*
X184703941Y-82489359D01*
X184698587Y-82497106D01*
X184670258Y-82538094D01*
X184667976Y-82541287D01*
X184632791Y-82588924D01*
X184630377Y-82595797D01*
X184626236Y-82601789D01*
X184623396Y-82610770D01*
X184608374Y-82658270D01*
X184607129Y-82661999D01*
X184587507Y-82717874D01*
X184587224Y-82725078D01*
X184587191Y-82725249D01*
X184585025Y-82732097D01*
X184584500Y-82738768D01*
X184584500Y-82791938D01*
X184584403Y-82796884D01*
X184582142Y-82854437D01*
X184584039Y-82861592D01*
X184584500Y-82869967D01*
X184584500Y-90008544D01*
X184583627Y-90023353D01*
X184579593Y-90057438D01*
X184581285Y-90066702D01*
X184581285Y-90066705D01*
X184590229Y-90115680D01*
X184590878Y-90119582D01*
X184594904Y-90146355D01*
X184599685Y-90178151D01*
X184602838Y-90184718D01*
X184604147Y-90191883D01*
X184631462Y-90244467D01*
X184633205Y-90247957D01*
X184658846Y-90301353D01*
X184663741Y-90306648D01*
X184663834Y-90306787D01*
X184667148Y-90313166D01*
X184671494Y-90318254D01*
X184709076Y-90355836D01*
X184712506Y-90359401D01*
X184751617Y-90401712D01*
X184758017Y-90405430D01*
X184764277Y-90411037D01*
X186012645Y-91659405D01*
X186046671Y-91721717D01*
X186041606Y-91792532D01*
X185999059Y-91849368D01*
X185932539Y-91874179D01*
X185923550Y-91874500D01*
X182406456Y-91874500D01*
X182391647Y-91873627D01*
X182366915Y-91870700D01*
X182357562Y-91869593D01*
X182348298Y-91871285D01*
X182348295Y-91871285D01*
X182299320Y-91880229D01*
X182295418Y-91880878D01*
X182246164Y-91888284D01*
X182246161Y-91888285D01*
X182236849Y-91889685D01*
X182230282Y-91892838D01*
X182223117Y-91894147D01*
X182214762Y-91898487D01*
X182170564Y-91921446D01*
X182167023Y-91923215D01*
X182122140Y-91944767D01*
X182122137Y-91944769D01*
X182113647Y-91948846D01*
X182108357Y-91953736D01*
X182108202Y-91953841D01*
X182101835Y-91957148D01*
X182096746Y-91961494D01*
X182059164Y-91999076D01*
X182055599Y-92002506D01*
X182013288Y-92041617D01*
X182009570Y-92048017D01*
X182003963Y-92054277D01*
X180442645Y-93615595D01*
X180380333Y-93649621D01*
X180353550Y-93652500D01*
X179050986Y-93652500D01*
X178982865Y-93632498D01*
X178936372Y-93578842D01*
X178926268Y-93508568D01*
X178936164Y-93478836D01*
X178943000Y-93472000D01*
X178943000Y-77426500D01*
X178963002Y-77358379D01*
X179016658Y-77311886D01*
X179069000Y-77300500D01*
X191573500Y-77300500D01*
X191641621Y-77320502D01*
G37*
G04 #@! TD.AperFunction*
G04 #@! TA.AperFunction,Conductor*
G36*
X175783931Y-90698002D02*
G01*
X175804905Y-90714905D01*
X176620095Y-91530095D01*
X176654121Y-91592407D01*
X176657000Y-91619190D01*
X176657000Y-92186697D01*
X176636998Y-92254818D01*
X176583342Y-92301311D01*
X176513068Y-92311415D01*
X176448488Y-92281921D01*
X176419190Y-92244786D01*
X176418527Y-92243510D01*
X176416790Y-92240032D01*
X176391156Y-92186649D01*
X176386261Y-92181354D01*
X176386168Y-92181215D01*
X176382854Y-92174836D01*
X176378508Y-92169748D01*
X176340926Y-92132166D01*
X176337496Y-92128600D01*
X176304776Y-92093204D01*
X176298385Y-92086290D01*
X176291985Y-92082572D01*
X176285725Y-92076965D01*
X175859749Y-91650989D01*
X175849894Y-91639900D01*
X175835393Y-91621506D01*
X175828641Y-91612941D01*
X175796381Y-91590645D01*
X175779906Y-91579258D01*
X175776713Y-91576976D01*
X175729076Y-91541791D01*
X175722203Y-91539377D01*
X175716211Y-91535236D01*
X175659722Y-91517371D01*
X175656001Y-91516129D01*
X175600126Y-91496507D01*
X175592922Y-91496224D01*
X175592751Y-91496191D01*
X175585903Y-91494025D01*
X175579232Y-91493500D01*
X175526062Y-91493500D01*
X175521116Y-91493403D01*
X175520224Y-91493368D01*
X175463563Y-91491142D01*
X175456408Y-91493039D01*
X175448033Y-91493500D01*
X174583256Y-91493500D01*
X174568447Y-91492627D01*
X174543715Y-91489700D01*
X174534362Y-91488593D01*
X174525098Y-91490285D01*
X174525095Y-91490285D01*
X174476120Y-91499229D01*
X174472218Y-91499878D01*
X174422964Y-91507284D01*
X174422961Y-91507285D01*
X174413649Y-91508685D01*
X174407082Y-91511838D01*
X174399917Y-91513147D01*
X174347333Y-91540462D01*
X174343843Y-91542205D01*
X174290447Y-91567846D01*
X174285152Y-91572741D01*
X174285013Y-91572834D01*
X174278634Y-91576148D01*
X174273546Y-91580494D01*
X174235964Y-91618076D01*
X174232399Y-91621506D01*
X174190088Y-91660617D01*
X174186370Y-91667017D01*
X174180763Y-91673277D01*
X174080597Y-91773443D01*
X174018285Y-91807469D01*
X173947470Y-91802404D01*
X173890634Y-91759857D01*
X173865823Y-91693337D01*
X173865502Y-91684348D01*
X173865502Y-91235688D01*
X173885504Y-91167567D01*
X173902407Y-91146593D01*
X174334095Y-90714905D01*
X174396407Y-90680879D01*
X174423190Y-90678000D01*
X175715810Y-90678000D01*
X175783931Y-90698002D01*
G37*
G04 #@! TD.AperFunction*
G04 #@! TA.AperFunction,Conductor*
G36*
X165231103Y-77320502D02*
G01*
X165277596Y-77374158D01*
X165287700Y-77444432D01*
X165258206Y-77509012D01*
X165207212Y-77544482D01*
X165178205Y-77555356D01*
X165178202Y-77555357D01*
X165169801Y-77558507D01*
X165057026Y-77643026D01*
X164972507Y-77755801D01*
X164923036Y-77887764D01*
X164916500Y-77947930D01*
X164916500Y-78516070D01*
X164923036Y-78576236D01*
X164972507Y-78708199D01*
X165057026Y-78820974D01*
X165169801Y-78905493D01*
X165178202Y-78908643D01*
X165178205Y-78908644D01*
X165256613Y-78938037D01*
X165301764Y-78954964D01*
X165361930Y-78961500D01*
X165897650Y-78961500D01*
X165965771Y-78981502D01*
X165986745Y-78998405D01*
X166721195Y-79732855D01*
X166755221Y-79795167D01*
X166758100Y-79821950D01*
X166758100Y-80203070D01*
X166764636Y-80263236D01*
X166767410Y-80270635D01*
X166809910Y-80384003D01*
X166814107Y-80395199D01*
X166898626Y-80507974D01*
X167011401Y-80592493D01*
X167019802Y-80595643D01*
X167019805Y-80595644D01*
X167098213Y-80625037D01*
X167143364Y-80641964D01*
X167203530Y-80648500D01*
X167771670Y-80648500D01*
X167831836Y-80641964D01*
X167876987Y-80625037D01*
X167955395Y-80595644D01*
X167955398Y-80595643D01*
X167963799Y-80592493D01*
X168076574Y-80507974D01*
X168118834Y-80451586D01*
X168155712Y-80402379D01*
X168161093Y-80395199D01*
X168163820Y-80387925D01*
X168213649Y-80338206D01*
X168283039Y-80323192D01*
X168349532Y-80348077D01*
X168363006Y-80359766D01*
X168491595Y-80488355D01*
X168525621Y-80550667D01*
X168528500Y-80577450D01*
X168528501Y-81601549D01*
X168508499Y-81669670D01*
X168491596Y-81690644D01*
X167723989Y-82458251D01*
X167712900Y-82468106D01*
X167685941Y-82489359D01*
X167680587Y-82497106D01*
X167652258Y-82538094D01*
X167649976Y-82541287D01*
X167614791Y-82588924D01*
X167612377Y-82595797D01*
X167608236Y-82601789D01*
X167605396Y-82610770D01*
X167590374Y-82658270D01*
X167589129Y-82661999D01*
X167569507Y-82717874D01*
X167569224Y-82725078D01*
X167569191Y-82725249D01*
X167567025Y-82732097D01*
X167566500Y-82738768D01*
X167566500Y-82791938D01*
X167566403Y-82796884D01*
X167564142Y-82854437D01*
X167566039Y-82861592D01*
X167566500Y-82869967D01*
X167566500Y-84722550D01*
X167546498Y-84790671D01*
X167529595Y-84811645D01*
X166620280Y-85720960D01*
X166557968Y-85754986D01*
X166505634Y-85755247D01*
X166395651Y-85732471D01*
X166382633Y-85729775D01*
X166378022Y-85729509D01*
X166378021Y-85729509D01*
X166327656Y-85726605D01*
X166327652Y-85726605D01*
X166325833Y-85726500D01*
X165431824Y-85726500D01*
X165429037Y-85726749D01*
X165429031Y-85726749D01*
X165364921Y-85732471D01*
X165265660Y-85741330D01*
X165049747Y-85800397D01*
X165044689Y-85802809D01*
X165044685Y-85802811D01*
X164852774Y-85894348D01*
X164847707Y-85896765D01*
X164843146Y-85900042D01*
X164843145Y-85900043D01*
X164723218Y-85986220D01*
X164665925Y-86027389D01*
X164662020Y-86031419D01*
X164528868Y-86168820D01*
X164510147Y-86188138D01*
X164507020Y-86192792D01*
X164388424Y-86369281D01*
X164388421Y-86369286D01*
X164385298Y-86373934D01*
X164295324Y-86578901D01*
X164294015Y-86584352D01*
X164294014Y-86584356D01*
X164270217Y-86683479D01*
X164243068Y-86796563D01*
X164230182Y-87020038D01*
X164257074Y-87242263D01*
X164322894Y-87456214D01*
X164325464Y-87461194D01*
X164325466Y-87461198D01*
X164413410Y-87631586D01*
X164425561Y-87655128D01*
X164561830Y-87832717D01*
X164600571Y-87867968D01*
X164723247Y-87979595D01*
X164723250Y-87979597D01*
X164727394Y-87983368D01*
X164732146Y-87986349D01*
X164912263Y-88099337D01*
X164912267Y-88099339D01*
X164917019Y-88102320D01*
X164993583Y-88133099D01*
X165049325Y-88177063D01*
X165072450Y-88244188D01*
X165055613Y-88313159D01*
X165000828Y-88363730D01*
X164873843Y-88424299D01*
X164847707Y-88436765D01*
X164843146Y-88440042D01*
X164843145Y-88440043D01*
X164723218Y-88526220D01*
X164665925Y-88567389D01*
X164662020Y-88571419D01*
X164515896Y-88722206D01*
X164510147Y-88728138D01*
X164507020Y-88732792D01*
X164388424Y-88909281D01*
X164388421Y-88909286D01*
X164385298Y-88913934D01*
X164295324Y-89118901D01*
X164243068Y-89336563D01*
X164242745Y-89342168D01*
X164234420Y-89486549D01*
X164230182Y-89560038D01*
X164257074Y-89782263D01*
X164322894Y-89996214D01*
X164325464Y-90001194D01*
X164325466Y-90001198D01*
X164422990Y-90190147D01*
X164425561Y-90195128D01*
X164561830Y-90372717D01*
X164565979Y-90376492D01*
X164723247Y-90519595D01*
X164723250Y-90519597D01*
X164727394Y-90523368D01*
X164732146Y-90526349D01*
X164912263Y-90639337D01*
X164912267Y-90639339D01*
X164917019Y-90642320D01*
X164993583Y-90673099D01*
X165049325Y-90717063D01*
X165072450Y-90784188D01*
X165055613Y-90853159D01*
X165000828Y-90903730D01*
X164888349Y-90957380D01*
X164847707Y-90976765D01*
X164843146Y-90980042D01*
X164843145Y-90980043D01*
X164697581Y-91084642D01*
X164665925Y-91107389D01*
X164662020Y-91111419D01*
X164575719Y-91200474D01*
X164510147Y-91268138D01*
X164486754Y-91302951D01*
X164388424Y-91449281D01*
X164388421Y-91449286D01*
X164385298Y-91453934D01*
X164295324Y-91658901D01*
X164294015Y-91664352D01*
X164294014Y-91664356D01*
X164265648Y-91782510D01*
X164243068Y-91876563D01*
X164240000Y-91929770D01*
X164230975Y-92086290D01*
X164230182Y-92100038D01*
X164257074Y-92322263D01*
X164322894Y-92536214D01*
X164325464Y-92541194D01*
X164325466Y-92541198D01*
X164422990Y-92730147D01*
X164425561Y-92735128D01*
X164561830Y-92912717D01*
X164565979Y-92916492D01*
X164723247Y-93059595D01*
X164723250Y-93059597D01*
X164727394Y-93063368D01*
X164732146Y-93066349D01*
X164912263Y-93179337D01*
X164912267Y-93179339D01*
X164917019Y-93182320D01*
X164993583Y-93213099D01*
X165049325Y-93257063D01*
X165072450Y-93324188D01*
X165055613Y-93393159D01*
X165000828Y-93443730D01*
X164908159Y-93487931D01*
X164847707Y-93516765D01*
X164843146Y-93520042D01*
X164843145Y-93520043D01*
X164735197Y-93597612D01*
X164665925Y-93647389D01*
X164620527Y-93694236D01*
X164545225Y-93771941D01*
X164510147Y-93808138D01*
X164495545Y-93829868D01*
X164388424Y-93989281D01*
X164388421Y-93989286D01*
X164385298Y-93993934D01*
X164295324Y-94198901D01*
X164294015Y-94204352D01*
X164294014Y-94204356D01*
X164248502Y-94393930D01*
X164243068Y-94416563D01*
X164240412Y-94462620D01*
X164231154Y-94623188D01*
X164230182Y-94640038D01*
X164257074Y-94862263D01*
X164322894Y-95076214D01*
X164325464Y-95081194D01*
X164325466Y-95081198D01*
X164422506Y-95269209D01*
X164425561Y-95275128D01*
X164561830Y-95452717D01*
X164565979Y-95456492D01*
X164723247Y-95599595D01*
X164723250Y-95599597D01*
X164727394Y-95603368D01*
X164732146Y-95606349D01*
X164912263Y-95719337D01*
X164912267Y-95719339D01*
X164917019Y-95722320D01*
X164993583Y-95753099D01*
X165049325Y-95797063D01*
X165072450Y-95864188D01*
X165055613Y-95933159D01*
X165000828Y-95983730D01*
X164931976Y-96016571D01*
X164847707Y-96056765D01*
X164843146Y-96060042D01*
X164843145Y-96060043D01*
X164727422Y-96143199D01*
X164665925Y-96187389D01*
X164646257Y-96207685D01*
X164517556Y-96340493D01*
X164510147Y-96348138D01*
X164494953Y-96370749D01*
X164388424Y-96529281D01*
X164388421Y-96529286D01*
X164385298Y-96533934D01*
X164295324Y-96738901D01*
X164294015Y-96744352D01*
X164294014Y-96744356D01*
X164245204Y-96947665D01*
X164243068Y-96956563D01*
X164239828Y-97012748D01*
X164232583Y-97138405D01*
X164230182Y-97180038D01*
X164257074Y-97402263D01*
X164322894Y-97616214D01*
X164325464Y-97621194D01*
X164325466Y-97621198D01*
X164422990Y-97810147D01*
X164425561Y-97815128D01*
X164561830Y-97992717D01*
X164565979Y-97996492D01*
X164723247Y-98139595D01*
X164723250Y-98139597D01*
X164727394Y-98143368D01*
X164732146Y-98146349D01*
X164912263Y-98259337D01*
X164912267Y-98259339D01*
X164917019Y-98262320D01*
X165124712Y-98345812D01*
X165343907Y-98391205D01*
X165348518Y-98391471D01*
X165348519Y-98391471D01*
X165398884Y-98394375D01*
X165398888Y-98394375D01*
X165400707Y-98394480D01*
X166294716Y-98394480D01*
X166297503Y-98394231D01*
X166297509Y-98394231D01*
X166369137Y-98387838D01*
X166460880Y-98379650D01*
X166676793Y-98320583D01*
X166681851Y-98318171D01*
X166681855Y-98318169D01*
X166873766Y-98226632D01*
X166873767Y-98226631D01*
X166878833Y-98224215D01*
X166890069Y-98216141D01*
X167056055Y-98096868D01*
X167056057Y-98096866D01*
X167060615Y-98093591D01*
X167158370Y-97992717D01*
X167212490Y-97936870D01*
X167212492Y-97936867D01*
X167216393Y-97932842D01*
X167317707Y-97782070D01*
X167338116Y-97751699D01*
X167338119Y-97751694D01*
X167341242Y-97747046D01*
X167431126Y-97542284D01*
X167476823Y-97487948D01*
X167544641Y-97466943D01*
X167613049Y-97485937D01*
X167660329Y-97538901D01*
X167672500Y-97592929D01*
X167672500Y-97682070D01*
X167679036Y-97742236D01*
X167689035Y-97768907D01*
X167724733Y-97864131D01*
X167728507Y-97874199D01*
X167813026Y-97986974D01*
X167925801Y-98071493D01*
X167934202Y-98074643D01*
X167934205Y-98074644D01*
X167981450Y-98092355D01*
X168057764Y-98120964D01*
X168117930Y-98127500D01*
X168686070Y-98127500D01*
X168746236Y-98120964D01*
X168822550Y-98092355D01*
X168869795Y-98074644D01*
X168869798Y-98074643D01*
X168878199Y-98071493D01*
X168990974Y-97986974D01*
X169030475Y-97934267D01*
X169087334Y-97891751D01*
X169158153Y-97886725D01*
X169220446Y-97920784D01*
X169244524Y-97958205D01*
X169245045Y-97957920D01*
X169249063Y-97965259D01*
X169249285Y-97965603D01*
X169252507Y-97974199D01*
X169337026Y-98086974D01*
X169449801Y-98171493D01*
X169458202Y-98174643D01*
X169458205Y-98174644D01*
X169531975Y-98202299D01*
X169581764Y-98220964D01*
X169641930Y-98227500D01*
X170049550Y-98227500D01*
X170117671Y-98247502D01*
X170138645Y-98264405D01*
X170215251Y-98341011D01*
X170225106Y-98352100D01*
X170246359Y-98379059D01*
X170269039Y-98394734D01*
X170295094Y-98412742D01*
X170298287Y-98415024D01*
X170345924Y-98450209D01*
X170352797Y-98452623D01*
X170358789Y-98456764D01*
X170395899Y-98468500D01*
X170415270Y-98474626D01*
X170418999Y-98475871D01*
X170474874Y-98495493D01*
X170482078Y-98495776D01*
X170482249Y-98495809D01*
X170489097Y-98497975D01*
X170495768Y-98498500D01*
X170548938Y-98498500D01*
X170553884Y-98498597D01*
X170611437Y-98500858D01*
X170618592Y-98498961D01*
X170626967Y-98498500D01*
X170866306Y-98498500D01*
X170934427Y-98518502D01*
X170980920Y-98572158D01*
X170990806Y-98643885D01*
X170981502Y-98703641D01*
X170981502Y-99725431D01*
X170982138Y-99729869D01*
X170992790Y-99804246D01*
X170996043Y-99826963D01*
X171052892Y-99951997D01*
X171142549Y-100056049D01*
X171257806Y-100130755D01*
X171389398Y-100170109D01*
X171398374Y-100170164D01*
X171398375Y-100170164D01*
X171455921Y-100170515D01*
X171526746Y-100170948D01*
X171658809Y-100133204D01*
X171666400Y-100128415D01*
X171717435Y-100096214D01*
X171718750Y-100095384D01*
X171787034Y-100075950D01*
X171854517Y-100096214D01*
X171907807Y-100130755D01*
X172039399Y-100170109D01*
X172048375Y-100170164D01*
X172048376Y-100170164D01*
X172105922Y-100170515D01*
X172176747Y-100170948D01*
X172308810Y-100133204D01*
X172368749Y-100095385D01*
X172437035Y-100075951D01*
X172504515Y-100096213D01*
X172557806Y-100130755D01*
X172689398Y-100170109D01*
X172698374Y-100170164D01*
X172698375Y-100170164D01*
X172755921Y-100170515D01*
X172826746Y-100170948D01*
X172958809Y-100133204D01*
X172966400Y-100128415D01*
X173067378Y-100064702D01*
X173074970Y-100059912D01*
X173165891Y-99956963D01*
X173224264Y-99832634D01*
X173225644Y-99823772D01*
X173225645Y-99823768D01*
X173239752Y-99733160D01*
X173240500Y-99728357D01*
X173240500Y-98706567D01*
X173225959Y-98605035D01*
X173222246Y-98596868D01*
X173220565Y-98591120D01*
X173215501Y-98555759D01*
X173215501Y-98500465D01*
X173216374Y-98485655D01*
X173220409Y-98451564D01*
X173209764Y-98393276D01*
X173209120Y-98389408D01*
X173208369Y-98384413D01*
X173200316Y-98330850D01*
X173197163Y-98324283D01*
X173195854Y-98317118D01*
X173186336Y-98298794D01*
X173168555Y-98264565D01*
X173166786Y-98261024D01*
X173145234Y-98216141D01*
X173145232Y-98216138D01*
X173141155Y-98207648D01*
X173136265Y-98202358D01*
X173136160Y-98202203D01*
X173132853Y-98195836D01*
X173128507Y-98190747D01*
X173090925Y-98153165D01*
X173087495Y-98149599D01*
X173066726Y-98127131D01*
X173048384Y-98107289D01*
X173041984Y-98103571D01*
X173035724Y-98097964D01*
X172684749Y-97746989D01*
X172674894Y-97735900D01*
X172673696Y-97734380D01*
X172653641Y-97708941D01*
X172609818Y-97678653D01*
X172604906Y-97675258D01*
X172601713Y-97672976D01*
X172554076Y-97637791D01*
X172547203Y-97635377D01*
X172541211Y-97631236D01*
X172484722Y-97613371D01*
X172481001Y-97612129D01*
X172425126Y-97592507D01*
X172417922Y-97592224D01*
X172417751Y-97592191D01*
X172410903Y-97590025D01*
X172404232Y-97589500D01*
X172351062Y-97589500D01*
X172346116Y-97589403D01*
X172345224Y-97589368D01*
X172288563Y-97587142D01*
X172281408Y-97589039D01*
X172273033Y-97589500D01*
X170801450Y-97589500D01*
X170733329Y-97569498D01*
X170712355Y-97552595D01*
X170692405Y-97532645D01*
X170658379Y-97470333D01*
X170655500Y-97443550D01*
X170655500Y-97374450D01*
X170675502Y-97306329D01*
X170692405Y-97285355D01*
X170839355Y-97138405D01*
X170901667Y-97104379D01*
X170928450Y-97101500D01*
X171796544Y-97101500D01*
X171811354Y-97102373D01*
X171845438Y-97106407D01*
X171854702Y-97104715D01*
X171854705Y-97104715D01*
X171903680Y-97095771D01*
X171907582Y-97095122D01*
X171956836Y-97087716D01*
X171956839Y-97087715D01*
X171966151Y-97086315D01*
X171972718Y-97083162D01*
X171979883Y-97081853D01*
X172032467Y-97054538D01*
X172035957Y-97052795D01*
X172089353Y-97027154D01*
X172094648Y-97022259D01*
X172094787Y-97022166D01*
X172101166Y-97018852D01*
X172106254Y-97014506D01*
X172143836Y-96976924D01*
X172147402Y-96973494D01*
X172171621Y-96951106D01*
X172189712Y-96934383D01*
X172193430Y-96927983D01*
X172199037Y-96921723D01*
X173444705Y-95676055D01*
X173507017Y-95642029D01*
X173577832Y-95647094D01*
X173634668Y-95689641D01*
X173659479Y-95756161D01*
X173659800Y-95765150D01*
X173659800Y-98439071D01*
X173647855Y-98492619D01*
X173645094Y-98498500D01*
X173601609Y-98591120D01*
X173597738Y-98599364D01*
X173596358Y-98608226D01*
X173596357Y-98608230D01*
X173590806Y-98643885D01*
X173581502Y-98703641D01*
X173581502Y-99725431D01*
X173582138Y-99729869D01*
X173592790Y-99804246D01*
X173596043Y-99826963D01*
X173599758Y-99835133D01*
X173599758Y-99835134D01*
X173648501Y-99942339D01*
X173659800Y-99994490D01*
X173659800Y-100573500D01*
X173639798Y-100641621D01*
X173586142Y-100688114D01*
X173533800Y-100699500D01*
X139426500Y-100699500D01*
X139358379Y-100679498D01*
X139311886Y-100625842D01*
X139300500Y-100573500D01*
X139300500Y-88708819D01*
X142747500Y-88708819D01*
X142747501Y-89599180D01*
X142750335Y-89635204D01*
X142752130Y-89641381D01*
X142752131Y-89641387D01*
X142789255Y-89769168D01*
X142795131Y-89789393D01*
X142876865Y-89927598D01*
X142990402Y-90041135D01*
X142997223Y-90045169D01*
X143027868Y-90063292D01*
X143128607Y-90122869D01*
X143136218Y-90125080D01*
X143136220Y-90125081D01*
X143276619Y-90165871D01*
X143276624Y-90165872D01*
X143282796Y-90167665D01*
X143304419Y-90169367D01*
X143316362Y-90170307D01*
X143316371Y-90170307D01*
X143318819Y-90170500D01*
X143763639Y-90170500D01*
X144209180Y-90170499D01*
X144228423Y-90168985D01*
X144238786Y-90168170D01*
X144238787Y-90168170D01*
X144245204Y-90167665D01*
X144251384Y-90165870D01*
X144251387Y-90165869D01*
X144391780Y-90125081D01*
X144391782Y-90125080D01*
X144399393Y-90122869D01*
X144500133Y-90063292D01*
X144530777Y-90045169D01*
X144537598Y-90041135D01*
X144651135Y-89927598D01*
X144732869Y-89789393D01*
X144735748Y-89779484D01*
X144775871Y-89641381D01*
X144775872Y-89641376D01*
X144777665Y-89635204D01*
X144779367Y-89613581D01*
X144780307Y-89601638D01*
X144780307Y-89601629D01*
X144780500Y-89599181D01*
X144780499Y-88708820D01*
X144777665Y-88672796D01*
X144775252Y-88664488D01*
X144735081Y-88526220D01*
X144735080Y-88526218D01*
X144732869Y-88518607D01*
X144686407Y-88440043D01*
X144655169Y-88387223D01*
X144651135Y-88380402D01*
X144537598Y-88266865D01*
X144530777Y-88262831D01*
X144406216Y-88189166D01*
X144406215Y-88189166D01*
X144399393Y-88185131D01*
X144391782Y-88182920D01*
X144391780Y-88182919D01*
X144251381Y-88142129D01*
X144251376Y-88142128D01*
X144245204Y-88140335D01*
X144223581Y-88138633D01*
X144211638Y-88137693D01*
X144211629Y-88137693D01*
X144209181Y-88137500D01*
X143764361Y-88137500D01*
X143318820Y-88137501D01*
X143299577Y-88139015D01*
X143289214Y-88139830D01*
X143289213Y-88139830D01*
X143282796Y-88140335D01*
X143276616Y-88142130D01*
X143276613Y-88142131D01*
X143136220Y-88182919D01*
X143136218Y-88182920D01*
X143128607Y-88185131D01*
X143121785Y-88189166D01*
X143121784Y-88189166D01*
X142997223Y-88262831D01*
X142990402Y-88266865D01*
X142876865Y-88380402D01*
X142872831Y-88387223D01*
X142841594Y-88440043D01*
X142795131Y-88518607D01*
X142792920Y-88526218D01*
X142792919Y-88526220D01*
X142752129Y-88666619D01*
X142752128Y-88666624D01*
X142750335Y-88672796D01*
X142749831Y-88679206D01*
X142747694Y-88706356D01*
X142747500Y-88708819D01*
X139300500Y-88708819D01*
X139300500Y-78897070D01*
X141093500Y-78897070D01*
X141100036Y-78957236D01*
X141102810Y-78964635D01*
X141143738Y-79073810D01*
X141149507Y-79089199D01*
X141234026Y-79201974D01*
X141241206Y-79207355D01*
X141330564Y-79274324D01*
X141373080Y-79331183D01*
X141381000Y-79375151D01*
X141381000Y-84651044D01*
X141380127Y-84665853D01*
X141376093Y-84699938D01*
X141377785Y-84709202D01*
X141377785Y-84709205D01*
X141386729Y-84758180D01*
X141387378Y-84762082D01*
X141394736Y-84811014D01*
X141396185Y-84820651D01*
X141399338Y-84827218D01*
X141400647Y-84834383D01*
X141427962Y-84886967D01*
X141429705Y-84890457D01*
X141455346Y-84943853D01*
X141460241Y-84949148D01*
X141460334Y-84949287D01*
X141463648Y-84955666D01*
X141467994Y-84960754D01*
X141505576Y-84998336D01*
X141509006Y-85001901D01*
X141548117Y-85044212D01*
X141554517Y-85047930D01*
X141560777Y-85053537D01*
X142710595Y-86203355D01*
X142744621Y-86265667D01*
X142747500Y-86292450D01*
X142747501Y-86678220D01*
X142747501Y-87059180D01*
X142750335Y-87095204D01*
X142752130Y-87101381D01*
X142752131Y-87101387D01*
X142770443Y-87164417D01*
X142795131Y-87249393D01*
X142799166Y-87256215D01*
X142799166Y-87256216D01*
X142840259Y-87325700D01*
X142876865Y-87387598D01*
X142990402Y-87501135D01*
X142997223Y-87505169D01*
X143031292Y-87525317D01*
X143128607Y-87582869D01*
X143136218Y-87585080D01*
X143136220Y-87585081D01*
X143276619Y-87625871D01*
X143276624Y-87625872D01*
X143282796Y-87627665D01*
X143304419Y-87629367D01*
X143316362Y-87630307D01*
X143316371Y-87630307D01*
X143318819Y-87630500D01*
X143763639Y-87630500D01*
X144209180Y-87630499D01*
X144228423Y-87628985D01*
X144238786Y-87628170D01*
X144238787Y-87628170D01*
X144245204Y-87627665D01*
X144251384Y-87625870D01*
X144251387Y-87625869D01*
X144391780Y-87585081D01*
X144391782Y-87585080D01*
X144399393Y-87582869D01*
X144496709Y-87525317D01*
X144530777Y-87505169D01*
X144537598Y-87501135D01*
X144651135Y-87387598D01*
X144687741Y-87325700D01*
X144728834Y-87256216D01*
X144728834Y-87256215D01*
X144732869Y-87249393D01*
X144735081Y-87241780D01*
X144775871Y-87101381D01*
X144775872Y-87101376D01*
X144777665Y-87095204D01*
X144779367Y-87073581D01*
X144780307Y-87061638D01*
X144780307Y-87061629D01*
X144780500Y-87059181D01*
X144780499Y-86168820D01*
X144777665Y-86132796D01*
X144775252Y-86124488D01*
X144735081Y-85986220D01*
X144735080Y-85986218D01*
X144732869Y-85978607D01*
X144686407Y-85900043D01*
X144655169Y-85847223D01*
X144651135Y-85840402D01*
X144537598Y-85726865D01*
X144527613Y-85720960D01*
X144406216Y-85649166D01*
X144406215Y-85649166D01*
X144399393Y-85645131D01*
X144391782Y-85642920D01*
X144391780Y-85642919D01*
X144251381Y-85602129D01*
X144251376Y-85602128D01*
X144245204Y-85600335D01*
X144223581Y-85598633D01*
X144211638Y-85597693D01*
X144211629Y-85597693D01*
X144209181Y-85597500D01*
X144172190Y-85597500D01*
X143442451Y-85597501D01*
X143374330Y-85577499D01*
X143353356Y-85560596D01*
X143062659Y-85269899D01*
X143028633Y-85207587D01*
X143033698Y-85136772D01*
X143076245Y-85079936D01*
X143142765Y-85055125D01*
X143186906Y-85059807D01*
X143276616Y-85085870D01*
X143276620Y-85085871D01*
X143282796Y-85087665D01*
X143304419Y-85089367D01*
X143316362Y-85090307D01*
X143316371Y-85090307D01*
X143318819Y-85090500D01*
X143763639Y-85090500D01*
X144209180Y-85090499D01*
X144228423Y-85088985D01*
X144238786Y-85088170D01*
X144238787Y-85088170D01*
X144245204Y-85087665D01*
X144251384Y-85085870D01*
X144251387Y-85085869D01*
X144391780Y-85045081D01*
X144391782Y-85045080D01*
X144399393Y-85042869D01*
X144474695Y-84998336D01*
X144530777Y-84965169D01*
X144537598Y-84961135D01*
X144651135Y-84847598D01*
X144668954Y-84817468D01*
X144728834Y-84716216D01*
X144728834Y-84716215D01*
X144732869Y-84709393D01*
X144735616Y-84699938D01*
X144775871Y-84561381D01*
X144775872Y-84561376D01*
X144777665Y-84555204D01*
X144779367Y-84533581D01*
X144780307Y-84521638D01*
X144780307Y-84521629D01*
X144780500Y-84519181D01*
X144780499Y-83628820D01*
X144777665Y-83592796D01*
X144775252Y-83584488D01*
X144735081Y-83446220D01*
X144735080Y-83446218D01*
X144732869Y-83438607D01*
X144686407Y-83360043D01*
X144655169Y-83307223D01*
X144651135Y-83300402D01*
X144537598Y-83186865D01*
X144530777Y-83182831D01*
X144406216Y-83109166D01*
X144406215Y-83109166D01*
X144399393Y-83105131D01*
X144391782Y-83102920D01*
X144391780Y-83102919D01*
X144251381Y-83062129D01*
X144251376Y-83062128D01*
X144245204Y-83060335D01*
X144223581Y-83058633D01*
X144211638Y-83057693D01*
X144211629Y-83057693D01*
X144209181Y-83057500D01*
X143764361Y-83057500D01*
X143318820Y-83057501D01*
X143299577Y-83059015D01*
X143289214Y-83059830D01*
X143289213Y-83059830D01*
X143282796Y-83060335D01*
X143276616Y-83062130D01*
X143276613Y-83062131D01*
X143136220Y-83102919D01*
X143136218Y-83102920D01*
X143128607Y-83105131D01*
X143121785Y-83109166D01*
X143121784Y-83109166D01*
X142997223Y-83182831D01*
X142990402Y-83186865D01*
X142876865Y-83300402D01*
X142872831Y-83307223D01*
X142841594Y-83360043D01*
X142795131Y-83438607D01*
X142792920Y-83446218D01*
X142792919Y-83446220D01*
X142752129Y-83586619D01*
X142752128Y-83586624D01*
X142750335Y-83592796D01*
X142749831Y-83599206D01*
X142747694Y-83626356D01*
X142747500Y-83628819D01*
X142747501Y-84519180D01*
X142750335Y-84555204D01*
X142752132Y-84561389D01*
X142778193Y-84651094D01*
X142777990Y-84722090D01*
X142739436Y-84781706D01*
X142674771Y-84811014D01*
X142604526Y-84800710D01*
X142568101Y-84775341D01*
X142326905Y-84534145D01*
X142292879Y-84471833D01*
X142290000Y-84445050D01*
X142290000Y-79375151D01*
X142310002Y-79307030D01*
X142340436Y-79274324D01*
X142429794Y-79207355D01*
X142436974Y-79201974D01*
X142521493Y-79089199D01*
X142527263Y-79073810D01*
X142568190Y-78964635D01*
X142570964Y-78957236D01*
X142577500Y-78897070D01*
X142918500Y-78897070D01*
X142925036Y-78957236D01*
X142927810Y-78964635D01*
X142968738Y-79073810D01*
X142974507Y-79089199D01*
X143059026Y-79201974D01*
X143171801Y-79286493D01*
X143180202Y-79289643D01*
X143180205Y-79289644D01*
X143258613Y-79319037D01*
X143303764Y-79335964D01*
X143363930Y-79342500D01*
X143957070Y-79342500D01*
X144017236Y-79335964D01*
X144062387Y-79319037D01*
X144140795Y-79289644D01*
X144140798Y-79289643D01*
X144149199Y-79286493D01*
X144261974Y-79201974D01*
X144324956Y-79117936D01*
X144381815Y-79075420D01*
X144425783Y-79067500D01*
X145007217Y-79067500D01*
X145075338Y-79087502D01*
X145108044Y-79117936D01*
X145171026Y-79201974D01*
X145178206Y-79207355D01*
X145267564Y-79274324D01*
X145310080Y-79331183D01*
X145318000Y-79375151D01*
X145318000Y-80206044D01*
X145317127Y-80220853D01*
X145313093Y-80254938D01*
X145314785Y-80264202D01*
X145314785Y-80264205D01*
X145323729Y-80313180D01*
X145324378Y-80317082D01*
X145331784Y-80366336D01*
X145333185Y-80375651D01*
X145336338Y-80382218D01*
X145337647Y-80389383D01*
X145364962Y-80441967D01*
X145366705Y-80445457D01*
X145392346Y-80498853D01*
X145397241Y-80504148D01*
X145397334Y-80504287D01*
X145400648Y-80510666D01*
X145404994Y-80515754D01*
X145442576Y-80553336D01*
X145446006Y-80556901D01*
X145485117Y-80599212D01*
X145491517Y-80602930D01*
X145497777Y-80608537D01*
X147086741Y-82197501D01*
X147096596Y-82208590D01*
X147117849Y-82235549D01*
X147125596Y-82240903D01*
X147125600Y-82240907D01*
X147166562Y-82269218D01*
X147169782Y-82271519D01*
X147209832Y-82301100D01*
X147209834Y-82301101D01*
X147217413Y-82306699D01*
X147224288Y-82309113D01*
X147230279Y-82313254D01*
X147286791Y-82331126D01*
X147290475Y-82332356D01*
X147337474Y-82348861D01*
X147337478Y-82348862D01*
X147346363Y-82351982D01*
X147353563Y-82352265D01*
X147353739Y-82352299D01*
X147360587Y-82354465D01*
X147367258Y-82354990D01*
X147420438Y-82354990D01*
X147425384Y-82355087D01*
X147482927Y-82357348D01*
X147490082Y-82355451D01*
X147498457Y-82354990D01*
X148070619Y-82354990D01*
X148138740Y-82374992D01*
X148182585Y-82423200D01*
X148261001Y-82575128D01*
X148397270Y-82752717D01*
X148401419Y-82756492D01*
X148558687Y-82899595D01*
X148558690Y-82899597D01*
X148562834Y-82903368D01*
X148567586Y-82906349D01*
X148747703Y-83019337D01*
X148747707Y-83019339D01*
X148752459Y-83022320D01*
X148829023Y-83053099D01*
X148884765Y-83097063D01*
X148907890Y-83164188D01*
X148891053Y-83233159D01*
X148836268Y-83283730D01*
X148767416Y-83316571D01*
X148683147Y-83356765D01*
X148678586Y-83360042D01*
X148678585Y-83360043D01*
X148558658Y-83446220D01*
X148501365Y-83487389D01*
X148497460Y-83491419D01*
X148364308Y-83628820D01*
X148345587Y-83648138D01*
X148342460Y-83652792D01*
X148223864Y-83829281D01*
X148223861Y-83829286D01*
X148220738Y-83833934D01*
X148130764Y-84038901D01*
X148129455Y-84044352D01*
X148129454Y-84044356D01*
X148108422Y-84131963D01*
X148078508Y-84256563D01*
X148065622Y-84480038D01*
X148092514Y-84702263D01*
X148158334Y-84916214D01*
X148160904Y-84921194D01*
X148160906Y-84921198D01*
X148256738Y-85106868D01*
X148261001Y-85115128D01*
X148397270Y-85292717D01*
X148414889Y-85308749D01*
X148558687Y-85439595D01*
X148558690Y-85439597D01*
X148562834Y-85443368D01*
X148567586Y-85446349D01*
X148747703Y-85559337D01*
X148747707Y-85559339D01*
X148752459Y-85562320D01*
X148829023Y-85593099D01*
X148884765Y-85637063D01*
X148907890Y-85704188D01*
X148891053Y-85773159D01*
X148836268Y-85823730D01*
X148767416Y-85856571D01*
X148683147Y-85896765D01*
X148678586Y-85900042D01*
X148678585Y-85900043D01*
X148558658Y-85986220D01*
X148501365Y-86027389D01*
X148497460Y-86031419D01*
X148364308Y-86168820D01*
X148345587Y-86188138D01*
X148342460Y-86192792D01*
X148223864Y-86369281D01*
X148223861Y-86369286D01*
X148220738Y-86373934D01*
X148130764Y-86578901D01*
X148129455Y-86584352D01*
X148129454Y-86584356D01*
X148105657Y-86683479D01*
X148078508Y-86796563D01*
X148065622Y-87020038D01*
X148092514Y-87242263D01*
X148158334Y-87456214D01*
X148160904Y-87461194D01*
X148160906Y-87461198D01*
X148248850Y-87631586D01*
X148261001Y-87655128D01*
X148397270Y-87832717D01*
X148436011Y-87867968D01*
X148558687Y-87979595D01*
X148558690Y-87979597D01*
X148562834Y-87983368D01*
X148567586Y-87986349D01*
X148747703Y-88099337D01*
X148747707Y-88099339D01*
X148752459Y-88102320D01*
X148829023Y-88133099D01*
X148884765Y-88177063D01*
X148907890Y-88244188D01*
X148891053Y-88313159D01*
X148836268Y-88363730D01*
X148709283Y-88424299D01*
X148683147Y-88436765D01*
X148678586Y-88440042D01*
X148678585Y-88440043D01*
X148558658Y-88526220D01*
X148501365Y-88567389D01*
X148497460Y-88571419D01*
X148351336Y-88722206D01*
X148345587Y-88728138D01*
X148342460Y-88732792D01*
X148223864Y-88909281D01*
X148223861Y-88909286D01*
X148220738Y-88913934D01*
X148130764Y-89118901D01*
X148078508Y-89336563D01*
X148078185Y-89342168D01*
X148069860Y-89486549D01*
X148065622Y-89560038D01*
X148092514Y-89782263D01*
X148133849Y-89916624D01*
X148157130Y-89992301D01*
X148158042Y-90063292D01*
X148125795Y-90118445D01*
X146466989Y-91777251D01*
X146455900Y-91787106D01*
X146428941Y-91808359D01*
X146423587Y-91816106D01*
X146395258Y-91857094D01*
X146392976Y-91860287D01*
X146357791Y-91907924D01*
X146355377Y-91914797D01*
X146351236Y-91920789D01*
X146337415Y-91964491D01*
X146333374Y-91977270D01*
X146332129Y-91980999D01*
X146312507Y-92036874D01*
X146312224Y-92044078D01*
X146312191Y-92044249D01*
X146310025Y-92051097D01*
X146309500Y-92057768D01*
X146309500Y-92110938D01*
X146309403Y-92115884D01*
X146307142Y-92173437D01*
X146309039Y-92180592D01*
X146309500Y-92188967D01*
X146309500Y-95774501D01*
X146289498Y-95842622D01*
X146235842Y-95889115D01*
X146183500Y-95900501D01*
X145738934Y-95900501D01*
X145703182Y-95907612D01*
X145676874Y-95912844D01*
X145676872Y-95912845D01*
X145664699Y-95915266D01*
X145654379Y-95922161D01*
X145654378Y-95922162D01*
X145634914Y-95935168D01*
X145580516Y-95971516D01*
X145524266Y-96055699D01*
X145509500Y-96129933D01*
X145509501Y-98180066D01*
X145524266Y-98254301D01*
X145531161Y-98264620D01*
X145531162Y-98264622D01*
X145566884Y-98318083D01*
X145580516Y-98338484D01*
X145664699Y-98394734D01*
X145738933Y-98409500D01*
X146763834Y-98409500D01*
X147789066Y-98409499D01*
X147824818Y-98402388D01*
X147851126Y-98397156D01*
X147851128Y-98397155D01*
X147863301Y-98394734D01*
X147873621Y-98387839D01*
X147873622Y-98387838D01*
X147937168Y-98345377D01*
X147947484Y-98338484D01*
X148003734Y-98254301D01*
X148018500Y-98180067D01*
X148018500Y-97864131D01*
X148038502Y-97796010D01*
X148092158Y-97749517D01*
X148162432Y-97739413D01*
X148227012Y-97768907D01*
X148256467Y-97806344D01*
X148258428Y-97810144D01*
X148258430Y-97810147D01*
X148261001Y-97815128D01*
X148397270Y-97992717D01*
X148401419Y-97996492D01*
X148558687Y-98139595D01*
X148558690Y-98139597D01*
X148562834Y-98143368D01*
X148567586Y-98146349D01*
X148747703Y-98259337D01*
X148747707Y-98259339D01*
X148752459Y-98262320D01*
X148960152Y-98345812D01*
X149179347Y-98391205D01*
X149183958Y-98391471D01*
X149183959Y-98391471D01*
X149234324Y-98394375D01*
X149234328Y-98394375D01*
X149236147Y-98394480D01*
X150130156Y-98394480D01*
X150132943Y-98394231D01*
X150132949Y-98394231D01*
X150204577Y-98387838D01*
X150296320Y-98379650D01*
X150512233Y-98320583D01*
X150517291Y-98318171D01*
X150517295Y-98318169D01*
X150709206Y-98226632D01*
X150709207Y-98226631D01*
X150714273Y-98224215D01*
X150725509Y-98216141D01*
X150891495Y-98096868D01*
X150891497Y-98096866D01*
X150896055Y-98093591D01*
X150993810Y-97992717D01*
X151047930Y-97936870D01*
X151047932Y-97936867D01*
X151051833Y-97932842D01*
X151153147Y-97782070D01*
X151173556Y-97751699D01*
X151173559Y-97751694D01*
X151176682Y-97747046D01*
X151182242Y-97734380D01*
X151232301Y-97620344D01*
X151277997Y-97566009D01*
X151347674Y-97544990D01*
X152394350Y-97544990D01*
X152462471Y-97564992D01*
X152483445Y-97581895D01*
X154420585Y-99519035D01*
X154420589Y-99519038D01*
X154443377Y-99541826D01*
X154461300Y-99550958D01*
X154463260Y-99551957D01*
X154480117Y-99562287D01*
X154498171Y-99575404D01*
X154507601Y-99578468D01*
X154507603Y-99578469D01*
X154519395Y-99582301D01*
X154537657Y-99589865D01*
X154548706Y-99595495D01*
X154548710Y-99595496D01*
X154557545Y-99599998D01*
X154567343Y-99601550D01*
X154567344Y-99601550D01*
X154573463Y-99602519D01*
X154579583Y-99603488D01*
X154598814Y-99608105D01*
X154620034Y-99615000D01*
X167609614Y-99615000D01*
X167677735Y-99635002D01*
X167719832Y-99683584D01*
X167721045Y-99682920D01*
X167724115Y-99688528D01*
X167724228Y-99688658D01*
X167724358Y-99688972D01*
X167725356Y-99690795D01*
X167728507Y-99699199D01*
X167813026Y-99811974D01*
X167925801Y-99896493D01*
X167934202Y-99899643D01*
X167934205Y-99899644D01*
X168012613Y-99929037D01*
X168057764Y-99945964D01*
X168117930Y-99952500D01*
X168686070Y-99952500D01*
X168746236Y-99945964D01*
X168791387Y-99929037D01*
X168869795Y-99899644D01*
X168869798Y-99899643D01*
X168878199Y-99896493D01*
X168990974Y-99811974D01*
X169075493Y-99699199D01*
X169079494Y-99688528D01*
X169122190Y-99574635D01*
X169124964Y-99567236D01*
X169131500Y-99507070D01*
X169131500Y-98913930D01*
X169124964Y-98853764D01*
X169075493Y-98721801D01*
X168990974Y-98609026D01*
X168878199Y-98524507D01*
X168869798Y-98521357D01*
X168869795Y-98521356D01*
X168774562Y-98485655D01*
X168746236Y-98475036D01*
X168686070Y-98468500D01*
X168117930Y-98468500D01*
X168057764Y-98475036D01*
X168029438Y-98485655D01*
X167934205Y-98521356D01*
X167934202Y-98521357D01*
X167925801Y-98524507D01*
X167813026Y-98609026D01*
X167728507Y-98721801D01*
X167725356Y-98730206D01*
X167721045Y-98738080D01*
X167718317Y-98736586D01*
X167684940Y-98781005D01*
X167618374Y-98805695D01*
X167609614Y-98806000D01*
X154903840Y-98806000D01*
X154835719Y-98785998D01*
X154814745Y-98769095D01*
X152877605Y-96831955D01*
X152877601Y-96831952D01*
X152854813Y-96809164D01*
X152834934Y-96799035D01*
X152818079Y-96788706D01*
X152808043Y-96781415D01*
X152800019Y-96775585D01*
X152778794Y-96768689D01*
X152760528Y-96761123D01*
X152740645Y-96750992D01*
X152718603Y-96747501D01*
X152699377Y-96742885D01*
X152687590Y-96739055D01*
X152687588Y-96739055D01*
X152678156Y-96735990D01*
X151352282Y-96735990D01*
X151284161Y-96715988D01*
X151240832Y-96663865D01*
X151239086Y-96664766D01*
X151138990Y-96470833D01*
X151138989Y-96470832D01*
X151136419Y-96465852D01*
X151000150Y-96288263D01*
X150895592Y-96193123D01*
X150838733Y-96141385D01*
X150838730Y-96141383D01*
X150834586Y-96137612D01*
X150822345Y-96129933D01*
X150649717Y-96021643D01*
X150649713Y-96021641D01*
X150644961Y-96018660D01*
X150568397Y-95987881D01*
X150512655Y-95943917D01*
X150489530Y-95876792D01*
X150506367Y-95807821D01*
X150561152Y-95757250D01*
X150709206Y-95686632D01*
X150709207Y-95686631D01*
X150714273Y-95684215D01*
X150822635Y-95606349D01*
X150891495Y-95556868D01*
X150891497Y-95556866D01*
X150896055Y-95553591D01*
X150998123Y-95448266D01*
X151047930Y-95396870D01*
X151047932Y-95396867D01*
X151051833Y-95392842D01*
X151108480Y-95308542D01*
X151173556Y-95211699D01*
X151173559Y-95211694D01*
X151176682Y-95207046D01*
X151266656Y-95002079D01*
X151275473Y-94965356D01*
X151317602Y-94789874D01*
X151317602Y-94789873D01*
X151318912Y-94784417D01*
X151327237Y-94640038D01*
X151331475Y-94566549D01*
X151331475Y-94566546D01*
X151331798Y-94560942D01*
X151304906Y-94338717D01*
X151239086Y-94124766D01*
X151219715Y-94087234D01*
X151138990Y-93930833D01*
X151138989Y-93930832D01*
X151136419Y-93925852D01*
X151000150Y-93748263D01*
X150936339Y-93690199D01*
X150838733Y-93601385D01*
X150838730Y-93601383D01*
X150834586Y-93597612D01*
X150804913Y-93578998D01*
X150649717Y-93481643D01*
X150649713Y-93481641D01*
X150644961Y-93478660D01*
X150568397Y-93447881D01*
X150512655Y-93403917D01*
X150489530Y-93336792D01*
X150506367Y-93267821D01*
X150561152Y-93217250D01*
X150709206Y-93146632D01*
X150709207Y-93146631D01*
X150714273Y-93144215D01*
X150718835Y-93140937D01*
X150891495Y-93016868D01*
X150891497Y-93016866D01*
X150896055Y-93013591D01*
X151051833Y-92852842D01*
X151134280Y-92730147D01*
X151173556Y-92671699D01*
X151173559Y-92671694D01*
X151176682Y-92667046D01*
X151266656Y-92462079D01*
X151270130Y-92447612D01*
X151317602Y-92249874D01*
X151317602Y-92249873D01*
X151318912Y-92244417D01*
X151325320Y-92133282D01*
X151331475Y-92026549D01*
X151331475Y-92026546D01*
X151331798Y-92020942D01*
X151304906Y-91798717D01*
X151239086Y-91584766D01*
X151230823Y-91568755D01*
X151138990Y-91390833D01*
X151138989Y-91390832D01*
X151136419Y-91385852D01*
X151000150Y-91208263D01*
X150936339Y-91150199D01*
X150838733Y-91061385D01*
X150838730Y-91061383D01*
X150834586Y-91057612D01*
X150717848Y-90984382D01*
X150649717Y-90941643D01*
X150649713Y-90941641D01*
X150644961Y-90938660D01*
X150568397Y-90907881D01*
X150512655Y-90863917D01*
X150489530Y-90796792D01*
X150506367Y-90727821D01*
X150561152Y-90677250D01*
X150709206Y-90606632D01*
X150709207Y-90606631D01*
X150714273Y-90604215D01*
X150720076Y-90600045D01*
X150891495Y-90476868D01*
X150891497Y-90476866D01*
X150896055Y-90473591D01*
X151039399Y-90325673D01*
X151047930Y-90316870D01*
X151047932Y-90316867D01*
X151051833Y-90312842D01*
X151134280Y-90190147D01*
X151173556Y-90131699D01*
X151173559Y-90131694D01*
X151176682Y-90127046D01*
X151221685Y-90024526D01*
X151267380Y-89970191D01*
X151335198Y-89949186D01*
X151403607Y-89968180D01*
X151450887Y-90021144D01*
X151460572Y-90050267D01*
X151499391Y-90242787D01*
X151499393Y-90242792D01*
X151500609Y-90248825D01*
X151502975Y-90254509D01*
X151565409Y-90404497D01*
X151579138Y-90437480D01*
X151582565Y-90442599D01*
X151582567Y-90442603D01*
X151660665Y-90559265D01*
X151692815Y-90607290D01*
X151837310Y-90751785D01*
X151871212Y-90774480D01*
X152001997Y-90862033D01*
X152002001Y-90862035D01*
X152007120Y-90865462D01*
X152012805Y-90867829D01*
X152012808Y-90867830D01*
X152109033Y-90907884D01*
X152195775Y-90943991D01*
X152201808Y-90945207D01*
X152201813Y-90945209D01*
X152322901Y-90969624D01*
X152396090Y-90984382D01*
X152400761Y-90984619D01*
X152400774Y-90984619D01*
X152402368Y-90984700D01*
X154226432Y-90984700D01*
X154228031Y-90984619D01*
X154228041Y-90984619D01*
X154228048Y-90984618D01*
X154232710Y-90984382D01*
X154305899Y-90969624D01*
X154426987Y-90945209D01*
X154426992Y-90945207D01*
X154433025Y-90943991D01*
X154519767Y-90907884D01*
X154615992Y-90867830D01*
X154615995Y-90867829D01*
X154621680Y-90865462D01*
X154626799Y-90862035D01*
X154626803Y-90862033D01*
X154757588Y-90774480D01*
X154791490Y-90751785D01*
X154935985Y-90607290D01*
X154968135Y-90559265D01*
X155046233Y-90442603D01*
X155046235Y-90442599D01*
X155049662Y-90437480D01*
X155063392Y-90404497D01*
X155125825Y-90254509D01*
X155128191Y-90248825D01*
X155129407Y-90242792D01*
X155129409Y-90242787D01*
X155167657Y-90053096D01*
X155168582Y-90048510D01*
X155168818Y-90043848D01*
X155168819Y-90043841D01*
X155168819Y-90043822D01*
X155168900Y-90042232D01*
X155168900Y-89106438D01*
X155188902Y-89038317D01*
X155228791Y-88999174D01*
X155232361Y-88996974D01*
X155243134Y-88991040D01*
X155264219Y-88980733D01*
X155274669Y-88975625D01*
X155282578Y-88967099D01*
X155285316Y-88965066D01*
X155287846Y-88962772D01*
X155297748Y-88956668D01*
X155304787Y-88947412D01*
X155304792Y-88947407D01*
X155319007Y-88928713D01*
X155326926Y-88919292D01*
X155342890Y-88902082D01*
X155350801Y-88893554D01*
X155355110Y-88882753D01*
X155356929Y-88879876D01*
X155358466Y-88876819D01*
X155365508Y-88867559D01*
X155375274Y-88833832D01*
X155379273Y-88822186D01*
X155392283Y-88789578D01*
X155392900Y-88783285D01*
X155392900Y-88780203D01*
X155393050Y-88777133D01*
X155393166Y-88777139D01*
X155393465Y-88771017D01*
X155396646Y-88760032D01*
X155393370Y-88722206D01*
X155392900Y-88711334D01*
X155392900Y-87877574D01*
X155393465Y-87866017D01*
X155396646Y-87855032D01*
X155393370Y-87817206D01*
X155392900Y-87806334D01*
X155392900Y-87797252D01*
X155391676Y-87790679D01*
X155390016Y-87778480D01*
X155387991Y-87755095D01*
X155387991Y-87755094D01*
X155386987Y-87743504D01*
X155381880Y-87733055D01*
X155380968Y-87729767D01*
X155379739Y-87726583D01*
X155377609Y-87715147D01*
X155359179Y-87685248D01*
X155353240Y-87674466D01*
X155342933Y-87653381D01*
X155337825Y-87642931D01*
X155329299Y-87635022D01*
X155327266Y-87632284D01*
X155324972Y-87629754D01*
X155318868Y-87619852D01*
X155309612Y-87612813D01*
X155309607Y-87612808D01*
X155290913Y-87598593D01*
X155281492Y-87590674D01*
X155264282Y-87574710D01*
X155264283Y-87574710D01*
X155255754Y-87566799D01*
X155244953Y-87562490D01*
X155242076Y-87560671D01*
X155239019Y-87559134D01*
X155229759Y-87552092D01*
X155196032Y-87542326D01*
X155184392Y-87538329D01*
X155151778Y-87525317D01*
X155145485Y-87524700D01*
X155142403Y-87524700D01*
X155139333Y-87524550D01*
X155139339Y-87524434D01*
X155133217Y-87524135D01*
X155122232Y-87520954D01*
X155084406Y-87524230D01*
X155073534Y-87524700D01*
X154779109Y-87524700D01*
X154709016Y-87503404D01*
X154705627Y-87501135D01*
X154621680Y-87444938D01*
X154615995Y-87442571D01*
X154615992Y-87442570D01*
X154486156Y-87388525D01*
X154430953Y-87343880D01*
X154408650Y-87276478D01*
X154426328Y-87207717D01*
X154478374Y-87159429D01*
X154534577Y-87146200D01*
X155150285Y-87146200D01*
X155165524Y-87141725D01*
X155166729Y-87140335D01*
X155168400Y-87132652D01*
X155168400Y-86514835D01*
X155168320Y-86511650D01*
X155168318Y-86511611D01*
X155167156Y-86502353D01*
X155128929Y-86312767D01*
X155125339Y-86301026D01*
X155051588Y-86123850D01*
X155045788Y-86113034D01*
X154939027Y-85953555D01*
X154931234Y-85944068D01*
X154795532Y-85808366D01*
X154786045Y-85800573D01*
X154626566Y-85693812D01*
X154615750Y-85688012D01*
X154438574Y-85614261D01*
X154426833Y-85610671D01*
X154237247Y-85572444D01*
X154227989Y-85571282D01*
X154227950Y-85571280D01*
X154224765Y-85571200D01*
X153586515Y-85571200D01*
X153571276Y-85575675D01*
X153570071Y-85577065D01*
X153568400Y-85584748D01*
X153568400Y-87128085D01*
X153579005Y-87164202D01*
X153579005Y-87235198D01*
X153540621Y-87294924D01*
X153476041Y-87324418D01*
X153458109Y-87325700D01*
X153186400Y-87325700D01*
X153118279Y-87305698D01*
X153071786Y-87252042D01*
X153060400Y-87199700D01*
X153060400Y-85589315D01*
X153055925Y-85574076D01*
X153054535Y-85572871D01*
X153046852Y-85571200D01*
X152404035Y-85571200D01*
X152400850Y-85571280D01*
X152400811Y-85571282D01*
X152391553Y-85572444D01*
X152201967Y-85610671D01*
X152190226Y-85614261D01*
X152013050Y-85688012D01*
X152002234Y-85693812D01*
X151842755Y-85800573D01*
X151833268Y-85808366D01*
X151697566Y-85944068D01*
X151689773Y-85953555D01*
X151583012Y-86113034D01*
X151577212Y-86123850D01*
X151503461Y-86301026D01*
X151499871Y-86312768D01*
X151469692Y-86462438D01*
X151436620Y-86525261D01*
X151374833Y-86560231D01*
X151303949Y-86556246D01*
X151246472Y-86514569D01*
X151234212Y-86495323D01*
X151138990Y-86310833D01*
X151138989Y-86310832D01*
X151136419Y-86305852D01*
X151000150Y-86128263D01*
X150936339Y-86070199D01*
X150838733Y-85981385D01*
X150838730Y-85981383D01*
X150834586Y-85977612D01*
X150829834Y-85974631D01*
X150649717Y-85861643D01*
X150649713Y-85861641D01*
X150644961Y-85858660D01*
X150568397Y-85827881D01*
X150512655Y-85783917D01*
X150489530Y-85716792D01*
X150506367Y-85647821D01*
X150561152Y-85597250D01*
X150709206Y-85526632D01*
X150709207Y-85526631D01*
X150714273Y-85524215D01*
X150822635Y-85446349D01*
X150891495Y-85396868D01*
X150891497Y-85396866D01*
X150896055Y-85393591D01*
X151002770Y-85283471D01*
X151047930Y-85236870D01*
X151047932Y-85236867D01*
X151051833Y-85232842D01*
X151134280Y-85110147D01*
X151173556Y-85051699D01*
X151173559Y-85051694D01*
X151176682Y-85047046D01*
X151180961Y-85037298D01*
X151232301Y-84920344D01*
X151277997Y-84866009D01*
X151347674Y-84844990D01*
X154858150Y-84844990D01*
X154926271Y-84864992D01*
X154947245Y-84881895D01*
X160854806Y-90789455D01*
X160888832Y-90851767D01*
X160890632Y-90862097D01*
X160902172Y-90949754D01*
X160914718Y-90980043D01*
X160948412Y-91061385D01*
X160958045Y-91084642D01*
X161046926Y-91200474D01*
X161053476Y-91205500D01*
X161053479Y-91205503D01*
X161156204Y-91284327D01*
X161162757Y-91289355D01*
X161297646Y-91345228D01*
X161442400Y-91364285D01*
X161450588Y-91363207D01*
X161578966Y-91346306D01*
X161587154Y-91345228D01*
X161722043Y-91289355D01*
X161728596Y-91284327D01*
X161831321Y-91205503D01*
X161831324Y-91205500D01*
X161837874Y-91200474D01*
X161926755Y-91084642D01*
X161936389Y-91061385D01*
X161970082Y-90980043D01*
X161982628Y-90949754D01*
X162001685Y-90805000D01*
X161990108Y-90717063D01*
X161983706Y-90668432D01*
X161983705Y-90668430D01*
X161982628Y-90660246D01*
X161926755Y-90525358D01*
X161837874Y-90409526D01*
X161831324Y-90404500D01*
X161831321Y-90404497D01*
X161728596Y-90325673D01*
X161728594Y-90325672D01*
X161722043Y-90320645D01*
X161587154Y-90264772D01*
X161499503Y-90253233D01*
X161434577Y-90224511D01*
X161426855Y-90217406D01*
X155341413Y-84131963D01*
X155341405Y-84131955D01*
X155341401Y-84131952D01*
X155318613Y-84109164D01*
X155298734Y-84099035D01*
X155281879Y-84088706D01*
X155271843Y-84081415D01*
X155263819Y-84075585D01*
X155242594Y-84068689D01*
X155224328Y-84061123D01*
X155204445Y-84050992D01*
X155182403Y-84047501D01*
X155163177Y-84042885D01*
X155151390Y-84039055D01*
X155151388Y-84039055D01*
X155141956Y-84035990D01*
X151352282Y-84035990D01*
X151284161Y-84015988D01*
X151240832Y-83963865D01*
X151239086Y-83964766D01*
X151138990Y-83770833D01*
X151138989Y-83770832D01*
X151136419Y-83765852D01*
X151000150Y-83588263D01*
X150936339Y-83530199D01*
X150838733Y-83441385D01*
X150838730Y-83441383D01*
X150834586Y-83437612D01*
X150829834Y-83434631D01*
X150649717Y-83321643D01*
X150649713Y-83321641D01*
X150644961Y-83318660D01*
X150568397Y-83287881D01*
X150512655Y-83243917D01*
X150489530Y-83176792D01*
X150506367Y-83107821D01*
X150561152Y-83057250D01*
X150709206Y-82986632D01*
X150709207Y-82986631D01*
X150714273Y-82984215D01*
X150718835Y-82980937D01*
X150891495Y-82856868D01*
X150891497Y-82856866D01*
X150896055Y-82853591D01*
X151020521Y-82725153D01*
X151047930Y-82696870D01*
X151047932Y-82696867D01*
X151051833Y-82692842D01*
X151118147Y-82594156D01*
X151173556Y-82511699D01*
X151173559Y-82511694D01*
X151176682Y-82507046D01*
X151266656Y-82302079D01*
X151274546Y-82269218D01*
X151317602Y-82089874D01*
X151317602Y-82089873D01*
X151318912Y-82084417D01*
X151327237Y-81940038D01*
X164230182Y-81940038D01*
X164257074Y-82162263D01*
X164322894Y-82376214D01*
X164325464Y-82381194D01*
X164325466Y-82381198D01*
X164370323Y-82468106D01*
X164425561Y-82575128D01*
X164561830Y-82752717D01*
X164565979Y-82756492D01*
X164723247Y-82899595D01*
X164723250Y-82899597D01*
X164727394Y-82903368D01*
X164732146Y-82906349D01*
X164912263Y-83019337D01*
X164912267Y-83019339D01*
X164917019Y-83022320D01*
X165124712Y-83105812D01*
X165343907Y-83151205D01*
X165348518Y-83151471D01*
X165348519Y-83151471D01*
X165398884Y-83154375D01*
X165398888Y-83154375D01*
X165400707Y-83154480D01*
X166294716Y-83154480D01*
X166297503Y-83154231D01*
X166297509Y-83154231D01*
X166366735Y-83148052D01*
X166460880Y-83139650D01*
X166676793Y-83080583D01*
X166681851Y-83078171D01*
X166681855Y-83078169D01*
X166873766Y-82986632D01*
X166873767Y-82986631D01*
X166878833Y-82984215D01*
X166883395Y-82980937D01*
X167056055Y-82856868D01*
X167056057Y-82856866D01*
X167060615Y-82853591D01*
X167185081Y-82725153D01*
X167212490Y-82696870D01*
X167212492Y-82696867D01*
X167216393Y-82692842D01*
X167282707Y-82594156D01*
X167338116Y-82511699D01*
X167338119Y-82511694D01*
X167341242Y-82507046D01*
X167431216Y-82302079D01*
X167439106Y-82269218D01*
X167482162Y-82089874D01*
X167482162Y-82089873D01*
X167483472Y-82084417D01*
X167491797Y-81940038D01*
X167496035Y-81866549D01*
X167496035Y-81866546D01*
X167496358Y-81860942D01*
X167469466Y-81638717D01*
X167403646Y-81424766D01*
X167395553Y-81409085D01*
X167303550Y-81230833D01*
X167303549Y-81230832D01*
X167300979Y-81225852D01*
X167164710Y-81048263D01*
X167100899Y-80990199D01*
X167003293Y-80901385D01*
X167003290Y-80901383D01*
X166999146Y-80897612D01*
X166875491Y-80820043D01*
X166814277Y-80781643D01*
X166814273Y-80781641D01*
X166809521Y-80778660D01*
X166601828Y-80695168D01*
X166382633Y-80649775D01*
X166378022Y-80649509D01*
X166378021Y-80649509D01*
X166327656Y-80646605D01*
X166327652Y-80646605D01*
X166325833Y-80646500D01*
X165431824Y-80646500D01*
X165429037Y-80646749D01*
X165429031Y-80646749D01*
X165359805Y-80652928D01*
X165265660Y-80661330D01*
X165049747Y-80720397D01*
X165044689Y-80722809D01*
X165044685Y-80722811D01*
X164852774Y-80814348D01*
X164847707Y-80816765D01*
X164843146Y-80820042D01*
X164843145Y-80820043D01*
X164735197Y-80897612D01*
X164665925Y-80947389D01*
X164510147Y-81108138D01*
X164507020Y-81112792D01*
X164388424Y-81289281D01*
X164388421Y-81289286D01*
X164385298Y-81293934D01*
X164295324Y-81498901D01*
X164294015Y-81504352D01*
X164294014Y-81504356D01*
X164244378Y-81711106D01*
X164243068Y-81716563D01*
X164242745Y-81722168D01*
X164234420Y-81866549D01*
X164230182Y-81940038D01*
X151327237Y-81940038D01*
X151331475Y-81866549D01*
X151331475Y-81866546D01*
X151331798Y-81860942D01*
X151304906Y-81638717D01*
X151239086Y-81424766D01*
X151230993Y-81409085D01*
X151138990Y-81230833D01*
X151138989Y-81230832D01*
X151136419Y-81225852D01*
X151000150Y-81048263D01*
X150936339Y-80990199D01*
X150838733Y-80901385D01*
X150838730Y-80901383D01*
X150834586Y-80897612D01*
X150710931Y-80820043D01*
X150649717Y-80781643D01*
X150649713Y-80781641D01*
X150644961Y-80778660D01*
X150437268Y-80695168D01*
X150218073Y-80649775D01*
X150213462Y-80649509D01*
X150213461Y-80649509D01*
X150163096Y-80646605D01*
X150163092Y-80646605D01*
X150161273Y-80646500D01*
X149267264Y-80646500D01*
X149264477Y-80646749D01*
X149264471Y-80646749D01*
X149195245Y-80652928D01*
X149101100Y-80661330D01*
X148885187Y-80720397D01*
X148880129Y-80722809D01*
X148880125Y-80722811D01*
X148688214Y-80814348D01*
X148683147Y-80816765D01*
X148678586Y-80820042D01*
X148678585Y-80820043D01*
X148570637Y-80897612D01*
X148501365Y-80947389D01*
X148345587Y-81108138D01*
X148220738Y-81293934D01*
X148187067Y-81370639D01*
X148141374Y-81424971D01*
X148071696Y-81445990D01*
X147672940Y-81445990D01*
X147604819Y-81425988D01*
X147583845Y-81409085D01*
X146263905Y-80089145D01*
X146229879Y-80026833D01*
X146227000Y-80000050D01*
X146227000Y-79375151D01*
X146247002Y-79307030D01*
X146277436Y-79274324D01*
X146366794Y-79207355D01*
X146373974Y-79201974D01*
X146458493Y-79089199D01*
X146464263Y-79073810D01*
X146505190Y-78964635D01*
X146507964Y-78957236D01*
X146514500Y-78897070D01*
X146514500Y-78328930D01*
X146507964Y-78268764D01*
X146458493Y-78136801D01*
X146373974Y-78024026D01*
X146261199Y-77939507D01*
X146252798Y-77936357D01*
X146252795Y-77936356D01*
X146144131Y-77895620D01*
X146129236Y-77890036D01*
X146069070Y-77883500D01*
X145475930Y-77883500D01*
X145415764Y-77890036D01*
X145400869Y-77895620D01*
X145292205Y-77936356D01*
X145292202Y-77936357D01*
X145283801Y-77939507D01*
X145171026Y-78024026D01*
X145165645Y-78031206D01*
X145108044Y-78108064D01*
X145051185Y-78150580D01*
X145007217Y-78158500D01*
X144425783Y-78158500D01*
X144357662Y-78138498D01*
X144324956Y-78108064D01*
X144267355Y-78031206D01*
X144261974Y-78024026D01*
X144149199Y-77939507D01*
X144140798Y-77936357D01*
X144140795Y-77936356D01*
X144032131Y-77895620D01*
X144017236Y-77890036D01*
X143957070Y-77883500D01*
X143363930Y-77883500D01*
X143303764Y-77890036D01*
X143288869Y-77895620D01*
X143180205Y-77936356D01*
X143180202Y-77936357D01*
X143171801Y-77939507D01*
X143059026Y-78024026D01*
X142974507Y-78136801D01*
X142925036Y-78268764D01*
X142918500Y-78328930D01*
X142918500Y-78897070D01*
X142577500Y-78897070D01*
X142577500Y-78328930D01*
X142570964Y-78268764D01*
X142521493Y-78136801D01*
X142436974Y-78024026D01*
X142324199Y-77939507D01*
X142315798Y-77936357D01*
X142315795Y-77936356D01*
X142207131Y-77895620D01*
X142192236Y-77890036D01*
X142132070Y-77883500D01*
X141538930Y-77883500D01*
X141478764Y-77890036D01*
X141463869Y-77895620D01*
X141355205Y-77936356D01*
X141355202Y-77936357D01*
X141346801Y-77939507D01*
X141234026Y-78024026D01*
X141149507Y-78136801D01*
X141100036Y-78268764D01*
X141093500Y-78328930D01*
X141093500Y-78897070D01*
X139300500Y-78897070D01*
X139300500Y-77426500D01*
X139320502Y-77358379D01*
X139374158Y-77311886D01*
X139426500Y-77300500D01*
X165162982Y-77300500D01*
X165231103Y-77320502D01*
G37*
G04 #@! TD.AperFunction*
G04 #@! TA.AperFunction,Conductor*
G36*
X178377121Y-77320502D02*
G01*
X178423614Y-77374158D01*
X178435000Y-77426500D01*
X178435000Y-93419810D01*
X178414998Y-93487931D01*
X178398095Y-93508905D01*
X178344905Y-93562095D01*
X178282593Y-93596121D01*
X178255810Y-93599000D01*
X177090190Y-93599000D01*
X177022069Y-93578998D01*
X177001095Y-93562095D01*
X176947905Y-93508905D01*
X176913879Y-93446593D01*
X176911000Y-93419810D01*
X176911000Y-91440000D01*
X175895000Y-90424000D01*
X174244000Y-90424000D01*
X174080597Y-90587403D01*
X174018285Y-90621429D01*
X173947470Y-90616364D01*
X173890634Y-90573817D01*
X173865823Y-90507297D01*
X173865502Y-90498308D01*
X173865502Y-88482458D01*
X173866375Y-88467649D01*
X173869302Y-88442917D01*
X173870409Y-88433564D01*
X173859770Y-88375309D01*
X173859120Y-88371406D01*
X173851717Y-88322163D01*
X173850317Y-88312851D01*
X173847164Y-88306285D01*
X173845855Y-88299118D01*
X173818562Y-88246576D01*
X173816794Y-88243039D01*
X173811111Y-88231205D01*
X173791156Y-88189649D01*
X173786260Y-88184353D01*
X173786168Y-88184217D01*
X173782854Y-88177836D01*
X173778508Y-88172748D01*
X173740926Y-88135166D01*
X173737496Y-88131600D01*
X173704776Y-88096204D01*
X173698385Y-88089290D01*
X173691985Y-88085572D01*
X173685725Y-88079965D01*
X172289239Y-86683479D01*
X172279384Y-86672390D01*
X172278325Y-86671046D01*
X172258131Y-86645431D01*
X172233252Y-86628236D01*
X172209396Y-86611748D01*
X172206203Y-86609466D01*
X172158566Y-86574281D01*
X172151693Y-86571867D01*
X172145701Y-86567726D01*
X172089212Y-86549861D01*
X172085491Y-86548619D01*
X172029616Y-86528997D01*
X172022412Y-86528714D01*
X172022241Y-86528681D01*
X172015393Y-86526515D01*
X172008722Y-86525990D01*
X171955552Y-86525990D01*
X171950606Y-86525893D01*
X171949714Y-86525858D01*
X171893053Y-86523632D01*
X171885898Y-86525529D01*
X171877523Y-86525990D01*
X167491361Y-86525990D01*
X167423240Y-86505988D01*
X167379396Y-86457781D01*
X167349982Y-86400794D01*
X167336512Y-86331087D01*
X167362866Y-86265163D01*
X167372852Y-86253908D01*
X168318011Y-85308749D01*
X168329100Y-85298894D01*
X168342581Y-85288266D01*
X168356059Y-85277641D01*
X168373254Y-85252762D01*
X168389742Y-85228906D01*
X168392024Y-85225713D01*
X168427209Y-85178076D01*
X168429623Y-85171203D01*
X168433764Y-85165211D01*
X168451629Y-85108722D01*
X168452880Y-85104973D01*
X168457963Y-85090500D01*
X168472493Y-85049126D01*
X168472776Y-85041922D01*
X168472809Y-85041751D01*
X168474975Y-85034903D01*
X168475500Y-85028232D01*
X168475500Y-84975062D01*
X168475597Y-84970116D01*
X168477488Y-84921973D01*
X168477858Y-84912563D01*
X168475961Y-84905408D01*
X168475500Y-84897030D01*
X168475500Y-83044450D01*
X168495502Y-82976329D01*
X168512405Y-82955355D01*
X169200355Y-82267405D01*
X169262667Y-82233379D01*
X169289450Y-82230500D01*
X171177930Y-82230499D01*
X171408066Y-82230499D01*
X171443818Y-82223388D01*
X171470126Y-82218156D01*
X171470128Y-82218155D01*
X171482301Y-82215734D01*
X171492621Y-82208839D01*
X171492622Y-82208838D01*
X171556168Y-82166377D01*
X171566484Y-82159484D01*
X171622734Y-82075301D01*
X171637500Y-82001067D01*
X171637499Y-80050934D01*
X171630388Y-80015182D01*
X171625156Y-79988874D01*
X171625155Y-79988872D01*
X171622734Y-79976699D01*
X171566484Y-79892516D01*
X171482301Y-79836266D01*
X171408067Y-79821500D01*
X171164537Y-79821500D01*
X169162451Y-79821501D01*
X169094330Y-79801499D01*
X169073356Y-79784596D01*
X168848249Y-79559489D01*
X168838394Y-79548400D01*
X168837335Y-79547056D01*
X168817141Y-79521441D01*
X168792262Y-79504246D01*
X168768406Y-79487758D01*
X168765213Y-79485476D01*
X168717576Y-79450291D01*
X168710703Y-79447877D01*
X168704711Y-79443736D01*
X168648222Y-79425871D01*
X168644501Y-79424629D01*
X168588626Y-79405007D01*
X168581422Y-79404724D01*
X168581251Y-79404691D01*
X168574403Y-79402525D01*
X168567732Y-79402000D01*
X168514562Y-79402000D01*
X168509616Y-79401903D01*
X168508724Y-79401868D01*
X168452063Y-79399642D01*
X168444908Y-79401539D01*
X168436533Y-79402000D01*
X168279986Y-79402000D01*
X168211865Y-79381998D01*
X168169768Y-79333416D01*
X168168555Y-79334080D01*
X168165485Y-79328472D01*
X168165372Y-79328342D01*
X168165242Y-79328028D01*
X168164243Y-79326203D01*
X168161093Y-79317801D01*
X168076574Y-79205026D01*
X167963799Y-79120507D01*
X167955398Y-79117357D01*
X167955395Y-79117356D01*
X167843530Y-79075420D01*
X167831836Y-79071036D01*
X167771670Y-79064500D01*
X167390550Y-79064500D01*
X167322429Y-79044498D01*
X167301455Y-79027595D01*
X166537405Y-78263545D01*
X166503379Y-78201233D01*
X166500500Y-78174450D01*
X166500500Y-77947930D01*
X166493964Y-77887764D01*
X166444493Y-77755801D01*
X166359974Y-77643026D01*
X166247199Y-77558507D01*
X166238798Y-77555357D01*
X166238795Y-77555356D01*
X166209788Y-77544482D01*
X166153023Y-77501840D01*
X166128324Y-77435278D01*
X166143532Y-77365929D01*
X166193818Y-77315811D01*
X166254018Y-77300500D01*
X178309000Y-77300500D01*
X178377121Y-77320502D01*
G37*
G04 #@! TD.AperFunction*
M02*
