G04 #@! TF.GenerationSoftware,KiCad,Pcbnew,(6.0.9)*
G04 #@! TF.CreationDate,2023-04-01T11:22:45+09:00*
G04 #@! TF.ProjectId,MainBoard,4d61696e-426f-4617-9264-2e6b69636164,rev?*
G04 #@! TF.SameCoordinates,Original*
G04 #@! TF.FileFunction,Legend,Top*
G04 #@! TF.FilePolarity,Positive*
%FSLAX46Y46*%
G04 Gerber Fmt 4.6, Leading zero omitted, Abs format (unit mm)*
G04 Created by KiCad (PCBNEW (6.0.9)) date 2023-04-01 11:22:45*
%MOMM*%
%LPD*%
G01*
G04 APERTURE LIST*
G04 Aperture macros list*
%AMRoundRect*
0 Rectangle with rounded corners*
0 $1 Rounding radius*
0 $2 $3 $4 $5 $6 $7 $8 $9 X,Y pos of 4 corners*
0 Add a 4 corners polygon primitive as box body*
4,1,4,$2,$3,$4,$5,$6,$7,$8,$9,$2,$3,0*
0 Add four circle primitives for the rounded corners*
1,1,$1+$1,$2,$3*
1,1,$1+$1,$4,$5*
1,1,$1+$1,$6,$7*
1,1,$1+$1,$8,$9*
0 Add four rect primitives between the rounded corners*
20,1,$1+$1,$2,$3,$4,$5,0*
20,1,$1+$1,$4,$5,$6,$7,0*
20,1,$1+$1,$6,$7,$8,$9,0*
20,1,$1+$1,$8,$9,$2,$3,0*%
G04 Aperture macros list end*
%ADD10C,0.150000*%
%ADD11C,0.202000*%
%ADD12C,0.120000*%
%ADD13C,0.200000*%
%ADD14RoundRect,0.250000X0.375000X0.625000X-0.375000X0.625000X-0.375000X-0.625000X0.375000X-0.625000X0*%
%ADD15RoundRect,0.200000X0.275000X-0.200000X0.275000X0.200000X-0.275000X0.200000X-0.275000X-0.200000X0*%
%ADD16R,0.650000X1.050000*%
%ADD17C,2.200000*%
%ADD18RoundRect,0.225000X0.250000X-0.225000X0.250000X0.225000X-0.250000X0.225000X-0.250000X-0.225000X0*%
%ADD19RoundRect,0.225000X-0.250000X0.225000X-0.250000X-0.225000X0.250000X-0.225000X0.250000X0.225000X0*%
%ADD20R,1.800000X0.800000*%
%ADD21R,2.100000X0.800000*%
%ADD22R,2.000000X1.550000*%
G04 APERTURE END LIST*
D10*
X157040600Y-112220490D02*
X157040600Y-117220490D01*
G36*
X142790600Y-105720490D02*
G01*
X142040600Y-105720490D01*
X142040600Y-107970490D01*
X141040600Y-107970490D01*
X141040600Y-105720490D01*
X140290600Y-105720490D01*
X141540600Y-104470490D01*
X142790600Y-105720490D01*
G37*
X142790600Y-105720490D02*
X142040600Y-105720490D01*
X142040600Y-107970490D01*
X141040600Y-107970490D01*
X141040600Y-105720490D01*
X140290600Y-105720490D01*
X141540600Y-104470490D01*
X142790600Y-105720490D01*
D11*
X149478400Y-115428490D02*
G75*
G03*
X149478400Y-115428490I-101000J0D01*
G01*
D10*
X137040600Y-112220490D02*
X137040600Y-117220490D01*
X142933457Y-107149061D02*
X142600123Y-107149061D01*
X142600123Y-107672870D02*
X142600123Y-106672870D01*
X143076314Y-106672870D01*
X143933457Y-107672870D02*
X143457266Y-107672870D01*
X143457266Y-106672870D01*
X144457266Y-106672870D02*
X144647742Y-106672870D01*
X144742980Y-106720490D01*
X144838219Y-106815728D01*
X144885838Y-107006204D01*
X144885838Y-107339537D01*
X144838219Y-107530013D01*
X144742980Y-107625251D01*
X144647742Y-107672870D01*
X144457266Y-107672870D01*
X144362028Y-107625251D01*
X144266790Y-107530013D01*
X144219171Y-107339537D01*
X144219171Y-107006204D01*
X144266790Y-106815728D01*
X144362028Y-106720490D01*
X144457266Y-106672870D01*
X145219171Y-106672870D02*
X145457266Y-107672870D01*
X145647742Y-106958585D01*
X145838219Y-107672870D01*
X146076314Y-106672870D01*
X138516790Y-110196680D02*
X138469171Y-110244299D01*
X138421552Y-110339537D01*
X138421552Y-110434775D01*
X138469171Y-110530013D01*
X138516790Y-110577632D01*
X138612028Y-110625251D01*
X138707266Y-110625251D01*
X138802504Y-110577632D01*
X138850123Y-110530013D01*
X138897742Y-110434775D01*
X138897742Y-110339537D01*
X138850123Y-110244299D01*
X138802504Y-110196680D01*
X138421552Y-110196680D02*
X138802504Y-110196680D01*
X138850123Y-110149061D01*
X138850123Y-110101442D01*
X138802504Y-110006204D01*
X138707266Y-109958585D01*
X138469171Y-109958585D01*
X138326314Y-110053823D01*
X138231076Y-110196680D01*
X138183457Y-110387156D01*
X138231076Y-110577632D01*
X138326314Y-110720490D01*
X138469171Y-110815728D01*
X138659647Y-110863347D01*
X138850123Y-110815728D01*
X138992980Y-110720490D01*
X139088219Y-110577632D01*
X139135838Y-110387156D01*
X139088219Y-110196680D01*
X138992980Y-110053823D01*
X138326314Y-109672870D02*
X138326314Y-109291918D01*
X137992980Y-109530013D02*
X138850123Y-109530013D01*
X138945361Y-109482394D01*
X138992980Y-109387156D01*
X138992980Y-109291918D01*
X138992980Y-108530013D02*
X138469171Y-108530013D01*
X138373933Y-108577632D01*
X138326314Y-108672870D01*
X138326314Y-108863347D01*
X138373933Y-108958585D01*
X138945361Y-108530013D02*
X138992980Y-108625251D01*
X138992980Y-108863347D01*
X138945361Y-108958585D01*
X138850123Y-109006204D01*
X138754885Y-109006204D01*
X138659647Y-108958585D01*
X138612028Y-108863347D01*
X138612028Y-108625251D01*
X138564409Y-108530013D01*
X138992980Y-108053823D02*
X137992980Y-108053823D01*
X138612028Y-107958585D02*
X138992980Y-107672870D01*
X138326314Y-107672870D02*
X138707266Y-108053823D01*
X138326314Y-106815728D02*
X138992980Y-106815728D01*
X138326314Y-107244299D02*
X138850123Y-107244299D01*
X138945361Y-107196680D01*
X138992980Y-107101442D01*
X138992980Y-106958585D01*
X138945361Y-106863347D01*
X138897742Y-106815728D01*
X138992980Y-106339537D02*
X137992980Y-106339537D01*
X138992980Y-105910966D02*
X138469171Y-105910966D01*
X138373933Y-105958585D01*
X138326314Y-106053823D01*
X138326314Y-106196680D01*
X138373933Y-106291918D01*
X138421552Y-106339537D01*
X138992980Y-105291918D02*
X138945361Y-105387156D01*
X138897742Y-105434775D01*
X138802504Y-105482394D01*
X138516790Y-105482394D01*
X138421552Y-105434775D01*
X138373933Y-105387156D01*
X138326314Y-105291918D01*
X138326314Y-105149061D01*
X138373933Y-105053823D01*
X138421552Y-105006204D01*
X138516790Y-104958585D01*
X138802504Y-104958585D01*
X138897742Y-105006204D01*
X138945361Y-105053823D01*
X138992980Y-105149061D01*
X138992980Y-105291918D01*
X137992980Y-104672870D02*
X137992980Y-104101442D01*
X138992980Y-104387156D02*
X137992980Y-104387156D01*
X138945361Y-103387156D02*
X138992980Y-103482394D01*
X138992980Y-103672870D01*
X138945361Y-103768109D01*
X138850123Y-103815728D01*
X138469171Y-103815728D01*
X138373933Y-103768109D01*
X138326314Y-103672870D01*
X138326314Y-103482394D01*
X138373933Y-103387156D01*
X138469171Y-103339537D01*
X138564409Y-103339537D01*
X138659647Y-103815728D01*
X138945361Y-102482394D02*
X138992980Y-102577632D01*
X138992980Y-102768109D01*
X138945361Y-102863347D01*
X138897742Y-102910966D01*
X138802504Y-102958585D01*
X138516790Y-102958585D01*
X138421552Y-102910966D01*
X138373933Y-102863347D01*
X138326314Y-102768109D01*
X138326314Y-102577632D01*
X138373933Y-102482394D01*
X138992980Y-102053823D02*
X137992980Y-102053823D01*
X138992980Y-101625251D02*
X138469171Y-101625251D01*
X138373933Y-101672870D01*
X138326314Y-101768109D01*
X138326314Y-101910966D01*
X138373933Y-102006204D01*
X138421552Y-102053823D01*
X153752504Y-116653966D02*
X152952504Y-116653966D01*
X152952504Y-116463490D01*
X152990600Y-116349204D01*
X153066790Y-116273013D01*
X153142980Y-116234918D01*
X153295361Y-116196823D01*
X153409647Y-116196823D01*
X153562028Y-116234918D01*
X153638219Y-116273013D01*
X153714409Y-116349204D01*
X153752504Y-116463490D01*
X153752504Y-116653966D01*
X153752504Y-115434918D02*
X153752504Y-115892061D01*
X153752504Y-115663490D02*
X152952504Y-115663490D01*
X153066790Y-115739680D01*
X153142980Y-115815870D01*
X153181076Y-115892061D01*
X148304266Y-116933394D02*
X148037600Y-116552442D01*
X147847123Y-116933394D02*
X147847123Y-116133394D01*
X148151885Y-116133394D01*
X148228076Y-116171490D01*
X148266171Y-116209585D01*
X148304266Y-116285775D01*
X148304266Y-116400061D01*
X148266171Y-116476251D01*
X148228076Y-116514347D01*
X148151885Y-116552442D01*
X147847123Y-116552442D01*
X148570933Y-116133394D02*
X149066171Y-116133394D01*
X148799504Y-116438156D01*
X148913790Y-116438156D01*
X148989980Y-116476251D01*
X149028076Y-116514347D01*
X149066171Y-116590537D01*
X149066171Y-116781013D01*
X149028076Y-116857204D01*
X148989980Y-116895299D01*
X148913790Y-116933394D01*
X148685219Y-116933394D01*
X148609028Y-116895299D01*
X148570933Y-116857204D01*
X153073266Y-111515251D02*
X153216123Y-111562870D01*
X153454219Y-111562870D01*
X153549457Y-111515251D01*
X153597076Y-111467632D01*
X153644695Y-111372394D01*
X153644695Y-111277156D01*
X153597076Y-111181918D01*
X153549457Y-111134299D01*
X153454219Y-111086680D01*
X153263742Y-111039061D01*
X153168504Y-110991442D01*
X153120885Y-110943823D01*
X153073266Y-110848585D01*
X153073266Y-110753347D01*
X153120885Y-110658109D01*
X153168504Y-110610490D01*
X153263742Y-110562870D01*
X153501838Y-110562870D01*
X153644695Y-110610490D01*
X153978028Y-110562870D02*
X154216123Y-111562870D01*
X154406600Y-110848585D01*
X154597076Y-111562870D01*
X154835171Y-110562870D01*
X155739933Y-111562870D02*
X155168504Y-111562870D01*
X155454219Y-111562870D02*
X155454219Y-110562870D01*
X155358980Y-110705728D01*
X155263742Y-110800966D01*
X155168504Y-110848585D01*
X138055314Y-113148823D02*
X138093409Y-113186918D01*
X138131504Y-113301204D01*
X138131504Y-113377394D01*
X138093409Y-113491680D01*
X138017219Y-113567870D01*
X137941028Y-113605966D01*
X137788647Y-113644061D01*
X137674361Y-113644061D01*
X137521980Y-113605966D01*
X137445790Y-113567870D01*
X137369600Y-113491680D01*
X137331504Y-113377394D01*
X137331504Y-113301204D01*
X137369600Y-113186918D01*
X137407695Y-113148823D01*
X137331504Y-112882156D02*
X137331504Y-112386918D01*
X137636266Y-112653585D01*
X137636266Y-112539299D01*
X137674361Y-112463109D01*
X137712457Y-112425013D01*
X137788647Y-112386918D01*
X137979123Y-112386918D01*
X138055314Y-112425013D01*
X138093409Y-112463109D01*
X138131504Y-112539299D01*
X138131504Y-112767870D01*
X138093409Y-112844061D01*
X138055314Y-112882156D01*
X138055314Y-115815823D02*
X138093409Y-115853918D01*
X138131504Y-115968204D01*
X138131504Y-116044394D01*
X138093409Y-116158680D01*
X138017219Y-116234870D01*
X137941028Y-116272966D01*
X137788647Y-116311061D01*
X137674361Y-116311061D01*
X137521980Y-116272966D01*
X137445790Y-116234870D01*
X137369600Y-116158680D01*
X137331504Y-116044394D01*
X137331504Y-115968204D01*
X137369600Y-115853918D01*
X137407695Y-115815823D01*
X137598171Y-115130109D02*
X138131504Y-115130109D01*
X137293409Y-115320585D02*
X137864838Y-115511061D01*
X137864838Y-115015823D01*
X149358314Y-113021823D02*
X149396409Y-113059918D01*
X149434504Y-113174204D01*
X149434504Y-113250394D01*
X149396409Y-113364680D01*
X149320219Y-113440870D01*
X149244028Y-113478966D01*
X149091647Y-113517061D01*
X148977361Y-113517061D01*
X148824980Y-113478966D01*
X148748790Y-113440870D01*
X148672600Y-113364680D01*
X148634504Y-113250394D01*
X148634504Y-113174204D01*
X148672600Y-113059918D01*
X148710695Y-113021823D01*
X148710695Y-112717061D02*
X148672600Y-112678966D01*
X148634504Y-112602775D01*
X148634504Y-112412299D01*
X148672600Y-112336109D01*
X148710695Y-112298013D01*
X148786885Y-112259918D01*
X148863076Y-112259918D01*
X148977361Y-112298013D01*
X149434504Y-112755156D01*
X149434504Y-112259918D01*
X151733266Y-109059394D02*
X151466600Y-108678442D01*
X151276123Y-109059394D02*
X151276123Y-108259394D01*
X151580885Y-108259394D01*
X151657076Y-108297490D01*
X151695171Y-108335585D01*
X151733266Y-108411775D01*
X151733266Y-108526061D01*
X151695171Y-108602251D01*
X151657076Y-108640347D01*
X151580885Y-108678442D01*
X151276123Y-108678442D01*
X152038028Y-108335585D02*
X152076123Y-108297490D01*
X152152314Y-108259394D01*
X152342790Y-108259394D01*
X152418980Y-108297490D01*
X152457076Y-108335585D01*
X152495171Y-108411775D01*
X152495171Y-108487966D01*
X152457076Y-108602251D01*
X151999933Y-109059394D01*
X152495171Y-109059394D01*
X153003266Y-114571204D02*
X152965171Y-114609299D01*
X152850885Y-114647394D01*
X152774695Y-114647394D01*
X152660409Y-114609299D01*
X152584219Y-114533109D01*
X152546123Y-114456918D01*
X152508028Y-114304537D01*
X152508028Y-114190251D01*
X152546123Y-114037870D01*
X152584219Y-113961680D01*
X152660409Y-113885490D01*
X152774695Y-113847394D01*
X152850885Y-113847394D01*
X152965171Y-113885490D01*
X153003266Y-113923585D01*
X153765171Y-114647394D02*
X153308028Y-114647394D01*
X153536600Y-114647394D02*
X153536600Y-113847394D01*
X153460409Y-113961680D01*
X153384219Y-114037870D01*
X153308028Y-114075966D01*
X149307504Y-109211823D02*
X148926552Y-109478490D01*
X149307504Y-109668966D02*
X148507504Y-109668966D01*
X148507504Y-109364204D01*
X148545600Y-109288013D01*
X148583695Y-109249918D01*
X148659885Y-109211823D01*
X148774171Y-109211823D01*
X148850361Y-109249918D01*
X148888457Y-109288013D01*
X148926552Y-109364204D01*
X148926552Y-109668966D01*
X149307504Y-108449918D02*
X149307504Y-108907061D01*
X149307504Y-108678490D02*
X148507504Y-108678490D01*
X148621790Y-108754680D01*
X148697980Y-108830870D01*
X148736076Y-108907061D01*
D12*
X155675600Y-117198490D02*
X155675600Y-114928490D01*
X151790600Y-117198490D02*
X155675600Y-117198490D01*
X155675600Y-114928490D02*
X151790600Y-114928490D01*
X150738100Y-115919748D02*
X150738100Y-115445232D01*
X149693100Y-115919748D02*
X149693100Y-115445232D01*
X156156600Y-113310490D02*
X156156600Y-108910490D01*
X152656600Y-108910490D02*
X152656600Y-113310490D01*
X154356600Y-108910490D02*
X154456600Y-108910490D01*
X154356600Y-113310490D02*
X154456600Y-113310490D01*
X138402600Y-112775070D02*
X138402600Y-112493910D01*
X139422600Y-112775070D02*
X139422600Y-112493910D01*
X139422600Y-115541910D02*
X139422600Y-115823070D01*
X138402600Y-115541910D02*
X138402600Y-115823070D01*
X150598600Y-112902070D02*
X150598600Y-112620910D01*
X149578600Y-112902070D02*
X149578600Y-112620910D01*
X151090100Y-110585748D02*
X151090100Y-110111232D01*
X152135100Y-110585748D02*
X152135100Y-110111232D01*
X151102600Y-113537070D02*
X151102600Y-113255910D01*
X152122600Y-113537070D02*
X152122600Y-113255910D01*
D13*
X145700600Y-116888490D02*
X147476600Y-116888490D01*
X149000600Y-115745490D02*
X149000600Y-113840490D01*
X148238600Y-108888490D02*
X145700600Y-108888490D01*
X140000600Y-116888490D02*
X143300600Y-116888490D01*
X149000600Y-111936490D02*
X149000600Y-110030490D01*
X143300600Y-108888490D02*
X140000600Y-108888490D01*
X140000600Y-108888490D02*
X140000600Y-116888490D01*
D12*
X149566100Y-109823748D02*
X149566100Y-109349232D01*
X150611100Y-109823748D02*
X150611100Y-109349232D01*
%LPC*%
D14*
X154790600Y-116063490D03*
X151990600Y-116063490D03*
D15*
X150215600Y-116507490D03*
X150215600Y-114857490D03*
D16*
X155481600Y-109035490D03*
X155481600Y-113185490D03*
X153331600Y-113160490D03*
X153331600Y-109035490D03*
D17*
X158540600Y-115220490D03*
D18*
X138912600Y-113409490D03*
X138912600Y-111859490D03*
D19*
X138912600Y-114907490D03*
X138912600Y-116457490D03*
D18*
X150088600Y-113536490D03*
X150088600Y-111986490D03*
D15*
X151612600Y-111173490D03*
X151612600Y-109523490D03*
D17*
X135540600Y-115220490D03*
D18*
X151612600Y-114171490D03*
X151612600Y-112621490D03*
D20*
X147700600Y-115428490D03*
X147700600Y-114158490D03*
D21*
X147550600Y-112888490D03*
D20*
X147700600Y-111618490D03*
X147700600Y-110348490D03*
X141300600Y-110348490D03*
X141300600Y-111618490D03*
X141300600Y-112888490D03*
X141300600Y-114158490D03*
X141300600Y-115428490D03*
D22*
X144500600Y-116113490D03*
X144500600Y-109663490D03*
D15*
X150088600Y-110411490D03*
X150088600Y-108761490D03*
M02*
