0
SECTION
2
HEADER
9
$INSUNITS
70
4
9
$ACADVER
1
AC1014
9
$HANDSEED
5
FFFF
0
ENDSEC
0
SECTION
2
TABLES
0
TABLE
2
VPORT
5
8
100
AcDbSymbolTable
0
ENDTAB
0
TABLE
2
LTYPE
5
5
100
AcDbSymbolTable
0
LTYPE
5
14
100
AcDbSymbolTableRecord
100
AcDbLinetypeTableRecord
2
BYBLOCK
70
0
0
LTYPE
5
15
100
AcDbSymbolTableRecord
100
AcDbLinetypeTableRecord
2
BYLAYER
70
0
0
ENDTAB
0
TABLE
2
LAYER
5
2
100
AcDbSymbolTable
70
2
0
LAYER
5
50
100
AcDbSymbolTableRecord
100
AcDbLayerTableRecord
2
0
70
0
6
CONTINUOUS
0
ENDTAB
0
TABLE
2
STYLE
5
3
100
AcDbSymbolTable
70
1
0
STYLE
5
11
100
AcDbSymbolTableRecord
100
AcDbTextStyleTableRecord
2
STANDARD
70
0
0
ENDTAB
0
TABLE
2
VIEW
5
6
100
AcDbSymbolTable
70
0
0
ENDTAB
0
TABLE
2
UCS
5
7
100
AcDbSymbolTable
70
0
0
ENDTAB
0
TABLE
2
APPID
5
9
100
AcDbSymbolTable
70
2
0
APPID
5
12
100
AcDbSymbolTableRecord
100
AcDbRegAppTableRecord
2
ACAD
70
0
0
ENDTAB
0
TABLE
2
DIMSTYLE
5
A
100
AcDbSymbolTable
70
1
0
ENDTAB
0
TABLE
2
BLOCK_RECORD
5
1
100
AcDbSymbolTable
70
1
0
BLOCK_RECORD
5
1F
100
AcDbSymbolTableRecord
100
AcDbBlockTableRecord
2
*MODEL_SPACE
0
BLOCK_RECORD
5
1B
100
AcDbSymbolTableRecord
100
AcDbBlockTableRecord
2
*PAPER_SPACE
0
ENDTAB
0
ENDSEC
0
SECTION
2
BLOCKS
0
BLOCK
5
20
100
AcDbEntity
100
AcDbBlockBegin
2
*MODEL_SPACE
0
ENDBLK
5
21
100
AcDbEntity
100
AcDbBlockEnd
0
BLOCK
5
1C
100
AcDbEntity
100
AcDbBlockBegin
2
*PAPER_SPACE
0
ENDBLK
5
1D
100
AcDbEntity
100
AcDbBlockEnd
0
ENDSEC
0
SECTION
2
ENTITIES
0
LWPOLYLINE
5
100
100
AcDbEntity
8
0
100
AcDbPolyline
90
35
70
1
43
0.0
10
16.63580995541
20
7.2049999999999965
10
16.63580995541
20
13.99999964237213
10
15.635809955410004
20
14.999999642372131
10
-11.499999742954969
20
14.999999642372131
10
-11.499999742954969
20
13.499999731779099
10
-15.999999642372131
20
13.499999731779099
10
-15.999999642372131
20
14.999999642372131
10
-28.500000454485416
20
14.999999642372131
10
-29.500000454485416
20
13.999999642372131
10
-29.500000454485416
20
-0.4999999888241291
10
-27.999999407678843
20
-0.4999999888241291
10
-27.999999407678843
20
-4.999999888241291
10
-29.500000454485416
20
-4.999999888241291
10
-29.500000454485416
20
-8.4999998100101948
10
-27.999999407678843
20
-8.4999998100101948
10
-27.999999407678843
20
-12.000000000000002
10
-24.219000000000008
20
-12.000000178813934
10
-23.383000000000003
20
-11.164000178813932
10
-23.383000000000003
20
2.8360000000000007
10
-3.0830000000000002
20
2.8360000000000007
10
-3.0830000000000002
20
-3.0532642312660139
10
14.000000238418577
20
-3.0532642312660006
10
16.000000238418579
20
-5.0532642312660006
10
16.000000238418579
20
-11.000000178813936
10
17.000000238418572
20
-12.000000178813934
10
28.500000000000007
20
-12.000000178813934
10
29.5
20
-11.000000178813936
10
29.5
20
-8.9999997988343239
10
27.999999407678843
20
-8.9999997988343239
10
27.999999407678843
20
-4.427499899417163
10
29.5
20
-4.427499899417163
10
29.5
20
0.13250010058283745
10
27.999999407678843
20
0.13250010058283745
10
27.999999407678843
20
5.2049999999999983
10
18.63580995541
20
5.2049999999999983
0
LWPOLYLINE
5
101
100
AcDbEntity
8
0
100
AcDbPolyline
90
4
70
1
43
0.0
10
19.748200000000004
20
-7.9860000000000007
10
19.748200000000004
20
2.7248000000000019
10
23.736000000000001
20
2.724800000000001
10
23.736000000000001
20
-7.9860000000000024
0
LWPOLYLINE
5
102
100
AcDbEntity
8
0
100
AcDbPolyline
90
35
70
1
43
0.0
10
16.63580995541
20
7.2049999999999965
10
16.63580995541
20
13.99999964237213
10
15.635809955410004
20
14.999999642372131
10
-11.499999742954969
20
14.999999642372131
10
-11.499999742954969
20
13.499999731779099
10
-15.999999642372131
20
13.499999731779099
10
-15.999999642372131
20
14.999999642372131
10
-28.500000454485416
20
14.999999642372131
10
-29.500000454485416
20
13.999999642372131
10
-29.500000454485416
20
-0.4999999888241291
10
-27.999999407678843
20
-0.4999999888241291
10
-27.999999407678843
20
-4.999999888241291
10
-29.500000454485416
20
-4.999999888241291
10
-29.500000454485416
20
-8.4999998100101948
10
-27.999999407678843
20
-8.4999998100101948
10
-27.999999407678843
20
-12.000000000000002
10
-24.219000000000008
20
-12.000000178813934
10
-23.383000000000003
20
-11.164000178813932
10
-23.383000000000003
20
2.8360000000000007
10
-3.0830000000000002
20
2.8360000000000007
10
-3.0830000000000002
20
-3.0532642312660139
10
14.000000238418577
20
-3.0532642312660006
10
16.000000238418579
20
-5.0532642312660006
10
16.000000238418579
20
-11.000000178813936
10
17.000000238418572
20
-12.000000178813934
10
28.500000000000007
20
-12.000000178813934
10
29.5
20
-11.000000178813936
10
29.5
20
-8.9999997988343239
10
27.999999407678843
20
-8.9999997988343239
10
27.999999407678843
20
-4.427499899417163
10
29.5
20
-4.427499899417163
10
29.5
20
0.13250010058283745
10
27.999999407678843
20
0.13250010058283745
10
27.999999407678843
20
5.2049999999999983
10
18.63580995541
20
5.2049999999999983
0
LWPOLYLINE
5
103
100
AcDbEntity
8
0
100
AcDbPolyline
90
4
70
1
43
0.0
10
19.748200000000004
20
-7.9860000000000007
10
19.748200000000004
20
2.7248000000000019
10
23.736000000000001
20
2.724800000000001
10
23.736000000000001
20
-7.9860000000000024
0
ENDSEC
0
SECTION
2
OBJECTS
0
DICTIONARY
5
C
100
AcDbDictionary
3
ACAD_GROUP
350
D
3
ACAD_MLINESTYLE
350
17
0
DICTIONARY
5
D
100
AcDbDictionary
0
DICTIONARY
5
1A
330
C
100
AcDbDictionary
0
DICTIONARY
5
17
100
AcDbDictionary
0
ENDSEC
0
EOF
