M48
; DRILL file {KiCad (6.0.7)} date Mon Oct 10 16:04:22 2022
; FORMAT={2:4/ absolute / inch / suppress leading zeros}
; #@! TF.CreationDate,2022-10-10T16:04:22+09:00
; #@! TF.GenerationSoftware,Kicad,Pcbnew,(6.0.7)
; #@! TF.FileFunction,MixedPlating,1,2
FMAT,2
INCH,TZ
; #@! TA.AperFunction,Plated,PTH,ViaDrill
T1C0.0118
; #@! TA.AperFunction,Plated,PTH,ComponentDrill
T2C0.0300
; #@! TA.AperFunction,Plated,PTH,ComponentDrill
T3C0.0787
%
G90
G05
T1
X55200Y-31500
X55200Y-32250
X55200Y-33000
X55200Y-34000
X55200Y-35000
X55200Y-35800
X55200Y-36600
X55200Y-38900
X55200Y-39450
X55800Y-34000
X55800Y-35000
X56050Y-38900
X56050Y-39450
X56400Y-36000
X56600Y-31500
X56600Y-32250
X56900Y-36850
X56900Y-37500
X56900Y-38150
X56900Y-38800
X56900Y-39450
X57000Y-36000
X57300Y-32800
X57300Y-33700
X57900Y-31400
X58000Y-32800
X58000Y-33700
X58000Y-34600
X58550Y-31400
X59000Y-38950
X59000Y-39450
X59200Y-30800
X59200Y-31400
X59700Y-32750
X59700Y-33600
X59950Y-38750
X59950Y-39450
X60100Y-30800
X60100Y-36450
X60100Y-37450
X61100Y-30800
X61100Y-36450
X61100Y-37450
X61100Y-38450
X61100Y-39450
X61450Y-34350
X61450Y-35050
X61450Y-35750
X62100Y-30800
X62100Y-35050
X62100Y-35750
X62100Y-36450
X62100Y-37450
X62100Y-38450
X62100Y-39450
X62500Y-33900
X62750Y-35750
X63100Y-30800
X63100Y-36450
X63100Y-37450
X63150Y-34550
X63560Y-35750
X63800Y-35200
X64000Y-30800
X64100Y-36450
X64100Y-37450
X64550Y-31500
X64550Y-32800
X64550Y-33700
X64550Y-34750
X65000Y-39450
X65400Y-31500
X65900Y-39450
X65940Y-38700
X66100Y-32000
X66270Y-33870
X66600Y-30900
X66600Y-32750
X66600Y-38000
X66650Y-39450
X66900Y-36500
X67150Y-39450
X67300Y-30900
X67300Y-32750
X67500Y-37250
X68000Y-31000
X68000Y-31900
X68000Y-32800
X68000Y-33700
X68200Y-38000
X68200Y-38450
X68700Y-38150
X68740Y-35860
X68900Y-31000
X68900Y-31900
X68900Y-32800
X68900Y-33700
X68900Y-34500
X68900Y-35300
X69100Y-38150
X69120Y-35860
X69500Y-38150
X69600Y-39350
X69800Y-31000
X69800Y-31900
X69800Y-32800
X69800Y-33700
X69950Y-35700
X69950Y-36250
X70150Y-39350
X70700Y-39350
X70750Y-35700
X70750Y-36250
X71100Y-31000
X71100Y-31900
X71100Y-32800
X71100Y-33700
X71250Y-39350
X71300Y-35700
X71300Y-36250
X72000Y-31000
X72000Y-31900
X72000Y-32800
X72000Y-33700
X72000Y-34350
X72000Y-35050
X72000Y-35700
X72200Y-38050
X72870Y-37300
X72880Y-36700
X72880Y-38800
X72880Y-39450
X72900Y-31000
X73700Y-35600
X73800Y-31000
X73920Y-38780
X73950Y-38040
X73950Y-39450
X74400Y-35600
X74700Y-31000
X74850Y-33300
X74850Y-34000
X74850Y-34700
X75200Y-36950
X75200Y-39450
T2
X56600Y-33100
X56600Y-34100
X56600Y-35100
T3
X60360Y-34577
X60360Y-34933
T0
M30
