M48
; DRILL file {KiCad (6.0.9)} date Sat Apr  1 11:19:02 2023
; FORMAT={2:4/ absolute / inch / suppress leading zeros}
; #@! TF.CreationDate,2023-04-01T11:19:02+09:00
; #@! TF.GenerationSoftware,Kicad,Pcbnew,(6.0.9)
; #@! TF.FileFunction,MixedPlating,1,2
FMAT,2
INCH,TZ
; #@! TA.AperFunction,Plated,PTH,ViaDrill
T1C0.0118
; #@! TA.AperFunction,Plated,PTH,ViaDrill
T2C0.0157
; #@! TA.AperFunction,Plated,PTH,ComponentDrill
T3C0.0236
; #@! TA.AperFunction,Plated,PTH,ComponentDrill
T4C0.0300
; #@! TA.AperFunction,Plated,PTH,ComponentDrill
T5C0.0315
; #@! TA.AperFunction,Plated,PTH,ComponentDrill
T6C0.0354
; #@! TA.AperFunction,Plated,PTH,ComponentDrill
T7C0.0362
; #@! TA.AperFunction,Plated,PTH,ComponentDrill
T8C0.0374
; #@! TA.AperFunction,Plated,PTH,ComponentDrill
T9C0.0382
; #@! TA.AperFunction,Plated,PTH,ComponentDrill
T10C0.0394
; #@! TA.AperFunction,Plated,PTH,ComponentDrill
T11C0.0472
; #@! TA.AperFunction,Plated,PTH,ComponentDrill
T12C0.0748
; #@! TA.AperFunction,Plated,PTH,ComponentDrill
T13C0.0945
; #@! TA.AperFunction,NonPlated,NPTH,ComponentDrill
T14C0.0787
; #@! TA.AperFunction,NonPlated,NPTH,ComponentDrill
T15C0.0866
; #@! TA.AperFunction,NonPlated,NPTH,ComponentDrill
T16C0.1331
%
G90
G05
T1
X26700Y-26200
X26700Y-27200
X26700Y-28200
X26700Y-29200
X26700Y-30200
X26700Y-31200
X26700Y-32200
X26700Y-33200
X26700Y-34200
X26700Y-35200
X26700Y-36200
X26700Y-37200
X26700Y-38200
X26700Y-39200
X26700Y-40000
X26700Y-40800
X26700Y-41600
X26700Y-42400
X26700Y-43400
X26700Y-44400
X26700Y-45400
X26700Y-46400
X26700Y-47400
X26700Y-48400
X26700Y-49400
X26700Y-50400
X26700Y-51400
X26700Y-52400
X26700Y-53400
X26700Y-54400
X26700Y-55400
X26700Y-56400
X27700Y-40000
X27900Y-24900
X27900Y-26100
X27900Y-49400
X27900Y-56400
X27900Y-57600
X28100Y-42200
X28100Y-44400
X28100Y-47000
X28100Y-50800
X28100Y-52400
X28100Y-54000
X28300Y-33000
X28300Y-35200
X28300Y-37200
X28300Y-40800
X28300Y-55200
X28500Y-30000
X28700Y-40000
X28800Y-45800
X28900Y-24900
X28900Y-28200
X28900Y-57600
X29100Y-48300
X29200Y-43300
X29300Y-38600
X29500Y-26600
X29500Y-52200
X29500Y-53600
X29600Y-32200
X29600Y-34200
X29600Y-36200
X29700Y-40000
X29700Y-44200
X29700Y-46100
X29900Y-24900
X29900Y-42000
X29900Y-47600
X29900Y-57600
X30100Y-31200
X30100Y-48700
X30400Y-45350
X30500Y-40800
X30500Y-49400
X30700Y-32200
X30700Y-33800
X30700Y-36200
X30700Y-40000
X30800Y-53100
X30900Y-24900
X30900Y-37500
X30900Y-57600
X31000Y-46000
X31200Y-49700
X31200Y-50600
X31300Y-44800
X31400Y-56300
X31500Y-26400
X31500Y-28200
X31700Y-29900
X31700Y-34900
X31700Y-36700
X31700Y-40000
X31700Y-40800
X31750Y-49750
X31850Y-43500
X31900Y-24900
X31900Y-38600
X31900Y-44800
X31900Y-57600
X32100Y-47200
X32100Y-48800
X32100Y-54800
X32250Y-45800
X32300Y-42700
X32500Y-48000
X32650Y-44300
X32700Y-30900
X32700Y-31900
X32700Y-32900
X32700Y-33900
X32700Y-40000
X32700Y-40800
X32700Y-45350
X32700Y-49400
X32900Y-24900
X32900Y-41800
X32900Y-57600
X33000Y-35700
X33000Y-36700
X33000Y-46800
X33100Y-56200
X33300Y-47600
X33300Y-49900
X33300Y-51000
X33400Y-53900
X33500Y-37500
X33700Y-30900
X33700Y-31900
X33700Y-32900
X33700Y-33900
X33700Y-40000
X33800Y-35700
X33800Y-36750
X33800Y-55100
X33850Y-51500
X33900Y-24900
X33900Y-27100
X33900Y-48200
X33900Y-57600
X34200Y-45600
X34300Y-38600
X34300Y-40800
X34300Y-46600
X34450Y-51850
X34500Y-29100
X34700Y-30900
X34700Y-31900
X34700Y-32900
X34700Y-33900
X34700Y-35600
X34700Y-54200
X34700Y-56000
X34800Y-40000
X34800Y-44200
X34900Y-24900
X34900Y-41800
X34900Y-57600
X35100Y-53000
X35150Y-42750
X35300Y-51150
X35500Y-46600
X35600Y-27700
X35600Y-28500
X35650Y-36000
X35700Y-30900
X35700Y-31900
X35700Y-32900
X35700Y-33900
X35700Y-40600
X35700Y-43300
X35700Y-45000
X35750Y-47700
X35800Y-55400
X35800Y-56800
X35900Y-24900
X35900Y-57600
X36000Y-41400
X36150Y-36750
X36300Y-26300
X36300Y-37500
X36300Y-52000
X36500Y-39000
X36700Y-29900
X36700Y-34900
X36700Y-40600
X36800Y-54800
X36900Y-24900
X36900Y-52000
X36900Y-57600
X37000Y-27700
X37000Y-28500
X37000Y-41400
X37300Y-42800
X37300Y-45400
X37300Y-46550
X37350Y-51050
X37400Y-43700
X37500Y-31300
X37500Y-32400
X37500Y-33500
X37600Y-53100
X37700Y-40600
X37700Y-47300
X37850Y-36000
X37900Y-24900
X37900Y-34600
X37900Y-48100
X37900Y-53900
X37900Y-54800
X37900Y-57600
X38000Y-41400
X38100Y-29900
X38150Y-48900
X38150Y-50150
X38200Y-44500
X38300Y-27700
X38300Y-28500
X38300Y-51200
X38400Y-42800
X38450Y-36750
X38700Y-39000
X38700Y-40600
X38800Y-52600
X38900Y-24900
X38900Y-26300
X38900Y-57600
X38940Y-44980
X38950Y-48250
X39000Y-41400
X39100Y-37500
X39100Y-43600
X39100Y-47200
X39200Y-29400
X39250Y-34600
X39300Y-31300
X39300Y-32400
X39300Y-45700
X39380Y-42860
X39500Y-53800
X39600Y-28600
X39600Y-33500
X39700Y-35500
X39700Y-40600
X39700Y-54800
X39900Y-24900
X39900Y-57600
X40000Y-41400
X40000Y-56800
X40140Y-42120
X40200Y-30400
X40200Y-46100
X40300Y-31500
X40300Y-51900
X40400Y-36200
X40450Y-42700
X40500Y-27200
X40500Y-37600
X40600Y-29600
X40600Y-32500
X40600Y-39100
X40600Y-40600
X40600Y-48800
X40650Y-43300
X40900Y-24900
X40900Y-34300
X40900Y-44100
X40900Y-54500
X40900Y-57600
X41000Y-55800
X41100Y-46800
X41100Y-48000
X41200Y-41200
X41200Y-51000
X41300Y-45000
X41370Y-39500
X41400Y-31400
X41600Y-49800
X41700Y-30400
X41740Y-33770
X41800Y-41800
X41900Y-24900
X41900Y-25700
X41900Y-26500
X41900Y-27500
X41900Y-28500
X41900Y-29500
X41900Y-35100
X41900Y-36400
X41900Y-37800
X41900Y-57600
X42000Y-39700
X42100Y-33000
X42100Y-51800
X42100Y-55500
X42300Y-46200
X42300Y-49200
X42400Y-42350
X42500Y-30400
X42500Y-47800
X42500Y-53800
X42550Y-29600
X42600Y-39940
X42600Y-50800
X42660Y-35100
X42660Y-36600
X42660Y-38130
X42700Y-24900
X42700Y-25900
X42700Y-26900
X42700Y-27900
X42700Y-45000
X42800Y-43100
X42800Y-44100
X42850Y-39250
X42860Y-30390
X42900Y-33850
X42900Y-38780
X42900Y-57600
X42950Y-43600
X42950Y-44600
X43050Y-28600
X43300Y-55700
X43400Y-46900
X43800Y-24900
X43900Y-45300
X43900Y-48400
X43900Y-50200
X43900Y-51300
X43900Y-57600
X44000Y-52750
X44100Y-53800
X44300Y-55000
X44350Y-46950
X44500Y-56400
X44550Y-28250
X44550Y-29950
X44600Y-43000
X44620Y-32200
X44650Y-29150
X44700Y-27300
X44800Y-26000
X44800Y-26600
X44850Y-48300
X44850Y-50200
X44850Y-51400
X44900Y-24900
X44900Y-36000
X44900Y-37400
X44900Y-41800
X44900Y-57600
X44950Y-30650
X45100Y-39000
X45100Y-40600
X45300Y-31400
X45300Y-32400
X45300Y-45100
X45300Y-47300
X45320Y-43360
X45400Y-26550
X45400Y-55500
X45450Y-34350
X45500Y-27700
X45500Y-52400
X45600Y-25300
X45700Y-33400
X45700Y-34800
X45700Y-53800
X45850Y-50200
X45850Y-51400
X45900Y-56700
X45900Y-57600
X46100Y-37400
X46100Y-38800
X46100Y-40200
X46200Y-41800
X46300Y-36400
X46300Y-43800
X46400Y-34100
X46600Y-36950
X46600Y-47900
X46600Y-56100
X46670Y-35030
X46700Y-54800
X46800Y-50100
X46800Y-51400
X46800Y-52800
X46900Y-27200
X46900Y-57600
X47100Y-30800
X47100Y-32800
X47200Y-26200
X47200Y-28700
X47220Y-48440
X47300Y-39600
X47300Y-41400
X47300Y-43800
X47300Y-47200
X47400Y-53700
X47500Y-37800
X47550Y-25450
X47600Y-45700
X47700Y-52200
X47900Y-33600
X47900Y-35800
X47900Y-47900
X47900Y-54800
X47900Y-57600
X48100Y-24900
X48100Y-42600
X48300Y-27800
X48300Y-49000
X48500Y-29200
X48500Y-31200
X48500Y-39000
X48500Y-40800
X48700Y-45800
X48700Y-47400
X48700Y-50200
X48700Y-51600
X48700Y-53200
X48800Y-26400
X48900Y-32600
X48900Y-37400
X49000Y-25650
X49000Y-35400
X49100Y-33600
X49100Y-42100
X49100Y-43800
X49300Y-39600
X49300Y-47800
X49300Y-48800
X49300Y-49800
X49300Y-50800
X49300Y-51800
X49500Y-27400
X49500Y-29000
X49500Y-30200
X49600Y-37900
X49600Y-41400
X49700Y-46400
X49800Y-36400
X49900Y-44200
X49900Y-45000
X50100Y-24900
X50100Y-31800
X50100Y-35000
X50200Y-46900
X50300Y-38400
X50300Y-39600
X50500Y-25600
X50500Y-26400
X50500Y-30000
X50500Y-32700
X50500Y-34100
X50500Y-41000
X50500Y-48800
X50550Y-31100
X50600Y-36100
X50700Y-27600
X50700Y-28800
X50700Y-37200
X50700Y-42600
X50700Y-44100
X51100Y-45400
X51200Y-50000
X51300Y-51000
X51500Y-47900
X51800Y-50000
X52100Y-46000
X52450Y-36000
X52500Y-34600
X52500Y-35450
X52500Y-43000
X52500Y-43600
X52550Y-40100
X52550Y-48750
X52600Y-38400
X52600Y-39600
X52700Y-36900
X52900Y-44000
X52900Y-45400
X52900Y-51000
X53000Y-42000
X53000Y-47600
X53050Y-32900
X53050Y-49250
X53100Y-41000
X53100Y-46000
X53100Y-46800
X53100Y-54600
X53100Y-55600
X53100Y-56600
X53100Y-57600
X53230Y-38950
X53340Y-25280
X53350Y-25950
X53350Y-29450
X53400Y-31450
X53500Y-28250
X53500Y-32800
X53550Y-48750
X53550Y-49750
X53620Y-41580
X53620Y-42980
X53620Y-44200
X53700Y-36100
X53700Y-37200
X53700Y-52050
X53700Y-53600
X53800Y-45350
X53800Y-52560
X53900Y-33200
X53900Y-39050
X53900Y-47600
X54000Y-24900
X54100Y-57600
X54180Y-40740
X54180Y-41400
X54180Y-42440
X54180Y-44200
X54180Y-44930
X54200Y-35000
X54300Y-46200
X54300Y-47000
X54400Y-26400
X54450Y-50900
X54450Y-53650
X54500Y-30900
X54500Y-33700
X54550Y-28600
X54550Y-36450
X54550Y-48950
X54550Y-49250
X54550Y-50400
X54600Y-25600
X54600Y-27500
X54600Y-37700
X54650Y-52650
X54700Y-32300
X54750Y-42150
X54750Y-43050
X54900Y-55200
X55100Y-57600
X55350Y-49250
X55400Y-24900
X55500Y-46000
X55700Y-47400
X55700Y-48400
X56000Y-46000
X56000Y-52100
X56050Y-52900
X56100Y-57600
X56300Y-27600
X56300Y-37800
X56350Y-46850
X56400Y-43000
X56500Y-26100
X56500Y-29100
X56500Y-31000
X56500Y-32600
X56500Y-34100
X56500Y-45700
X56500Y-47700
X56500Y-48400
X56500Y-49100
X56500Y-49800
X56500Y-50500
X56500Y-55000
X56500Y-56200
X56700Y-24900
X56700Y-38850
X56700Y-40600
X56700Y-41800
X56700Y-44500
X56700Y-51000
X56850Y-35100
X56850Y-46850
X57000Y-52100
X57050Y-53700
X57100Y-36600
X57100Y-57600
X57150Y-46350
X57200Y-33500
X57200Y-47700
X57200Y-48400
X57200Y-49100
X57200Y-49800
X57200Y-50500
X57250Y-45650
X57300Y-42500
X57300Y-43800
X57300Y-52900
X57400Y-30100
X57500Y-35200
X57500Y-39120
X57550Y-32550
X57600Y-45000
X57700Y-24900
X57700Y-31400
X57800Y-27100
X57800Y-52100
X57900Y-47700
X57900Y-48400
X57900Y-49100
X57900Y-49800
X57900Y-50500
X57900Y-51000
X58000Y-53700
X58000Y-55200
X58100Y-40550
X58100Y-57600
X58120Y-32500
X58120Y-33360
X58150Y-35500
X58150Y-43450
X58300Y-29200
X58500Y-37600
X58700Y-24900
X58700Y-38600
X58700Y-47600
X58700Y-48400
X58800Y-30000
X58880Y-49460
X58900Y-46800
X58900Y-52100
X58900Y-52900
X59000Y-53700
X59050Y-40200
X59100Y-36900
X59100Y-49100
X59100Y-57600
X59160Y-50380
X59200Y-32900
X59200Y-43900
X59300Y-26100
X59300Y-28100
X59300Y-31900
X59400Y-41500
X59460Y-34700
X59500Y-40000
X59500Y-42900
X59560Y-41060
X59560Y-41930
X59560Y-42360
X59700Y-24900
X59700Y-52900
X59800Y-34100
X59800Y-54500
X59850Y-48950
X59850Y-49250
X59900Y-36700
X59900Y-50500
X60000Y-29200
X60000Y-45800
X60100Y-35900
X60100Y-42300
X60100Y-57600
X60250Y-30800
X60250Y-40900
X60300Y-32900
X60500Y-46600
X60600Y-37000
X60600Y-38550
X60650Y-43900
X60700Y-24900
X60700Y-35500
X60700Y-50800
X60750Y-39350
X60800Y-27100
X60900Y-43220
X60900Y-47600
X60900Y-49600
X60900Y-54500
X61100Y-57600
X61300Y-45800
X61400Y-32100
X61400Y-34000
X61400Y-37600
X61400Y-42200
X61400Y-48600
X61400Y-50800
X61500Y-44800
X61500Y-46400
X61500Y-56000
X61600Y-40450
X61700Y-24900
X61700Y-29200
X61700Y-39750
X61900Y-41200
X61900Y-47600
X61900Y-49600
X62000Y-44100
X62100Y-26100
X62100Y-30100
X62100Y-31100
X62100Y-35100
X62100Y-39000
X62100Y-50800
X62100Y-52400
X62100Y-54200
X62100Y-57600
X62200Y-32600
X62200Y-37600
X62300Y-27600
X62300Y-43000
X62300Y-45800
X62300Y-46400
X62700Y-24900
X63000Y-51900
X63100Y-57600
X63300Y-45800
X63300Y-46400
X63300Y-53000
X63700Y-49600
X63700Y-51100
X63900Y-27500
X63900Y-32600
X64000Y-24900
X64100Y-26200
X64100Y-29000
X64100Y-34400
X64100Y-36200
X64100Y-37200
X64100Y-42400
X64100Y-43900
X64100Y-53800
X64100Y-57600
X64200Y-30900
X64300Y-38600
X64300Y-39800
X64300Y-45800
X64300Y-46400
X64300Y-47400
X64500Y-51800
X64600Y-49400
X64800Y-41200
X65300Y-26200
X65300Y-27200
X65300Y-28200
X65300Y-29200
X65300Y-30200
X65300Y-31200
X65300Y-32200
X65300Y-33200
X65300Y-34200
X65300Y-35200
X65300Y-36200
X65300Y-37200
X65300Y-38200
X65300Y-39200
X65300Y-40200
X65300Y-42200
X65300Y-43200
X65300Y-44200
X65300Y-45000
X65300Y-45800
X65300Y-46400
X65300Y-47400
X65300Y-48400
X65300Y-49400
X65300Y-50400
X65300Y-51400
X65300Y-52400
X65300Y-53400
X65300Y-54400
X65300Y-55400
X65300Y-56400
T2
X50500Y-30600
X61380Y-38160
X62150Y-29600
T4
X41700Y-56400
X42700Y-56400
X43700Y-56400
T5
X33506Y-43196
X33506Y-44196
X33506Y-45196
X33506Y-46196
X36200Y-52834
X36200Y-53819
X36506Y-43196
X36506Y-44196
X36506Y-45196
X36506Y-46196
X41400Y-52881
X41400Y-53866
X43850Y-46200
X43850Y-49200
X44850Y-46200
X44850Y-49200
X45850Y-46200
X45850Y-49200
X46850Y-46200
X46850Y-49200
X53850Y-26113
X53850Y-26900
X53850Y-27687
X53850Y-29413
X53850Y-30200
X53850Y-30987
T6
X43331Y-50900
X43331Y-51900
X43331Y-52900
X43331Y-53900
T7
X30189Y-51972
X30189Y-52956
X30189Y-53744
X30189Y-54728
T8
X54408Y-54358
X55392Y-54358
X57508Y-54358
X58492Y-54358
T9
X30551Y-41856
X30551Y-42659
X30551Y-43462
X30551Y-46604
X30551Y-47407
X30551Y-48210
X31350Y-42257
X31350Y-43060
X31350Y-43863
X31350Y-47005
X31350Y-47808
X31350Y-48611
T10
X30835Y-56703
X33500Y-41198
X33500Y-42198
X35165Y-56703
X39750Y-48368
X39750Y-50336
T11
X51500Y-46846
X51500Y-48815
X60531Y-53117
X61516Y-53117
X62500Y-53117
X62900Y-48146
X62900Y-50115
T12
X32016Y-52766
X33984Y-52766
T13
X59700Y-55872
X63300Y-55872
T14
X48264Y-50924
X48264Y-53876
T15
X27284Y-25490
X27284Y-56986
X64686Y-25490
X64686Y-56986
T16
X29350Y-40993
X29350Y-49493
T3
G00X29913Y-50830
M15
G01X29519Y-50830
M16
G05
G00X29913Y-55870
M15
G01X29519Y-55870
M16
G05
T14
G00X54743Y-56917
M15
G01X55057Y-56917
M16
G05
G00X57843Y-56917
M15
G01X58157Y-56917
M16
G05
T0
M30
