M48
; DRILL file {KiCad (6.0.9)} date Sat Dec 24 14:36:46 2022
; FORMAT={2:4/ absolute / inch / suppress leading zeros}
; #@! TF.CreationDate,2022-12-24T14:36:46+09:00
; #@! TF.GenerationSoftware,Kicad,Pcbnew,(6.0.9)
; #@! TF.FileFunction,MixedPlating,1,2
FMAT,2
INCH,TZ
; #@! TA.AperFunction,Plated,PTH,ViaDrill
T1C0.0118
; #@! TA.AperFunction,Plated,PTH,ViaDrill
T2C0.0157
; #@! TA.AperFunction,Plated,PTH,ViaDrill
T3C0.0197
; #@! TA.AperFunction,Plated,PTH,ComponentDrill
T4C0.0197
; #@! TA.AperFunction,Plated,PTH,ComponentDrill
T5C0.0300
; #@! TA.AperFunction,Plated,PTH,ComponentDrill
T6C0.0315
; #@! TA.AperFunction,Plated,PTH,ComponentDrill
T7C0.0354
; #@! TA.AperFunction,Plated,PTH,ComponentDrill
T8C0.0374
; #@! TA.AperFunction,Plated,PTH,ComponentDrill
T9C0.0382
; #@! TA.AperFunction,Plated,PTH,ComponentDrill
T10C0.0394
; #@! TA.AperFunction,Plated,PTH,ComponentDrill
T11C0.0472
; #@! TA.AperFunction,Plated,PTH,ComponentDrill
T12C0.0748
; #@! TA.AperFunction,Plated,PTH,ComponentDrill
T13C0.1260
; #@! TA.AperFunction,NonPlated,NPTH,ComponentDrill
T14C0.0433
; #@! TA.AperFunction,NonPlated,NPTH,ComponentDrill
T15C0.0787
; #@! TA.AperFunction,NonPlated,NPTH,ComponentDrill
T16C0.1331
%
G90
G05
T1
X23600Y-60600
X23600Y-61000
X23600Y-61400
X23600Y-61800
X23600Y-62200
X23600Y-62600
X23600Y-63000
X23600Y-63400
X23600Y-63800
X23600Y-64200
X23600Y-64600
X23600Y-65000
X23800Y-55400
X23800Y-56200
X23800Y-57000
X23800Y-57800
X23800Y-58600
X23800Y-59400
X23850Y-21000
X23850Y-21750
X23850Y-22500
X23850Y-23250
X23850Y-24000
X23850Y-24750
X23850Y-25500
X23850Y-26250
X23850Y-27000
X23850Y-27750
X23850Y-28500
X23850Y-29250
X23850Y-30000
X23850Y-30750
X23850Y-31500
X23850Y-32250
X23850Y-33000
X23850Y-33750
X23850Y-34500
X23850Y-35250
X23850Y-36000
X23850Y-36750
X23850Y-37500
X23850Y-38250
X23850Y-39000
X23850Y-39750
X23850Y-40500
X23850Y-41250
X23850Y-42000
X23850Y-42750
X23850Y-43500
X23850Y-44250
X23850Y-45000
X23850Y-45750
X23850Y-46500
X23850Y-47250
X23850Y-48000
X23850Y-48750
X23850Y-49500
X23850Y-50250
X23850Y-51000
X23850Y-51750
X23850Y-52500
X23850Y-53250
X23850Y-54000
X23850Y-54750
X24000Y-15000
X24000Y-16000
X24000Y-17000
X24000Y-18000
X24000Y-19000
X24000Y-20000
X24000Y-60600
X24000Y-61000
X24000Y-61400
X24000Y-61800
X24000Y-62200
X24000Y-62600
X24000Y-63000
X24000Y-63400
X24000Y-63800
X24000Y-64200
X24000Y-64600
X24200Y-55800
X24200Y-56600
X24200Y-57400
X24200Y-58200
X24200Y-59000
X24400Y-62200
X24400Y-62600
X24400Y-63000
X24400Y-63400
X24400Y-63800
X24400Y-64200
X24400Y-64500
X24600Y-56200
X24600Y-57000
X24600Y-57800
X24600Y-58600
X24800Y-63400
X24800Y-64200
X24800Y-64500
X25000Y-56600
X25000Y-57400
X25000Y-58200
X25000Y-59000
X25200Y-64200
X25200Y-64500
X25250Y-15000
X25250Y-16000
X25250Y-17000
X25250Y-18000
X25250Y-19000
X25350Y-31700
X25350Y-32000
X25350Y-32300
X25350Y-42800
X25350Y-43250
X25350Y-43700
X25350Y-46300
X25400Y-21400
X25400Y-22000
X25400Y-22600
X25400Y-23200
X25400Y-23800
X25400Y-24400
X25400Y-26900
X25400Y-27300
X25400Y-27700
X25400Y-28100
X25400Y-28500
X25400Y-28900
X25400Y-29300
X25400Y-40200
X25400Y-40700
X25400Y-41200
X25400Y-47800
X25400Y-48400
X25400Y-50200
X25400Y-50800
X25400Y-51400
X25400Y-52000
X25400Y-52600
X25400Y-53200
X25400Y-53700
X25400Y-57000
X25400Y-57800
X25400Y-58600
X25400Y-60650
X25400Y-63300
X25500Y-37900
X25500Y-38500
X25500Y-45600
X25500Y-46900
X25600Y-62900
X25600Y-64250
X25600Y-64650
X25650Y-32000
X25700Y-21100
X25700Y-24100
X25700Y-54900
X25800Y-37600
X25800Y-38200
X25800Y-38800
X25800Y-40200
X25800Y-40700
X25800Y-41200
X25800Y-43250
X25800Y-43700
X25800Y-56600
X25800Y-57400
X25800Y-58200
X25800Y-59000
X25800Y-60650
X25800Y-61000
X25800Y-61400
X26000Y-20800
X26000Y-21400
X26000Y-22000
X26000Y-22600
X26000Y-23200
X26000Y-23800
X26000Y-25400
X26000Y-26000
X26000Y-45100
X26000Y-45600
X26000Y-46900
X26000Y-47800
X26000Y-48400
X26000Y-50200
X26000Y-50800
X26000Y-51400
X26000Y-52000
X26000Y-52600
X26000Y-53200
X26000Y-64650
X26000Y-65050
X26000Y-67300
X26100Y-30300
X26100Y-30900
X26100Y-33100
X26100Y-33700
X26100Y-34300
X26100Y-34900
X26100Y-35500
X26100Y-36100
X26100Y-37900
X26100Y-38500
X26200Y-25100
X26200Y-25700
X26200Y-26300
X26200Y-41900
X26200Y-42250
X26200Y-54700
X26200Y-55100
X26200Y-57000
X26200Y-57800
X26200Y-58600
X26200Y-60650
X26200Y-61000
X26200Y-61400
X26200Y-61800
X26250Y-17000
X26250Y-18000
X26250Y-43250
X26250Y-63050
X26250Y-63350
X26400Y-27600
X26400Y-28200
X26400Y-28800
X26400Y-29400
X26400Y-30000
X26400Y-30600
X26400Y-32800
X26400Y-33400
X26400Y-34000
X26400Y-34600
X26400Y-35200
X26400Y-35800
X26400Y-36400
X26400Y-37600
X26400Y-38200
X26500Y-46900
X26550Y-65900
X26600Y-47800
X26600Y-48400
X26600Y-49000
X26600Y-49600
X26600Y-50200
X26600Y-50800
X26600Y-51400
X26600Y-52000
X26600Y-52600
X26600Y-56600
X26600Y-57400
X26600Y-58200
X26600Y-59000
X26609Y-64500
X26700Y-27900
X26700Y-28500
X26700Y-29100
X26700Y-29700
X26700Y-30300
X26700Y-30900
X26700Y-31500
X26700Y-32500
X26700Y-33100
X26700Y-33700
X26700Y-34300
X26700Y-34900
X26700Y-35500
X26700Y-36100
X26700Y-37900
X26700Y-54900
X26880Y-22980
X26900Y-19800
X26950Y-53650
X27000Y-21300
X27000Y-21800
X27000Y-22300
X27000Y-28200
X27000Y-28800
X27000Y-31200
X27000Y-34600
X27000Y-36400
X27000Y-37600
X27000Y-46900
X27000Y-57000
X27000Y-57800
X27000Y-58600
X27000Y-63300
X27020Y-24000
X27050Y-25100
X27050Y-25500
X27050Y-25900
X27050Y-26300
X27050Y-26700
X27050Y-60550
X27091Y-64200
X27200Y-19500
X27200Y-43000
X27200Y-44850
X27200Y-47800
X27200Y-48400
X27200Y-49000
X27200Y-49600
X27200Y-50200
X27200Y-50800
X27200Y-51400
X27200Y-52000
X27200Y-52600
X27200Y-54700
X27200Y-55100
X27250Y-12000
X27250Y-13000
X27250Y-14000
X27250Y-17000
X27250Y-53650
X27300Y-28500
X27300Y-29100
X27300Y-60750
X27400Y-56600
X27400Y-57400
X27400Y-58200
X27400Y-59000
X27400Y-63300
X27400Y-66000
X27400Y-66600
X27400Y-67200
X27450Y-25100
X27450Y-25500
X27450Y-25900
X27450Y-26300
X27450Y-26700
X27450Y-27100
X27500Y-19200
X27500Y-21300
X27500Y-21800
X27500Y-22300
X27500Y-30000
X27500Y-30500
X27500Y-35000
X27500Y-35500
X27500Y-46900
X27550Y-53550
X27600Y-28800
X27600Y-36400
X27600Y-43000
X27600Y-45650
X27700Y-54900
X27700Y-66300
X27700Y-66900
X27760Y-63130
X27800Y-24150
X27800Y-47800
X27800Y-48400
X27800Y-49000
X27800Y-49600
X27800Y-50200
X27800Y-50800
X27800Y-51400
X27800Y-52000
X27800Y-52600
X27800Y-57000
X27800Y-57800
X27800Y-58600
X27850Y-25100
X27850Y-25500
X27850Y-25900
X27850Y-26300
X27850Y-26700
X27850Y-27100
X27850Y-27500
X27850Y-53550
X27900Y-28500
X27900Y-29100
X27920Y-61940
X28000Y-21300
X28000Y-21800
X28000Y-22300
X28000Y-30000
X28000Y-30500
X28000Y-35000
X28000Y-35500
X28000Y-43950
X28000Y-66000
X28000Y-66600
X28000Y-67200
X28053Y-64803
X28080Y-23850
X28100Y-45100
X28120Y-61740
X28200Y-18450
X28200Y-28800
X28200Y-36400
X28200Y-46250
X28200Y-54700
X28200Y-55100
X28200Y-56600
X28200Y-57400
X28200Y-58200
X28200Y-59000
X28200Y-60550
X28250Y-12000
X28250Y-13000
X28250Y-14000
X28250Y-15000
X28250Y-16000
X28250Y-27100
X28250Y-62250
X28300Y-25300
X28300Y-25700
X28300Y-66300
X28300Y-66900
X28400Y-47800
X28400Y-48400
X28400Y-50200
X28400Y-50800
X28400Y-51400
X28400Y-52000
X28400Y-52600
X28447Y-64797
X28500Y-21800
X28500Y-22300
X28500Y-28500
X28500Y-29100
X28500Y-36100
X28600Y-46650
X28600Y-66000
X28600Y-66600
X28600Y-67200
X28650Y-43150
X28700Y-25300
X28700Y-54900
X28750Y-31250
X28750Y-32000
X28750Y-32750
X28750Y-33500
X28750Y-34250
X28800Y-28800
X28800Y-29400
X28800Y-36400
X28800Y-45750
X28900Y-53550
X28900Y-66300
X28900Y-66900
X29000Y-20800
X29000Y-22300
X29000Y-23850
X29000Y-47800
X29000Y-48400
X29000Y-50200
X29000Y-50800
X29000Y-51400
X29000Y-52000
X29000Y-62250
X29050Y-18500
X29100Y-28500
X29100Y-29100
X29200Y-17750
X29200Y-44950
X29200Y-45350
X29200Y-66000
X29200Y-66600
X29200Y-67200
X29250Y-12000
X29250Y-13000
X29250Y-14000
X29250Y-15000
X29250Y-16000
X29250Y-43700
X29300Y-21350
X29300Y-37200
X29300Y-54300
X29300Y-54700
X29300Y-55100
X29400Y-28800
X29400Y-64600
X29450Y-22100
X29500Y-31250
X29500Y-32000
X29500Y-32750
X29500Y-33500
X29500Y-34250
X29500Y-43450
X29600Y-44950
X29600Y-45350
X29600Y-46700
X29600Y-47800
X29600Y-48400
X29600Y-49000
X29600Y-49600
X29600Y-50200
X29600Y-50800
X29600Y-51400
X29600Y-62600
X29600Y-63000
X29600Y-63400
X29600Y-64200
X29700Y-28500
X29700Y-29100
X29700Y-37200
X29700Y-53950
X29700Y-54300
X29700Y-54700
X29700Y-55100
X29750Y-43200
X29800Y-52650
X29850Y-27250
X29850Y-27650
X29880Y-36220
X29950Y-65900
X30000Y-19750
X30000Y-20800
X30000Y-23850
X30000Y-28800
X30000Y-61800
X30000Y-62200
X30000Y-63000
X30000Y-63800
X30000Y-64200
X30100Y-27450
X30100Y-52350
X30100Y-53600
X30100Y-53950
X30100Y-54300
X30100Y-54700
X30100Y-55100
X30150Y-26500
X30200Y-47800
X30200Y-48400
X30200Y-49000
X30200Y-49600
X30200Y-50200
X30200Y-50800
X30250Y-12000
X30250Y-13000
X30250Y-14000
X30250Y-15000
X30250Y-16000
X30250Y-24850
X30250Y-31250
X30250Y-32000
X30250Y-32750
X30250Y-33500
X30250Y-34250
X30280Y-18040
X30300Y-21100
X30300Y-28500
X30300Y-29100
X30400Y-44800
X30400Y-45650
X30400Y-52050
X30400Y-61800
X30400Y-62600
X30400Y-63400
X30400Y-64200
X30480Y-18240
X30500Y-43800
X30500Y-53600
X30500Y-53950
X30500Y-54300
X30500Y-54700
X30500Y-55100
X30550Y-24850
X30600Y-28800
X30650Y-42700
X30700Y-21100
X30700Y-51750
X30750Y-45650
X30750Y-47000
X30800Y-37200
X30800Y-37800
X30800Y-43600
X30800Y-47800
X30800Y-48400
X30800Y-49000
X30800Y-49600
X30800Y-50200
X30800Y-61800
X30800Y-62200
X30800Y-62600
X30800Y-63000
X30800Y-63800
X30800Y-64600
X30800Y-65400
X30800Y-67000
X30850Y-24850
X30900Y-19450
X30900Y-28500
X30900Y-53600
X30900Y-53950
X30900Y-54300
X30900Y-54700
X30900Y-55100
X31000Y-26350
X31000Y-26850
X31000Y-31250
X31000Y-32000
X31000Y-32750
X31000Y-33500
X31000Y-34250
X31000Y-51450
X31000Y-52600
X31000Y-59200
X31000Y-59600
X31000Y-60000
X31000Y-60400
X31000Y-60800
X31000Y-61200
X31050Y-42700
X31100Y-20700
X31100Y-21100
X31100Y-36300
X31100Y-41950
X31100Y-43800
X31100Y-58800
X31150Y-19700
X31150Y-47000
X31200Y-22800
X31200Y-23300
X31200Y-23800
X31200Y-28200
X31200Y-44800
X31200Y-63400
X31200Y-64200
X31200Y-65000
X31250Y-12000
X31250Y-13000
X31250Y-14000
X31250Y-15000
X31250Y-16000
X31250Y-16900
X31250Y-17300
X31300Y-51150
X31300Y-53600
X31300Y-53950
X31400Y-19950
X31400Y-36600
X31400Y-37200
X31400Y-37800
X31400Y-38400
X31400Y-41950
X31400Y-43600
X31400Y-46750
X31400Y-47800
X31400Y-48400
X31400Y-49000
X31400Y-49600
X31400Y-52200
X31400Y-52600
X31400Y-59200
X31400Y-59600
X31400Y-60000
X31400Y-60400
X31400Y-60800
X31450Y-23050
X31450Y-23550
X31450Y-42700
X31500Y-20300
X31500Y-20700
X31500Y-21100
X31500Y-26350
X31500Y-26850
X31500Y-27350
X31500Y-27850
X31500Y-58400
X31500Y-58800
X31550Y-41200
X31550Y-44800
X31600Y-18900
X31600Y-50850
X31600Y-63800
X31600Y-64600
X31600Y-65400
X31600Y-66200
X31600Y-67000
X31650Y-16900
X31650Y-17300
X31700Y-23300
X31700Y-23800
X31700Y-29300
X31700Y-36300
X31700Y-53950
X31750Y-31250
X31750Y-32000
X31750Y-32750
X31750Y-33500
X31750Y-34250
X31800Y-47700
X31800Y-48100
X31800Y-59200
X31800Y-59600
X31800Y-60000
X31800Y-60400
X31800Y-60800
X31850Y-58000
X31900Y-20300
X31900Y-20700
X31900Y-21100
X31900Y-40100
X31900Y-44800
X31900Y-50550
X31900Y-58400
X31900Y-58800
X32000Y-18900
X32000Y-19300
X32000Y-26350
X32000Y-26850
X32000Y-27350
X32000Y-29000
X32000Y-36600
X32000Y-37200
X32000Y-37800
X32000Y-38400
X32000Y-39000
X32000Y-63400
X32000Y-64200
X32000Y-65000
X32000Y-65800
X32000Y-66600
X32050Y-16900
X32050Y-17300
X32200Y-22500
X32200Y-47300
X32200Y-48100
X32200Y-50250
X32250Y-12000
X32250Y-13000
X32250Y-14000
X32250Y-15000
X32250Y-16000
X32300Y-20300
X32300Y-20700
X32300Y-28700
X32300Y-29300
X32300Y-36300
X32400Y-40100
X32400Y-42100
X32400Y-54200
X32400Y-54600
X32400Y-55000
X32400Y-63800
X32400Y-64600
X32400Y-65400
X32400Y-66200
X32400Y-67000
X32500Y-26350
X32500Y-26850
X32500Y-30000
X32500Y-30500
X32500Y-35000
X32500Y-35500
X32500Y-49950
X32600Y-21650
X32600Y-22500
X32600Y-28400
X32600Y-29000
X32600Y-36600
X32600Y-37200
X32600Y-37800
X32600Y-38400
X32600Y-39000
X32600Y-47300
X32600Y-47700
X32600Y-51100
X32600Y-52800
X32600Y-53200
X32700Y-20300
X32750Y-49600
X32800Y-41500
X32800Y-41900
X32800Y-43850
X32800Y-54200
X32800Y-54600
X32800Y-55000
X32800Y-63400
X32800Y-64200
X32800Y-65000
X32800Y-65800
X32800Y-66600
X32900Y-28100
X32900Y-29300
X32900Y-36300
X32900Y-39600
X32900Y-40100
X32900Y-50800
X33000Y-19550
X33000Y-21500
X33000Y-22500
X33000Y-23000
X33000Y-23500
X33000Y-25300
X33000Y-26350
X33000Y-30000
X33000Y-30500
X33000Y-35000
X33000Y-35500
X33000Y-42400
X33000Y-47300
X33050Y-44100
X33109Y-45641
X33200Y-27800
X33200Y-29000
X33200Y-36600
X33200Y-37200
X33200Y-37800
X33200Y-38400
X33200Y-39000
X33200Y-41500
X33200Y-41900
X33200Y-50500
X33200Y-51100
X33200Y-52800
X33200Y-53200
X33200Y-54200
X33200Y-54600
X33200Y-55000
X33200Y-63800
X33200Y-64600
X33200Y-65400
X33200Y-66200
X33200Y-67000
X33250Y-12000
X33250Y-13000
X33250Y-14000
X33250Y-15000
X33250Y-16000
X33250Y-47750
X33350Y-19550
X33500Y-21500
X33500Y-22500
X33500Y-23000
X33500Y-23500
X33500Y-25300
X33500Y-26350
X33500Y-27500
X33500Y-29300
X33500Y-36300
X33500Y-50200
X33500Y-50800
X33600Y-41500
X33600Y-47400
X33600Y-54200
X33600Y-54600
X33600Y-55000
X33600Y-63400
X33600Y-64200
X33600Y-65000
X33600Y-65800
X33600Y-66600
X33650Y-18450
X33700Y-17750
X33700Y-34100
X33700Y-34700
X33700Y-46300
X33750Y-35950
X33750Y-48500
X33800Y-27800
X33800Y-28400
X33800Y-29000
X33800Y-29600
X33800Y-30000
X33800Y-30400
X33800Y-30800
X33800Y-31200
X33800Y-32600
X33800Y-38400
X33800Y-39600
X33800Y-44500
X33800Y-45000
X33800Y-47800
X33800Y-49900
X33800Y-50500
X33800Y-51100
X33800Y-52800
X33800Y-53200
X33900Y-46050
X34000Y-20300
X34000Y-20900
X34000Y-21500
X34000Y-22500
X34000Y-23000
X34000Y-23500
X34000Y-24100
X34000Y-25300
X34000Y-26350
X34000Y-34400
X34000Y-35000
X34000Y-35600
X34000Y-56600
X34000Y-57000
X34000Y-63800
X34000Y-64600
X34000Y-65400
X34000Y-66200
X34000Y-67000
X34100Y-32300
X34100Y-32900
X34100Y-46300
X34100Y-47500
X34100Y-47800
X34100Y-50200
X34100Y-50800
X34150Y-18650
X34150Y-42750
X34250Y-12000
X34250Y-13000
X34250Y-14000
X34250Y-15000
X34250Y-16000
X34300Y-20000
X34300Y-34700
X34300Y-35300
X34300Y-35900
X34300Y-44100
X34300Y-44550
X34300Y-45000
X34300Y-46050
X34400Y-32000
X34400Y-32600
X34400Y-33200
X34400Y-40150
X34400Y-42500
X34400Y-47800
X34400Y-49900
X34400Y-50500
X34400Y-51100
X34400Y-52800
X34400Y-53200
X34400Y-56600
X34400Y-57000
X34400Y-63400
X34400Y-64200
X34400Y-65000
X34400Y-65800
X34400Y-66600
X34450Y-39000
X34500Y-21500
X34500Y-22500
X34500Y-25300
X34500Y-26350
X34600Y-19700
X34600Y-35000
X34600Y-35600
X34650Y-42750
X34700Y-33500
X34700Y-50200
X34700Y-50800
X34750Y-36950
X34750Y-38050
X34750Y-39950
X34750Y-40300
X34750Y-41250
X34750Y-48500
X34800Y-18400
X34800Y-28400
X34800Y-29000
X34800Y-29600
X34800Y-30200
X34800Y-30800
X34800Y-31400
X34800Y-44100
X34800Y-44550
X34800Y-45000
X34800Y-46800
X34800Y-65400
X34800Y-67000
X34900Y-42500
X35000Y-20600
X35000Y-21050
X35000Y-21500
X35000Y-23500
X35000Y-24100
X35000Y-25300
X35000Y-26350
X35000Y-32000
X35000Y-32600
X35000Y-33200
X35000Y-33800
X35000Y-41500
X35000Y-49900
X35000Y-50500
X35000Y-51100
X35000Y-52800
X35050Y-39000
X35100Y-19550
X35100Y-40150
X35100Y-46500
X35100Y-47100
X35200Y-18650
X35250Y-12000
X35250Y-13000
X35250Y-14000
X35250Y-15000
X35250Y-16000
X35250Y-41250
X35300Y-34100
X35300Y-44100
X35300Y-44550
X35300Y-45000
X35300Y-50200
X35300Y-50800
X35350Y-20000
X35350Y-42600
X35400Y-28400
X35400Y-29000
X35400Y-29600
X35400Y-30200
X35400Y-30800
X35400Y-31400
X35400Y-46200
X35400Y-46800
X35400Y-58600
X35500Y-21500
X35500Y-21900
X35500Y-23000
X35500Y-23500
X35500Y-25300
X35500Y-26350
X35500Y-27380
X35505Y-40355
X35600Y-19550
X35600Y-32000
X35600Y-32600
X35600Y-33200
X35600Y-33800
X35600Y-34400
X35600Y-35100
X35600Y-35600
X35600Y-36100
X35600Y-40900
X35600Y-50500
X35600Y-51100
X35650Y-16900
X35650Y-17300
X35650Y-18650
X35650Y-42150
X35700Y-36900
X35700Y-37200
X35700Y-46500
X35800Y-20000
X35800Y-40700
X35800Y-43000
X35800Y-43500
X35800Y-44000
X35800Y-44500
X35800Y-47800
X35800Y-48200
X35850Y-35350
X35850Y-35850
X35850Y-40009
X35900Y-41900
X36000Y-21500
X36000Y-21900
X36000Y-23000
X36000Y-23500
X36000Y-25300
X36000Y-26350
X36000Y-28400
X36000Y-29000
X36000Y-29600
X36000Y-30200
X36000Y-30800
X36000Y-31400
X36000Y-46200
X36050Y-16900
X36050Y-17300
X36100Y-18700
X36100Y-35100
X36100Y-35600
X36150Y-37350
X36150Y-41650
X36150Y-59150
X36200Y-47400
X36200Y-47800
X36200Y-48200
X36200Y-48600
X36200Y-49000
X36250Y-12000
X36250Y-13000
X36250Y-14000
X36250Y-15000
X36250Y-16000
X36350Y-35350
X36400Y-41400
X36400Y-45200
X36435Y-37065
X36450Y-16900
X36450Y-17300
X36500Y-18700
X36500Y-19100
X36600Y-30800
X36600Y-31400
X36600Y-48600
X36600Y-49400
X36800Y-45200
X36800Y-49800
X36800Y-50200
X36800Y-50600
X36800Y-51000
X36800Y-51400
X36800Y-51800
X36800Y-52200
X36800Y-52600
X37000Y-19700
X37000Y-24950
X37000Y-49000
X37000Y-49400
X37000Y-61000
X37100Y-35950
X37150Y-18450
X37200Y-21900
X37200Y-31400
X37200Y-41700
X37200Y-50200
X37200Y-51000
X37200Y-51800
X37200Y-52600
X37200Y-53000
X37250Y-12000
X37250Y-13000
X37250Y-14000
X37250Y-15000
X37250Y-16000
X37300Y-23400
X37300Y-23900
X37300Y-27300
X37350Y-61000
X37350Y-61350
X37400Y-46100
X37400Y-49400
X37450Y-19700
X37500Y-26500
X37500Y-35800
X37500Y-48250
X37600Y-21900
X37600Y-40800
X37600Y-43000
X37600Y-49800
X37600Y-50200
X37600Y-50600
X37600Y-51400
X37600Y-52200
X37600Y-53000
X37600Y-58700
X37600Y-59100
X37600Y-59500
X37600Y-59900
X37700Y-26900
X37700Y-27300
X37700Y-30650
X37700Y-46100
X37700Y-61000
X37700Y-61350
X37700Y-61700
X37750Y-48450
X37800Y-22900
X37800Y-23400
X37800Y-23900
X37800Y-32200
X37800Y-32600
X37800Y-33000
X37800Y-33400
X37800Y-33800
X37800Y-34200
X37800Y-34600
X37800Y-35000
X37800Y-41000
X37800Y-44500
X37800Y-45100
X37800Y-58500
X37800Y-58900
X37800Y-59300
X37800Y-59700
X37900Y-19900
X37900Y-35950
X38000Y-18500
X38000Y-30950
X38000Y-42600
X38000Y-43400
X38000Y-46100
X38000Y-48250
X38000Y-51000
X38000Y-51800
X38000Y-52600
X38000Y-53000
X38000Y-54400
X38000Y-54800
X38000Y-55200
X38000Y-55600
X38000Y-56000
X38000Y-56400
X38050Y-20900
X38050Y-61000
X38050Y-61350
X38050Y-61700
X38050Y-62050
X38100Y-24950
X38100Y-27300
X38100Y-41300
X38100Y-44800
X38100Y-67400
X38150Y-17750
X38200Y-32600
X38200Y-33000
X38200Y-33400
X38200Y-34200
X38200Y-35000
X38250Y-12000
X38250Y-13000
X38250Y-14000
X38250Y-15000
X38250Y-16000
X38250Y-25700
X38300Y-31250
X38300Y-35800
X38400Y-21250
X38400Y-43000
X38400Y-44500
X38400Y-45100
X38400Y-51400
X38400Y-52200
X38400Y-53000
X38400Y-54800
X38400Y-55200
X38400Y-55600
X38400Y-56400
X38400Y-56800
X38400Y-61400
X38400Y-61750
X38400Y-62100
X38450Y-41650
X38500Y-67400
X38600Y-31550
X38600Y-33000
X38600Y-33800
X38600Y-34600
X38600Y-35000
X38600Y-37900
X38650Y-40600
X38700Y-30400
X38700Y-35950
X38700Y-44800
X38750Y-25700
X38750Y-26150
X38750Y-49250
X38750Y-49950
X38750Y-50350
X38800Y-24150
X38800Y-24950
X38800Y-41650
X38800Y-42600
X38800Y-43400
X38800Y-46400
X38800Y-51800
X38800Y-52600
X38800Y-53400
X38800Y-55600
X38800Y-56000
X38800Y-56800
X38800Y-57200
X38800Y-61700
X38800Y-62100
X38900Y-31850
X38900Y-37900
X38900Y-67400
X38950Y-40800
X39000Y-20800
X39000Y-30700
X39000Y-33000
X39000Y-33400
X39000Y-34200
X39000Y-35000
X39000Y-44500
X39000Y-45100
X39050Y-50650
X39080Y-22680
X39100Y-23850
X39100Y-35800
X39150Y-48150
X39200Y-32150
X39200Y-43000
X39200Y-46400
X39200Y-52200
X39200Y-53000
X39200Y-53800
X39200Y-55600
X39200Y-56400
X39200Y-57200
X39200Y-61700
X39200Y-62100
X39220Y-18010
X39250Y-12000
X39250Y-13000
X39250Y-14000
X39250Y-15000
X39250Y-16000
X39250Y-25700
X39250Y-40600
X39250Y-41650
X39300Y-30400
X39300Y-31000
X39300Y-44800
X39300Y-67400
X39350Y-50950
X39400Y-33000
X39400Y-33800
X39400Y-34600
X39400Y-35000
X39420Y-18210
X39450Y-48150
X39500Y-35950
X39550Y-40800
X39600Y-30700
X39600Y-31300
X39600Y-32150
X39600Y-41650
X39600Y-42600
X39600Y-43400
X39600Y-44500
X39600Y-45100
X39600Y-48400
X39600Y-52600
X39600Y-53400
X39600Y-53800
X39600Y-55600
X39600Y-56000
X39600Y-56800
X39600Y-57600
X39600Y-61700
X39600Y-62100
X39650Y-51250
X39700Y-38200
X39700Y-67400
X39750Y-22250
X39750Y-49250
X39750Y-49850
X39800Y-33400
X39800Y-34200
X39800Y-35000
X39900Y-35800
X39900Y-44800
X39950Y-51550
X40000Y-20800
X40000Y-23800
X40000Y-30400
X40000Y-40700
X40000Y-43000
X40000Y-53000
X40000Y-53400
X40000Y-55600
X40000Y-56400
X40000Y-57200
X40000Y-57600
X40000Y-59000
X40000Y-59400
X40000Y-59800
X40000Y-60200
X40000Y-61700
X40000Y-62100
X40050Y-22600
X40050Y-25200
X40100Y-50200
X40100Y-54800
X40100Y-55200
X40100Y-67400
X40200Y-16900
X40200Y-17300
X40200Y-33800
X40200Y-34600
X40200Y-35000
X40200Y-44500
X40250Y-12000
X40250Y-13000
X40250Y-14000
X40250Y-15000
X40250Y-16000
X40250Y-19450
X40250Y-51850
X40300Y-22200
X40300Y-35950
X40300Y-38700
X40400Y-30800
X40400Y-31200
X40400Y-45600
X40400Y-50500
X40400Y-55600
X40400Y-56000
X40400Y-56800
X40400Y-57200
X40400Y-59000
X40400Y-59400
X40400Y-60200
X40400Y-62100
X40450Y-27950
X40450Y-41650
X40450Y-42500
X40450Y-42800
X40500Y-40700
X40500Y-44200
X40500Y-48300
X40500Y-54400
X40500Y-54800
X40500Y-55200
X40500Y-67400
X40550Y-52150
X40600Y-16900
X40600Y-17300
X40600Y-19450
X40600Y-32150
X40600Y-34200
X40600Y-35000
X40600Y-38400
X40650Y-27750
X40700Y-33650
X40700Y-35800
X40700Y-50800
X40750Y-40850
X40800Y-30800
X40800Y-31200
X40800Y-33000
X40800Y-45200
X40800Y-55600
X40800Y-56400
X40800Y-57200
X40800Y-59000
X40800Y-59800
X40800Y-60200
X40800Y-62100
X40850Y-27950
X40850Y-52450
X40900Y-38100
X40900Y-38700
X40900Y-67400
X41000Y-16900
X41000Y-17300
X41000Y-19800
X41000Y-20800
X41000Y-22600
X41000Y-23800
X41000Y-34200
X41000Y-35000
X41000Y-41950
X41000Y-45600
X41000Y-48400
X41000Y-49000
X41000Y-49600
X41000Y-51100
X41000Y-53900
X41050Y-33250
X41100Y-18900
X41100Y-27150
X41100Y-32150
X41140Y-26070
X41150Y-26850
X41150Y-43450
X41200Y-31200
X41200Y-38400
X41200Y-44800
X41200Y-55600
X41200Y-56000
X41200Y-56800
X41200Y-57600
X41200Y-59000
X41200Y-59400
X41200Y-60200
X41200Y-61700
X41200Y-62100
X41200Y-62900
X41200Y-63200
X41200Y-65150
X41250Y-12000
X41250Y-13000
X41250Y-14000
X41250Y-15000
X41250Y-16000
X41250Y-24150
X41250Y-24900
X41250Y-41200
X41300Y-33000
X41300Y-41950
X41300Y-48700
X41300Y-49300
X41300Y-49900
X41300Y-51500
X41400Y-34700
X41400Y-45200
X41400Y-66800
X41400Y-67200
X41450Y-43150
X41500Y-38100
X41500Y-38700
X41500Y-53900
X41500Y-62900
X41500Y-63200
X41550Y-33250
X41600Y-32150
X41600Y-41200
X41600Y-44400
X41600Y-45600
X41600Y-48400
X41600Y-49000
X41600Y-49600
X41600Y-50200
X41600Y-51200
X41600Y-51800
X41600Y-55600
X41600Y-56400
X41600Y-57200
X41600Y-57600
X41600Y-59000
X41600Y-59800
X41600Y-60200
X41600Y-61700
X41600Y-62100
X41600Y-65150
X41650Y-27700
X41700Y-34200
X41700Y-35200
X41750Y-52950
X41800Y-33000
X41800Y-44800
X41800Y-62900
X41800Y-63200
X41800Y-66800
X41800Y-67200
X41900Y-27450
X41900Y-27950
X41900Y-49300
X41900Y-49900
X41900Y-51500
X41950Y-22600
X41950Y-23800
X42000Y-26150
X42000Y-28600
X42000Y-30600
X42000Y-34700
X42000Y-37950
X42000Y-38300
X42000Y-45200
X42000Y-46000
X42000Y-53900
X42000Y-54400
X42000Y-54800
X42000Y-55200
X42000Y-55600
X42000Y-56000
X42000Y-56400
X42000Y-56800
X42000Y-57200
X42000Y-57600
X42000Y-59000
X42000Y-59400
X42000Y-59800
X42000Y-60200
X42000Y-61700
X42000Y-65150
X42050Y-33250
X42100Y-32150
X42100Y-42300
X42100Y-62900
X42100Y-63200
X42150Y-27700
X42200Y-20000
X42200Y-20400
X42200Y-20800
X42200Y-22950
X42200Y-23450
X42200Y-24000
X42200Y-44400
X42200Y-48400
X42200Y-48800
X42200Y-51200
X42200Y-52950
X42200Y-66800
X42200Y-67200
X42250Y-12000
X42250Y-13000
X42250Y-14000
X42250Y-15000
X42250Y-16000
X42300Y-34200
X42300Y-35200
X42350Y-41200
X42350Y-42000
X42350Y-50300
X42400Y-27950
X42400Y-42300
X42400Y-43600
X42400Y-44800
X42400Y-64800
X42400Y-65300
X42400Y-65800
X42400Y-66300
X42500Y-30600
X42500Y-38100
X42500Y-38400
X42500Y-38700
X42500Y-53750
X42550Y-33300
X42600Y-20000
X42600Y-20400
X42600Y-20800
X42600Y-32150
X42600Y-32500
X42600Y-34700
X42600Y-48400
X42600Y-48800
X42600Y-63000
X42600Y-63400
X42600Y-66800
X42600Y-67200
X42650Y-17750
X42650Y-18450
X42650Y-41200
X42650Y-42000
X42650Y-52950
X42750Y-50300
X42800Y-25500
X42800Y-43200
X42800Y-43600
X42800Y-44400
X42800Y-46000
X42800Y-61400
X42800Y-61800
X42800Y-62200
X42800Y-62600
X42900Y-27350
X42900Y-34200
X42900Y-35200
X42900Y-65300
X42900Y-65800
X42900Y-66300
X42950Y-53750
X43000Y-20000
X43000Y-20400
X43000Y-20800
X43000Y-28500
X43000Y-30600
X43000Y-37950
X43000Y-38300
X43000Y-48400
X43000Y-48800
X43000Y-63000
X43000Y-63400
X43000Y-66800
X43000Y-67200
X43050Y-33300
X43100Y-25300
X43100Y-32150
X43100Y-32500
X43100Y-52950
X43150Y-18650
X43150Y-50300
X43200Y-27350
X43200Y-34700
X43200Y-43600
X43200Y-45600
X43200Y-61400
X43200Y-61800
X43200Y-62200
X43200Y-62600
X43250Y-12000
X43250Y-13000
X43250Y-14000
X43250Y-15000
X43250Y-16000
X43350Y-59250
X43350Y-60250
X43400Y-25500
X43400Y-41200
X43400Y-42100
X43400Y-42500
X43400Y-48400
X43400Y-48800
X43400Y-53750
X43400Y-65300
X43400Y-66300
X43400Y-66800
X43400Y-67200
X43450Y-38100
X43450Y-38700
X43450Y-54300
X43500Y-27350
X43500Y-28500
X43500Y-34200
X43500Y-35200
X43550Y-33300
X43550Y-52950
X43550Y-54750
X43600Y-19650
X43600Y-24700
X43600Y-30300
X43600Y-30700
X43600Y-32500
X43600Y-45200
X43600Y-46000
X43600Y-51200
X43600Y-52200
X43600Y-55200
X43600Y-55600
X43600Y-56000
X43600Y-56400
X43600Y-56800
X43600Y-57200
X43600Y-57600
X43600Y-58000
X43600Y-58400
X43600Y-58800
X43700Y-42400
X43700Y-42800
X43750Y-18200
X43750Y-38400
X43750Y-64100
X43800Y-34700
X43800Y-48400
X43800Y-50200
X43800Y-51700
X43800Y-66800
X43800Y-67200
X43850Y-21250
X43850Y-22300
X43850Y-22750
X43850Y-23200
X43850Y-53750
X43900Y-19900
X43900Y-31550
X43900Y-54300
X43950Y-54750
X44000Y-24700
X44000Y-28500
X44000Y-30500
X44000Y-40550
X44000Y-44800
X44000Y-45600
X44000Y-46400
X44000Y-51200
X44000Y-52200
X44000Y-52950
X44000Y-55200
X44000Y-56000
X44000Y-56800
X44000Y-57600
X44000Y-58400
X44050Y-19500
X44050Y-20850
X44050Y-33300
X44050Y-38100
X44050Y-38700
X44100Y-42900
X44150Y-18600
X44200Y-32600
X44200Y-35100
X44200Y-40750
X44200Y-41600
X44200Y-48400
X44200Y-49800
X44200Y-50200
X44200Y-51700
X44200Y-66800
X44200Y-67200
X44250Y-12000
X44250Y-13000
X44250Y-14000
X44250Y-15000
X44250Y-16000
X44250Y-21250
X44250Y-28250
X44250Y-31550
X44250Y-31850
X44250Y-61900
X44250Y-62250
X44250Y-62600
X44250Y-64100
X44300Y-53750
X44300Y-59500
X44300Y-59900
X44300Y-60300
X44300Y-60700
X44300Y-61100
X44300Y-61500
X44350Y-33600
X44350Y-36100
X44350Y-38400
X44350Y-54300
X44400Y-30300
X44400Y-30700
X44400Y-40550
X44400Y-44400
X44400Y-45200
X44400Y-46000
X44400Y-51200
X44400Y-52200
X44400Y-55200
X44400Y-55600
X44400Y-56400
X44400Y-57200
X44400Y-58000
X44450Y-52950
X44500Y-22300
X44500Y-27400
X44500Y-28500
X44500Y-42900
X44600Y-18700
X44600Y-31550
X44600Y-31850
X44600Y-32600
X44600Y-33350
X44600Y-33850
X44600Y-34900
X44600Y-35300
X44600Y-40750
X44600Y-41600
X44600Y-42000
X44600Y-48400
X44600Y-49800
X44600Y-50200
X44600Y-51700
X44600Y-66800
X44600Y-67200
X44650Y-16900
X44650Y-17300
X44650Y-38100
X44650Y-38700
X44700Y-25850
X44700Y-59100
X44700Y-59500
X44700Y-59900
X44700Y-60700
X44700Y-61100
X44750Y-28250
X44750Y-64100
X44800Y-44800
X44800Y-45600
X44800Y-51200
X44800Y-52200
X44800Y-54300
X44800Y-55200
X44800Y-56000
X44800Y-56800
X44800Y-57600
X44900Y-65300
X44950Y-38400
X45000Y-18700
X45000Y-19100
X45000Y-19500
X45000Y-20850
X45000Y-22300
X45000Y-28500
X45000Y-30300
X45000Y-30600
X45000Y-44400
X45000Y-48400
X45000Y-50200
X45000Y-53150
X45000Y-66800
X45000Y-67200
X45050Y-16900
X45050Y-17300
X45100Y-58700
X45100Y-59100
X45100Y-59500
X45100Y-60300
X45100Y-60700
X45200Y-45200
X45200Y-46000
X45200Y-51200
X45200Y-51800
X45200Y-52400
X45200Y-55200
X45200Y-55600
X45200Y-56400
X45200Y-57200
X45250Y-12000
X45250Y-13000
X45250Y-14000
X45250Y-15000
X45250Y-16000
X45250Y-25100
X45250Y-25400
X45250Y-28250
X45250Y-38050
X45250Y-38700
X45250Y-54300
X45300Y-26450
X45300Y-44700
X45300Y-61900
X45300Y-62500
X45350Y-31550
X45350Y-31850
X45350Y-32600
X45400Y-33350
X45400Y-33850
X45400Y-34900
X45400Y-35300
X45400Y-48400
X45400Y-48800
X45400Y-65300
X45400Y-65800
X45400Y-66300
X45400Y-66800
X45400Y-67200
X45450Y-16900
X45450Y-17300
X45450Y-53150
X45500Y-22300
X45500Y-28500
X45500Y-30500
X45500Y-30800
X45500Y-36050
X45500Y-38300
X45500Y-41600
X45500Y-42000
X45500Y-42900
X45500Y-58300
X45500Y-58700
X45500Y-59100
X45500Y-59500
X45500Y-59900
X45500Y-60300
X45600Y-33600
X45600Y-34100
X45600Y-35100
X45600Y-43700
X45600Y-45000
X45600Y-45600
X45600Y-50300
X45600Y-55200
X45600Y-55600
X45600Y-56000
X45600Y-56400
X45600Y-56800
X45600Y-61600
X45600Y-62200
X45600Y-62800
X45600Y-63400
X45600Y-64000
X45650Y-31550
X45650Y-31850
X45650Y-32600
X45750Y-28250
X45800Y-48400
X45800Y-48800
X45800Y-66800
X45800Y-67200
X45900Y-40800
X45900Y-53150
X45900Y-61300
X45900Y-61900
X45900Y-62500
X45900Y-63100
X45900Y-63700
X45900Y-65300
X45900Y-65800
X45900Y-66300
X46000Y-19650
X46000Y-20850
X46000Y-22300
X46000Y-23800
X46000Y-28500
X46000Y-30300
X46000Y-30600
X46000Y-41600
X46000Y-42000
X46000Y-42900
X46000Y-45200
X46000Y-46000
X46000Y-50300
X46000Y-51200
X46000Y-55250
X46000Y-56250
X46000Y-58250
X46000Y-59250
X46100Y-43700
X46100Y-44200
X46150Y-25100
X46200Y-48400
X46200Y-48800
X46200Y-53900
X46200Y-61600
X46200Y-62200
X46200Y-62800
X46200Y-63400
X46200Y-64000
X46200Y-66800
X46200Y-67200
X46250Y-12000
X46250Y-13000
X46250Y-14000
X46250Y-15000
X46250Y-16000
X46250Y-28250
X46250Y-40800
X46300Y-38800
X46300Y-55250
X46300Y-56250
X46300Y-58250
X46350Y-31650
X46350Y-53150
X46350Y-59250
X46400Y-33880
X46400Y-50300
X46400Y-57250
X46400Y-65300
X46400Y-65800
X46400Y-66300
X46500Y-21800
X46500Y-24050
X46500Y-24350
X46500Y-28500
X46500Y-30500
X46500Y-30800
X46500Y-32700
X46500Y-35000
X46500Y-35500
X46500Y-37950
X46500Y-61300
X46500Y-61900
X46500Y-62500
X46600Y-18650
X46600Y-27450
X46600Y-31900
X46600Y-40800
X46600Y-48400
X46600Y-48800
X46600Y-66800
X46600Y-67200
X46650Y-38800
X46650Y-53900
X46660Y-34140
X46700Y-26650
X46700Y-27050
X46700Y-51200
X46700Y-51600
X46700Y-52000
X46700Y-52400
X46700Y-59250
X46750Y-57250
X46800Y-53150
X46800Y-55250
X46800Y-58250
X46800Y-61600
X46800Y-62200
X46850Y-20950
X46850Y-60250
X46900Y-42900
X46900Y-44000
X46900Y-44350
X46900Y-65300
X47000Y-19700
X47000Y-21800
X47000Y-22550
X47000Y-23800
X47000Y-30550
X47000Y-31050
X47000Y-32700
X47000Y-33200
X47000Y-41600
X47000Y-42000
X47000Y-45200
X47000Y-46000
X47000Y-48400
X47000Y-50200
X47000Y-64100
X47000Y-66800
X47000Y-67200
X47040Y-34140
X47100Y-51600
X47100Y-52000
X47100Y-52400
X47100Y-53900
X47100Y-55250
X47100Y-57250
X47100Y-58250
X47100Y-61300
X47100Y-61900
X47100Y-62500
X47120Y-17750
X47150Y-60250
X47200Y-35000
X47200Y-35500
X47200Y-35900
X47250Y-12000
X47250Y-13000
X47250Y-14000
X47250Y-15000
X47250Y-16000
X47250Y-20950
X47250Y-44350
X47250Y-53150
X47300Y-43000
X47400Y-28500
X47400Y-41600
X47400Y-42000
X47400Y-45600
X47400Y-49800
X47400Y-50200
X47400Y-61600
X47400Y-62200
X47400Y-66800
X47400Y-67200
X47420Y-34140
X47500Y-21800
X47500Y-30800
X47500Y-31300
X47500Y-32700
X47500Y-33200
X47500Y-37950
X47500Y-42500
X47500Y-52000
X47500Y-52400
X47500Y-64100
X47550Y-53900
X47600Y-19450
X47600Y-43300
X47700Y-53150
X47700Y-61900
X47800Y-34140
X47800Y-42000
X47800Y-45200
X47800Y-46000
X47800Y-49800
X47800Y-50200
X47800Y-66800
X47800Y-67200
X47850Y-22550
X47850Y-32250
X47900Y-25300
X47900Y-25700
X47900Y-26100
X47900Y-26500
X47900Y-26900
X47900Y-35000
X47900Y-35500
X47900Y-35900
X47900Y-43000
X47900Y-43600
X47900Y-52400
X47950Y-48550
X48000Y-21800
X48000Y-30550
X48000Y-31050
X48000Y-32700
X48000Y-33200
X48000Y-38000
X48000Y-41000
X48000Y-51200
X48000Y-61700
X48000Y-64100
X48050Y-22800
X48110Y-56010
X48150Y-17950
X48150Y-54950
X48150Y-59950
X48200Y-45600
X48200Y-50200
X48200Y-65300
X48200Y-66800
X48200Y-67200
X48250Y-12000
X48250Y-13000
X48250Y-14000
X48250Y-15000
X48250Y-16000
X48250Y-23050
X48250Y-57050
X48300Y-23950
X48300Y-52650
X48320Y-24380
X48350Y-55150
X48400Y-18200
X48400Y-31750
X48400Y-41000
X48400Y-41400
X48400Y-42000
X48400Y-51200
X48400Y-51600
X48400Y-60200
X48450Y-62550
X48450Y-64100
X48500Y-30800
X48500Y-31300
X48500Y-32800
X48600Y-19500
X48600Y-19900
X48600Y-20300
X48600Y-20800
X48600Y-21300
X48600Y-21800
X48600Y-22250
X48600Y-35000
X48600Y-35500
X48600Y-35900
X48600Y-37900
X48600Y-45200
X48600Y-46000
X48600Y-48400
X48600Y-48800
X48600Y-52950
X48600Y-61450
X48600Y-65300
X48600Y-66000
X48600Y-66800
X48600Y-67200
X48650Y-30300
X48700Y-43000
X48800Y-40600
X48800Y-41000
X48800Y-41400
X48800Y-51200
X48800Y-62200
X48800Y-62550
X48800Y-62900
X48800Y-63750
X48850Y-50300
X48900Y-53250
X48950Y-30300
X49000Y-37900
X49000Y-48400
X49000Y-48800
X49000Y-61450
X49000Y-65200
X49000Y-65600
X49000Y-66400
X49000Y-67200
X49050Y-21800
X49050Y-22250
X49050Y-22650
X49050Y-23050
X49050Y-23950
X49050Y-24250
X49100Y-19500
X49100Y-19900
X49150Y-62200
X49150Y-62550
X49150Y-62900
X49200Y-51200
X49250Y-12000
X49250Y-13000
X49250Y-14000
X49250Y-15000
X49250Y-16000
X49250Y-16900
X49250Y-17300
X49250Y-50300
X49350Y-52550
X49350Y-58450
X49400Y-37900
X49400Y-48400
X49400Y-48800
X49400Y-57000
X49400Y-57500
X49400Y-61450
X49400Y-64800
X49400Y-65200
X49400Y-66000
X49400Y-66800
X49400Y-67200
X49450Y-23950
X49474Y-33776
X49474Y-44026
X49500Y-22650
X49500Y-23050
X49500Y-34850
X49500Y-35200
X49500Y-35550
X49500Y-45100
X49500Y-45450
X49500Y-45800
X49500Y-62200
X49500Y-62550
X49550Y-32260
X49600Y-31000
X49600Y-31300
X49600Y-51200
X49650Y-16900
X49650Y-17300
X49650Y-18900
X49650Y-34200
X49650Y-44450
X49650Y-50300
X49650Y-58750
X49700Y-42580
X49700Y-52550
X49700Y-52900
X49700Y-53400
X49700Y-53900
X49700Y-54400
X49750Y-63650
X49800Y-32450
X49800Y-48400
X49800Y-48800
X49800Y-57000
X49800Y-57500
X49800Y-61450
X49800Y-64800
X49800Y-65600
X49800Y-66400
X49800Y-67200
X49840Y-42820
X49850Y-23950
X49850Y-24750
X49850Y-25050
X49900Y-62200
X49900Y-62500
X49950Y-23050
X49950Y-59050
X50000Y-18900
X50000Y-19250
X50000Y-38000
X50000Y-51200
X50000Y-51600
X50000Y-52000
X50050Y-16900
X50050Y-17300
X50050Y-50250
X50050Y-63650
X50081Y-54819
X50100Y-21650
X50100Y-26100
X50100Y-63300
X50150Y-24750
X50200Y-48400
X50200Y-65200
X50200Y-66000
X50200Y-66800
X50200Y-67200
X50250Y-12000
X50250Y-13000
X50250Y-14000
X50250Y-15000
X50250Y-16000
X50250Y-23950
X50300Y-59400
X50300Y-62200
X50300Y-62500
X50350Y-49950
X50400Y-25800
X50400Y-51200
X50400Y-51600
X50400Y-52800
X50400Y-53200
X50400Y-53600
X50450Y-16900
X50450Y-17300
X50450Y-22000
X50450Y-63300
X50500Y-30450
X50500Y-40700
X50500Y-61000
X50600Y-52400
X50600Y-65200
X50600Y-65600
X50600Y-66400
X50600Y-67200
X50650Y-49650
X50700Y-25500
X50700Y-26100
X50700Y-54200
X50700Y-59400
X50700Y-62200
X50700Y-62500
X50800Y-21650
X50800Y-22350
X50800Y-51200
X50800Y-52800
X50800Y-53200
X50800Y-53600
X50800Y-63300
X50850Y-16900
X50850Y-17300
X51000Y-25200
X51000Y-52000
X51000Y-65200
X51000Y-66000
X51000Y-66800
X51000Y-67200
X51080Y-56500
X51100Y-19350
X51100Y-24800
X51100Y-38140
X51100Y-62200
X51150Y-22000
X51150Y-22700
X51150Y-28550
X51200Y-23950
X51200Y-50800
X51250Y-12000
X51250Y-13000
X51250Y-14000
X51250Y-15000
X51250Y-16000
X51250Y-16900
X51250Y-17300
X51300Y-25650
X51300Y-26100
X51360Y-56220
X51400Y-51600
X51400Y-65200
X51400Y-65600
X51400Y-66400
X51400Y-67200
X51450Y-24800
X51500Y-21650
X51500Y-22350
X51500Y-28550
X51500Y-30450
X51500Y-40700
X51600Y-18450
X51600Y-23550
X51600Y-23950
X51600Y-25200
X51600Y-50400
X51650Y-16900
X51650Y-17300
X51800Y-48400
X51800Y-48900
X51800Y-49400
X51800Y-49900
X51800Y-51200
X51800Y-64400
X51800Y-64800
X51800Y-65200
X51800Y-66000
X51800Y-66800
X51800Y-67200
X51850Y-38400
X51900Y-25500
X51900Y-26100
X51900Y-54550
X52000Y-23550
X52000Y-23950
X52000Y-52600
X52000Y-53000
X52000Y-53400
X52000Y-53800
X52000Y-60700
X52000Y-61000
X52000Y-61300
X52000Y-63950
X52100Y-18650
X52100Y-56500
X52200Y-25800
X52200Y-50800
X52200Y-64800
X52200Y-65600
X52200Y-66400
X52200Y-67200
X52250Y-12000
X52250Y-13000
X52250Y-14000
X52250Y-15000
X52250Y-16000
X52250Y-17000
X52300Y-48400
X52300Y-48900
X52300Y-49400
X52350Y-19850
X52350Y-54550
X52380Y-56220
X52400Y-23550
X52400Y-23950
X52400Y-24350
X52400Y-52600
X52400Y-53000
X52400Y-53800
X52450Y-62000
X52500Y-26100
X52500Y-30450
X52500Y-40700
X52500Y-63450
X52600Y-19650
X52600Y-50400
X52600Y-50800
X52600Y-65200
X52600Y-66000
X52600Y-66800
X52600Y-67200
X52800Y-23550
X52800Y-23950
X52800Y-24350
X52800Y-24750
X52800Y-48400
X52800Y-48900
X52800Y-49400
X52800Y-52600
X52800Y-53400
X52800Y-53800
X52800Y-56600
X52850Y-19900
X53000Y-50400
X53000Y-50800
X53000Y-63200
X53000Y-65200
X53000Y-65600
X53000Y-66400
X53000Y-67200
X53200Y-23550
X53200Y-23950
X53200Y-24350
X53200Y-24750
X53200Y-25150
X53200Y-53000
X53200Y-53800
X53200Y-56600
X53250Y-12000
X53250Y-13000
X53250Y-14000
X53250Y-17000
X53250Y-18000
X53250Y-19000
X53400Y-48400
X53400Y-48900
X53400Y-49400
X53400Y-50400
X53400Y-50800
X53400Y-59400
X53400Y-63200
X53400Y-63600
X53400Y-64800
X53400Y-65200
X53400Y-66000
X53400Y-66800
X53400Y-67200
X53600Y-30250
X53600Y-40500
X53600Y-53400
X53600Y-53800
X53600Y-54550
X53600Y-56600
X53800Y-50400
X53800Y-50800
X53800Y-51200
X53800Y-51600
X53800Y-59400
X53800Y-63200
X53800Y-64000
X53800Y-64400
X53800Y-64800
X53800Y-65600
X53800Y-66000
X53800Y-66400
X53800Y-66800
X53800Y-67200
X54000Y-48400
X54000Y-48900
X54000Y-49400
X54000Y-54800
X54000Y-55100
X54000Y-56600
X54100Y-26300
X54100Y-27800
X54200Y-50400
X54200Y-51200
X54200Y-63200
X54200Y-63600
X54200Y-64400
X54200Y-65200
X54250Y-17000
X54250Y-18000
X54250Y-19000
X54250Y-19750
X54250Y-53850
X54300Y-57200
X54300Y-57600
X54300Y-58000
X54300Y-58400
X54400Y-30250
X54400Y-40500
X54500Y-26300
X54500Y-27800
X54550Y-54150
X54600Y-38450
X54600Y-48400
X54600Y-48900
X54600Y-49400
X54600Y-50400
X54600Y-50800
X54600Y-63200
X54600Y-64000
X54600Y-64800
X54850Y-54450
X54900Y-26300
X54900Y-27800
X54900Y-38750
X54962Y-59430
X54962Y-59730
X55000Y-50400
X55000Y-50800
X55000Y-52800
X55000Y-62800
X55000Y-63600
X55000Y-64400
X55200Y-48400
X55200Y-48900
X55200Y-49400
X55250Y-15000
X55250Y-16000
X55250Y-17000
X55250Y-18000
X55250Y-19000
X55250Y-19750
X55350Y-56750
X55350Y-57200
X55350Y-57650
X55350Y-58100
X55400Y-50400
X55400Y-50800
X55400Y-52400
X55400Y-53200
X55400Y-62400
X55400Y-63200
X55400Y-64000
X55400Y-64400
X55500Y-30450
X55500Y-38150
X55500Y-40700
X55800Y-27900
X55800Y-28300
X55800Y-48400
X55800Y-48900
X55800Y-49400
X55800Y-50400
X55800Y-51200
X55800Y-51600
X55800Y-52000
X55800Y-52800
X55800Y-53600
X55800Y-62000
X55800Y-62800
X55800Y-63600
X55800Y-64400
X55900Y-38150
X55900Y-38550
X56200Y-20200
X56200Y-21400
X56200Y-26300
X56200Y-27500
X56200Y-27900
X56200Y-28300
X56200Y-50400
X56200Y-50800
X56200Y-51600
X56200Y-52400
X56200Y-53200
X56200Y-54000
X56200Y-61600
X56200Y-62400
X56200Y-63200
X56200Y-64000
X56200Y-64400
X56250Y-15000
X56250Y-16000
X56250Y-17000
X56250Y-18000
X56250Y-19000
X56250Y-19750
X56300Y-38150
X56300Y-38550
X56400Y-20600
X56400Y-21000
X56400Y-26700
X56400Y-27100
X56400Y-48400
X56400Y-48900
X56400Y-49400
X56600Y-20200
X56600Y-21400
X56600Y-26300
X56600Y-27500
X56600Y-27900
X56600Y-28300
X56600Y-50400
X56600Y-50800
X56600Y-51200
X56600Y-51600
X56600Y-52000
X56600Y-52400
X56600Y-52800
X56600Y-53200
X56600Y-53600
X56600Y-54000
X56600Y-54400
X56600Y-54800
X56600Y-55200
X56600Y-55600
X56600Y-56000
X56600Y-56400
X56600Y-56800
X56600Y-57200
X56600Y-57600
X56600Y-58000
X56600Y-58400
X56600Y-58800
X56600Y-59200
X56600Y-59600
X56600Y-60000
X56600Y-60400
X56600Y-60800
X56600Y-61200
X56600Y-61600
X56600Y-62000
X56600Y-62400
X56600Y-62800
X56600Y-63200
X56600Y-63600
X56600Y-64000
X56600Y-64400
X56600Y-64800
X56700Y-28800
X56700Y-29300
X56700Y-29800
X56700Y-30300
X56700Y-36900
X56700Y-37400
X56700Y-37900
X56700Y-38400
X56700Y-38900
X56700Y-39400
X56700Y-39900
X56700Y-40400
X56700Y-47000
X56700Y-47500
X56700Y-48000
T2
X30250Y-26050
X31350Y-24800
X32250Y-24500
X37150Y-24500
X37150Y-26800
X37650Y-24950
X42350Y-24900
X42350Y-26500
X43380Y-24300
X45600Y-24750
X47850Y-24750
X48250Y-23500
X49100Y-30800
X49350Y-40850
X49350Y-41450
X50455Y-38155
X50705Y-37905
X51200Y-49500
X51200Y-50100
X53500Y-26250
X53500Y-27850
T3
X36500Y-58000
X37000Y-58000
T4
X23858Y-12992
X23858Y-66142
X24135Y-12324
X24135Y-13660
X24135Y-65474
X24135Y-66810
X24803Y-12047
X24803Y-13937
X24803Y-65197
X24803Y-67087
X25471Y-12324
X25471Y-13660
X25471Y-65474
X25471Y-66810
X25748Y-12992
X25748Y-66142
X54567Y-12992
X54567Y-66142
X54844Y-12324
X54844Y-13660
X54844Y-65474
X54844Y-66810
X55512Y-12047
X55512Y-13937
X55512Y-65197
X55512Y-67087
X56180Y-12324
X56180Y-13660
X56180Y-65474
X56180Y-66810
X56457Y-12992
X56457Y-66142
T5
X31650Y-54750
X31650Y-55750
X31650Y-56750
T6
X25963Y-44350
X25963Y-46298
X26750Y-44350
X26750Y-46298
X27504Y-20256
X27504Y-23256
X27537Y-44350
X27537Y-46298
X28504Y-20256
X28504Y-23256
X29213Y-44350
X29213Y-46298
X29504Y-20256
X29504Y-23256
X30000Y-44350
X30000Y-46298
X30504Y-20256
X30504Y-23256
X30787Y-44350
X30787Y-46298
X32250Y-49000
X32250Y-52000
X33250Y-49000
X33250Y-52000
X34250Y-49000
X34250Y-52000
X35250Y-49000
X35250Y-52000
X38504Y-20256
X38504Y-23256
X39504Y-20256
X39504Y-23256
X40504Y-20256
X40504Y-23256
X40534Y-58250
X40534Y-61000
X41504Y-20256
X41504Y-23256
X41519Y-58250
X41519Y-61000
X44504Y-20256
X44504Y-23256
X45504Y-20256
X45504Y-23256
X46504Y-20256
X46504Y-23256
X47504Y-20256
X47504Y-23256
T7
X25690Y-54259
X26690Y-54259
X27690Y-54259
X28690Y-54259
T8
X43758Y-63358
X44742Y-63358
X47008Y-63358
X47992Y-63358
T9
X27694Y-18051
X28194Y-19051
X28694Y-18051
X29194Y-19051
X29694Y-18051
X30194Y-19051
X32174Y-18051
X32674Y-19051
X33174Y-18051
X33674Y-19051
X34174Y-18051
X34674Y-19051
X36654Y-18051
X37154Y-19051
X37654Y-18051
X38154Y-19051
X38654Y-18051
X39154Y-19051
X41134Y-18051
X41634Y-19051
X42134Y-18051
X42634Y-19051
X43134Y-18051
X43634Y-19051
X45614Y-18051
X46114Y-19051
X46614Y-18051
X47114Y-19051
X47614Y-18051
X48114Y-19051
X50094Y-18051
X50594Y-19051
X51094Y-18051
X51594Y-19051
X52094Y-18051
X52594Y-19051
T10
X30835Y-66203
X35165Y-66203
X39318Y-54750
X41286Y-54750
T11
X50835Y-64250
X52804Y-64250
X52915Y-51750
X54884Y-51750
T12
X32016Y-62266
X33984Y-62266
T13
X24803Y-12992
X24803Y-66142
X55512Y-12992
X55512Y-66142
T14
X25372Y-45019
X28128Y-45629
X28622Y-45019
X31378Y-45629
T15
X25714Y-49326
X28666Y-49326
T16
X26944Y-15551
X53344Y-15551
T4
G00X26549Y-65049
M15
G01X26549Y-65325
M16
G05
G00X26549Y-66545
M15
G01X26549Y-66821
M16
G05
G00X29951Y-65049
M15
G01X29951Y-65325
M16
G05
G00X29951Y-66545
M15
G01X29951Y-66821
M16
G05
T15
G00X44093Y-65917
M15
G01X44407Y-65917
M16
G05
G00X47343Y-65917
M15
G01X47657Y-65917
M16
G05
T0
M30
