G04 #@! TF.GenerationSoftware,KiCad,Pcbnew,(6.0.9)*
G04 #@! TF.CreationDate,2023-04-01T11:17:42+09:00*
G04 #@! TF.ProjectId,MainBoard,4d61696e-426f-4617-9264-2e6b69636164,rev?*
G04 #@! TF.SameCoordinates,Original*
G04 #@! TF.FileFunction,Soldermask,Bot*
G04 #@! TF.FilePolarity,Negative*
%FSLAX46Y46*%
G04 Gerber Fmt 4.6, Leading zero omitted, Abs format (unit mm)*
G04 Created by KiCad (PCBNEW (6.0.9)) date 2023-04-01 11:17:42*
%MOMM*%
%LPD*%
G01*
G04 APERTURE LIST*
G04 Aperture macros list*
%AMRoundRect*
0 Rectangle with rounded corners*
0 $1 Rounding radius*
0 $2 $3 $4 $5 $6 $7 $8 $9 X,Y pos of 4 corners*
0 Add a 4 corners polygon primitive as box body*
4,1,4,$2,$3,$4,$5,$6,$7,$8,$9,$2,$3,0*
0 Add four circle primitives for the rounded corners*
1,1,$1+$1,$2,$3*
1,1,$1+$1,$4,$5*
1,1,$1+$1,$6,$7*
1,1,$1+$1,$8,$9*
0 Add four rect primitives between the rounded corners*
20,1,$1+$1,$2,$3,$4,$5,0*
20,1,$1+$1,$4,$5,$6,$7,0*
20,1,$1+$1,$6,$7,$8,$9,0*
20,1,$1+$1,$8,$9,$2,$3,0*%
G04 Aperture macros list end*
%ADD10R,1.308000X1.308000*%
%ADD11C,1.308000*%
%ADD12R,1.428000X1.428000*%
%ADD13C,1.428000*%
%ADD14O,2.216000X1.108000*%
%ADD15R,2.400000X2.400000*%
%ADD16C,2.400000*%
%ADD17C,2.000000*%
%ADD18C,1.500000*%
%ADD19C,2.200000*%
%ADD20RoundRect,0.381000X-0.381000X-0.381000X0.381000X-0.381000X0.381000X0.381000X-0.381000X0.381000X0*%
%ADD21R,2.000000X2.000000*%
%ADD22R,1.600000X1.600000*%
%ADD23C,1.600000*%
%ADD24R,1.700000X1.700000*%
%ADD25O,1.700000X1.700000*%
%ADD26O,2.800000X2.000000*%
%ADD27RoundRect,0.250000X-0.600000X-0.725000X0.600000X-0.725000X0.600000X0.725000X-0.600000X0.725000X0*%
%ADD28O,1.700000X1.950000*%
%ADD29C,1.400000*%
%ADD30R,3.500000X3.500000*%
%ADD31C,3.500000*%
%ADD32C,3.380000*%
%ADD33C,1.509000*%
%ADD34C,4.200000*%
%ADD35C,1.800000*%
%ADD36R,2.400000X1.600000*%
%ADD37O,2.400000X1.600000*%
%ADD38O,1.600000X2.400000*%
%ADD39RoundRect,0.237500X0.250000X0.237500X-0.250000X0.237500X-0.250000X-0.237500X0.250000X-0.237500X0*%
%ADD40O,2.748280X1.998980*%
%ADD41RoundRect,0.237500X0.300000X0.237500X-0.300000X0.237500X-0.300000X-0.237500X0.300000X-0.237500X0*%
%ADD42R,0.950000X7.000000*%
%ADD43R,0.950000X2.350000*%
%ADD44R,1.200000X0.700000*%
%ADD45R,0.800000X1.000000*%
%ADD46R,1.200000X1.000000*%
%ADD47R,1.900000X1.300000*%
%ADD48R,2.800000X1.000000*%
%ADD49RoundRect,0.237500X-0.237500X0.250000X-0.237500X-0.250000X0.237500X-0.250000X0.237500X0.250000X0*%
%ADD50RoundRect,0.237500X0.237500X-0.250000X0.237500X0.250000X-0.237500X0.250000X-0.237500X-0.250000X0*%
G04 APERTURE END LIST*
D10*
X136779000Y-70326000D03*
D11*
X136779000Y-68326000D03*
X136779000Y-66326000D03*
D12*
X76679500Y-132009000D03*
D13*
X76679500Y-134509000D03*
X76679500Y-136509000D03*
X76679500Y-139009000D03*
D14*
X75479500Y-129109000D03*
X75479500Y-141909000D03*
D15*
X159766000Y-127291959D03*
D16*
X159766000Y-122291959D03*
D17*
X122589999Y-136846001D03*
X122589999Y-129346001D03*
D18*
X110059999Y-129286001D03*
X110059999Y-131826001D03*
X110059999Y-134366001D03*
X110059999Y-136906001D03*
D19*
X164302000Y-64744000D03*
D20*
X105918000Y-143256000D03*
X108458000Y-143256000D03*
X110998000Y-143256000D03*
D21*
X100965000Y-122854323D03*
D17*
X100965000Y-127854323D03*
D22*
X91948000Y-134199621D03*
D23*
X91948000Y-136699621D03*
D24*
X85090000Y-104643000D03*
D25*
X85090000Y-107183000D03*
D26*
X139446000Y-144570000D03*
D27*
X138196000Y-138070000D03*
D28*
X140696000Y-138070000D03*
D22*
X105156000Y-136818380D03*
D23*
X105156000Y-134318380D03*
D29*
X78320000Y-144025000D03*
X89320000Y-144025000D03*
D30*
X81320000Y-134025000D03*
D31*
X86320000Y-134025000D03*
D19*
X69302000Y-64744000D03*
D32*
X74549000Y-104123000D03*
X74549000Y-125713000D03*
D33*
X77599000Y-106313000D03*
X79629000Y-107333000D03*
X77599000Y-108353000D03*
X79629000Y-109373000D03*
X77599000Y-110393000D03*
X79629000Y-111413000D03*
X77599000Y-118373000D03*
X79629000Y-119393000D03*
X77599000Y-120413000D03*
X79629000Y-121433000D03*
X77599000Y-122453000D03*
X79629000Y-123473000D03*
D10*
X136779000Y-78708000D03*
D11*
X136779000Y-76708000D03*
X136779000Y-74708000D03*
D34*
X151638000Y-141916000D03*
X160782000Y-141916000D03*
D35*
X158750000Y-134916000D03*
X156250000Y-134916000D03*
X153750000Y-134916000D03*
D15*
X130810000Y-123989959D03*
D16*
X130810000Y-118989959D03*
D36*
X92725000Y-117338000D03*
D37*
X92725000Y-114798000D03*
X92725000Y-112258000D03*
X92725000Y-109718000D03*
X85105000Y-109718000D03*
X85105000Y-112258000D03*
X85105000Y-114798000D03*
X85105000Y-117338000D03*
D26*
X147320000Y-144570000D03*
D27*
X146070000Y-138070000D03*
D28*
X148570000Y-138070000D03*
D19*
X164302000Y-144744000D03*
D38*
X118999000Y-117348000D03*
X116459000Y-117348000D03*
X113919000Y-117348000D03*
X111379000Y-117348000D03*
X111379000Y-124968000D03*
X113919000Y-124968000D03*
X116459000Y-124968000D03*
X118999000Y-124968000D03*
D19*
X69302000Y-144744000D03*
D39*
X146454500Y-100584000D03*
X144629500Y-100584000D03*
D40*
X133511290Y-66660490D03*
X133511290Y-69200490D03*
X133511290Y-71740490D03*
X133511290Y-74280490D03*
X133511290Y-76820490D03*
X133511290Y-79360490D03*
X133511290Y-81900490D03*
X117346730Y-81900490D03*
X117346730Y-79360490D03*
X117346730Y-76820490D03*
X117346730Y-74280490D03*
X117346730Y-71740490D03*
X117346730Y-69200490D03*
X117346730Y-66660490D03*
D41*
X146404500Y-105410000D03*
X144679500Y-105410000D03*
D42*
X119543000Y-88988000D03*
D43*
X119543000Y-102888000D03*
D44*
X148739000Y-108693000D03*
X148739000Y-107593000D03*
X148739000Y-106493000D03*
X148739000Y-105393000D03*
X148739000Y-104293000D03*
X148739000Y-103193000D03*
X148739000Y-102093000D03*
X148739000Y-100993000D03*
X148739000Y-100043000D03*
D45*
X159239000Y-99093000D03*
D46*
X153039000Y-99093000D03*
X148739000Y-110243000D03*
D47*
X163839000Y-112593000D03*
D48*
X163389000Y-99093000D03*
D49*
X150114000Y-95099500D03*
X150114000Y-96924500D03*
X114300000Y-71477500D03*
X114300000Y-73302500D03*
D41*
X146404500Y-84328000D03*
X144679500Y-84328000D03*
D49*
X151638000Y-95099500D03*
X151638000Y-96924500D03*
D41*
X146404500Y-103886000D03*
X144679500Y-103886000D03*
D39*
X146454500Y-110236000D03*
X144629500Y-110236000D03*
D50*
X114300000Y-76604500D03*
X114300000Y-74779500D03*
D44*
X148739000Y-89135000D03*
X148739000Y-88035000D03*
X148739000Y-86935000D03*
X148739000Y-85835000D03*
X148739000Y-84735000D03*
X148739000Y-83635000D03*
X148739000Y-82535000D03*
X148739000Y-81435000D03*
X148739000Y-80485000D03*
D45*
X159239000Y-79535000D03*
D46*
X153039000Y-79535000D03*
D47*
X163839000Y-93035000D03*
D46*
X148739000Y-90685000D03*
D48*
X163389000Y-79535000D03*
D39*
X146454500Y-81407000D03*
X144629500Y-81407000D03*
D49*
X153162000Y-95099500D03*
X153162000Y-96924500D03*
X154686000Y-95099500D03*
X154686000Y-96924500D03*
D39*
X146454500Y-102108000D03*
X144629500Y-102108000D03*
D41*
X146404500Y-85852000D03*
X144679500Y-85852000D03*
D39*
X146454500Y-108712000D03*
X144629500Y-108712000D03*
X146454500Y-107188000D03*
X144629500Y-107188000D03*
M02*
