G04 #@! TF.GenerationSoftware,KiCad,Pcbnew,(6.0.9)*
G04 #@! TF.CreationDate,2023-04-01T11:17:42+09:00*
G04 #@! TF.ProjectId,MainBoard,4d61696e-426f-4617-9264-2e6b69636164,rev?*
G04 #@! TF.SameCoordinates,Original*
G04 #@! TF.FileFunction,Legend,Bot*
G04 #@! TF.FilePolarity,Positive*
%FSLAX46Y46*%
G04 Gerber Fmt 4.6, Leading zero omitted, Abs format (unit mm)*
G04 Created by KiCad (PCBNEW (6.0.9)) date 2023-04-01 11:17:42*
%MOMM*%
%LPD*%
G01*
G04 APERTURE LIST*
G04 Aperture macros list*
%AMRoundRect*
0 Rectangle with rounded corners*
0 $1 Rounding radius*
0 $2 $3 $4 $5 $6 $7 $8 $9 X,Y pos of 4 corners*
0 Add a 4 corners polygon primitive as box body*
4,1,4,$2,$3,$4,$5,$6,$7,$8,$9,$2,$3,0*
0 Add four circle primitives for the rounded corners*
1,1,$1+$1,$2,$3*
1,1,$1+$1,$4,$5*
1,1,$1+$1,$6,$7*
1,1,$1+$1,$8,$9*
0 Add four rect primitives between the rounded corners*
20,1,$1+$1,$2,$3,$4,$5,0*
20,1,$1+$1,$4,$5,$6,$7,0*
20,1,$1+$1,$6,$7,$8,$9,0*
20,1,$1+$1,$8,$9,$2,$3,0*%
G04 Aperture macros list end*
%ADD10C,0.150000*%
%ADD11C,0.250000*%
%ADD12C,0.400000*%
%ADD13C,0.200000*%
%ADD14C,0.180000*%
%ADD15C,0.500000*%
%ADD16C,0.254000*%
%ADD17C,0.120000*%
%ADD18C,0.066040*%
%ADD19C,0.127000*%
%ADD20R,1.308000X1.308000*%
%ADD21C,1.308000*%
%ADD22R,1.428000X1.428000*%
%ADD23C,1.428000*%
%ADD24O,2.216000X1.108000*%
%ADD25R,2.400000X2.400000*%
%ADD26C,2.400000*%
%ADD27C,2.000000*%
%ADD28C,1.500000*%
%ADD29C,2.200000*%
%ADD30RoundRect,0.381000X-0.381000X-0.381000X0.381000X-0.381000X0.381000X0.381000X-0.381000X0.381000X0*%
%ADD31R,2.000000X2.000000*%
%ADD32R,1.600000X1.600000*%
%ADD33C,1.600000*%
%ADD34R,1.700000X1.700000*%
%ADD35O,1.700000X1.700000*%
%ADD36O,2.800000X2.000000*%
%ADD37RoundRect,0.250000X-0.600000X-0.725000X0.600000X-0.725000X0.600000X0.725000X-0.600000X0.725000X0*%
%ADD38O,1.700000X1.950000*%
%ADD39C,1.400000*%
%ADD40R,3.500000X3.500000*%
%ADD41C,3.500000*%
%ADD42C,3.380000*%
%ADD43C,1.509000*%
%ADD44C,4.200000*%
%ADD45C,1.800000*%
%ADD46R,2.400000X1.600000*%
%ADD47O,2.400000X1.600000*%
%ADD48O,1.600000X2.400000*%
%ADD49RoundRect,0.237500X0.250000X0.237500X-0.250000X0.237500X-0.250000X-0.237500X0.250000X-0.237500X0*%
%ADD50O,2.748280X1.998980*%
%ADD51RoundRect,0.237500X0.300000X0.237500X-0.300000X0.237500X-0.300000X-0.237500X0.300000X-0.237500X0*%
%ADD52R,0.950000X7.000000*%
%ADD53R,0.950000X2.350000*%
%ADD54R,1.200000X0.700000*%
%ADD55R,0.800000X1.000000*%
%ADD56R,1.200000X1.000000*%
%ADD57R,1.900000X1.300000*%
%ADD58R,2.800000X1.000000*%
%ADD59RoundRect,0.237500X-0.237500X0.250000X-0.237500X-0.250000X0.237500X-0.250000X0.237500X0.250000X0*%
%ADD60RoundRect,0.237500X0.237500X-0.250000X0.237500X0.250000X-0.237500X0.250000X-0.237500X-0.250000X0*%
G04 APERTURE END LIST*
D10*
X124460000Y-120904000D02*
X124460000Y-138049000D01*
X107188000Y-81788000D02*
X107696000Y-81788000D01*
X124460000Y-138049000D02*
X122428000Y-140081000D01*
X153543000Y-119507000D02*
X144272000Y-119507000D01*
X103632000Y-104140000D02*
X104140000Y-103632000D01*
X107442000Y-96520000D02*
X107442000Y-84582000D01*
X87884000Y-102616000D02*
X89408000Y-104140000D01*
X107188000Y-84328000D02*
X107696000Y-84328000D01*
X67310000Y-102616000D02*
X72644000Y-102616000D01*
X107442000Y-84582000D02*
X107442000Y-84328000D01*
X107315000Y-81534000D02*
X107315000Y-81788000D01*
X104140000Y-99822000D02*
X107442000Y-96520000D01*
X166370000Y-117094000D02*
X155956000Y-117094000D01*
X140970000Y-116205000D02*
X129159000Y-116205000D01*
X76454000Y-102616000D02*
X87884000Y-102616000D01*
X155956000Y-117094000D02*
X153543000Y-119507000D01*
X144272000Y-119507000D02*
X140970000Y-116205000D01*
X89408000Y-104140000D02*
X103632000Y-104140000D01*
X107315000Y-62738000D02*
X107315000Y-81534000D01*
X120878600Y-76708000D02*
X130022600Y-76708000D01*
X104140000Y-103632000D02*
X104140000Y-99822000D01*
X129159000Y-116205000D02*
X124460000Y-120904000D01*
X122428000Y-140081000D02*
X122428000Y-146812000D01*
D11*
X87181785Y-141866857D02*
X87181785Y-140666857D01*
X86781785Y-141524000D01*
X86381785Y-140666857D01*
X86381785Y-141866857D01*
X85867500Y-141524000D02*
X85296071Y-141524000D01*
X85981785Y-141866857D02*
X85581785Y-140666857D01*
X85181785Y-141866857D01*
X84896071Y-140666857D02*
X84096071Y-141866857D01*
X84096071Y-140666857D02*
X84896071Y-141866857D01*
X82096071Y-141866857D02*
X82781785Y-141866857D01*
X82438928Y-141866857D02*
X82438928Y-140666857D01*
X82553214Y-140838285D01*
X82667500Y-140952571D01*
X82781785Y-141009714D01*
X81696071Y-140666857D02*
X80953214Y-140666857D01*
X81353214Y-141124000D01*
X81181785Y-141124000D01*
X81067500Y-141181142D01*
X81010357Y-141238285D01*
X80953214Y-141352571D01*
X80953214Y-141638285D01*
X81010357Y-141752571D01*
X81067500Y-141809714D01*
X81181785Y-141866857D01*
X81524642Y-141866857D01*
X81638928Y-141809714D01*
X81696071Y-141752571D01*
X80438928Y-141752571D02*
X80381785Y-141809714D01*
X80438928Y-141866857D01*
X80496071Y-141809714D01*
X80438928Y-141752571D01*
X80438928Y-141866857D01*
X79296071Y-140666857D02*
X79867500Y-140666857D01*
X79924642Y-141238285D01*
X79867500Y-141181142D01*
X79753214Y-141124000D01*
X79467500Y-141124000D01*
X79353214Y-141181142D01*
X79296071Y-141238285D01*
X79238928Y-141352571D01*
X79238928Y-141638285D01*
X79296071Y-141752571D01*
X79353214Y-141809714D01*
X79467500Y-141866857D01*
X79753214Y-141866857D01*
X79867500Y-141809714D01*
X79924642Y-141752571D01*
X78896071Y-140666857D02*
X78496071Y-141866857D01*
X78096071Y-140666857D01*
X87353214Y-142598857D02*
X86667500Y-142598857D01*
X87010357Y-143798857D02*
X87010357Y-142598857D01*
X86038928Y-143227428D02*
X86038928Y-143798857D01*
X86438928Y-142598857D02*
X86038928Y-143227428D01*
X85638928Y-142598857D01*
X85238928Y-143798857D02*
X85238928Y-142598857D01*
X84781785Y-142598857D01*
X84667500Y-142656000D01*
X84610357Y-142713142D01*
X84553214Y-142827428D01*
X84553214Y-142998857D01*
X84610357Y-143113142D01*
X84667500Y-143170285D01*
X84781785Y-143227428D01*
X85238928Y-143227428D01*
X82496071Y-143798857D02*
X83181785Y-143798857D01*
X82838928Y-143798857D02*
X82838928Y-142598857D01*
X82953214Y-142770285D01*
X83067500Y-142884571D01*
X83181785Y-142941714D01*
X82038928Y-142713142D02*
X81981785Y-142656000D01*
X81867500Y-142598857D01*
X81581785Y-142598857D01*
X81467500Y-142656000D01*
X81410357Y-142713142D01*
X81353214Y-142827428D01*
X81353214Y-142941714D01*
X81410357Y-143113142D01*
X82096071Y-143798857D01*
X81353214Y-143798857D01*
X81010357Y-142598857D02*
X80610357Y-143798857D01*
X80210357Y-142598857D01*
X87181785Y-145730857D02*
X87181785Y-144530857D01*
X86781785Y-145388000D01*
X86381785Y-144530857D01*
X86381785Y-145730857D01*
X85810357Y-145730857D02*
X85810357Y-144530857D01*
X85238928Y-145730857D02*
X85238928Y-144530857D01*
X84553214Y-145730857D01*
X84553214Y-144530857D01*
X83010357Y-145730857D02*
X82781785Y-145730857D01*
X82667500Y-145673714D01*
X82610357Y-145616571D01*
X82496071Y-145445142D01*
X82438928Y-145216571D01*
X82438928Y-144759428D01*
X82496071Y-144645142D01*
X82553214Y-144588000D01*
X82667500Y-144530857D01*
X82896071Y-144530857D01*
X83010357Y-144588000D01*
X83067500Y-144645142D01*
X83124642Y-144759428D01*
X83124642Y-145045142D01*
X83067500Y-145159428D01*
X83010357Y-145216571D01*
X82896071Y-145273714D01*
X82667500Y-145273714D01*
X82553214Y-145216571D01*
X82496071Y-145159428D01*
X82438928Y-145045142D01*
X82096071Y-144530857D02*
X81696071Y-145730857D01*
X81296071Y-144530857D01*
D12*
X138517428Y-142708142D02*
X139946000Y-142708142D01*
X139946000Y-139708142D01*
D13*
X129806171Y-77797057D02*
X129806171Y-78597057D01*
X129806171Y-77911342D02*
X129749028Y-77854200D01*
X129634742Y-77797057D01*
X129463314Y-77797057D01*
X129349028Y-77854200D01*
X129291885Y-77968485D01*
X129291885Y-78597057D01*
X128034742Y-78597057D02*
X128434742Y-78025628D01*
X128720457Y-78597057D02*
X128720457Y-77397057D01*
X128263314Y-77397057D01*
X128149028Y-77454200D01*
X128091885Y-77511342D01*
X128034742Y-77625628D01*
X128034742Y-77797057D01*
X128091885Y-77911342D01*
X128149028Y-77968485D01*
X128263314Y-78025628D01*
X128720457Y-78025628D01*
X127120457Y-77968485D02*
X127520457Y-77968485D01*
X127520457Y-78597057D02*
X127520457Y-77397057D01*
X126949028Y-77397057D01*
X125920457Y-77397057D02*
X126491885Y-77397057D01*
X126549028Y-77968485D01*
X126491885Y-77911342D01*
X126377600Y-77854200D01*
X126091885Y-77854200D01*
X125977600Y-77911342D01*
X125920457Y-77968485D01*
X125863314Y-78082771D01*
X125863314Y-78368485D01*
X125920457Y-78482771D01*
X125977600Y-78539914D01*
X126091885Y-78597057D01*
X126377600Y-78597057D01*
X126491885Y-78539914D01*
X126549028Y-78482771D01*
X125406171Y-77511342D02*
X125349028Y-77454200D01*
X125234742Y-77397057D01*
X124949028Y-77397057D01*
X124834742Y-77454200D01*
X124777600Y-77511342D01*
X124720457Y-77625628D01*
X124720457Y-77739914D01*
X124777600Y-77911342D01*
X125463314Y-78597057D01*
X124720457Y-78597057D01*
X124034742Y-77911342D02*
X124149028Y-77854200D01*
X124206171Y-77797057D01*
X124263314Y-77682771D01*
X124263314Y-77625628D01*
X124206171Y-77511342D01*
X124149028Y-77454200D01*
X124034742Y-77397057D01*
X123806171Y-77397057D01*
X123691885Y-77454200D01*
X123634742Y-77511342D01*
X123577600Y-77625628D01*
X123577600Y-77682771D01*
X123634742Y-77797057D01*
X123691885Y-77854200D01*
X123806171Y-77911342D01*
X124034742Y-77911342D01*
X124149028Y-77968485D01*
X124206171Y-78025628D01*
X124263314Y-78139914D01*
X124263314Y-78368485D01*
X124206171Y-78482771D01*
X124149028Y-78539914D01*
X124034742Y-78597057D01*
X123806171Y-78597057D01*
X123691885Y-78539914D01*
X123634742Y-78482771D01*
X123577600Y-78368485D01*
X123577600Y-78139914D01*
X123634742Y-78025628D01*
X123691885Y-77968485D01*
X123806171Y-77911342D01*
X122549028Y-77797057D02*
X122549028Y-78597057D01*
X122834742Y-77339914D02*
X123120457Y-78197057D01*
X122377600Y-78197057D01*
X121691885Y-77397057D02*
X121577600Y-77397057D01*
X121463314Y-77454200D01*
X121406171Y-77511342D01*
X121349028Y-77625628D01*
X121291885Y-77854200D01*
X121291885Y-78139914D01*
X121349028Y-78368485D01*
X121406171Y-78482771D01*
X121463314Y-78539914D01*
X121577600Y-78597057D01*
X121691885Y-78597057D01*
X121806171Y-78539914D01*
X121863314Y-78482771D01*
X121920457Y-78368485D01*
X121977600Y-78139914D01*
X121977600Y-77854200D01*
X121920457Y-77625628D01*
X121863314Y-77511342D01*
X121806171Y-77454200D01*
X121691885Y-77397057D01*
D14*
X69307142Y-124722285D02*
X70507142Y-124722285D01*
X69307142Y-124036571D01*
X70507142Y-124036571D01*
X69421428Y-122779428D02*
X69364285Y-122836571D01*
X69307142Y-123008000D01*
X69307142Y-123122285D01*
X69364285Y-123293714D01*
X69478571Y-123408000D01*
X69592857Y-123465142D01*
X69821428Y-123522285D01*
X69992857Y-123522285D01*
X70221428Y-123465142D01*
X70335714Y-123408000D01*
X70450000Y-123293714D01*
X70507142Y-123122285D01*
X70507142Y-123008000D01*
X70450000Y-122836571D01*
X70392857Y-122779428D01*
X70564285Y-121408000D02*
X69021428Y-122436571D01*
X70507142Y-121122285D02*
X70507142Y-120379428D01*
X70050000Y-120779428D01*
X70050000Y-120608000D01*
X69992857Y-120493714D01*
X69935714Y-120436571D01*
X69821428Y-120379428D01*
X69535714Y-120379428D01*
X69421428Y-120436571D01*
X69364285Y-120493714D01*
X69307142Y-120608000D01*
X69307142Y-120950857D01*
X69364285Y-121065142D01*
X69421428Y-121122285D01*
X70507142Y-120036571D02*
X69307142Y-119636571D01*
X70507142Y-119236571D01*
X70507142Y-118950857D02*
X70507142Y-118208000D01*
X70050000Y-118608000D01*
X70050000Y-118436571D01*
X69992857Y-118322285D01*
X69935714Y-118265142D01*
X69821428Y-118208000D01*
X69535714Y-118208000D01*
X69421428Y-118265142D01*
X69364285Y-118322285D01*
X69307142Y-118436571D01*
X69307142Y-118779428D01*
X69364285Y-118893714D01*
X69421428Y-118950857D01*
X70564285Y-116836571D02*
X69021428Y-117865142D01*
X69935714Y-116036571D02*
X69878571Y-115865142D01*
X69821428Y-115808000D01*
X69707142Y-115750857D01*
X69535714Y-115750857D01*
X69421428Y-115808000D01*
X69364285Y-115865142D01*
X69307142Y-115979428D01*
X69307142Y-116436571D01*
X70507142Y-116436571D01*
X70507142Y-116036571D01*
X70450000Y-115922285D01*
X70392857Y-115865142D01*
X70278571Y-115808000D01*
X70164285Y-115808000D01*
X70050000Y-115865142D01*
X69992857Y-115922285D01*
X69935714Y-116036571D01*
X69935714Y-116436571D01*
X70564285Y-114379428D02*
X69021428Y-115408000D01*
X69650000Y-114036571D02*
X69650000Y-113465142D01*
X69307142Y-114150857D02*
X70507142Y-113750857D01*
X69307142Y-113350857D01*
X70564285Y-112093714D02*
X69021428Y-113122285D01*
X70450000Y-111065142D02*
X70507142Y-111179428D01*
X70507142Y-111350857D01*
X70450000Y-111522285D01*
X70335714Y-111636571D01*
X70221428Y-111693714D01*
X69992857Y-111750857D01*
X69821428Y-111750857D01*
X69592857Y-111693714D01*
X69478571Y-111636571D01*
X69364285Y-111522285D01*
X69307142Y-111350857D01*
X69307142Y-111236571D01*
X69364285Y-111065142D01*
X69421428Y-111008000D01*
X69821428Y-111008000D01*
X69821428Y-111236571D01*
X69307142Y-110493714D02*
X70507142Y-110493714D01*
X69307142Y-109808000D01*
X70507142Y-109808000D01*
X69307142Y-109236571D02*
X70507142Y-109236571D01*
X70507142Y-108950857D01*
X70450000Y-108779428D01*
X70335714Y-108665142D01*
X70221428Y-108608000D01*
X69992857Y-108550857D01*
X69821428Y-108550857D01*
X69592857Y-108608000D01*
X69478571Y-108665142D01*
X69364285Y-108779428D01*
X69307142Y-108950857D01*
X69307142Y-109236571D01*
X70564285Y-107179428D02*
X69021428Y-108208000D01*
X69307142Y-106779428D02*
X70507142Y-106779428D01*
X69307142Y-106093714D01*
X70507142Y-106093714D01*
X69421428Y-104836571D02*
X69364285Y-104893714D01*
X69307142Y-105065142D01*
X69307142Y-105179428D01*
X69364285Y-105350857D01*
X69478571Y-105465142D01*
X69592857Y-105522285D01*
X69821428Y-105579428D01*
X69992857Y-105579428D01*
X70221428Y-105522285D01*
X70335714Y-105465142D01*
X70450000Y-105350857D01*
X70507142Y-105179428D01*
X70507142Y-105065142D01*
X70450000Y-104893714D01*
X70392857Y-104836571D01*
D15*
X129717266Y-73142666D02*
X127850600Y-75942666D01*
X127850600Y-73142666D02*
X129717266Y-75942666D01*
X126783933Y-75942666D02*
X126783933Y-73142666D01*
X125583933Y-75142666D02*
X124250600Y-75142666D01*
X125850600Y-75942666D02*
X124917266Y-73142666D01*
X123983933Y-75942666D01*
X122517266Y-73142666D02*
X121983933Y-73142666D01*
X121717266Y-73276000D01*
X121450600Y-73542666D01*
X121317266Y-74076000D01*
X121317266Y-75009333D01*
X121450600Y-75542666D01*
X121717266Y-75809333D01*
X121983933Y-75942666D01*
X122517266Y-75942666D01*
X122783933Y-75809333D01*
X123050600Y-75542666D01*
X123183933Y-75009333D01*
X123183933Y-74076000D01*
X123050600Y-73542666D01*
X122783933Y-73276000D01*
X122517266Y-73142666D01*
D12*
X146391428Y-142708142D02*
X147391428Y-141279571D01*
X148105714Y-142708142D02*
X148105714Y-139708142D01*
X146962857Y-139708142D01*
X146677142Y-139851000D01*
X146534285Y-139993857D01*
X146391428Y-140279571D01*
X146391428Y-140708142D01*
X146534285Y-140993857D01*
X146677142Y-141136714D01*
X146962857Y-141279571D01*
X148105714Y-141279571D01*
D10*
X143136857Y-101036380D02*
X143470190Y-100560190D01*
X143708285Y-101036380D02*
X143708285Y-100036380D01*
X143327333Y-100036380D01*
X143232095Y-100084000D01*
X143184476Y-100131619D01*
X143136857Y-100226857D01*
X143136857Y-100369714D01*
X143184476Y-100464952D01*
X143232095Y-100512571D01*
X143327333Y-100560190D01*
X143708285Y-100560190D01*
X142184476Y-101036380D02*
X142755904Y-101036380D01*
X142470190Y-101036380D02*
X142470190Y-100036380D01*
X142565428Y-100179238D01*
X142660666Y-100274476D01*
X142755904Y-100322095D01*
X141327333Y-100369714D02*
X141327333Y-101036380D01*
X141565428Y-99988761D02*
X141803523Y-100703047D01*
X141184476Y-100703047D01*
X143168666Y-105767142D02*
X143216285Y-105814761D01*
X143359142Y-105862380D01*
X143454380Y-105862380D01*
X143597238Y-105814761D01*
X143692476Y-105719523D01*
X143740095Y-105624285D01*
X143787714Y-105433809D01*
X143787714Y-105290952D01*
X143740095Y-105100476D01*
X143692476Y-105005238D01*
X143597238Y-104910000D01*
X143454380Y-104862380D01*
X143359142Y-104862380D01*
X143216285Y-104910000D01*
X143168666Y-104957619D01*
X142835333Y-104862380D02*
X142168666Y-104862380D01*
X142597238Y-105862380D01*
D16*
X122155857Y-94397285D02*
X121974428Y-94457761D01*
X121913952Y-94518238D01*
X121853476Y-94639190D01*
X121853476Y-94820619D01*
X121913952Y-94941571D01*
X121974428Y-95002047D01*
X122095380Y-95062523D01*
X122579190Y-95062523D01*
X122579190Y-93792523D01*
X122155857Y-93792523D01*
X122034904Y-93853000D01*
X121974428Y-93913476D01*
X121913952Y-94034428D01*
X121913952Y-94155380D01*
X121974428Y-94276333D01*
X122034904Y-94336809D01*
X122155857Y-94397285D01*
X122579190Y-94397285D01*
X121490619Y-93792523D02*
X120764904Y-93792523D01*
X121127761Y-95062523D02*
X121127761Y-93792523D01*
X119676333Y-95062523D02*
X120402047Y-95062523D01*
X120039190Y-95062523D02*
X120039190Y-93792523D01*
X120160142Y-93973952D01*
X120281095Y-94094904D01*
X120402047Y-94155380D01*
D10*
X147907333Y-111212380D02*
X147907333Y-111926666D01*
X147954952Y-112069523D01*
X148050190Y-112164761D01*
X148193047Y-112212380D01*
X148288285Y-112212380D01*
X147002571Y-111212380D02*
X147193047Y-111212380D01*
X147288285Y-111260000D01*
X147335904Y-111307619D01*
X147431142Y-111450476D01*
X147478761Y-111640952D01*
X147478761Y-112021904D01*
X147431142Y-112117142D01*
X147383523Y-112164761D01*
X147288285Y-112212380D01*
X147097809Y-112212380D01*
X147002571Y-112164761D01*
X146954952Y-112117142D01*
X146907333Y-112021904D01*
X146907333Y-111783809D01*
X146954952Y-111688571D01*
X147002571Y-111640952D01*
X147097809Y-111593333D01*
X147288285Y-111593333D01*
X147383523Y-111640952D01*
X147431142Y-111688571D01*
X147478761Y-111783809D01*
X144724380Y-95369142D02*
X144248190Y-95035809D01*
X144724380Y-94797714D02*
X143724380Y-94797714D01*
X143724380Y-95178666D01*
X143772000Y-95273904D01*
X143819619Y-95321523D01*
X143914857Y-95369142D01*
X144057714Y-95369142D01*
X144152952Y-95321523D01*
X144200571Y-95273904D01*
X144248190Y-95178666D01*
X144248190Y-94797714D01*
X143819619Y-95750095D02*
X143772000Y-95797714D01*
X143724380Y-95892952D01*
X143724380Y-96131047D01*
X143772000Y-96226285D01*
X143819619Y-96273904D01*
X143914857Y-96321523D01*
X144010095Y-96321523D01*
X144152952Y-96273904D01*
X144724380Y-95702476D01*
X144724380Y-96321523D01*
X144724380Y-97273904D02*
X144724380Y-96702476D01*
X144724380Y-96988190D02*
X143724380Y-96988190D01*
X143867238Y-96892952D01*
X143962476Y-96797714D01*
X144010095Y-96702476D01*
X114752380Y-68929642D02*
X114276190Y-68596309D01*
X114752380Y-68358214D02*
X113752380Y-68358214D01*
X113752380Y-68739166D01*
X113800000Y-68834404D01*
X113847619Y-68882023D01*
X113942857Y-68929642D01*
X114085714Y-68929642D01*
X114180952Y-68882023D01*
X114228571Y-68834404D01*
X114276190Y-68739166D01*
X114276190Y-68358214D01*
X113752380Y-69262976D02*
X113752380Y-69882023D01*
X114133333Y-69548690D01*
X114133333Y-69691547D01*
X114180952Y-69786785D01*
X114228571Y-69834404D01*
X114323809Y-69882023D01*
X114561904Y-69882023D01*
X114657142Y-69834404D01*
X114704761Y-69786785D01*
X114752380Y-69691547D01*
X114752380Y-69405833D01*
X114704761Y-69310595D01*
X114657142Y-69262976D01*
X113752380Y-70215357D02*
X113752380Y-70834404D01*
X114133333Y-70501071D01*
X114133333Y-70643928D01*
X114180952Y-70739166D01*
X114228571Y-70786785D01*
X114323809Y-70834404D01*
X114561904Y-70834404D01*
X114657142Y-70786785D01*
X114704761Y-70739166D01*
X114752380Y-70643928D01*
X114752380Y-70358214D01*
X114704761Y-70262976D01*
X114657142Y-70215357D01*
X143168666Y-84685142D02*
X143216285Y-84732761D01*
X143359142Y-84780380D01*
X143454380Y-84780380D01*
X143597238Y-84732761D01*
X143692476Y-84637523D01*
X143740095Y-84542285D01*
X143787714Y-84351809D01*
X143787714Y-84208952D01*
X143740095Y-84018476D01*
X143692476Y-83923238D01*
X143597238Y-83828000D01*
X143454380Y-83780380D01*
X143359142Y-83780380D01*
X143216285Y-83828000D01*
X143168666Y-83875619D01*
X142311523Y-84113714D02*
X142311523Y-84780380D01*
X142549619Y-83732761D02*
X142787714Y-84447047D01*
X142168666Y-84447047D01*
X146248380Y-95369142D02*
X145772190Y-95035809D01*
X146248380Y-94797714D02*
X145248380Y-94797714D01*
X145248380Y-95178666D01*
X145296000Y-95273904D01*
X145343619Y-95321523D01*
X145438857Y-95369142D01*
X145581714Y-95369142D01*
X145676952Y-95321523D01*
X145724571Y-95273904D01*
X145772190Y-95178666D01*
X145772190Y-94797714D01*
X146248380Y-96321523D02*
X146248380Y-95750095D01*
X146248380Y-96035809D02*
X145248380Y-96035809D01*
X145391238Y-95940571D01*
X145486476Y-95845333D01*
X145534095Y-95750095D01*
X146248380Y-96797714D02*
X146248380Y-96988190D01*
X146200761Y-97083428D01*
X146153142Y-97131047D01*
X146010285Y-97226285D01*
X145819809Y-97273904D01*
X145438857Y-97273904D01*
X145343619Y-97226285D01*
X145296000Y-97178666D01*
X145248380Y-97083428D01*
X145248380Y-96892952D01*
X145296000Y-96797714D01*
X145343619Y-96750095D01*
X145438857Y-96702476D01*
X145676952Y-96702476D01*
X145772190Y-96750095D01*
X145819809Y-96797714D01*
X145867428Y-96892952D01*
X145867428Y-97083428D01*
X145819809Y-97178666D01*
X145772190Y-97226285D01*
X145676952Y-97273904D01*
X143168666Y-104243142D02*
X143216285Y-104290761D01*
X143359142Y-104338380D01*
X143454380Y-104338380D01*
X143597238Y-104290761D01*
X143692476Y-104195523D01*
X143740095Y-104100285D01*
X143787714Y-103909809D01*
X143787714Y-103766952D01*
X143740095Y-103576476D01*
X143692476Y-103481238D01*
X143597238Y-103386000D01*
X143454380Y-103338380D01*
X143359142Y-103338380D01*
X143216285Y-103386000D01*
X143168666Y-103433619D01*
X142263904Y-103338380D02*
X142740095Y-103338380D01*
X142787714Y-103814571D01*
X142740095Y-103766952D01*
X142644857Y-103719333D01*
X142406761Y-103719333D01*
X142311523Y-103766952D01*
X142263904Y-103814571D01*
X142216285Y-103909809D01*
X142216285Y-104147904D01*
X142263904Y-104243142D01*
X142311523Y-104290761D01*
X142406761Y-104338380D01*
X142644857Y-104338380D01*
X142740095Y-104290761D01*
X142787714Y-104243142D01*
X143136857Y-110688380D02*
X143470190Y-110212190D01*
X143708285Y-110688380D02*
X143708285Y-109688380D01*
X143327333Y-109688380D01*
X143232095Y-109736000D01*
X143184476Y-109783619D01*
X143136857Y-109878857D01*
X143136857Y-110021714D01*
X143184476Y-110116952D01*
X143232095Y-110164571D01*
X143327333Y-110212190D01*
X143708285Y-110212190D01*
X142755904Y-109783619D02*
X142708285Y-109736000D01*
X142613047Y-109688380D01*
X142374952Y-109688380D01*
X142279714Y-109736000D01*
X142232095Y-109783619D01*
X142184476Y-109878857D01*
X142184476Y-109974095D01*
X142232095Y-110116952D01*
X142803523Y-110688380D01*
X142184476Y-110688380D01*
X141803523Y-109783619D02*
X141755904Y-109736000D01*
X141660666Y-109688380D01*
X141422571Y-109688380D01*
X141327333Y-109736000D01*
X141279714Y-109783619D01*
X141232095Y-109878857D01*
X141232095Y-109974095D01*
X141279714Y-110116952D01*
X141851142Y-110688380D01*
X141232095Y-110688380D01*
X114752380Y-77866642D02*
X114276190Y-77533309D01*
X114752380Y-77295214D02*
X113752380Y-77295214D01*
X113752380Y-77676166D01*
X113800000Y-77771404D01*
X113847619Y-77819023D01*
X113942857Y-77866642D01*
X114085714Y-77866642D01*
X114180952Y-77819023D01*
X114228571Y-77771404D01*
X114276190Y-77676166D01*
X114276190Y-77295214D01*
X113752380Y-78199976D02*
X113752380Y-78819023D01*
X114133333Y-78485690D01*
X114133333Y-78628547D01*
X114180952Y-78723785D01*
X114228571Y-78771404D01*
X114323809Y-78819023D01*
X114561904Y-78819023D01*
X114657142Y-78771404D01*
X114704761Y-78723785D01*
X114752380Y-78628547D01*
X114752380Y-78342833D01*
X114704761Y-78247595D01*
X114657142Y-78199976D01*
X113847619Y-79199976D02*
X113800000Y-79247595D01*
X113752380Y-79342833D01*
X113752380Y-79580928D01*
X113800000Y-79676166D01*
X113847619Y-79723785D01*
X113942857Y-79771404D01*
X114038095Y-79771404D01*
X114180952Y-79723785D01*
X114752380Y-79152357D01*
X114752380Y-79771404D01*
X147907333Y-91908380D02*
X147907333Y-92622666D01*
X147954952Y-92765523D01*
X148050190Y-92860761D01*
X148193047Y-92908380D01*
X148288285Y-92908380D01*
X146954952Y-91908380D02*
X147431142Y-91908380D01*
X147478761Y-92384571D01*
X147431142Y-92336952D01*
X147335904Y-92289333D01*
X147097809Y-92289333D01*
X147002571Y-92336952D01*
X146954952Y-92384571D01*
X146907333Y-92479809D01*
X146907333Y-92717904D01*
X146954952Y-92813142D01*
X147002571Y-92860761D01*
X147097809Y-92908380D01*
X147335904Y-92908380D01*
X147431142Y-92860761D01*
X147478761Y-92813142D01*
X146184857Y-80589380D02*
X146518190Y-80113190D01*
X146756285Y-80589380D02*
X146756285Y-79589380D01*
X146375333Y-79589380D01*
X146280095Y-79637000D01*
X146232476Y-79684619D01*
X146184857Y-79779857D01*
X146184857Y-79922714D01*
X146232476Y-80017952D01*
X146280095Y-80065571D01*
X146375333Y-80113190D01*
X146756285Y-80113190D01*
X145232476Y-80589380D02*
X145803904Y-80589380D01*
X145518190Y-80589380D02*
X145518190Y-79589380D01*
X145613428Y-79732238D01*
X145708666Y-79827476D01*
X145803904Y-79875095D01*
X144899142Y-79589380D02*
X144280095Y-79589380D01*
X144613428Y-79970333D01*
X144470571Y-79970333D01*
X144375333Y-80017952D01*
X144327714Y-80065571D01*
X144280095Y-80160809D01*
X144280095Y-80398904D01*
X144327714Y-80494142D01*
X144375333Y-80541761D01*
X144470571Y-80589380D01*
X144756285Y-80589380D01*
X144851523Y-80541761D01*
X144899142Y-80494142D01*
X147772380Y-95369142D02*
X147296190Y-95035809D01*
X147772380Y-94797714D02*
X146772380Y-94797714D01*
X146772380Y-95178666D01*
X146820000Y-95273904D01*
X146867619Y-95321523D01*
X146962857Y-95369142D01*
X147105714Y-95369142D01*
X147200952Y-95321523D01*
X147248571Y-95273904D01*
X147296190Y-95178666D01*
X147296190Y-94797714D01*
X147772380Y-96321523D02*
X147772380Y-95750095D01*
X147772380Y-96035809D02*
X146772380Y-96035809D01*
X146915238Y-95940571D01*
X147010476Y-95845333D01*
X147058095Y-95750095D01*
X146772380Y-96654857D02*
X146772380Y-97321523D01*
X147772380Y-96892952D01*
X149296380Y-95369142D02*
X148820190Y-95035809D01*
X149296380Y-94797714D02*
X148296380Y-94797714D01*
X148296380Y-95178666D01*
X148344000Y-95273904D01*
X148391619Y-95321523D01*
X148486857Y-95369142D01*
X148629714Y-95369142D01*
X148724952Y-95321523D01*
X148772571Y-95273904D01*
X148820190Y-95178666D01*
X148820190Y-94797714D01*
X149296380Y-96321523D02*
X149296380Y-95750095D01*
X149296380Y-96035809D02*
X148296380Y-96035809D01*
X148439238Y-95940571D01*
X148534476Y-95845333D01*
X148582095Y-95750095D01*
X148296380Y-97226285D02*
X148296380Y-96750095D01*
X148772571Y-96702476D01*
X148724952Y-96750095D01*
X148677333Y-96845333D01*
X148677333Y-97083428D01*
X148724952Y-97178666D01*
X148772571Y-97226285D01*
X148867809Y-97273904D01*
X149105904Y-97273904D01*
X149201142Y-97226285D01*
X149248761Y-97178666D01*
X149296380Y-97083428D01*
X149296380Y-96845333D01*
X149248761Y-96750095D01*
X149201142Y-96702476D01*
X143136857Y-102560380D02*
X143470190Y-102084190D01*
X143708285Y-102560380D02*
X143708285Y-101560380D01*
X143327333Y-101560380D01*
X143232095Y-101608000D01*
X143184476Y-101655619D01*
X143136857Y-101750857D01*
X143136857Y-101893714D01*
X143184476Y-101988952D01*
X143232095Y-102036571D01*
X143327333Y-102084190D01*
X143708285Y-102084190D01*
X142184476Y-102560380D02*
X142755904Y-102560380D01*
X142470190Y-102560380D02*
X142470190Y-101560380D01*
X142565428Y-101703238D01*
X142660666Y-101798476D01*
X142755904Y-101846095D01*
X141327333Y-101560380D02*
X141517809Y-101560380D01*
X141613047Y-101608000D01*
X141660666Y-101655619D01*
X141755904Y-101798476D01*
X141803523Y-101988952D01*
X141803523Y-102369904D01*
X141755904Y-102465142D01*
X141708285Y-102512761D01*
X141613047Y-102560380D01*
X141422571Y-102560380D01*
X141327333Y-102512761D01*
X141279714Y-102465142D01*
X141232095Y-102369904D01*
X141232095Y-102131809D01*
X141279714Y-102036571D01*
X141327333Y-101988952D01*
X141422571Y-101941333D01*
X141613047Y-101941333D01*
X141708285Y-101988952D01*
X141755904Y-102036571D01*
X141803523Y-102131809D01*
X143168666Y-86209142D02*
X143216285Y-86256761D01*
X143359142Y-86304380D01*
X143454380Y-86304380D01*
X143597238Y-86256761D01*
X143692476Y-86161523D01*
X143740095Y-86066285D01*
X143787714Y-85875809D01*
X143787714Y-85732952D01*
X143740095Y-85542476D01*
X143692476Y-85447238D01*
X143597238Y-85352000D01*
X143454380Y-85304380D01*
X143359142Y-85304380D01*
X143216285Y-85352000D01*
X143168666Y-85399619D01*
X142311523Y-85304380D02*
X142502000Y-85304380D01*
X142597238Y-85352000D01*
X142644857Y-85399619D01*
X142740095Y-85542476D01*
X142787714Y-85732952D01*
X142787714Y-86113904D01*
X142740095Y-86209142D01*
X142692476Y-86256761D01*
X142597238Y-86304380D01*
X142406761Y-86304380D01*
X142311523Y-86256761D01*
X142263904Y-86209142D01*
X142216285Y-86113904D01*
X142216285Y-85875809D01*
X142263904Y-85780571D01*
X142311523Y-85732952D01*
X142406761Y-85685333D01*
X142597238Y-85685333D01*
X142692476Y-85732952D01*
X142740095Y-85780571D01*
X142787714Y-85875809D01*
X143136857Y-109164380D02*
X143470190Y-108688190D01*
X143708285Y-109164380D02*
X143708285Y-108164380D01*
X143327333Y-108164380D01*
X143232095Y-108212000D01*
X143184476Y-108259619D01*
X143136857Y-108354857D01*
X143136857Y-108497714D01*
X143184476Y-108592952D01*
X143232095Y-108640571D01*
X143327333Y-108688190D01*
X143708285Y-108688190D01*
X142755904Y-108259619D02*
X142708285Y-108212000D01*
X142613047Y-108164380D01*
X142374952Y-108164380D01*
X142279714Y-108212000D01*
X142232095Y-108259619D01*
X142184476Y-108354857D01*
X142184476Y-108450095D01*
X142232095Y-108592952D01*
X142803523Y-109164380D01*
X142184476Y-109164380D01*
X141565428Y-108164380D02*
X141470190Y-108164380D01*
X141374952Y-108212000D01*
X141327333Y-108259619D01*
X141279714Y-108354857D01*
X141232095Y-108545333D01*
X141232095Y-108783428D01*
X141279714Y-108973904D01*
X141327333Y-109069142D01*
X141374952Y-109116761D01*
X141470190Y-109164380D01*
X141565428Y-109164380D01*
X141660666Y-109116761D01*
X141708285Y-109069142D01*
X141755904Y-108973904D01*
X141803523Y-108783428D01*
X141803523Y-108545333D01*
X141755904Y-108354857D01*
X141708285Y-108259619D01*
X141660666Y-108212000D01*
X141565428Y-108164380D01*
X143136857Y-107640380D02*
X143470190Y-107164190D01*
X143708285Y-107640380D02*
X143708285Y-106640380D01*
X143327333Y-106640380D01*
X143232095Y-106688000D01*
X143184476Y-106735619D01*
X143136857Y-106830857D01*
X143136857Y-106973714D01*
X143184476Y-107068952D01*
X143232095Y-107116571D01*
X143327333Y-107164190D01*
X143708285Y-107164190D01*
X142184476Y-107640380D02*
X142755904Y-107640380D01*
X142470190Y-107640380D02*
X142470190Y-106640380D01*
X142565428Y-106783238D01*
X142660666Y-106878476D01*
X142755904Y-106926095D01*
X141613047Y-107068952D02*
X141708285Y-107021333D01*
X141755904Y-106973714D01*
X141803523Y-106878476D01*
X141803523Y-106830857D01*
X141755904Y-106735619D01*
X141708285Y-106688000D01*
X141613047Y-106640380D01*
X141422571Y-106640380D01*
X141327333Y-106688000D01*
X141279714Y-106735619D01*
X141232095Y-106830857D01*
X141232095Y-106878476D01*
X141279714Y-106973714D01*
X141327333Y-107021333D01*
X141422571Y-107068952D01*
X141613047Y-107068952D01*
X141708285Y-107116571D01*
X141755904Y-107164190D01*
X141803523Y-107259428D01*
X141803523Y-107449904D01*
X141755904Y-107545142D01*
X141708285Y-107592761D01*
X141613047Y-107640380D01*
X141422571Y-107640380D01*
X141327333Y-107592761D01*
X141279714Y-107545142D01*
X141232095Y-107449904D01*
X141232095Y-107259428D01*
X141279714Y-107164190D01*
X141327333Y-107116571D01*
X141422571Y-107068952D01*
D17*
X145796724Y-101106500D02*
X145287276Y-101106500D01*
X145796724Y-100061500D02*
X145287276Y-100061500D01*
D18*
X122025410Y-66363310D02*
X122025410Y-63696310D01*
X120247410Y-70429850D02*
X120247410Y-67760310D01*
D19*
X116546630Y-84778310D02*
X116546630Y-63780130D01*
D18*
X128883410Y-66363310D02*
X128883410Y-63696310D01*
X128883410Y-70429850D02*
X128883410Y-67760310D01*
X130661410Y-63696310D02*
X128883410Y-63696310D01*
X122025410Y-70429850D02*
X120247410Y-70429850D01*
D19*
X129950210Y-69708490D02*
X129950210Y-62355190D01*
X120950990Y-69708490D02*
X129950210Y-69708490D01*
X134344410Y-64450690D02*
X134344410Y-84778310D01*
D18*
X130661410Y-67760310D02*
X128883410Y-67760310D01*
D19*
X129945130Y-62355190D02*
X120950990Y-62355190D01*
D18*
X122025410Y-70429850D02*
X122025410Y-67760310D01*
D19*
X116546630Y-63780130D02*
X133673850Y-63780130D01*
D18*
X122025410Y-67760310D02*
X120247410Y-67760310D01*
X127994410Y-66998310D02*
X127994410Y-64458310D01*
X130661410Y-66363310D02*
X128883410Y-66363310D01*
X130661410Y-70429850D02*
X130661410Y-67760310D01*
X130661410Y-66363310D02*
X130661410Y-63696310D01*
D19*
X134344410Y-84778310D02*
X116546630Y-84778310D01*
D18*
X122025410Y-66363310D02*
X120247410Y-66363310D01*
D19*
X133673850Y-63780130D02*
X134344410Y-64450690D01*
D18*
X130661410Y-70429850D02*
X128883410Y-70429850D01*
X120247410Y-66363310D02*
X120247410Y-63696310D01*
X127994410Y-66998310D02*
X122914410Y-66998310D01*
D19*
X120950990Y-62355190D02*
X120950990Y-69708490D01*
D18*
X122914410Y-66998310D02*
X122914410Y-64458310D01*
X127994410Y-64458310D02*
X122914410Y-64458310D01*
X122025410Y-63696310D02*
X120247410Y-63696310D01*
D16*
X135360410Y-66617310D02*
G75*
G03*
X135360410Y-66617310I-127000J0D01*
G01*
D17*
X145688267Y-104900000D02*
X145395733Y-104900000D01*
X145688267Y-105920000D02*
X145395733Y-105920000D01*
D13*
X127458000Y-94488000D02*
G75*
G03*
X127458000Y-94488000I-6300000J0D01*
G01*
X119586080Y-84938000D02*
G75*
G03*
X119586080Y-84938000I-79080J0D01*
G01*
D17*
X164849000Y-111233000D02*
X164849000Y-108923000D01*
X164849000Y-111233000D02*
X164649000Y-111433000D01*
X148579000Y-98943000D02*
X152189000Y-98943000D01*
X148579000Y-112913000D02*
X162589000Y-112913000D01*
X164849000Y-101833000D02*
X164649000Y-102043000D01*
X164649000Y-111433000D02*
X164649000Y-111693000D01*
X164849000Y-99973000D02*
X164849000Y-101833000D01*
X153889000Y-98943000D02*
X158589000Y-98943000D01*
X164849000Y-99973000D02*
X164649000Y-99773000D01*
X164849000Y-108923000D02*
X164499000Y-108413000D01*
X164499000Y-102043000D02*
X164499000Y-108413000D01*
X148579000Y-110993000D02*
X148579000Y-112913000D01*
X164499000Y-102043000D02*
X164649000Y-102043000D01*
X159889000Y-98943000D02*
X161689000Y-98943000D01*
X148579000Y-99393000D02*
X148579000Y-98943000D01*
X149591500Y-95757276D02*
X149591500Y-96266724D01*
X150636500Y-95757276D02*
X150636500Y-96266724D01*
X113777500Y-72135276D02*
X113777500Y-72644724D01*
X114822500Y-72135276D02*
X114822500Y-72644724D01*
X145688267Y-83818000D02*
X145395733Y-83818000D01*
X145688267Y-84838000D02*
X145395733Y-84838000D01*
X151115500Y-95757276D02*
X151115500Y-96266724D01*
X152160500Y-95757276D02*
X152160500Y-96266724D01*
X145688267Y-103376000D02*
X145395733Y-103376000D01*
X145688267Y-104396000D02*
X145395733Y-104396000D01*
X145796724Y-109713500D02*
X145287276Y-109713500D01*
X145796724Y-110758500D02*
X145287276Y-110758500D01*
X114822500Y-75946724D02*
X114822500Y-75437276D01*
X113777500Y-75946724D02*
X113777500Y-75437276D01*
X164849000Y-89365000D02*
X164499000Y-88855000D01*
X164849000Y-91675000D02*
X164849000Y-89365000D01*
X164849000Y-82275000D02*
X164649000Y-82485000D01*
X148579000Y-79835000D02*
X148579000Y-79385000D01*
X148579000Y-91435000D02*
X148579000Y-93355000D01*
X164849000Y-80415000D02*
X164649000Y-80215000D01*
X153889000Y-79385000D02*
X158589000Y-79385000D01*
X164499000Y-82485000D02*
X164499000Y-88855000D01*
X148579000Y-93355000D02*
X162589000Y-93355000D01*
X164849000Y-91675000D02*
X164649000Y-91875000D01*
X164649000Y-91875000D02*
X164649000Y-92135000D01*
X148579000Y-79385000D02*
X152189000Y-79385000D01*
X164849000Y-80415000D02*
X164849000Y-82275000D01*
X159889000Y-79385000D02*
X161689000Y-79385000D01*
X164499000Y-82485000D02*
X164649000Y-82485000D01*
X145796724Y-81929500D02*
X145287276Y-81929500D01*
X145796724Y-80884500D02*
X145287276Y-80884500D01*
X153684500Y-95757276D02*
X153684500Y-96266724D01*
X152639500Y-95757276D02*
X152639500Y-96266724D01*
X155208500Y-95757276D02*
X155208500Y-96266724D01*
X154163500Y-95757276D02*
X154163500Y-96266724D01*
X145796724Y-102630500D02*
X145287276Y-102630500D01*
X145796724Y-101585500D02*
X145287276Y-101585500D01*
X145688267Y-86362000D02*
X145395733Y-86362000D01*
X145688267Y-85342000D02*
X145395733Y-85342000D01*
X145796724Y-108189500D02*
X145287276Y-108189500D01*
X145796724Y-109234500D02*
X145287276Y-109234500D01*
X145796724Y-107710500D02*
X145287276Y-107710500D01*
X145796724Y-106665500D02*
X145287276Y-106665500D01*
%LPC*%
D20*
X136779000Y-70326000D03*
D21*
X136779000Y-68326000D03*
X136779000Y-66326000D03*
D22*
X76679500Y-132009000D03*
D23*
X76679500Y-134509000D03*
X76679500Y-136509000D03*
X76679500Y-139009000D03*
D24*
X75479500Y-129109000D03*
X75479500Y-141909000D03*
D25*
X159766000Y-127291959D03*
D26*
X159766000Y-122291959D03*
D27*
X122589999Y-136846001D03*
X122589999Y-129346001D03*
D28*
X110059999Y-129286001D03*
X110059999Y-131826001D03*
X110059999Y-134366001D03*
X110059999Y-136906001D03*
D29*
X164302000Y-64744000D03*
D30*
X105918000Y-143256000D03*
X108458000Y-143256000D03*
X110998000Y-143256000D03*
D31*
X100965000Y-122854323D03*
D27*
X100965000Y-127854323D03*
D32*
X91948000Y-134199621D03*
D33*
X91948000Y-136699621D03*
D34*
X85090000Y-104643000D03*
D35*
X85090000Y-107183000D03*
D36*
X139446000Y-144570000D03*
D37*
X138196000Y-138070000D03*
D38*
X140696000Y-138070000D03*
D32*
X105156000Y-136818380D03*
D33*
X105156000Y-134318380D03*
D39*
X78320000Y-144025000D03*
X89320000Y-144025000D03*
D40*
X81320000Y-134025000D03*
D41*
X86320000Y-134025000D03*
D29*
X69302000Y-64744000D03*
D42*
X74549000Y-104123000D03*
X74549000Y-125713000D03*
D43*
X77599000Y-106313000D03*
X79629000Y-107333000D03*
X77599000Y-108353000D03*
X79629000Y-109373000D03*
X77599000Y-110393000D03*
X79629000Y-111413000D03*
X77599000Y-118373000D03*
X79629000Y-119393000D03*
X77599000Y-120413000D03*
X79629000Y-121433000D03*
X77599000Y-122453000D03*
X79629000Y-123473000D03*
D20*
X136779000Y-78708000D03*
D21*
X136779000Y-76708000D03*
X136779000Y-74708000D03*
D44*
X151638000Y-141916000D03*
X160782000Y-141916000D03*
D45*
X158750000Y-134916000D03*
X156250000Y-134916000D03*
X153750000Y-134916000D03*
D25*
X130810000Y-123989959D03*
D26*
X130810000Y-118989959D03*
D46*
X92725000Y-117338000D03*
D47*
X92725000Y-114798000D03*
X92725000Y-112258000D03*
X92725000Y-109718000D03*
X85105000Y-109718000D03*
X85105000Y-112258000D03*
X85105000Y-114798000D03*
X85105000Y-117338000D03*
D36*
X147320000Y-144570000D03*
D37*
X146070000Y-138070000D03*
D38*
X148570000Y-138070000D03*
D29*
X164302000Y-144744000D03*
D48*
X118999000Y-117348000D03*
X116459000Y-117348000D03*
X113919000Y-117348000D03*
X111379000Y-117348000D03*
X111379000Y-124968000D03*
X113919000Y-124968000D03*
X116459000Y-124968000D03*
X118999000Y-124968000D03*
D29*
X69302000Y-144744000D03*
D49*
X146454500Y-100584000D03*
X144629500Y-100584000D03*
D50*
X133511290Y-66660490D03*
X133511290Y-69200490D03*
X133511290Y-71740490D03*
X133511290Y-74280490D03*
X133511290Y-76820490D03*
X133511290Y-79360490D03*
X133511290Y-81900490D03*
X117346730Y-81900490D03*
X117346730Y-79360490D03*
X117346730Y-76820490D03*
X117346730Y-74280490D03*
X117346730Y-71740490D03*
X117346730Y-69200490D03*
X117346730Y-66660490D03*
D51*
X146404500Y-105410000D03*
X144679500Y-105410000D03*
D52*
X119543000Y-88988000D03*
D53*
X119543000Y-102888000D03*
D54*
X148739000Y-108693000D03*
X148739000Y-107593000D03*
X148739000Y-106493000D03*
X148739000Y-105393000D03*
X148739000Y-104293000D03*
X148739000Y-103193000D03*
X148739000Y-102093000D03*
X148739000Y-100993000D03*
X148739000Y-100043000D03*
D55*
X159239000Y-99093000D03*
D56*
X153039000Y-99093000D03*
X148739000Y-110243000D03*
D57*
X163839000Y-112593000D03*
D58*
X163389000Y-99093000D03*
D59*
X150114000Y-95099500D03*
X150114000Y-96924500D03*
X114300000Y-71477500D03*
X114300000Y-73302500D03*
D51*
X146404500Y-84328000D03*
X144679500Y-84328000D03*
D59*
X151638000Y-95099500D03*
X151638000Y-96924500D03*
D51*
X146404500Y-103886000D03*
X144679500Y-103886000D03*
D49*
X146454500Y-110236000D03*
X144629500Y-110236000D03*
D60*
X114300000Y-76604500D03*
X114300000Y-74779500D03*
D54*
X148739000Y-89135000D03*
X148739000Y-88035000D03*
X148739000Y-86935000D03*
X148739000Y-85835000D03*
X148739000Y-84735000D03*
X148739000Y-83635000D03*
X148739000Y-82535000D03*
X148739000Y-81435000D03*
X148739000Y-80485000D03*
D55*
X159239000Y-79535000D03*
D56*
X153039000Y-79535000D03*
D57*
X163839000Y-93035000D03*
D56*
X148739000Y-90685000D03*
D58*
X163389000Y-79535000D03*
D49*
X146454500Y-81407000D03*
X144629500Y-81407000D03*
D59*
X153162000Y-95099500D03*
X153162000Y-96924500D03*
X154686000Y-95099500D03*
X154686000Y-96924500D03*
D49*
X146454500Y-102108000D03*
X144629500Y-102108000D03*
D51*
X146404500Y-85852000D03*
X144679500Y-85852000D03*
D49*
X146454500Y-108712000D03*
X144629500Y-108712000D03*
X146454500Y-107188000D03*
X144629500Y-107188000D03*
M02*
