G04 #@! TF.GenerationSoftware,KiCad,Pcbnew,(6.0.9)*
G04 #@! TF.CreationDate,2023-04-01T11:17:41+09:00*
G04 #@! TF.ProjectId,MainBoard,4d61696e-426f-4617-9264-2e6b69636164,rev?*
G04 #@! TF.SameCoordinates,Original*
G04 #@! TF.FileFunction,Paste,Bot*
G04 #@! TF.FilePolarity,Positive*
%FSLAX46Y46*%
G04 Gerber Fmt 4.6, Leading zero omitted, Abs format (unit mm)*
G04 Created by KiCad (PCBNEW (6.0.9)) date 2023-04-01 11:17:41*
%MOMM*%
%LPD*%
G01*
G04 APERTURE LIST*
G04 Aperture macros list*
%AMRoundRect*
0 Rectangle with rounded corners*
0 $1 Rounding radius*
0 $2 $3 $4 $5 $6 $7 $8 $9 X,Y pos of 4 corners*
0 Add a 4 corners polygon primitive as box body*
4,1,4,$2,$3,$4,$5,$6,$7,$8,$9,$2,$3,0*
0 Add four circle primitives for the rounded corners*
1,1,$1+$1,$2,$3*
1,1,$1+$1,$4,$5*
1,1,$1+$1,$6,$7*
1,1,$1+$1,$8,$9*
0 Add four rect primitives between the rounded corners*
20,1,$1+$1,$2,$3,$4,$5,0*
20,1,$1+$1,$4,$5,$6,$7,0*
20,1,$1+$1,$6,$7,$8,$9,0*
20,1,$1+$1,$8,$9,$2,$3,0*%
G04 Aperture macros list end*
%ADD10RoundRect,0.237500X0.250000X0.237500X-0.250000X0.237500X-0.250000X-0.237500X0.250000X-0.237500X0*%
%ADD11RoundRect,0.237500X0.300000X0.237500X-0.300000X0.237500X-0.300000X-0.237500X0.300000X-0.237500X0*%
%ADD12R,0.950000X7.000000*%
%ADD13R,0.950000X2.350000*%
%ADD14R,1.200000X0.700000*%
%ADD15R,0.800000X1.000000*%
%ADD16R,1.200000X1.000000*%
%ADD17R,1.900000X1.300000*%
%ADD18R,2.800000X1.000000*%
%ADD19RoundRect,0.237500X-0.237500X0.250000X-0.237500X-0.250000X0.237500X-0.250000X0.237500X0.250000X0*%
%ADD20RoundRect,0.237500X0.237500X-0.250000X0.237500X0.250000X-0.237500X0.250000X-0.237500X-0.250000X0*%
G04 APERTURE END LIST*
D10*
X146454500Y-100584000D03*
X144629500Y-100584000D03*
D11*
X146404500Y-105410000D03*
X144679500Y-105410000D03*
D12*
X119543000Y-88988000D03*
D13*
X119543000Y-102888000D03*
D14*
X148739000Y-108693000D03*
X148739000Y-107593000D03*
X148739000Y-106493000D03*
X148739000Y-105393000D03*
X148739000Y-104293000D03*
X148739000Y-103193000D03*
X148739000Y-102093000D03*
X148739000Y-100993000D03*
X148739000Y-100043000D03*
D15*
X159239000Y-99093000D03*
D16*
X153039000Y-99093000D03*
X148739000Y-110243000D03*
D17*
X163839000Y-112593000D03*
D18*
X163389000Y-99093000D03*
D19*
X150114000Y-95099500D03*
X150114000Y-96924500D03*
X114300000Y-71477500D03*
X114300000Y-73302500D03*
D11*
X146404500Y-84328000D03*
X144679500Y-84328000D03*
D19*
X151638000Y-95099500D03*
X151638000Y-96924500D03*
D11*
X146404500Y-103886000D03*
X144679500Y-103886000D03*
D10*
X146454500Y-110236000D03*
X144629500Y-110236000D03*
D20*
X114300000Y-76604500D03*
X114300000Y-74779500D03*
D14*
X148739000Y-89135000D03*
X148739000Y-88035000D03*
X148739000Y-86935000D03*
X148739000Y-85835000D03*
X148739000Y-84735000D03*
X148739000Y-83635000D03*
X148739000Y-82535000D03*
X148739000Y-81435000D03*
X148739000Y-80485000D03*
D15*
X159239000Y-79535000D03*
D16*
X153039000Y-79535000D03*
D17*
X163839000Y-93035000D03*
D16*
X148739000Y-90685000D03*
D18*
X163389000Y-79535000D03*
D10*
X146454500Y-81407000D03*
X144629500Y-81407000D03*
D19*
X153162000Y-95099500D03*
X153162000Y-96924500D03*
X154686000Y-95099500D03*
X154686000Y-96924500D03*
D10*
X146454500Y-102108000D03*
X144629500Y-102108000D03*
D11*
X146404500Y-85852000D03*
X144679500Y-85852000D03*
D10*
X146454500Y-108712000D03*
X144629500Y-108712000D03*
X146454500Y-107188000D03*
X144629500Y-107188000D03*
M02*
