G04 #@! TF.GenerationSoftware,KiCad,Pcbnew,(6.0.9)*
G04 #@! TF.CreationDate,2022-12-24T14:41:02+09:00*
G04 #@! TF.ProjectId,MainBoard,4d61696e-426f-4617-9264-2e6b69636164,rev?*
G04 #@! TF.SameCoordinates,Original*
G04 #@! TF.FileFunction,Soldermask,Bot*
G04 #@! TF.FilePolarity,Negative*
%FSLAX46Y46*%
G04 Gerber Fmt 4.6, Leading zero omitted, Abs format (unit mm)*
G04 Created by KiCad (PCBNEW (6.0.9)) date 2022-12-24 14:41:02*
%MOMM*%
%LPD*%
G01*
G04 APERTURE LIST*
G04 Aperture macros list*
%AMRoundRect*
0 Rectangle with rounded corners*
0 $1 Rounding radius*
0 $2 $3 $4 $5 $6 $7 $8 $9 X,Y pos of 4 corners*
0 Add a 4 corners polygon primitive as box body*
4,1,4,$2,$3,$4,$5,$6,$7,$8,$9,$2,$3,0*
0 Add four circle primitives for the rounded corners*
1,1,$1+$1,$2,$3*
1,1,$1+$1,$4,$5*
1,1,$1+$1,$6,$7*
1,1,$1+$1,$8,$9*
0 Add four rect primitives between the rounded corners*
20,1,$1+$1,$2,$3,$4,$5,0*
20,1,$1+$1,$4,$5,$6,$7,0*
20,1,$1+$1,$6,$7,$8,$9,0*
20,1,$1+$1,$8,$9,$2,$3,0*%
G04 Aperture macros list end*
%ADD10C,0.800000*%
%ADD11C,6.400000*%
%ADD12R,2.000000X2.000000*%
%ADD13C,2.000000*%
%ADD14R,1.600000X2.400000*%
%ADD15O,1.600000X2.400000*%
%ADD16R,2.400000X2.400000*%
%ADD17C,2.400000*%
%ADD18C,1.400000*%
%ADD19R,3.500000X3.500000*%
%ADD20C,3.500000*%
%ADD21O,1.000000X2.000000*%
%ADD22RoundRect,0.381000X0.381000X-0.381000X0.381000X0.381000X-0.381000X0.381000X-0.381000X-0.381000X0*%
%ADD23C,1.100000*%
%ADD24R,1.308000X1.308000*%
%ADD25C,1.308000*%
%ADD26R,1.600000X1.600000*%
%ADD27C,1.600000*%
%ADD28C,1.500000*%
%ADD29C,3.380000*%
%ADD30C,1.509000*%
%ADD31O,2.800000X2.000000*%
%ADD32RoundRect,0.250000X-0.600000X-0.725000X0.600000X-0.725000X0.600000X0.725000X-0.600000X0.725000X0*%
%ADD33O,1.700000X1.950000*%
%ADD34RoundRect,0.237500X0.300000X0.237500X-0.300000X0.237500X-0.300000X-0.237500X0.300000X-0.237500X0*%
%ADD35RoundRect,0.237500X-0.237500X0.250000X-0.237500X-0.250000X0.237500X-0.250000X0.237500X0.250000X0*%
%ADD36RoundRect,0.237500X-0.250000X-0.237500X0.250000X-0.237500X0.250000X0.237500X-0.250000X0.237500X0*%
%ADD37R,1.200000X0.700000*%
%ADD38R,0.800000X1.000000*%
%ADD39R,1.900000X1.300000*%
%ADD40R,2.800000X1.000000*%
%ADD41R,1.200000X1.000000*%
G04 APERTURE END LIST*
D10*
X60600000Y-168000000D03*
X63000000Y-165600000D03*
X64697056Y-166302944D03*
X65400000Y-168000000D03*
X64697056Y-169697056D03*
X61302944Y-166302944D03*
X61302944Y-169697056D03*
X63000000Y-170400000D03*
D11*
X63000000Y-168000000D03*
D12*
X99867323Y-139065000D03*
D13*
X104867323Y-139065000D03*
D14*
X113040000Y-59070000D03*
D15*
X115580000Y-59070000D03*
X118120000Y-59070000D03*
X120660000Y-59070000D03*
X120660000Y-51450000D03*
X118120000Y-51450000D03*
X115580000Y-51450000D03*
X113040000Y-51450000D03*
D16*
X134404241Y-131445000D03*
D17*
X139404241Y-131445000D03*
D18*
X78320000Y-168155000D03*
X89320000Y-168155000D03*
D19*
X81320000Y-158155000D03*
D20*
X86320000Y-158155000D03*
D14*
X97800000Y-59070000D03*
D15*
X100340000Y-59070000D03*
X102880000Y-59070000D03*
X105420000Y-59070000D03*
X105420000Y-51450000D03*
X102880000Y-51450000D03*
X100340000Y-51450000D03*
X97800000Y-51450000D03*
D21*
X67435000Y-165575000D03*
X76075000Y-165575000D03*
X67435000Y-169375000D03*
X76075000Y-169375000D03*
D22*
X80391000Y-144145000D03*
X80391000Y-141605000D03*
X80391000Y-139065000D03*
D23*
X71445000Y-115898000D03*
D24*
X69945000Y-117598000D03*
D25*
X67945000Y-117598000D03*
X65945000Y-117598000D03*
D16*
X129121041Y-163195000D03*
D17*
X134121041Y-163195000D03*
D14*
X69860000Y-59070000D03*
D15*
X72400000Y-59070000D03*
X74940000Y-59070000D03*
X77480000Y-59070000D03*
X77480000Y-51450000D03*
X74940000Y-51450000D03*
X72400000Y-51450000D03*
X69860000Y-51450000D03*
D23*
X64445000Y-114349000D03*
D24*
X65945000Y-112649000D03*
D25*
X67945000Y-112649000D03*
X69945000Y-112649000D03*
D26*
X102957621Y-154940000D03*
D27*
X105457621Y-154940000D03*
D13*
X65312600Y-125288600D03*
X72812600Y-125288600D03*
D28*
X65252600Y-137818600D03*
X67792600Y-137818600D03*
X70332600Y-137818600D03*
X72872600Y-137818600D03*
D10*
X141000000Y-170400000D03*
X139302944Y-169697056D03*
X141000000Y-165600000D03*
D11*
X141000000Y-168000000D03*
D10*
X138600000Y-168000000D03*
X142697056Y-169697056D03*
X139302944Y-166302944D03*
X143400000Y-168000000D03*
X142697056Y-166302944D03*
X138600000Y-33000000D03*
D11*
X141000000Y-33000000D03*
D10*
X141000000Y-35400000D03*
X139302944Y-34697056D03*
X139302944Y-31302944D03*
X141000000Y-30600000D03*
X142697056Y-31302944D03*
X143400000Y-33000000D03*
X142697056Y-34697056D03*
X64697056Y-31302944D03*
X61302944Y-34697056D03*
X63000000Y-35400000D03*
X60600000Y-33000000D03*
X61302944Y-31302944D03*
X64697056Y-34697056D03*
X63000000Y-30600000D03*
X65400000Y-33000000D03*
D11*
X63000000Y-33000000D03*
D15*
X89535000Y-124460000D03*
X86995000Y-124460000D03*
X84455000Y-124460000D03*
X81915000Y-124460000D03*
X81915000Y-132080000D03*
X84455000Y-132080000D03*
X86995000Y-132080000D03*
X89535000Y-132080000D03*
D23*
X79700000Y-115898000D03*
D24*
X78200000Y-117598000D03*
D25*
X76200000Y-117598000D03*
X74200000Y-117598000D03*
D23*
X72700000Y-114349000D03*
D24*
X74200000Y-112649000D03*
D25*
X76200000Y-112649000D03*
X78200000Y-112649000D03*
D29*
X135494500Y-39498800D03*
X68438500Y-39498800D03*
D30*
X133589500Y-48388800D03*
X132319500Y-45848800D03*
X131049500Y-48388800D03*
X129779500Y-45848800D03*
X128509500Y-48388800D03*
X127239500Y-45848800D03*
X122210300Y-48388800D03*
X120940300Y-45848800D03*
X119670300Y-48388800D03*
X118400300Y-45848800D03*
X117130300Y-48388800D03*
X115860300Y-45848800D03*
X110831100Y-48388800D03*
X109561100Y-45848800D03*
X108291100Y-48388800D03*
X107021100Y-45848800D03*
X105751100Y-48388800D03*
X104481100Y-45848800D03*
X99451900Y-48388800D03*
X98181900Y-45848800D03*
X96911900Y-48388800D03*
X95641900Y-45848800D03*
X94371900Y-48388800D03*
X93101900Y-45848800D03*
X88072700Y-48388800D03*
X86802700Y-45848800D03*
X85532700Y-48388800D03*
X84262700Y-45848800D03*
X82992700Y-48388800D03*
X81722700Y-45848800D03*
X76693500Y-48388800D03*
X75423500Y-45848800D03*
X74153500Y-48388800D03*
X72883500Y-45848800D03*
X71613500Y-48388800D03*
X70343500Y-45848800D03*
D31*
X120650000Y-167430000D03*
D32*
X119400000Y-160930000D03*
D33*
X121900000Y-160930000D03*
D26*
X102957621Y-147955000D03*
D27*
X105457621Y-147955000D03*
D31*
X112395000Y-167430000D03*
D32*
X111145000Y-160930000D03*
D33*
X113645000Y-160930000D03*
D34*
X124687500Y-86995000D03*
X122962500Y-86995000D03*
D35*
X129540000Y-119737500D03*
X129540000Y-121562500D03*
X129540000Y-93702500D03*
X129540000Y-95527500D03*
D36*
X122912500Y-81915000D03*
X124737500Y-81915000D03*
D35*
X134620000Y-93702500D03*
X134620000Y-95527500D03*
D34*
X124687500Y-84455000D03*
X122962500Y-84455000D03*
D35*
X132080000Y-119737500D03*
X132080000Y-121562500D03*
D36*
X122912500Y-107950000D03*
X124737500Y-107950000D03*
D34*
X124687500Y-110490000D03*
X122962500Y-110490000D03*
X124687500Y-113030000D03*
X122962500Y-113030000D03*
D35*
X139700000Y-93702500D03*
X139700000Y-95527500D03*
X137160000Y-119737500D03*
X137160000Y-121562500D03*
X134620000Y-119737500D03*
X134620000Y-121562500D03*
D37*
X127530000Y-114027000D03*
X127530000Y-112927000D03*
X127530000Y-111827000D03*
X127530000Y-110727000D03*
X127530000Y-109627000D03*
X127530000Y-108527000D03*
X127530000Y-107427000D03*
X127530000Y-106327000D03*
X127530000Y-105377000D03*
D38*
X138030000Y-104427000D03*
D39*
X142630000Y-117927000D03*
D40*
X142180000Y-104427000D03*
D41*
X127530000Y-115577000D03*
X131830000Y-104427000D03*
D35*
X132080000Y-93702500D03*
X132080000Y-95527500D03*
D37*
X127530000Y-87992000D03*
X127530000Y-86892000D03*
X127530000Y-85792000D03*
X127530000Y-84692000D03*
X127530000Y-83592000D03*
X127530000Y-82492000D03*
X127530000Y-81392000D03*
X127530000Y-80292000D03*
X127530000Y-79342000D03*
D38*
X138030000Y-78392000D03*
D41*
X131830000Y-78392000D03*
D40*
X142180000Y-78392000D03*
D41*
X127530000Y-89542000D03*
D39*
X142630000Y-91892000D03*
D35*
X137160000Y-93702500D03*
X137160000Y-95527500D03*
X139700000Y-119737500D03*
X139700000Y-121562500D03*
M02*
