<?xml version="1.0" standalone="no"?>
 <!DOCTYPE svg PUBLIC "-//W3C//DTD SVG 1.1//EN" 
 "http://www.w3.org/Graphics/SVG/1.1/DTD/svg11.dtd"> 
<svg
  xmlns:svg="http://www.w3.org/2000/svg"
  xmlns="http://www.w3.org/2000/svg"
  xmlns:xlink="http://www.w3.org/1999/xlink"
  version="1.1"
  width="2.108200cm" height="1.336040cm" viewBox="0 0 21082000 13360400">
<title>SVG Picture created as SteeringMeterPCB-F_Cu.svg date 2023/06/26 19:47:57 </title>
  <desc>Picture generated by PCBNEW </desc>
<g style="fill:#000000; fill-opacity:1.000000;stroke:#000000; stroke-opacity:1.000000;
stroke-linecap:round; stroke-linejoin:round;"
 transform="translate(0 0) scale(1 1)">
</g>
<g style="fill:#000000; fill-opacity:0.0; 
stroke:#000000; stroke-width:0.000000; stroke-opacity:1; 
stroke-linecap:round; stroke-linejoin:round;">
<g >
</g>
<g style="fill:#000000; fill-opacity:0.0; 
stroke:#000000; stroke-width:1.000000; stroke-opacity:1; 
stroke-linecap:round; stroke-linejoin:round;">
</g>
<g style="fill:#000000; fill-opacity:1.0; 
stroke:#000000; stroke-width:1.000000; stroke-opacity:1; 
stroke-linecap:round; stroke-linejoin:round;">
<path style="fill:#000000; fill-opacity:1.0; 
stroke:#000000; stroke-width:1.000000; stroke-opacity:1; 
stroke-linecap:round; stroke-linejoin:round;fill-rule:evenodd;"
d="M 13112000.000000,2262500.000000
13123418.000000,2205097.000000
13155934.000000,2156434.000000
13204597.000000,2123918.000000
13262000.000000,2112500.000000
14912000.000000,2112500.000000
14969403.000000,2123918.000000
15018066.000000,2156434.000000
15050582.000000,2205097.000000
15062000.000000,2262500.000000
15062000.000000,2562500.000000
15050582.000000,2619903.000000
15018066.000000,2668566.000000
14969403.000000,2701082.000000
14912000.000000,2712500.000000
13262000.000000,2712500.000000
13204597.000000,2701082.000000
13155934.000000,2668566.000000
13123418.000000,2619903.000000
13112000.000000,2562500.000000
Z" /> 
<path style="fill:#000000; fill-opacity:1.0; 
stroke:#000000; stroke-width:1.000000; stroke-opacity:1; 
stroke-linecap:round; stroke-linejoin:round;fill-rule:evenodd;"
d="M 13112000.000000,3532500.000000
13123418.000000,3475097.000000
13155934.000000,3426434.000000
13204597.000000,3393918.000000
13262000.000000,3382500.000000
14912000.000000,3382500.000000
14969403.000000,3393918.000000
15018066.000000,3426434.000000
15050582.000000,3475097.000000
15062000.000000,3532500.000000
15062000.000000,3832500.000000
15050582.000000,3889903.000000
15018066.000000,3938566.000000
14969403.000000,3971082.000000
14912000.000000,3982500.000000
13262000.000000,3982500.000000
13204597.000000,3971082.000000
13155934.000000,3938566.000000
13123418.000000,3889903.000000
13112000.000000,3832500.000000
Z" /> 
<path style="fill:#000000; fill-opacity:1.0; 
stroke:#000000; stroke-width:1.000000; stroke-opacity:1; 
stroke-linecap:round; stroke-linejoin:round;fill-rule:evenodd;"
d="M 13112000.000000,4802500.000000
13123418.000000,4745097.000000
13155934.000000,4696434.000000
13204597.000000,4663918.000000
13262000.000000,4652500.000000
14912000.000000,4652500.000000
14969403.000000,4663918.000000
15018066.000000,4696434.000000
15050582.000000,4745097.000000
15062000.000000,4802500.000000
15062000.000000,5102500.000000
15050582.000000,5159903.000000
15018066.000000,5208566.000000
14969403.000000,5241082.000000
14912000.000000,5252500.000000
13262000.000000,5252500.000000
13204597.000000,5241082.000000
13155934.000000,5208566.000000
13123418.000000,5159903.000000
13112000.000000,5102500.000000
Z" /> 
<path style="fill:#000000; fill-opacity:1.0; 
stroke:#000000; stroke-width:1.000000; stroke-opacity:1; 
stroke-linecap:round; stroke-linejoin:round;fill-rule:evenodd;"
d="M 13112000.000000,6072500.000000
13123418.000000,6015097.000000
13155934.000000,5966434.000000
13204597.000000,5933918.000000
13262000.000000,5922500.000000
14912000.000000,5922500.000000
14969403.000000,5933918.000000
15018066.000000,5966434.000000
15050582.000000,6015097.000000
15062000.000000,6072500.000000
15062000.000000,6372500.000000
15050582.000000,6429903.000000
15018066.000000,6478566.000000
14969403.000000,6511082.000000
14912000.000000,6522500.000000
13262000.000000,6522500.000000
13204597.000000,6511082.000000
13155934.000000,6478566.000000
13123418.000000,6429903.000000
13112000.000000,6372500.000000
Z" /> 
<path style="fill:#000000; fill-opacity:1.0; 
stroke:#000000; stroke-width:1.000000; stroke-opacity:1; 
stroke-linecap:round; stroke-linejoin:round;fill-rule:evenodd;"
d="M 18062000.000000,6072500.000000
18073418.000000,6015097.000000
18105934.000000,5966434.000000
18154597.000000,5933918.000000
18212000.000000,5922500.000000
19862000.000000,5922500.000000
19919403.000000,5933918.000000
19968066.000000,5966434.000000
20000582.000000,6015097.000000
20012000.000000,6072500.000000
20012000.000000,6372500.000000
20000582.000000,6429903.000000
19968066.000000,6478566.000000
19919403.000000,6511082.000000
19862000.000000,6522500.000000
18212000.000000,6522500.000000
18154597.000000,6511082.000000
18105934.000000,6478566.000000
18073418.000000,6429903.000000
18062000.000000,6372500.000000
Z" /> 
<path style="fill:#000000; fill-opacity:1.0; 
stroke:#000000; stroke-width:1.000000; stroke-opacity:1; 
stroke-linecap:round; stroke-linejoin:round;fill-rule:evenodd;"
d="M 18062000.000000,4802500.000000
18073418.000000,4745097.000000
18105934.000000,4696434.000000
18154597.000000,4663918.000000
18212000.000000,4652500.000000
19862000.000000,4652500.000000
19919403.000000,4663918.000000
19968066.000000,4696434.000000
20000582.000000,4745097.000000
20012000.000000,4802500.000000
20012000.000000,5102500.000000
20000582.000000,5159903.000000
19968066.000000,5208566.000000
19919403.000000,5241082.000000
19862000.000000,5252500.000000
18212000.000000,5252500.000000
18154597.000000,5241082.000000
18105934.000000,5208566.000000
18073418.000000,5159903.000000
18062000.000000,5102500.000000
Z" /> 
<path style="fill:#000000; fill-opacity:1.0; 
stroke:#000000; stroke-width:1.000000; stroke-opacity:1; 
stroke-linecap:round; stroke-linejoin:round;fill-rule:evenodd;"
d="M 18062000.000000,3532500.000000
18073418.000000,3475097.000000
18105934.000000,3426434.000000
18154597.000000,3393918.000000
18212000.000000,3382500.000000
19862000.000000,3382500.000000
19919403.000000,3393918.000000
19968066.000000,3426434.000000
20000582.000000,3475097.000000
20012000.000000,3532500.000000
20012000.000000,3832500.000000
20000582.000000,3889903.000000
19968066.000000,3938566.000000
19919403.000000,3971082.000000
19862000.000000,3982500.000000
18212000.000000,3982500.000000
18154597.000000,3971082.000000
18105934.000000,3938566.000000
18073418.000000,3889903.000000
18062000.000000,3832500.000000
Z" /> 
<path style="fill:#000000; fill-opacity:1.0; 
stroke:#000000; stroke-width:1.000000; stroke-opacity:1; 
stroke-linecap:round; stroke-linejoin:round;fill-rule:evenodd;"
d="M 18062000.000000,2262500.000000
18073418.000000,2205097.000000
18105934.000000,2156434.000000
18154597.000000,2123918.000000
18212000.000000,2112500.000000
19862000.000000,2112500.000000
19919403.000000,2123918.000000
19968066.000000,2156434.000000
20000582.000000,2205097.000000
20012000.000000,2262500.000000
20012000.000000,2562500.000000
20000582.000000,2619903.000000
19968066.000000,2668566.000000
19919403.000000,2701082.000000
19862000.000000,2712500.000000
18212000.000000,2712500.000000
18154597.000000,2701082.000000
18105934.000000,2668566.000000
18073418.000000,2619903.000000
18062000.000000,2562500.000000
Z" /> 
</g>
<g >
</g>
<g style="fill:#000000; fill-opacity:1.0; 
stroke:#000000; stroke-width:1.000000; stroke-opacity:1; 
stroke-linecap:round; stroke-linejoin:round;">
<path style="fill:#000000; fill-opacity:1.0; 
stroke:#000000; stroke-width:1.000000; stroke-opacity:1; 
stroke-linecap:round; stroke-linejoin:round;fill-rule:evenodd;"
d="M 7545000.000000,9143500.000000
7436153.000000,9127621.000000
7323752.000000,9072678.000000
7235209.000000,8984289.000000
7180070.000000,8871984.000000
7164000.000000,8762500.000000
7164000.000000,8000500.000000
7179879.000000,7891653.000000
7234822.000000,7779252.000000
7323211.000000,7690709.000000
7435516.000000,7635570.000000
7545000.000000,7619500.000000
10593000.000000,7619500.000000
10701847.000000,7635379.000000
10814248.000000,7690322.000000
10902791.000000,7778711.000000
10957930.000000,7891016.000000
10974000.000000,8000500.000000
10974000.000000,8762500.000000
10958121.000000,8871347.000000
10903178.000000,8983748.000000
10814789.000000,9072291.000000
10702484.000000,9127430.000000
10593000.000000,9143500.000000
Z" /> 
<path style="fill:#000000; fill-opacity:1.0; 
stroke:#000000; stroke-width:1.000000; stroke-opacity:1; 
stroke-linecap:round; stroke-linejoin:round;fill-rule:evenodd;"
d="M 7545000.000000,6603500.000000
7436153.000000,6587621.000000
7323752.000000,6532678.000000
7235209.000000,6444289.000000
7180070.000000,6331984.000000
7164000.000000,6222500.000000
7164000.000000,5460500.000000
7179879.000000,5351653.000000
7234822.000000,5239252.000000
7323211.000000,5150709.000000
7435516.000000,5095570.000000
7545000.000000,5079500.000000
10593000.000000,5079500.000000
10701847.000000,5095379.000000
10814248.000000,5150322.000000
10902791.000000,5238711.000000
10957930.000000,5351016.000000
10974000.000000,5460500.000000
10974000.000000,6222500.000000
10958121.000000,6331347.000000
10903178.000000,6443748.000000
10814789.000000,6532291.000000
10702484.000000,6587430.000000
10593000.000000,6603500.000000
Z" /> 
<path style="fill:#000000; fill-opacity:1.0; 
stroke:#000000; stroke-width:1.000000; stroke-opacity:1; 
stroke-linecap:round; stroke-linejoin:round;fill-rule:evenodd;"
d="M 7545000.000000,4063500.000000
7436153.000000,4047621.000000
7323752.000000,3992678.000000
7235209.000000,3904289.000000
7180070.000000,3791984.000000
7164000.000000,3682500.000000
7164000.000000,2920500.000000
7179879.000000,2811653.000000
7234822.000000,2699252.000000
7323211.000000,2610709.000000
7435516.000000,2555570.000000
7545000.000000,2539500.000000
10593000.000000,2539500.000000
10701847.000000,2555379.000000
10814248.000000,2610322.000000
10902791.000000,2698711.000000
10957930.000000,2811016.000000
10974000.000000,2920500.000000
10974000.000000,3682500.000000
10958121.000000,3791347.000000
10903178.000000,3903748.000000
10814789.000000,3992291.000000
10702484.000000,4047430.000000
10593000.000000,4063500.000000
Z" /> 
<path style="fill:#000000; fill-opacity:1.0; 
stroke:#000000; stroke-width:1.000000; stroke-opacity:1; 
stroke-linecap:round; stroke-linejoin:round;fill-rule:evenodd;"
d="M 1195000.000000,4063500.000000
1086153.000000,4047621.000000
973752.000000,3992678.000000
885209.000000,3904289.000000
830070.000000,3791984.000000
814000.000000,3682500.000000
814000.000000,2920500.000000
829879.000000,2811653.000000
884822.000000,2699252.000000
973211.000000,2610709.000000
1085516.000000,2555570.000000
1195000.000000,2539500.000000
2973000.000000,2539500.000000
3081847.000000,2555379.000000
3194248.000000,2610322.000000
3282791.000000,2698711.000000
3337930.000000,2811016.000000
3354000.000000,2920500.000000
3354000.000000,3682500.000000
3338121.000000,3791347.000000
3283178.000000,3903748.000000
3194789.000000,3992291.000000
3082484.000000,4047430.000000
2973000.000000,4063500.000000
Z" /> 
<path style="fill:#000000; fill-opacity:1.0; 
stroke:#000000; stroke-width:1.000000; stroke-opacity:1; 
stroke-linecap:round; stroke-linejoin:round;fill-rule:evenodd;"
d="M 1195000.000000,6603500.000000
1086153.000000,6587621.000000
973752.000000,6532678.000000
885209.000000,6444289.000000
830070.000000,6331984.000000
814000.000000,6222500.000000
814000.000000,5460500.000000
829879.000000,5351653.000000
884822.000000,5239252.000000
973211.000000,5150709.000000
1085516.000000,5095570.000000
1195000.000000,5079500.000000
2973000.000000,5079500.000000
3081847.000000,5095379.000000
3194248.000000,5150322.000000
3282791.000000,5238711.000000
3337930.000000,5351016.000000
3354000.000000,5460500.000000
3354000.000000,6222500.000000
3338121.000000,6331347.000000
3283178.000000,6443748.000000
3194789.000000,6532291.000000
3082484.000000,6587430.000000
2973000.000000,6603500.000000
Z" /> 
<path style="fill:#000000; fill-opacity:1.0; 
stroke:#000000; stroke-width:1.000000; stroke-opacity:1; 
stroke-linecap:round; stroke-linejoin:round;fill-rule:evenodd;"
d="M 1195000.000000,9143500.000000
1086153.000000,9127621.000000
973752.000000,9072678.000000
885209.000000,8984289.000000
830070.000000,8871984.000000
814000.000000,8762500.000000
814000.000000,8000500.000000
829879.000000,7891653.000000
884822.000000,7779252.000000
973211.000000,7690709.000000
1085516.000000,7635570.000000
1195000.000000,7619500.000000
2973000.000000,7619500.000000
3081847.000000,7635379.000000
3194248.000000,7690322.000000
3282791.000000,7778711.000000
3337930.000000,7891016.000000
3354000.000000,8000500.000000
3354000.000000,8762500.000000
3338121.000000,8871347.000000
3283178.000000,8983748.000000
3194789.000000,9072291.000000
3082484.000000,9127430.000000
2973000.000000,9143500.000000
Z" /> 
</g>
<g >
</g>
<g style="fill:#000000; fill-opacity:1.0; 
stroke:#000000; stroke-width:1.000000; stroke-opacity:1; 
stroke-linecap:round; stroke-linejoin:round;">
<path style="fill:#000000; fill-opacity:1.0; 
stroke:#000000; stroke-width:1.000000; stroke-opacity:1; 
stroke-linecap:round; stroke-linejoin:round;fill-rule:evenodd;"
d="M 13268000.000000,9155500.000000
13287030.000000,9059829.000000
13341223.000000,8978723.000000
13422329.000000,8924530.000000
13518000.000000,8905500.000000
14018000.000000,8905500.000000
14113671.000000,8924530.000000
14194777.000000,8978723.000000
14248970.000000,9059829.000000
14268000.000000,9155500.000000
14268000.000000,10655500.000000
14248970.000000,10751171.000000
14194777.000000,10832277.000000
14113671.000000,10886470.000000
14018000.000000,10905500.000000
13518000.000000,10905500.000000
13422329.000000,10886470.000000
13341223.000000,10832277.000000
13287030.000000,10751171.000000
13268000.000000,10655500.000000
Z" /> 
</g>
<g >
</g>
<g style="fill:#000000; fill-opacity:1.0; 
stroke:#000000; stroke-width:1.000000; stroke-opacity:1; 
stroke-linecap:round; stroke-linejoin:round;">
<path style="fill:#000000; fill-opacity:1.0; 
stroke:#000000; stroke-width:1.000000; stroke-opacity:1; 
stroke-linecap:round; stroke-linejoin:round;fill-rule:evenodd;"
d="M 11490000.000000,9155500.000000
11509030.000000,9059829.000000
11563223.000000,8978723.000000
11644329.000000,8924530.000000
11740000.000000,8905500.000000
12240000.000000,8905500.000000
12335671.000000,8924530.000000
12416777.000000,8978723.000000
12470970.000000,9059829.000000
12490000.000000,9155500.000000
12490000.000000,10655500.000000
12470970.000000,10751171.000000
12416777.000000,10832277.000000
12335671.000000,10886470.000000
12240000.000000,10905500.000000
11740000.000000,10905500.000000
11644329.000000,10886470.000000
11563223.000000,10832277.000000
11509030.000000,10751171.000000
11490000.000000,10655500.000000
Z" /> 
</g>
<g >
</g>
<g style="fill:#000000; fill-opacity:1.0; 
stroke:#000000; stroke-width:1.000000; stroke-opacity:1; 
stroke-linecap:round; stroke-linejoin:round;">
<path style="fill:#000000; fill-opacity:1.0; 
stroke:#000000; stroke-width:1.000000; stroke-opacity:1; 
stroke-linecap:round; stroke-linejoin:round;fill-rule:evenodd;"
d="M 16030500.000000,8111000.000000
16012421.000000,8201887.000000
15960938.000000,8278938.000000
15883887.000000,8330421.000000
15793000.000000,8348500.000000
15193000.000000,8348500.000000
15102113.000000,8330421.000000
15025062.000000,8278938.000000
14973579.000000,8201887.000000
14955500.000000,8111000.000000
14955500.000000,7636000.000000
14973579.000000,7545113.000000
15025062.000000,7468062.000000
15102113.000000,7416579.000000
15193000.000000,7398500.000000
15793000.000000,7398500.000000
15883887.000000,7416579.000000
15960938.000000,7468062.000000
16012421.000000,7545113.000000
16030500.000000,7636000.000000
Z" /> 
<path style="fill:#000000; fill-opacity:1.0; 
stroke:#000000; stroke-width:1.000000; stroke-opacity:1; 
stroke-linecap:round; stroke-linejoin:round;fill-rule:evenodd;"
d="M 14305500.000000,8111000.000000
14287421.000000,8201887.000000
14235938.000000,8278938.000000
14158887.000000,8330421.000000
14068000.000000,8348500.000000
13468000.000000,8348500.000000
13377113.000000,8330421.000000
13300062.000000,8278938.000000
13248579.000000,8201887.000000
13230500.000000,8111000.000000
13230500.000000,7636000.000000
13248579.000000,7545113.000000
13300062.000000,7468062.000000
13377113.000000,7416579.000000
13468000.000000,7398500.000000
14068000.000000,7398500.000000
14158887.000000,7416579.000000
14235938.000000,7468062.000000
14287421.000000,7545113.000000
14305500.000000,7636000.000000
Z" /> 
</g>
<g >
</g>
<g style="fill:#000000; fill-opacity:1.0; 
stroke:#000000; stroke-width:1.000000; stroke-opacity:1; 
stroke-linecap:round; stroke-linejoin:round;">
<path style="fill:#000000; fill-opacity:1.0; 
stroke:#000000; stroke-width:1.000000; stroke-opacity:1; 
stroke-linecap:round; stroke-linejoin:round;fill-rule:evenodd;"
d="M 18856000.000000,9155500.000000
18875030.000000,9059829.000000
18929223.000000,8978723.000000
19010329.000000,8924530.000000
19106000.000000,8905500.000000
19606000.000000,8905500.000000
19701671.000000,8924530.000000
19782777.000000,8978723.000000
19836970.000000,9059829.000000
19856000.000000,9155500.000000
19856000.000000,10655500.000000
19836970.000000,10751171.000000
19782777.000000,10832277.000000
19701671.000000,10886470.000000
19606000.000000,10905500.000000
19106000.000000,10905500.000000
19010329.000000,10886470.000000
18929223.000000,10832277.000000
18875030.000000,10751171.000000
18856000.000000,10655500.000000
Z" /> 
</g>
<g >
</g>
<g style="fill:#000000; fill-opacity:1.0; 
stroke:#000000; stroke-width:1.000000; stroke-opacity:1; 
stroke-linecap:round; stroke-linejoin:round;">
<path style="fill:#000000; fill-opacity:1.0; 
stroke:#000000; stroke-width:1.000000; stroke-opacity:1; 
stroke-linecap:round; stroke-linejoin:round;fill-rule:evenodd;"
d="M 17043500.000000,7636000.000000
17061579.000000,7545113.000000
17113062.000000,7468062.000000
17190113.000000,7416579.000000
17281000.000000,7398500.000000
17781000.000000,7398500.000000
17871887.000000,7416579.000000
17948938.000000,7468062.000000
18000421.000000,7545113.000000
18018500.000000,7636000.000000
18018500.000000,8111000.000000
18000421.000000,8201887.000000
17948938.000000,8278938.000000
17871887.000000,8330421.000000
17781000.000000,8348500.000000
17281000.000000,8348500.000000
17190113.000000,8330421.000000
17113062.000000,8278938.000000
17061579.000000,8201887.000000
17043500.000000,8111000.000000
Z" /> 
<path style="fill:#000000; fill-opacity:1.0; 
stroke:#000000; stroke-width:1.000000; stroke-opacity:1; 
stroke-linecap:round; stroke-linejoin:round;fill-rule:evenodd;"
d="M 18868500.000000,7636000.000000
18886579.000000,7545113.000000
18938062.000000,7468062.000000
19015113.000000,7416579.000000
19106000.000000,7398500.000000
19606000.000000,7398500.000000
19696887.000000,7416579.000000
19773938.000000,7468062.000000
19825421.000000,7545113.000000
19843500.000000,7636000.000000
19843500.000000,8111000.000000
19825421.000000,8201887.000000
19773938.000000,8278938.000000
19696887.000000,8330421.000000
19606000.000000,8348500.000000
19106000.000000,8348500.000000
19015113.000000,8330421.000000
18938062.000000,8278938.000000
18886579.000000,8201887.000000
18868500.000000,8111000.000000
Z" /> 
</g>
<g >
</g>
<g style="fill:#000000; fill-opacity:1.0; 
stroke:#000000; stroke-width:1.000000; stroke-opacity:1; 
stroke-linecap:round; stroke-linejoin:round;">
<path style="fill:#000000; fill-opacity:1.0; 
stroke:#000000; stroke-width:1.000000; stroke-opacity:1; 
stroke-linecap:round; stroke-linejoin:round;fill-rule:evenodd;"
d="M 17962000.000000,9635000.000000
17943921.000000,9725887.000000
17892438.000000,9802938.000000
17815387.000000,9854421.000000
17724500.000000,9872500.000000
17224500.000000,9872500.000000
17133613.000000,9854421.000000
17056562.000000,9802938.000000
17005079.000000,9725887.000000
16987000.000000,9635000.000000
16987000.000000,9160000.000000
17005079.000000,9069113.000000
17056562.000000,8992062.000000
17133613.000000,8940579.000000
17224500.000000,8922500.000000
17724500.000000,8922500.000000
17815387.000000,8940579.000000
17892438.000000,8992062.000000
17943921.000000,9069113.000000
17962000.000000,9160000.000000
Z" /> 
<path style="fill:#000000; fill-opacity:1.0; 
stroke:#000000; stroke-width:1.000000; stroke-opacity:1; 
stroke-linecap:round; stroke-linejoin:round;fill-rule:evenodd;"
d="M 16137000.000000,9635000.000000
16118921.000000,9725887.000000
16067438.000000,9802938.000000
15990387.000000,9854421.000000
15899500.000000,9872500.000000
15399500.000000,9872500.000000
15308613.000000,9854421.000000
15231562.000000,9802938.000000
15180079.000000,9725887.000000
15162000.000000,9635000.000000
15162000.000000,9160000.000000
15180079.000000,9069113.000000
15231562.000000,8992062.000000
15308613.000000,8940579.000000
15399500.000000,8922500.000000
15899500.000000,8922500.000000
15990387.000000,8940579.000000
16067438.000000,8992062.000000
16118921.000000,9069113.000000
16137000.000000,9160000.000000
Z" /> 
</g>
<g >
</g>
<g style="fill:#000000; fill-opacity:1.0; 
stroke:#000000; stroke-width:1.000000; stroke-opacity:1; 
stroke-linecap:round; stroke-linejoin:round;">
<path style="fill:#000000; fill-opacity:1.0; 
stroke:#000000; stroke-width:1.000000; stroke-opacity:1; 
stroke-linecap:round; stroke-linejoin:round;fill-rule:evenodd;"
d="M 12227500.000000,2409500.000000
12318387.000000,2427579.000000
12395438.000000,2479062.000000
12446921.000000,2556113.000000
12465000.000000,2647000.000000
12465000.000000,3247000.000000
12446921.000000,3337887.000000
12395438.000000,3414938.000000
12318387.000000,3466421.000000
12227500.000000,3484500.000000
11752500.000000,3484500.000000
11661613.000000,3466421.000000
11584562.000000,3414938.000000
11533079.000000,3337887.000000
11515000.000000,3247000.000000
11515000.000000,2647000.000000
11533079.000000,2556113.000000
11584562.000000,2479062.000000
11661613.000000,2427579.000000
11752500.000000,2409500.000000
Z" /> 
<path style="fill:#000000; fill-opacity:1.0; 
stroke:#000000; stroke-width:1.000000; stroke-opacity:1; 
stroke-linecap:round; stroke-linejoin:round;fill-rule:evenodd;"
d="M 12227500.000000,4134500.000000
12318387.000000,4152579.000000
12395438.000000,4204062.000000
12446921.000000,4281113.000000
12465000.000000,4372000.000000
12465000.000000,4972000.000000
12446921.000000,5062887.000000
12395438.000000,5139938.000000
12318387.000000,5191421.000000
12227500.000000,5209500.000000
11752500.000000,5209500.000000
11661613.000000,5191421.000000
11584562.000000,5139938.000000
11533079.000000,5062887.000000
11515000.000000,4972000.000000
11515000.000000,4372000.000000
11533079.000000,4281113.000000
11584562.000000,4204062.000000
11661613.000000,4152579.000000
11752500.000000,4134500.000000
Z" /> 
</g>
<g >
</g>
<g >
</g>
<g style="fill:#000000; fill-opacity:1.0; 
stroke:#000000; stroke-width:1.000000; stroke-opacity:1; 
stroke-linecap:round; stroke-linejoin:round;">
</g>
<g style="fill:#000000; fill-opacity:1.0; 
stroke:#000000; stroke-width:800000.000000; stroke-opacity:1; 
stroke-linecap:round; stroke-linejoin:round;">
</g>
<g style="fill:#000000; fill-opacity:0.0; 
stroke:#000000; stroke-width:800000.000000; stroke-opacity:1; 
stroke-linecap:round; stroke-linejoin:round;">
<path d="M9423500 2947000
L9069000 3301500
" />
</g>
<g style="fill:#000000; fill-opacity:0.0; 
stroke:#000000; stroke-width:600000.000000; stroke-opacity:1; 
stroke-linecap:round; stroke-linejoin:round;">
<path d="M14087000 2412500
L12524500 2412500
" />
<path d="M12524500 2412500
L11990000 2947000
" />
</g>
<g style="fill:#000000; fill-opacity:0.0; 
stroke:#000000; stroke-width:800000.000000; stroke-opacity:1; 
stroke-linecap:round; stroke-linejoin:round;">
<path d="M11990000 2947000
L9423500 2947000
" />
<path d="M11990000 5841500
L11990000 7111500
" />
<path d="M13768000 9905500
L15141500 9905500
" />
<path d="M11990000 4672000
L11990000 5841500
" />
</g>
<g style="fill:#000000; fill-opacity:0.0; 
stroke:#000000; stroke-width:600000.000000; stroke-opacity:1; 
stroke-linecap:round; stroke-linejoin:round;">
<path d="M12270500 4952500
L11990000 4672000
" />
</g>
<g style="fill:#000000; fill-opacity:0.0; 
stroke:#000000; stroke-width:800000.000000; stroke-opacity:1; 
stroke-linecap:round; stroke-linejoin:round;">
<path d="M9069000 5841500
L11990000 5841500
" />
</g>
<g style="fill:#000000; fill-opacity:0.0; 
stroke:#000000; stroke-width:600000.000000; stroke-opacity:1; 
stroke-linecap:round; stroke-linejoin:round;">
<path d="M14087000 4952500
L12270500 4952500
" />
</g>
<g style="fill:#000000; fill-opacity:0.0; 
stroke:#000000; stroke-width:800000.000000; stroke-opacity:1; 
stroke-linecap:round; stroke-linejoin:round;">
<path d="M13768000 9905500
L13768000 7873500
" />
</g>
<g style="fill:#000000; fill-opacity:0.0; 
stroke:#000000; stroke-width:600000.000000; stroke-opacity:1; 
stroke-linecap:round; stroke-linejoin:round;">
<path d="M14087000 3682500
L14087000 4952500
" />
</g>
<g style="fill:#000000; fill-opacity:0.0; 
stroke:#000000; stroke-width:800000.000000; stroke-opacity:1; 
stroke-linecap:round; stroke-linejoin:round;">
<path d="M11990000 7111500
L12752000 7873500
" />
<path d="M15141500 9905500
L15649500 9397500
" />
<path d="M12752000 7873500
L13768000 7873500
" />
<path d="M17531000 7873500
L15493000 7873500
" />
</g>
<g style="fill:#000000; fill-opacity:0.0; 
stroke:#000000; stroke-width:600000.000000; stroke-opacity:1; 
stroke-linecap:round; stroke-linejoin:round;">
<path d="M14087000 6222500
L14911000 6222500
" />
<path d="M15493000 6804500
L15493000 7873500
" />
<path d="M14911000 6222500
L15493000 6804500
" />
</g>
<g style="fill:#000000; fill-opacity:0.0; 
stroke:#000000; stroke-width:800000.000000; stroke-opacity:1; 
stroke-linecap:round; stroke-linejoin:round;">
<path d="M9069000 8381500
L10466000 8381500
" />
<path d="M10466000 8381500
L11990000 9905500
" />
<path d="M19356000 9905500
L17982500 9905500
" />
<path d="M17982500 9905500
L17474500 9397500
" />
<path d="M19356000 7873500
L19356000 9905500
" />
</g>
<g >
</g>
</g>
<g style="fill:#FFFFFF; fill-opacity:0.0; 
stroke:#FFFFFF; stroke-width:800000.000000; stroke-opacity:1; 
stroke-linecap:round; stroke-linejoin:round;">
</g>
<g style="fill:#000000; fill-opacity:0.0; 
stroke:#000000; stroke-width:800000.000000; stroke-opacity:1; 
stroke-linecap:round; stroke-linejoin:round;">
</g>
<g style="fill:#000000; fill-opacity:0.0; 
stroke:#000000; stroke-width:100000.000000; stroke-opacity:1; 
stroke-linecap:round; stroke-linejoin:round;">
<path d="M50000 637500
L50000 11637500
" />
<path d="M50000 11637500
L21050000 11637500
" />
<path d="M21050000 11637500
L21050000 637500
" />
<path d="M21050000 637500
L50000 637500
" />
<g >
</g>
<g >
</g>
<g >
</g>
<g >
</g>
<g >
</g>
<g >
</g>
<g >
</g>
<g >
</g>
<g >
</g>
<g >
</g>
<g >
</g>
<g >
</g>
</g> 
</svg>
