G04 #@! TF.GenerationSoftware,KiCad,Pcbnew,(6.0.9)*
G04 #@! TF.CreationDate,2023-03-06T12:56:01+09:00*
G04 #@! TF.ProjectId,MainBoard,4d61696e-426f-4617-9264-2e6b69636164,rev?*
G04 #@! TF.SameCoordinates,Original*
G04 #@! TF.FileFunction,Legend,Bot*
G04 #@! TF.FilePolarity,Positive*
%FSLAX46Y46*%
G04 Gerber Fmt 4.6, Leading zero omitted, Abs format (unit mm)*
G04 Created by KiCad (PCBNEW (6.0.9)) date 2023-03-06 12:56:01*
%MOMM*%
%LPD*%
G01*
G04 APERTURE LIST*
G04 Aperture macros list*
%AMRoundRect*
0 Rectangle with rounded corners*
0 $1 Rounding radius*
0 $2 $3 $4 $5 $6 $7 $8 $9 X,Y pos of 4 corners*
0 Add a 4 corners polygon primitive as box body*
4,1,4,$2,$3,$4,$5,$6,$7,$8,$9,$2,$3,0*
0 Add four circle primitives for the rounded corners*
1,1,$1+$1,$2,$3*
1,1,$1+$1,$4,$5*
1,1,$1+$1,$6,$7*
1,1,$1+$1,$8,$9*
0 Add four rect primitives between the rounded corners*
20,1,$1+$1,$2,$3,$4,$5,0*
20,1,$1+$1,$4,$5,$6,$7,0*
20,1,$1+$1,$6,$7,$8,$9,0*
20,1,$1+$1,$8,$9,$2,$3,0*%
G04 Aperture macros list end*
%ADD10C,0.250000*%
%ADD11RoundRect,0.840625X0.840625X1.176875X-0.840625X1.176875X-0.840625X-1.176875X0.840625X-1.176875X0*%
%ADD12RoundRect,0.840625X1.176875X0.840625X-1.176875X0.840625X-1.176875X-0.840625X1.176875X-0.840625X0*%
%ADD13C,4.200000*%
%ADD14C,1.800000*%
%ADD15R,2.400000X2.400000*%
%ADD16C,2.400000*%
%ADD17C,1.600000*%
%ADD18O,1.600000X1.600000*%
%ADD19C,1.515000*%
%ADD20O,2.400000X2.400000*%
%ADD21RoundRect,0.381000X-0.381000X-0.381000X0.381000X-0.381000X0.381000X0.381000X-0.381000X0.381000X0*%
%ADD22C,2.000000*%
%ADD23C,2.550000*%
%ADD24O,2.000000X4.000000*%
%ADD25O,4.500000X2.250000*%
%ADD26O,4.000000X2.000000*%
G04 APERTURE END LIST*
D10*
X105714285Y-91996031D02*
X105714285Y-93480158D01*
X105642857Y-93654761D01*
X105571428Y-93742063D01*
X105428571Y-93829364D01*
X105142857Y-93829364D01*
X105000000Y-93742063D01*
X104928571Y-93654761D01*
X104857142Y-93480158D01*
X104857142Y-91996031D01*
X104214285Y-93742063D02*
X104000000Y-93829364D01*
X103642857Y-93829364D01*
X103500000Y-93742063D01*
X103428571Y-93654761D01*
X103357142Y-93480158D01*
X103357142Y-93305555D01*
X103428571Y-93130952D01*
X103500000Y-93043650D01*
X103642857Y-92956349D01*
X103928571Y-92869047D01*
X104071428Y-92781746D01*
X104142857Y-92694444D01*
X104214285Y-92519841D01*
X104214285Y-92345238D01*
X104142857Y-92170635D01*
X104071428Y-92083333D01*
X103928571Y-91996031D01*
X103571428Y-91996031D01*
X103357142Y-92083333D01*
X102214285Y-92869047D02*
X102000000Y-92956349D01*
X101928571Y-93043650D01*
X101857142Y-93218253D01*
X101857142Y-93480158D01*
X101928571Y-93654761D01*
X102000000Y-93742063D01*
X102142857Y-93829364D01*
X102714285Y-93829364D01*
X102714285Y-91996031D01*
X102214285Y-91996031D01*
X102071428Y-92083333D01*
X102000000Y-92170635D01*
X101928571Y-92345238D01*
X101928571Y-92519841D01*
X102000000Y-92694444D01*
X102071428Y-92781746D01*
X102214285Y-92869047D01*
X102714285Y-92869047D01*
X100071428Y-93829364D02*
X100071428Y-91996031D01*
X100071428Y-92869047D02*
X99214285Y-92869047D01*
X99214285Y-93829364D02*
X99214285Y-91996031D01*
X97928571Y-93742063D02*
X98071428Y-93829364D01*
X98357142Y-93829364D01*
X98500000Y-93742063D01*
X98571428Y-93567460D01*
X98571428Y-92869047D01*
X98500000Y-92694444D01*
X98357142Y-92607142D01*
X98071428Y-92607142D01*
X97928571Y-92694444D01*
X97857142Y-92869047D01*
X97857142Y-93043650D01*
X98571428Y-93218253D01*
X96571428Y-93829364D02*
X96571428Y-92869047D01*
X96642857Y-92694444D01*
X96785714Y-92607142D01*
X97071428Y-92607142D01*
X97214285Y-92694444D01*
X96571428Y-93742063D02*
X96714285Y-93829364D01*
X97071428Y-93829364D01*
X97214285Y-93742063D01*
X97285714Y-93567460D01*
X97285714Y-93392857D01*
X97214285Y-93218253D01*
X97071428Y-93130952D01*
X96714285Y-93130952D01*
X96571428Y-93043650D01*
X95214285Y-93829364D02*
X95214285Y-91996031D01*
X95214285Y-93742063D02*
X95357142Y-93829364D01*
X95642857Y-93829364D01*
X95785714Y-93742063D01*
X95857142Y-93654761D01*
X95928571Y-93480158D01*
X95928571Y-92956349D01*
X95857142Y-92781746D01*
X95785714Y-92694444D01*
X95642857Y-92607142D01*
X95357142Y-92607142D01*
X95214285Y-92694444D01*
X94500000Y-92607142D02*
X94500000Y-94440475D01*
X94500000Y-92694444D02*
X94357142Y-92607142D01*
X94071428Y-92607142D01*
X93928571Y-92694444D01*
X93857142Y-92781746D01*
X93785714Y-92956349D01*
X93785714Y-93480158D01*
X93857142Y-93654761D01*
X93928571Y-93742063D01*
X94071428Y-93829364D01*
X94357142Y-93829364D01*
X94500000Y-93742063D01*
X93142857Y-93829364D02*
X93142857Y-91996031D01*
X92500000Y-93829364D02*
X92500000Y-92869047D01*
X92571428Y-92694444D01*
X92714285Y-92607142D01*
X92928571Y-92607142D01*
X93071428Y-92694444D01*
X93142857Y-92781746D01*
X91571428Y-93829364D02*
X91714285Y-93742063D01*
X91785714Y-93654761D01*
X91857142Y-93480158D01*
X91857142Y-92956349D01*
X91785714Y-92781746D01*
X91714285Y-92694444D01*
X91571428Y-92607142D01*
X91357142Y-92607142D01*
X91214285Y-92694444D01*
X91142857Y-92781746D01*
X91071428Y-92956349D01*
X91071428Y-93480158D01*
X91142857Y-93654761D01*
X91214285Y-93742063D01*
X91357142Y-93829364D01*
X91571428Y-93829364D01*
X90428571Y-92607142D02*
X90428571Y-93829364D01*
X90428571Y-92781746D02*
X90357142Y-92694444D01*
X90214285Y-92607142D01*
X90000000Y-92607142D01*
X89857142Y-92694444D01*
X89785714Y-92869047D01*
X89785714Y-93829364D01*
X88500000Y-93742063D02*
X88642857Y-93829364D01*
X88928571Y-93829364D01*
X89071428Y-93742063D01*
X89142857Y-93567460D01*
X89142857Y-92869047D01*
X89071428Y-92694444D01*
X88928571Y-92607142D01*
X88642857Y-92607142D01*
X88500000Y-92694444D01*
X88428571Y-92869047D01*
X88428571Y-93043650D01*
X89142857Y-93218253D01*
X86714285Y-91908730D02*
X88000000Y-94265872D01*
X86285714Y-93742063D02*
X86071428Y-93829364D01*
X85714285Y-93829364D01*
X85571428Y-93742063D01*
X85500000Y-93654761D01*
X85428571Y-93480158D01*
X85428571Y-93305555D01*
X85500000Y-93130952D01*
X85571428Y-93043650D01*
X85714285Y-92956349D01*
X86000000Y-92869047D01*
X86142857Y-92781746D01*
X86214285Y-92694444D01*
X86285714Y-92519841D01*
X86285714Y-92345238D01*
X86214285Y-92170635D01*
X86142857Y-92083333D01*
X86000000Y-91996031D01*
X85642857Y-91996031D01*
X85428571Y-92083333D01*
X84785714Y-92607142D02*
X84785714Y-94440475D01*
X84785714Y-92694444D02*
X84642857Y-92607142D01*
X84357142Y-92607142D01*
X84214285Y-92694444D01*
X84142857Y-92781746D01*
X84071428Y-92956349D01*
X84071428Y-93480158D01*
X84142857Y-93654761D01*
X84214285Y-93742063D01*
X84357142Y-93829364D01*
X84642857Y-93829364D01*
X84785714Y-93742063D01*
X82857142Y-93742063D02*
X83000000Y-93829364D01*
X83285714Y-93829364D01*
X83428571Y-93742063D01*
X83500000Y-93567460D01*
X83500000Y-92869047D01*
X83428571Y-92694444D01*
X83285714Y-92607142D01*
X83000000Y-92607142D01*
X82857142Y-92694444D01*
X82785714Y-92869047D01*
X82785714Y-93043650D01*
X83500000Y-93218253D01*
X81500000Y-93829364D02*
X81500000Y-92869047D01*
X81571428Y-92694444D01*
X81714285Y-92607142D01*
X82000000Y-92607142D01*
X82142857Y-92694444D01*
X81500000Y-93742063D02*
X81642857Y-93829364D01*
X82000000Y-93829364D01*
X82142857Y-93742063D01*
X82214285Y-93567460D01*
X82214285Y-93392857D01*
X82142857Y-93218253D01*
X82000000Y-93130952D01*
X81642857Y-93130952D01*
X81500000Y-93043650D01*
X80785714Y-93829364D02*
X80785714Y-91996031D01*
X80642857Y-93130952D02*
X80214285Y-93829364D01*
X80214285Y-92607142D02*
X80785714Y-93305555D01*
X79000000Y-93742063D02*
X79142857Y-93829364D01*
X79428571Y-93829364D01*
X79571428Y-93742063D01*
X79642857Y-93567460D01*
X79642857Y-92869047D01*
X79571428Y-92694444D01*
X79428571Y-92607142D01*
X79142857Y-92607142D01*
X79000000Y-92694444D01*
X78928571Y-92869047D01*
X78928571Y-93043650D01*
X79642857Y-93218253D01*
X78285714Y-93829364D02*
X78285714Y-92607142D01*
X78285714Y-92956349D02*
X78214285Y-92781746D01*
X78142857Y-92694444D01*
X78000000Y-92607142D01*
X77857142Y-92607142D01*
X76285714Y-93305555D02*
X75571428Y-93305555D01*
X76428571Y-93829364D02*
X75928571Y-91996031D01*
X75428571Y-93829364D01*
X74928571Y-93829364D02*
X74928571Y-92607142D01*
X74928571Y-92781746D02*
X74857142Y-92694444D01*
X74714285Y-92607142D01*
X74500000Y-92607142D01*
X74357142Y-92694444D01*
X74285714Y-92869047D01*
X74285714Y-93829364D01*
X74285714Y-92869047D02*
X74214285Y-92694444D01*
X74071428Y-92607142D01*
X73857142Y-92607142D01*
X73714285Y-92694444D01*
X73642857Y-92869047D01*
X73642857Y-93829364D01*
X72928571Y-92607142D02*
X72928571Y-94440475D01*
X72928571Y-92694444D02*
X72785714Y-92607142D01*
X72500000Y-92607142D01*
X72357142Y-92694444D01*
X72285714Y-92781746D01*
X72214285Y-92956349D01*
X72214285Y-93480158D01*
X72285714Y-93654761D01*
X72357142Y-93742063D01*
X72500000Y-93829364D01*
X72785714Y-93829364D01*
X72928571Y-93742063D01*
X95448971Y-115754328D02*
X94617803Y-115754328D01*
X95033387Y-117572510D02*
X95033387Y-115754328D01*
X94271483Y-116360389D02*
X93994426Y-117572510D01*
X93717370Y-116706709D01*
X93440314Y-117572510D01*
X93163258Y-116360389D01*
X92609145Y-117572510D02*
X92609145Y-116360389D01*
X92609145Y-115754328D02*
X92678410Y-115840909D01*
X92609145Y-115927489D01*
X92539881Y-115840909D01*
X92609145Y-115754328D01*
X92609145Y-115927489D01*
X92124297Y-116360389D02*
X91570185Y-116360389D01*
X91916505Y-115754328D02*
X91916505Y-117312770D01*
X91847241Y-117485930D01*
X91708713Y-117572510D01*
X91570185Y-117572510D01*
X91293129Y-116360389D02*
X90739016Y-116360389D01*
X91085336Y-115754328D02*
X91085336Y-117312770D01*
X91016072Y-117485930D01*
X90877544Y-117572510D01*
X90739016Y-117572510D01*
X89700055Y-117485930D02*
X89838584Y-117572510D01*
X90115640Y-117572510D01*
X90254168Y-117485930D01*
X90323432Y-117312770D01*
X90323432Y-116620129D01*
X90254168Y-116446969D01*
X90115640Y-116360389D01*
X89838584Y-116360389D01*
X89700055Y-116446969D01*
X89630791Y-116620129D01*
X89630791Y-116793290D01*
X90323432Y-116966450D01*
X89007415Y-117572510D02*
X89007415Y-116360389D01*
X89007415Y-116706709D02*
X88938151Y-116533549D01*
X88868887Y-116446969D01*
X88730359Y-116360389D01*
X88591831Y-116360389D01*
X88106982Y-117399350D02*
X88037718Y-117485930D01*
X88106982Y-117572510D01*
X88176246Y-117485930D01*
X88106982Y-117399350D01*
X88106982Y-117572510D01*
X88106982Y-116446969D02*
X88037718Y-116533549D01*
X88106982Y-116620129D01*
X88176246Y-116533549D01*
X88106982Y-116446969D01*
X88106982Y-116620129D01*
X85405685Y-116706709D02*
X85474949Y-116620129D01*
X85613477Y-116533549D01*
X85752005Y-116533549D01*
X85890533Y-116620129D01*
X85959797Y-116706709D01*
X86029061Y-116879870D01*
X86029061Y-117053030D01*
X85959797Y-117226190D01*
X85890533Y-117312770D01*
X85752005Y-117399350D01*
X85613477Y-117399350D01*
X85474949Y-117312770D01*
X85405685Y-117226190D01*
X85405685Y-116533549D02*
X85405685Y-117226190D01*
X85336420Y-117312770D01*
X85267156Y-117312770D01*
X85128628Y-117226190D01*
X85059364Y-117053030D01*
X85059364Y-116620129D01*
X85197892Y-116360389D01*
X85405685Y-116187229D01*
X85682741Y-116100649D01*
X85959797Y-116187229D01*
X86167589Y-116360389D01*
X86306117Y-116620129D01*
X86375381Y-116966450D01*
X86306117Y-117312770D01*
X86167589Y-117572510D01*
X85959797Y-117745671D01*
X85682741Y-117832251D01*
X85405685Y-117745671D01*
X85197892Y-117572510D01*
X84643780Y-116360389D02*
X84089668Y-116360389D01*
X84435988Y-115754328D02*
X84435988Y-117312770D01*
X84366724Y-117485930D01*
X84228196Y-117572510D01*
X84089668Y-117572510D01*
X82981443Y-117572510D02*
X82981443Y-116620129D01*
X83050707Y-116446969D01*
X83189235Y-116360389D01*
X83466291Y-116360389D01*
X83604819Y-116446969D01*
X82981443Y-117485930D02*
X83119971Y-117572510D01*
X83466291Y-117572510D01*
X83604819Y-117485930D01*
X83674083Y-117312770D01*
X83674083Y-117139610D01*
X83604819Y-116966450D01*
X83466291Y-116879870D01*
X83119971Y-116879870D01*
X82981443Y-116793290D01*
X82288802Y-117572510D02*
X82288802Y-115754328D01*
X82150274Y-116879870D02*
X81734690Y-117572510D01*
X81734690Y-116360389D02*
X82288802Y-117053030D01*
X80487937Y-116360389D02*
X80487937Y-117572510D01*
X81111314Y-116360389D02*
X81111314Y-117312770D01*
X81042050Y-117485930D01*
X80903521Y-117572510D01*
X80695729Y-117572510D01*
X80557201Y-117485930D01*
X80487937Y-117399350D01*
X79795297Y-117572510D02*
X79795297Y-115754328D01*
X79171920Y-117572510D02*
X79171920Y-116620129D01*
X79241184Y-116446969D01*
X79379712Y-116360389D01*
X79587505Y-116360389D01*
X79726033Y-116446969D01*
X79795297Y-116533549D01*
X78271488Y-117572510D02*
X78410016Y-117485930D01*
X78479280Y-117399350D01*
X78548544Y-117226190D01*
X78548544Y-116706709D01*
X78479280Y-116533549D01*
X78410016Y-116446969D01*
X78271488Y-116360389D01*
X78063695Y-116360389D01*
X77925167Y-116446969D01*
X77855903Y-116533549D01*
X77786639Y-116706709D01*
X77786639Y-117226190D01*
X77855903Y-117399350D01*
X77925167Y-117485930D01*
X78063695Y-117572510D01*
X78271488Y-117572510D01*
X77371055Y-115754328D02*
X76539886Y-115754328D01*
X76955471Y-117572510D02*
X76955471Y-115754328D01*
X75500926Y-117485930D02*
X75639454Y-117572510D01*
X75916510Y-117572510D01*
X76055038Y-117485930D01*
X76124302Y-117312770D01*
X76124302Y-116620129D01*
X76055038Y-116446969D01*
X75916510Y-116360389D01*
X75639454Y-116360389D01*
X75500926Y-116446969D01*
X75431662Y-116620129D01*
X75431662Y-116793290D01*
X76124302Y-116966450D01*
X74184909Y-117485930D02*
X74323437Y-117572510D01*
X74600493Y-117572510D01*
X74739021Y-117485930D01*
X74808285Y-117399350D01*
X74877549Y-117226190D01*
X74877549Y-116706709D01*
X74808285Y-116533549D01*
X74739021Y-116446969D01*
X74600493Y-116360389D01*
X74323437Y-116360389D01*
X74184909Y-116446969D01*
X73561532Y-117572510D02*
X73561532Y-115754328D01*
X72938156Y-117572510D02*
X72938156Y-116620129D01*
X73007420Y-116446969D01*
X73145948Y-116360389D01*
X73353740Y-116360389D01*
X73492268Y-116446969D01*
X73561532Y-116533549D01*
G36*
X84426175Y-130573825D02*
G01*
X83573826Y-130573825D01*
X83573826Y-129721476D01*
X82721477Y-129721476D01*
X82721477Y-128869127D01*
X84426175Y-128869127D01*
X84426175Y-130573825D01*
G37*
G36*
X75902685Y-122902684D02*
G01*
X73345638Y-122902684D01*
X73345638Y-120345637D01*
X75902685Y-120345637D01*
X75902685Y-122902684D01*
G37*
G36*
X90392618Y-124607382D02*
G01*
X90392618Y-123755033D01*
X91244967Y-123755033D01*
X95506712Y-123755033D01*
X95506712Y-119493288D01*
X91244967Y-119493288D01*
X91244967Y-123755033D01*
X90392618Y-123755033D01*
X90392618Y-118640939D01*
X96359061Y-118640939D01*
X96359061Y-124607382D01*
X90392618Y-124607382D01*
G37*
G36*
X94654363Y-122902684D02*
G01*
X92097316Y-122902684D01*
X92097316Y-120345637D01*
X94654363Y-120345637D01*
X94654363Y-122902684D01*
G37*
G36*
X94654363Y-141654362D02*
G01*
X92097316Y-141654362D01*
X92097316Y-139097315D01*
X94654363Y-139097315D01*
X94654363Y-141654362D01*
G37*
G36*
X89540269Y-143359060D02*
G01*
X88687920Y-143359060D01*
X88687920Y-142506711D01*
X89540269Y-142506711D01*
X89540269Y-143359060D01*
G37*
G36*
X71640940Y-124607382D02*
G01*
X71640940Y-123755033D01*
X72493289Y-123755033D01*
X76755034Y-123755033D01*
X76755034Y-119493288D01*
X72493289Y-119493288D01*
X72493289Y-123755033D01*
X71640940Y-123755033D01*
X71640940Y-118640939D01*
X77607383Y-118640939D01*
X77607383Y-124607382D01*
X71640940Y-124607382D01*
G37*
G36*
X81869128Y-129721476D02*
G01*
X81016779Y-129721476D01*
X81016779Y-128869127D01*
X81869128Y-128869127D01*
X81869128Y-129721476D01*
G37*
G36*
X72493289Y-141654362D02*
G01*
X71640940Y-141654362D01*
X71640940Y-140802013D01*
X72493289Y-140802013D01*
X72493289Y-141654362D01*
G37*
G36*
X79312081Y-124607382D02*
G01*
X78459732Y-124607382D01*
X78459732Y-123755033D01*
X79312081Y-123755033D01*
X79312081Y-124607382D01*
G37*
G36*
X84426175Y-124607382D02*
G01*
X83573826Y-124607382D01*
X83573826Y-123755033D01*
X84426175Y-123755033D01*
X84426175Y-124607382D01*
G37*
G36*
X72493289Y-128869127D02*
G01*
X71640940Y-128869127D01*
X71640940Y-128016778D01*
X72493289Y-128016778D01*
X72493289Y-128869127D01*
G37*
G36*
X96359061Y-134835570D02*
G01*
X95506712Y-134835570D01*
X95506712Y-133983221D01*
X96359061Y-133983221D01*
X96359061Y-134835570D01*
G37*
G36*
X81869128Y-119493288D02*
G01*
X78459732Y-119493288D01*
X78459732Y-118640939D01*
X81869128Y-118640939D01*
X81869128Y-119493288D01*
G37*
G36*
X88687920Y-129721476D02*
G01*
X86983222Y-129721476D01*
X86983222Y-128869127D01*
X87835571Y-128869127D01*
X87835571Y-128016778D01*
X88687920Y-128016778D01*
X88687920Y-129721476D01*
G37*
G36*
X86983222Y-142506711D02*
G01*
X84426175Y-142506711D01*
X84426175Y-141654362D01*
X86983222Y-141654362D01*
X86983222Y-142506711D01*
G37*
G36*
X76755034Y-141654362D02*
G01*
X75902685Y-141654362D01*
X75902685Y-140802013D01*
X76755034Y-140802013D01*
X76755034Y-141654362D01*
G37*
G36*
X80164430Y-135687919D02*
G01*
X79312081Y-135687919D01*
X79312081Y-134835570D01*
X80164430Y-134835570D01*
X80164430Y-135687919D01*
G37*
G36*
X73345638Y-143359060D02*
G01*
X72493289Y-143359060D01*
X72493289Y-141654362D01*
X73345638Y-141654362D01*
X73345638Y-143359060D01*
G37*
G36*
X77607383Y-143359060D02*
G01*
X76755034Y-143359060D01*
X76755034Y-141654362D01*
X77607383Y-141654362D01*
X77607383Y-143359060D01*
G37*
G36*
X74197987Y-128016778D02*
G01*
X72493289Y-128016778D01*
X72493289Y-127164429D01*
X74197987Y-127164429D01*
X74197987Y-128016778D01*
G37*
G36*
X89540269Y-128016778D02*
G01*
X88687920Y-128016778D01*
X88687920Y-127164429D01*
X89540269Y-127164429D01*
X89540269Y-128016778D01*
G37*
G36*
X72493289Y-139949664D02*
G01*
X71640940Y-139949664D01*
X71640940Y-139097315D01*
X72493289Y-139097315D01*
X72493289Y-139949664D01*
G37*
G36*
X79312081Y-142506711D02*
G01*
X81016779Y-142506711D01*
X81016779Y-143359060D01*
X78459732Y-143359060D01*
X78459732Y-141654362D01*
X79312081Y-141654362D01*
X79312081Y-142506711D01*
G37*
G36*
X73345638Y-126312080D02*
G01*
X72493289Y-126312080D01*
X72493289Y-127164429D01*
X71640940Y-127164429D01*
X71640940Y-125459731D01*
X73345638Y-125459731D01*
X73345638Y-126312080D01*
G37*
G36*
X75050336Y-126312080D02*
G01*
X74197987Y-126312080D01*
X74197987Y-125459731D01*
X75050336Y-125459731D01*
X75050336Y-126312080D01*
G37*
G36*
X74197987Y-139949664D02*
G01*
X73345638Y-139949664D01*
X73345638Y-139097315D01*
X74197987Y-139097315D01*
X74197987Y-139949664D01*
G37*
G36*
X73345638Y-140802013D02*
G01*
X72493289Y-140802013D01*
X72493289Y-139949664D01*
X73345638Y-139949664D01*
X73345638Y-140802013D01*
G37*
G36*
X93802014Y-134835570D02*
G01*
X93802014Y-135687919D01*
X92949665Y-135687919D01*
X92949665Y-134835570D01*
X93802014Y-134835570D01*
G37*
G36*
X95506712Y-129721476D02*
G01*
X95506712Y-130573825D01*
X96359061Y-130573825D01*
X96359061Y-132278523D01*
X94654363Y-132278523D01*
X94654363Y-133130872D01*
X95506712Y-133130872D01*
X95506712Y-133983221D01*
X94654363Y-133983221D01*
X94654363Y-134835570D01*
X93802014Y-134835570D01*
X93802014Y-133983221D01*
X92949665Y-133983221D01*
X92949665Y-133130872D01*
X93802014Y-133130872D01*
X93802014Y-131426174D01*
X95506712Y-131426174D01*
X95506712Y-130573825D01*
X93802014Y-130573825D01*
X93802014Y-131426174D01*
X92949665Y-131426174D01*
X92949665Y-133130872D01*
X92097316Y-133130872D01*
X92097316Y-133983221D01*
X92949665Y-133983221D01*
X92949665Y-134835570D01*
X92097316Y-134835570D01*
X92097316Y-135687919D01*
X92949665Y-135687919D01*
X92949665Y-136540268D01*
X92097316Y-136540268D01*
X92097316Y-135687919D01*
X91244967Y-135687919D01*
X91244967Y-134835570D01*
X90392618Y-134835570D01*
X90392618Y-135687919D01*
X91244967Y-135687919D01*
X91244967Y-136540268D01*
X90392618Y-136540268D01*
X90392618Y-135687919D01*
X89540269Y-135687919D01*
X89540269Y-134835570D01*
X88687920Y-134835570D01*
X88687920Y-133983221D01*
X89540269Y-133983221D01*
X91244967Y-133983221D01*
X91244967Y-133130872D01*
X89540269Y-133130872D01*
X89540269Y-133983221D01*
X88687920Y-133983221D01*
X88687920Y-133130872D01*
X86130873Y-133130872D01*
X86130873Y-133983221D01*
X85278524Y-133983221D01*
X85278524Y-134835570D01*
X86130873Y-134835570D01*
X86130873Y-135687919D01*
X86983222Y-135687919D01*
X86983222Y-134835570D01*
X86130873Y-134835570D01*
X86130873Y-133983221D01*
X87835571Y-133983221D01*
X87835571Y-135687919D01*
X88687920Y-135687919D01*
X88687920Y-136540268D01*
X86130873Y-136540268D01*
X86130873Y-138244966D01*
X86983222Y-138244966D01*
X86983222Y-137392617D01*
X87835571Y-137392617D01*
X87835571Y-138244966D01*
X88687920Y-138244966D01*
X88687920Y-136540268D01*
X89540269Y-136540268D01*
X89540269Y-139097315D01*
X86130873Y-139097315D01*
X86130873Y-138244966D01*
X85278524Y-138244966D01*
X85278524Y-136540268D01*
X83573826Y-136540268D01*
X83573826Y-134835570D01*
X81869128Y-134835570D01*
X81869128Y-135687919D01*
X82721477Y-135687919D01*
X82721477Y-136540268D01*
X83573826Y-136540268D01*
X83573826Y-137392617D01*
X84426175Y-137392617D01*
X84426175Y-138244966D01*
X85278524Y-138244966D01*
X85278524Y-139097315D01*
X82721477Y-139097315D01*
X82721477Y-137392617D01*
X81869128Y-137392617D01*
X81869128Y-136540268D01*
X81016779Y-136540268D01*
X81016779Y-137392617D01*
X81869128Y-137392617D01*
X81869128Y-138244966D01*
X81016779Y-138244966D01*
X81016779Y-139097315D01*
X80164430Y-139097315D01*
X80164430Y-138244966D01*
X79312081Y-138244966D01*
X79312081Y-139949664D01*
X75902685Y-139949664D01*
X75902685Y-140802013D01*
X74197987Y-140802013D01*
X74197987Y-139949664D01*
X75050336Y-139949664D01*
X75050336Y-139097315D01*
X75902685Y-139097315D01*
X78459732Y-139097315D01*
X78459732Y-136540268D01*
X75902685Y-136540268D01*
X75902685Y-139097315D01*
X75050336Y-139097315D01*
X74197987Y-139097315D01*
X74197987Y-137392617D01*
X73345638Y-137392617D01*
X73345638Y-138244966D01*
X72493289Y-138244966D01*
X72493289Y-137392617D01*
X71640940Y-137392617D01*
X71640940Y-136540268D01*
X73345638Y-136540268D01*
X73345638Y-135687919D01*
X74197987Y-135687919D01*
X76755034Y-135687919D01*
X77607383Y-135687919D01*
X79312081Y-135687919D01*
X79312081Y-137392617D01*
X80164430Y-137392617D01*
X80164430Y-135687919D01*
X81016779Y-135687919D01*
X81016779Y-134835570D01*
X81869128Y-134835570D01*
X81869128Y-133983221D01*
X82721477Y-133983221D01*
X83573826Y-133983221D01*
X83573826Y-133130872D01*
X82721477Y-133130872D01*
X82721477Y-133983221D01*
X81869128Y-133983221D01*
X81869128Y-133130872D01*
X81016779Y-133130872D01*
X81016779Y-133983221D01*
X80164430Y-133983221D01*
X80164430Y-133130872D01*
X79312081Y-133130872D01*
X79312081Y-134835570D01*
X77607383Y-134835570D01*
X77607383Y-135687919D01*
X76755034Y-135687919D01*
X76755034Y-134835570D01*
X75902685Y-134835570D01*
X75902685Y-133130872D01*
X75050336Y-133130872D01*
X75050336Y-133983221D01*
X74197987Y-133983221D01*
X74197987Y-135687919D01*
X73345638Y-135687919D01*
X73345638Y-133983221D01*
X72493289Y-133983221D01*
X72493289Y-131426174D01*
X71640940Y-131426174D01*
X71640940Y-129721476D01*
X73345638Y-129721476D01*
X73345638Y-128869127D01*
X75050336Y-128869127D01*
X75050336Y-129721476D01*
X74197987Y-129721476D01*
X74197987Y-131426174D01*
X73345638Y-131426174D01*
X73345638Y-133130872D01*
X74197987Y-133130872D01*
X74197987Y-132278523D01*
X76755034Y-132278523D01*
X76755034Y-134835570D01*
X77607383Y-134835570D01*
X77607383Y-132278523D01*
X78459732Y-132278523D01*
X79312081Y-132278523D01*
X81869128Y-132278523D01*
X81869128Y-131426174D01*
X79312081Y-131426174D01*
X79312081Y-132278523D01*
X78459732Y-132278523D01*
X78459732Y-131426174D01*
X75902685Y-131426174D01*
X75902685Y-130573825D01*
X76755034Y-130573825D01*
X76755034Y-129721476D01*
X77607383Y-129721476D01*
X77607383Y-130573825D01*
X78459732Y-130573825D01*
X78459732Y-129721476D01*
X79312081Y-129721476D01*
X79312081Y-128869127D01*
X80164430Y-128869127D01*
X80164430Y-130573825D01*
X81869128Y-130573825D01*
X81869128Y-129721476D01*
X82721477Y-129721476D01*
X82721477Y-130573825D01*
X83573826Y-130573825D01*
X83573826Y-131426174D01*
X82721477Y-131426174D01*
X82721477Y-132278523D01*
X83573826Y-132278523D01*
X83573826Y-131426174D01*
X84426175Y-131426174D01*
X84426175Y-133983221D01*
X85278524Y-133983221D01*
X85278524Y-133130872D01*
X86130873Y-133130872D01*
X86130873Y-132278523D01*
X87835571Y-132278523D01*
X88687920Y-132278523D01*
X89540269Y-132278523D01*
X91244967Y-132278523D01*
X91244967Y-131426174D01*
X89540269Y-131426174D01*
X89540269Y-132278523D01*
X88687920Y-132278523D01*
X88687920Y-131426174D01*
X87835571Y-131426174D01*
X87835571Y-132278523D01*
X86130873Y-132278523D01*
X86130873Y-130573825D01*
X85278524Y-130573825D01*
X85278524Y-129721476D01*
X86130873Y-129721476D01*
X86983222Y-129721476D01*
X86983222Y-130573825D01*
X88687920Y-130573825D01*
X88687920Y-131426174D01*
X89540269Y-131426174D01*
X89540269Y-130573825D01*
X90392618Y-130573825D01*
X91244967Y-130573825D01*
X91244967Y-129721476D01*
X92097316Y-129721476D01*
X92949665Y-129721476D01*
X92949665Y-128869127D01*
X95506712Y-128869127D01*
X95506712Y-128016778D01*
X94654363Y-128016778D01*
X94654363Y-127164429D01*
X93802014Y-127164429D01*
X93802014Y-126312080D01*
X92949665Y-126312080D01*
X92949665Y-128869127D01*
X92097316Y-128869127D01*
X92097316Y-129721476D01*
X91244967Y-129721476D01*
X90392618Y-129721476D01*
X90392618Y-130573825D01*
X89540269Y-130573825D01*
X89540269Y-129721476D01*
X90392618Y-129721476D01*
X90392618Y-128869127D01*
X92097316Y-128869127D01*
X92097316Y-128016778D01*
X90392618Y-128016778D01*
X90392618Y-127164429D01*
X91244967Y-127164429D01*
X91244967Y-126312080D01*
X89540269Y-126312080D01*
X89540269Y-125459731D01*
X87835571Y-125459731D01*
X87835571Y-126312080D01*
X86983222Y-126312080D01*
X86983222Y-128869127D01*
X86130873Y-128869127D01*
X86130873Y-129721476D01*
X85278524Y-129721476D01*
X85278524Y-128869127D01*
X86130873Y-128869127D01*
X86130873Y-128016778D01*
X84426175Y-128016778D01*
X84426175Y-127164429D01*
X82721477Y-127164429D01*
X82721477Y-125459731D01*
X81869128Y-125459731D01*
X81869128Y-127164429D01*
X82721477Y-127164429D01*
X82721477Y-128869127D01*
X81869128Y-128869127D01*
X81869128Y-128016778D01*
X81016779Y-128016778D01*
X81016779Y-127164429D01*
X78459732Y-127164429D01*
X78459732Y-128016778D01*
X77607383Y-128016778D01*
X77607383Y-127164429D01*
X76755034Y-127164429D01*
X76755034Y-128016778D01*
X77607383Y-128016778D01*
X77607383Y-128869127D01*
X76755034Y-128869127D01*
X76755034Y-129721476D01*
X75902685Y-129721476D01*
X75902685Y-127164429D01*
X75050336Y-127164429D01*
X75050336Y-126312080D01*
X76755034Y-126312080D01*
X76755034Y-125459731D01*
X77607383Y-125459731D01*
X77607383Y-127164429D01*
X78459732Y-127164429D01*
X78459732Y-125459731D01*
X80164430Y-125459731D01*
X80164430Y-124607382D01*
X81016779Y-124607382D01*
X81869128Y-124607382D01*
X81869128Y-122902684D01*
X81016779Y-122902684D01*
X81016779Y-124607382D01*
X80164430Y-124607382D01*
X80164430Y-123755033D01*
X79312081Y-123755033D01*
X79312081Y-122050335D01*
X81016779Y-122050335D01*
X81869128Y-122050335D01*
X82721477Y-122050335D01*
X82721477Y-122902684D01*
X83573826Y-122902684D01*
X83573826Y-123755033D01*
X82721477Y-123755033D01*
X82721477Y-124607382D01*
X83573826Y-124607382D01*
X83573826Y-126312080D01*
X84426175Y-126312080D01*
X84426175Y-125459731D01*
X86130873Y-125459731D01*
X86130873Y-124607382D01*
X85278524Y-124607382D01*
X85278524Y-123755033D01*
X84426175Y-123755033D01*
X84426175Y-122902684D01*
X85278524Y-122902684D01*
X85278524Y-122050335D01*
X86130873Y-122050335D01*
X86130873Y-121197986D01*
X85278524Y-121197986D01*
X85278524Y-120345637D01*
X86130873Y-120345637D01*
X86983222Y-120345637D01*
X86983222Y-121197986D01*
X87835571Y-121197986D01*
X87835571Y-120345637D01*
X86983222Y-120345637D01*
X86983222Y-119493288D01*
X86130873Y-119493288D01*
X86130873Y-120345637D01*
X85278524Y-120345637D01*
X84426175Y-120345637D01*
X84426175Y-119493288D01*
X82721477Y-119493288D01*
X82721477Y-121197986D01*
X81869128Y-121197986D01*
X81869128Y-122050335D01*
X81016779Y-122050335D01*
X81016779Y-121197986D01*
X81869128Y-121197986D01*
X81869128Y-119493288D01*
X82721477Y-119493288D01*
X82721477Y-118640939D01*
X85278524Y-118640939D01*
X85278524Y-119493288D01*
X86130873Y-119493288D01*
X86130873Y-118640939D01*
X87835571Y-118640939D01*
X87835571Y-119493288D01*
X88687920Y-119493288D01*
X88687920Y-118640939D01*
X89540269Y-118640939D01*
X89540269Y-120345637D01*
X88687920Y-120345637D01*
X88687920Y-121197986D01*
X89540269Y-121197986D01*
X89540269Y-122050335D01*
X86130873Y-122050335D01*
X86130873Y-124607382D01*
X86983222Y-124607382D01*
X86983222Y-123755033D01*
X87835571Y-123755033D01*
X87835571Y-124607382D01*
X88687920Y-124607382D01*
X88687920Y-123755033D01*
X89540269Y-123755033D01*
X89540269Y-125459731D01*
X92097316Y-125459731D01*
X92097316Y-126312080D01*
X92949665Y-126312080D01*
X92949665Y-125459731D01*
X94654363Y-125459731D01*
X94654363Y-126312080D01*
X95506712Y-126312080D01*
X95506712Y-128016778D01*
X96359061Y-128016778D01*
X96359061Y-129721476D01*
X95506712Y-129721476D01*
G37*
G36*
X80164430Y-141654362D02*
G01*
X79312081Y-141654362D01*
X79312081Y-139949664D01*
X80164430Y-139949664D01*
X80164430Y-141654362D01*
G37*
G36*
X95506712Y-136540268D02*
G01*
X93802014Y-136540268D01*
X93802014Y-135687919D01*
X95506712Y-135687919D01*
X95506712Y-136540268D01*
G37*
G36*
X84426175Y-122902684D02*
G01*
X83573826Y-122902684D01*
X83573826Y-122050335D01*
X82721477Y-122050335D01*
X82721477Y-121197986D01*
X84426175Y-121197986D01*
X84426175Y-122902684D01*
G37*
G36*
X75902685Y-142506711D02*
G01*
X75050336Y-142506711D01*
X75050336Y-143359060D01*
X74197987Y-143359060D01*
X74197987Y-141654362D01*
X75902685Y-141654362D01*
X75902685Y-142506711D01*
G37*
G36*
X84426175Y-141654362D02*
G01*
X83573826Y-141654362D01*
X83573826Y-140802013D01*
X84426175Y-140802013D01*
X84426175Y-141654362D01*
G37*
G36*
X90392618Y-143359060D02*
G01*
X90392618Y-142506711D01*
X91244967Y-142506711D01*
X95506712Y-142506711D01*
X95506712Y-138244966D01*
X91244967Y-138244966D01*
X91244967Y-142506711D01*
X90392618Y-142506711D01*
X90392618Y-137392617D01*
X96359061Y-137392617D01*
X96359061Y-143359060D01*
X90392618Y-143359060D01*
G37*
G36*
X77607383Y-138244966D02*
G01*
X76755034Y-138244966D01*
X76755034Y-137392617D01*
X77607383Y-137392617D01*
X77607383Y-138244966D01*
G37*
G36*
X81869128Y-140802013D02*
G01*
X82721477Y-140802013D01*
X82721477Y-141654362D01*
X81016779Y-141654362D01*
X81016779Y-139097315D01*
X81869128Y-139097315D01*
X81869128Y-140802013D01*
G37*
G36*
X81016779Y-121197986D02*
G01*
X79312081Y-121197986D01*
X79312081Y-120345637D01*
X81016779Y-120345637D01*
X81016779Y-121197986D01*
G37*
G36*
X86983222Y-140802013D02*
G01*
X86130873Y-140802013D01*
X86130873Y-139949664D01*
X86983222Y-139949664D01*
X86983222Y-140802013D01*
G37*
G36*
X96359061Y-126312080D02*
G01*
X95506712Y-126312080D01*
X95506712Y-125459731D01*
X96359061Y-125459731D01*
X96359061Y-126312080D01*
G37*
G36*
X79312081Y-128869127D02*
G01*
X78459732Y-128869127D01*
X78459732Y-128016778D01*
X79312081Y-128016778D01*
X79312081Y-128869127D01*
G37*
G36*
X74197987Y-141654362D02*
G01*
X73345638Y-141654362D01*
X73345638Y-140802013D01*
X74197987Y-140802013D01*
X74197987Y-141654362D01*
G37*
G36*
X83573826Y-143359060D02*
G01*
X82721477Y-143359060D01*
X82721477Y-141654362D01*
X83573826Y-141654362D01*
X83573826Y-143359060D01*
G37*
G36*
X85278524Y-131426174D02*
G01*
X84426175Y-131426174D01*
X84426175Y-130573825D01*
X85278524Y-130573825D01*
X85278524Y-131426174D01*
G37*
G36*
X88687920Y-127164429D02*
G01*
X87835571Y-127164429D01*
X87835571Y-126312080D01*
X88687920Y-126312080D01*
X88687920Y-127164429D01*
G37*
G36*
X89540269Y-141654362D02*
G01*
X86983222Y-141654362D01*
X86983222Y-140802013D01*
X88687920Y-140802013D01*
X88687920Y-139949664D01*
X89540269Y-139949664D01*
X89540269Y-141654362D01*
G37*
%LPC*%
D11*
X156845000Y-97155000D03*
D12*
X152345000Y-97155000D03*
D11*
X156845000Y-137795000D03*
D12*
X152345000Y-137795000D03*
D13*
X102305000Y-115443000D03*
X102305000Y-124587000D03*
D14*
X109305000Y-122555000D03*
X109305000Y-120055000D03*
X109305000Y-117555000D03*
D15*
X104140000Y-132296041D03*
D16*
X104140000Y-137296041D03*
D17*
X147955000Y-126365000D03*
D18*
X155575000Y-126365000D03*
D15*
X133350000Y-132296041D03*
D16*
X133350000Y-137296041D03*
D19*
X107950000Y-101610000D03*
X107950000Y-96510000D03*
D16*
X142875000Y-95250000D03*
D20*
X142875000Y-115570000D03*
D21*
X114300000Y-94615000D03*
X116840000Y-94615000D03*
X119380000Y-94615000D03*
D22*
X132080000Y-97850000D03*
X132080000Y-105350000D03*
D17*
X155575000Y-108585000D03*
D18*
X147955000Y-108585000D03*
D23*
X158775000Y-117557500D03*
X155475000Y-113007500D03*
X150975000Y-122607500D03*
D17*
X146685000Y-130175000D03*
D18*
X159385000Y-130175000D03*
D24*
X96700000Y-101290000D03*
D25*
X101600000Y-104240000D03*
D26*
X101600000Y-98240000D03*
D16*
X142875000Y-119380000D03*
D20*
X142875000Y-139700000D03*
D17*
X146685000Y-104775000D03*
D18*
X159385000Y-104775000D03*
D22*
X132080000Y-122495000D03*
X132080000Y-114995000D03*
M02*
