G04 #@! TF.GenerationSoftware,KiCad,Pcbnew,(6.0.9)*
G04 #@! TF.CreationDate,2023-03-06T12:56:01+09:00*
G04 #@! TF.ProjectId,MainBoard,4d61696e-426f-4617-9264-2e6b69636164,rev?*
G04 #@! TF.SameCoordinates,Original*
G04 #@! TF.FileFunction,Soldermask,Bot*
G04 #@! TF.FilePolarity,Negative*
%FSLAX46Y46*%
G04 Gerber Fmt 4.6, Leading zero omitted, Abs format (unit mm)*
G04 Created by KiCad (PCBNEW (6.0.9)) date 2023-03-06 12:56:01*
%MOMM*%
%LPD*%
G01*
G04 APERTURE LIST*
G04 Aperture macros list*
%AMRoundRect*
0 Rectangle with rounded corners*
0 $1 Rounding radius*
0 $2 $3 $4 $5 $6 $7 $8 $9 X,Y pos of 4 corners*
0 Add a 4 corners polygon primitive as box body*
4,1,4,$2,$3,$4,$5,$6,$7,$8,$9,$2,$3,0*
0 Add four circle primitives for the rounded corners*
1,1,$1+$1,$2,$3*
1,1,$1+$1,$4,$5*
1,1,$1+$1,$6,$7*
1,1,$1+$1,$8,$9*
0 Add four rect primitives between the rounded corners*
20,1,$1+$1,$2,$3,$4,$5,0*
20,1,$1+$1,$4,$5,$6,$7,0*
20,1,$1+$1,$6,$7,$8,$9,0*
20,1,$1+$1,$8,$9,$2,$3,0*%
G04 Aperture macros list end*
%ADD10RoundRect,0.840625X0.840625X1.176875X-0.840625X1.176875X-0.840625X-1.176875X0.840625X-1.176875X0*%
%ADD11RoundRect,0.840625X1.176875X0.840625X-1.176875X0.840625X-1.176875X-0.840625X1.176875X-0.840625X0*%
%ADD12C,4.200000*%
%ADD13C,1.800000*%
%ADD14R,2.400000X2.400000*%
%ADD15C,2.400000*%
%ADD16C,1.600000*%
%ADD17O,1.600000X1.600000*%
%ADD18C,1.515000*%
%ADD19O,2.400000X2.400000*%
%ADD20RoundRect,0.381000X-0.381000X-0.381000X0.381000X-0.381000X0.381000X0.381000X-0.381000X0.381000X0*%
%ADD21C,2.000000*%
%ADD22C,2.550000*%
%ADD23O,2.000000X4.000000*%
%ADD24O,4.500000X2.250000*%
%ADD25O,4.000000X2.000000*%
G04 APERTURE END LIST*
D10*
X156845000Y-97155000D03*
D11*
X152345000Y-97155000D03*
D10*
X156845000Y-137795000D03*
D11*
X152345000Y-137795000D03*
D12*
X102305000Y-115443000D03*
X102305000Y-124587000D03*
D13*
X109305000Y-122555000D03*
X109305000Y-120055000D03*
X109305000Y-117555000D03*
D14*
X104140000Y-132296041D03*
D15*
X104140000Y-137296041D03*
D16*
X147955000Y-126365000D03*
D17*
X155575000Y-126365000D03*
D14*
X133350000Y-132296041D03*
D15*
X133350000Y-137296041D03*
D18*
X107950000Y-101610000D03*
X107950000Y-96510000D03*
D15*
X142875000Y-95250000D03*
D19*
X142875000Y-115570000D03*
D20*
X114300000Y-94615000D03*
X116840000Y-94615000D03*
X119380000Y-94615000D03*
D21*
X132080000Y-97850000D03*
X132080000Y-105350000D03*
D16*
X155575000Y-108585000D03*
D17*
X147955000Y-108585000D03*
D22*
X158775000Y-117557500D03*
X155475000Y-113007500D03*
X150975000Y-122607500D03*
D16*
X146685000Y-130175000D03*
D17*
X159385000Y-130175000D03*
D23*
X96700000Y-101290000D03*
D24*
X101600000Y-104240000D03*
D25*
X101600000Y-98240000D03*
D15*
X142875000Y-119380000D03*
D19*
X142875000Y-139700000D03*
D16*
X146685000Y-104775000D03*
D17*
X159385000Y-104775000D03*
D21*
X132080000Y-122495000D03*
X132080000Y-114995000D03*
M02*
