M48
; DRILL file {KiCad (6.0.9)} date Mon Mar  6 12:57:47 2023
; FORMAT={2:4/ absolute / inch / suppress leading zeros}
; #@! TF.CreationDate,2023-03-06T12:57:47+09:00
; #@! TF.GenerationSoftware,Kicad,Pcbnew,(6.0.9)
; #@! TF.FileFunction,MixedPlating,1,2
FMAT,2
INCH,TZ
; #@! TA.AperFunction,Plated,PTH,ViaDrill
T1C0.0118
; #@! TA.AperFunction,Plated,PTH,ViaDrill
T2C0.0157
; #@! TA.AperFunction,Plated,PTH,ViaDrill
T3C0.0236
; #@! TA.AperFunction,Plated,PTH,ComponentDrill
T4C0.0300
; #@! TA.AperFunction,Plated,PTH,ComponentDrill
T5C0.0315
; #@! TA.AperFunction,Plated,PTH,ComponentDrill
T6C0.0394
; #@! TA.AperFunction,Plated,PTH,ComponentDrill
T7C0.0398
; #@! TA.AperFunction,Plated,PTH,ComponentDrill
T8C0.0472
; #@! TA.AperFunction,Plated,PTH,ComponentDrill
T9C0.0512
; #@! TA.AperFunction,Plated,PTH,ComponentDrill
T10C0.0591
; #@! TA.AperFunction,Plated,PTH,ComponentDrill
T11C0.0945
%
G90
G05
T1
X341Y-1567
X341Y-2567
X341Y-3567
X341Y-4567
X341Y-5567
X341Y-6567
X341Y-7567
X341Y-8567
X341Y-9567
X341Y-10567
X341Y-11567
X341Y-12567
X341Y-13567
X341Y-14567
X341Y-15567
X341Y-16567
X341Y-17567
X341Y-18567
X341Y-19567
X341Y-20567
X492Y-492
X492Y-21161
X1441Y-317
X1441Y-21317
X2191Y-3817
X2191Y-4817
X2191Y-5817
X2441Y-317
X2441Y-1817
X2441Y-2817
X2441Y-6817
X2441Y-7817
X2441Y-8817
X2441Y-9817
X2441Y-21317
X3441Y-317
X3441Y-21317
X3691Y-9817
X4441Y-317
X4441Y-21317
X5191Y-9817
X5441Y-317
X5441Y-21317
X6441Y-317
X6441Y-3817
X6441Y-4817
X6441Y-5817
X6441Y-6817
X6441Y-7817
X6441Y-8817
X6441Y-9817
X6441Y-21317
X7441Y-317
X7441Y-1817
X7441Y-2817
X7441Y-3817
X7441Y-21317
X7691Y-4817
X7691Y-5817
X7691Y-6817
X7691Y-7817
X7691Y-8817
X7691Y-9817
X8441Y-317
X8441Y-21317
X9441Y-317
X9441Y-21317
X9691Y-2567
X9691Y-3567
X9691Y-4567
X9691Y-5567
X9691Y-6567
X10191Y-7567
X10191Y-8567
X10191Y-9567
X10191Y-10567
X10441Y-317
X10441Y-21317
X10691Y-1817
X10691Y-2867
X10691Y-7067
X10691Y-18817
X10691Y-19817
X10691Y-20817
X10741Y-15967
X10741Y-16867
X10741Y-17767
X10791Y-5767
X11041Y-7967
X11041Y-8567
X11041Y-9567
X11041Y-10567
X11041Y-11567
X11041Y-12567
X11041Y-13567
X11041Y-14367
X11041Y-15167
X11141Y-18217
X11191Y-6567
X11291Y-19367
X11341Y-16467
X11341Y-17117
X11341Y-17767
X11341Y-20367
X11441Y-317
X11441Y-21317
X11541Y-7467
X11541Y-15667
X11691Y-4317
X11741Y-18817
X11791Y-19867
X11891Y-20657
X11941Y-8317
X12041Y-16167
X12041Y-16967
X12041Y-17767
X12191Y-1817
X12191Y-6567
X12341Y-7467
X12341Y-19417
X12441Y-317
X12441Y-15367
X12441Y-21317
X12541Y-18267
X12641Y-16567
X12691Y-4317
X12691Y-11817
X12841Y-20057
X12851Y-20657
X13141Y-7467
X13191Y-6567
X13441Y-317
X13441Y-8317
X13441Y-15567
X13441Y-17467
X13441Y-21317
X13691Y-1817
X13691Y-4317
X13871Y-20657
X13891Y-19417
X13941Y-7467
X13941Y-20057
X14091Y-14917
X14191Y-2817
X14191Y-6567
X14191Y-10817
X14191Y-12817
X14191Y-13817
X14341Y-18767
X14391Y-11817
X14441Y-317
X14441Y-21317
X14641Y-8117
X14641Y-17167
X14691Y-14317
X14831Y-20657
X14941Y-1567
X14941Y-3567
X14941Y-9367
X14941Y-16067
X15091Y-18917
X15191Y-5567
X15241Y-13417
X15241Y-17167
X15241Y-17767
X15281Y-20177
X15441Y-317
X15441Y-8117
X15441Y-15567
X15441Y-19417
X15441Y-21317
X15591Y-13667
X15691Y-16067
X15791Y-17567
X15841Y-18917
X15941Y-1067
X15941Y-2567
X15941Y-15317
X15991Y-13267
X16141Y-19867
X16191Y-4567
X16191Y-21317
X16241Y-8117
X16241Y-8967
X16241Y-9767
X16241Y-10567
X16241Y-11417
X16241Y-12117
X16291Y-17267
X16291Y-17867
X16441Y-317
X16441Y-3467
X16441Y-14567
X16591Y-12617
X16941Y-1067
X16941Y-2567
X16941Y-11417
X16941Y-12117
X16941Y-21317
X17191Y-4317
X17421Y-17447
X17421Y-18847
X17441Y-317
X17641Y-13967
X17661Y-17207
X17701Y-18147
X17741Y-13167
X17741Y-20167
X17741Y-20717
X17741Y-21317
X17760Y-19486
X17941Y-1067
X17941Y-2567
X17941Y-15027
X18016Y-19742
X18021Y-17847
X18041Y-12017
X18241Y-3167
X18291Y-20717
X18441Y-317
X18441Y-13367
X18541Y-15567
X18541Y-21317
X18641Y-11167
X18641Y-11567
X18801Y-14167
X18841Y-19817
X18941Y-1067
X18941Y-15167
X19041Y-12767
X19041Y-20917
X19141Y-15567
X19191Y-317
X19441Y-2567
X19441Y-21317
X19491Y-19817
X19541Y-15167
X19641Y-12167
X19691Y-14317
X19741Y-3167
X19891Y-13067
X19941Y-317
X19941Y-20917
X20091Y-14717
X20141Y-19817
X20191Y-1317
X20191Y-2317
X20191Y-3317
X20191Y-4317
X20341Y-12617
X20441Y-21317
X20541Y-5317
X20541Y-6317
X20541Y-7317
X20541Y-8317
X20541Y-9317
X20541Y-14167
X20641Y-15667
X20641Y-16267
X20641Y-18967
X20641Y-19467
X20641Y-19967
X20791Y-17267
X20791Y-17567
X20791Y-17867
X20841Y-12117
X20841Y-20917
X20941Y-317
X20941Y-1317
X20941Y-2317
X20941Y-3317
X20941Y-4317
X20941Y-14367
X20991Y-13067
X21041Y-13917
X21141Y-10667
X21391Y-12667
X21441Y-21317
X21491Y-4317
X21491Y-5317
X21491Y-6317
X21491Y-7317
X21491Y-8317
X21491Y-9317
X21491Y-10067
X21691Y-317
X21691Y-3317
X21691Y-11267
X21741Y-17567
X21791Y-13067
X22041Y-1467
X22091Y-15517
X22191Y-17167
X22191Y-19817
X22191Y-20567
X22391Y-4217
X22391Y-5767
X22391Y-6967
X22391Y-8167
X22391Y-9367
X22391Y-10567
X22391Y-13667
X22441Y-317
X22441Y-2567
X22441Y-11817
X22441Y-21317
X22941Y-12317
X22941Y-14267
X22941Y-14867
X22941Y-16667
X22941Y-18317
X23061Y-15867
X23191Y-1817
X23191Y-17567
X23241Y-3417
X23241Y-4867
X23241Y-6067
X23241Y-7267
X23241Y-8467
X23241Y-9667
X23241Y-10867
X23441Y-317
X23441Y-12817
X23441Y-19317
X23441Y-20317
X23441Y-21317
X23691Y-11567
X23791Y-4317
X23791Y-15167
X23791Y-15867
X23791Y-16567
X23841Y-2567
X23941Y-1567
X23941Y-17567
X23941Y-18317
X24191Y-6967
X24191Y-7967
X24191Y-8967
X24191Y-10817
X24191Y-12067
X24191Y-13817
X24241Y-5067
X24341Y-3767
X24341Y-15767
X24441Y-317
X24441Y-21317
X24691Y-11317
X24741Y-4567
X24941Y-1567
X24941Y-2467
X24941Y-14567
X24941Y-17467
X24941Y-20067
X25191Y-13567
X25291Y-3767
X25441Y-317
X25441Y-6067
X25441Y-8067
X25441Y-10067
X25441Y-21317
X25691Y-11317
X25691Y-15317
X25741Y-12167
X25841Y-16317
X25841Y-17317
X25941Y-1567
X25941Y-4567
X25941Y-14317
X25941Y-18317
X26241Y-3767
X26341Y-2467
X26441Y-317
X26441Y-7067
X26441Y-9067
X26441Y-19817
X26441Y-21317
X26541Y-12967
X26691Y-5317
X26691Y-11817
X26691Y-15067
X26691Y-18317
X26741Y-16467
X26941Y-1567
X26941Y-4467
X26941Y-17317
X27191Y-18817
X27341Y-13767
X27441Y-317
X27441Y-3067
X27441Y-6067
X27441Y-8067
X27441Y-10067
X27441Y-15817
X27441Y-21317
X27641Y-5167
X27691Y-12817
X27691Y-19317
X27691Y-20317
X27791Y-17917
X27941Y-1567
X27941Y-2467
X28141Y-14567
X28191Y-3817
X28191Y-16567
X28441Y-317
X28441Y-6067
X28441Y-7067
X28441Y-9067
X28441Y-18567
X28441Y-21317
X28641Y-5167
X28691Y-13817
X28841Y-15267
X28941Y-17317
X29191Y-2817
X29191Y-3817
X29441Y-317
X29441Y-1367
X29441Y-6067
X29441Y-8067
X29441Y-12067
X29441Y-20267
X29441Y-21317
X29541Y-15967
X29591Y-5167
X29691Y-14817
X29691Y-17567
X29691Y-18817
X30191Y-2817
X30191Y-3817
X30191Y-6567
X30441Y-317
X30441Y-1367
X30441Y-9067
X30441Y-11067
X30441Y-13067
X30441Y-20267
X30441Y-21317
X30641Y-5167
X30691Y-15067
X30691Y-17567
X30691Y-18817
X31191Y-6567
X31441Y-317
X31441Y-1367
X31441Y-8067
X31441Y-10067
X31441Y-12067
X31441Y-13567
X31441Y-20267
X31441Y-21317
X31691Y-3817
X31691Y-15317
X31691Y-17567
X31941Y-6067
X31941Y-9067
X31941Y-14317
X32441Y-317
X32441Y-1517
X32441Y-11067
X32441Y-12067
X32441Y-16167
X32441Y-20117
X32441Y-21317
X32691Y-5217
X32691Y-15317
X32791Y-13717
X32941Y-6067
X32941Y-7067
X32941Y-8567
X32941Y-9567
X33191Y-14817
X33291Y-1867
X33291Y-3817
X33291Y-17817
X33291Y-19767
X33441Y-317
X33441Y-10567
X33441Y-12067
X33441Y-16167
X33441Y-21317
X33691Y-5217
X33691Y-15317
X33941Y-6067
X34441Y-317
X34441Y-1517
X34441Y-5067
X34441Y-7567
X34441Y-8567
X34441Y-9567
X34441Y-13067
X34441Y-14067
X34441Y-16167
X34441Y-16667
X34441Y-20117
X34441Y-21317
X34941Y-3900
X34941Y-17700
X35335Y-492
X35335Y-21161
X35441Y-1317
X35441Y-2317
X35441Y-3317
X35441Y-4317
X35441Y-5067
X35441Y-6567
X35441Y-7567
X35441Y-8567
X35441Y-9567
X35441Y-12067
X35441Y-13067
X35441Y-14067
X35441Y-15067
X35441Y-16667
X35441Y-17317
X35441Y-18317
X35441Y-19317
X35441Y-20317
T2
X17891Y-14517
X18241Y-14167
X18441Y-15067
X18791Y-14717
X21941Y-17947
X22341Y-17947
T3
X17526Y-12567
X18392Y-12567
T4
X17441Y-1817
X18441Y-1817
X19441Y-1817
T5
X30191Y-5817
X30191Y-15817
X30691Y-7317
X30691Y-14317
X33691Y-7317
X33691Y-14317
X35191Y-5817
X35191Y-15817
T6
X24441Y-3091
X24441Y-6043
X24441Y-9841
X24441Y-12793
T7
X14941Y-2563
X14941Y-4571
T8
X13441Y-16652
X13441Y-18620
X15474Y-10848
X15474Y-11833
X15474Y-12817
X24941Y-16652
X24941Y-18620
X28691Y-2067
X28691Y-10067
X28691Y-11567
X28691Y-19567
T10
X31880Y-12838
X33652Y-9058
X34951Y-10849
T11
X12719Y-10017
X12719Y-13617
T6
G00X10512Y-4839
M15
G01X10512Y-4051
M16
G05
G00X12047Y-3244
M15
G01X12835Y-3244
M16
G05
G00X11949Y-5606
M15
G01X12933Y-5606
M16
G05
T9
G00X32656Y-2817
M15
G01X32183Y-2817
M16
G05
G00X32656Y-18817
M15
G01X32183Y-18817
M16
G05
G00X34191Y-3053
M15
G01X34191Y-2581
M16
G05
G00X34191Y-19053
M15
G01X34191Y-18581
M16
G05
T0
M30
