G04 #@! TF.GenerationSoftware,KiCad,Pcbnew,(6.0.9)*
G04 #@! TF.CreationDate,2023-03-06T12:56:01+09:00*
G04 #@! TF.ProjectId,MainBoard,4d61696e-426f-4617-9264-2e6b69636164,rev?*
G04 #@! TF.SameCoordinates,Original*
G04 #@! TF.FileFunction,Soldermask,Top*
G04 #@! TF.FilePolarity,Negative*
%FSLAX46Y46*%
G04 Gerber Fmt 4.6, Leading zero omitted, Abs format (unit mm)*
G04 Created by KiCad (PCBNEW (6.0.9)) date 2023-03-06 12:56:01*
%MOMM*%
%LPD*%
G01*
G04 APERTURE LIST*
G04 Aperture macros list*
%AMRoundRect*
0 Rectangle with rounded corners*
0 $1 Rounding radius*
0 $2 $3 $4 $5 $6 $7 $8 $9 X,Y pos of 4 corners*
0 Add a 4 corners polygon primitive as box body*
4,1,4,$2,$3,$4,$5,$6,$7,$8,$9,$2,$3,0*
0 Add four circle primitives for the rounded corners*
1,1,$1+$1,$2,$3*
1,1,$1+$1,$4,$5*
1,1,$1+$1,$6,$7*
1,1,$1+$1,$8,$9*
0 Add four rect primitives between the rounded corners*
20,1,$1+$1,$2,$3,$4,$5,0*
20,1,$1+$1,$4,$5,$6,$7,0*
20,1,$1+$1,$6,$7,$8,$9,0*
20,1,$1+$1,$8,$9,$2,$3,0*%
%AMFreePoly0*
4,1,17,1.875035,1.275035,1.875050,1.275000,1.875050,0.575000,1.875035,0.574965,1.875000,0.574950,0.575050,0.574950,0.575050,-0.425000,0.575035,-0.425035,0.575000,-0.425050,-0.425000,-0.425050,-0.425035,-0.425035,-0.425050,-0.425000,-0.425050,1.275000,-0.425035,1.275035,-0.425000,1.275050,1.875000,1.275050,1.875035,1.275035,1.875035,1.275035,$1*%
%AMFreePoly1*
4,1,17,0.425035,1.275035,0.425050,1.275000,0.425050,-0.425000,0.425035,-0.425035,0.425000,-0.425050,-0.575000,-0.425050,-0.575035,-0.425035,-0.575050,-0.425000,-0.575050,0.574950,-1.875000,0.574950,-1.875035,0.574965,-1.875050,0.575000,-1.875050,1.275000,-1.875035,1.275035,-1.875000,1.275050,0.425000,1.275050,0.425035,1.275035,0.425035,1.275035,$1*%
%AMFreePoly2*
4,1,17,0.425035,0.425035,0.425050,0.425000,0.425050,-1.275000,0.425035,-1.275035,0.425000,-1.275050,-1.875000,-1.275050,-1.875035,-1.275035,-1.875050,-1.275000,-1.875050,-0.575000,-1.875035,-0.574965,-1.875000,-0.574950,-0.575050,-0.574950,-0.575050,0.425000,-0.575035,0.425035,-0.575000,0.425050,0.425000,0.425050,0.425035,0.425035,0.425035,0.425035,$1*%
%AMFreePoly3*
4,1,17,0.575035,0.425035,0.575050,0.425000,0.575050,-0.574950,1.875000,-0.574950,1.875035,-0.574965,1.875050,-0.575000,1.875050,-1.275000,1.875035,-1.275035,1.875000,-1.275050,-0.425000,-1.275050,-0.425035,-1.275035,-0.425050,-1.275000,-0.425050,0.425000,-0.425035,0.425035,-0.425000,0.425050,0.575000,0.425050,0.575035,0.425035,0.575035,0.425035,$1*%
G04 Aperture macros list end*
%ADD10C,0.010000*%
%ADD11RoundRect,0.840625X0.840625X1.176875X-0.840625X1.176875X-0.840625X-1.176875X0.840625X-1.176875X0*%
%ADD12RoundRect,0.840625X1.176875X0.840625X-1.176875X0.840625X-1.176875X-0.840625X1.176875X-0.840625X0*%
%ADD13C,4.200000*%
%ADD14C,1.800000*%
%ADD15R,2.400000X2.400000*%
%ADD16C,2.400000*%
%ADD17C,1.600000*%
%ADD18O,1.600000X1.600000*%
%ADD19RoundRect,0.237500X0.237500X-0.300000X0.237500X0.300000X-0.237500X0.300000X-0.237500X-0.300000X0*%
%ADD20C,1.515000*%
%ADD21RoundRect,0.237500X-0.237500X0.300000X-0.237500X-0.300000X0.237500X-0.300000X0.237500X0.300000X0*%
%ADD22O,2.400000X2.400000*%
%ADD23RoundRect,0.381000X-0.381000X-0.381000X0.381000X-0.381000X0.381000X0.381000X-0.381000X0.381000X0*%
%ADD24C,2.000000*%
%ADD25RoundRect,0.237500X0.300000X0.237500X-0.300000X0.237500X-0.300000X-0.237500X0.300000X-0.237500X0*%
%ADD26C,2.550000*%
%ADD27RoundRect,0.237500X-0.250000X-0.237500X0.250000X-0.237500X0.250000X0.237500X-0.250000X0.237500X0*%
%ADD28RoundRect,0.237500X-0.237500X0.250000X-0.237500X-0.250000X0.237500X-0.250000X0.237500X0.250000X0*%
%ADD29O,2.000000X4.000000*%
%ADD30O,4.500000X2.250000*%
%ADD31O,4.000000X2.000000*%
%ADD32RoundRect,0.100000X-0.637500X-0.100000X0.637500X-0.100000X0.637500X0.100000X-0.637500X0.100000X0*%
%ADD33R,4.800000X8.800000*%
%ADD34FreePoly0,90.000000*%
%ADD35FreePoly1,90.000000*%
%ADD36FreePoly2,90.000000*%
%ADD37FreePoly3,90.000000*%
%ADD38RoundRect,0.237500X-0.300000X-0.237500X0.300000X-0.237500X0.300000X0.237500X-0.300000X0.237500X0*%
%ADD39R,2.500000X2.162000*%
%ADD40R,1.638000X2.900000*%
%ADD41R,1.638000X7.900000*%
G04 APERTURE END LIST*
G36*
X73707000Y-119751000D02*
G01*
X73754000Y-119755000D01*
X73801000Y-119761000D01*
X73847000Y-119770000D01*
X73893000Y-119781000D01*
X73938000Y-119794000D01*
X73983000Y-119810000D01*
X74026000Y-119828000D01*
X74069000Y-119848000D01*
X74110000Y-119871000D01*
X74150000Y-119895000D01*
X74189000Y-119922000D01*
X74226000Y-119951000D01*
X74262000Y-119981000D01*
X74296000Y-120014000D01*
X74329000Y-120048000D01*
X74359000Y-120084000D01*
X74388000Y-120121000D01*
X74415000Y-120160000D01*
X74439000Y-120200000D01*
X74462000Y-120241000D01*
X74482000Y-120284000D01*
X74500000Y-120327000D01*
X74516000Y-120372000D01*
X74529000Y-120417000D01*
X74540000Y-120463000D01*
X74549000Y-120509000D01*
X74555000Y-120556000D01*
X74559000Y-120603000D01*
X74560000Y-120650000D01*
X74559000Y-120697000D01*
X74555000Y-120744000D01*
X74549000Y-120791000D01*
X74540000Y-120837000D01*
X74529000Y-120883000D01*
X74516000Y-120928000D01*
X74500000Y-120973000D01*
X74482000Y-121016000D01*
X74462000Y-121059000D01*
X74439000Y-121100000D01*
X74415000Y-121140000D01*
X74388000Y-121179000D01*
X74359000Y-121216000D01*
X74329000Y-121252000D01*
X74296000Y-121286000D01*
X74262000Y-121319000D01*
X74226000Y-121349000D01*
X74189000Y-121378000D01*
X74150000Y-121405000D01*
X74110000Y-121429000D01*
X74069000Y-121452000D01*
X74026000Y-121472000D01*
X73983000Y-121490000D01*
X73938000Y-121506000D01*
X73893000Y-121519000D01*
X73847000Y-121530000D01*
X73801000Y-121539000D01*
X73754000Y-121545000D01*
X73707000Y-121549000D01*
X73660000Y-121550000D01*
X71160000Y-121550000D01*
X71160000Y-119750000D01*
X73660000Y-119750000D01*
X73707000Y-119751000D01*
G37*
D10*
X73707000Y-119751000D02*
X73754000Y-119755000D01*
X73801000Y-119761000D01*
X73847000Y-119770000D01*
X73893000Y-119781000D01*
X73938000Y-119794000D01*
X73983000Y-119810000D01*
X74026000Y-119828000D01*
X74069000Y-119848000D01*
X74110000Y-119871000D01*
X74150000Y-119895000D01*
X74189000Y-119922000D01*
X74226000Y-119951000D01*
X74262000Y-119981000D01*
X74296000Y-120014000D01*
X74329000Y-120048000D01*
X74359000Y-120084000D01*
X74388000Y-120121000D01*
X74415000Y-120160000D01*
X74439000Y-120200000D01*
X74462000Y-120241000D01*
X74482000Y-120284000D01*
X74500000Y-120327000D01*
X74516000Y-120372000D01*
X74529000Y-120417000D01*
X74540000Y-120463000D01*
X74549000Y-120509000D01*
X74555000Y-120556000D01*
X74559000Y-120603000D01*
X74560000Y-120650000D01*
X74559000Y-120697000D01*
X74555000Y-120744000D01*
X74549000Y-120791000D01*
X74540000Y-120837000D01*
X74529000Y-120883000D01*
X74516000Y-120928000D01*
X74500000Y-120973000D01*
X74482000Y-121016000D01*
X74462000Y-121059000D01*
X74439000Y-121100000D01*
X74415000Y-121140000D01*
X74388000Y-121179000D01*
X74359000Y-121216000D01*
X74329000Y-121252000D01*
X74296000Y-121286000D01*
X74262000Y-121319000D01*
X74226000Y-121349000D01*
X74189000Y-121378000D01*
X74150000Y-121405000D01*
X74110000Y-121429000D01*
X74069000Y-121452000D01*
X74026000Y-121472000D01*
X73983000Y-121490000D01*
X73938000Y-121506000D01*
X73893000Y-121519000D01*
X73847000Y-121530000D01*
X73801000Y-121539000D01*
X73754000Y-121545000D01*
X73707000Y-121549000D01*
X73660000Y-121550000D01*
X71160000Y-121550000D01*
X71160000Y-119750000D01*
X73660000Y-119750000D01*
X73707000Y-119751000D01*
G36*
X93940000Y-131710000D02*
G01*
X91440000Y-131710000D01*
X91393000Y-131709000D01*
X91346000Y-131705000D01*
X91299000Y-131699000D01*
X91253000Y-131690000D01*
X91207000Y-131679000D01*
X91162000Y-131666000D01*
X91117000Y-131650000D01*
X91074000Y-131632000D01*
X91031000Y-131612000D01*
X90990000Y-131589000D01*
X90950000Y-131565000D01*
X90911000Y-131538000D01*
X90874000Y-131509000D01*
X90838000Y-131479000D01*
X90804000Y-131446000D01*
X90771000Y-131412000D01*
X90741000Y-131376000D01*
X90712000Y-131339000D01*
X90685000Y-131300000D01*
X90661000Y-131260000D01*
X90638000Y-131219000D01*
X90618000Y-131176000D01*
X90600000Y-131133000D01*
X90584000Y-131088000D01*
X90571000Y-131043000D01*
X90560000Y-130997000D01*
X90551000Y-130951000D01*
X90545000Y-130904000D01*
X90541000Y-130857000D01*
X90540000Y-130810000D01*
X90541000Y-130763000D01*
X90545000Y-130716000D01*
X90551000Y-130669000D01*
X90560000Y-130623000D01*
X90571000Y-130577000D01*
X90584000Y-130532000D01*
X90600000Y-130487000D01*
X90618000Y-130444000D01*
X90638000Y-130401000D01*
X90661000Y-130360000D01*
X90685000Y-130320000D01*
X90712000Y-130281000D01*
X90741000Y-130244000D01*
X90771000Y-130208000D01*
X90804000Y-130174000D01*
X90838000Y-130141000D01*
X90874000Y-130111000D01*
X90911000Y-130082000D01*
X90950000Y-130055000D01*
X90990000Y-130031000D01*
X91031000Y-130008000D01*
X91074000Y-129988000D01*
X91117000Y-129970000D01*
X91162000Y-129954000D01*
X91207000Y-129941000D01*
X91253000Y-129930000D01*
X91299000Y-129921000D01*
X91346000Y-129915000D01*
X91393000Y-129911000D01*
X91440000Y-129910000D01*
X93940000Y-129910000D01*
X93940000Y-131710000D01*
G37*
X93940000Y-131710000D02*
X91440000Y-131710000D01*
X91393000Y-131709000D01*
X91346000Y-131705000D01*
X91299000Y-131699000D01*
X91253000Y-131690000D01*
X91207000Y-131679000D01*
X91162000Y-131666000D01*
X91117000Y-131650000D01*
X91074000Y-131632000D01*
X91031000Y-131612000D01*
X90990000Y-131589000D01*
X90950000Y-131565000D01*
X90911000Y-131538000D01*
X90874000Y-131509000D01*
X90838000Y-131479000D01*
X90804000Y-131446000D01*
X90771000Y-131412000D01*
X90741000Y-131376000D01*
X90712000Y-131339000D01*
X90685000Y-131300000D01*
X90661000Y-131260000D01*
X90638000Y-131219000D01*
X90618000Y-131176000D01*
X90600000Y-131133000D01*
X90584000Y-131088000D01*
X90571000Y-131043000D01*
X90560000Y-130997000D01*
X90551000Y-130951000D01*
X90545000Y-130904000D01*
X90541000Y-130857000D01*
X90540000Y-130810000D01*
X90541000Y-130763000D01*
X90545000Y-130716000D01*
X90551000Y-130669000D01*
X90560000Y-130623000D01*
X90571000Y-130577000D01*
X90584000Y-130532000D01*
X90600000Y-130487000D01*
X90618000Y-130444000D01*
X90638000Y-130401000D01*
X90661000Y-130360000D01*
X90685000Y-130320000D01*
X90712000Y-130281000D01*
X90741000Y-130244000D01*
X90771000Y-130208000D01*
X90804000Y-130174000D01*
X90838000Y-130141000D01*
X90874000Y-130111000D01*
X90911000Y-130082000D01*
X90950000Y-130055000D01*
X90990000Y-130031000D01*
X91031000Y-130008000D01*
X91074000Y-129988000D01*
X91117000Y-129970000D01*
X91162000Y-129954000D01*
X91207000Y-129941000D01*
X91253000Y-129930000D01*
X91299000Y-129921000D01*
X91346000Y-129915000D01*
X91393000Y-129911000D01*
X91440000Y-129910000D01*
X93940000Y-129910000D01*
X93940000Y-131710000D01*
G36*
X73707000Y-124831000D02*
G01*
X73754000Y-124835000D01*
X73801000Y-124841000D01*
X73847000Y-124850000D01*
X73893000Y-124861000D01*
X73938000Y-124874000D01*
X73983000Y-124890000D01*
X74026000Y-124908000D01*
X74069000Y-124928000D01*
X74110000Y-124951000D01*
X74150000Y-124975000D01*
X74189000Y-125002000D01*
X74226000Y-125031000D01*
X74262000Y-125061000D01*
X74296000Y-125094000D01*
X74329000Y-125128000D01*
X74359000Y-125164000D01*
X74388000Y-125201000D01*
X74415000Y-125240000D01*
X74439000Y-125280000D01*
X74462000Y-125321000D01*
X74482000Y-125364000D01*
X74500000Y-125407000D01*
X74516000Y-125452000D01*
X74529000Y-125497000D01*
X74540000Y-125543000D01*
X74549000Y-125589000D01*
X74555000Y-125636000D01*
X74559000Y-125683000D01*
X74560000Y-125730000D01*
X74559000Y-125777000D01*
X74555000Y-125824000D01*
X74549000Y-125871000D01*
X74540000Y-125917000D01*
X74529000Y-125963000D01*
X74516000Y-126008000D01*
X74500000Y-126053000D01*
X74482000Y-126096000D01*
X74462000Y-126139000D01*
X74439000Y-126180000D01*
X74415000Y-126220000D01*
X74388000Y-126259000D01*
X74359000Y-126296000D01*
X74329000Y-126332000D01*
X74296000Y-126366000D01*
X74262000Y-126399000D01*
X74226000Y-126429000D01*
X74189000Y-126458000D01*
X74150000Y-126485000D01*
X74110000Y-126509000D01*
X74069000Y-126532000D01*
X74026000Y-126552000D01*
X73983000Y-126570000D01*
X73938000Y-126586000D01*
X73893000Y-126599000D01*
X73847000Y-126610000D01*
X73801000Y-126619000D01*
X73754000Y-126625000D01*
X73707000Y-126629000D01*
X73660000Y-126630000D01*
X71160000Y-126630000D01*
X71160000Y-124830000D01*
X73660000Y-124830000D01*
X73707000Y-124831000D01*
G37*
X73707000Y-124831000D02*
X73754000Y-124835000D01*
X73801000Y-124841000D01*
X73847000Y-124850000D01*
X73893000Y-124861000D01*
X73938000Y-124874000D01*
X73983000Y-124890000D01*
X74026000Y-124908000D01*
X74069000Y-124928000D01*
X74110000Y-124951000D01*
X74150000Y-124975000D01*
X74189000Y-125002000D01*
X74226000Y-125031000D01*
X74262000Y-125061000D01*
X74296000Y-125094000D01*
X74329000Y-125128000D01*
X74359000Y-125164000D01*
X74388000Y-125201000D01*
X74415000Y-125240000D01*
X74439000Y-125280000D01*
X74462000Y-125321000D01*
X74482000Y-125364000D01*
X74500000Y-125407000D01*
X74516000Y-125452000D01*
X74529000Y-125497000D01*
X74540000Y-125543000D01*
X74549000Y-125589000D01*
X74555000Y-125636000D01*
X74559000Y-125683000D01*
X74560000Y-125730000D01*
X74559000Y-125777000D01*
X74555000Y-125824000D01*
X74549000Y-125871000D01*
X74540000Y-125917000D01*
X74529000Y-125963000D01*
X74516000Y-126008000D01*
X74500000Y-126053000D01*
X74482000Y-126096000D01*
X74462000Y-126139000D01*
X74439000Y-126180000D01*
X74415000Y-126220000D01*
X74388000Y-126259000D01*
X74359000Y-126296000D01*
X74329000Y-126332000D01*
X74296000Y-126366000D01*
X74262000Y-126399000D01*
X74226000Y-126429000D01*
X74189000Y-126458000D01*
X74150000Y-126485000D01*
X74110000Y-126509000D01*
X74069000Y-126532000D01*
X74026000Y-126552000D01*
X73983000Y-126570000D01*
X73938000Y-126586000D01*
X73893000Y-126599000D01*
X73847000Y-126610000D01*
X73801000Y-126619000D01*
X73754000Y-126625000D01*
X73707000Y-126629000D01*
X73660000Y-126630000D01*
X71160000Y-126630000D01*
X71160000Y-124830000D01*
X73660000Y-124830000D01*
X73707000Y-124831000D01*
G36*
X73707000Y-101971000D02*
G01*
X73754000Y-101975000D01*
X73801000Y-101981000D01*
X73847000Y-101990000D01*
X73893000Y-102001000D01*
X73938000Y-102014000D01*
X73983000Y-102030000D01*
X74026000Y-102048000D01*
X74069000Y-102068000D01*
X74110000Y-102091000D01*
X74150000Y-102115000D01*
X74189000Y-102142000D01*
X74226000Y-102171000D01*
X74262000Y-102201000D01*
X74296000Y-102234000D01*
X74329000Y-102268000D01*
X74359000Y-102304000D01*
X74388000Y-102341000D01*
X74415000Y-102380000D01*
X74439000Y-102420000D01*
X74462000Y-102461000D01*
X74482000Y-102504000D01*
X74500000Y-102547000D01*
X74516000Y-102592000D01*
X74529000Y-102637000D01*
X74540000Y-102683000D01*
X74549000Y-102729000D01*
X74555000Y-102776000D01*
X74559000Y-102823000D01*
X74560000Y-102870000D01*
X74559000Y-102917000D01*
X74555000Y-102964000D01*
X74549000Y-103011000D01*
X74540000Y-103057000D01*
X74529000Y-103103000D01*
X74516000Y-103148000D01*
X74500000Y-103193000D01*
X74482000Y-103236000D01*
X74462000Y-103279000D01*
X74439000Y-103320000D01*
X74415000Y-103360000D01*
X74388000Y-103399000D01*
X74359000Y-103436000D01*
X74329000Y-103472000D01*
X74296000Y-103506000D01*
X74262000Y-103539000D01*
X74226000Y-103569000D01*
X74189000Y-103598000D01*
X74150000Y-103625000D01*
X74110000Y-103649000D01*
X74069000Y-103672000D01*
X74026000Y-103692000D01*
X73983000Y-103710000D01*
X73938000Y-103726000D01*
X73893000Y-103739000D01*
X73847000Y-103750000D01*
X73801000Y-103759000D01*
X73754000Y-103765000D01*
X73707000Y-103769000D01*
X73660000Y-103770000D01*
X71160000Y-103770000D01*
X71160000Y-101970000D01*
X73660000Y-101970000D01*
X73707000Y-101971000D01*
G37*
X73707000Y-101971000D02*
X73754000Y-101975000D01*
X73801000Y-101981000D01*
X73847000Y-101990000D01*
X73893000Y-102001000D01*
X73938000Y-102014000D01*
X73983000Y-102030000D01*
X74026000Y-102048000D01*
X74069000Y-102068000D01*
X74110000Y-102091000D01*
X74150000Y-102115000D01*
X74189000Y-102142000D01*
X74226000Y-102171000D01*
X74262000Y-102201000D01*
X74296000Y-102234000D01*
X74329000Y-102268000D01*
X74359000Y-102304000D01*
X74388000Y-102341000D01*
X74415000Y-102380000D01*
X74439000Y-102420000D01*
X74462000Y-102461000D01*
X74482000Y-102504000D01*
X74500000Y-102547000D01*
X74516000Y-102592000D01*
X74529000Y-102637000D01*
X74540000Y-102683000D01*
X74549000Y-102729000D01*
X74555000Y-102776000D01*
X74559000Y-102823000D01*
X74560000Y-102870000D01*
X74559000Y-102917000D01*
X74555000Y-102964000D01*
X74549000Y-103011000D01*
X74540000Y-103057000D01*
X74529000Y-103103000D01*
X74516000Y-103148000D01*
X74500000Y-103193000D01*
X74482000Y-103236000D01*
X74462000Y-103279000D01*
X74439000Y-103320000D01*
X74415000Y-103360000D01*
X74388000Y-103399000D01*
X74359000Y-103436000D01*
X74329000Y-103472000D01*
X74296000Y-103506000D01*
X74262000Y-103539000D01*
X74226000Y-103569000D01*
X74189000Y-103598000D01*
X74150000Y-103625000D01*
X74110000Y-103649000D01*
X74069000Y-103672000D01*
X74026000Y-103692000D01*
X73983000Y-103710000D01*
X73938000Y-103726000D01*
X73893000Y-103739000D01*
X73847000Y-103750000D01*
X73801000Y-103759000D01*
X73754000Y-103765000D01*
X73707000Y-103769000D01*
X73660000Y-103770000D01*
X71160000Y-103770000D01*
X71160000Y-101970000D01*
X73660000Y-101970000D01*
X73707000Y-101971000D01*
G36*
X93940000Y-119010000D02*
G01*
X91440000Y-119010000D01*
X91393000Y-119009000D01*
X91346000Y-119005000D01*
X91299000Y-118999000D01*
X91253000Y-118990000D01*
X91207000Y-118979000D01*
X91162000Y-118966000D01*
X91117000Y-118950000D01*
X91074000Y-118932000D01*
X91031000Y-118912000D01*
X90990000Y-118889000D01*
X90950000Y-118865000D01*
X90911000Y-118838000D01*
X90874000Y-118809000D01*
X90838000Y-118779000D01*
X90804000Y-118746000D01*
X90771000Y-118712000D01*
X90741000Y-118676000D01*
X90712000Y-118639000D01*
X90685000Y-118600000D01*
X90661000Y-118560000D01*
X90638000Y-118519000D01*
X90618000Y-118476000D01*
X90600000Y-118433000D01*
X90584000Y-118388000D01*
X90571000Y-118343000D01*
X90560000Y-118297000D01*
X90551000Y-118251000D01*
X90545000Y-118204000D01*
X90541000Y-118157000D01*
X90540000Y-118110000D01*
X90541000Y-118063000D01*
X90545000Y-118016000D01*
X90551000Y-117969000D01*
X90560000Y-117923000D01*
X90571000Y-117877000D01*
X90584000Y-117832000D01*
X90600000Y-117787000D01*
X90618000Y-117744000D01*
X90638000Y-117701000D01*
X90661000Y-117660000D01*
X90685000Y-117620000D01*
X90712000Y-117581000D01*
X90741000Y-117544000D01*
X90771000Y-117508000D01*
X90804000Y-117474000D01*
X90838000Y-117441000D01*
X90874000Y-117411000D01*
X90911000Y-117382000D01*
X90950000Y-117355000D01*
X90990000Y-117331000D01*
X91031000Y-117308000D01*
X91074000Y-117288000D01*
X91117000Y-117270000D01*
X91162000Y-117254000D01*
X91207000Y-117241000D01*
X91253000Y-117230000D01*
X91299000Y-117221000D01*
X91346000Y-117215000D01*
X91393000Y-117211000D01*
X91440000Y-117210000D01*
X93940000Y-117210000D01*
X93940000Y-119010000D01*
G37*
X93940000Y-119010000D02*
X91440000Y-119010000D01*
X91393000Y-119009000D01*
X91346000Y-119005000D01*
X91299000Y-118999000D01*
X91253000Y-118990000D01*
X91207000Y-118979000D01*
X91162000Y-118966000D01*
X91117000Y-118950000D01*
X91074000Y-118932000D01*
X91031000Y-118912000D01*
X90990000Y-118889000D01*
X90950000Y-118865000D01*
X90911000Y-118838000D01*
X90874000Y-118809000D01*
X90838000Y-118779000D01*
X90804000Y-118746000D01*
X90771000Y-118712000D01*
X90741000Y-118676000D01*
X90712000Y-118639000D01*
X90685000Y-118600000D01*
X90661000Y-118560000D01*
X90638000Y-118519000D01*
X90618000Y-118476000D01*
X90600000Y-118433000D01*
X90584000Y-118388000D01*
X90571000Y-118343000D01*
X90560000Y-118297000D01*
X90551000Y-118251000D01*
X90545000Y-118204000D01*
X90541000Y-118157000D01*
X90540000Y-118110000D01*
X90541000Y-118063000D01*
X90545000Y-118016000D01*
X90551000Y-117969000D01*
X90560000Y-117923000D01*
X90571000Y-117877000D01*
X90584000Y-117832000D01*
X90600000Y-117787000D01*
X90618000Y-117744000D01*
X90638000Y-117701000D01*
X90661000Y-117660000D01*
X90685000Y-117620000D01*
X90712000Y-117581000D01*
X90741000Y-117544000D01*
X90771000Y-117508000D01*
X90804000Y-117474000D01*
X90838000Y-117441000D01*
X90874000Y-117411000D01*
X90911000Y-117382000D01*
X90950000Y-117355000D01*
X90990000Y-117331000D01*
X91031000Y-117308000D01*
X91074000Y-117288000D01*
X91117000Y-117270000D01*
X91162000Y-117254000D01*
X91207000Y-117241000D01*
X91253000Y-117230000D01*
X91299000Y-117221000D01*
X91346000Y-117215000D01*
X91393000Y-117211000D01*
X91440000Y-117210000D01*
X93940000Y-117210000D01*
X93940000Y-119010000D01*
G36*
X93940000Y-96150000D02*
G01*
X91440000Y-96150000D01*
X91393000Y-96149000D01*
X91346000Y-96145000D01*
X91299000Y-96139000D01*
X91253000Y-96130000D01*
X91207000Y-96119000D01*
X91162000Y-96106000D01*
X91117000Y-96090000D01*
X91074000Y-96072000D01*
X91031000Y-96052000D01*
X90990000Y-96029000D01*
X90950000Y-96005000D01*
X90911000Y-95978000D01*
X90874000Y-95949000D01*
X90838000Y-95919000D01*
X90804000Y-95886000D01*
X90771000Y-95852000D01*
X90741000Y-95816000D01*
X90712000Y-95779000D01*
X90685000Y-95740000D01*
X90661000Y-95700000D01*
X90638000Y-95659000D01*
X90618000Y-95616000D01*
X90600000Y-95573000D01*
X90584000Y-95528000D01*
X90571000Y-95483000D01*
X90560000Y-95437000D01*
X90551000Y-95391000D01*
X90545000Y-95344000D01*
X90541000Y-95297000D01*
X90540000Y-95250000D01*
X90541000Y-95203000D01*
X90545000Y-95156000D01*
X90551000Y-95109000D01*
X90560000Y-95063000D01*
X90571000Y-95017000D01*
X90584000Y-94972000D01*
X90600000Y-94927000D01*
X90618000Y-94884000D01*
X90638000Y-94841000D01*
X90661000Y-94800000D01*
X90685000Y-94760000D01*
X90712000Y-94721000D01*
X90741000Y-94684000D01*
X90771000Y-94648000D01*
X90804000Y-94614000D01*
X90838000Y-94581000D01*
X90874000Y-94551000D01*
X90911000Y-94522000D01*
X90950000Y-94495000D01*
X90990000Y-94471000D01*
X91031000Y-94448000D01*
X91074000Y-94428000D01*
X91117000Y-94410000D01*
X91162000Y-94394000D01*
X91207000Y-94381000D01*
X91253000Y-94370000D01*
X91299000Y-94361000D01*
X91346000Y-94355000D01*
X91393000Y-94351000D01*
X91440000Y-94350000D01*
X93940000Y-94350000D01*
X93940000Y-96150000D01*
G37*
X93940000Y-96150000D02*
X91440000Y-96150000D01*
X91393000Y-96149000D01*
X91346000Y-96145000D01*
X91299000Y-96139000D01*
X91253000Y-96130000D01*
X91207000Y-96119000D01*
X91162000Y-96106000D01*
X91117000Y-96090000D01*
X91074000Y-96072000D01*
X91031000Y-96052000D01*
X90990000Y-96029000D01*
X90950000Y-96005000D01*
X90911000Y-95978000D01*
X90874000Y-95949000D01*
X90838000Y-95919000D01*
X90804000Y-95886000D01*
X90771000Y-95852000D01*
X90741000Y-95816000D01*
X90712000Y-95779000D01*
X90685000Y-95740000D01*
X90661000Y-95700000D01*
X90638000Y-95659000D01*
X90618000Y-95616000D01*
X90600000Y-95573000D01*
X90584000Y-95528000D01*
X90571000Y-95483000D01*
X90560000Y-95437000D01*
X90551000Y-95391000D01*
X90545000Y-95344000D01*
X90541000Y-95297000D01*
X90540000Y-95250000D01*
X90541000Y-95203000D01*
X90545000Y-95156000D01*
X90551000Y-95109000D01*
X90560000Y-95063000D01*
X90571000Y-95017000D01*
X90584000Y-94972000D01*
X90600000Y-94927000D01*
X90618000Y-94884000D01*
X90638000Y-94841000D01*
X90661000Y-94800000D01*
X90685000Y-94760000D01*
X90712000Y-94721000D01*
X90741000Y-94684000D01*
X90771000Y-94648000D01*
X90804000Y-94614000D01*
X90838000Y-94581000D01*
X90874000Y-94551000D01*
X90911000Y-94522000D01*
X90950000Y-94495000D01*
X90990000Y-94471000D01*
X91031000Y-94448000D01*
X91074000Y-94428000D01*
X91117000Y-94410000D01*
X91162000Y-94394000D01*
X91207000Y-94381000D01*
X91253000Y-94370000D01*
X91299000Y-94361000D01*
X91346000Y-94355000D01*
X91393000Y-94351000D01*
X91440000Y-94350000D01*
X93940000Y-94350000D01*
X93940000Y-96150000D01*
G36*
X74291000Y-134992000D02*
G01*
X74307000Y-134994000D01*
X74322000Y-134997000D01*
X74338000Y-135000000D01*
X74368000Y-135010000D01*
X74382000Y-135016000D01*
X74410000Y-135030000D01*
X74423000Y-135038000D01*
X74436000Y-135047000D01*
X74449000Y-135057000D01*
X74461000Y-135067000D01*
X74483000Y-135089000D01*
X74493000Y-135101000D01*
X74503000Y-135114000D01*
X74512000Y-135127000D01*
X74520000Y-135140000D01*
X74534000Y-135168000D01*
X74540000Y-135182000D01*
X74550000Y-135212000D01*
X74553000Y-135228000D01*
X74556000Y-135243000D01*
X74558000Y-135259000D01*
X74560000Y-135274000D01*
X74560000Y-136506000D01*
X74558000Y-136521000D01*
X74556000Y-136537000D01*
X74553000Y-136552000D01*
X74550000Y-136568000D01*
X74540000Y-136598000D01*
X74534000Y-136612000D01*
X74520000Y-136640000D01*
X74512000Y-136653000D01*
X74503000Y-136666000D01*
X74493000Y-136679000D01*
X74483000Y-136691000D01*
X74461000Y-136713000D01*
X74449000Y-136723000D01*
X74436000Y-136733000D01*
X74423000Y-136742000D01*
X74410000Y-136750000D01*
X74382000Y-136764000D01*
X74368000Y-136770000D01*
X74338000Y-136780000D01*
X74322000Y-136783000D01*
X74307000Y-136786000D01*
X74291000Y-136788000D01*
X74276000Y-136790000D01*
X71160000Y-136790000D01*
X71160000Y-134990000D01*
X74276000Y-134990000D01*
X74291000Y-134992000D01*
G37*
X74291000Y-134992000D02*
X74307000Y-134994000D01*
X74322000Y-134997000D01*
X74338000Y-135000000D01*
X74368000Y-135010000D01*
X74382000Y-135016000D01*
X74410000Y-135030000D01*
X74423000Y-135038000D01*
X74436000Y-135047000D01*
X74449000Y-135057000D01*
X74461000Y-135067000D01*
X74483000Y-135089000D01*
X74493000Y-135101000D01*
X74503000Y-135114000D01*
X74512000Y-135127000D01*
X74520000Y-135140000D01*
X74534000Y-135168000D01*
X74540000Y-135182000D01*
X74550000Y-135212000D01*
X74553000Y-135228000D01*
X74556000Y-135243000D01*
X74558000Y-135259000D01*
X74560000Y-135274000D01*
X74560000Y-136506000D01*
X74558000Y-136521000D01*
X74556000Y-136537000D01*
X74553000Y-136552000D01*
X74550000Y-136568000D01*
X74540000Y-136598000D01*
X74534000Y-136612000D01*
X74520000Y-136640000D01*
X74512000Y-136653000D01*
X74503000Y-136666000D01*
X74493000Y-136679000D01*
X74483000Y-136691000D01*
X74461000Y-136713000D01*
X74449000Y-136723000D01*
X74436000Y-136733000D01*
X74423000Y-136742000D01*
X74410000Y-136750000D01*
X74382000Y-136764000D01*
X74368000Y-136770000D01*
X74338000Y-136780000D01*
X74322000Y-136783000D01*
X74307000Y-136786000D01*
X74291000Y-136788000D01*
X74276000Y-136790000D01*
X71160000Y-136790000D01*
X71160000Y-134990000D01*
X74276000Y-134990000D01*
X74291000Y-134992000D01*
G36*
X74291000Y-122292000D02*
G01*
X74307000Y-122294000D01*
X74322000Y-122297000D01*
X74338000Y-122300000D01*
X74368000Y-122310000D01*
X74382000Y-122316000D01*
X74410000Y-122330000D01*
X74423000Y-122338000D01*
X74436000Y-122347000D01*
X74449000Y-122357000D01*
X74461000Y-122367000D01*
X74483000Y-122389000D01*
X74493000Y-122401000D01*
X74503000Y-122414000D01*
X74512000Y-122427000D01*
X74520000Y-122440000D01*
X74534000Y-122468000D01*
X74540000Y-122482000D01*
X74550000Y-122512000D01*
X74553000Y-122528000D01*
X74556000Y-122543000D01*
X74558000Y-122559000D01*
X74560000Y-122574000D01*
X74560000Y-123806000D01*
X74558000Y-123821000D01*
X74556000Y-123837000D01*
X74553000Y-123852000D01*
X74550000Y-123868000D01*
X74540000Y-123898000D01*
X74534000Y-123912000D01*
X74520000Y-123940000D01*
X74512000Y-123953000D01*
X74503000Y-123966000D01*
X74493000Y-123979000D01*
X74483000Y-123991000D01*
X74461000Y-124013000D01*
X74449000Y-124023000D01*
X74436000Y-124033000D01*
X74423000Y-124042000D01*
X74410000Y-124050000D01*
X74382000Y-124064000D01*
X74368000Y-124070000D01*
X74338000Y-124080000D01*
X74322000Y-124083000D01*
X74307000Y-124086000D01*
X74291000Y-124088000D01*
X74276000Y-124090000D01*
X71160000Y-124090000D01*
X71160000Y-122290000D01*
X74276000Y-122290000D01*
X74291000Y-122292000D01*
G37*
X74291000Y-122292000D02*
X74307000Y-122294000D01*
X74322000Y-122297000D01*
X74338000Y-122300000D01*
X74368000Y-122310000D01*
X74382000Y-122316000D01*
X74410000Y-122330000D01*
X74423000Y-122338000D01*
X74436000Y-122347000D01*
X74449000Y-122357000D01*
X74461000Y-122367000D01*
X74483000Y-122389000D01*
X74493000Y-122401000D01*
X74503000Y-122414000D01*
X74512000Y-122427000D01*
X74520000Y-122440000D01*
X74534000Y-122468000D01*
X74540000Y-122482000D01*
X74550000Y-122512000D01*
X74553000Y-122528000D01*
X74556000Y-122543000D01*
X74558000Y-122559000D01*
X74560000Y-122574000D01*
X74560000Y-123806000D01*
X74558000Y-123821000D01*
X74556000Y-123837000D01*
X74553000Y-123852000D01*
X74550000Y-123868000D01*
X74540000Y-123898000D01*
X74534000Y-123912000D01*
X74520000Y-123940000D01*
X74512000Y-123953000D01*
X74503000Y-123966000D01*
X74493000Y-123979000D01*
X74483000Y-123991000D01*
X74461000Y-124013000D01*
X74449000Y-124023000D01*
X74436000Y-124033000D01*
X74423000Y-124042000D01*
X74410000Y-124050000D01*
X74382000Y-124064000D01*
X74368000Y-124070000D01*
X74338000Y-124080000D01*
X74322000Y-124083000D01*
X74307000Y-124086000D01*
X74291000Y-124088000D01*
X74276000Y-124090000D01*
X71160000Y-124090000D01*
X71160000Y-122290000D01*
X74276000Y-122290000D01*
X74291000Y-122292000D01*
G36*
X73707000Y-140071000D02*
G01*
X73754000Y-140075000D01*
X73801000Y-140081000D01*
X73847000Y-140090000D01*
X73893000Y-140101000D01*
X73938000Y-140114000D01*
X73983000Y-140130000D01*
X74026000Y-140148000D01*
X74069000Y-140168000D01*
X74110000Y-140191000D01*
X74150000Y-140215000D01*
X74189000Y-140242000D01*
X74226000Y-140271000D01*
X74262000Y-140301000D01*
X74296000Y-140334000D01*
X74329000Y-140368000D01*
X74359000Y-140404000D01*
X74388000Y-140441000D01*
X74415000Y-140480000D01*
X74439000Y-140520000D01*
X74462000Y-140561000D01*
X74482000Y-140604000D01*
X74500000Y-140647000D01*
X74516000Y-140692000D01*
X74529000Y-140737000D01*
X74540000Y-140783000D01*
X74549000Y-140829000D01*
X74555000Y-140876000D01*
X74559000Y-140923000D01*
X74560000Y-140970000D01*
X74559000Y-141017000D01*
X74555000Y-141064000D01*
X74549000Y-141111000D01*
X74540000Y-141157000D01*
X74529000Y-141203000D01*
X74516000Y-141248000D01*
X74500000Y-141293000D01*
X74482000Y-141336000D01*
X74462000Y-141379000D01*
X74439000Y-141420000D01*
X74415000Y-141460000D01*
X74388000Y-141499000D01*
X74359000Y-141536000D01*
X74329000Y-141572000D01*
X74296000Y-141606000D01*
X74262000Y-141639000D01*
X74226000Y-141669000D01*
X74189000Y-141698000D01*
X74150000Y-141725000D01*
X74110000Y-141749000D01*
X74069000Y-141772000D01*
X74026000Y-141792000D01*
X73983000Y-141810000D01*
X73938000Y-141826000D01*
X73893000Y-141839000D01*
X73847000Y-141850000D01*
X73801000Y-141859000D01*
X73754000Y-141865000D01*
X73707000Y-141869000D01*
X73660000Y-141870000D01*
X71160000Y-141870000D01*
X71160000Y-140070000D01*
X73660000Y-140070000D01*
X73707000Y-140071000D01*
G37*
X73707000Y-140071000D02*
X73754000Y-140075000D01*
X73801000Y-140081000D01*
X73847000Y-140090000D01*
X73893000Y-140101000D01*
X73938000Y-140114000D01*
X73983000Y-140130000D01*
X74026000Y-140148000D01*
X74069000Y-140168000D01*
X74110000Y-140191000D01*
X74150000Y-140215000D01*
X74189000Y-140242000D01*
X74226000Y-140271000D01*
X74262000Y-140301000D01*
X74296000Y-140334000D01*
X74329000Y-140368000D01*
X74359000Y-140404000D01*
X74388000Y-140441000D01*
X74415000Y-140480000D01*
X74439000Y-140520000D01*
X74462000Y-140561000D01*
X74482000Y-140604000D01*
X74500000Y-140647000D01*
X74516000Y-140692000D01*
X74529000Y-140737000D01*
X74540000Y-140783000D01*
X74549000Y-140829000D01*
X74555000Y-140876000D01*
X74559000Y-140923000D01*
X74560000Y-140970000D01*
X74559000Y-141017000D01*
X74555000Y-141064000D01*
X74549000Y-141111000D01*
X74540000Y-141157000D01*
X74529000Y-141203000D01*
X74516000Y-141248000D01*
X74500000Y-141293000D01*
X74482000Y-141336000D01*
X74462000Y-141379000D01*
X74439000Y-141420000D01*
X74415000Y-141460000D01*
X74388000Y-141499000D01*
X74359000Y-141536000D01*
X74329000Y-141572000D01*
X74296000Y-141606000D01*
X74262000Y-141639000D01*
X74226000Y-141669000D01*
X74189000Y-141698000D01*
X74150000Y-141725000D01*
X74110000Y-141749000D01*
X74069000Y-141772000D01*
X74026000Y-141792000D01*
X73983000Y-141810000D01*
X73938000Y-141826000D01*
X73893000Y-141839000D01*
X73847000Y-141850000D01*
X73801000Y-141859000D01*
X73754000Y-141865000D01*
X73707000Y-141869000D01*
X73660000Y-141870000D01*
X71160000Y-141870000D01*
X71160000Y-140070000D01*
X73660000Y-140070000D01*
X73707000Y-140071000D01*
G36*
X73707000Y-117211000D02*
G01*
X73754000Y-117215000D01*
X73801000Y-117221000D01*
X73847000Y-117230000D01*
X73893000Y-117241000D01*
X73938000Y-117254000D01*
X73983000Y-117270000D01*
X74026000Y-117288000D01*
X74069000Y-117308000D01*
X74110000Y-117331000D01*
X74150000Y-117355000D01*
X74189000Y-117382000D01*
X74226000Y-117411000D01*
X74262000Y-117441000D01*
X74296000Y-117474000D01*
X74329000Y-117508000D01*
X74359000Y-117544000D01*
X74388000Y-117581000D01*
X74415000Y-117620000D01*
X74439000Y-117660000D01*
X74462000Y-117701000D01*
X74482000Y-117744000D01*
X74500000Y-117787000D01*
X74516000Y-117832000D01*
X74529000Y-117877000D01*
X74540000Y-117923000D01*
X74549000Y-117969000D01*
X74555000Y-118016000D01*
X74559000Y-118063000D01*
X74560000Y-118110000D01*
X74559000Y-118157000D01*
X74555000Y-118204000D01*
X74549000Y-118251000D01*
X74540000Y-118297000D01*
X74529000Y-118343000D01*
X74516000Y-118388000D01*
X74500000Y-118433000D01*
X74482000Y-118476000D01*
X74462000Y-118519000D01*
X74439000Y-118560000D01*
X74415000Y-118600000D01*
X74388000Y-118639000D01*
X74359000Y-118676000D01*
X74329000Y-118712000D01*
X74296000Y-118746000D01*
X74262000Y-118779000D01*
X74226000Y-118809000D01*
X74189000Y-118838000D01*
X74150000Y-118865000D01*
X74110000Y-118889000D01*
X74069000Y-118912000D01*
X74026000Y-118932000D01*
X73983000Y-118950000D01*
X73938000Y-118966000D01*
X73893000Y-118979000D01*
X73847000Y-118990000D01*
X73801000Y-118999000D01*
X73754000Y-119005000D01*
X73707000Y-119009000D01*
X73660000Y-119010000D01*
X71160000Y-119010000D01*
X71160000Y-117210000D01*
X73660000Y-117210000D01*
X73707000Y-117211000D01*
G37*
X73707000Y-117211000D02*
X73754000Y-117215000D01*
X73801000Y-117221000D01*
X73847000Y-117230000D01*
X73893000Y-117241000D01*
X73938000Y-117254000D01*
X73983000Y-117270000D01*
X74026000Y-117288000D01*
X74069000Y-117308000D01*
X74110000Y-117331000D01*
X74150000Y-117355000D01*
X74189000Y-117382000D01*
X74226000Y-117411000D01*
X74262000Y-117441000D01*
X74296000Y-117474000D01*
X74329000Y-117508000D01*
X74359000Y-117544000D01*
X74388000Y-117581000D01*
X74415000Y-117620000D01*
X74439000Y-117660000D01*
X74462000Y-117701000D01*
X74482000Y-117744000D01*
X74500000Y-117787000D01*
X74516000Y-117832000D01*
X74529000Y-117877000D01*
X74540000Y-117923000D01*
X74549000Y-117969000D01*
X74555000Y-118016000D01*
X74559000Y-118063000D01*
X74560000Y-118110000D01*
X74559000Y-118157000D01*
X74555000Y-118204000D01*
X74549000Y-118251000D01*
X74540000Y-118297000D01*
X74529000Y-118343000D01*
X74516000Y-118388000D01*
X74500000Y-118433000D01*
X74482000Y-118476000D01*
X74462000Y-118519000D01*
X74439000Y-118560000D01*
X74415000Y-118600000D01*
X74388000Y-118639000D01*
X74359000Y-118676000D01*
X74329000Y-118712000D01*
X74296000Y-118746000D01*
X74262000Y-118779000D01*
X74226000Y-118809000D01*
X74189000Y-118838000D01*
X74150000Y-118865000D01*
X74110000Y-118889000D01*
X74069000Y-118912000D01*
X74026000Y-118932000D01*
X73983000Y-118950000D01*
X73938000Y-118966000D01*
X73893000Y-118979000D01*
X73847000Y-118990000D01*
X73801000Y-118999000D01*
X73754000Y-119005000D01*
X73707000Y-119009000D01*
X73660000Y-119010000D01*
X71160000Y-119010000D01*
X71160000Y-117210000D01*
X73660000Y-117210000D01*
X73707000Y-117211000D01*
G36*
X93940000Y-101230000D02*
G01*
X91440000Y-101230000D01*
X91393000Y-101229000D01*
X91346000Y-101225000D01*
X91299000Y-101219000D01*
X91253000Y-101210000D01*
X91207000Y-101199000D01*
X91162000Y-101186000D01*
X91117000Y-101170000D01*
X91074000Y-101152000D01*
X91031000Y-101132000D01*
X90990000Y-101109000D01*
X90950000Y-101085000D01*
X90911000Y-101058000D01*
X90874000Y-101029000D01*
X90838000Y-100999000D01*
X90804000Y-100966000D01*
X90771000Y-100932000D01*
X90741000Y-100896000D01*
X90712000Y-100859000D01*
X90685000Y-100820000D01*
X90661000Y-100780000D01*
X90638000Y-100739000D01*
X90618000Y-100696000D01*
X90600000Y-100653000D01*
X90584000Y-100608000D01*
X90571000Y-100563000D01*
X90560000Y-100517000D01*
X90551000Y-100471000D01*
X90545000Y-100424000D01*
X90541000Y-100377000D01*
X90540000Y-100330000D01*
X90541000Y-100283000D01*
X90545000Y-100236000D01*
X90551000Y-100189000D01*
X90560000Y-100143000D01*
X90571000Y-100097000D01*
X90584000Y-100052000D01*
X90600000Y-100007000D01*
X90618000Y-99964000D01*
X90638000Y-99921000D01*
X90661000Y-99880000D01*
X90685000Y-99840000D01*
X90712000Y-99801000D01*
X90741000Y-99764000D01*
X90771000Y-99728000D01*
X90804000Y-99694000D01*
X90838000Y-99661000D01*
X90874000Y-99631000D01*
X90911000Y-99602000D01*
X90950000Y-99575000D01*
X90990000Y-99551000D01*
X91031000Y-99528000D01*
X91074000Y-99508000D01*
X91117000Y-99490000D01*
X91162000Y-99474000D01*
X91207000Y-99461000D01*
X91253000Y-99450000D01*
X91299000Y-99441000D01*
X91346000Y-99435000D01*
X91393000Y-99431000D01*
X91440000Y-99430000D01*
X93940000Y-99430000D01*
X93940000Y-101230000D01*
G37*
X93940000Y-101230000D02*
X91440000Y-101230000D01*
X91393000Y-101229000D01*
X91346000Y-101225000D01*
X91299000Y-101219000D01*
X91253000Y-101210000D01*
X91207000Y-101199000D01*
X91162000Y-101186000D01*
X91117000Y-101170000D01*
X91074000Y-101152000D01*
X91031000Y-101132000D01*
X90990000Y-101109000D01*
X90950000Y-101085000D01*
X90911000Y-101058000D01*
X90874000Y-101029000D01*
X90838000Y-100999000D01*
X90804000Y-100966000D01*
X90771000Y-100932000D01*
X90741000Y-100896000D01*
X90712000Y-100859000D01*
X90685000Y-100820000D01*
X90661000Y-100780000D01*
X90638000Y-100739000D01*
X90618000Y-100696000D01*
X90600000Y-100653000D01*
X90584000Y-100608000D01*
X90571000Y-100563000D01*
X90560000Y-100517000D01*
X90551000Y-100471000D01*
X90545000Y-100424000D01*
X90541000Y-100377000D01*
X90540000Y-100330000D01*
X90541000Y-100283000D01*
X90545000Y-100236000D01*
X90551000Y-100189000D01*
X90560000Y-100143000D01*
X90571000Y-100097000D01*
X90584000Y-100052000D01*
X90600000Y-100007000D01*
X90618000Y-99964000D01*
X90638000Y-99921000D01*
X90661000Y-99880000D01*
X90685000Y-99840000D01*
X90712000Y-99801000D01*
X90741000Y-99764000D01*
X90771000Y-99728000D01*
X90804000Y-99694000D01*
X90838000Y-99661000D01*
X90874000Y-99631000D01*
X90911000Y-99602000D01*
X90950000Y-99575000D01*
X90990000Y-99551000D01*
X91031000Y-99528000D01*
X91074000Y-99508000D01*
X91117000Y-99490000D01*
X91162000Y-99474000D01*
X91207000Y-99461000D01*
X91253000Y-99450000D01*
X91299000Y-99441000D01*
X91346000Y-99435000D01*
X91393000Y-99431000D01*
X91440000Y-99430000D01*
X93940000Y-99430000D01*
X93940000Y-101230000D01*
G36*
X93940000Y-111390000D02*
G01*
X90824000Y-111390000D01*
X90809000Y-111388000D01*
X90793000Y-111386000D01*
X90778000Y-111383000D01*
X90762000Y-111380000D01*
X90732000Y-111370000D01*
X90718000Y-111364000D01*
X90690000Y-111350000D01*
X90677000Y-111342000D01*
X90664000Y-111333000D01*
X90651000Y-111323000D01*
X90639000Y-111313000D01*
X90617000Y-111291000D01*
X90607000Y-111279000D01*
X90597000Y-111266000D01*
X90588000Y-111253000D01*
X90580000Y-111240000D01*
X90566000Y-111212000D01*
X90560000Y-111198000D01*
X90550000Y-111168000D01*
X90547000Y-111152000D01*
X90544000Y-111137000D01*
X90542000Y-111121000D01*
X90540000Y-111106000D01*
X90540000Y-109874000D01*
X90542000Y-109859000D01*
X90544000Y-109843000D01*
X90547000Y-109828000D01*
X90550000Y-109812000D01*
X90560000Y-109782000D01*
X90566000Y-109768000D01*
X90580000Y-109740000D01*
X90588000Y-109727000D01*
X90597000Y-109714000D01*
X90607000Y-109701000D01*
X90617000Y-109689000D01*
X90639000Y-109667000D01*
X90651000Y-109657000D01*
X90664000Y-109647000D01*
X90677000Y-109638000D01*
X90690000Y-109630000D01*
X90718000Y-109616000D01*
X90732000Y-109610000D01*
X90762000Y-109600000D01*
X90778000Y-109597000D01*
X90793000Y-109594000D01*
X90809000Y-109592000D01*
X90824000Y-109590000D01*
X93940000Y-109590000D01*
X93940000Y-111390000D01*
G37*
X93940000Y-111390000D02*
X90824000Y-111390000D01*
X90809000Y-111388000D01*
X90793000Y-111386000D01*
X90778000Y-111383000D01*
X90762000Y-111380000D01*
X90732000Y-111370000D01*
X90718000Y-111364000D01*
X90690000Y-111350000D01*
X90677000Y-111342000D01*
X90664000Y-111333000D01*
X90651000Y-111323000D01*
X90639000Y-111313000D01*
X90617000Y-111291000D01*
X90607000Y-111279000D01*
X90597000Y-111266000D01*
X90588000Y-111253000D01*
X90580000Y-111240000D01*
X90566000Y-111212000D01*
X90560000Y-111198000D01*
X90550000Y-111168000D01*
X90547000Y-111152000D01*
X90544000Y-111137000D01*
X90542000Y-111121000D01*
X90540000Y-111106000D01*
X90540000Y-109874000D01*
X90542000Y-109859000D01*
X90544000Y-109843000D01*
X90547000Y-109828000D01*
X90550000Y-109812000D01*
X90560000Y-109782000D01*
X90566000Y-109768000D01*
X90580000Y-109740000D01*
X90588000Y-109727000D01*
X90597000Y-109714000D01*
X90607000Y-109701000D01*
X90617000Y-109689000D01*
X90639000Y-109667000D01*
X90651000Y-109657000D01*
X90664000Y-109647000D01*
X90677000Y-109638000D01*
X90690000Y-109630000D01*
X90718000Y-109616000D01*
X90732000Y-109610000D01*
X90762000Y-109600000D01*
X90778000Y-109597000D01*
X90793000Y-109594000D01*
X90809000Y-109592000D01*
X90824000Y-109590000D01*
X93940000Y-109590000D01*
X93940000Y-111390000D01*
G36*
X93940000Y-103770000D02*
G01*
X91440000Y-103770000D01*
X91393000Y-103769000D01*
X91346000Y-103765000D01*
X91299000Y-103759000D01*
X91253000Y-103750000D01*
X91207000Y-103739000D01*
X91162000Y-103726000D01*
X91117000Y-103710000D01*
X91074000Y-103692000D01*
X91031000Y-103672000D01*
X90990000Y-103649000D01*
X90950000Y-103625000D01*
X90911000Y-103598000D01*
X90874000Y-103569000D01*
X90838000Y-103539000D01*
X90804000Y-103506000D01*
X90771000Y-103472000D01*
X90741000Y-103436000D01*
X90712000Y-103399000D01*
X90685000Y-103360000D01*
X90661000Y-103320000D01*
X90638000Y-103279000D01*
X90618000Y-103236000D01*
X90600000Y-103193000D01*
X90584000Y-103148000D01*
X90571000Y-103103000D01*
X90560000Y-103057000D01*
X90551000Y-103011000D01*
X90545000Y-102964000D01*
X90541000Y-102917000D01*
X90540000Y-102870000D01*
X90541000Y-102823000D01*
X90545000Y-102776000D01*
X90551000Y-102729000D01*
X90560000Y-102683000D01*
X90571000Y-102637000D01*
X90584000Y-102592000D01*
X90600000Y-102547000D01*
X90618000Y-102504000D01*
X90638000Y-102461000D01*
X90661000Y-102420000D01*
X90685000Y-102380000D01*
X90712000Y-102341000D01*
X90741000Y-102304000D01*
X90771000Y-102268000D01*
X90804000Y-102234000D01*
X90838000Y-102201000D01*
X90874000Y-102171000D01*
X90911000Y-102142000D01*
X90950000Y-102115000D01*
X90990000Y-102091000D01*
X91031000Y-102068000D01*
X91074000Y-102048000D01*
X91117000Y-102030000D01*
X91162000Y-102014000D01*
X91207000Y-102001000D01*
X91253000Y-101990000D01*
X91299000Y-101981000D01*
X91346000Y-101975000D01*
X91393000Y-101971000D01*
X91440000Y-101970000D01*
X93940000Y-101970000D01*
X93940000Y-103770000D01*
G37*
X93940000Y-103770000D02*
X91440000Y-103770000D01*
X91393000Y-103769000D01*
X91346000Y-103765000D01*
X91299000Y-103759000D01*
X91253000Y-103750000D01*
X91207000Y-103739000D01*
X91162000Y-103726000D01*
X91117000Y-103710000D01*
X91074000Y-103692000D01*
X91031000Y-103672000D01*
X90990000Y-103649000D01*
X90950000Y-103625000D01*
X90911000Y-103598000D01*
X90874000Y-103569000D01*
X90838000Y-103539000D01*
X90804000Y-103506000D01*
X90771000Y-103472000D01*
X90741000Y-103436000D01*
X90712000Y-103399000D01*
X90685000Y-103360000D01*
X90661000Y-103320000D01*
X90638000Y-103279000D01*
X90618000Y-103236000D01*
X90600000Y-103193000D01*
X90584000Y-103148000D01*
X90571000Y-103103000D01*
X90560000Y-103057000D01*
X90551000Y-103011000D01*
X90545000Y-102964000D01*
X90541000Y-102917000D01*
X90540000Y-102870000D01*
X90541000Y-102823000D01*
X90545000Y-102776000D01*
X90551000Y-102729000D01*
X90560000Y-102683000D01*
X90571000Y-102637000D01*
X90584000Y-102592000D01*
X90600000Y-102547000D01*
X90618000Y-102504000D01*
X90638000Y-102461000D01*
X90661000Y-102420000D01*
X90685000Y-102380000D01*
X90712000Y-102341000D01*
X90741000Y-102304000D01*
X90771000Y-102268000D01*
X90804000Y-102234000D01*
X90838000Y-102201000D01*
X90874000Y-102171000D01*
X90911000Y-102142000D01*
X90950000Y-102115000D01*
X90990000Y-102091000D01*
X91031000Y-102068000D01*
X91074000Y-102048000D01*
X91117000Y-102030000D01*
X91162000Y-102014000D01*
X91207000Y-102001000D01*
X91253000Y-101990000D01*
X91299000Y-101981000D01*
X91346000Y-101975000D01*
X91393000Y-101971000D01*
X91440000Y-101970000D01*
X93940000Y-101970000D01*
X93940000Y-103770000D01*
G36*
X73707000Y-112131000D02*
G01*
X73754000Y-112135000D01*
X73801000Y-112141000D01*
X73847000Y-112150000D01*
X73893000Y-112161000D01*
X73938000Y-112174000D01*
X73983000Y-112190000D01*
X74026000Y-112208000D01*
X74069000Y-112228000D01*
X74110000Y-112251000D01*
X74150000Y-112275000D01*
X74189000Y-112302000D01*
X74226000Y-112331000D01*
X74262000Y-112361000D01*
X74296000Y-112394000D01*
X74329000Y-112428000D01*
X74359000Y-112464000D01*
X74388000Y-112501000D01*
X74415000Y-112540000D01*
X74439000Y-112580000D01*
X74462000Y-112621000D01*
X74482000Y-112664000D01*
X74500000Y-112707000D01*
X74516000Y-112752000D01*
X74529000Y-112797000D01*
X74540000Y-112843000D01*
X74549000Y-112889000D01*
X74555000Y-112936000D01*
X74559000Y-112983000D01*
X74560000Y-113030000D01*
X74559000Y-113077000D01*
X74555000Y-113124000D01*
X74549000Y-113171000D01*
X74540000Y-113217000D01*
X74529000Y-113263000D01*
X74516000Y-113308000D01*
X74500000Y-113353000D01*
X74482000Y-113396000D01*
X74462000Y-113439000D01*
X74439000Y-113480000D01*
X74415000Y-113520000D01*
X74388000Y-113559000D01*
X74359000Y-113596000D01*
X74329000Y-113632000D01*
X74296000Y-113666000D01*
X74262000Y-113699000D01*
X74226000Y-113729000D01*
X74189000Y-113758000D01*
X74150000Y-113785000D01*
X74110000Y-113809000D01*
X74069000Y-113832000D01*
X74026000Y-113852000D01*
X73983000Y-113870000D01*
X73938000Y-113886000D01*
X73893000Y-113899000D01*
X73847000Y-113910000D01*
X73801000Y-113919000D01*
X73754000Y-113925000D01*
X73707000Y-113929000D01*
X73660000Y-113930000D01*
X71160000Y-113930000D01*
X71160000Y-112130000D01*
X73660000Y-112130000D01*
X73707000Y-112131000D01*
G37*
X73707000Y-112131000D02*
X73754000Y-112135000D01*
X73801000Y-112141000D01*
X73847000Y-112150000D01*
X73893000Y-112161000D01*
X73938000Y-112174000D01*
X73983000Y-112190000D01*
X74026000Y-112208000D01*
X74069000Y-112228000D01*
X74110000Y-112251000D01*
X74150000Y-112275000D01*
X74189000Y-112302000D01*
X74226000Y-112331000D01*
X74262000Y-112361000D01*
X74296000Y-112394000D01*
X74329000Y-112428000D01*
X74359000Y-112464000D01*
X74388000Y-112501000D01*
X74415000Y-112540000D01*
X74439000Y-112580000D01*
X74462000Y-112621000D01*
X74482000Y-112664000D01*
X74500000Y-112707000D01*
X74516000Y-112752000D01*
X74529000Y-112797000D01*
X74540000Y-112843000D01*
X74549000Y-112889000D01*
X74555000Y-112936000D01*
X74559000Y-112983000D01*
X74560000Y-113030000D01*
X74559000Y-113077000D01*
X74555000Y-113124000D01*
X74549000Y-113171000D01*
X74540000Y-113217000D01*
X74529000Y-113263000D01*
X74516000Y-113308000D01*
X74500000Y-113353000D01*
X74482000Y-113396000D01*
X74462000Y-113439000D01*
X74439000Y-113480000D01*
X74415000Y-113520000D01*
X74388000Y-113559000D01*
X74359000Y-113596000D01*
X74329000Y-113632000D01*
X74296000Y-113666000D01*
X74262000Y-113699000D01*
X74226000Y-113729000D01*
X74189000Y-113758000D01*
X74150000Y-113785000D01*
X74110000Y-113809000D01*
X74069000Y-113832000D01*
X74026000Y-113852000D01*
X73983000Y-113870000D01*
X73938000Y-113886000D01*
X73893000Y-113899000D01*
X73847000Y-113910000D01*
X73801000Y-113919000D01*
X73754000Y-113925000D01*
X73707000Y-113929000D01*
X73660000Y-113930000D01*
X71160000Y-113930000D01*
X71160000Y-112130000D01*
X73660000Y-112130000D01*
X73707000Y-112131000D01*
G36*
X73707000Y-137531000D02*
G01*
X73754000Y-137535000D01*
X73801000Y-137541000D01*
X73847000Y-137550000D01*
X73893000Y-137561000D01*
X73938000Y-137574000D01*
X73983000Y-137590000D01*
X74026000Y-137608000D01*
X74069000Y-137628000D01*
X74110000Y-137651000D01*
X74150000Y-137675000D01*
X74189000Y-137702000D01*
X74226000Y-137731000D01*
X74262000Y-137761000D01*
X74296000Y-137794000D01*
X74329000Y-137828000D01*
X74359000Y-137864000D01*
X74388000Y-137901000D01*
X74415000Y-137940000D01*
X74439000Y-137980000D01*
X74462000Y-138021000D01*
X74482000Y-138064000D01*
X74500000Y-138107000D01*
X74516000Y-138152000D01*
X74529000Y-138197000D01*
X74540000Y-138243000D01*
X74549000Y-138289000D01*
X74555000Y-138336000D01*
X74559000Y-138383000D01*
X74560000Y-138430000D01*
X74559000Y-138477000D01*
X74555000Y-138524000D01*
X74549000Y-138571000D01*
X74540000Y-138617000D01*
X74529000Y-138663000D01*
X74516000Y-138708000D01*
X74500000Y-138753000D01*
X74482000Y-138796000D01*
X74462000Y-138839000D01*
X74439000Y-138880000D01*
X74415000Y-138920000D01*
X74388000Y-138959000D01*
X74359000Y-138996000D01*
X74329000Y-139032000D01*
X74296000Y-139066000D01*
X74262000Y-139099000D01*
X74226000Y-139129000D01*
X74189000Y-139158000D01*
X74150000Y-139185000D01*
X74110000Y-139209000D01*
X74069000Y-139232000D01*
X74026000Y-139252000D01*
X73983000Y-139270000D01*
X73938000Y-139286000D01*
X73893000Y-139299000D01*
X73847000Y-139310000D01*
X73801000Y-139319000D01*
X73754000Y-139325000D01*
X73707000Y-139329000D01*
X73660000Y-139330000D01*
X71160000Y-139330000D01*
X71160000Y-137530000D01*
X73660000Y-137530000D01*
X73707000Y-137531000D01*
G37*
X73707000Y-137531000D02*
X73754000Y-137535000D01*
X73801000Y-137541000D01*
X73847000Y-137550000D01*
X73893000Y-137561000D01*
X73938000Y-137574000D01*
X73983000Y-137590000D01*
X74026000Y-137608000D01*
X74069000Y-137628000D01*
X74110000Y-137651000D01*
X74150000Y-137675000D01*
X74189000Y-137702000D01*
X74226000Y-137731000D01*
X74262000Y-137761000D01*
X74296000Y-137794000D01*
X74329000Y-137828000D01*
X74359000Y-137864000D01*
X74388000Y-137901000D01*
X74415000Y-137940000D01*
X74439000Y-137980000D01*
X74462000Y-138021000D01*
X74482000Y-138064000D01*
X74500000Y-138107000D01*
X74516000Y-138152000D01*
X74529000Y-138197000D01*
X74540000Y-138243000D01*
X74549000Y-138289000D01*
X74555000Y-138336000D01*
X74559000Y-138383000D01*
X74560000Y-138430000D01*
X74559000Y-138477000D01*
X74555000Y-138524000D01*
X74549000Y-138571000D01*
X74540000Y-138617000D01*
X74529000Y-138663000D01*
X74516000Y-138708000D01*
X74500000Y-138753000D01*
X74482000Y-138796000D01*
X74462000Y-138839000D01*
X74439000Y-138880000D01*
X74415000Y-138920000D01*
X74388000Y-138959000D01*
X74359000Y-138996000D01*
X74329000Y-139032000D01*
X74296000Y-139066000D01*
X74262000Y-139099000D01*
X74226000Y-139129000D01*
X74189000Y-139158000D01*
X74150000Y-139185000D01*
X74110000Y-139209000D01*
X74069000Y-139232000D01*
X74026000Y-139252000D01*
X73983000Y-139270000D01*
X73938000Y-139286000D01*
X73893000Y-139299000D01*
X73847000Y-139310000D01*
X73801000Y-139319000D01*
X73754000Y-139325000D01*
X73707000Y-139329000D01*
X73660000Y-139330000D01*
X71160000Y-139330000D01*
X71160000Y-137530000D01*
X73660000Y-137530000D01*
X73707000Y-137531000D01*
G36*
X93940000Y-98690000D02*
G01*
X90824000Y-98690000D01*
X90809000Y-98688000D01*
X90793000Y-98686000D01*
X90778000Y-98683000D01*
X90762000Y-98680000D01*
X90732000Y-98670000D01*
X90718000Y-98664000D01*
X90690000Y-98650000D01*
X90677000Y-98642000D01*
X90664000Y-98633000D01*
X90651000Y-98623000D01*
X90639000Y-98613000D01*
X90617000Y-98591000D01*
X90607000Y-98579000D01*
X90597000Y-98566000D01*
X90588000Y-98553000D01*
X90580000Y-98540000D01*
X90566000Y-98512000D01*
X90560000Y-98498000D01*
X90550000Y-98468000D01*
X90547000Y-98452000D01*
X90544000Y-98437000D01*
X90542000Y-98421000D01*
X90540000Y-98406000D01*
X90540000Y-97174000D01*
X90542000Y-97159000D01*
X90544000Y-97143000D01*
X90547000Y-97128000D01*
X90550000Y-97112000D01*
X90560000Y-97082000D01*
X90566000Y-97068000D01*
X90580000Y-97040000D01*
X90588000Y-97027000D01*
X90597000Y-97014000D01*
X90607000Y-97001000D01*
X90617000Y-96989000D01*
X90639000Y-96967000D01*
X90651000Y-96957000D01*
X90664000Y-96947000D01*
X90677000Y-96938000D01*
X90690000Y-96930000D01*
X90718000Y-96916000D01*
X90732000Y-96910000D01*
X90762000Y-96900000D01*
X90778000Y-96897000D01*
X90793000Y-96894000D01*
X90809000Y-96892000D01*
X90824000Y-96890000D01*
X93940000Y-96890000D01*
X93940000Y-98690000D01*
G37*
X93940000Y-98690000D02*
X90824000Y-98690000D01*
X90809000Y-98688000D01*
X90793000Y-98686000D01*
X90778000Y-98683000D01*
X90762000Y-98680000D01*
X90732000Y-98670000D01*
X90718000Y-98664000D01*
X90690000Y-98650000D01*
X90677000Y-98642000D01*
X90664000Y-98633000D01*
X90651000Y-98623000D01*
X90639000Y-98613000D01*
X90617000Y-98591000D01*
X90607000Y-98579000D01*
X90597000Y-98566000D01*
X90588000Y-98553000D01*
X90580000Y-98540000D01*
X90566000Y-98512000D01*
X90560000Y-98498000D01*
X90550000Y-98468000D01*
X90547000Y-98452000D01*
X90544000Y-98437000D01*
X90542000Y-98421000D01*
X90540000Y-98406000D01*
X90540000Y-97174000D01*
X90542000Y-97159000D01*
X90544000Y-97143000D01*
X90547000Y-97128000D01*
X90550000Y-97112000D01*
X90560000Y-97082000D01*
X90566000Y-97068000D01*
X90580000Y-97040000D01*
X90588000Y-97027000D01*
X90597000Y-97014000D01*
X90607000Y-97001000D01*
X90617000Y-96989000D01*
X90639000Y-96967000D01*
X90651000Y-96957000D01*
X90664000Y-96947000D01*
X90677000Y-96938000D01*
X90690000Y-96930000D01*
X90718000Y-96916000D01*
X90732000Y-96910000D01*
X90762000Y-96900000D01*
X90778000Y-96897000D01*
X90793000Y-96894000D01*
X90809000Y-96892000D01*
X90824000Y-96890000D01*
X93940000Y-96890000D01*
X93940000Y-98690000D01*
G36*
X93940000Y-139330000D02*
G01*
X91440000Y-139330000D01*
X91393000Y-139329000D01*
X91346000Y-139325000D01*
X91299000Y-139319000D01*
X91253000Y-139310000D01*
X91207000Y-139299000D01*
X91162000Y-139286000D01*
X91117000Y-139270000D01*
X91074000Y-139252000D01*
X91031000Y-139232000D01*
X90990000Y-139209000D01*
X90950000Y-139185000D01*
X90911000Y-139158000D01*
X90874000Y-139129000D01*
X90838000Y-139099000D01*
X90804000Y-139066000D01*
X90771000Y-139032000D01*
X90741000Y-138996000D01*
X90712000Y-138959000D01*
X90685000Y-138920000D01*
X90661000Y-138880000D01*
X90638000Y-138839000D01*
X90618000Y-138796000D01*
X90600000Y-138753000D01*
X90584000Y-138708000D01*
X90571000Y-138663000D01*
X90560000Y-138617000D01*
X90551000Y-138571000D01*
X90545000Y-138524000D01*
X90541000Y-138477000D01*
X90540000Y-138430000D01*
X90541000Y-138383000D01*
X90545000Y-138336000D01*
X90551000Y-138289000D01*
X90560000Y-138243000D01*
X90571000Y-138197000D01*
X90584000Y-138152000D01*
X90600000Y-138107000D01*
X90618000Y-138064000D01*
X90638000Y-138021000D01*
X90661000Y-137980000D01*
X90685000Y-137940000D01*
X90712000Y-137901000D01*
X90741000Y-137864000D01*
X90771000Y-137828000D01*
X90804000Y-137794000D01*
X90838000Y-137761000D01*
X90874000Y-137731000D01*
X90911000Y-137702000D01*
X90950000Y-137675000D01*
X90990000Y-137651000D01*
X91031000Y-137628000D01*
X91074000Y-137608000D01*
X91117000Y-137590000D01*
X91162000Y-137574000D01*
X91207000Y-137561000D01*
X91253000Y-137550000D01*
X91299000Y-137541000D01*
X91346000Y-137535000D01*
X91393000Y-137531000D01*
X91440000Y-137530000D01*
X93940000Y-137530000D01*
X93940000Y-139330000D01*
G37*
X93940000Y-139330000D02*
X91440000Y-139330000D01*
X91393000Y-139329000D01*
X91346000Y-139325000D01*
X91299000Y-139319000D01*
X91253000Y-139310000D01*
X91207000Y-139299000D01*
X91162000Y-139286000D01*
X91117000Y-139270000D01*
X91074000Y-139252000D01*
X91031000Y-139232000D01*
X90990000Y-139209000D01*
X90950000Y-139185000D01*
X90911000Y-139158000D01*
X90874000Y-139129000D01*
X90838000Y-139099000D01*
X90804000Y-139066000D01*
X90771000Y-139032000D01*
X90741000Y-138996000D01*
X90712000Y-138959000D01*
X90685000Y-138920000D01*
X90661000Y-138880000D01*
X90638000Y-138839000D01*
X90618000Y-138796000D01*
X90600000Y-138753000D01*
X90584000Y-138708000D01*
X90571000Y-138663000D01*
X90560000Y-138617000D01*
X90551000Y-138571000D01*
X90545000Y-138524000D01*
X90541000Y-138477000D01*
X90540000Y-138430000D01*
X90541000Y-138383000D01*
X90545000Y-138336000D01*
X90551000Y-138289000D01*
X90560000Y-138243000D01*
X90571000Y-138197000D01*
X90584000Y-138152000D01*
X90600000Y-138107000D01*
X90618000Y-138064000D01*
X90638000Y-138021000D01*
X90661000Y-137980000D01*
X90685000Y-137940000D01*
X90712000Y-137901000D01*
X90741000Y-137864000D01*
X90771000Y-137828000D01*
X90804000Y-137794000D01*
X90838000Y-137761000D01*
X90874000Y-137731000D01*
X90911000Y-137702000D01*
X90950000Y-137675000D01*
X90990000Y-137651000D01*
X91031000Y-137628000D01*
X91074000Y-137608000D01*
X91117000Y-137590000D01*
X91162000Y-137574000D01*
X91207000Y-137561000D01*
X91253000Y-137550000D01*
X91299000Y-137541000D01*
X91346000Y-137535000D01*
X91393000Y-137531000D01*
X91440000Y-137530000D01*
X93940000Y-137530000D01*
X93940000Y-139330000D01*
G36*
X74291000Y-96892000D02*
G01*
X74307000Y-96894000D01*
X74322000Y-96897000D01*
X74338000Y-96900000D01*
X74368000Y-96910000D01*
X74382000Y-96916000D01*
X74410000Y-96930000D01*
X74423000Y-96938000D01*
X74436000Y-96947000D01*
X74449000Y-96957000D01*
X74461000Y-96967000D01*
X74483000Y-96989000D01*
X74493000Y-97001000D01*
X74503000Y-97014000D01*
X74512000Y-97027000D01*
X74520000Y-97040000D01*
X74534000Y-97068000D01*
X74540000Y-97082000D01*
X74550000Y-97112000D01*
X74553000Y-97128000D01*
X74556000Y-97143000D01*
X74558000Y-97159000D01*
X74560000Y-97174000D01*
X74560000Y-98406000D01*
X74558000Y-98421000D01*
X74556000Y-98437000D01*
X74553000Y-98452000D01*
X74550000Y-98468000D01*
X74540000Y-98498000D01*
X74534000Y-98512000D01*
X74520000Y-98540000D01*
X74512000Y-98553000D01*
X74503000Y-98566000D01*
X74493000Y-98579000D01*
X74483000Y-98591000D01*
X74461000Y-98613000D01*
X74449000Y-98623000D01*
X74436000Y-98633000D01*
X74423000Y-98642000D01*
X74410000Y-98650000D01*
X74382000Y-98664000D01*
X74368000Y-98670000D01*
X74338000Y-98680000D01*
X74322000Y-98683000D01*
X74307000Y-98686000D01*
X74291000Y-98688000D01*
X74276000Y-98690000D01*
X71160000Y-98690000D01*
X71160000Y-96890000D01*
X74276000Y-96890000D01*
X74291000Y-96892000D01*
G37*
X74291000Y-96892000D02*
X74307000Y-96894000D01*
X74322000Y-96897000D01*
X74338000Y-96900000D01*
X74368000Y-96910000D01*
X74382000Y-96916000D01*
X74410000Y-96930000D01*
X74423000Y-96938000D01*
X74436000Y-96947000D01*
X74449000Y-96957000D01*
X74461000Y-96967000D01*
X74483000Y-96989000D01*
X74493000Y-97001000D01*
X74503000Y-97014000D01*
X74512000Y-97027000D01*
X74520000Y-97040000D01*
X74534000Y-97068000D01*
X74540000Y-97082000D01*
X74550000Y-97112000D01*
X74553000Y-97128000D01*
X74556000Y-97143000D01*
X74558000Y-97159000D01*
X74560000Y-97174000D01*
X74560000Y-98406000D01*
X74558000Y-98421000D01*
X74556000Y-98437000D01*
X74553000Y-98452000D01*
X74550000Y-98468000D01*
X74540000Y-98498000D01*
X74534000Y-98512000D01*
X74520000Y-98540000D01*
X74512000Y-98553000D01*
X74503000Y-98566000D01*
X74493000Y-98579000D01*
X74483000Y-98591000D01*
X74461000Y-98613000D01*
X74449000Y-98623000D01*
X74436000Y-98633000D01*
X74423000Y-98642000D01*
X74410000Y-98650000D01*
X74382000Y-98664000D01*
X74368000Y-98670000D01*
X74338000Y-98680000D01*
X74322000Y-98683000D01*
X74307000Y-98686000D01*
X74291000Y-98688000D01*
X74276000Y-98690000D01*
X71160000Y-98690000D01*
X71160000Y-96890000D01*
X74276000Y-96890000D01*
X74291000Y-96892000D01*
G36*
X73707000Y-114671000D02*
G01*
X73754000Y-114675000D01*
X73801000Y-114681000D01*
X73847000Y-114690000D01*
X73893000Y-114701000D01*
X73938000Y-114714000D01*
X73983000Y-114730000D01*
X74026000Y-114748000D01*
X74069000Y-114768000D01*
X74110000Y-114791000D01*
X74150000Y-114815000D01*
X74189000Y-114842000D01*
X74226000Y-114871000D01*
X74262000Y-114901000D01*
X74296000Y-114934000D01*
X74329000Y-114968000D01*
X74359000Y-115004000D01*
X74388000Y-115041000D01*
X74415000Y-115080000D01*
X74439000Y-115120000D01*
X74462000Y-115161000D01*
X74482000Y-115204000D01*
X74500000Y-115247000D01*
X74516000Y-115292000D01*
X74529000Y-115337000D01*
X74540000Y-115383000D01*
X74549000Y-115429000D01*
X74555000Y-115476000D01*
X74559000Y-115523000D01*
X74560000Y-115570000D01*
X74559000Y-115617000D01*
X74555000Y-115664000D01*
X74549000Y-115711000D01*
X74540000Y-115757000D01*
X74529000Y-115803000D01*
X74516000Y-115848000D01*
X74500000Y-115893000D01*
X74482000Y-115936000D01*
X74462000Y-115979000D01*
X74439000Y-116020000D01*
X74415000Y-116060000D01*
X74388000Y-116099000D01*
X74359000Y-116136000D01*
X74329000Y-116172000D01*
X74296000Y-116206000D01*
X74262000Y-116239000D01*
X74226000Y-116269000D01*
X74189000Y-116298000D01*
X74150000Y-116325000D01*
X74110000Y-116349000D01*
X74069000Y-116372000D01*
X74026000Y-116392000D01*
X73983000Y-116410000D01*
X73938000Y-116426000D01*
X73893000Y-116439000D01*
X73847000Y-116450000D01*
X73801000Y-116459000D01*
X73754000Y-116465000D01*
X73707000Y-116469000D01*
X73660000Y-116470000D01*
X71160000Y-116470000D01*
X71160000Y-114670000D01*
X73660000Y-114670000D01*
X73707000Y-114671000D01*
G37*
X73707000Y-114671000D02*
X73754000Y-114675000D01*
X73801000Y-114681000D01*
X73847000Y-114690000D01*
X73893000Y-114701000D01*
X73938000Y-114714000D01*
X73983000Y-114730000D01*
X74026000Y-114748000D01*
X74069000Y-114768000D01*
X74110000Y-114791000D01*
X74150000Y-114815000D01*
X74189000Y-114842000D01*
X74226000Y-114871000D01*
X74262000Y-114901000D01*
X74296000Y-114934000D01*
X74329000Y-114968000D01*
X74359000Y-115004000D01*
X74388000Y-115041000D01*
X74415000Y-115080000D01*
X74439000Y-115120000D01*
X74462000Y-115161000D01*
X74482000Y-115204000D01*
X74500000Y-115247000D01*
X74516000Y-115292000D01*
X74529000Y-115337000D01*
X74540000Y-115383000D01*
X74549000Y-115429000D01*
X74555000Y-115476000D01*
X74559000Y-115523000D01*
X74560000Y-115570000D01*
X74559000Y-115617000D01*
X74555000Y-115664000D01*
X74549000Y-115711000D01*
X74540000Y-115757000D01*
X74529000Y-115803000D01*
X74516000Y-115848000D01*
X74500000Y-115893000D01*
X74482000Y-115936000D01*
X74462000Y-115979000D01*
X74439000Y-116020000D01*
X74415000Y-116060000D01*
X74388000Y-116099000D01*
X74359000Y-116136000D01*
X74329000Y-116172000D01*
X74296000Y-116206000D01*
X74262000Y-116239000D01*
X74226000Y-116269000D01*
X74189000Y-116298000D01*
X74150000Y-116325000D01*
X74110000Y-116349000D01*
X74069000Y-116372000D01*
X74026000Y-116392000D01*
X73983000Y-116410000D01*
X73938000Y-116426000D01*
X73893000Y-116439000D01*
X73847000Y-116450000D01*
X73801000Y-116459000D01*
X73754000Y-116465000D01*
X73707000Y-116469000D01*
X73660000Y-116470000D01*
X71160000Y-116470000D01*
X71160000Y-114670000D01*
X73660000Y-114670000D01*
X73707000Y-114671000D01*
G36*
X93940000Y-116470000D02*
G01*
X91440000Y-116470000D01*
X91393000Y-116469000D01*
X91346000Y-116465000D01*
X91299000Y-116459000D01*
X91253000Y-116450000D01*
X91207000Y-116439000D01*
X91162000Y-116426000D01*
X91117000Y-116410000D01*
X91074000Y-116392000D01*
X91031000Y-116372000D01*
X90990000Y-116349000D01*
X90950000Y-116325000D01*
X90911000Y-116298000D01*
X90874000Y-116269000D01*
X90838000Y-116239000D01*
X90804000Y-116206000D01*
X90771000Y-116172000D01*
X90741000Y-116136000D01*
X90712000Y-116099000D01*
X90685000Y-116060000D01*
X90661000Y-116020000D01*
X90638000Y-115979000D01*
X90618000Y-115936000D01*
X90600000Y-115893000D01*
X90584000Y-115848000D01*
X90571000Y-115803000D01*
X90560000Y-115757000D01*
X90551000Y-115711000D01*
X90545000Y-115664000D01*
X90541000Y-115617000D01*
X90540000Y-115570000D01*
X90541000Y-115523000D01*
X90545000Y-115476000D01*
X90551000Y-115429000D01*
X90560000Y-115383000D01*
X90571000Y-115337000D01*
X90584000Y-115292000D01*
X90600000Y-115247000D01*
X90618000Y-115204000D01*
X90638000Y-115161000D01*
X90661000Y-115120000D01*
X90685000Y-115080000D01*
X90712000Y-115041000D01*
X90741000Y-115004000D01*
X90771000Y-114968000D01*
X90804000Y-114934000D01*
X90838000Y-114901000D01*
X90874000Y-114871000D01*
X90911000Y-114842000D01*
X90950000Y-114815000D01*
X90990000Y-114791000D01*
X91031000Y-114768000D01*
X91074000Y-114748000D01*
X91117000Y-114730000D01*
X91162000Y-114714000D01*
X91207000Y-114701000D01*
X91253000Y-114690000D01*
X91299000Y-114681000D01*
X91346000Y-114675000D01*
X91393000Y-114671000D01*
X91440000Y-114670000D01*
X93940000Y-114670000D01*
X93940000Y-116470000D01*
G37*
X93940000Y-116470000D02*
X91440000Y-116470000D01*
X91393000Y-116469000D01*
X91346000Y-116465000D01*
X91299000Y-116459000D01*
X91253000Y-116450000D01*
X91207000Y-116439000D01*
X91162000Y-116426000D01*
X91117000Y-116410000D01*
X91074000Y-116392000D01*
X91031000Y-116372000D01*
X90990000Y-116349000D01*
X90950000Y-116325000D01*
X90911000Y-116298000D01*
X90874000Y-116269000D01*
X90838000Y-116239000D01*
X90804000Y-116206000D01*
X90771000Y-116172000D01*
X90741000Y-116136000D01*
X90712000Y-116099000D01*
X90685000Y-116060000D01*
X90661000Y-116020000D01*
X90638000Y-115979000D01*
X90618000Y-115936000D01*
X90600000Y-115893000D01*
X90584000Y-115848000D01*
X90571000Y-115803000D01*
X90560000Y-115757000D01*
X90551000Y-115711000D01*
X90545000Y-115664000D01*
X90541000Y-115617000D01*
X90540000Y-115570000D01*
X90541000Y-115523000D01*
X90545000Y-115476000D01*
X90551000Y-115429000D01*
X90560000Y-115383000D01*
X90571000Y-115337000D01*
X90584000Y-115292000D01*
X90600000Y-115247000D01*
X90618000Y-115204000D01*
X90638000Y-115161000D01*
X90661000Y-115120000D01*
X90685000Y-115080000D01*
X90712000Y-115041000D01*
X90741000Y-115004000D01*
X90771000Y-114968000D01*
X90804000Y-114934000D01*
X90838000Y-114901000D01*
X90874000Y-114871000D01*
X90911000Y-114842000D01*
X90950000Y-114815000D01*
X90990000Y-114791000D01*
X91031000Y-114768000D01*
X91074000Y-114748000D01*
X91117000Y-114730000D01*
X91162000Y-114714000D01*
X91207000Y-114701000D01*
X91253000Y-114690000D01*
X91299000Y-114681000D01*
X91346000Y-114675000D01*
X91393000Y-114671000D01*
X91440000Y-114670000D01*
X93940000Y-114670000D01*
X93940000Y-116470000D01*
G36*
X73707000Y-91811000D02*
G01*
X73754000Y-91815000D01*
X73801000Y-91821000D01*
X73847000Y-91830000D01*
X73893000Y-91841000D01*
X73938000Y-91854000D01*
X73983000Y-91870000D01*
X74026000Y-91888000D01*
X74069000Y-91908000D01*
X74110000Y-91931000D01*
X74150000Y-91955000D01*
X74189000Y-91982000D01*
X74226000Y-92011000D01*
X74262000Y-92041000D01*
X74296000Y-92074000D01*
X74329000Y-92108000D01*
X74359000Y-92144000D01*
X74388000Y-92181000D01*
X74415000Y-92220000D01*
X74439000Y-92260000D01*
X74462000Y-92301000D01*
X74482000Y-92344000D01*
X74500000Y-92387000D01*
X74516000Y-92432000D01*
X74529000Y-92477000D01*
X74540000Y-92523000D01*
X74549000Y-92569000D01*
X74555000Y-92616000D01*
X74559000Y-92663000D01*
X74560000Y-92710000D01*
X74559000Y-92757000D01*
X74555000Y-92804000D01*
X74549000Y-92851000D01*
X74540000Y-92897000D01*
X74529000Y-92943000D01*
X74516000Y-92988000D01*
X74500000Y-93033000D01*
X74482000Y-93076000D01*
X74462000Y-93119000D01*
X74439000Y-93160000D01*
X74415000Y-93200000D01*
X74388000Y-93239000D01*
X74359000Y-93276000D01*
X74329000Y-93312000D01*
X74296000Y-93346000D01*
X74262000Y-93379000D01*
X74226000Y-93409000D01*
X74189000Y-93438000D01*
X74150000Y-93465000D01*
X74110000Y-93489000D01*
X74069000Y-93512000D01*
X74026000Y-93532000D01*
X73983000Y-93550000D01*
X73938000Y-93566000D01*
X73893000Y-93579000D01*
X73847000Y-93590000D01*
X73801000Y-93599000D01*
X73754000Y-93605000D01*
X73707000Y-93609000D01*
X73660000Y-93610000D01*
X71160000Y-93610000D01*
X71160000Y-91810000D01*
X73660000Y-91810000D01*
X73707000Y-91811000D01*
G37*
X73707000Y-91811000D02*
X73754000Y-91815000D01*
X73801000Y-91821000D01*
X73847000Y-91830000D01*
X73893000Y-91841000D01*
X73938000Y-91854000D01*
X73983000Y-91870000D01*
X74026000Y-91888000D01*
X74069000Y-91908000D01*
X74110000Y-91931000D01*
X74150000Y-91955000D01*
X74189000Y-91982000D01*
X74226000Y-92011000D01*
X74262000Y-92041000D01*
X74296000Y-92074000D01*
X74329000Y-92108000D01*
X74359000Y-92144000D01*
X74388000Y-92181000D01*
X74415000Y-92220000D01*
X74439000Y-92260000D01*
X74462000Y-92301000D01*
X74482000Y-92344000D01*
X74500000Y-92387000D01*
X74516000Y-92432000D01*
X74529000Y-92477000D01*
X74540000Y-92523000D01*
X74549000Y-92569000D01*
X74555000Y-92616000D01*
X74559000Y-92663000D01*
X74560000Y-92710000D01*
X74559000Y-92757000D01*
X74555000Y-92804000D01*
X74549000Y-92851000D01*
X74540000Y-92897000D01*
X74529000Y-92943000D01*
X74516000Y-92988000D01*
X74500000Y-93033000D01*
X74482000Y-93076000D01*
X74462000Y-93119000D01*
X74439000Y-93160000D01*
X74415000Y-93200000D01*
X74388000Y-93239000D01*
X74359000Y-93276000D01*
X74329000Y-93312000D01*
X74296000Y-93346000D01*
X74262000Y-93379000D01*
X74226000Y-93409000D01*
X74189000Y-93438000D01*
X74150000Y-93465000D01*
X74110000Y-93489000D01*
X74069000Y-93512000D01*
X74026000Y-93532000D01*
X73983000Y-93550000D01*
X73938000Y-93566000D01*
X73893000Y-93579000D01*
X73847000Y-93590000D01*
X73801000Y-93599000D01*
X73754000Y-93605000D01*
X73707000Y-93609000D01*
X73660000Y-93610000D01*
X71160000Y-93610000D01*
X71160000Y-91810000D01*
X73660000Y-91810000D01*
X73707000Y-91811000D01*
G36*
X80057000Y-139841000D02*
G01*
X80104000Y-139845000D01*
X80151000Y-139851000D01*
X80197000Y-139860000D01*
X80243000Y-139871000D01*
X80288000Y-139884000D01*
X80333000Y-139900000D01*
X80376000Y-139918000D01*
X80419000Y-139938000D01*
X80460000Y-139961000D01*
X80500000Y-139985000D01*
X80539000Y-140012000D01*
X80576000Y-140041000D01*
X80612000Y-140071000D01*
X80646000Y-140104000D01*
X80679000Y-140138000D01*
X80709000Y-140174000D01*
X80738000Y-140211000D01*
X80765000Y-140250000D01*
X80789000Y-140290000D01*
X80812000Y-140331000D01*
X80832000Y-140374000D01*
X80850000Y-140417000D01*
X80866000Y-140462000D01*
X80879000Y-140507000D01*
X80890000Y-140553000D01*
X80899000Y-140599000D01*
X80905000Y-140646000D01*
X80909000Y-140693000D01*
X80910000Y-140740000D01*
X80910000Y-143240000D01*
X79110000Y-143240000D01*
X79110000Y-140740000D01*
X79111000Y-140693000D01*
X79115000Y-140646000D01*
X79121000Y-140599000D01*
X79130000Y-140553000D01*
X79141000Y-140507000D01*
X79154000Y-140462000D01*
X79170000Y-140417000D01*
X79188000Y-140374000D01*
X79208000Y-140331000D01*
X79231000Y-140290000D01*
X79255000Y-140250000D01*
X79282000Y-140211000D01*
X79311000Y-140174000D01*
X79341000Y-140138000D01*
X79374000Y-140104000D01*
X79408000Y-140071000D01*
X79444000Y-140041000D01*
X79481000Y-140012000D01*
X79520000Y-139985000D01*
X79560000Y-139961000D01*
X79601000Y-139938000D01*
X79644000Y-139918000D01*
X79687000Y-139900000D01*
X79732000Y-139884000D01*
X79777000Y-139871000D01*
X79823000Y-139860000D01*
X79869000Y-139851000D01*
X79916000Y-139845000D01*
X79963000Y-139841000D01*
X80010000Y-139840000D01*
X80057000Y-139841000D01*
G37*
X80057000Y-139841000D02*
X80104000Y-139845000D01*
X80151000Y-139851000D01*
X80197000Y-139860000D01*
X80243000Y-139871000D01*
X80288000Y-139884000D01*
X80333000Y-139900000D01*
X80376000Y-139918000D01*
X80419000Y-139938000D01*
X80460000Y-139961000D01*
X80500000Y-139985000D01*
X80539000Y-140012000D01*
X80576000Y-140041000D01*
X80612000Y-140071000D01*
X80646000Y-140104000D01*
X80679000Y-140138000D01*
X80709000Y-140174000D01*
X80738000Y-140211000D01*
X80765000Y-140250000D01*
X80789000Y-140290000D01*
X80812000Y-140331000D01*
X80832000Y-140374000D01*
X80850000Y-140417000D01*
X80866000Y-140462000D01*
X80879000Y-140507000D01*
X80890000Y-140553000D01*
X80899000Y-140599000D01*
X80905000Y-140646000D01*
X80909000Y-140693000D01*
X80910000Y-140740000D01*
X80910000Y-143240000D01*
X79110000Y-143240000D01*
X79110000Y-140740000D01*
X79111000Y-140693000D01*
X79115000Y-140646000D01*
X79121000Y-140599000D01*
X79130000Y-140553000D01*
X79141000Y-140507000D01*
X79154000Y-140462000D01*
X79170000Y-140417000D01*
X79188000Y-140374000D01*
X79208000Y-140331000D01*
X79231000Y-140290000D01*
X79255000Y-140250000D01*
X79282000Y-140211000D01*
X79311000Y-140174000D01*
X79341000Y-140138000D01*
X79374000Y-140104000D01*
X79408000Y-140071000D01*
X79444000Y-140041000D01*
X79481000Y-140012000D01*
X79520000Y-139985000D01*
X79560000Y-139961000D01*
X79601000Y-139938000D01*
X79644000Y-139918000D01*
X79687000Y-139900000D01*
X79732000Y-139884000D01*
X79777000Y-139871000D01*
X79823000Y-139860000D01*
X79869000Y-139851000D01*
X79916000Y-139845000D01*
X79963000Y-139841000D01*
X80010000Y-139840000D01*
X80057000Y-139841000D01*
G36*
X85137000Y-139841000D02*
G01*
X85184000Y-139845000D01*
X85231000Y-139851000D01*
X85277000Y-139860000D01*
X85323000Y-139871000D01*
X85368000Y-139884000D01*
X85413000Y-139900000D01*
X85456000Y-139918000D01*
X85499000Y-139938000D01*
X85540000Y-139961000D01*
X85580000Y-139985000D01*
X85619000Y-140012000D01*
X85656000Y-140041000D01*
X85692000Y-140071000D01*
X85726000Y-140104000D01*
X85759000Y-140138000D01*
X85789000Y-140174000D01*
X85818000Y-140211000D01*
X85845000Y-140250000D01*
X85869000Y-140290000D01*
X85892000Y-140331000D01*
X85912000Y-140374000D01*
X85930000Y-140417000D01*
X85946000Y-140462000D01*
X85959000Y-140507000D01*
X85970000Y-140553000D01*
X85979000Y-140599000D01*
X85985000Y-140646000D01*
X85989000Y-140693000D01*
X85990000Y-140740000D01*
X85990000Y-143240000D01*
X84190000Y-143240000D01*
X84190000Y-140740000D01*
X84191000Y-140693000D01*
X84195000Y-140646000D01*
X84201000Y-140599000D01*
X84210000Y-140553000D01*
X84221000Y-140507000D01*
X84234000Y-140462000D01*
X84250000Y-140417000D01*
X84268000Y-140374000D01*
X84288000Y-140331000D01*
X84311000Y-140290000D01*
X84335000Y-140250000D01*
X84362000Y-140211000D01*
X84391000Y-140174000D01*
X84421000Y-140138000D01*
X84454000Y-140104000D01*
X84488000Y-140071000D01*
X84524000Y-140041000D01*
X84561000Y-140012000D01*
X84600000Y-139985000D01*
X84640000Y-139961000D01*
X84681000Y-139938000D01*
X84724000Y-139918000D01*
X84767000Y-139900000D01*
X84812000Y-139884000D01*
X84857000Y-139871000D01*
X84903000Y-139860000D01*
X84949000Y-139851000D01*
X84996000Y-139845000D01*
X85043000Y-139841000D01*
X85090000Y-139840000D01*
X85137000Y-139841000D01*
G37*
X85137000Y-139841000D02*
X85184000Y-139845000D01*
X85231000Y-139851000D01*
X85277000Y-139860000D01*
X85323000Y-139871000D01*
X85368000Y-139884000D01*
X85413000Y-139900000D01*
X85456000Y-139918000D01*
X85499000Y-139938000D01*
X85540000Y-139961000D01*
X85580000Y-139985000D01*
X85619000Y-140012000D01*
X85656000Y-140041000D01*
X85692000Y-140071000D01*
X85726000Y-140104000D01*
X85759000Y-140138000D01*
X85789000Y-140174000D01*
X85818000Y-140211000D01*
X85845000Y-140250000D01*
X85869000Y-140290000D01*
X85892000Y-140331000D01*
X85912000Y-140374000D01*
X85930000Y-140417000D01*
X85946000Y-140462000D01*
X85959000Y-140507000D01*
X85970000Y-140553000D01*
X85979000Y-140599000D01*
X85985000Y-140646000D01*
X85989000Y-140693000D01*
X85990000Y-140740000D01*
X85990000Y-143240000D01*
X84190000Y-143240000D01*
X84190000Y-140740000D01*
X84191000Y-140693000D01*
X84195000Y-140646000D01*
X84201000Y-140599000D01*
X84210000Y-140553000D01*
X84221000Y-140507000D01*
X84234000Y-140462000D01*
X84250000Y-140417000D01*
X84268000Y-140374000D01*
X84288000Y-140331000D01*
X84311000Y-140290000D01*
X84335000Y-140250000D01*
X84362000Y-140211000D01*
X84391000Y-140174000D01*
X84421000Y-140138000D01*
X84454000Y-140104000D01*
X84488000Y-140071000D01*
X84524000Y-140041000D01*
X84561000Y-140012000D01*
X84600000Y-139985000D01*
X84640000Y-139961000D01*
X84681000Y-139938000D01*
X84724000Y-139918000D01*
X84767000Y-139900000D01*
X84812000Y-139884000D01*
X84857000Y-139871000D01*
X84903000Y-139860000D01*
X84949000Y-139851000D01*
X84996000Y-139845000D01*
X85043000Y-139841000D01*
X85090000Y-139840000D01*
X85137000Y-139841000D01*
G36*
X73707000Y-132451000D02*
G01*
X73754000Y-132455000D01*
X73801000Y-132461000D01*
X73847000Y-132470000D01*
X73893000Y-132481000D01*
X73938000Y-132494000D01*
X73983000Y-132510000D01*
X74026000Y-132528000D01*
X74069000Y-132548000D01*
X74110000Y-132571000D01*
X74150000Y-132595000D01*
X74189000Y-132622000D01*
X74226000Y-132651000D01*
X74262000Y-132681000D01*
X74296000Y-132714000D01*
X74329000Y-132748000D01*
X74359000Y-132784000D01*
X74388000Y-132821000D01*
X74415000Y-132860000D01*
X74439000Y-132900000D01*
X74462000Y-132941000D01*
X74482000Y-132984000D01*
X74500000Y-133027000D01*
X74516000Y-133072000D01*
X74529000Y-133117000D01*
X74540000Y-133163000D01*
X74549000Y-133209000D01*
X74555000Y-133256000D01*
X74559000Y-133303000D01*
X74560000Y-133350000D01*
X74559000Y-133397000D01*
X74555000Y-133444000D01*
X74549000Y-133491000D01*
X74540000Y-133537000D01*
X74529000Y-133583000D01*
X74516000Y-133628000D01*
X74500000Y-133673000D01*
X74482000Y-133716000D01*
X74462000Y-133759000D01*
X74439000Y-133800000D01*
X74415000Y-133840000D01*
X74388000Y-133879000D01*
X74359000Y-133916000D01*
X74329000Y-133952000D01*
X74296000Y-133986000D01*
X74262000Y-134019000D01*
X74226000Y-134049000D01*
X74189000Y-134078000D01*
X74150000Y-134105000D01*
X74110000Y-134129000D01*
X74069000Y-134152000D01*
X74026000Y-134172000D01*
X73983000Y-134190000D01*
X73938000Y-134206000D01*
X73893000Y-134219000D01*
X73847000Y-134230000D01*
X73801000Y-134239000D01*
X73754000Y-134245000D01*
X73707000Y-134249000D01*
X73660000Y-134250000D01*
X71160000Y-134250000D01*
X71160000Y-132450000D01*
X73660000Y-132450000D01*
X73707000Y-132451000D01*
G37*
X73707000Y-132451000D02*
X73754000Y-132455000D01*
X73801000Y-132461000D01*
X73847000Y-132470000D01*
X73893000Y-132481000D01*
X73938000Y-132494000D01*
X73983000Y-132510000D01*
X74026000Y-132528000D01*
X74069000Y-132548000D01*
X74110000Y-132571000D01*
X74150000Y-132595000D01*
X74189000Y-132622000D01*
X74226000Y-132651000D01*
X74262000Y-132681000D01*
X74296000Y-132714000D01*
X74329000Y-132748000D01*
X74359000Y-132784000D01*
X74388000Y-132821000D01*
X74415000Y-132860000D01*
X74439000Y-132900000D01*
X74462000Y-132941000D01*
X74482000Y-132984000D01*
X74500000Y-133027000D01*
X74516000Y-133072000D01*
X74529000Y-133117000D01*
X74540000Y-133163000D01*
X74549000Y-133209000D01*
X74555000Y-133256000D01*
X74559000Y-133303000D01*
X74560000Y-133350000D01*
X74559000Y-133397000D01*
X74555000Y-133444000D01*
X74549000Y-133491000D01*
X74540000Y-133537000D01*
X74529000Y-133583000D01*
X74516000Y-133628000D01*
X74500000Y-133673000D01*
X74482000Y-133716000D01*
X74462000Y-133759000D01*
X74439000Y-133800000D01*
X74415000Y-133840000D01*
X74388000Y-133879000D01*
X74359000Y-133916000D01*
X74329000Y-133952000D01*
X74296000Y-133986000D01*
X74262000Y-134019000D01*
X74226000Y-134049000D01*
X74189000Y-134078000D01*
X74150000Y-134105000D01*
X74110000Y-134129000D01*
X74069000Y-134152000D01*
X74026000Y-134172000D01*
X73983000Y-134190000D01*
X73938000Y-134206000D01*
X73893000Y-134219000D01*
X73847000Y-134230000D01*
X73801000Y-134239000D01*
X73754000Y-134245000D01*
X73707000Y-134249000D01*
X73660000Y-134250000D01*
X71160000Y-134250000D01*
X71160000Y-132450000D01*
X73660000Y-132450000D01*
X73707000Y-132451000D01*
G36*
X93940000Y-124090000D02*
G01*
X90824000Y-124090000D01*
X90809000Y-124088000D01*
X90793000Y-124086000D01*
X90778000Y-124083000D01*
X90762000Y-124080000D01*
X90732000Y-124070000D01*
X90718000Y-124064000D01*
X90690000Y-124050000D01*
X90677000Y-124042000D01*
X90664000Y-124033000D01*
X90651000Y-124023000D01*
X90639000Y-124013000D01*
X90617000Y-123991000D01*
X90607000Y-123979000D01*
X90597000Y-123966000D01*
X90588000Y-123953000D01*
X90580000Y-123940000D01*
X90566000Y-123912000D01*
X90560000Y-123898000D01*
X90550000Y-123868000D01*
X90547000Y-123852000D01*
X90544000Y-123837000D01*
X90542000Y-123821000D01*
X90540000Y-123806000D01*
X90540000Y-122574000D01*
X90542000Y-122559000D01*
X90544000Y-122543000D01*
X90547000Y-122528000D01*
X90550000Y-122512000D01*
X90560000Y-122482000D01*
X90566000Y-122468000D01*
X90580000Y-122440000D01*
X90588000Y-122427000D01*
X90597000Y-122414000D01*
X90607000Y-122401000D01*
X90617000Y-122389000D01*
X90639000Y-122367000D01*
X90651000Y-122357000D01*
X90664000Y-122347000D01*
X90677000Y-122338000D01*
X90690000Y-122330000D01*
X90718000Y-122316000D01*
X90732000Y-122310000D01*
X90762000Y-122300000D01*
X90778000Y-122297000D01*
X90793000Y-122294000D01*
X90809000Y-122292000D01*
X90824000Y-122290000D01*
X93940000Y-122290000D01*
X93940000Y-124090000D01*
G37*
X93940000Y-124090000D02*
X90824000Y-124090000D01*
X90809000Y-124088000D01*
X90793000Y-124086000D01*
X90778000Y-124083000D01*
X90762000Y-124080000D01*
X90732000Y-124070000D01*
X90718000Y-124064000D01*
X90690000Y-124050000D01*
X90677000Y-124042000D01*
X90664000Y-124033000D01*
X90651000Y-124023000D01*
X90639000Y-124013000D01*
X90617000Y-123991000D01*
X90607000Y-123979000D01*
X90597000Y-123966000D01*
X90588000Y-123953000D01*
X90580000Y-123940000D01*
X90566000Y-123912000D01*
X90560000Y-123898000D01*
X90550000Y-123868000D01*
X90547000Y-123852000D01*
X90544000Y-123837000D01*
X90542000Y-123821000D01*
X90540000Y-123806000D01*
X90540000Y-122574000D01*
X90542000Y-122559000D01*
X90544000Y-122543000D01*
X90547000Y-122528000D01*
X90550000Y-122512000D01*
X90560000Y-122482000D01*
X90566000Y-122468000D01*
X90580000Y-122440000D01*
X90588000Y-122427000D01*
X90597000Y-122414000D01*
X90607000Y-122401000D01*
X90617000Y-122389000D01*
X90639000Y-122367000D01*
X90651000Y-122357000D01*
X90664000Y-122347000D01*
X90677000Y-122338000D01*
X90690000Y-122330000D01*
X90718000Y-122316000D01*
X90732000Y-122310000D01*
X90762000Y-122300000D01*
X90778000Y-122297000D01*
X90793000Y-122294000D01*
X90809000Y-122292000D01*
X90824000Y-122290000D01*
X93940000Y-122290000D01*
X93940000Y-124090000D01*
G36*
X73707000Y-94351000D02*
G01*
X73754000Y-94355000D01*
X73801000Y-94361000D01*
X73847000Y-94370000D01*
X73893000Y-94381000D01*
X73938000Y-94394000D01*
X73983000Y-94410000D01*
X74026000Y-94428000D01*
X74069000Y-94448000D01*
X74110000Y-94471000D01*
X74150000Y-94495000D01*
X74189000Y-94522000D01*
X74226000Y-94551000D01*
X74262000Y-94581000D01*
X74296000Y-94614000D01*
X74329000Y-94648000D01*
X74359000Y-94684000D01*
X74388000Y-94721000D01*
X74415000Y-94760000D01*
X74439000Y-94800000D01*
X74462000Y-94841000D01*
X74482000Y-94884000D01*
X74500000Y-94927000D01*
X74516000Y-94972000D01*
X74529000Y-95017000D01*
X74540000Y-95063000D01*
X74549000Y-95109000D01*
X74555000Y-95156000D01*
X74559000Y-95203000D01*
X74560000Y-95250000D01*
X74559000Y-95297000D01*
X74555000Y-95344000D01*
X74549000Y-95391000D01*
X74540000Y-95437000D01*
X74529000Y-95483000D01*
X74516000Y-95528000D01*
X74500000Y-95573000D01*
X74482000Y-95616000D01*
X74462000Y-95659000D01*
X74439000Y-95700000D01*
X74415000Y-95740000D01*
X74388000Y-95779000D01*
X74359000Y-95816000D01*
X74329000Y-95852000D01*
X74296000Y-95886000D01*
X74262000Y-95919000D01*
X74226000Y-95949000D01*
X74189000Y-95978000D01*
X74150000Y-96005000D01*
X74110000Y-96029000D01*
X74069000Y-96052000D01*
X74026000Y-96072000D01*
X73983000Y-96090000D01*
X73938000Y-96106000D01*
X73893000Y-96119000D01*
X73847000Y-96130000D01*
X73801000Y-96139000D01*
X73754000Y-96145000D01*
X73707000Y-96149000D01*
X73660000Y-96150000D01*
X71160000Y-96150000D01*
X71160000Y-94350000D01*
X73660000Y-94350000D01*
X73707000Y-94351000D01*
G37*
X73707000Y-94351000D02*
X73754000Y-94355000D01*
X73801000Y-94361000D01*
X73847000Y-94370000D01*
X73893000Y-94381000D01*
X73938000Y-94394000D01*
X73983000Y-94410000D01*
X74026000Y-94428000D01*
X74069000Y-94448000D01*
X74110000Y-94471000D01*
X74150000Y-94495000D01*
X74189000Y-94522000D01*
X74226000Y-94551000D01*
X74262000Y-94581000D01*
X74296000Y-94614000D01*
X74329000Y-94648000D01*
X74359000Y-94684000D01*
X74388000Y-94721000D01*
X74415000Y-94760000D01*
X74439000Y-94800000D01*
X74462000Y-94841000D01*
X74482000Y-94884000D01*
X74500000Y-94927000D01*
X74516000Y-94972000D01*
X74529000Y-95017000D01*
X74540000Y-95063000D01*
X74549000Y-95109000D01*
X74555000Y-95156000D01*
X74559000Y-95203000D01*
X74560000Y-95250000D01*
X74559000Y-95297000D01*
X74555000Y-95344000D01*
X74549000Y-95391000D01*
X74540000Y-95437000D01*
X74529000Y-95483000D01*
X74516000Y-95528000D01*
X74500000Y-95573000D01*
X74482000Y-95616000D01*
X74462000Y-95659000D01*
X74439000Y-95700000D01*
X74415000Y-95740000D01*
X74388000Y-95779000D01*
X74359000Y-95816000D01*
X74329000Y-95852000D01*
X74296000Y-95886000D01*
X74262000Y-95919000D01*
X74226000Y-95949000D01*
X74189000Y-95978000D01*
X74150000Y-96005000D01*
X74110000Y-96029000D01*
X74069000Y-96052000D01*
X74026000Y-96072000D01*
X73983000Y-96090000D01*
X73938000Y-96106000D01*
X73893000Y-96119000D01*
X73847000Y-96130000D01*
X73801000Y-96139000D01*
X73754000Y-96145000D01*
X73707000Y-96149000D01*
X73660000Y-96150000D01*
X71160000Y-96150000D01*
X71160000Y-94350000D01*
X73660000Y-94350000D01*
X73707000Y-94351000D01*
G36*
X93940000Y-126630000D02*
G01*
X91440000Y-126630000D01*
X91393000Y-126629000D01*
X91346000Y-126625000D01*
X91299000Y-126619000D01*
X91253000Y-126610000D01*
X91207000Y-126599000D01*
X91162000Y-126586000D01*
X91117000Y-126570000D01*
X91074000Y-126552000D01*
X91031000Y-126532000D01*
X90990000Y-126509000D01*
X90950000Y-126485000D01*
X90911000Y-126458000D01*
X90874000Y-126429000D01*
X90838000Y-126399000D01*
X90804000Y-126366000D01*
X90771000Y-126332000D01*
X90741000Y-126296000D01*
X90712000Y-126259000D01*
X90685000Y-126220000D01*
X90661000Y-126180000D01*
X90638000Y-126139000D01*
X90618000Y-126096000D01*
X90600000Y-126053000D01*
X90584000Y-126008000D01*
X90571000Y-125963000D01*
X90560000Y-125917000D01*
X90551000Y-125871000D01*
X90545000Y-125824000D01*
X90541000Y-125777000D01*
X90540000Y-125730000D01*
X90541000Y-125683000D01*
X90545000Y-125636000D01*
X90551000Y-125589000D01*
X90560000Y-125543000D01*
X90571000Y-125497000D01*
X90584000Y-125452000D01*
X90600000Y-125407000D01*
X90618000Y-125364000D01*
X90638000Y-125321000D01*
X90661000Y-125280000D01*
X90685000Y-125240000D01*
X90712000Y-125201000D01*
X90741000Y-125164000D01*
X90771000Y-125128000D01*
X90804000Y-125094000D01*
X90838000Y-125061000D01*
X90874000Y-125031000D01*
X90911000Y-125002000D01*
X90950000Y-124975000D01*
X90990000Y-124951000D01*
X91031000Y-124928000D01*
X91074000Y-124908000D01*
X91117000Y-124890000D01*
X91162000Y-124874000D01*
X91207000Y-124861000D01*
X91253000Y-124850000D01*
X91299000Y-124841000D01*
X91346000Y-124835000D01*
X91393000Y-124831000D01*
X91440000Y-124830000D01*
X93940000Y-124830000D01*
X93940000Y-126630000D01*
G37*
X93940000Y-126630000D02*
X91440000Y-126630000D01*
X91393000Y-126629000D01*
X91346000Y-126625000D01*
X91299000Y-126619000D01*
X91253000Y-126610000D01*
X91207000Y-126599000D01*
X91162000Y-126586000D01*
X91117000Y-126570000D01*
X91074000Y-126552000D01*
X91031000Y-126532000D01*
X90990000Y-126509000D01*
X90950000Y-126485000D01*
X90911000Y-126458000D01*
X90874000Y-126429000D01*
X90838000Y-126399000D01*
X90804000Y-126366000D01*
X90771000Y-126332000D01*
X90741000Y-126296000D01*
X90712000Y-126259000D01*
X90685000Y-126220000D01*
X90661000Y-126180000D01*
X90638000Y-126139000D01*
X90618000Y-126096000D01*
X90600000Y-126053000D01*
X90584000Y-126008000D01*
X90571000Y-125963000D01*
X90560000Y-125917000D01*
X90551000Y-125871000D01*
X90545000Y-125824000D01*
X90541000Y-125777000D01*
X90540000Y-125730000D01*
X90541000Y-125683000D01*
X90545000Y-125636000D01*
X90551000Y-125589000D01*
X90560000Y-125543000D01*
X90571000Y-125497000D01*
X90584000Y-125452000D01*
X90600000Y-125407000D01*
X90618000Y-125364000D01*
X90638000Y-125321000D01*
X90661000Y-125280000D01*
X90685000Y-125240000D01*
X90712000Y-125201000D01*
X90741000Y-125164000D01*
X90771000Y-125128000D01*
X90804000Y-125094000D01*
X90838000Y-125061000D01*
X90874000Y-125031000D01*
X90911000Y-125002000D01*
X90950000Y-124975000D01*
X90990000Y-124951000D01*
X91031000Y-124928000D01*
X91074000Y-124908000D01*
X91117000Y-124890000D01*
X91162000Y-124874000D01*
X91207000Y-124861000D01*
X91253000Y-124850000D01*
X91299000Y-124841000D01*
X91346000Y-124835000D01*
X91393000Y-124831000D01*
X91440000Y-124830000D01*
X93940000Y-124830000D01*
X93940000Y-126630000D01*
G36*
X93940000Y-113930000D02*
G01*
X91440000Y-113930000D01*
X91393000Y-113929000D01*
X91346000Y-113925000D01*
X91299000Y-113919000D01*
X91253000Y-113910000D01*
X91207000Y-113899000D01*
X91162000Y-113886000D01*
X91117000Y-113870000D01*
X91074000Y-113852000D01*
X91031000Y-113832000D01*
X90990000Y-113809000D01*
X90950000Y-113785000D01*
X90911000Y-113758000D01*
X90874000Y-113729000D01*
X90838000Y-113699000D01*
X90804000Y-113666000D01*
X90771000Y-113632000D01*
X90741000Y-113596000D01*
X90712000Y-113559000D01*
X90685000Y-113520000D01*
X90661000Y-113480000D01*
X90638000Y-113439000D01*
X90618000Y-113396000D01*
X90600000Y-113353000D01*
X90584000Y-113308000D01*
X90571000Y-113263000D01*
X90560000Y-113217000D01*
X90551000Y-113171000D01*
X90545000Y-113124000D01*
X90541000Y-113077000D01*
X90540000Y-113030000D01*
X90541000Y-112983000D01*
X90545000Y-112936000D01*
X90551000Y-112889000D01*
X90560000Y-112843000D01*
X90571000Y-112797000D01*
X90584000Y-112752000D01*
X90600000Y-112707000D01*
X90618000Y-112664000D01*
X90638000Y-112621000D01*
X90661000Y-112580000D01*
X90685000Y-112540000D01*
X90712000Y-112501000D01*
X90741000Y-112464000D01*
X90771000Y-112428000D01*
X90804000Y-112394000D01*
X90838000Y-112361000D01*
X90874000Y-112331000D01*
X90911000Y-112302000D01*
X90950000Y-112275000D01*
X90990000Y-112251000D01*
X91031000Y-112228000D01*
X91074000Y-112208000D01*
X91117000Y-112190000D01*
X91162000Y-112174000D01*
X91207000Y-112161000D01*
X91253000Y-112150000D01*
X91299000Y-112141000D01*
X91346000Y-112135000D01*
X91393000Y-112131000D01*
X91440000Y-112130000D01*
X93940000Y-112130000D01*
X93940000Y-113930000D01*
G37*
X93940000Y-113930000D02*
X91440000Y-113930000D01*
X91393000Y-113929000D01*
X91346000Y-113925000D01*
X91299000Y-113919000D01*
X91253000Y-113910000D01*
X91207000Y-113899000D01*
X91162000Y-113886000D01*
X91117000Y-113870000D01*
X91074000Y-113852000D01*
X91031000Y-113832000D01*
X90990000Y-113809000D01*
X90950000Y-113785000D01*
X90911000Y-113758000D01*
X90874000Y-113729000D01*
X90838000Y-113699000D01*
X90804000Y-113666000D01*
X90771000Y-113632000D01*
X90741000Y-113596000D01*
X90712000Y-113559000D01*
X90685000Y-113520000D01*
X90661000Y-113480000D01*
X90638000Y-113439000D01*
X90618000Y-113396000D01*
X90600000Y-113353000D01*
X90584000Y-113308000D01*
X90571000Y-113263000D01*
X90560000Y-113217000D01*
X90551000Y-113171000D01*
X90545000Y-113124000D01*
X90541000Y-113077000D01*
X90540000Y-113030000D01*
X90541000Y-112983000D01*
X90545000Y-112936000D01*
X90551000Y-112889000D01*
X90560000Y-112843000D01*
X90571000Y-112797000D01*
X90584000Y-112752000D01*
X90600000Y-112707000D01*
X90618000Y-112664000D01*
X90638000Y-112621000D01*
X90661000Y-112580000D01*
X90685000Y-112540000D01*
X90712000Y-112501000D01*
X90741000Y-112464000D01*
X90771000Y-112428000D01*
X90804000Y-112394000D01*
X90838000Y-112361000D01*
X90874000Y-112331000D01*
X90911000Y-112302000D01*
X90950000Y-112275000D01*
X90990000Y-112251000D01*
X91031000Y-112228000D01*
X91074000Y-112208000D01*
X91117000Y-112190000D01*
X91162000Y-112174000D01*
X91207000Y-112161000D01*
X91253000Y-112150000D01*
X91299000Y-112141000D01*
X91346000Y-112135000D01*
X91393000Y-112131000D01*
X91440000Y-112130000D01*
X93940000Y-112130000D01*
X93940000Y-113930000D01*
G36*
X93940000Y-134250000D02*
G01*
X91440000Y-134250000D01*
X91393000Y-134249000D01*
X91346000Y-134245000D01*
X91299000Y-134239000D01*
X91253000Y-134230000D01*
X91207000Y-134219000D01*
X91162000Y-134206000D01*
X91117000Y-134190000D01*
X91074000Y-134172000D01*
X91031000Y-134152000D01*
X90990000Y-134129000D01*
X90950000Y-134105000D01*
X90911000Y-134078000D01*
X90874000Y-134049000D01*
X90838000Y-134019000D01*
X90804000Y-133986000D01*
X90771000Y-133952000D01*
X90741000Y-133916000D01*
X90712000Y-133879000D01*
X90685000Y-133840000D01*
X90661000Y-133800000D01*
X90638000Y-133759000D01*
X90618000Y-133716000D01*
X90600000Y-133673000D01*
X90584000Y-133628000D01*
X90571000Y-133583000D01*
X90560000Y-133537000D01*
X90551000Y-133491000D01*
X90545000Y-133444000D01*
X90541000Y-133397000D01*
X90540000Y-133350000D01*
X90541000Y-133303000D01*
X90545000Y-133256000D01*
X90551000Y-133209000D01*
X90560000Y-133163000D01*
X90571000Y-133117000D01*
X90584000Y-133072000D01*
X90600000Y-133027000D01*
X90618000Y-132984000D01*
X90638000Y-132941000D01*
X90661000Y-132900000D01*
X90685000Y-132860000D01*
X90712000Y-132821000D01*
X90741000Y-132784000D01*
X90771000Y-132748000D01*
X90804000Y-132714000D01*
X90838000Y-132681000D01*
X90874000Y-132651000D01*
X90911000Y-132622000D01*
X90950000Y-132595000D01*
X90990000Y-132571000D01*
X91031000Y-132548000D01*
X91074000Y-132528000D01*
X91117000Y-132510000D01*
X91162000Y-132494000D01*
X91207000Y-132481000D01*
X91253000Y-132470000D01*
X91299000Y-132461000D01*
X91346000Y-132455000D01*
X91393000Y-132451000D01*
X91440000Y-132450000D01*
X93940000Y-132450000D01*
X93940000Y-134250000D01*
G37*
X93940000Y-134250000D02*
X91440000Y-134250000D01*
X91393000Y-134249000D01*
X91346000Y-134245000D01*
X91299000Y-134239000D01*
X91253000Y-134230000D01*
X91207000Y-134219000D01*
X91162000Y-134206000D01*
X91117000Y-134190000D01*
X91074000Y-134172000D01*
X91031000Y-134152000D01*
X90990000Y-134129000D01*
X90950000Y-134105000D01*
X90911000Y-134078000D01*
X90874000Y-134049000D01*
X90838000Y-134019000D01*
X90804000Y-133986000D01*
X90771000Y-133952000D01*
X90741000Y-133916000D01*
X90712000Y-133879000D01*
X90685000Y-133840000D01*
X90661000Y-133800000D01*
X90638000Y-133759000D01*
X90618000Y-133716000D01*
X90600000Y-133673000D01*
X90584000Y-133628000D01*
X90571000Y-133583000D01*
X90560000Y-133537000D01*
X90551000Y-133491000D01*
X90545000Y-133444000D01*
X90541000Y-133397000D01*
X90540000Y-133350000D01*
X90541000Y-133303000D01*
X90545000Y-133256000D01*
X90551000Y-133209000D01*
X90560000Y-133163000D01*
X90571000Y-133117000D01*
X90584000Y-133072000D01*
X90600000Y-133027000D01*
X90618000Y-132984000D01*
X90638000Y-132941000D01*
X90661000Y-132900000D01*
X90685000Y-132860000D01*
X90712000Y-132821000D01*
X90741000Y-132784000D01*
X90771000Y-132748000D01*
X90804000Y-132714000D01*
X90838000Y-132681000D01*
X90874000Y-132651000D01*
X90911000Y-132622000D01*
X90950000Y-132595000D01*
X90990000Y-132571000D01*
X91031000Y-132548000D01*
X91074000Y-132528000D01*
X91117000Y-132510000D01*
X91162000Y-132494000D01*
X91207000Y-132481000D01*
X91253000Y-132470000D01*
X91299000Y-132461000D01*
X91346000Y-132455000D01*
X91393000Y-132451000D01*
X91440000Y-132450000D01*
X93940000Y-132450000D01*
X93940000Y-134250000D01*
G36*
X93940000Y-106310000D02*
G01*
X91440000Y-106310000D01*
X91393000Y-106309000D01*
X91346000Y-106305000D01*
X91299000Y-106299000D01*
X91253000Y-106290000D01*
X91207000Y-106279000D01*
X91162000Y-106266000D01*
X91117000Y-106250000D01*
X91074000Y-106232000D01*
X91031000Y-106212000D01*
X90990000Y-106189000D01*
X90950000Y-106165000D01*
X90911000Y-106138000D01*
X90874000Y-106109000D01*
X90838000Y-106079000D01*
X90804000Y-106046000D01*
X90771000Y-106012000D01*
X90741000Y-105976000D01*
X90712000Y-105939000D01*
X90685000Y-105900000D01*
X90661000Y-105860000D01*
X90638000Y-105819000D01*
X90618000Y-105776000D01*
X90600000Y-105733000D01*
X90584000Y-105688000D01*
X90571000Y-105643000D01*
X90560000Y-105597000D01*
X90551000Y-105551000D01*
X90545000Y-105504000D01*
X90541000Y-105457000D01*
X90540000Y-105410000D01*
X90541000Y-105363000D01*
X90545000Y-105316000D01*
X90551000Y-105269000D01*
X90560000Y-105223000D01*
X90571000Y-105177000D01*
X90584000Y-105132000D01*
X90600000Y-105087000D01*
X90618000Y-105044000D01*
X90638000Y-105001000D01*
X90661000Y-104960000D01*
X90685000Y-104920000D01*
X90712000Y-104881000D01*
X90741000Y-104844000D01*
X90771000Y-104808000D01*
X90804000Y-104774000D01*
X90838000Y-104741000D01*
X90874000Y-104711000D01*
X90911000Y-104682000D01*
X90950000Y-104655000D01*
X90990000Y-104631000D01*
X91031000Y-104608000D01*
X91074000Y-104588000D01*
X91117000Y-104570000D01*
X91162000Y-104554000D01*
X91207000Y-104541000D01*
X91253000Y-104530000D01*
X91299000Y-104521000D01*
X91346000Y-104515000D01*
X91393000Y-104511000D01*
X91440000Y-104510000D01*
X93940000Y-104510000D01*
X93940000Y-106310000D01*
G37*
X93940000Y-106310000D02*
X91440000Y-106310000D01*
X91393000Y-106309000D01*
X91346000Y-106305000D01*
X91299000Y-106299000D01*
X91253000Y-106290000D01*
X91207000Y-106279000D01*
X91162000Y-106266000D01*
X91117000Y-106250000D01*
X91074000Y-106232000D01*
X91031000Y-106212000D01*
X90990000Y-106189000D01*
X90950000Y-106165000D01*
X90911000Y-106138000D01*
X90874000Y-106109000D01*
X90838000Y-106079000D01*
X90804000Y-106046000D01*
X90771000Y-106012000D01*
X90741000Y-105976000D01*
X90712000Y-105939000D01*
X90685000Y-105900000D01*
X90661000Y-105860000D01*
X90638000Y-105819000D01*
X90618000Y-105776000D01*
X90600000Y-105733000D01*
X90584000Y-105688000D01*
X90571000Y-105643000D01*
X90560000Y-105597000D01*
X90551000Y-105551000D01*
X90545000Y-105504000D01*
X90541000Y-105457000D01*
X90540000Y-105410000D01*
X90541000Y-105363000D01*
X90545000Y-105316000D01*
X90551000Y-105269000D01*
X90560000Y-105223000D01*
X90571000Y-105177000D01*
X90584000Y-105132000D01*
X90600000Y-105087000D01*
X90618000Y-105044000D01*
X90638000Y-105001000D01*
X90661000Y-104960000D01*
X90685000Y-104920000D01*
X90712000Y-104881000D01*
X90741000Y-104844000D01*
X90771000Y-104808000D01*
X90804000Y-104774000D01*
X90838000Y-104741000D01*
X90874000Y-104711000D01*
X90911000Y-104682000D01*
X90950000Y-104655000D01*
X90990000Y-104631000D01*
X91031000Y-104608000D01*
X91074000Y-104588000D01*
X91117000Y-104570000D01*
X91162000Y-104554000D01*
X91207000Y-104541000D01*
X91253000Y-104530000D01*
X91299000Y-104521000D01*
X91346000Y-104515000D01*
X91393000Y-104511000D01*
X91440000Y-104510000D01*
X93940000Y-104510000D01*
X93940000Y-106310000D01*
G36*
X73707000Y-129911000D02*
G01*
X73754000Y-129915000D01*
X73801000Y-129921000D01*
X73847000Y-129930000D01*
X73893000Y-129941000D01*
X73938000Y-129954000D01*
X73983000Y-129970000D01*
X74026000Y-129988000D01*
X74069000Y-130008000D01*
X74110000Y-130031000D01*
X74150000Y-130055000D01*
X74189000Y-130082000D01*
X74226000Y-130111000D01*
X74262000Y-130141000D01*
X74296000Y-130174000D01*
X74329000Y-130208000D01*
X74359000Y-130244000D01*
X74388000Y-130281000D01*
X74415000Y-130320000D01*
X74439000Y-130360000D01*
X74462000Y-130401000D01*
X74482000Y-130444000D01*
X74500000Y-130487000D01*
X74516000Y-130532000D01*
X74529000Y-130577000D01*
X74540000Y-130623000D01*
X74549000Y-130669000D01*
X74555000Y-130716000D01*
X74559000Y-130763000D01*
X74560000Y-130810000D01*
X74559000Y-130857000D01*
X74555000Y-130904000D01*
X74549000Y-130951000D01*
X74540000Y-130997000D01*
X74529000Y-131043000D01*
X74516000Y-131088000D01*
X74500000Y-131133000D01*
X74482000Y-131176000D01*
X74462000Y-131219000D01*
X74439000Y-131260000D01*
X74415000Y-131300000D01*
X74388000Y-131339000D01*
X74359000Y-131376000D01*
X74329000Y-131412000D01*
X74296000Y-131446000D01*
X74262000Y-131479000D01*
X74226000Y-131509000D01*
X74189000Y-131538000D01*
X74150000Y-131565000D01*
X74110000Y-131589000D01*
X74069000Y-131612000D01*
X74026000Y-131632000D01*
X73983000Y-131650000D01*
X73938000Y-131666000D01*
X73893000Y-131679000D01*
X73847000Y-131690000D01*
X73801000Y-131699000D01*
X73754000Y-131705000D01*
X73707000Y-131709000D01*
X73660000Y-131710000D01*
X71160000Y-131710000D01*
X71160000Y-129910000D01*
X73660000Y-129910000D01*
X73707000Y-129911000D01*
G37*
X73707000Y-129911000D02*
X73754000Y-129915000D01*
X73801000Y-129921000D01*
X73847000Y-129930000D01*
X73893000Y-129941000D01*
X73938000Y-129954000D01*
X73983000Y-129970000D01*
X74026000Y-129988000D01*
X74069000Y-130008000D01*
X74110000Y-130031000D01*
X74150000Y-130055000D01*
X74189000Y-130082000D01*
X74226000Y-130111000D01*
X74262000Y-130141000D01*
X74296000Y-130174000D01*
X74329000Y-130208000D01*
X74359000Y-130244000D01*
X74388000Y-130281000D01*
X74415000Y-130320000D01*
X74439000Y-130360000D01*
X74462000Y-130401000D01*
X74482000Y-130444000D01*
X74500000Y-130487000D01*
X74516000Y-130532000D01*
X74529000Y-130577000D01*
X74540000Y-130623000D01*
X74549000Y-130669000D01*
X74555000Y-130716000D01*
X74559000Y-130763000D01*
X74560000Y-130810000D01*
X74559000Y-130857000D01*
X74555000Y-130904000D01*
X74549000Y-130951000D01*
X74540000Y-130997000D01*
X74529000Y-131043000D01*
X74516000Y-131088000D01*
X74500000Y-131133000D01*
X74482000Y-131176000D01*
X74462000Y-131219000D01*
X74439000Y-131260000D01*
X74415000Y-131300000D01*
X74388000Y-131339000D01*
X74359000Y-131376000D01*
X74329000Y-131412000D01*
X74296000Y-131446000D01*
X74262000Y-131479000D01*
X74226000Y-131509000D01*
X74189000Y-131538000D01*
X74150000Y-131565000D01*
X74110000Y-131589000D01*
X74069000Y-131612000D01*
X74026000Y-131632000D01*
X73983000Y-131650000D01*
X73938000Y-131666000D01*
X73893000Y-131679000D01*
X73847000Y-131690000D01*
X73801000Y-131699000D01*
X73754000Y-131705000D01*
X73707000Y-131709000D01*
X73660000Y-131710000D01*
X71160000Y-131710000D01*
X71160000Y-129910000D01*
X73660000Y-129910000D01*
X73707000Y-129911000D01*
G36*
X83181000Y-139842000D02*
G01*
X83197000Y-139844000D01*
X83212000Y-139847000D01*
X83228000Y-139850000D01*
X83258000Y-139860000D01*
X83272000Y-139866000D01*
X83300000Y-139880000D01*
X83313000Y-139888000D01*
X83326000Y-139897000D01*
X83339000Y-139907000D01*
X83351000Y-139917000D01*
X83373000Y-139939000D01*
X83383000Y-139951000D01*
X83393000Y-139964000D01*
X83402000Y-139977000D01*
X83410000Y-139990000D01*
X83424000Y-140018000D01*
X83430000Y-140032000D01*
X83440000Y-140062000D01*
X83443000Y-140078000D01*
X83446000Y-140093000D01*
X83448000Y-140109000D01*
X83450000Y-140124000D01*
X83450000Y-143240000D01*
X81650000Y-143240000D01*
X81650000Y-140124000D01*
X81652000Y-140109000D01*
X81654000Y-140093000D01*
X81657000Y-140078000D01*
X81660000Y-140062000D01*
X81670000Y-140032000D01*
X81676000Y-140018000D01*
X81690000Y-139990000D01*
X81698000Y-139977000D01*
X81707000Y-139964000D01*
X81717000Y-139951000D01*
X81727000Y-139939000D01*
X81749000Y-139917000D01*
X81761000Y-139907000D01*
X81774000Y-139897000D01*
X81787000Y-139888000D01*
X81800000Y-139880000D01*
X81828000Y-139866000D01*
X81842000Y-139860000D01*
X81872000Y-139850000D01*
X81888000Y-139847000D01*
X81903000Y-139844000D01*
X81919000Y-139842000D01*
X81934000Y-139840000D01*
X83166000Y-139840000D01*
X83181000Y-139842000D01*
G37*
X83181000Y-139842000D02*
X83197000Y-139844000D01*
X83212000Y-139847000D01*
X83228000Y-139850000D01*
X83258000Y-139860000D01*
X83272000Y-139866000D01*
X83300000Y-139880000D01*
X83313000Y-139888000D01*
X83326000Y-139897000D01*
X83339000Y-139907000D01*
X83351000Y-139917000D01*
X83373000Y-139939000D01*
X83383000Y-139951000D01*
X83393000Y-139964000D01*
X83402000Y-139977000D01*
X83410000Y-139990000D01*
X83424000Y-140018000D01*
X83430000Y-140032000D01*
X83440000Y-140062000D01*
X83443000Y-140078000D01*
X83446000Y-140093000D01*
X83448000Y-140109000D01*
X83450000Y-140124000D01*
X83450000Y-143240000D01*
X81650000Y-143240000D01*
X81650000Y-140124000D01*
X81652000Y-140109000D01*
X81654000Y-140093000D01*
X81657000Y-140078000D01*
X81660000Y-140062000D01*
X81670000Y-140032000D01*
X81676000Y-140018000D01*
X81690000Y-139990000D01*
X81698000Y-139977000D01*
X81707000Y-139964000D01*
X81717000Y-139951000D01*
X81727000Y-139939000D01*
X81749000Y-139917000D01*
X81761000Y-139907000D01*
X81774000Y-139897000D01*
X81787000Y-139888000D01*
X81800000Y-139880000D01*
X81828000Y-139866000D01*
X81842000Y-139860000D01*
X81872000Y-139850000D01*
X81888000Y-139847000D01*
X81903000Y-139844000D01*
X81919000Y-139842000D01*
X81934000Y-139840000D01*
X83166000Y-139840000D01*
X83181000Y-139842000D01*
G36*
X73707000Y-127371000D02*
G01*
X73754000Y-127375000D01*
X73801000Y-127381000D01*
X73847000Y-127390000D01*
X73893000Y-127401000D01*
X73938000Y-127414000D01*
X73983000Y-127430000D01*
X74026000Y-127448000D01*
X74069000Y-127468000D01*
X74110000Y-127491000D01*
X74150000Y-127515000D01*
X74189000Y-127542000D01*
X74226000Y-127571000D01*
X74262000Y-127601000D01*
X74296000Y-127634000D01*
X74329000Y-127668000D01*
X74359000Y-127704000D01*
X74388000Y-127741000D01*
X74415000Y-127780000D01*
X74439000Y-127820000D01*
X74462000Y-127861000D01*
X74482000Y-127904000D01*
X74500000Y-127947000D01*
X74516000Y-127992000D01*
X74529000Y-128037000D01*
X74540000Y-128083000D01*
X74549000Y-128129000D01*
X74555000Y-128176000D01*
X74559000Y-128223000D01*
X74560000Y-128270000D01*
X74559000Y-128317000D01*
X74555000Y-128364000D01*
X74549000Y-128411000D01*
X74540000Y-128457000D01*
X74529000Y-128503000D01*
X74516000Y-128548000D01*
X74500000Y-128593000D01*
X74482000Y-128636000D01*
X74462000Y-128679000D01*
X74439000Y-128720000D01*
X74415000Y-128760000D01*
X74388000Y-128799000D01*
X74359000Y-128836000D01*
X74329000Y-128872000D01*
X74296000Y-128906000D01*
X74262000Y-128939000D01*
X74226000Y-128969000D01*
X74189000Y-128998000D01*
X74150000Y-129025000D01*
X74110000Y-129049000D01*
X74069000Y-129072000D01*
X74026000Y-129092000D01*
X73983000Y-129110000D01*
X73938000Y-129126000D01*
X73893000Y-129139000D01*
X73847000Y-129150000D01*
X73801000Y-129159000D01*
X73754000Y-129165000D01*
X73707000Y-129169000D01*
X73660000Y-129170000D01*
X71160000Y-129170000D01*
X71160000Y-127370000D01*
X73660000Y-127370000D01*
X73707000Y-127371000D01*
G37*
X73707000Y-127371000D02*
X73754000Y-127375000D01*
X73801000Y-127381000D01*
X73847000Y-127390000D01*
X73893000Y-127401000D01*
X73938000Y-127414000D01*
X73983000Y-127430000D01*
X74026000Y-127448000D01*
X74069000Y-127468000D01*
X74110000Y-127491000D01*
X74150000Y-127515000D01*
X74189000Y-127542000D01*
X74226000Y-127571000D01*
X74262000Y-127601000D01*
X74296000Y-127634000D01*
X74329000Y-127668000D01*
X74359000Y-127704000D01*
X74388000Y-127741000D01*
X74415000Y-127780000D01*
X74439000Y-127820000D01*
X74462000Y-127861000D01*
X74482000Y-127904000D01*
X74500000Y-127947000D01*
X74516000Y-127992000D01*
X74529000Y-128037000D01*
X74540000Y-128083000D01*
X74549000Y-128129000D01*
X74555000Y-128176000D01*
X74559000Y-128223000D01*
X74560000Y-128270000D01*
X74559000Y-128317000D01*
X74555000Y-128364000D01*
X74549000Y-128411000D01*
X74540000Y-128457000D01*
X74529000Y-128503000D01*
X74516000Y-128548000D01*
X74500000Y-128593000D01*
X74482000Y-128636000D01*
X74462000Y-128679000D01*
X74439000Y-128720000D01*
X74415000Y-128760000D01*
X74388000Y-128799000D01*
X74359000Y-128836000D01*
X74329000Y-128872000D01*
X74296000Y-128906000D01*
X74262000Y-128939000D01*
X74226000Y-128969000D01*
X74189000Y-128998000D01*
X74150000Y-129025000D01*
X74110000Y-129049000D01*
X74069000Y-129072000D01*
X74026000Y-129092000D01*
X73983000Y-129110000D01*
X73938000Y-129126000D01*
X73893000Y-129139000D01*
X73847000Y-129150000D01*
X73801000Y-129159000D01*
X73754000Y-129165000D01*
X73707000Y-129169000D01*
X73660000Y-129170000D01*
X71160000Y-129170000D01*
X71160000Y-127370000D01*
X73660000Y-127370000D01*
X73707000Y-127371000D01*
G36*
X73707000Y-99431000D02*
G01*
X73754000Y-99435000D01*
X73801000Y-99441000D01*
X73847000Y-99450000D01*
X73893000Y-99461000D01*
X73938000Y-99474000D01*
X73983000Y-99490000D01*
X74026000Y-99508000D01*
X74069000Y-99528000D01*
X74110000Y-99551000D01*
X74150000Y-99575000D01*
X74189000Y-99602000D01*
X74226000Y-99631000D01*
X74262000Y-99661000D01*
X74296000Y-99694000D01*
X74329000Y-99728000D01*
X74359000Y-99764000D01*
X74388000Y-99801000D01*
X74415000Y-99840000D01*
X74439000Y-99880000D01*
X74462000Y-99921000D01*
X74482000Y-99964000D01*
X74500000Y-100007000D01*
X74516000Y-100052000D01*
X74529000Y-100097000D01*
X74540000Y-100143000D01*
X74549000Y-100189000D01*
X74555000Y-100236000D01*
X74559000Y-100283000D01*
X74560000Y-100330000D01*
X74559000Y-100377000D01*
X74555000Y-100424000D01*
X74549000Y-100471000D01*
X74540000Y-100517000D01*
X74529000Y-100563000D01*
X74516000Y-100608000D01*
X74500000Y-100653000D01*
X74482000Y-100696000D01*
X74462000Y-100739000D01*
X74439000Y-100780000D01*
X74415000Y-100820000D01*
X74388000Y-100859000D01*
X74359000Y-100896000D01*
X74329000Y-100932000D01*
X74296000Y-100966000D01*
X74262000Y-100999000D01*
X74226000Y-101029000D01*
X74189000Y-101058000D01*
X74150000Y-101085000D01*
X74110000Y-101109000D01*
X74069000Y-101132000D01*
X74026000Y-101152000D01*
X73983000Y-101170000D01*
X73938000Y-101186000D01*
X73893000Y-101199000D01*
X73847000Y-101210000D01*
X73801000Y-101219000D01*
X73754000Y-101225000D01*
X73707000Y-101229000D01*
X73660000Y-101230000D01*
X71160000Y-101230000D01*
X71160000Y-99430000D01*
X73660000Y-99430000D01*
X73707000Y-99431000D01*
G37*
X73707000Y-99431000D02*
X73754000Y-99435000D01*
X73801000Y-99441000D01*
X73847000Y-99450000D01*
X73893000Y-99461000D01*
X73938000Y-99474000D01*
X73983000Y-99490000D01*
X74026000Y-99508000D01*
X74069000Y-99528000D01*
X74110000Y-99551000D01*
X74150000Y-99575000D01*
X74189000Y-99602000D01*
X74226000Y-99631000D01*
X74262000Y-99661000D01*
X74296000Y-99694000D01*
X74329000Y-99728000D01*
X74359000Y-99764000D01*
X74388000Y-99801000D01*
X74415000Y-99840000D01*
X74439000Y-99880000D01*
X74462000Y-99921000D01*
X74482000Y-99964000D01*
X74500000Y-100007000D01*
X74516000Y-100052000D01*
X74529000Y-100097000D01*
X74540000Y-100143000D01*
X74549000Y-100189000D01*
X74555000Y-100236000D01*
X74559000Y-100283000D01*
X74560000Y-100330000D01*
X74559000Y-100377000D01*
X74555000Y-100424000D01*
X74549000Y-100471000D01*
X74540000Y-100517000D01*
X74529000Y-100563000D01*
X74516000Y-100608000D01*
X74500000Y-100653000D01*
X74482000Y-100696000D01*
X74462000Y-100739000D01*
X74439000Y-100780000D01*
X74415000Y-100820000D01*
X74388000Y-100859000D01*
X74359000Y-100896000D01*
X74329000Y-100932000D01*
X74296000Y-100966000D01*
X74262000Y-100999000D01*
X74226000Y-101029000D01*
X74189000Y-101058000D01*
X74150000Y-101085000D01*
X74110000Y-101109000D01*
X74069000Y-101132000D01*
X74026000Y-101152000D01*
X73983000Y-101170000D01*
X73938000Y-101186000D01*
X73893000Y-101199000D01*
X73847000Y-101210000D01*
X73801000Y-101219000D01*
X73754000Y-101225000D01*
X73707000Y-101229000D01*
X73660000Y-101230000D01*
X71160000Y-101230000D01*
X71160000Y-99430000D01*
X73660000Y-99430000D01*
X73707000Y-99431000D01*
G36*
X93940000Y-136790000D02*
G01*
X90824000Y-136790000D01*
X90809000Y-136788000D01*
X90793000Y-136786000D01*
X90778000Y-136783000D01*
X90762000Y-136780000D01*
X90732000Y-136770000D01*
X90718000Y-136764000D01*
X90690000Y-136750000D01*
X90677000Y-136742000D01*
X90664000Y-136733000D01*
X90651000Y-136723000D01*
X90639000Y-136713000D01*
X90617000Y-136691000D01*
X90607000Y-136679000D01*
X90597000Y-136666000D01*
X90588000Y-136653000D01*
X90580000Y-136640000D01*
X90566000Y-136612000D01*
X90560000Y-136598000D01*
X90550000Y-136568000D01*
X90547000Y-136552000D01*
X90544000Y-136537000D01*
X90542000Y-136521000D01*
X90540000Y-136506000D01*
X90540000Y-135274000D01*
X90542000Y-135259000D01*
X90544000Y-135243000D01*
X90547000Y-135228000D01*
X90550000Y-135212000D01*
X90560000Y-135182000D01*
X90566000Y-135168000D01*
X90580000Y-135140000D01*
X90588000Y-135127000D01*
X90597000Y-135114000D01*
X90607000Y-135101000D01*
X90617000Y-135089000D01*
X90639000Y-135067000D01*
X90651000Y-135057000D01*
X90664000Y-135047000D01*
X90677000Y-135038000D01*
X90690000Y-135030000D01*
X90718000Y-135016000D01*
X90732000Y-135010000D01*
X90762000Y-135000000D01*
X90778000Y-134997000D01*
X90793000Y-134994000D01*
X90809000Y-134992000D01*
X90824000Y-134990000D01*
X93940000Y-134990000D01*
X93940000Y-136790000D01*
G37*
X93940000Y-136790000D02*
X90824000Y-136790000D01*
X90809000Y-136788000D01*
X90793000Y-136786000D01*
X90778000Y-136783000D01*
X90762000Y-136780000D01*
X90732000Y-136770000D01*
X90718000Y-136764000D01*
X90690000Y-136750000D01*
X90677000Y-136742000D01*
X90664000Y-136733000D01*
X90651000Y-136723000D01*
X90639000Y-136713000D01*
X90617000Y-136691000D01*
X90607000Y-136679000D01*
X90597000Y-136666000D01*
X90588000Y-136653000D01*
X90580000Y-136640000D01*
X90566000Y-136612000D01*
X90560000Y-136598000D01*
X90550000Y-136568000D01*
X90547000Y-136552000D01*
X90544000Y-136537000D01*
X90542000Y-136521000D01*
X90540000Y-136506000D01*
X90540000Y-135274000D01*
X90542000Y-135259000D01*
X90544000Y-135243000D01*
X90547000Y-135228000D01*
X90550000Y-135212000D01*
X90560000Y-135182000D01*
X90566000Y-135168000D01*
X90580000Y-135140000D01*
X90588000Y-135127000D01*
X90597000Y-135114000D01*
X90607000Y-135101000D01*
X90617000Y-135089000D01*
X90639000Y-135067000D01*
X90651000Y-135057000D01*
X90664000Y-135047000D01*
X90677000Y-135038000D01*
X90690000Y-135030000D01*
X90718000Y-135016000D01*
X90732000Y-135010000D01*
X90762000Y-135000000D01*
X90778000Y-134997000D01*
X90793000Y-134994000D01*
X90809000Y-134992000D01*
X90824000Y-134990000D01*
X93940000Y-134990000D01*
X93940000Y-136790000D01*
G36*
X93940000Y-121550000D02*
G01*
X91440000Y-121550000D01*
X91393000Y-121549000D01*
X91346000Y-121545000D01*
X91299000Y-121539000D01*
X91253000Y-121530000D01*
X91207000Y-121519000D01*
X91162000Y-121506000D01*
X91117000Y-121490000D01*
X91074000Y-121472000D01*
X91031000Y-121452000D01*
X90990000Y-121429000D01*
X90950000Y-121405000D01*
X90911000Y-121378000D01*
X90874000Y-121349000D01*
X90838000Y-121319000D01*
X90804000Y-121286000D01*
X90771000Y-121252000D01*
X90741000Y-121216000D01*
X90712000Y-121179000D01*
X90685000Y-121140000D01*
X90661000Y-121100000D01*
X90638000Y-121059000D01*
X90618000Y-121016000D01*
X90600000Y-120973000D01*
X90584000Y-120928000D01*
X90571000Y-120883000D01*
X90560000Y-120837000D01*
X90551000Y-120791000D01*
X90545000Y-120744000D01*
X90541000Y-120697000D01*
X90540000Y-120650000D01*
X90541000Y-120603000D01*
X90545000Y-120556000D01*
X90551000Y-120509000D01*
X90560000Y-120463000D01*
X90571000Y-120417000D01*
X90584000Y-120372000D01*
X90600000Y-120327000D01*
X90618000Y-120284000D01*
X90638000Y-120241000D01*
X90661000Y-120200000D01*
X90685000Y-120160000D01*
X90712000Y-120121000D01*
X90741000Y-120084000D01*
X90771000Y-120048000D01*
X90804000Y-120014000D01*
X90838000Y-119981000D01*
X90874000Y-119951000D01*
X90911000Y-119922000D01*
X90950000Y-119895000D01*
X90990000Y-119871000D01*
X91031000Y-119848000D01*
X91074000Y-119828000D01*
X91117000Y-119810000D01*
X91162000Y-119794000D01*
X91207000Y-119781000D01*
X91253000Y-119770000D01*
X91299000Y-119761000D01*
X91346000Y-119755000D01*
X91393000Y-119751000D01*
X91440000Y-119750000D01*
X93940000Y-119750000D01*
X93940000Y-121550000D01*
G37*
X93940000Y-121550000D02*
X91440000Y-121550000D01*
X91393000Y-121549000D01*
X91346000Y-121545000D01*
X91299000Y-121539000D01*
X91253000Y-121530000D01*
X91207000Y-121519000D01*
X91162000Y-121506000D01*
X91117000Y-121490000D01*
X91074000Y-121472000D01*
X91031000Y-121452000D01*
X90990000Y-121429000D01*
X90950000Y-121405000D01*
X90911000Y-121378000D01*
X90874000Y-121349000D01*
X90838000Y-121319000D01*
X90804000Y-121286000D01*
X90771000Y-121252000D01*
X90741000Y-121216000D01*
X90712000Y-121179000D01*
X90685000Y-121140000D01*
X90661000Y-121100000D01*
X90638000Y-121059000D01*
X90618000Y-121016000D01*
X90600000Y-120973000D01*
X90584000Y-120928000D01*
X90571000Y-120883000D01*
X90560000Y-120837000D01*
X90551000Y-120791000D01*
X90545000Y-120744000D01*
X90541000Y-120697000D01*
X90540000Y-120650000D01*
X90541000Y-120603000D01*
X90545000Y-120556000D01*
X90551000Y-120509000D01*
X90560000Y-120463000D01*
X90571000Y-120417000D01*
X90584000Y-120372000D01*
X90600000Y-120327000D01*
X90618000Y-120284000D01*
X90638000Y-120241000D01*
X90661000Y-120200000D01*
X90685000Y-120160000D01*
X90712000Y-120121000D01*
X90741000Y-120084000D01*
X90771000Y-120048000D01*
X90804000Y-120014000D01*
X90838000Y-119981000D01*
X90874000Y-119951000D01*
X90911000Y-119922000D01*
X90950000Y-119895000D01*
X90990000Y-119871000D01*
X91031000Y-119848000D01*
X91074000Y-119828000D01*
X91117000Y-119810000D01*
X91162000Y-119794000D01*
X91207000Y-119781000D01*
X91253000Y-119770000D01*
X91299000Y-119761000D01*
X91346000Y-119755000D01*
X91393000Y-119751000D01*
X91440000Y-119750000D01*
X93940000Y-119750000D01*
X93940000Y-121550000D01*
G36*
X74291000Y-109592000D02*
G01*
X74307000Y-109594000D01*
X74322000Y-109597000D01*
X74338000Y-109600000D01*
X74368000Y-109610000D01*
X74382000Y-109616000D01*
X74410000Y-109630000D01*
X74423000Y-109638000D01*
X74436000Y-109647000D01*
X74449000Y-109657000D01*
X74461000Y-109667000D01*
X74483000Y-109689000D01*
X74493000Y-109701000D01*
X74503000Y-109714000D01*
X74512000Y-109727000D01*
X74520000Y-109740000D01*
X74534000Y-109768000D01*
X74540000Y-109782000D01*
X74550000Y-109812000D01*
X74553000Y-109828000D01*
X74556000Y-109843000D01*
X74558000Y-109859000D01*
X74560000Y-109874000D01*
X74560000Y-111106000D01*
X74558000Y-111121000D01*
X74556000Y-111137000D01*
X74553000Y-111152000D01*
X74550000Y-111168000D01*
X74540000Y-111198000D01*
X74534000Y-111212000D01*
X74520000Y-111240000D01*
X74512000Y-111253000D01*
X74503000Y-111266000D01*
X74493000Y-111279000D01*
X74483000Y-111291000D01*
X74461000Y-111313000D01*
X74449000Y-111323000D01*
X74436000Y-111333000D01*
X74423000Y-111342000D01*
X74410000Y-111350000D01*
X74382000Y-111364000D01*
X74368000Y-111370000D01*
X74338000Y-111380000D01*
X74322000Y-111383000D01*
X74307000Y-111386000D01*
X74291000Y-111388000D01*
X74276000Y-111390000D01*
X71160000Y-111390000D01*
X71160000Y-109590000D01*
X74276000Y-109590000D01*
X74291000Y-109592000D01*
G37*
X74291000Y-109592000D02*
X74307000Y-109594000D01*
X74322000Y-109597000D01*
X74338000Y-109600000D01*
X74368000Y-109610000D01*
X74382000Y-109616000D01*
X74410000Y-109630000D01*
X74423000Y-109638000D01*
X74436000Y-109647000D01*
X74449000Y-109657000D01*
X74461000Y-109667000D01*
X74483000Y-109689000D01*
X74493000Y-109701000D01*
X74503000Y-109714000D01*
X74512000Y-109727000D01*
X74520000Y-109740000D01*
X74534000Y-109768000D01*
X74540000Y-109782000D01*
X74550000Y-109812000D01*
X74553000Y-109828000D01*
X74556000Y-109843000D01*
X74558000Y-109859000D01*
X74560000Y-109874000D01*
X74560000Y-111106000D01*
X74558000Y-111121000D01*
X74556000Y-111137000D01*
X74553000Y-111152000D01*
X74550000Y-111168000D01*
X74540000Y-111198000D01*
X74534000Y-111212000D01*
X74520000Y-111240000D01*
X74512000Y-111253000D01*
X74503000Y-111266000D01*
X74493000Y-111279000D01*
X74483000Y-111291000D01*
X74461000Y-111313000D01*
X74449000Y-111323000D01*
X74436000Y-111333000D01*
X74423000Y-111342000D01*
X74410000Y-111350000D01*
X74382000Y-111364000D01*
X74368000Y-111370000D01*
X74338000Y-111380000D01*
X74322000Y-111383000D01*
X74307000Y-111386000D01*
X74291000Y-111388000D01*
X74276000Y-111390000D01*
X71160000Y-111390000D01*
X71160000Y-109590000D01*
X74276000Y-109590000D01*
X74291000Y-109592000D01*
G36*
X93940000Y-141870000D02*
G01*
X91440000Y-141870000D01*
X91393000Y-141869000D01*
X91346000Y-141865000D01*
X91299000Y-141859000D01*
X91253000Y-141850000D01*
X91207000Y-141839000D01*
X91162000Y-141826000D01*
X91117000Y-141810000D01*
X91074000Y-141792000D01*
X91031000Y-141772000D01*
X90990000Y-141749000D01*
X90950000Y-141725000D01*
X90911000Y-141698000D01*
X90874000Y-141669000D01*
X90838000Y-141639000D01*
X90804000Y-141606000D01*
X90771000Y-141572000D01*
X90741000Y-141536000D01*
X90712000Y-141499000D01*
X90685000Y-141460000D01*
X90661000Y-141420000D01*
X90638000Y-141379000D01*
X90618000Y-141336000D01*
X90600000Y-141293000D01*
X90584000Y-141248000D01*
X90571000Y-141203000D01*
X90560000Y-141157000D01*
X90551000Y-141111000D01*
X90545000Y-141064000D01*
X90541000Y-141017000D01*
X90540000Y-140970000D01*
X90541000Y-140923000D01*
X90545000Y-140876000D01*
X90551000Y-140829000D01*
X90560000Y-140783000D01*
X90571000Y-140737000D01*
X90584000Y-140692000D01*
X90600000Y-140647000D01*
X90618000Y-140604000D01*
X90638000Y-140561000D01*
X90661000Y-140520000D01*
X90685000Y-140480000D01*
X90712000Y-140441000D01*
X90741000Y-140404000D01*
X90771000Y-140368000D01*
X90804000Y-140334000D01*
X90838000Y-140301000D01*
X90874000Y-140271000D01*
X90911000Y-140242000D01*
X90950000Y-140215000D01*
X90990000Y-140191000D01*
X91031000Y-140168000D01*
X91074000Y-140148000D01*
X91117000Y-140130000D01*
X91162000Y-140114000D01*
X91207000Y-140101000D01*
X91253000Y-140090000D01*
X91299000Y-140081000D01*
X91346000Y-140075000D01*
X91393000Y-140071000D01*
X91440000Y-140070000D01*
X93940000Y-140070000D01*
X93940000Y-141870000D01*
G37*
X93940000Y-141870000D02*
X91440000Y-141870000D01*
X91393000Y-141869000D01*
X91346000Y-141865000D01*
X91299000Y-141859000D01*
X91253000Y-141850000D01*
X91207000Y-141839000D01*
X91162000Y-141826000D01*
X91117000Y-141810000D01*
X91074000Y-141792000D01*
X91031000Y-141772000D01*
X90990000Y-141749000D01*
X90950000Y-141725000D01*
X90911000Y-141698000D01*
X90874000Y-141669000D01*
X90838000Y-141639000D01*
X90804000Y-141606000D01*
X90771000Y-141572000D01*
X90741000Y-141536000D01*
X90712000Y-141499000D01*
X90685000Y-141460000D01*
X90661000Y-141420000D01*
X90638000Y-141379000D01*
X90618000Y-141336000D01*
X90600000Y-141293000D01*
X90584000Y-141248000D01*
X90571000Y-141203000D01*
X90560000Y-141157000D01*
X90551000Y-141111000D01*
X90545000Y-141064000D01*
X90541000Y-141017000D01*
X90540000Y-140970000D01*
X90541000Y-140923000D01*
X90545000Y-140876000D01*
X90551000Y-140829000D01*
X90560000Y-140783000D01*
X90571000Y-140737000D01*
X90584000Y-140692000D01*
X90600000Y-140647000D01*
X90618000Y-140604000D01*
X90638000Y-140561000D01*
X90661000Y-140520000D01*
X90685000Y-140480000D01*
X90712000Y-140441000D01*
X90741000Y-140404000D01*
X90771000Y-140368000D01*
X90804000Y-140334000D01*
X90838000Y-140301000D01*
X90874000Y-140271000D01*
X90911000Y-140242000D01*
X90950000Y-140215000D01*
X90990000Y-140191000D01*
X91031000Y-140168000D01*
X91074000Y-140148000D01*
X91117000Y-140130000D01*
X91162000Y-140114000D01*
X91207000Y-140101000D01*
X91253000Y-140090000D01*
X91299000Y-140081000D01*
X91346000Y-140075000D01*
X91393000Y-140071000D01*
X91440000Y-140070000D01*
X93940000Y-140070000D01*
X93940000Y-141870000D01*
G36*
X93940000Y-93610000D02*
G01*
X91440000Y-93610000D01*
X91393000Y-93609000D01*
X91346000Y-93605000D01*
X91299000Y-93599000D01*
X91253000Y-93590000D01*
X91207000Y-93579000D01*
X91162000Y-93566000D01*
X91117000Y-93550000D01*
X91074000Y-93532000D01*
X91031000Y-93512000D01*
X90990000Y-93489000D01*
X90950000Y-93465000D01*
X90911000Y-93438000D01*
X90874000Y-93409000D01*
X90838000Y-93379000D01*
X90804000Y-93346000D01*
X90771000Y-93312000D01*
X90741000Y-93276000D01*
X90712000Y-93239000D01*
X90685000Y-93200000D01*
X90661000Y-93160000D01*
X90638000Y-93119000D01*
X90618000Y-93076000D01*
X90600000Y-93033000D01*
X90584000Y-92988000D01*
X90571000Y-92943000D01*
X90560000Y-92897000D01*
X90551000Y-92851000D01*
X90545000Y-92804000D01*
X90541000Y-92757000D01*
X90540000Y-92710000D01*
X90541000Y-92663000D01*
X90545000Y-92616000D01*
X90551000Y-92569000D01*
X90560000Y-92523000D01*
X90571000Y-92477000D01*
X90584000Y-92432000D01*
X90600000Y-92387000D01*
X90618000Y-92344000D01*
X90638000Y-92301000D01*
X90661000Y-92260000D01*
X90685000Y-92220000D01*
X90712000Y-92181000D01*
X90741000Y-92144000D01*
X90771000Y-92108000D01*
X90804000Y-92074000D01*
X90838000Y-92041000D01*
X90874000Y-92011000D01*
X90911000Y-91982000D01*
X90950000Y-91955000D01*
X90990000Y-91931000D01*
X91031000Y-91908000D01*
X91074000Y-91888000D01*
X91117000Y-91870000D01*
X91162000Y-91854000D01*
X91207000Y-91841000D01*
X91253000Y-91830000D01*
X91299000Y-91821000D01*
X91346000Y-91815000D01*
X91393000Y-91811000D01*
X91440000Y-91810000D01*
X93940000Y-91810000D01*
X93940000Y-93610000D01*
G37*
X93940000Y-93610000D02*
X91440000Y-93610000D01*
X91393000Y-93609000D01*
X91346000Y-93605000D01*
X91299000Y-93599000D01*
X91253000Y-93590000D01*
X91207000Y-93579000D01*
X91162000Y-93566000D01*
X91117000Y-93550000D01*
X91074000Y-93532000D01*
X91031000Y-93512000D01*
X90990000Y-93489000D01*
X90950000Y-93465000D01*
X90911000Y-93438000D01*
X90874000Y-93409000D01*
X90838000Y-93379000D01*
X90804000Y-93346000D01*
X90771000Y-93312000D01*
X90741000Y-93276000D01*
X90712000Y-93239000D01*
X90685000Y-93200000D01*
X90661000Y-93160000D01*
X90638000Y-93119000D01*
X90618000Y-93076000D01*
X90600000Y-93033000D01*
X90584000Y-92988000D01*
X90571000Y-92943000D01*
X90560000Y-92897000D01*
X90551000Y-92851000D01*
X90545000Y-92804000D01*
X90541000Y-92757000D01*
X90540000Y-92710000D01*
X90541000Y-92663000D01*
X90545000Y-92616000D01*
X90551000Y-92569000D01*
X90560000Y-92523000D01*
X90571000Y-92477000D01*
X90584000Y-92432000D01*
X90600000Y-92387000D01*
X90618000Y-92344000D01*
X90638000Y-92301000D01*
X90661000Y-92260000D01*
X90685000Y-92220000D01*
X90712000Y-92181000D01*
X90741000Y-92144000D01*
X90771000Y-92108000D01*
X90804000Y-92074000D01*
X90838000Y-92041000D01*
X90874000Y-92011000D01*
X90911000Y-91982000D01*
X90950000Y-91955000D01*
X90990000Y-91931000D01*
X91031000Y-91908000D01*
X91074000Y-91888000D01*
X91117000Y-91870000D01*
X91162000Y-91854000D01*
X91207000Y-91841000D01*
X91253000Y-91830000D01*
X91299000Y-91821000D01*
X91346000Y-91815000D01*
X91393000Y-91811000D01*
X91440000Y-91810000D01*
X93940000Y-91810000D01*
X93940000Y-93610000D01*
G36*
X73707000Y-104511000D02*
G01*
X73754000Y-104515000D01*
X73801000Y-104521000D01*
X73847000Y-104530000D01*
X73893000Y-104541000D01*
X73938000Y-104554000D01*
X73983000Y-104570000D01*
X74026000Y-104588000D01*
X74069000Y-104608000D01*
X74110000Y-104631000D01*
X74150000Y-104655000D01*
X74189000Y-104682000D01*
X74226000Y-104711000D01*
X74262000Y-104741000D01*
X74296000Y-104774000D01*
X74329000Y-104808000D01*
X74359000Y-104844000D01*
X74388000Y-104881000D01*
X74415000Y-104920000D01*
X74439000Y-104960000D01*
X74462000Y-105001000D01*
X74482000Y-105044000D01*
X74500000Y-105087000D01*
X74516000Y-105132000D01*
X74529000Y-105177000D01*
X74540000Y-105223000D01*
X74549000Y-105269000D01*
X74555000Y-105316000D01*
X74559000Y-105363000D01*
X74560000Y-105410000D01*
X74559000Y-105457000D01*
X74555000Y-105504000D01*
X74549000Y-105551000D01*
X74540000Y-105597000D01*
X74529000Y-105643000D01*
X74516000Y-105688000D01*
X74500000Y-105733000D01*
X74482000Y-105776000D01*
X74462000Y-105819000D01*
X74439000Y-105860000D01*
X74415000Y-105900000D01*
X74388000Y-105939000D01*
X74359000Y-105976000D01*
X74329000Y-106012000D01*
X74296000Y-106046000D01*
X74262000Y-106079000D01*
X74226000Y-106109000D01*
X74189000Y-106138000D01*
X74150000Y-106165000D01*
X74110000Y-106189000D01*
X74069000Y-106212000D01*
X74026000Y-106232000D01*
X73983000Y-106250000D01*
X73938000Y-106266000D01*
X73893000Y-106279000D01*
X73847000Y-106290000D01*
X73801000Y-106299000D01*
X73754000Y-106305000D01*
X73707000Y-106309000D01*
X73660000Y-106310000D01*
X71160000Y-106310000D01*
X71160000Y-104510000D01*
X73660000Y-104510000D01*
X73707000Y-104511000D01*
G37*
X73707000Y-104511000D02*
X73754000Y-104515000D01*
X73801000Y-104521000D01*
X73847000Y-104530000D01*
X73893000Y-104541000D01*
X73938000Y-104554000D01*
X73983000Y-104570000D01*
X74026000Y-104588000D01*
X74069000Y-104608000D01*
X74110000Y-104631000D01*
X74150000Y-104655000D01*
X74189000Y-104682000D01*
X74226000Y-104711000D01*
X74262000Y-104741000D01*
X74296000Y-104774000D01*
X74329000Y-104808000D01*
X74359000Y-104844000D01*
X74388000Y-104881000D01*
X74415000Y-104920000D01*
X74439000Y-104960000D01*
X74462000Y-105001000D01*
X74482000Y-105044000D01*
X74500000Y-105087000D01*
X74516000Y-105132000D01*
X74529000Y-105177000D01*
X74540000Y-105223000D01*
X74549000Y-105269000D01*
X74555000Y-105316000D01*
X74559000Y-105363000D01*
X74560000Y-105410000D01*
X74559000Y-105457000D01*
X74555000Y-105504000D01*
X74549000Y-105551000D01*
X74540000Y-105597000D01*
X74529000Y-105643000D01*
X74516000Y-105688000D01*
X74500000Y-105733000D01*
X74482000Y-105776000D01*
X74462000Y-105819000D01*
X74439000Y-105860000D01*
X74415000Y-105900000D01*
X74388000Y-105939000D01*
X74359000Y-105976000D01*
X74329000Y-106012000D01*
X74296000Y-106046000D01*
X74262000Y-106079000D01*
X74226000Y-106109000D01*
X74189000Y-106138000D01*
X74150000Y-106165000D01*
X74110000Y-106189000D01*
X74069000Y-106212000D01*
X74026000Y-106232000D01*
X73983000Y-106250000D01*
X73938000Y-106266000D01*
X73893000Y-106279000D01*
X73847000Y-106290000D01*
X73801000Y-106299000D01*
X73754000Y-106305000D01*
X73707000Y-106309000D01*
X73660000Y-106310000D01*
X71160000Y-106310000D01*
X71160000Y-104510000D01*
X73660000Y-104510000D01*
X73707000Y-104511000D01*
G36*
X93940000Y-129170000D02*
G01*
X91440000Y-129170000D01*
X91393000Y-129169000D01*
X91346000Y-129165000D01*
X91299000Y-129159000D01*
X91253000Y-129150000D01*
X91207000Y-129139000D01*
X91162000Y-129126000D01*
X91117000Y-129110000D01*
X91074000Y-129092000D01*
X91031000Y-129072000D01*
X90990000Y-129049000D01*
X90950000Y-129025000D01*
X90911000Y-128998000D01*
X90874000Y-128969000D01*
X90838000Y-128939000D01*
X90804000Y-128906000D01*
X90771000Y-128872000D01*
X90741000Y-128836000D01*
X90712000Y-128799000D01*
X90685000Y-128760000D01*
X90661000Y-128720000D01*
X90638000Y-128679000D01*
X90618000Y-128636000D01*
X90600000Y-128593000D01*
X90584000Y-128548000D01*
X90571000Y-128503000D01*
X90560000Y-128457000D01*
X90551000Y-128411000D01*
X90545000Y-128364000D01*
X90541000Y-128317000D01*
X90540000Y-128270000D01*
X90541000Y-128223000D01*
X90545000Y-128176000D01*
X90551000Y-128129000D01*
X90560000Y-128083000D01*
X90571000Y-128037000D01*
X90584000Y-127992000D01*
X90600000Y-127947000D01*
X90618000Y-127904000D01*
X90638000Y-127861000D01*
X90661000Y-127820000D01*
X90685000Y-127780000D01*
X90712000Y-127741000D01*
X90741000Y-127704000D01*
X90771000Y-127668000D01*
X90804000Y-127634000D01*
X90838000Y-127601000D01*
X90874000Y-127571000D01*
X90911000Y-127542000D01*
X90950000Y-127515000D01*
X90990000Y-127491000D01*
X91031000Y-127468000D01*
X91074000Y-127448000D01*
X91117000Y-127430000D01*
X91162000Y-127414000D01*
X91207000Y-127401000D01*
X91253000Y-127390000D01*
X91299000Y-127381000D01*
X91346000Y-127375000D01*
X91393000Y-127371000D01*
X91440000Y-127370000D01*
X93940000Y-127370000D01*
X93940000Y-129170000D01*
G37*
X93940000Y-129170000D02*
X91440000Y-129170000D01*
X91393000Y-129169000D01*
X91346000Y-129165000D01*
X91299000Y-129159000D01*
X91253000Y-129150000D01*
X91207000Y-129139000D01*
X91162000Y-129126000D01*
X91117000Y-129110000D01*
X91074000Y-129092000D01*
X91031000Y-129072000D01*
X90990000Y-129049000D01*
X90950000Y-129025000D01*
X90911000Y-128998000D01*
X90874000Y-128969000D01*
X90838000Y-128939000D01*
X90804000Y-128906000D01*
X90771000Y-128872000D01*
X90741000Y-128836000D01*
X90712000Y-128799000D01*
X90685000Y-128760000D01*
X90661000Y-128720000D01*
X90638000Y-128679000D01*
X90618000Y-128636000D01*
X90600000Y-128593000D01*
X90584000Y-128548000D01*
X90571000Y-128503000D01*
X90560000Y-128457000D01*
X90551000Y-128411000D01*
X90545000Y-128364000D01*
X90541000Y-128317000D01*
X90540000Y-128270000D01*
X90541000Y-128223000D01*
X90545000Y-128176000D01*
X90551000Y-128129000D01*
X90560000Y-128083000D01*
X90571000Y-128037000D01*
X90584000Y-127992000D01*
X90600000Y-127947000D01*
X90618000Y-127904000D01*
X90638000Y-127861000D01*
X90661000Y-127820000D01*
X90685000Y-127780000D01*
X90712000Y-127741000D01*
X90741000Y-127704000D01*
X90771000Y-127668000D01*
X90804000Y-127634000D01*
X90838000Y-127601000D01*
X90874000Y-127571000D01*
X90911000Y-127542000D01*
X90950000Y-127515000D01*
X90990000Y-127491000D01*
X91031000Y-127468000D01*
X91074000Y-127448000D01*
X91117000Y-127430000D01*
X91162000Y-127414000D01*
X91207000Y-127401000D01*
X91253000Y-127390000D01*
X91299000Y-127381000D01*
X91346000Y-127375000D01*
X91393000Y-127371000D01*
X91440000Y-127370000D01*
X93940000Y-127370000D01*
X93940000Y-129170000D01*
G36*
X93940000Y-108850000D02*
G01*
X91440000Y-108850000D01*
X91393000Y-108849000D01*
X91346000Y-108845000D01*
X91299000Y-108839000D01*
X91253000Y-108830000D01*
X91207000Y-108819000D01*
X91162000Y-108806000D01*
X91117000Y-108790000D01*
X91074000Y-108772000D01*
X91031000Y-108752000D01*
X90990000Y-108729000D01*
X90950000Y-108705000D01*
X90911000Y-108678000D01*
X90874000Y-108649000D01*
X90838000Y-108619000D01*
X90804000Y-108586000D01*
X90771000Y-108552000D01*
X90741000Y-108516000D01*
X90712000Y-108479000D01*
X90685000Y-108440000D01*
X90661000Y-108400000D01*
X90638000Y-108359000D01*
X90618000Y-108316000D01*
X90600000Y-108273000D01*
X90584000Y-108228000D01*
X90571000Y-108183000D01*
X90560000Y-108137000D01*
X90551000Y-108091000D01*
X90545000Y-108044000D01*
X90541000Y-107997000D01*
X90540000Y-107950000D01*
X90541000Y-107903000D01*
X90545000Y-107856000D01*
X90551000Y-107809000D01*
X90560000Y-107763000D01*
X90571000Y-107717000D01*
X90584000Y-107672000D01*
X90600000Y-107627000D01*
X90618000Y-107584000D01*
X90638000Y-107541000D01*
X90661000Y-107500000D01*
X90685000Y-107460000D01*
X90712000Y-107421000D01*
X90741000Y-107384000D01*
X90771000Y-107348000D01*
X90804000Y-107314000D01*
X90838000Y-107281000D01*
X90874000Y-107251000D01*
X90911000Y-107222000D01*
X90950000Y-107195000D01*
X90990000Y-107171000D01*
X91031000Y-107148000D01*
X91074000Y-107128000D01*
X91117000Y-107110000D01*
X91162000Y-107094000D01*
X91207000Y-107081000D01*
X91253000Y-107070000D01*
X91299000Y-107061000D01*
X91346000Y-107055000D01*
X91393000Y-107051000D01*
X91440000Y-107050000D01*
X93940000Y-107050000D01*
X93940000Y-108850000D01*
G37*
X93940000Y-108850000D02*
X91440000Y-108850000D01*
X91393000Y-108849000D01*
X91346000Y-108845000D01*
X91299000Y-108839000D01*
X91253000Y-108830000D01*
X91207000Y-108819000D01*
X91162000Y-108806000D01*
X91117000Y-108790000D01*
X91074000Y-108772000D01*
X91031000Y-108752000D01*
X90990000Y-108729000D01*
X90950000Y-108705000D01*
X90911000Y-108678000D01*
X90874000Y-108649000D01*
X90838000Y-108619000D01*
X90804000Y-108586000D01*
X90771000Y-108552000D01*
X90741000Y-108516000D01*
X90712000Y-108479000D01*
X90685000Y-108440000D01*
X90661000Y-108400000D01*
X90638000Y-108359000D01*
X90618000Y-108316000D01*
X90600000Y-108273000D01*
X90584000Y-108228000D01*
X90571000Y-108183000D01*
X90560000Y-108137000D01*
X90551000Y-108091000D01*
X90545000Y-108044000D01*
X90541000Y-107997000D01*
X90540000Y-107950000D01*
X90541000Y-107903000D01*
X90545000Y-107856000D01*
X90551000Y-107809000D01*
X90560000Y-107763000D01*
X90571000Y-107717000D01*
X90584000Y-107672000D01*
X90600000Y-107627000D01*
X90618000Y-107584000D01*
X90638000Y-107541000D01*
X90661000Y-107500000D01*
X90685000Y-107460000D01*
X90712000Y-107421000D01*
X90741000Y-107384000D01*
X90771000Y-107348000D01*
X90804000Y-107314000D01*
X90838000Y-107281000D01*
X90874000Y-107251000D01*
X90911000Y-107222000D01*
X90950000Y-107195000D01*
X90990000Y-107171000D01*
X91031000Y-107148000D01*
X91074000Y-107128000D01*
X91117000Y-107110000D01*
X91162000Y-107094000D01*
X91207000Y-107081000D01*
X91253000Y-107070000D01*
X91299000Y-107061000D01*
X91346000Y-107055000D01*
X91393000Y-107051000D01*
X91440000Y-107050000D01*
X93940000Y-107050000D01*
X93940000Y-108850000D01*
G36*
X73707000Y-107051000D02*
G01*
X73754000Y-107055000D01*
X73801000Y-107061000D01*
X73847000Y-107070000D01*
X73893000Y-107081000D01*
X73938000Y-107094000D01*
X73983000Y-107110000D01*
X74026000Y-107128000D01*
X74069000Y-107148000D01*
X74110000Y-107171000D01*
X74150000Y-107195000D01*
X74189000Y-107222000D01*
X74226000Y-107251000D01*
X74262000Y-107281000D01*
X74296000Y-107314000D01*
X74329000Y-107348000D01*
X74359000Y-107384000D01*
X74388000Y-107421000D01*
X74415000Y-107460000D01*
X74439000Y-107500000D01*
X74462000Y-107541000D01*
X74482000Y-107584000D01*
X74500000Y-107627000D01*
X74516000Y-107672000D01*
X74529000Y-107717000D01*
X74540000Y-107763000D01*
X74549000Y-107809000D01*
X74555000Y-107856000D01*
X74559000Y-107903000D01*
X74560000Y-107950000D01*
X74559000Y-107997000D01*
X74555000Y-108044000D01*
X74549000Y-108091000D01*
X74540000Y-108137000D01*
X74529000Y-108183000D01*
X74516000Y-108228000D01*
X74500000Y-108273000D01*
X74482000Y-108316000D01*
X74462000Y-108359000D01*
X74439000Y-108400000D01*
X74415000Y-108440000D01*
X74388000Y-108479000D01*
X74359000Y-108516000D01*
X74329000Y-108552000D01*
X74296000Y-108586000D01*
X74262000Y-108619000D01*
X74226000Y-108649000D01*
X74189000Y-108678000D01*
X74150000Y-108705000D01*
X74110000Y-108729000D01*
X74069000Y-108752000D01*
X74026000Y-108772000D01*
X73983000Y-108790000D01*
X73938000Y-108806000D01*
X73893000Y-108819000D01*
X73847000Y-108830000D01*
X73801000Y-108839000D01*
X73754000Y-108845000D01*
X73707000Y-108849000D01*
X73660000Y-108850000D01*
X71160000Y-108850000D01*
X71160000Y-107050000D01*
X73660000Y-107050000D01*
X73707000Y-107051000D01*
G37*
X73707000Y-107051000D02*
X73754000Y-107055000D01*
X73801000Y-107061000D01*
X73847000Y-107070000D01*
X73893000Y-107081000D01*
X73938000Y-107094000D01*
X73983000Y-107110000D01*
X74026000Y-107128000D01*
X74069000Y-107148000D01*
X74110000Y-107171000D01*
X74150000Y-107195000D01*
X74189000Y-107222000D01*
X74226000Y-107251000D01*
X74262000Y-107281000D01*
X74296000Y-107314000D01*
X74329000Y-107348000D01*
X74359000Y-107384000D01*
X74388000Y-107421000D01*
X74415000Y-107460000D01*
X74439000Y-107500000D01*
X74462000Y-107541000D01*
X74482000Y-107584000D01*
X74500000Y-107627000D01*
X74516000Y-107672000D01*
X74529000Y-107717000D01*
X74540000Y-107763000D01*
X74549000Y-107809000D01*
X74555000Y-107856000D01*
X74559000Y-107903000D01*
X74560000Y-107950000D01*
X74559000Y-107997000D01*
X74555000Y-108044000D01*
X74549000Y-108091000D01*
X74540000Y-108137000D01*
X74529000Y-108183000D01*
X74516000Y-108228000D01*
X74500000Y-108273000D01*
X74482000Y-108316000D01*
X74462000Y-108359000D01*
X74439000Y-108400000D01*
X74415000Y-108440000D01*
X74388000Y-108479000D01*
X74359000Y-108516000D01*
X74329000Y-108552000D01*
X74296000Y-108586000D01*
X74262000Y-108619000D01*
X74226000Y-108649000D01*
X74189000Y-108678000D01*
X74150000Y-108705000D01*
X74110000Y-108729000D01*
X74069000Y-108752000D01*
X74026000Y-108772000D01*
X73983000Y-108790000D01*
X73938000Y-108806000D01*
X73893000Y-108819000D01*
X73847000Y-108830000D01*
X73801000Y-108839000D01*
X73754000Y-108845000D01*
X73707000Y-108849000D01*
X73660000Y-108850000D01*
X71160000Y-108850000D01*
X71160000Y-107050000D01*
X73660000Y-107050000D01*
X73707000Y-107051000D01*
D11*
X156845000Y-97155000D03*
D12*
X152345000Y-97155000D03*
D11*
X156845000Y-137795000D03*
D12*
X152345000Y-137795000D03*
D13*
X102305000Y-115443000D03*
X102305000Y-124587000D03*
D14*
X109305000Y-122555000D03*
X109305000Y-120055000D03*
X109305000Y-117555000D03*
D15*
X104140000Y-132296041D03*
D16*
X104140000Y-137296041D03*
D17*
X147955000Y-126365000D03*
D18*
X155575000Y-126365000D03*
D19*
X126365000Y-127862500D03*
X126365000Y-126137500D03*
D15*
X133350000Y-132296041D03*
D16*
X133350000Y-137296041D03*
D20*
X107950000Y-101610000D03*
X107950000Y-96510000D03*
D21*
X111125000Y-130582500D03*
X111125000Y-132307500D03*
D16*
X142875000Y-95250000D03*
D22*
X142875000Y-115570000D03*
D23*
X114300000Y-94615000D03*
X116840000Y-94615000D03*
X119380000Y-94615000D03*
D24*
X132080000Y-97850000D03*
X132080000Y-105350000D03*
D25*
X124687500Y-124460000D03*
X122962500Y-124460000D03*
D17*
X155575000Y-108585000D03*
D18*
X147955000Y-108585000D03*
D26*
X158775000Y-117557500D03*
X155475000Y-113007500D03*
X150975000Y-122607500D03*
D17*
X146685000Y-130175000D03*
D18*
X159385000Y-130175000D03*
D27*
X95607500Y-139065000D03*
X97432500Y-139065000D03*
D21*
X126365000Y-136932500D03*
X126365000Y-138657500D03*
D27*
X95607500Y-141605000D03*
X97432500Y-141605000D03*
D28*
X95885000Y-133453500D03*
X95885000Y-135278500D03*
D29*
X96700000Y-101290000D03*
D30*
X101600000Y-104240000D03*
D31*
X101600000Y-98240000D03*
D27*
X119102500Y-124460000D03*
X120927500Y-124460000D03*
D21*
X111125000Y-136932500D03*
X111125000Y-138657500D03*
D32*
X113105000Y-126495000D03*
X113105000Y-127145000D03*
X113105000Y-127795000D03*
X113105000Y-128445000D03*
X113105000Y-129095000D03*
X113105000Y-129745000D03*
X113105000Y-130395000D03*
X113105000Y-131045000D03*
X113105000Y-131695000D03*
X113105000Y-132345000D03*
X113105000Y-132995000D03*
X113105000Y-133645000D03*
X113105000Y-134295000D03*
X113105000Y-134945000D03*
X113105000Y-135595000D03*
X113105000Y-136245000D03*
X113105000Y-136895000D03*
X113105000Y-137545000D03*
X113105000Y-138195000D03*
X113105000Y-138845000D03*
X113105000Y-139495000D03*
X113105000Y-140145000D03*
X113105000Y-140795000D03*
X113105000Y-141445000D03*
X113105000Y-142095000D03*
X113105000Y-142745000D03*
X124385000Y-142745000D03*
X124385000Y-142095000D03*
X124385000Y-141445000D03*
X124385000Y-140795000D03*
X124385000Y-140145000D03*
X124385000Y-139495000D03*
X124385000Y-138845000D03*
X124385000Y-138195000D03*
X124385000Y-137545000D03*
X124385000Y-136895000D03*
X124385000Y-136245000D03*
X124385000Y-135595000D03*
X124385000Y-134945000D03*
X124385000Y-134295000D03*
X124385000Y-133645000D03*
X124385000Y-132995000D03*
X124385000Y-132345000D03*
X124385000Y-131695000D03*
X124385000Y-131045000D03*
X124385000Y-130395000D03*
X124385000Y-129745000D03*
X124385000Y-129095000D03*
X124385000Y-128445000D03*
X124385000Y-127795000D03*
X124385000Y-127145000D03*
X124385000Y-126495000D03*
D33*
X118745000Y-134620000D03*
D16*
X142875000Y-119380000D03*
D22*
X142875000Y-139700000D03*
D17*
X146685000Y-104775000D03*
D18*
X159385000Y-104775000D03*
D34*
X116400000Y-101360000D03*
D35*
X116400000Y-103110000D03*
D36*
X118550000Y-103110000D03*
D37*
X118550000Y-101360000D03*
D24*
X132080000Y-122495000D03*
X132080000Y-114995000D03*
D21*
X126365000Y-130582500D03*
X126365000Y-132307500D03*
D38*
X112802500Y-124460000D03*
X114527500Y-124460000D03*
D39*
X119575000Y-106999000D03*
X119575000Y-119061000D03*
X115275000Y-106999000D03*
D40*
X122244000Y-116030000D03*
D39*
X115275000Y-119061000D03*
D41*
X112706000Y-114030000D03*
M02*
