0
SECTION
2
HEADER
9
$INSUNITS
70
1
9
$ACADVER
1
AC1014
9
$HANDSEED
5
FFFF
0
ENDSEC
0
SECTION
2
TABLES
0
TABLE
2
VPORT
5
8
100
AcDbSymbolTable
0
ENDTAB
0
TABLE
2
LTYPE
5
5
100
AcDbSymbolTable
0
LTYPE
5
14
100
AcDbSymbolTableRecord
100
AcDbLinetypeTableRecord
2
BYBLOCK
70
0
0
LTYPE
5
15
100
AcDbSymbolTableRecord
100
AcDbLinetypeTableRecord
2
BYLAYER
70
0
0
ENDTAB
0
TABLE
2
LAYER
5
2
100
AcDbSymbolTable
70
2
0
LAYER
5
50
100
AcDbSymbolTableRecord
100
AcDbLayerTableRecord
2
0
70
0
6
CONTINUOUS
0
ENDTAB
0
TABLE
2
STYLE
5
3
100
AcDbSymbolTable
70
1
0
STYLE
5
11
100
AcDbSymbolTableRecord
100
AcDbTextStyleTableRecord
2
STANDARD
70
0
0
ENDTAB
0
TABLE
2
VIEW
5
6
100
AcDbSymbolTable
70
0
0
ENDTAB
0
TABLE
2
UCS
5
7
100
AcDbSymbolTable
70
0
0
ENDTAB
0
TABLE
2
APPID
5
9
100
AcDbSymbolTable
70
2
0
APPID
5
12
100
AcDbSymbolTableRecord
100
AcDbRegAppTableRecord
2
ACAD
70
0
0
ENDTAB
0
TABLE
2
DIMSTYLE
5
A
100
AcDbSymbolTable
70
1
0
ENDTAB
0
TABLE
2
BLOCK_RECORD
5
1
100
AcDbSymbolTable
70
1
0
BLOCK_RECORD
5
1F
100
AcDbSymbolTableRecord
100
AcDbBlockTableRecord
2
*MODEL_SPACE
0
BLOCK_RECORD
5
1B
100
AcDbSymbolTableRecord
100
AcDbBlockTableRecord
2
*PAPER_SPACE
0
ENDTAB
0
ENDSEC
0
SECTION
2
BLOCKS
0
BLOCK
5
20
100
AcDbEntity
100
AcDbBlockBegin
2
*MODEL_SPACE
0
ENDBLK
5
21
100
AcDbEntity
100
AcDbBlockEnd
0
BLOCK
5
1C
100
AcDbEntity
100
AcDbBlockBegin
2
*PAPER_SPACE
0
ENDBLK
5
1D
100
AcDbEntity
100
AcDbBlockEnd
0
ENDSEC
0
SECTION
2
ENTITIES
0
LWPOLYLINE
5
100
100
AcDbEntity
8
0
100
AcDbPolyline
90
4
70
1
43
0.0
10
0
20
-1.1382157408346343
10
2.7769999999999997
20
-1.1382157408346343
10
2.7769999999999997
20
-0.32821574083463434
10
0
20
-0.32821574083463434
0
LWPOLYLINE
5
101
100
AcDbEntity
8
0
100
AcDbPolyline
90
4
70
1
43
0.0
10
0.13550000000000001
20
-1.0997157408346343
10
0.13550000000000001
20
-1.0867157408346344
10
0.15149999999999997
20
-1.0867157408346344
10
0.15149999999999997
20
-1.0997157408346343
0
LWPOLYLINE
5
102
100
AcDbEntity
8
0
100
AcDbPolyline
90
4
70
1
43
0.0
10
0.38549999999999995
20
-0.99971574083463433
10
0.38549999999999995
20
-0.98671574083463442
10
0.40150000000000002
20
-0.98671574083463442
10
0.40150000000000002
20
-0.99971574083463433
0
LWPOLYLINE
5
103
100
AcDbEntity
8
0
100
AcDbPolyline
90
4
70
1
43
0.0
10
0.33550000000000002
20
-1.0997157408346343
10
0.33550000000000002
20
-1.0867157408346344
10
0.35149999999999998
20
-1.0867157408346344
10
0.35149999999999998
20
-1.0997157408346343
0
LWPOLYLINE
5
104
100
AcDbEntity
8
0
100
AcDbPolyline
90
4
70
1
43
0.0
10
0.18549999999999997
20
-0.99971574083463433
10
0.18549999999999997
20
-0.98671574083463442
10
0.20149999999999998
20
-0.98671574083463442
10
0.20149999999999998
20
-0.99971574083463433
0
LWPOLYLINE
5
105
100
AcDbEntity
8
0
100
AcDbPolyline
90
4
70
1
43
0.0
10
0.2515
20
-1.0997157408346343
10
0.23549999999999996
20
-1.0997157408346343
10
0.23549999999999996
20
-1.0867157408346344
10
0.2515
20
-1.0867157408346344
0
LWPOLYLINE
5
106
100
AcDbEntity
8
0
100
AcDbPolyline
90
4
70
1
43
0.0
10
0.30149999999999999
20
-0.99971574083463433
10
0.28549999999999998
20
-0.99971574083463433
10
0.28549999999999998
20
-0.98671574083463442
10
0.30149999999999999
20
-0.98671574083463442
0
LWPOLYLINE
5
107
100
AcDbEntity
8
0
100
AcDbPolyline
90
4
70
1
43
0.0
10
0.58350000000000002
20
-1.0997157408346343
10
0.58350000000000002
20
-1.0867157408346344
10
0.59950000000000003
20
-1.0867157408346344
10
0.59950000000000003
20
-1.0997157408346343
0
LWPOLYLINE
5
108
100
AcDbEntity
8
0
100
AcDbPolyline
90
4
70
1
43
0.0
10
0.83350000000000002
20
-0.99971574083463433
10
0.83350000000000002
20
-0.98671574083463442
10
0.84949999999999992
20
-0.98671574083463442
10
0.84949999999999992
20
-0.99971574083463433
0
LWPOLYLINE
5
109
100
AcDbEntity
8
0
100
AcDbPolyline
90
4
70
1
43
0.0
10
0.78349999999999986
20
-1.0997157408346343
10
0.78349999999999986
20
-1.0867157408346344
10
0.79949999999999999
20
-1.0867157408346344
10
0.79949999999999999
20
-1.0997157408346343
0
LWPOLYLINE
5
110
100
AcDbEntity
8
0
100
AcDbPolyline
90
4
70
1
43
0.0
10
0.63349999999999995
20
-0.99971574083463433
10
0.63349999999999995
20
-0.98671574083463442
10
0.64949999999999997
20
-0.98671574083463442
10
0.64949999999999997
20
-0.99971574083463433
0
LWPOLYLINE
5
111
100
AcDbEntity
8
0
100
AcDbPolyline
90
4
70
1
43
0.0
10
0.69950000000000001
20
-1.0997157408346343
10
0.68349999999999989
20
-1.0997157408346343
10
0.68349999999999989
20
-1.0867157408346344
10
0.69950000000000001
20
-1.0867157408346344
0
LWPOLYLINE
5
112
100
AcDbEntity
8
0
100
AcDbPolyline
90
4
70
1
43
0.0
10
0.74949999999999994
20
-0.99971574083463433
10
0.73350000000000004
20
-0.99971574083463433
10
0.73350000000000004
20
-0.98671574083463442
10
0.74949999999999994
20
-0.98671574083463442
0
LWPOLYLINE
5
113
100
AcDbEntity
8
0
100
AcDbPolyline
90
4
70
1
43
0.0
10
1.0315000000000001
20
-1.0997157408346343
10
1.0315000000000001
20
-1.0867157408346344
10
1.0475000000000001
20
-1.0867157408346344
10
1.0475000000000001
20
-1.0997157408346343
0
LWPOLYLINE
5
114
100
AcDbEntity
8
0
100
AcDbPolyline
90
4
70
1
43
0.0
10
1.2815000000000001
20
-0.99971574083463433
10
1.2815000000000001
20
-0.98671574083463442
10
1.2974999999999999
20
-0.98671574083463442
10
1.2974999999999999
20
-0.99971574083463433
0
LWPOLYLINE
5
115
100
AcDbEntity
8
0
100
AcDbPolyline
90
4
70
1
43
0.0
10
1.2315
20
-1.0997157408346343
10
1.2315
20
-1.0867157408346344
10
1.2474999999999998
20
-1.0867157408346344
10
1.2474999999999998
20
-1.0997157408346343
0
LWPOLYLINE
5
116
100
AcDbEntity
8
0
100
AcDbPolyline
90
4
70
1
43
0.0
10
1.0814999999999999
20
-0.99971574083463433
10
1.0814999999999999
20
-0.98671574083463442
10
1.0974999999999997
20
-0.98671574083463442
10
1.0974999999999997
20
-0.99971574083463433
0
LWPOLYLINE
5
117
100
AcDbEntity
8
0
100
AcDbPolyline
90
4
70
1
43
0.0
10
1.1475
20
-1.0997157408346343
10
1.1314999999999997
20
-1.0997157408346343
10
1.1314999999999997
20
-1.0867157408346344
10
1.1475
20
-1.0867157408346344
0
LWPOLYLINE
5
118
100
AcDbEntity
8
0
100
AcDbPolyline
90
4
70
1
43
0.0
10
1.1975
20
-0.99971574083463433
10
1.1814999999999998
20
-0.99971574083463433
10
1.1814999999999998
20
-0.98671574083463442
10
1.1975
20
-0.98671574083463442
0
LWPOLYLINE
5
119
100
AcDbEntity
8
0
100
AcDbPolyline
90
4
70
1
43
0.0
10
1.4794999999999998
20
-1.0997157408346343
10
1.4794999999999998
20
-1.0867157408346344
10
1.4955000000000001
20
-1.0867157408346344
10
1.4955000000000001
20
-1.0997157408346343
0
LWPOLYLINE
5
120
100
AcDbEntity
8
0
100
AcDbPolyline
90
4
70
1
43
0.0
10
1.7294999999999998
20
-0.99971574083463433
10
1.7294999999999998
20
-0.98671574083463442
10
1.7455000000000001
20
-0.98671574083463442
10
1.7455000000000001
20
-0.99971574083463433
0
LWPOLYLINE
5
121
100
AcDbEntity
8
0
100
AcDbPolyline
90
4
70
1
43
0.0
10
1.6794999999999998
20
-1.0997157408346343
10
1.6794999999999998
20
-1.0867157408346344
10
1.6954999999999998
20
-1.0867157408346344
10
1.6954999999999998
20
-1.0997157408346343
0
LWPOLYLINE
5
122
100
AcDbEntity
8
0
100
AcDbPolyline
90
4
70
1
43
0.0
10
1.5294999999999999
20
-0.99971574083463433
10
1.5294999999999999
20
-0.98671574083463442
10
1.5455000000000001
20
-0.98671574083463442
10
1.5455000000000001
20
-0.99971574083463433
0
LWPOLYLINE
5
123
100
AcDbEntity
8
0
100
AcDbPolyline
90
4
70
1
43
0.0
10
1.5954999999999999
20
-1.0997157408346343
10
1.5794999999999997
20
-1.0997157408346343
10
1.5794999999999997
20
-1.0867157408346344
10
1.5954999999999999
20
-1.0867157408346344
0
LWPOLYLINE
5
124
100
AcDbEntity
8
0
100
AcDbPolyline
90
4
70
1
43
0.0
10
1.6455
20
-0.99971574083463433
10
1.6294999999999999
20
-0.99971574083463433
10
1.6294999999999999
20
-0.98671574083463442
10
1.6455
20
-0.98671574083463442
0
LWPOLYLINE
5
125
100
AcDbEntity
8
0
100
AcDbPolyline
90
4
70
1
43
0.0
10
1.9275
20
-1.0997157408346343
10
1.9275
20
-1.0867157408346344
10
1.9434999999999998
20
-1.0867157408346344
10
1.9434999999999998
20
-1.0997157408346343
0
LWPOLYLINE
5
126
100
AcDbEntity
8
0
100
AcDbPolyline
90
4
70
1
43
0.0
10
2.1775000000000002
20
-0.99971574083463433
10
2.1775000000000002
20
-0.98671574083463442
10
2.1934999999999998
20
-0.98671574083463442
10
2.1934999999999998
20
-0.99971574083463433
0
LWPOLYLINE
5
127
100
AcDbEntity
8
0
100
AcDbPolyline
90
4
70
1
43
0.0
10
2.1274999999999999
20
-1.0997157408346343
10
2.1274999999999999
20
-1.0867157408346344
10
2.1435
20
-1.0867157408346344
10
2.1435
20
-1.0997157408346343
0
LWPOLYLINE
5
128
100
AcDbEntity
8
0
100
AcDbPolyline
90
4
70
1
43
0.0
10
1.9774999999999998
20
-0.99971574083463433
10
1.9774999999999998
20
-0.98671574083463442
10
1.9934999999999998
20
-0.98671574083463442
10
1.9934999999999998
20
-0.99971574083463433
0
LWPOLYLINE
5
129
100
AcDbEntity
8
0
100
AcDbPolyline
90
4
70
1
43
0.0
10
2.0434999999999999
20
-1.0997157408346343
10
2.0274999999999999
20
-1.0997157408346343
10
2.0274999999999999
20
-1.0867157408346344
10
2.0434999999999999
20
-1.0867157408346344
0
LWPOLYLINE
5
130
100
AcDbEntity
8
0
100
AcDbPolyline
90
4
70
1
43
0.0
10
2.0935000000000001
20
-0.99971574083463433
10
2.0775000000000001
20
-0.99971574083463433
10
2.0775000000000001
20
-0.98671574083463442
10
2.0935000000000001
20
-0.98671574083463442
0
LWPOLYLINE
5
131
100
AcDbEntity
8
0
100
AcDbPolyline
90
4
70
1
43
0.0
10
2.3755000000000002
20
-1.0997157408346343
10
2.3755000000000002
20
-1.0867157408346344
10
2.3914999999999997
20
-1.0867157408346344
10
2.3914999999999997
20
-1.0997157408346343
0
LWPOLYLINE
5
132
100
AcDbEntity
8
0
100
AcDbPolyline
90
4
70
1
43
0.0
10
2.6254999999999997
20
-0.99971574083463433
10
2.6254999999999997
20
-0.98671574083463442
10
2.6415000000000002
20
-0.98671574083463442
10
2.6415000000000002
20
-0.99971574083463433
0
LWPOLYLINE
5
133
100
AcDbEntity
8
0
100
AcDbPolyline
90
4
70
1
43
0.0
10
2.5754999999999995
20
-1.0997157408346343
10
2.5754999999999995
20
-1.0867157408346344
10
2.5914999999999999
20
-1.0867157408346344
10
2.5914999999999999
20
-1.0997157408346343
0
LWPOLYLINE
5
134
100
AcDbEntity
8
0
100
AcDbPolyline
90
4
70
1
43
0.0
10
2.4255
20
-0.99971574083463433
10
2.4255
20
-0.98671574083463442
10
2.4415
20
-0.98671574083463442
10
2.4415
20
-0.99971574083463433
0
LWPOLYLINE
5
135
100
AcDbEntity
8
0
100
AcDbPolyline
90
4
70
1
43
0.0
10
2.4914999999999998
20
-1.0997157408346343
10
2.4754999999999994
20
-1.0997157408346343
10
2.4754999999999994
20
-1.0867157408346344
10
2.4914999999999998
20
-1.0867157408346344
0
LWPOLYLINE
5
136
100
AcDbEntity
8
0
100
AcDbPolyline
90
4
70
1
43
0.0
10
2.5415000000000001
20
-0.99971574083463433
10
2.5254999999999996
20
-0.99971574083463433
10
2.5254999999999996
20
-0.98671574083463442
10
2.5415000000000001
20
-0.98671574083463442
0
CIRCLE
5
137
100
AcDbEntity
8
0
100
AcDbCircle
10
-0.068499999999999991
20
-0.74321574083463438
30
-3.6643365130582161e-32
40
0.059999999999999998
210
0
220
4.9303806576313238e-32
230
-1
0
CIRCLE
5
138
100
AcDbEntity
8
0
100
AcDbCircle
10
-2.7084999999999995
20
-0.74321574083463438
30
-3.6643365130582161e-32
40
0.059999999999999998
210
0
220
4.9303806576313238e-32
230
-1
0
CIRCLE
5
139
100
AcDbEntity
8
0
100
AcDbCircle
10
0.068499999999999991
20
-0.74321574083463438
30
0
40
0.059999999999999984
210
0
220
-2.4651903288156624e-32
230
1
0
CIRCLE
5
140
100
AcDbEntity
8
0
100
AcDbCircle
10
2.7084999999999995
20
-0.74321574083463438
30
0
40
0.059999999999999984
210
0
220
-2.4651903288156624e-32
230
1
0
LWPOLYLINE
5
141
100
AcDbEntity
8
0
100
AcDbPolyline
90
4
70
1
43
0.0
10
0
20
-1.1382157408346343
10
2.7769999999999997
20
-1.1382157408346343
10
2.7769999999999997
20
-0.32821574083463434
10
0
20
-0.32821574083463434
0
LWPOLYLINE
5
142
100
AcDbEntity
8
0
100
AcDbPolyline
90
4
70
1
43
0.0
10
0.13550000000000001
20
-1.0997157408346343
10
0.13550000000000001
20
-1.0867157408346344
10
0.15149999999999997
20
-1.0867157408346344
10
0.15149999999999997
20
-1.0997157408346343
0
LWPOLYLINE
5
143
100
AcDbEntity
8
0
100
AcDbPolyline
90
4
70
1
43
0.0
10
0.38549999999999995
20
-0.99971574083463433
10
0.38549999999999995
20
-0.98671574083463442
10
0.40150000000000002
20
-0.98671574083463442
10
0.40150000000000002
20
-0.99971574083463433
0
LWPOLYLINE
5
144
100
AcDbEntity
8
0
100
AcDbPolyline
90
4
70
1
43
0.0
10
0.33550000000000002
20
-1.0997157408346343
10
0.33550000000000002
20
-1.0867157408346344
10
0.35149999999999998
20
-1.0867157408346344
10
0.35149999999999998
20
-1.0997157408346343
0
LWPOLYLINE
5
145
100
AcDbEntity
8
0
100
AcDbPolyline
90
4
70
1
43
0.0
10
0.18549999999999997
20
-0.99971574083463433
10
0.18549999999999997
20
-0.98671574083463442
10
0.20149999999999998
20
-0.98671574083463442
10
0.20149999999999998
20
-0.99971574083463433
0
LWPOLYLINE
5
146
100
AcDbEntity
8
0
100
AcDbPolyline
90
4
70
1
43
0.0
10
0.2515
20
-1.0997157408346343
10
0.23549999999999996
20
-1.0997157408346343
10
0.23549999999999996
20
-1.0867157408346344
10
0.2515
20
-1.0867157408346344
0
LWPOLYLINE
5
147
100
AcDbEntity
8
0
100
AcDbPolyline
90
4
70
1
43
0.0
10
0.30149999999999999
20
-0.99971574083463433
10
0.28549999999999998
20
-0.99971574083463433
10
0.28549999999999998
20
-0.98671574083463442
10
0.30149999999999999
20
-0.98671574083463442
0
LWPOLYLINE
5
148
100
AcDbEntity
8
0
100
AcDbPolyline
90
4
70
1
43
0.0
10
0.58350000000000002
20
-1.0997157408346343
10
0.58350000000000002
20
-1.0867157408346344
10
0.59950000000000003
20
-1.0867157408346344
10
0.59950000000000003
20
-1.0997157408346343
0
LWPOLYLINE
5
149
100
AcDbEntity
8
0
100
AcDbPolyline
90
4
70
1
43
0.0
10
0.83350000000000002
20
-0.99971574083463433
10
0.83350000000000002
20
-0.98671574083463442
10
0.84949999999999992
20
-0.98671574083463442
10
0.84949999999999992
20
-0.99971574083463433
0
LWPOLYLINE
5
150
100
AcDbEntity
8
0
100
AcDbPolyline
90
4
70
1
43
0.0
10
0.78349999999999986
20
-1.0997157408346343
10
0.78349999999999986
20
-1.0867157408346344
10
0.79949999999999999
20
-1.0867157408346344
10
0.79949999999999999
20
-1.0997157408346343
0
LWPOLYLINE
5
151
100
AcDbEntity
8
0
100
AcDbPolyline
90
4
70
1
43
0.0
10
0.63349999999999995
20
-0.99971574083463433
10
0.63349999999999995
20
-0.98671574083463442
10
0.64949999999999997
20
-0.98671574083463442
10
0.64949999999999997
20
-0.99971574083463433
0
LWPOLYLINE
5
152
100
AcDbEntity
8
0
100
AcDbPolyline
90
4
70
1
43
0.0
10
0.69950000000000001
20
-1.0997157408346343
10
0.68349999999999989
20
-1.0997157408346343
10
0.68349999999999989
20
-1.0867157408346344
10
0.69950000000000001
20
-1.0867157408346344
0
LWPOLYLINE
5
153
100
AcDbEntity
8
0
100
AcDbPolyline
90
4
70
1
43
0.0
10
0.74949999999999994
20
-0.99971574083463433
10
0.73350000000000004
20
-0.99971574083463433
10
0.73350000000000004
20
-0.98671574083463442
10
0.74949999999999994
20
-0.98671574083463442
0
LWPOLYLINE
5
154
100
AcDbEntity
8
0
100
AcDbPolyline
90
4
70
1
43
0.0
10
1.0315000000000001
20
-1.0997157408346343
10
1.0315000000000001
20
-1.0867157408346344
10
1.0475000000000001
20
-1.0867157408346344
10
1.0475000000000001
20
-1.0997157408346343
0
LWPOLYLINE
5
155
100
AcDbEntity
8
0
100
AcDbPolyline
90
4
70
1
43
0.0
10
1.2815000000000001
20
-0.99971574083463433
10
1.2815000000000001
20
-0.98671574083463442
10
1.2974999999999999
20
-0.98671574083463442
10
1.2974999999999999
20
-0.99971574083463433
0
LWPOLYLINE
5
156
100
AcDbEntity
8
0
100
AcDbPolyline
90
4
70
1
43
0.0
10
1.2315
20
-1.0997157408346343
10
1.2315
20
-1.0867157408346344
10
1.2474999999999998
20
-1.0867157408346344
10
1.2474999999999998
20
-1.0997157408346343
0
LWPOLYLINE
5
157
100
AcDbEntity
8
0
100
AcDbPolyline
90
4
70
1
43
0.0
10
1.0814999999999999
20
-0.99971574083463433
10
1.0814999999999999
20
-0.98671574083463442
10
1.0974999999999997
20
-0.98671574083463442
10
1.0974999999999997
20
-0.99971574083463433
0
LWPOLYLINE
5
158
100
AcDbEntity
8
0
100
AcDbPolyline
90
4
70
1
43
0.0
10
1.1475
20
-1.0997157408346343
10
1.1314999999999997
20
-1.0997157408346343
10
1.1314999999999997
20
-1.0867157408346344
10
1.1475
20
-1.0867157408346344
0
LWPOLYLINE
5
159
100
AcDbEntity
8
0
100
AcDbPolyline
90
4
70
1
43
0.0
10
1.1975
20
-0.99971574083463433
10
1.1814999999999998
20
-0.99971574083463433
10
1.1814999999999998
20
-0.98671574083463442
10
1.1975
20
-0.98671574083463442
0
LWPOLYLINE
5
160
100
AcDbEntity
8
0
100
AcDbPolyline
90
4
70
1
43
0.0
10
1.4794999999999998
20
-1.0997157408346343
10
1.4794999999999998
20
-1.0867157408346344
10
1.4955000000000001
20
-1.0867157408346344
10
1.4955000000000001
20
-1.0997157408346343
0
LWPOLYLINE
5
161
100
AcDbEntity
8
0
100
AcDbPolyline
90
4
70
1
43
0.0
10
1.7294999999999998
20
-0.99971574083463433
10
1.7294999999999998
20
-0.98671574083463442
10
1.7455000000000001
20
-0.98671574083463442
10
1.7455000000000001
20
-0.99971574083463433
0
LWPOLYLINE
5
162
100
AcDbEntity
8
0
100
AcDbPolyline
90
4
70
1
43
0.0
10
1.6794999999999998
20
-1.0997157408346343
10
1.6794999999999998
20
-1.0867157408346344
10
1.6954999999999998
20
-1.0867157408346344
10
1.6954999999999998
20
-1.0997157408346343
0
LWPOLYLINE
5
163
100
AcDbEntity
8
0
100
AcDbPolyline
90
4
70
1
43
0.0
10
1.5294999999999999
20
-0.99971574083463433
10
1.5294999999999999
20
-0.98671574083463442
10
1.5455000000000001
20
-0.98671574083463442
10
1.5455000000000001
20
-0.99971574083463433
0
LWPOLYLINE
5
164
100
AcDbEntity
8
0
100
AcDbPolyline
90
4
70
1
43
0.0
10
1.5954999999999999
20
-1.0997157408346343
10
1.5794999999999997
20
-1.0997157408346343
10
1.5794999999999997
20
-1.0867157408346344
10
1.5954999999999999
20
-1.0867157408346344
0
LWPOLYLINE
5
165
100
AcDbEntity
8
0
100
AcDbPolyline
90
4
70
1
43
0.0
10
1.6455
20
-0.99971574083463433
10
1.6294999999999999
20
-0.99971574083463433
10
1.6294999999999999
20
-0.98671574083463442
10
1.6455
20
-0.98671574083463442
0
LWPOLYLINE
5
166
100
AcDbEntity
8
0
100
AcDbPolyline
90
4
70
1
43
0.0
10
1.9275
20
-1.0997157408346343
10
1.9275
20
-1.0867157408346344
10
1.9434999999999998
20
-1.0867157408346344
10
1.9434999999999998
20
-1.0997157408346343
0
LWPOLYLINE
5
167
100
AcDbEntity
8
0
100
AcDbPolyline
90
4
70
1
43
0.0
10
2.1775000000000002
20
-0.99971574083463433
10
2.1775000000000002
20
-0.98671574083463442
10
2.1934999999999998
20
-0.98671574083463442
10
2.1934999999999998
20
-0.99971574083463433
0
LWPOLYLINE
5
168
100
AcDbEntity
8
0
100
AcDbPolyline
90
4
70
1
43
0.0
10
2.1274999999999999
20
-1.0997157408346343
10
2.1274999999999999
20
-1.0867157408346344
10
2.1435
20
-1.0867157408346344
10
2.1435
20
-1.0997157408346343
0
LWPOLYLINE
5
169
100
AcDbEntity
8
0
100
AcDbPolyline
90
4
70
1
43
0.0
10
1.9774999999999998
20
-0.99971574083463433
10
1.9774999999999998
20
-0.98671574083463442
10
1.9934999999999998
20
-0.98671574083463442
10
1.9934999999999998
20
-0.99971574083463433
0
LWPOLYLINE
5
170
100
AcDbEntity
8
0
100
AcDbPolyline
90
4
70
1
43
0.0
10
2.0434999999999999
20
-1.0997157408346343
10
2.0274999999999999
20
-1.0997157408346343
10
2.0274999999999999
20
-1.0867157408346344
10
2.0434999999999999
20
-1.0867157408346344
0
LWPOLYLINE
5
171
100
AcDbEntity
8
0
100
AcDbPolyline
90
4
70
1
43
0.0
10
2.0935000000000001
20
-0.99971574083463433
10
2.0775000000000001
20
-0.99971574083463433
10
2.0775000000000001
20
-0.98671574083463442
10
2.0935000000000001
20
-0.98671574083463442
0
LWPOLYLINE
5
172
100
AcDbEntity
8
0
100
AcDbPolyline
90
4
70
1
43
0.0
10
2.3755000000000002
20
-1.0997157408346343
10
2.3755000000000002
20
-1.0867157408346344
10
2.3914999999999997
20
-1.0867157408346344
10
2.3914999999999997
20
-1.0997157408346343
0
LWPOLYLINE
5
173
100
AcDbEntity
8
0
100
AcDbPolyline
90
4
70
1
43
0.0
10
2.6254999999999997
20
-0.99971574083463433
10
2.6254999999999997
20
-0.98671574083463442
10
2.6415000000000002
20
-0.98671574083463442
10
2.6415000000000002
20
-0.99971574083463433
0
LWPOLYLINE
5
174
100
AcDbEntity
8
0
100
AcDbPolyline
90
4
70
1
43
0.0
10
2.5754999999999995
20
-1.0997157408346343
10
2.5754999999999995
20
-1.0867157408346344
10
2.5914999999999999
20
-1.0867157408346344
10
2.5914999999999999
20
-1.0997157408346343
0
LWPOLYLINE
5
175
100
AcDbEntity
8
0
100
AcDbPolyline
90
4
70
1
43
0.0
10
2.4255
20
-0.99971574083463433
10
2.4255
20
-0.98671574083463442
10
2.4415
20
-0.98671574083463442
10
2.4415
20
-0.99971574083463433
0
LWPOLYLINE
5
176
100
AcDbEntity
8
0
100
AcDbPolyline
90
4
70
1
43
0.0
10
2.4914999999999998
20
-1.0997157408346343
10
2.4754999999999994
20
-1.0997157408346343
10
2.4754999999999994
20
-1.0867157408346344
10
2.4914999999999998
20
-1.0867157408346344
0
LWPOLYLINE
5
177
100
AcDbEntity
8
0
100
AcDbPolyline
90
4
70
1
43
0.0
10
2.5415000000000001
20
-0.99971574083463433
10
2.5254999999999996
20
-0.99971574083463433
10
2.5254999999999996
20
-0.98671574083463442
10
2.5415000000000001
20
-0.98671574083463442
0
ENDSEC
0
SECTION
2
OBJECTS
0
DICTIONARY
5
C
100
AcDbDictionary
3
ACAD_GROUP
350
D
3
ACAD_MLINESTYLE
350
17
0
DICTIONARY
5
D
100
AcDbDictionary
0
DICTIONARY
5
1A
330
C
100
AcDbDictionary
0
DICTIONARY
5
17
100
AcDbDictionary
0
ENDSEC
0
EOF
