<?xml version="1.0" standalone="no"?>
 <!DOCTYPE svg PUBLIC "-//W3C//DTD SVG 1.1//EN" 
 "http://www.w3.org/Graphics/SVG/1.1/DTD/svg11.dtd"> 
<svg
  xmlns:svg="http://www.w3.org/2000/svg"
  xmlns="http://www.w3.org/2000/svg"
  xmlns:xlink="http://www.w3.org/1999/xlink"
  version="1.1"
  width="4.536440cm" height="2.453640cm" viewBox="0 0 45364400 24536400">
<title>SVG Picture created as MainBoard-F_Cu.svg date 2023/05/08 21:50:36 </title>
  <desc>Picture generated by PCBNEW </desc>
<g style="fill:#000000; fill-opacity:1.000000;stroke:#000000; stroke-opacity:1.000000;
stroke-linecap:round; stroke-linejoin:round;"
 transform="translate(0 0) scale(1 1)">
</g>
<g style="fill:#000000; fill-opacity:0.0; 
stroke:#000000; stroke-width:0.000000; stroke-opacity:1; 
stroke-linecap:round; stroke-linejoin:round;">
<g >
</g>
<g style="fill:#000000; fill-opacity:0.0; 
stroke:#000000; stroke-width:1998980.000000; stroke-opacity:1; 
stroke-linecap:round; stroke-linejoin:round;">
<path d="M40019510 5715560
L40019510 6464860
" />
<path d="M27319510 5715560
L27319510 6464860
" />
<path d="M24779510 5715560
L24779510 6464860
" />
<path d="M24779510 21880120
L24779510 22629420
" />
<path d="M27319510 21880120
L27319510 22629420
" />
<path d="M29859510 21880120
L29859510 22629420
" />
<path d="M32399510 21880120
L32399510 22629420
" />
<path d="M34939510 21880120
L34939510 22629420
" />
<path d="M37479510 21880120
L37479510 22629420
" />
<path d="M40019510 21880120
L40019510 22629420
" />
</g>
<g >
</g>
<g >
</g>
<g style="fill:#000000; fill-opacity:0.0; 
stroke:#000000; stroke-width:1998980.000000; stroke-opacity:1; 
stroke-linecap:round; stroke-linejoin:round;">
</g>
<g style="fill:#000000; fill-opacity:0.0; 
stroke:#000000; stroke-width:1.000000; stroke-opacity:1; 
stroke-linecap:round; stroke-linejoin:round;">
</g>
<g style="fill:#000000; fill-opacity:1.0; 
stroke:#000000; stroke-width:1.000000; stroke-opacity:1; 
stroke-linecap:round; stroke-linejoin:round;">
<path style="fill:#000000; fill-opacity:1.0; 
stroke:#000000; stroke-width:1.000000; stroke-opacity:1; 
stroke-linecap:round; stroke-linejoin:round;fill-rule:evenodd;"
d="M 38481000.000000,2661200.000000
38499079.000000,2570313.000000
38550562.000000,2493262.000000
38627613.000000,2441779.000000
38718500.000000,2423700.000000
40104500.000000,2423700.000000
40195387.000000,2441779.000000
40272438.000000,2493262.000000
40323921.000000,2570313.000000
40342000.000000,2661200.000000
40342000.000000,3136200.000000
40323921.000000,3227087.000000
40272438.000000,3304138.000000
40195387.000000,3355621.000000
40104500.000000,3373700.000000
38718500.000000,3373700.000000
38627613.000000,3355621.000000
38550562.000000,3304138.000000
38499079.000000,3227087.000000
38481000.000000,3136200.000000
Z" /> 
<path style="fill:#000000; fill-opacity:1.0; 
stroke:#000000; stroke-width:1.000000; stroke-opacity:1; 
stroke-linecap:round; stroke-linejoin:round;fill-rule:evenodd;"
d="M 41192000.000000,2623700.000000
41207224.000000,2547163.000000
41250579.000000,2482279.000000
41315463.000000,2438924.000000
41392000.000000,2423700.000000
41792000.000000,2423700.000000
41868537.000000,2438924.000000
41933421.000000,2482279.000000
41976776.000000,2547163.000000
41992000.000000,2623700.000000
41992000.000000,3173700.000000
41976776.000000,3250237.000000
41933421.000000,3315121.000000
41868537.000000,3358476.000000
41792000.000000,3373700.000000
41392000.000000,3373700.000000
41315463.000000,3358476.000000
41250579.000000,3315121.000000
41207224.000000,3250237.000000
41192000.000000,3173700.000000
Z" /> 
</g>
<g >
</g>
<g style="fill:#000000; fill-opacity:1.0; 
stroke:#000000; stroke-width:1.000000; stroke-opacity:1; 
stroke-linecap:round; stroke-linejoin:round;">
<path style="fill:#000000; fill-opacity:1.0; 
stroke:#000000; stroke-width:1.000000; stroke-opacity:1; 
stroke-linecap:round; stroke-linejoin:round;fill-rule:evenodd;"
d="M 21466000.000000,8521000.000000
21447921.000000,8611887.000000
21396438.000000,8688938.000000
21319387.000000,8740421.000000
21228500.000000,8758500.000000
20628500.000000,8758500.000000
20537613.000000,8740421.000000
20460562.000000,8688938.000000
20409079.000000,8611887.000000
20391000.000000,8521000.000000
20391000.000000,8046000.000000
20409079.000000,7955113.000000
20460562.000000,7878062.000000
20537613.000000,7826579.000000
20628500.000000,7808500.000000
21228500.000000,7808500.000000
21319387.000000,7826579.000000
21396438.000000,7878062.000000
21447921.000000,7955113.000000
21466000.000000,8046000.000000
Z" /> 
<path style="fill:#000000; fill-opacity:1.0; 
stroke:#000000; stroke-width:1.000000; stroke-opacity:1; 
stroke-linecap:round; stroke-linejoin:round;fill-rule:evenodd;"
d="M 19741000.000000,8521000.000000
19722921.000000,8611887.000000
19671438.000000,8688938.000000
19594387.000000,8740421.000000
19503500.000000,8758500.000000
18903500.000000,8758500.000000
18812613.000000,8740421.000000
18735562.000000,8688938.000000
18684079.000000,8611887.000000
18666000.000000,8521000.000000
18666000.000000,8046000.000000
18684079.000000,7955113.000000
18735562.000000,7878062.000000
18812613.000000,7826579.000000
18903500.000000,7808500.000000
19503500.000000,7808500.000000
19594387.000000,7826579.000000
19671438.000000,7878062.000000
19722921.000000,7955113.000000
19741000.000000,8046000.000000
Z" /> 
</g>
<g >
</g>
<g style="fill:#000000; fill-opacity:1.0; 
stroke:#000000; stroke-width:1.000000; stroke-opacity:1; 
stroke-linecap:round; stroke-linejoin:round;">
<path style="fill:#000000; fill-opacity:1.0; 
stroke:#000000; stroke-width:1.000000; stroke-opacity:1; 
stroke-linecap:round; stroke-linejoin:round;fill-rule:evenodd;"
d="M 16386000.000000,3949000.000000
16367921.000000,4039887.000000
16316438.000000,4116938.000000
16239387.000000,4168421.000000
16148500.000000,4186500.000000
15548500.000000,4186500.000000
15457613.000000,4168421.000000
15380562.000000,4116938.000000
15329079.000000,4039887.000000
15311000.000000,3949000.000000
15311000.000000,3474000.000000
15329079.000000,3383113.000000
15380562.000000,3306062.000000
15457613.000000,3254579.000000
15548500.000000,3236500.000000
16148500.000000,3236500.000000
16239387.000000,3254579.000000
16316438.000000,3306062.000000
16367921.000000,3383113.000000
16386000.000000,3474000.000000
Z" /> 
<path style="fill:#000000; fill-opacity:1.0; 
stroke:#000000; stroke-width:1.000000; stroke-opacity:1; 
stroke-linecap:round; stroke-linejoin:round;fill-rule:evenodd;"
d="M 14661000.000000,3949000.000000
14642921.000000,4039887.000000
14591438.000000,4116938.000000
14514387.000000,4168421.000000
14423500.000000,4186500.000000
13823500.000000,4186500.000000
13732613.000000,4168421.000000
13655562.000000,4116938.000000
13604079.000000,4039887.000000
13586000.000000,3949000.000000
13586000.000000,3474000.000000
13604079.000000,3383113.000000
13655562.000000,3306062.000000
13732613.000000,3254579.000000
13823500.000000,3236500.000000
14423500.000000,3236500.000000
14514387.000000,3254579.000000
14591438.000000,3306062.000000
14642921.000000,3383113.000000
14661000.000000,3474000.000000
Z" /> 
</g>
<g >
</g>
<g style="fill:#000000; fill-opacity:1.0; 
stroke:#000000; stroke-width:1.000000; stroke-opacity:1; 
stroke-linecap:round; stroke-linejoin:round;">
<path style="fill:#000000; fill-opacity:1.0; 
stroke:#000000; stroke-width:1.000000; stroke-opacity:1; 
stroke-linecap:round; stroke-linejoin:round;fill-rule:evenodd;"
d="M 5346000.000000,7386500.000000
5250329.000000,7367470.000000
5169223.000000,7313277.000000
5115030.000000,7232171.000000
5096000.000000,7136500.000000
5096000.000000,6636500.000000
5115030.000000,6540829.000000
5169223.000000,6459723.000000
5250329.000000,6405530.000000
5346000.000000,6386500.000000
6846000.000000,6386500.000000
6941671.000000,6405530.000000
7022777.000000,6459723.000000
7076970.000000,6540829.000000
7096000.000000,6636500.000000
7096000.000000,7136500.000000
7076970.000000,7232171.000000
7022777.000000,7313277.000000
6941671.000000,7367470.000000
6846000.000000,7386500.000000
Z" /> 
</g>
<g >
</g>
<g style="fill:#000000; fill-opacity:1.0; 
stroke:#000000; stroke-width:1.000000; stroke-opacity:1; 
stroke-linecap:round; stroke-linejoin:round;">
<path style="fill:#000000; fill-opacity:1.0; 
stroke:#000000; stroke-width:1.000000; stroke-opacity:1; 
stroke-linecap:round; stroke-linejoin:round;fill-rule:evenodd;"
d="M 1790000.000000,2687500.000000
1694329.000000,2668470.000000
1613223.000000,2614277.000000
1559030.000000,2533171.000000
1540000.000000,2437500.000000
1540000.000000,1937500.000000
1559030.000000,1841829.000000
1613223.000000,1760723.000000
1694329.000000,1706530.000000
1790000.000000,1687500.000000
3290000.000000,1687500.000000
3385671.000000,1706530.000000
3466777.000000,1760723.000000
3520970.000000,1841829.000000
3540000.000000,1937500.000000
3540000.000000,2437500.000000
3520970.000000,2533171.000000
3466777.000000,2614277.000000
3385671.000000,2668470.000000
3290000.000000,2687500.000000
Z" /> 
</g>
<g >
</g>
<g style="fill:#000000; fill-opacity:1.0; 
stroke:#000000; stroke-width:1.000000; stroke-opacity:1; 
stroke-linecap:round; stroke-linejoin:round;">
<path style="fill:#000000; fill-opacity:1.0; 
stroke:#000000; stroke-width:1.000000; stroke-opacity:1; 
stroke-linecap:round; stroke-linejoin:round;fill-rule:evenodd;"
d="M 41193000.000000,3690500.000000
41208224.000000,3613963.000000
41251579.000000,3549079.000000
41316463.000000,3505724.000000
41393000.000000,3490500.000000
41793000.000000,3490500.000000
41869537.000000,3505724.000000
41934421.000000,3549079.000000
41977776.000000,3613963.000000
41993000.000000,3690500.000000
41993000.000000,4240500.000000
41977776.000000,4317037.000000
41934421.000000,4381921.000000
41869537.000000,4425276.000000
41793000.000000,4440500.000000
41393000.000000,4440500.000000
41316463.000000,4425276.000000
41251579.000000,4381921.000000
41208224.000000,4317037.000000
41193000.000000,4240500.000000
Z" /> 
<path style="fill:#000000; fill-opacity:1.0; 
stroke:#000000; stroke-width:1.000000; stroke-opacity:1; 
stroke-linecap:round; stroke-linejoin:round;fill-rule:evenodd;"
d="M 42843000.000000,3690500.000000
42858224.000000,3613963.000000
42901579.000000,3549079.000000
42966463.000000,3505724.000000
43043000.000000,3490500.000000
43443000.000000,3490500.000000
43519537.000000,3505724.000000
43584421.000000,3549079.000000
43627776.000000,3613963.000000
43643000.000000,3690500.000000
43643000.000000,4240500.000000
43627776.000000,4317037.000000
43584421.000000,4381921.000000
43519537.000000,4425276.000000
43443000.000000,4440500.000000
43043000.000000,4440500.000000
42966463.000000,4425276.000000
42901579.000000,4381921.000000
42858224.000000,4317037.000000
42843000.000000,4240500.000000
Z" /> 
</g>
<g >
</g>
<g style="fill:#000000; fill-opacity:1.0; 
stroke:#000000; stroke-width:1.000000; stroke-opacity:1; 
stroke-linecap:round; stroke-linejoin:round;">
<path style="fill:#000000; fill-opacity:1.0; 
stroke:#000000; stroke-width:1.000000; stroke-opacity:1; 
stroke-linecap:round; stroke-linejoin:round;fill-rule:evenodd;"
d="M 3793500.000000,14503500.000000
3884387.000000,14521579.000000
3961438.000000,14573062.000000
4012921.000000,14650113.000000
4031000.000000,14741000.000000
4031000.000000,15341000.000000
4012921.000000,15431887.000000
3961438.000000,15508938.000000
3884387.000000,15560421.000000
3793500.000000,15578500.000000
3318500.000000,15578500.000000
3227613.000000,15560421.000000
3150562.000000,15508938.000000
3099079.000000,15431887.000000
3081000.000000,15341000.000000
3081000.000000,14741000.000000
3099079.000000,14650113.000000
3150562.000000,14573062.000000
3227613.000000,14521579.000000
3318500.000000,14503500.000000
Z" /> 
<path style="fill:#000000; fill-opacity:1.0; 
stroke:#000000; stroke-width:1.000000; stroke-opacity:1; 
stroke-linecap:round; stroke-linejoin:round;fill-rule:evenodd;"
d="M 3793500.000000,16228500.000000
3884387.000000,16246579.000000
3961438.000000,16298062.000000
4012921.000000,16375113.000000
4031000.000000,16466000.000000
4031000.000000,17066000.000000
4012921.000000,17156887.000000
3961438.000000,17233938.000000
3884387.000000,17285421.000000
3793500.000000,17303500.000000
3318500.000000,17303500.000000
3227613.000000,17285421.000000
3150562.000000,17233938.000000
3099079.000000,17156887.000000
3081000.000000,17066000.000000
3081000.000000,16466000.000000
3099079.000000,16375113.000000
3150562.000000,16298062.000000
3227613.000000,16246579.000000
3318500.000000,16228500.000000
Z" /> 
</g>
<g >
</g>
<g style="fill:#000000; fill-opacity:1.0; 
stroke:#000000; stroke-width:1.000000; stroke-opacity:1; 
stroke-linecap:round; stroke-linejoin:round;">
<path style="fill:#000000; fill-opacity:1.0; 
stroke:#000000; stroke-width:1.000000; stroke-opacity:1; 
stroke-linecap:round; stroke-linejoin:round;fill-rule:evenodd;"
d="M 5346000.000000,12339500.000000
5250329.000000,12320470.000000
5169223.000000,12266277.000000
5115030.000000,12185171.000000
5096000.000000,12089500.000000
5096000.000000,11589500.000000
5115030.000000,11493829.000000
5169223.000000,11412723.000000
5250329.000000,11358530.000000
5346000.000000,11339500.000000
6846000.000000,11339500.000000
6941671.000000,11358530.000000
7022777.000000,11412723.000000
7076970.000000,11493829.000000
7096000.000000,11589500.000000
7096000.000000,12089500.000000
7076970.000000,12185171.000000
7022777.000000,12266277.000000
6941671.000000,12320470.000000
6846000.000000,12339500.000000
Z" /> 
</g>
<g >
</g>
<g style="fill:#000000; fill-opacity:1.0; 
stroke:#000000; stroke-width:1.000000; stroke-opacity:1; 
stroke-linecap:round; stroke-linejoin:round;">
<path style="fill:#000000; fill-opacity:1.0; 
stroke:#000000; stroke-width:1.000000; stroke-opacity:1; 
stroke-linecap:round; stroke-linejoin:round;fill-rule:evenodd;"
d="M 5346000.000000,4211500.000000
5250329.000000,4192470.000000
5169223.000000,4138277.000000
5115030.000000,4057171.000000
5096000.000000,3961500.000000
5096000.000000,3461500.000000
5115030.000000,3365829.000000
5169223.000000,3284723.000000
5250329.000000,3230530.000000
5346000.000000,3211500.000000
6846000.000000,3211500.000000
6941671.000000,3230530.000000
7022777.000000,3284723.000000
7076970.000000,3365829.000000
7096000.000000,3461500.000000
7096000.000000,3961500.000000
7076970.000000,4057171.000000
7022777.000000,4138277.000000
6941671.000000,4192470.000000
6846000.000000,4211500.000000
Z" /> 
</g>
<g >
</g>
<g style="fill:#000000; fill-opacity:1.0; 
stroke:#000000; stroke-width:1.000000; stroke-opacity:1; 
stroke-linecap:round; stroke-linejoin:round;">
<path style="fill:#000000; fill-opacity:1.0; 
stroke:#000000; stroke-width:1.000000; stroke-opacity:1; 
stroke-linecap:round; stroke-linejoin:round;fill-rule:evenodd;"
d="M 21844000.000000,16245500.000000
21844000.000000,18745500.000000
19682000.000000,18745500.000000
19682000.000000,16245500.000000
Z" /> 
<path style="fill:#000000; fill-opacity:1.0; 
stroke:#000000; stroke-width:1.000000; stroke-opacity:1; 
stroke-linecap:round; stroke-linejoin:round;fill-rule:evenodd;"
d="M 9782000.000000,16245500.000000
9782000.000000,18745500.000000
7620000.000000,18745500.000000
7620000.000000,16245500.000000
Z" /> 
<path style="fill:#000000; fill-opacity:1.0; 
stroke:#000000; stroke-width:1.000000; stroke-opacity:1; 
stroke-linecap:round; stroke-linejoin:round;fill-rule:evenodd;"
d="M 21844000.000000,11945500.000000
21844000.000000,14445500.000000
19682000.000000,14445500.000000
19682000.000000,11945500.000000
Z" /> 
<path style="fill:#000000; fill-opacity:1.0; 
stroke:#000000; stroke-width:1.000000; stroke-opacity:1; 
stroke-linecap:round; stroke-linejoin:round;fill-rule:evenodd;"
d="M 13182000.000000,19345500.000000
13182000.000000,20475500.000000
10282000.000000,20475500.000000
10282000.000000,19345500.000000
Z" /> 
<path style="fill:#000000; fill-opacity:1.0; 
stroke:#000000; stroke-width:1.000000; stroke-opacity:1; 
stroke-linecap:round; stroke-linejoin:round;fill-rule:evenodd;"
d="M 9782000.000000,11945500.000000
9782000.000000,14445500.000000
7620000.000000,14445500.000000
7620000.000000,11945500.000000
Z" /> 
<path style="fill:#000000; fill-opacity:1.0; 
stroke:#000000; stroke-width:1.000000; stroke-opacity:1; 
stroke-linecap:round; stroke-linejoin:round;fill-rule:evenodd;"
d="M 17682000.000000,9807500.000000
17682000.000000,11445500.000000
9782000.000000,11445500.000000
9782000.000000,9807500.000000
Z" /> 
</g>
<g >
</g>
<g style="fill:#000000; fill-opacity:1.0; 
stroke:#000000; stroke-width:1.000000; stroke-opacity:1; 
stroke-linecap:round; stroke-linejoin:round;">
<path style="fill:#000000; fill-opacity:1.0; 
stroke:#000000; stroke-width:1.000000; stroke-opacity:1; 
stroke-linecap:round; stroke-linejoin:round;fill-rule:evenodd;"
d="M 5346000.000000,5862500.000000
5250329.000000,5843470.000000
5169223.000000,5789277.000000
5115030.000000,5708171.000000
5096000.000000,5612500.000000
5096000.000000,5112500.000000
5115030.000000,5016829.000000
5169223.000000,4935723.000000
5250329.000000,4881530.000000
5346000.000000,4862500.000000
6846000.000000,4862500.000000
6941671.000000,4881530.000000
7022777.000000,4935723.000000
7076970.000000,5016829.000000
7096000.000000,5112500.000000
7096000.000000,5612500.000000
7076970.000000,5708171.000000
7022777.000000,5789277.000000
6941671.000000,5843470.000000
6846000.000000,5862500.000000
Z" /> 
</g>
<g >
</g>
<g style="fill:#000000; fill-opacity:1.0; 
stroke:#000000; stroke-width:1.000000; stroke-opacity:1; 
stroke-linecap:round; stroke-linejoin:round;">
<path style="fill:#000000; fill-opacity:1.0; 
stroke:#000000; stroke-width:1.000000; stroke-opacity:1; 
stroke-linecap:round; stroke-linejoin:round;fill-rule:evenodd;"
d="M 21396000.000000,22876500.000000
21396000.000000,23526500.000000
20346000.000000,23526500.000000
20346000.000000,22876500.000000
Z" /> 
<path style="fill:#000000; fill-opacity:1.0; 
stroke:#000000; stroke-width:1.000000; stroke-opacity:1; 
stroke-linecap:round; stroke-linejoin:round;fill-rule:evenodd;"
d="M 17246000.000000,22876500.000000
17246000.000000,23526500.000000
16196000.000000,23526500.000000
16196000.000000,22876500.000000
Z" /> 
<path style="fill:#000000; fill-opacity:1.0; 
stroke:#000000; stroke-width:1.000000; stroke-opacity:1; 
stroke-linecap:round; stroke-linejoin:round;fill-rule:evenodd;"
d="M 17271000.000000,20726500.000000
17271000.000000,21376500.000000
16221000.000000,21376500.000000
16221000.000000,20726500.000000
Z" /> 
<path style="fill:#000000; fill-opacity:1.0; 
stroke:#000000; stroke-width:1.000000; stroke-opacity:1; 
stroke-linecap:round; stroke-linejoin:round;fill-rule:evenodd;"
d="M 21396000.000000,20726500.000000
21396000.000000,21376500.000000
20346000.000000,21376500.000000
20346000.000000,20726500.000000
Z" /> 
</g>
<g >
</g>
<g style="fill:#000000; fill-opacity:1.0; 
stroke:#000000; stroke-width:1.000000; stroke-opacity:1; 
stroke-linecap:round; stroke-linejoin:round;">
<path style="fill:#000000; fill-opacity:1.0; 
stroke:#000000; stroke-width:1.000000; stroke-opacity:1; 
stroke-linecap:round; stroke-linejoin:round;fill-rule:evenodd;"
d="M 5346000.000000,9164500.000000
5250329.000000,9145470.000000
5169223.000000,9091277.000000
5115030.000000,9010171.000000
5096000.000000,8914500.000000
5096000.000000,8414500.000000
5115030.000000,8318829.000000
5169223.000000,8237723.000000
5250329.000000,8183530.000000
5346000.000000,8164500.000000
6846000.000000,8164500.000000
6941671.000000,8183530.000000
7022777.000000,8237723.000000
7076970.000000,8318829.000000
7096000.000000,8414500.000000
7096000.000000,8914500.000000
7076970.000000,9010171.000000
7022777.000000,9091277.000000
6941671.000000,9145470.000000
6846000.000000,9164500.000000
Z" /> 
</g>
<g >
</g>
<g style="fill:#000000; fill-opacity:1.0; 
stroke:#000000; stroke-width:1.000000; stroke-opacity:1; 
stroke-linecap:round; stroke-linejoin:round;">
<path style="fill:#000000; fill-opacity:1.0; 
stroke:#000000; stroke-width:1.000000; stroke-opacity:1; 
stroke-linecap:round; stroke-linejoin:round;fill-rule:evenodd;"
d="M 5346000.000000,10688500.000000
5250329.000000,10669470.000000
5169223.000000,10615277.000000
5115030.000000,10534171.000000
5096000.000000,10438500.000000
5096000.000000,9938500.000000
5115030.000000,9842829.000000
5169223.000000,9761723.000000
5250329.000000,9707530.000000
5346000.000000,9688500.000000
6846000.000000,9688500.000000
6941671.000000,9707530.000000
7022777.000000,9761723.000000
7076970.000000,9842829.000000
7096000.000000,9938500.000000
7096000.000000,10438500.000000
7076970.000000,10534171.000000
7022777.000000,10615277.000000
6941671.000000,10669470.000000
6846000.000000,10688500.000000
Z" /> 
</g>
<g >
</g>
<g style="fill:#000000; fill-opacity:1.0; 
stroke:#000000; stroke-width:1.000000; stroke-opacity:1; 
stroke-linecap:round; stroke-linejoin:round;">
<path style="fill:#000000; fill-opacity:1.0; 
stroke:#000000; stroke-width:1.000000; stroke-opacity:1; 
stroke-linecap:round; stroke-linejoin:round;fill-rule:evenodd;"
d="M 11282000.000000,4958500.000000
11293418.000000,4901097.000000
11325934.000000,4852434.000000
11374597.000000,4819918.000000
11432000.000000,4808500.000000
12682000.000000,4808500.000000
12739403.000000,4819918.000000
12788066.000000,4852434.000000
12820582.000000,4901097.000000
12832000.000000,4958500.000000
12832000.000000,5258500.000000
12820582.000000,5315903.000000
12788066.000000,5364566.000000
12739403.000000,5397082.000000
12682000.000000,5408500.000000
11432000.000000,5408500.000000
11374597.000000,5397082.000000
11325934.000000,5364566.000000
11293418.000000,5315903.000000
11282000.000000,5258500.000000
Z" /> 
<path style="fill:#000000; fill-opacity:1.0; 
stroke:#000000; stroke-width:1.000000; stroke-opacity:1; 
stroke-linecap:round; stroke-linejoin:round;fill-rule:evenodd;"
d="M 11282000.000000,6228500.000000
11293418.000000,6171097.000000
11325934.000000,6122434.000000
11374597.000000,6089918.000000
11432000.000000,6078500.000000
12682000.000000,6078500.000000
12739403.000000,6089918.000000
12788066.000000,6122434.000000
12820582.000000,6171097.000000
12832000.000000,6228500.000000
12832000.000000,6528500.000000
12820582.000000,6585903.000000
12788066.000000,6634566.000000
12739403.000000,6667082.000000
12682000.000000,6678500.000000
11432000.000000,6678500.000000
11374597.000000,6667082.000000
11325934.000000,6634566.000000
11293418.000000,6585903.000000
11282000.000000,6528500.000000
Z" /> 
<path style="fill:#000000; fill-opacity:1.0; 
stroke:#000000; stroke-width:1.000000; stroke-opacity:1; 
stroke-linecap:round; stroke-linejoin:round;fill-rule:evenodd;"
d="M 11282000.000000,7498500.000000
11293418.000000,7441097.000000
11325934.000000,7392434.000000
11374597.000000,7359918.000000
11432000.000000,7348500.000000
12682000.000000,7348500.000000
12739403.000000,7359918.000000
12788066.000000,7392434.000000
12820582.000000,7441097.000000
12832000.000000,7498500.000000
12832000.000000,7798500.000000
12820582.000000,7855903.000000
12788066.000000,7904566.000000
12739403.000000,7937082.000000
12682000.000000,7948500.000000
11432000.000000,7948500.000000
11374597.000000,7937082.000000
11325934.000000,7904566.000000
11293418.000000,7855903.000000
11282000.000000,7798500.000000
Z" /> 
<path style="fill:#000000; fill-opacity:1.0; 
stroke:#000000; stroke-width:1.000000; stroke-opacity:1; 
stroke-linecap:round; stroke-linejoin:round;fill-rule:evenodd;"
d="M 11282000.000000,8768500.000000
11293418.000000,8711097.000000
11325934.000000,8662434.000000
11374597.000000,8629918.000000
11432000.000000,8618500.000000
12682000.000000,8618500.000000
12739403.000000,8629918.000000
12788066.000000,8662434.000000
12820582.000000,8711097.000000
12832000.000000,8768500.000000
12832000.000000,9068500.000000
12820582.000000,9125903.000000
12788066.000000,9174566.000000
12739403.000000,9207082.000000
12682000.000000,9218500.000000
11432000.000000,9218500.000000
11374597.000000,9207082.000000
11325934.000000,9174566.000000
11293418.000000,9125903.000000
11282000.000000,9068500.000000
Z" /> 
<path style="fill:#000000; fill-opacity:1.0; 
stroke:#000000; stroke-width:1.000000; stroke-opacity:1; 
stroke-linecap:round; stroke-linejoin:round;fill-rule:evenodd;"
d="M 16632000.000000,8768500.000000
16643418.000000,8711097.000000
16675934.000000,8662434.000000
16724597.000000,8629918.000000
16782000.000000,8618500.000000
18032000.000000,8618500.000000
18089403.000000,8629918.000000
18138066.000000,8662434.000000
18170582.000000,8711097.000000
18182000.000000,8768500.000000
18182000.000000,9068500.000000
18170582.000000,9125903.000000
18138066.000000,9174566.000000
18089403.000000,9207082.000000
18032000.000000,9218500.000000
16782000.000000,9218500.000000
16724597.000000,9207082.000000
16675934.000000,9174566.000000
16643418.000000,9125903.000000
16632000.000000,9068500.000000
Z" /> 
<path style="fill:#000000; fill-opacity:1.0; 
stroke:#000000; stroke-width:1.000000; stroke-opacity:1; 
stroke-linecap:round; stroke-linejoin:round;fill-rule:evenodd;"
d="M 16632000.000000,7498500.000000
16643418.000000,7441097.000000
16675934.000000,7392434.000000
16724597.000000,7359918.000000
16782000.000000,7348500.000000
18032000.000000,7348500.000000
18089403.000000,7359918.000000
18138066.000000,7392434.000000
18170582.000000,7441097.000000
18182000.000000,7498500.000000
18182000.000000,7798500.000000
18170582.000000,7855903.000000
18138066.000000,7904566.000000
18089403.000000,7937082.000000
18032000.000000,7948500.000000
16782000.000000,7948500.000000
16724597.000000,7937082.000000
16675934.000000,7904566.000000
16643418.000000,7855903.000000
16632000.000000,7798500.000000
Z" /> 
<path style="fill:#000000; fill-opacity:1.0; 
stroke:#000000; stroke-width:1.000000; stroke-opacity:1; 
stroke-linecap:round; stroke-linejoin:round;fill-rule:evenodd;"
d="M 16632000.000000,6228500.000000
16643418.000000,6171097.000000
16675934.000000,6122434.000000
16724597.000000,6089918.000000
16782000.000000,6078500.000000
18032000.000000,6078500.000000
18089403.000000,6089918.000000
18138066.000000,6122434.000000
18170582.000000,6171097.000000
18182000.000000,6228500.000000
18182000.000000,6528500.000000
18170582.000000,6585903.000000
18138066.000000,6634566.000000
18089403.000000,6667082.000000
18032000.000000,6678500.000000
16782000.000000,6678500.000000
16724597.000000,6667082.000000
16675934.000000,6634566.000000
16643418.000000,6585903.000000
16632000.000000,6528500.000000
Z" /> 
<path style="fill:#000000; fill-opacity:1.0; 
stroke:#000000; stroke-width:1.000000; stroke-opacity:1; 
stroke-linecap:round; stroke-linejoin:round;fill-rule:evenodd;"
d="M 16632000.000000,4958500.000000
16643418.000000,4901097.000000
16675934.000000,4852434.000000
16724597.000000,4819918.000000
16782000.000000,4808500.000000
18032000.000000,4808500.000000
18089403.000000,4819918.000000
18138066.000000,4852434.000000
18170582.000000,4901097.000000
18182000.000000,4958500.000000
18182000.000000,5258500.000000
18170582.000000,5315903.000000
18138066.000000,5364566.000000
18089403.000000,5397082.000000
18032000.000000,5408500.000000
16782000.000000,5408500.000000
16724597.000000,5397082.000000
16675934.000000,5364566.000000
16643418.000000,5315903.000000
16632000.000000,5258500.000000
Z" /> 
</g>
<g >
</g>
<g style="fill:#000000; fill-opacity:1.0; 
stroke:#000000; stroke-width:1.000000; stroke-opacity:1; 
stroke-linecap:round; stroke-linejoin:round;">
<path style="fill:#000000; fill-opacity:1.0; 
stroke:#000000; stroke-width:1.000000; stroke-opacity:1; 
stroke-linecap:round; stroke-linejoin:round;fill-rule:evenodd;"
d="M 18666000.000000,6014000.000000
18684079.000000,5923113.000000
18735562.000000,5846062.000000
18812613.000000,5794579.000000
18903500.000000,5776500.000000
19403500.000000,5776500.000000
19494387.000000,5794579.000000
19571438.000000,5846062.000000
19622921.000000,5923113.000000
19641000.000000,6014000.000000
19641000.000000,6489000.000000
19622921.000000,6579887.000000
19571438.000000,6656938.000000
19494387.000000,6708421.000000
19403500.000000,6726500.000000
18903500.000000,6726500.000000
18812613.000000,6708421.000000
18735562.000000,6656938.000000
18684079.000000,6579887.000000
18666000.000000,6489000.000000
Z" /> 
<path style="fill:#000000; fill-opacity:1.0; 
stroke:#000000; stroke-width:1.000000; stroke-opacity:1; 
stroke-linecap:round; stroke-linejoin:round;fill-rule:evenodd;"
d="M 20491000.000000,6014000.000000
20509079.000000,5923113.000000
20560562.000000,5846062.000000
20637613.000000,5794579.000000
20728500.000000,5776500.000000
21228500.000000,5776500.000000
21319387.000000,5794579.000000
21396438.000000,5846062.000000
21447921.000000,5923113.000000
21466000.000000,6014000.000000
21466000.000000,6489000.000000
21447921.000000,6579887.000000
21396438.000000,6656938.000000
21319387.000000,6708421.000000
21228500.000000,6726500.000000
20728500.000000,6726500.000000
20637613.000000,6708421.000000
20560562.000000,6656938.000000
20509079.000000,6579887.000000
20491000.000000,6489000.000000
Z" /> 
</g>
<g >
</g>
<g style="fill:#000000; fill-opacity:1.0; 
stroke:#000000; stroke-width:1.000000; stroke-opacity:1; 
stroke-linecap:round; stroke-linejoin:round;">
<path style="fill:#000000; fill-opacity:1.0; 
stroke:#000000; stroke-width:1.000000; stroke-opacity:1; 
stroke-linecap:round; stroke-linejoin:round;fill-rule:evenodd;"
d="M 10069751.000000,8074160.000000
10004867.000000,8117515.000000
9928330.000000,8132738.000000
9851793.000000,8117515.000000
9786909.000000,8074160.000000
9504066.000000,7791317.000000
9460711.000000,7726433.000000
9445488.000000,7649896.000000
9460711.000000,7573359.000000
9504066.000000,7508475.000000
9892975.000000,7119566.000000
9957859.000000,7076211.000000
10034396.000000,7060988.000000
10110933.000000,7076211.000000
10175817.000000,7119566.000000
10458660.000000,7402409.000000
10502015.000000,7467293.000000
10517238.000000,7543830.000000
10502015.000000,7620367.000000
10458660.000000,7685251.000000
Z" /> 
<path style="fill:#000000; fill-opacity:1.0; 
stroke:#000000; stroke-width:1.000000; stroke-opacity:1; 
stroke-linecap:round; stroke-linejoin:round;fill-rule:evenodd;"
d="M 8903025.000000,6907434.000000
8838141.000000,6950789.000000
8761604.000000,6966012.000000
8685067.000000,6950789.000000
8620183.000000,6907434.000000
8337340.000000,6624591.000000
8293985.000000,6559707.000000
8278762.000000,6483170.000000
8293985.000000,6406633.000000
8337340.000000,6341749.000000
8726249.000000,5952840.000000
8791133.000000,5909485.000000
8867670.000000,5894262.000000
8944207.000000,5909485.000000
9009091.000000,5952840.000000
9291934.000000,6235683.000000
9335289.000000,6300567.000000
9350512.000000,6377104.000000
9335289.000000,6453641.000000
9291934.000000,6518525.000000
Z" /> 
</g>
<g >
</g>
<g style="fill:#000000; fill-opacity:1.0; 
stroke:#000000; stroke-width:1.000000; stroke-opacity:1; 
stroke-linecap:round; stroke-linejoin:round;">
<path style="fill:#000000; fill-opacity:1.0; 
stroke:#000000; stroke-width:1.000000; stroke-opacity:1; 
stroke-linecap:round; stroke-linejoin:round;fill-rule:evenodd;"
d="M 4917001.000000,18024500.000000
4821330.000000,18005470.000000
4740224.000000,17951276.000000
4686030.000000,17870170.000000
4667001.000000,17774498.000000
4667000.000000,16774501.000000
4686030.000000,16678830.000000
4740224.000000,16597724.000000
4821330.000000,16543530.000000
4917002.000000,16524501.000000
6766999.000000,16524500.000000
6862670.000000,16543530.000000
6943776.000000,16597724.000000
6997970.000000,16678830.000000
7016999.000000,16774502.000000
7017000.000000,17774499.000000
6997970.000000,17870170.000000
6943776.000000,17951276.000000
6862670.000000,18005470.000000
6766998.000000,18024499.000000
Z" /> 
<path style="fill:#000000; fill-opacity:1.0; 
stroke:#000000; stroke-width:1.000000; stroke-opacity:1; 
stroke-linecap:round; stroke-linejoin:round;fill-rule:evenodd;"
d="M 4917001.000000,14774500.000000
4821330.000000,14755470.000000
4740224.000000,14701276.000000
4686030.000000,14620170.000000
4667001.000000,14524498.000000
4667000.000000,13524501.000000
4686030.000000,13428830.000000
4740224.000000,13347724.000000
4821330.000000,13293530.000000
4917002.000000,13274501.000000
6766999.000000,13274500.000000
6862670.000000,13293530.000000
6943776.000000,13347724.000000
6997970.000000,13428830.000000
7016999.000000,13524502.000000
7017000.000000,14524499.000000
6997970.000000,14620170.000000
6943776.000000,14701276.000000
6862670.000000,14755470.000000
6766998.000000,14774499.000000
Z" /> 
</g>
<g >
</g>
<g >
</g>
<g style="fill:#000000; fill-opacity:1.0; 
stroke:#000000; stroke-width:1.000000; stroke-opacity:1; 
stroke-linecap:round; stroke-linejoin:round;">
<path style="fill:#000000; fill-opacity:1.0; 
stroke:#000000; stroke-width:1.000000; stroke-opacity:1; 
stroke-linecap:round; stroke-linejoin:round;fill-rule:evenodd;"
d="M 1790000.000000,13863500.000000
1694329.000000,13844470.000000
1613223.000000,13790277.000000
1559030.000000,13709171.000000
1540000.000000,13613500.000000
1540000.000000,13113500.000000
1559030.000000,13017829.000000
1613223.000000,12936723.000000
1694329.000000,12882530.000000
1790000.000000,12863500.000000
3290000.000000,12863500.000000
3385671.000000,12882530.000000
3466777.000000,12936723.000000
3520970.000000,13017829.000000
3540000.000000,13113500.000000
3540000.000000,13613500.000000
3520970.000000,13709171.000000
3466777.000000,13790277.000000
3385671.000000,13844470.000000
3290000.000000,13863500.000000
Z" /> 
</g>
<g >
</g>
<g >
</g>
<g >
</g>
<g style="fill:#000000; fill-opacity:1.0; 
stroke:#000000; stroke-width:1.000000; stroke-opacity:1; 
stroke-linecap:round; stroke-linejoin:round;">
</g>
<g style="fill:#000000; fill-opacity:1.0; 
stroke:#000000; stroke-width:600000.000000; stroke-opacity:1; 
stroke-linecap:round; stroke-linejoin:round;">
</g>
<g style="fill:#000000; fill-opacity:0.0; 
stroke:#000000; stroke-width:600000.000000; stroke-opacity:1; 
stroke-linecap:round; stroke-linejoin:round;">
<path d="M15848500 3558000
L14478000 2187500
" />
<path d="M1016000 3203500
L2032000 2187500
" />
<path d="M5842000 17274500
L4064500 17274500
" />
</g>
<g style="fill:#000000; fill-opacity:0.0; 
stroke:#000000; stroke-width:800000.000000; stroke-opacity:1; 
stroke-linecap:round; stroke-linejoin:round;">
<path d="M5842000 17274500
L8480000 17274500
" />
</g>
<g style="fill:#000000; fill-opacity:0.0; 
stroke:#000000; stroke-width:600000.000000; stroke-opacity:1; 
stroke-linecap:round; stroke-linejoin:round;">
<path d="M4064500 17274500
L3556000 16766000
" />
<path d="M1016000 12347500
L1016000 3203500
" />
</g>
<g style="fill:#000000; fill-opacity:0.0; 
stroke:#000000; stroke-width:800000.000000; stroke-opacity:1; 
stroke-linecap:round; stroke-linejoin:round;">
<path d="M8480000 17274500
L8701000 17495500
" />
</g>
<g style="fill:#000000; fill-opacity:0.0; 
stroke:#000000; stroke-width:600000.000000; stroke-opacity:1; 
stroke-linecap:round; stroke-linejoin:round;">
<path d="M3556000 16766000
L2386500 16766000
" />
<path d="M15848500 3711500
L15848500 3812000
" />
<path d="M2032000 2187500
L2540000 2187500
" />
<path d="M17145000 5108500
L17407000 5108500
" />
<path d="M2386500 16766000
L1270000 15649500
" />
<path d="M15848500 3812000
L17145000 5108500
" />
<path d="M1270000 15649500
L1270000 14125500
" />
<path d="M15848500 3711500
L15848500 3558000
" />
<path d="M14478000 2187500
L3048000 2187500
" />
<path d="M1270000 14125500
L2032000 13363500
" />
<path d="M2540000 13363500
L2032000 13363500
" />
<path d="M2032000 13363500
L1016000 12347500
" />
<path d="M27319510 8649990
L26416000 9553500
" />
<path d="M26416000 9553500
L22198500 9553500
" />
<path d="M20978500 6251500
L20978500 8233500
" />
<path d="M22198500 9553500
L20928500 8283500
" />
<path d="M20978500 8233500
L20928500 8283500
" />
<path d="M27319510 6090210
L27319510 8649990
" />
</g>
<g style="fill:#000000; fill-opacity:0.0; 
stroke:#000000; stroke-width:800000.000000; stroke-opacity:1; 
stroke-linecap:round; stroke-linejoin:round;">
<path d="M32834000 17495500
L20763000 17495500
" />
<path d="M34939510 22254770
L34939510 19601010
" />
<path d="M34939510 19601010
L32834000 17495500
" />
</g>
<g style="fill:#000000; fill-opacity:0.0; 
stroke:#000000; stroke-width:600000.000000; stroke-opacity:1; 
stroke-linecap:round; stroke-linejoin:round;">
<path d="M8001000 5108500
L7747000 5362500
" />
<path d="M12057000 5108500
L8001000 5108500
" />
<path d="M7747000 5362500
L6096000 5362500
" />
<path d="M6096000 5362500
L6096000 6886500
" />
<path d="M10033000 7648500
L9981363 7596863
" />
<path d="M12057000 7648500
L10033000 7648500
" />
<path d="M8866274 6378500
L8814637 6430137
" />
<path d="M12057000 6378500
L8866274 6378500
" />
<path d="M17407000 6378500
L19026500 6378500
" />
<path d="M19026500 6378500
L19153500 6251500
" />
<path d="M7747000 8664500
L6096000 8664500
" />
<path d="M12057000 8918500
L8001000 8918500
" />
<path d="M8001000 8918500
L7747000 8664500
" />
<path d="M6096000 8664500
L6096000 10188500
" />
<path d="M22861270 22254770
L24779510 22254770
" />
<path d="M21912000 23201500
L22860000 22253500
" />
<path d="M22860000 22253500
L22861270 22254770
" />
<path d="M20871000 23201500
L21912000 23201500
" />
<path d="M16721000 23201500
L20871000 23201500
" />
<path d="M40019510 5538990
L41593000 3965500
" />
</g>
<g style="fill:#000000; fill-opacity:0.0; 
stroke:#000000; stroke-width:800000.000000; stroke-opacity:1; 
stroke-linecap:round; stroke-linejoin:round;">
<path d="M41593000 2899700
L41592000 2898700
" />
</g>
<g style="fill:#000000; fill-opacity:0.0; 
stroke:#000000; stroke-width:600000.000000; stroke-opacity:1; 
stroke-linecap:round; stroke-linejoin:round;">
<path d="M40019510 6090210
L40019510 5538990
" />
</g>
<g style="fill:#000000; fill-opacity:0.0; 
stroke:#000000; stroke-width:800000.000000; stroke-opacity:1; 
stroke-linecap:round; stroke-linejoin:round;">
<path d="M41593000 3965500
L41593000 2899700
" />
</g>
<g >
</g>
<g style="fill:#000000; fill-opacity:0.0; 
stroke:#000000; stroke-width:800000.000000; stroke-opacity:1; 
stroke-linecap:round; stroke-linejoin:round;">
<g >
</g>
<g style="fill:#000000; fill-opacity:1.0; 
stroke:#000000; stroke-width:1.000000; stroke-opacity:1; 
stroke-linecap:round; stroke-linejoin:round;">
<path style="fill:#000000; fill-opacity:1.0; 
stroke:#000000; stroke-width:1.000000; stroke-opacity:1; 
stroke-linecap:round; stroke-linejoin:round;fill-rule:evenodd;"
d="M 43891319.000000,1903258.000000
43973398.000000,1958102.000000
44028242.000000,2040181.000000
44047500.000000,2137000.000000
44047500.000000,23614000.000000
44028242.000000,23710819.000000
43973398.000000,23792898.000000
43891319.000000,23847742.000000
43794500.000000,23867000.000000
41782000.000000,23867000.000000
41685181.000000,23847742.000000
41603102.000000,23792898.000000
41548258.000000,23710819.000000
41529000.000000,23614000.000000
41529000.000000,19840500.000000
41148000.000000,19459500.000000
38862000.000000,19459500.000000
38481000.000000,19840500.000000
38481000.000000,23614000.000000
38461742.000000,23710819.000000
38406898.000000,23792898.000000
38324819.000000,23847742.000000
38228000.000000,23867000.000000
36702000.000000,23867000.000000
36605181.000000,23847742.000000
36523102.000000,23792898.000000
36468258.000000,23710819.000000
36449000.000000,23614000.000000
36449000.000000,19840500.000000
35702262.000000,19093762.000000
35681994.000000,19070031.000000
35678550.000000,19064066.000000
35634996.000000,19015695.000000
35626423.000000,19005657.000000
35615582.000000,18992269.000000
35603420.000000,18980107.000000
35594302.000000,18970499.000000
35559636.000000,18931999.000000
35550763.000000,18922144.000000
35540032.000000,18914348.000000
35530185.000000,18905481.000000
35530435.000000,18905203.000000
35517281.000000,18893968.000000
33541042.000000,16917729.000000
33529807.000000,16904575.000000
33529529.000000,16904825.000000
33520662.000000,16894978.000000
33512866.000000,16884247.000000
33464511.000000,16840708.000000
33454903.000000,16831590.000000
33442741.000000,16819428.000000
33429353.000000,16808587.000000
33419315.000000,16800014.000000
33370944.000000,16756460.000000
33359463.000000,16749832.000000
33350812.000000,16743546.000000
33341836.000000,16737716.000000
33331530.000000,16729371.000000
33319718.000000,16723352.000000
33319708.000000,16723346.000000
33273541.000000,16699823.000000
33261902.000000,16693504.000000
33248237.000000,16685615.000000
33205556.000000,16660973.000000
33192945.000000,16656876.000000
33183174.000000,16652525.000000
33173183.000000,16648690.000000
33161370.000000,16642671.000000
33098523.000000,16625831.000000
33085826.000000,16622070.000000
33023928.000000,16601958.000000
33010742.000000,16600572.000000
33000295.000000,16598351.000000
32989713.000000,16596675.000000
32976903.000000,16593243.000000
32911931.000000,16589838.000000
32898726.000000,16588799.000000
32888194.000000,16587692.000000
32881610.000000,16587000.000000
32864401.000000,16587000.000000
32851160.000000,16586653.000000
32850593.000000,16586623.000000
32786190.000000,16583248.000000
32773095.000000,16585322.000000
32759852.000000,16586016.000000
32759832.000000,16585643.000000
32742590.000000,16587000.000000
23013296.000000,16587000.000000
22916477.000000,16567742.000000
22834398.000000,16512898.000000
22217797.000000,15896297.000000
22207261.000000,15882239.000000
22193203.000000,15871703.000000
22072600.000000,15751100.000000
22006307.000000,15751100.000000
21959166.000000,15745573.000000
21954316.000000,15743755.000000
21920869.000000,15740122.000000
21898950.000000,15737740.000000
21898942.000000,15737740.000000
21892134.000000,15737000.000000
19633866.000000,15737000.000000
19627058.000000,15737740.000000
19627050.000000,15737740.000000
19587458.000000,15742041.000000
19587455.000000,15742042.000000
19571684.000000,15743755.000000
19539877.000000,15755679.000000
19452174.000000,15788557.000000
19452172.000000,15788558.000000
19435295.000000,15794885.000000
19420874.000000,15805693.000000
19420872.000000,15805694.000000
19333160.000000,15871431.000000
19318739.000000,15882239.000000
19231385.000000,15998795.000000
19180255.000000,16135184.000000
19173500.000000,16197366.000000
19173500.000000,18793634.000000
19180255.000000,18855816.000000
19198874.000000,18905481.000000
19223248.000000,18970499.000000
19231385.000000,18992205.000000
19242193.000000,19006626.000000
19242194.000000,19006628.000000
19296211.000000,19078702.000000
19318739.000000,19108761.000000
19333160.000000,19119569.000000
19420872.000000,19185306.000000
19420874.000000,19185307.000000
19435295.000000,19196115.000000
19452172.000000,19202442.000000
19452174.000000,19202443.000000
19503396.000000,19221645.000000
19571684.000000,19247245.000000
19587455.000000,19248958.000000
19587458.000000,19248959.000000
19627050.000000,19253260.000000
19627058.000000,19253260.000000
19633866.000000,19254000.000000
21464000.000000,19254000.000000
21560819.000000,19273258.000000
21642898.000000,19328102.000000
21697742.000000,19410181.000000
21717000.000000,19507000.000000
21717000.000000,21238500.000000
21697742.000000,21335319.000000
21642898.000000,21417398.000000
21560819.000000,21472242.000000
21464000.000000,21491500.000000
16255000.000000,21491500.000000
16158181.000000,21472242.000000
16076102.000000,21417398.000000
16021258.000000,21335319.000000
16002000.000000,21238500.000000
16002000.000000,20072296.000000
16021258.000000,19975477.000000
16076102.000000,19893398.000000
17907000.000000,18062500.000000
17907000.000000,13595296.000000
17926258.000000,13498477.000000
17981102.000000,13416398.000000
20574000.000000,10823500.000000
20574000.000000,9683188.000000
20593258.000000,9586369.000000
20648102.000000,9504290.000000
20730181.000000,9449446.000000
20827000.000000,9430188.000000
20923819.000000,9449446.000000
21005898.000000,9504290.000000
21619851.000000,10118243.000000
21621714.000000,10120126.000000
21684271.000000,10184007.000000
21715308.000000,10204009.000000
21736088.000000,10218941.000000
21764943.000000,10241976.000000
21777680.000000,10248133.000000
21788137.000000,10253188.000000
21815076.000000,10268304.000000
21836738.000000,10282265.000000
21871443.000000,10294897.000000
21895000.000000,10304848.000000
21928249.000000,10320921.000000
21942024.000000,10324101.000000
21942029.000000,10324103.000000
21953357.000000,10326718.000000
21982975.000000,10335491.000000
22007185.000000,10344303.000000
22043813.000000,10348930.000000
22069011.000000,10353418.000000
22104985.000000,10361724.000000
22146015.000000,10361867.000000
22146289.000000,10361876.000000
22147269.000000,10362000.000000
22183762.000000,10362000.000000
22184645.000000,10362002.000000
22286370.000000,10362357.000000
22287715.000000,10362056.000000
22288755.000000,10362000.000000
26406124.000000,10362000.000000
26408774.000000,10362014.000000
26484074.000000,10362803.000000
26484076.000000,10362803.000000
26498221.000000,10362951.000000
26512050.000000,10359961.000000
26512051.000000,10359961.000000
26534309.000000,10355149.000000
26559563.000000,10351013.000000
26567789.000000,10350090.000000
26596255.000000,10346897.000000
26620590.000000,10338423.000000
26650321.000000,10330066.000000
26661679.000000,10327610.000000
26661683.000000,10327609.000000
26675510.000000,10324619.000000
26688325.000000,10318643.000000
26688332.000000,10318641.000000
26708965.000000,10309019.000000
26732688.000000,10299386.000000
26754192.000000,10291898.000000
26754196.000000,10291896.000000
26767552.000000,10287245.000000
26789412.000000,10273586.000000
26816541.000000,10258856.000000
26839902.000000,10247962.000000
26869079.000000,10225329.000000
26890056.000000,10210696.000000
26921376.000000,10191126.000000
26950497.000000,10162208.000000
26950690.000000,10162028.000000
26951470.000000,10161422.000000
26977123.000000,10135769.000000
26977748.000000,10135146.000000
27047282.000000,10066096.000000
27047286.000000,10066092.000000
27050082.000000,10063315.000000
27050819.000000,10062153.000000
27051520.000000,10061372.000000
27688490.000000,9424402.000000
27770569.000000,9369558.000000
27867388.000000,9350300.000000
28794500.000000,9350300.000000
28891319.000000,9369558.000000
28973398.000000,9424402.000000
29028242.000000,9506481.000000
29047500.000000,9603300.000000
29047500.000000,11616592.000000
29047495.000000,11618138.000000
29047024.000000,11695221.000000
29051976.000000,11712549.000000
29051977.000000,11712553.000000
29052771.000000,11715332.000000
29059954.000000,11748981.000000
29060364.000000,11751841.000000
29062920.000000,11769687.000000
29070380.000000,11786095.000000
29070927.000000,11787965.000000
29081298.000000,11816151.000000
29082096.000000,11817935.000000
29087051.000000,11835271.000000
29096670.000000,11850516.000000
29096672.000000,11850520.000000
29098207.000000,11852953.000000
29114551.000000,11883243.000000
29115747.000000,11885873.000000
29123208.000000,11902282.000000
29134975.000000,11915938.000000
29136020.000000,11917572.000000
29153892.000000,11941726.000000
29155157.000000,11943212.000000
29164776.000000,11958458.000000
29178285.000000,11970389.000000
29178286.000000,11970390.000000
29180450.000000,11972301.000000
29204634.000000,11996783.000000
29206522.000000,11998974.000000
29206525.000000,11998976.000000
29218287.000000,12012627.000000
29233407.000000,12022428.000000
29234867.000000,12023701.000000
29258803.000000,12041870.000000
29260439.000000,12042945.000000
29273951.000000,12054878.000000
29290268.000000,12062539.000000
29292885.000000,12063768.000000
29322952.000000,12080468.000000
29340515.000000,12091852.000000
29357785.000000,12097017.000000
29359552.000000,12097833.000000
29387608.000000,12108546.000000
29389478.000000,12109118.000000
29405800.000000,12116781.000000
29426475.000000,12120000.000000
29460022.000000,12127592.000000
29480066.000000,12133586.000000
29515102.000000,12133800.000000
29515102.000000,12133841.000000
29515452.000000,12133855.000000
29516386.000000,12134000.000000
29547092.000000,12134000.000000
29548639.000000,12134005.000000
29625721.000000,12134476.000000
29627315.000000,12134020.000000
29627613.000000,12134000.000000
38047092.000000,12134000.000000
38048638.000000,12134005.000000
38107699.000000,12134366.000000
38107700.000000,12134366.000000
38125721.000000,12134476.000000
38143049.000000,12129524.000000
38143053.000000,12129523.000000
38145832.000000,12128729.000000
38179292.000000,12121573.000000
38179917.000000,12121483.000000
38215977.000000,12118900.000000
39217600.000000,12118900.000000
41529000.000000,9807500.000000
41529000.000000,5277688.000000
41548258.000000,5180869.000000
41603102.000000,5098790.000000
41679178.000000,5022714.000000
41761257.000000,4967870.000000
41845944.000000,4948999.000000
41849634.000000,4948999.000000
41855414.000000,4948468.000000
41909689.000000,4943482.000000
41909693.000000,4943481.000000
41923062.000000,4942253.000000
41935872.000000,4938239.000000
41935875.000000,4938238.000000
42072148.000000,4895532.000000
42086699.000000,4890972.000000
42233381.000000,4802139.000000
42354639.000000,4680881.000000
42443472.000000,4534199.000000
42485495.000000,4400105.000000
42490739.000000,4383372.000000
42490740.000000,4383368.000000
42494753.000000,4370562.000000
42498117.000000,4333955.000000
42500970.000000,4302908.000000
42500970.000000,4302898.000000
42501500.000000,4297135.000000
42501500.000000,2991109.000000
42502857.000000,2973867.000000
42502484.000000,2973847.000000
42503178.000000,2960604.000000
42505252.000000,2947509.000000
42501847.000000,2882539.000000
42501500.000000,2869298.000000
42501500.000000,2852090.000000
42500833.000000,2845746.000000
42500499.000000,2832997.000000
42500499.000000,2567066.000000
42493753.000000,2493638.000000
42480377.000000,2450955.000000
42468800.000000,2375298.000000
42468800.000000,2137000.000000
42488058.000000,2040181.000000
42542902.000000,1958102.000000
42624981.000000,1903258.000000
42721800.000000,1884000.000000
43794500.000000,1884000.000000
Z" /> 
</g>
</g>
<g style="fill:#000000; fill-opacity:1.0; 
stroke:#000000; stroke-width:1.000000; stroke-opacity:1; 
stroke-linecap:round; stroke-linejoin:round;">
<g >
<path style="fill:#000000; fill-opacity:1.0; 
stroke:#000000; stroke-width:1.000000; stroke-opacity:1; 
stroke-linecap:round; stroke-linejoin:round;fill-rule:evenodd;"
d="M 3302000.000000,3199714.000000
3302000.000000,3203500.000000
14245812.000000,3203500.000000
14342631.000000,3222758.000000
14424709.000000,3277601.000000
14581697.000000,3434588.000000
14636541.000000,3516667.000000
14655800.000000,3613487.000000
14655800.000000,4194100.000000
16054898.000000,5593198.000000
16109742.000000,5675277.000000
16129000.000000,5772096.000000
16129000.000000,6095061.000000
16126319.000000,6124660.000000
16126438.000000,6124669.000000
16123500.000000,6161998.000000
16123500.000000,6595002.000000
16123890.000000,6599957.000000
16126438.000000,6632331.000000
16126319.000000,6632340.000000
16129000.000000,6661939.000000
16129000.000000,6886500.000000
16560800.000000,7318300.000000
19305000.000000,7318300.000000
19401819.000000,7337558.000000
19483898.000000,7392402.000000
19538742.000000,7474481.000000
19558000.000000,7571300.000000
19558000.000000,9575704.000000
19538742.000000,9672523.000000
19483898.000000,9754602.000000
17854102.000000,11384398.000000
17772023.000000,11439242.000000
17675204.000000,11458500.000000
12065000.000000,11458500.000000
11684000.000000,11839500.000000
11684000.000000,17808500.000000
13133898.000000,19258398.000000
13188742.000000,19340477.000000
13208000.000000,19437296.000000
13208000.000000,23614000.000000
13188742.000000,23710819.000000
13133898.000000,23792898.000000
13051819.000000,23847742.000000
12955000.000000,23867000.000000
817500.000000,23867000.000000
720681.000000,23847742.000000
638602.000000,23792898.000000
583758.000000,23710819.000000
564500.000000,23614000.000000
564500.000000,21125500.000000
1692526.000000,21125500.000000
1712391.000000,21377903.000000
1771495.000000,21624091.000000
1868384.000000,21858002.000000
2000672.000000,22073876.000000
2165102.000000,22266398.000000
2357624.000000,22430828.000000
2573498.000000,22563116.000000
2807409.000000,22660005.000000
2817067.000000,22662324.000000
2817071.000000,22662325.000000
2906789.000000,22683864.000000
3053597.000000,22719109.000000
3242801.000000,22734000.000000
3369199.000000,22734000.000000
3558403.000000,22719109.000000
3705211.000000,22683864.000000
3794929.000000,22662325.000000
3794933.000000,22662324.000000
3804591.000000,22660005.000000
4038502.000000,22563116.000000
4254376.000000,22430828.000000
4446898.000000,22266398.000000
4611328.000000,22073876.000000
4743616.000000,21858002.000000
4840505.000000,21624091.000000
4899609.000000,21377903.000000
4919474.000000,21125500.000000
4899609.000000,20873097.000000
4840505.000000,20626909.000000
4743616.000000,20392998.000000
4611328.000000,20177124.000000
4446898.000000,19984602.000000
4254376.000000,19820172.000000
4038502.000000,19687884.000000
3804591.000000,19590995.000000
3794933.000000,19588676.000000
3794929.000000,19588675.000000
3705211.000000,19567136.000000
3558403.000000,19531891.000000
3369199.000000,19517000.000000
3242801.000000,19517000.000000
3053597.000000,19531891.000000
2906789.000000,19567136.000000
2817071.000000,19588675.000000
2817067.000000,19588676.000000
2807409.000000,19590995.000000
2573498.000000,19687884.000000
2357624.000000,19820172.000000
2165102.000000,19984602.000000
2000672.000000,20177124.000000
1868384.000000,20392998.000000
1771495.000000,20626909.000000
1712391.000000,20873097.000000
1692526.000000,21125500.000000
564500.000000,21125500.000000
564500.000000,16918500.000000
583758.000000,16821681.000000
638602.000000,16739602.000000
720681.000000,16684758.000000
817500.000000,16665500.000000
1037812.000000,16665500.000000
1134631.000000,16684758.000000
1216710.000000,16739602.000000
1807851.000000,17330743.000000
1809714.000000,17332626.000000
1872271.000000,17396507.000000
1903308.000000,17416509.000000
1924088.000000,17431441.000000
1952943.000000,17454476.000000
1976142.000000,17465691.000000
2003080.000000,17480808.000000
2012845.000000,17487102.000000
2012855.000000,17487107.000000
2024738.000000,17494765.000000
2059429.000000,17507391.000000
2083008.000000,17517352.000000
2103515.000000,17527266.000000
2103519.000000,17527267.000000
2116248.000000,17533421.000000
2130027.000000,17536602.000000
2130032.000000,17536604.000000
2141358.000000,17539219.000000
2170966.000000,17547989.000000
2181890.000000,17551965.000000
2181897.000000,17551967.000000
2195185.000000,17556803.000000
2231813.000000,17561430.000000
2257011.000000,17565918.000000
2292985.000000,17574224.000000
2334015.000000,17574367.000000
2334289.000000,17574376.000000
2335269.000000,17574500.000000
2371762.000000,17574500.000000
2372645.000000,17574502.000000
2474370.000000,17574857.000000
2475715.000000,17574556.000000
2476755.000000,17574500.000000
2667260.000000,17574500.000000
2764079.000000,17593758.000000
2829749.000000,17637597.000000
2831060.000000,17635936.000000
2842598.000000,17645048.000000
2852997.000000,17655429.000000
3001080.000000,17746709.000000
3166191.000000,17801474.000000
3179939.000000,17802883.000000
3179941.000000,17802883.000000
3223427.000000,17807338.000000
3268928.000000,17812000.000000
3352840.000000,17812000.000000
3449659.000000,17831258.000000
3533602.000000,17887986.000000
3550271.000000,17905007.000000
3581309.000000,17925010.000000
3602082.000000,17939937.000000
3630943.000000,17962976.000000
3643678.000000,17969132.000000
3654137.000000,17974188.000000
3681076.000000,17989304.000000
3702738.000000,18003265.000000
3737443.000000,18015897.000000
3761000.000000,18025848.000000
3774472.000000,18032361.000000
3781520.000000,18035768.000000
3781522.000000,18035769.000000
3794249.000000,18041921.000000
3808025.000000,18045102.000000
3808026.000000,18045102.000000
3819357.000000,18047718.000000
3848972.000000,18056490.000000
3873185.000000,18065303.000000
3887217.000000,18067076.000000
3887219.000000,18067076.000000
3909797.000000,18069928.000000
3935006.000000,18074418.000000
3957206.000000,18079544.000000
3957209.000000,18079544.000000
3970985.000000,18082725.000000
4012035.000000,18082868.000000
4012295.000000,18082877.000000
4013269.000000,18083000.000000
4049476.000000,18083000.000000
4050359.000000,18083002.000000
4075868.000000,18083091.000000
4172619.000000,18102687.000000
4254506.000000,18157816.000000
4290123.000000,18202955.000000
4318522.000000,18248848.000000
4443697.000000,18373805.000000
4594262.000000,18466615.000000
4762139.000000,18522297.000000
4866600.000000,18533000.000000
6817400.000000,18533000.000000
6823914.000000,18532324.000000
6823916.000000,18532324.000000
6832393.000000,18531445.000000
6930683.000000,18540610.000000
7017983.000000,18586691.000000
7081003.000000,18662672.000000
7110149.000000,18756987.000000
7111500.000000,18783094.000000
7111500.000000,18793634.000000
7118255.000000,18855816.000000
7169385.000000,18992205.000000
7256739.000000,19108761.000000
7271160.000000,19119569.000000
7358872.000000,19185306.000000
7358874.000000,19185307.000000
7373295.000000,19196115.000000
7390172.000000,19202442.000000
7390174.000000,19202443.000000
7441396.000000,19221645.000000
7509684.000000,19247245.000000
7525455.000000,19248958.000000
7525458.000000,19248959.000000
7565050.000000,19253260.000000
7565058.000000,19253260.000000
7571866.000000,19254000.000000
9830134.000000,19254000.000000
9836942.000000,19253260.000000
9836950.000000,19253260.000000
9876542.000000,19248959.000000
9876545.000000,19248958.000000
9892316.000000,19247245.000000
9960604.000000,19221645.000000
10011826.000000,19202443.000000
10011828.000000,19202442.000000
10028705.000000,19196115.000000
10043126.000000,19185307.000000
10043128.000000,19185306.000000
10130840.000000,19119569.000000
10145261.000000,19108761.000000
10232615.000000,18992205.000000
10283745.000000,18855816.000000
10290500.000000,18793634.000000
10290500.000000,16197366.000000
10288480.000000,16178771.000000
10287000.000000,16151447.000000
10287000.000000,15649500.000000
10033000.000000,15395500.000000
4318000.000000,15395500.000000
4138102.000000,15575398.000000
4056023.000000,15630242.000000
3959204.000000,15649500.000000
3279796.000000,15649500.000000
3182977.000000,15630242.000000
3100898.000000,15575398.000000
2995102.000000,15469602.000000
2940258.000000,15387523.000000
2921000.000000,15290704.000000
2921000.000000,14759500.000000
2940258.000000,14662681.000000
2995102.000000,14580602.000000
3077181.000000,14525758.000000
3174000.000000,14506500.000000
4191000.000000,14506500.000000
4699000.000000,13998500.000000
4699000.000000,13743500.000000
4718258.000000,13646681.000000
4773102.000000,13564602.000000
4855181.000000,13509758.000000
4952000.000000,13490500.000000
5207000.000000,13490500.000000
5588000.000000,13109500.000000
5588000.000000,12474500.000000
5461000.000000,12347500.000000
2794000.000000,12347500.000000
2794000.000000,12351286.000000
2756294.000000,12355000.000000
2271688.000000,12355000.000000
2174869.000000,12335742.000000
2092790.000000,12280898.000000
1898602.000000,12086710.000000
1843758.000000,12004631.000000
1824500.000000,11907812.000000
1824500.000000,10950500.000000
2921000.000000,10950500.000000
3302000.000000,11331500.000000
9398000.000000,11331500.000000
9779000.000000,10950500.000000
9779000.000000,10060500.000000
9798258.000000,9963681.000000
9853102.000000,9881602.000000
9935181.000000,9826758.000000
10032000.000000,9807500.000000
12954000.000000,9807500.000000
13335000.000000,9426500.000000
13335000.000000,9201939.000000
13337681.000000,9172340.000000
13337562.000000,9172331.000000
13340110.000000,9139957.000000
13340500.000000,9135002.000000
13340500.000000,8701998.000000
13337562.000000,8664669.000000
13337681.000000,8664660.000000
13335000.000000,8635061.000000
13335000.000000,7931939.000000
13337681.000000,7902340.000000
13337562.000000,7902331.000000
13340110.000000,7869957.000000
13340500.000000,7865002.000000
13340500.000000,7431998.000000
13337562.000000,7394669.000000
13337681.000000,7394660.000000
13335000.000000,7365061.000000
13335000.000000,6661939.000000
13337681.000000,6632340.000000
13337562.000000,6632331.000000
13340110.000000,6599957.000000
13340500.000000,6595002.000000
13340500.000000,6161998.000000
13337562.000000,6124669.000000
13337681.000000,6124660.000000
13335000.000000,6095061.000000
13335000.000000,5391939.000000
13337681.000000,5362340.000000
13337562.000000,5362331.000000
13340110.000000,5329957.000000
13340500.000000,5325002.000000
13340500.000000,4891998.000000
13337562.000000,4854669.000000
13337681.000000,4854660.000000
13335000.000000,4825061.000000
13335000.000000,4600500.000000
12954000.000000,4219500.000000
3302000.000000,4219500.000000
2921000.000000,4600500.000000
2921000.000000,10950500.000000
1824500.000000,10950500.000000
1824500.000000,3643188.000000
1843758.000000,3546369.000000
1898602.000000,3464290.000000
2092790.000000,3270102.000000
2174869.000000,3215258.000000
2271688.000000,3196000.000000
3264294.000000,3196000.000000
Z" /> 
</g>
</g>
</g>
<g style="fill:#FFFFFF; fill-opacity:1.0; 
stroke:#FFFFFF; stroke-width:1.000000; stroke-opacity:1; 
stroke-linecap:round; stroke-linejoin:round;">
<circle cx="3306000.000000" cy="21125500.000000" r="1099999.500000" /> 
</g>
<g style="fill:#FFFFFF; fill-opacity:1.0; 
stroke:#FFFFFF; stroke-width:21200.000000; stroke-opacity:1; 
stroke-linecap:round; stroke-linejoin:round;">
</g>
<g style="fill:#FFFFFF; fill-opacity:1.0; 
stroke:#FFFFFF; stroke-width:1.000000; stroke-opacity:1; 
stroke-linecap:round; stroke-linejoin:round;">
<circle cx="21806000.000000" cy="3625500.000000" r="1099999.500000" /> 
</g>
<g style="fill:#FFFFFF; fill-opacity:1.0; 
stroke:#FFFFFF; stroke-width:21200.000000; stroke-opacity:1; 
stroke-linecap:round; stroke-linejoin:round;">
</g>
<g style="fill:#000000; fill-opacity:1.0; 
stroke:#000000; stroke-width:21200.000000; stroke-opacity:1; 
stroke-linecap:round; stroke-linejoin:round;">
</g>
<g style="fill:#000000; fill-opacity:1.0; 
stroke:#000000; stroke-width:100000.000000; stroke-opacity:1; 
stroke-linecap:round; stroke-linejoin:round;">
</g>
<g style="fill:#000000; fill-opacity:0.0; 
stroke:#000000; stroke-width:100000.000000; stroke-opacity:1; 
stroke-linecap:round; stroke-linejoin:round;">
<path d="M44556000 24375500
L56000 24375500
" />
<path d="M29556000 11625500
L29556000 1375500
" />
<path d="M56000 24375500
L56000 1375500
" />
<path d="M44556000 1375500
L38056000 1375500
" />
<path d="M38056000 11625500
L29556000 11625500
" />
<path d="M38056000 1375500
L38056000 11625500
" />
<path d="M44556000 1375500
L44556000 24375500
" />
<path d="M56000 1375500
L29556000 1375500
" />
<g >
</g>
<g >
</g>
<g >
</g>
<g >
</g>
<g >
</g>
<g >
</g>
<g >
</g>
<g >
</g>
<g >
</g>
<g >
</g>
<g >
</g>
<g >
</g>
<g >
</g>
<g >
</g>
<g >
</g>
<g >
</g>
<g >
</g>
<g >
</g>
<g >
</g>
<g >
</g>
<g >
</g>
<g >
</g>
<g >
</g>
<g >
</g>
<g >
</g>
<g >
</g>
</g> 
</svg>
