<?xml version="1.0" encoding="UTF-8" standalone="no"?>
<!-- Created with Inkscape (http://www.inkscape.org/) -->

<svg
   width="210mm"
   height="297mm"
   viewBox="0 0 210 297"
   version="1.1"
   id="svg5"
   xml:space="preserve"
   inkscape:version="1.2.2 (732a01da63, 2022-12-09)"
   sodipodi:docname="描画.svg"
   xmlns:inkscape="http://www.inkscape.org/namespaces/inkscape"
   xmlns:sodipodi="http://sodipodi.sourceforge.net/DTD/sodipodi-0.dtd"
   xmlns="http://www.w3.org/2000/svg"
   xmlns:svg="http://www.w3.org/2000/svg"><sodipodi:namedview
     id="namedview7"
     pagecolor="#ffffff"
     bordercolor="#666666"
     borderopacity="1.0"
     inkscape:showpageshadow="2"
     inkscape:pageopacity="0.0"
     inkscape:pagecheckerboard="0"
     inkscape:deskcolor="#d1d1d1"
     inkscape:document-units="mm"
     showgrid="false"
     inkscape:zoom="0.2102413"
     inkscape:cx="508.93901"
     inkscape:cy="475.64393"
     inkscape:window-width="2880"
     inkscape:window-height="1526"
     inkscape:window-x="421"
     inkscape:window-y="-11"
     inkscape:window-maximized="1"
     inkscape:current-layer="layer1" /><defs
     id="defs2" /><g
     inkscape:label="Layer 1"
     inkscape:groupmode="layer"
     id="layer1"><g
       id="g1535"
       inkscape:export-filename="g1535.png"
       inkscape:export-xdpi="300"
       inkscape:export-ydpi="300"><rect
         style="fill:#ffffff;stroke-width:0.308608"
         id="rect1316"
         width="2471.7908"
         height="1277.4773"
         x="-1134.5935"
         y="-519.63959" /><g
         id="g1104"
         transform="matrix(5.5543304e-5,0,0,5.5543304e-5,-1137.6417,-596.11333)"><g
           style="fill:#000000;fill-opacity:1;stroke:#000000;stroke-linecap:round;stroke-linejoin:round;stroke-opacity:1"
           id="g453" /><g
           style="fill:#000000;fill-opacity:0;stroke:#000000;stroke-width:0;stroke-linecap:round;stroke-linejoin:round;stroke-opacity:1"
           id="g795"><g
             id="g455" /><g
             style="fill:#000000;fill-opacity:0;stroke:#000000;stroke-width:1.99898e+06;stroke-linecap:round;stroke-linejoin:round;stroke-opacity:1"
             id="g477"><path
               d="m 40019510,5715560 v 749300"
               id="path457" /><path
               d="m 27319510,5715560 v 749300"
               id="path459" /><path
               d="m 24779510,5715560 v 749300"
               id="path461" /><path
               d="m 24779510,21880120 v 749300"
               id="path463" /><path
               d="m 27319510,21880120 v 749300"
               id="path465" /><path
               d="m 29859510,21880120 v 749300"
               id="path467" /><path
               d="m 32399510,21880120 v 749300"
               id="path469" /><path
               d="m 34939510,21880120 v 749300"
               id="path471" /><path
               d="m 37479510,21880120 v 749300"
               id="path473" /><path
               d="m 40019510,21880120 v 749300"
               id="path475" /></g><g
             id="g479" /><g
             id="g481" /><g
             style="fill:#000000;fill-opacity:0;stroke:#000000;stroke-width:1.99898e+06;stroke-linecap:round;stroke-linejoin:round;stroke-opacity:1"
             id="g483" /><g
             style="fill:#000000;fill-opacity:0;stroke:#000000;stroke-width:1;stroke-linecap:round;stroke-linejoin:round;stroke-opacity:1"
             id="g485" /><g
             style="fill:#000000;fill-opacity:1;stroke:#000000;stroke-width:1;stroke-linecap:round;stroke-linejoin:round;stroke-opacity:1"
             id="g491"><path
               style="fill:#000000;fill-opacity:1;fill-rule:evenodd;stroke:#000000;stroke-width:1;stroke-linecap:round;stroke-linejoin:round;stroke-opacity:1"
               d="m 38481000,2661200 18079,-90887 51483,-77051 77051,-51483 90887,-18079 h 1386000 l 90887,18079 77051,51483 51483,77051 18079,90887 v 475000 l -18079,90887 -51483,77051 -77051,51483 -90887,18079 h -1386000 l -90887,-18079 -77051,-51483 -51483,-77051 -18079,-90887 z"
               id="path487" /><path
               style="fill:#000000;fill-opacity:1;fill-rule:evenodd;stroke:#000000;stroke-width:1;stroke-linecap:round;stroke-linejoin:round;stroke-opacity:1"
               d="m 41192000,2623700 15224,-76537 43355,-64884 64884,-43355 76537,-15224 h 400000 l 76537,15224 64884,43355 43355,64884 15224,76537 v 550000 l -15224,76537 -43355,64884 -64884,43355 -76537,15224 h -400000 l -76537,-15224 -64884,-43355 -43355,-64884 -15224,-76537 z"
               id="path489" /></g><g
             id="g493" /><g
             style="fill:#000000;fill-opacity:1;stroke:#000000;stroke-width:1;stroke-linecap:round;stroke-linejoin:round;stroke-opacity:1"
             id="g499"><path
               style="fill:#000000;fill-opacity:1;fill-rule:evenodd;stroke:#000000;stroke-width:1;stroke-linecap:round;stroke-linejoin:round;stroke-opacity:1"
               d="m 21466000,8521000 -18079,90887 -51483,77051 -77051,51483 -90887,18079 h -600000 l -90887,-18079 -77051,-51483 -51483,-77051 -18079,-90887 v -475000 l 18079,-90887 51483,-77051 77051,-51483 90887,-18079 h 600000 l 90887,18079 77051,51483 51483,77051 18079,90887 z"
               id="path495" /><path
               style="fill:#000000;fill-opacity:1;fill-rule:evenodd;stroke:#000000;stroke-width:1;stroke-linecap:round;stroke-linejoin:round;stroke-opacity:1"
               d="m 19741000,8521000 -18079,90887 -51483,77051 -77051,51483 -90887,18079 h -600000 l -90887,-18079 -77051,-51483 -51483,-77051 -18079,-90887 v -475000 l 18079,-90887 51483,-77051 77051,-51483 90887,-18079 h 600000 l 90887,18079 77051,51483 51483,77051 18079,90887 z"
               id="path497" /></g><g
             id="g501" /><g
             style="fill:#000000;fill-opacity:1;stroke:#000000;stroke-width:1;stroke-linecap:round;stroke-linejoin:round;stroke-opacity:1"
             id="g507"><path
               style="fill:#000000;fill-opacity:1;fill-rule:evenodd;stroke:#000000;stroke-width:1;stroke-linecap:round;stroke-linejoin:round;stroke-opacity:1"
               d="m 16386000,3949000 -18079,90887 -51483,77051 -77051,51483 -90887,18079 h -600000 l -90887,-18079 -77051,-51483 -51483,-77051 -18079,-90887 v -475000 l 18079,-90887 51483,-77051 77051,-51483 90887,-18079 h 600000 l 90887,18079 77051,51483 51483,77051 18079,90887 z"
               id="path503" /><path
               style="fill:#000000;fill-opacity:1;fill-rule:evenodd;stroke:#000000;stroke-width:1;stroke-linecap:round;stroke-linejoin:round;stroke-opacity:1"
               d="m 14661000,3949000 -18079,90887 -51483,77051 -77051,51483 -90887,18079 h -600000 l -90887,-18079 -77051,-51483 -51483,-77051 -18079,-90887 v -475000 l 18079,-90887 51483,-77051 77051,-51483 90887,-18079 h 600000 l 90887,18079 77051,51483 51483,77051 18079,90887 z"
               id="path505" /></g><g
             id="g509" /><g
             style="fill:#000000;fill-opacity:1;stroke:#000000;stroke-width:1;stroke-linecap:round;stroke-linejoin:round;stroke-opacity:1"
             id="g513"><path
               style="fill:#000000;fill-opacity:1;fill-rule:evenodd;stroke:#000000;stroke-width:1;stroke-linecap:round;stroke-linejoin:round;stroke-opacity:1"
               d="m 5346000,7386500 -95671,-19030 -81106,-54193 -54193,-81106 -19030,-95671 v -500000 l 19030,-95671 54193,-81106 81106,-54193 95671,-19030 h 1500000 l 95671,19030 81106,54193 54193,81106 19030,95671 v 500000 l -19030,95671 -54193,81106 -81106,54193 -95671,19030 z"
               id="path511" /></g><g
             id="g515" /><g
             style="fill:#000000;fill-opacity:1;stroke:#000000;stroke-width:1;stroke-linecap:round;stroke-linejoin:round;stroke-opacity:1"
             id="g519"><path
               style="fill:#000000;fill-opacity:1;fill-rule:evenodd;stroke:#000000;stroke-width:1;stroke-linecap:round;stroke-linejoin:round;stroke-opacity:1"
               d="m 1790000,2687500 -95671,-19030 -81106,-54193 -54193,-81106 -19030,-95671 v -500000 l 19030,-95671 54193,-81106 81106,-54193 95671,-19030 h 1500000 l 95671,19030 81106,54193 54193,81106 19030,95671 v 500000 l -19030,95671 -54193,81106 -81106,54193 -95671,19030 z"
               id="path517" /></g><g
             id="g521" /><g
             style="fill:#000000;fill-opacity:1;stroke:#000000;stroke-width:1;stroke-linecap:round;stroke-linejoin:round;stroke-opacity:1"
             id="g527"><path
               style="fill:#000000;fill-opacity:1;fill-rule:evenodd;stroke:#000000;stroke-width:1;stroke-linecap:round;stroke-linejoin:round;stroke-opacity:1"
               d="m 41193000,3690500 15224,-76537 43355,-64884 64884,-43355 76537,-15224 h 400000 l 76537,15224 64884,43355 43355,64884 15224,76537 v 550000 l -15224,76537 -43355,64884 -64884,43355 -76537,15224 h -400000 l -76537,-15224 -64884,-43355 -43355,-64884 -15224,-76537 z"
               id="path523" /><path
               style="fill:#000000;fill-opacity:1;fill-rule:evenodd;stroke:#000000;stroke-width:1;stroke-linecap:round;stroke-linejoin:round;stroke-opacity:1"
               d="m 42843000,3690500 15224,-76537 43355,-64884 64884,-43355 76537,-15224 h 400000 l 76537,15224 64884,43355 43355,64884 15224,76537 v 550000 l -15224,76537 -43355,64884 -64884,43355 -76537,15224 h -400000 l -76537,-15224 -64884,-43355 -43355,-64884 -15224,-76537 z"
               id="path525" /></g><g
             id="g529" /><g
             style="fill:#000000;fill-opacity:1;stroke:#000000;stroke-width:1;stroke-linecap:round;stroke-linejoin:round;stroke-opacity:1"
             id="g535"><path
               style="fill:#000000;fill-opacity:1;fill-rule:evenodd;stroke:#000000;stroke-width:1;stroke-linecap:round;stroke-linejoin:round;stroke-opacity:1"
               d="m 3793500,14503500 90887,18079 77051,51483 51483,77051 18079,90887 v 600000 l -18079,90887 -51483,77051 -77051,51483 -90887,18079 h -475000 l -90887,-18079 -77051,-51483 -51483,-77051 -18079,-90887 v -600000 l 18079,-90887 51483,-77051 77051,-51483 90887,-18079 z"
               id="path531" /><path
               style="fill:#000000;fill-opacity:1;fill-rule:evenodd;stroke:#000000;stroke-width:1;stroke-linecap:round;stroke-linejoin:round;stroke-opacity:1"
               d="m 3793500,16228500 90887,18079 77051,51483 51483,77051 18079,90887 v 600000 l -18079,90887 -51483,77051 -77051,51483 -90887,18079 h -475000 l -90887,-18079 -77051,-51483 -51483,-77051 -18079,-90887 v -600000 l 18079,-90887 51483,-77051 77051,-51483 90887,-18079 z"
               id="path533" /></g><g
             id="g537" /><g
             style="fill:#000000;fill-opacity:1;stroke:#000000;stroke-width:1;stroke-linecap:round;stroke-linejoin:round;stroke-opacity:1"
             id="g541"><path
               style="fill:#000000;fill-opacity:1;fill-rule:evenodd;stroke:#000000;stroke-width:1;stroke-linecap:round;stroke-linejoin:round;stroke-opacity:1"
               d="m 5346000,12339500 -95671,-19030 -81106,-54193 -54193,-81106 -19030,-95671 v -500000 l 19030,-95671 54193,-81106 81106,-54193 95671,-19030 h 1500000 l 95671,19030 81106,54193 54193,81106 19030,95671 v 500000 l -19030,95671 -54193,81106 -81106,54193 -95671,19030 z"
               id="path539" /></g><g
             id="g543" /><g
             style="fill:#000000;fill-opacity:1;stroke:#000000;stroke-width:1;stroke-linecap:round;stroke-linejoin:round;stroke-opacity:1"
             id="g547"><path
               style="fill:#000000;fill-opacity:1;fill-rule:evenodd;stroke:#000000;stroke-width:1;stroke-linecap:round;stroke-linejoin:round;stroke-opacity:1"
               d="m 5346000,4211500 -95671,-19030 -81106,-54193 -54193,-81106 -19030,-95671 v -500000 l 19030,-95671 54193,-81106 81106,-54193 95671,-19030 h 1500000 l 95671,19030 81106,54193 54193,81106 19030,95671 v 500000 l -19030,95671 -54193,81106 -81106,54193 -95671,19030 z"
               id="path545" /></g><g
             id="g549" /><g
             style="fill:#000000;fill-opacity:1;stroke:#000000;stroke-width:1;stroke-linecap:round;stroke-linejoin:round;stroke-opacity:1"
             id="g563"><path
               style="fill:#000000;fill-opacity:1;fill-rule:evenodd;stroke:#000000;stroke-width:1;stroke-linecap:round;stroke-linejoin:round;stroke-opacity:1"
               d="m 21844000,16245500 v 2500000 h -2162000 v -2500000 z"
               id="path551" /><path
               style="fill:#000000;fill-opacity:1;fill-rule:evenodd;stroke:#000000;stroke-width:1;stroke-linecap:round;stroke-linejoin:round;stroke-opacity:1"
               d="m 9782000,16245500 v 2500000 H 7620000 v -2500000 z"
               id="path553" /><path
               style="fill:#000000;fill-opacity:1;fill-rule:evenodd;stroke:#000000;stroke-width:1;stroke-linecap:round;stroke-linejoin:round;stroke-opacity:1"
               d="m 21844000,11945500 v 2500000 h -2162000 v -2500000 z"
               id="path555" /><path
               style="fill:#000000;fill-opacity:1;fill-rule:evenodd;stroke:#000000;stroke-width:1;stroke-linecap:round;stroke-linejoin:round;stroke-opacity:1"
               d="m 13182000,19345500 v 1130000 h -2900000 v -1130000 z"
               id="path557" /><path
               style="fill:#000000;fill-opacity:1;fill-rule:evenodd;stroke:#000000;stroke-width:1;stroke-linecap:round;stroke-linejoin:round;stroke-opacity:1"
               d="m 9782000,11945500 v 2500000 H 7620000 v -2500000 z"
               id="path559" /><path
               style="fill:#000000;fill-opacity:1;fill-rule:evenodd;stroke:#000000;stroke-width:1;stroke-linecap:round;stroke-linejoin:round;stroke-opacity:1"
               d="m 17682000,9807500 v 1638000 H 9782000 V 9807500 Z"
               id="path561" /></g><g
             id="g565" /><g
             style="fill:#000000;fill-opacity:1;stroke:#000000;stroke-width:1;stroke-linecap:round;stroke-linejoin:round;stroke-opacity:1"
             id="g569"><path
               style="fill:#000000;fill-opacity:1;fill-rule:evenodd;stroke:#000000;stroke-width:1;stroke-linecap:round;stroke-linejoin:round;stroke-opacity:1"
               d="m 5346000,5862500 -95671,-19030 -81106,-54193 -54193,-81106 -19030,-95671 v -500000 l 19030,-95671 54193,-81106 81106,-54193 95671,-19030 h 1500000 l 95671,19030 81106,54193 54193,81106 19030,95671 v 500000 l -19030,95671 -54193,81106 -81106,54193 -95671,19030 z"
               id="path567" /></g><g
             id="g571" /><g
             style="fill:#000000;fill-opacity:1;stroke:#000000;stroke-width:1;stroke-linecap:round;stroke-linejoin:round;stroke-opacity:1"
             id="g581"><path
               style="fill:#000000;fill-opacity:1;fill-rule:evenodd;stroke:#000000;stroke-width:1;stroke-linecap:round;stroke-linejoin:round;stroke-opacity:1"
               d="m 21396000,22876500 v 650000 h -1050000 v -650000 z"
               id="path573" /><path
               style="fill:#000000;fill-opacity:1;fill-rule:evenodd;stroke:#000000;stroke-width:1;stroke-linecap:round;stroke-linejoin:round;stroke-opacity:1"
               d="m 17246000,22876500 v 650000 h -1050000 v -650000 z"
               id="path575" /><path
               style="fill:#000000;fill-opacity:1;fill-rule:evenodd;stroke:#000000;stroke-width:1;stroke-linecap:round;stroke-linejoin:round;stroke-opacity:1"
               d="m 17271000,20726500 v 650000 h -1050000 v -650000 z"
               id="path577" /><path
               style="fill:#000000;fill-opacity:1;fill-rule:evenodd;stroke:#000000;stroke-width:1;stroke-linecap:round;stroke-linejoin:round;stroke-opacity:1"
               d="m 21396000,20726500 v 650000 h -1050000 v -650000 z"
               id="path579" /></g><g
             id="g583" /><g
             style="fill:#000000;fill-opacity:1;stroke:#000000;stroke-width:1;stroke-linecap:round;stroke-linejoin:round;stroke-opacity:1"
             id="g587"><path
               style="fill:#000000;fill-opacity:1;fill-rule:evenodd;stroke:#000000;stroke-width:1;stroke-linecap:round;stroke-linejoin:round;stroke-opacity:1"
               d="m 5346000,9164500 -95671,-19030 -81106,-54193 -54193,-81106 -19030,-95671 v -500000 l 19030,-95671 54193,-81106 81106,-54193 95671,-19030 h 1500000 l 95671,19030 81106,54193 54193,81106 19030,95671 v 500000 l -19030,95671 -54193,81106 -81106,54193 -95671,19030 z"
               id="path585" /></g><g
             id="g589" /><g
             style="fill:#000000;fill-opacity:1;stroke:#000000;stroke-width:1;stroke-linecap:round;stroke-linejoin:round;stroke-opacity:1"
             id="g593"><path
               style="fill:#000000;fill-opacity:1;fill-rule:evenodd;stroke:#000000;stroke-width:1;stroke-linecap:round;stroke-linejoin:round;stroke-opacity:1"
               d="m 5346000,10688500 -95671,-19030 -81106,-54193 -54193,-81106 -19030,-95671 v -500000 l 19030,-95671 54193,-81106 81106,-54193 95671,-19030 h 1500000 l 95671,19030 81106,54193 54193,81106 19030,95671 v 500000 l -19030,95671 -54193,81106 -81106,54193 -95671,19030 z"
               id="path591" /></g><g
             id="g595" /><g
             style="fill:#000000;fill-opacity:1;stroke:#000000;stroke-width:1;stroke-linecap:round;stroke-linejoin:round;stroke-opacity:1"
             id="g613"><path
               style="fill:#000000;fill-opacity:1;fill-rule:evenodd;stroke:#000000;stroke-width:1;stroke-linecap:round;stroke-linejoin:round;stroke-opacity:1"
               d="m 11282000,4958500 11418,-57403 32516,-48663 48663,-32516 57403,-11418 h 1250000 l 57403,11418 48663,32516 32516,48663 11418,57403 v 300000 l -11418,57403 -32516,48663 -48663,32516 -57403,11418 h -1250000 l -57403,-11418 -48663,-32516 -32516,-48663 -11418,-57403 z"
               id="path597" /><path
               style="fill:#000000;fill-opacity:1;fill-rule:evenodd;stroke:#000000;stroke-width:1;stroke-linecap:round;stroke-linejoin:round;stroke-opacity:1"
               d="m 11282000,6228500 11418,-57403 32516,-48663 48663,-32516 57403,-11418 h 1250000 l 57403,11418 48663,32516 32516,48663 11418,57403 v 300000 l -11418,57403 -32516,48663 -48663,32516 -57403,11418 h -1250000 l -57403,-11418 -48663,-32516 -32516,-48663 -11418,-57403 z"
               id="path599" /><path
               style="fill:#000000;fill-opacity:1;fill-rule:evenodd;stroke:#000000;stroke-width:1;stroke-linecap:round;stroke-linejoin:round;stroke-opacity:1"
               d="m 11282000,7498500 11418,-57403 32516,-48663 48663,-32516 57403,-11418 h 1250000 l 57403,11418 48663,32516 32516,48663 11418,57403 v 300000 l -11418,57403 -32516,48663 -48663,32516 -57403,11418 h -1250000 l -57403,-11418 -48663,-32516 -32516,-48663 -11418,-57403 z"
               id="path601" /><path
               style="fill:#000000;fill-opacity:1;fill-rule:evenodd;stroke:#000000;stroke-width:1;stroke-linecap:round;stroke-linejoin:round;stroke-opacity:1"
               d="m 11282000,8768500 11418,-57403 32516,-48663 48663,-32516 57403,-11418 h 1250000 l 57403,11418 48663,32516 32516,48663 11418,57403 v 300000 l -11418,57403 -32516,48663 -48663,32516 -57403,11418 h -1250000 l -57403,-11418 -48663,-32516 -32516,-48663 -11418,-57403 z"
               id="path603" /><path
               style="fill:#000000;fill-opacity:1;fill-rule:evenodd;stroke:#000000;stroke-width:1;stroke-linecap:round;stroke-linejoin:round;stroke-opacity:1"
               d="m 16632000,8768500 11418,-57403 32516,-48663 48663,-32516 57403,-11418 h 1250000 l 57403,11418 48663,32516 32516,48663 11418,57403 v 300000 l -11418,57403 -32516,48663 -48663,32516 -57403,11418 h -1250000 l -57403,-11418 -48663,-32516 -32516,-48663 -11418,-57403 z"
               id="path605" /><path
               style="fill:#000000;fill-opacity:1;fill-rule:evenodd;stroke:#000000;stroke-width:1;stroke-linecap:round;stroke-linejoin:round;stroke-opacity:1"
               d="m 16632000,7498500 11418,-57403 32516,-48663 48663,-32516 57403,-11418 h 1250000 l 57403,11418 48663,32516 32516,48663 11418,57403 v 300000 l -11418,57403 -32516,48663 -48663,32516 -57403,11418 h -1250000 l -57403,-11418 -48663,-32516 -32516,-48663 -11418,-57403 z"
               id="path607" /><path
               style="fill:#000000;fill-opacity:1;fill-rule:evenodd;stroke:#000000;stroke-width:1;stroke-linecap:round;stroke-linejoin:round;stroke-opacity:1"
               d="m 16632000,6228500 11418,-57403 32516,-48663 48663,-32516 57403,-11418 h 1250000 l 57403,11418 48663,32516 32516,48663 11418,57403 v 300000 l -11418,57403 -32516,48663 -48663,32516 -57403,11418 h -1250000 l -57403,-11418 -48663,-32516 -32516,-48663 -11418,-57403 z"
               id="path609" /><path
               style="fill:#000000;fill-opacity:1;fill-rule:evenodd;stroke:#000000;stroke-width:1;stroke-linecap:round;stroke-linejoin:round;stroke-opacity:1"
               d="m 16632000,4958500 11418,-57403 32516,-48663 48663,-32516 57403,-11418 h 1250000 l 57403,11418 48663,32516 32516,48663 11418,57403 v 300000 l -11418,57403 -32516,48663 -48663,32516 -57403,11418 h -1250000 l -57403,-11418 -48663,-32516 -32516,-48663 -11418,-57403 z"
               id="path611" /></g><g
             id="g615" /><g
             style="fill:#000000;fill-opacity:1;stroke:#000000;stroke-width:1;stroke-linecap:round;stroke-linejoin:round;stroke-opacity:1"
             id="g621"><path
               style="fill:#000000;fill-opacity:1;fill-rule:evenodd;stroke:#000000;stroke-width:1;stroke-linecap:round;stroke-linejoin:round;stroke-opacity:1"
               d="m 18666000,6014000 18079,-90887 51483,-77051 77051,-51483 90887,-18079 h 500000 l 90887,18079 77051,51483 51483,77051 18079,90887 v 475000 l -18079,90887 -51483,77051 -77051,51483 -90887,18079 h -500000 l -90887,-18079 -77051,-51483 -51483,-77051 -18079,-90887 z"
               id="path617" /><path
               style="fill:#000000;fill-opacity:1;fill-rule:evenodd;stroke:#000000;stroke-width:1;stroke-linecap:round;stroke-linejoin:round;stroke-opacity:1"
               d="m 20491000,6014000 18079,-90887 51483,-77051 77051,-51483 90887,-18079 h 500000 l 90887,18079 77051,51483 51483,77051 18079,90887 v 475000 l -18079,90887 -51483,77051 -77051,51483 -90887,18079 h -500000 l -90887,-18079 -77051,-51483 -51483,-77051 -18079,-90887 z"
               id="path619" /></g><g
             id="g623" /><g
             style="fill:#000000;fill-opacity:1;stroke:#000000;stroke-width:1;stroke-linecap:round;stroke-linejoin:round;stroke-opacity:1"
             id="g629"><path
               style="fill:#000000;fill-opacity:1;fill-rule:evenodd;stroke:#000000;stroke-width:1;stroke-linecap:round;stroke-linejoin:round;stroke-opacity:1"
               d="m 10069751,8074160 -64884,43355 -76537,15223 -76537,-15223 -64884,-43355 -282843,-282843 -43355,-64884 -15223,-76537 15223,-76537 43355,-64884 388909,-388909 64884,-43355 76537,-15223 76537,15223 64884,43355 282843,282843 43355,64884 15223,76537 -15223,76537 -43355,64884 z"
               id="path625" /><path
               style="fill:#000000;fill-opacity:1;fill-rule:evenodd;stroke:#000000;stroke-width:1;stroke-linecap:round;stroke-linejoin:round;stroke-opacity:1"
               d="m 8903025,6907434 -64884,43355 -76537,15223 -76537,-15223 -64884,-43355 -282843,-282843 -43355,-64884 -15223,-76537 15223,-76537 43355,-64884 388909,-388909 64884,-43355 76537,-15223 76537,15223 64884,43355 282843,282843 43355,64884 15223,76537 -15223,76537 -43355,64884 z"
               id="path627" /></g><g
             id="g631" /><g
             style="fill:#000000;fill-opacity:1;stroke:#000000;stroke-width:1;stroke-linecap:round;stroke-linejoin:round;stroke-opacity:1"
             id="g637"><path
               style="fill:#000000;fill-opacity:1;fill-rule:evenodd;stroke:#000000;stroke-width:1;stroke-linecap:round;stroke-linejoin:round;stroke-opacity:1"
               d="m 4917001,18024500 -95671,-19030 -81106,-54194 -54194,-81106 -19029,-95672 -1,-999997 19030,-95671 54194,-81106 81106,-54194 95672,-19029 1849997,-1 95671,19030 81106,54194 54194,81106 19029,95672 1,999997 -19030,95671 -54194,81106 -81106,54194 -95672,19029 z"
               id="path633" /><path
               style="fill:#000000;fill-opacity:1;fill-rule:evenodd;stroke:#000000;stroke-width:1;stroke-linecap:round;stroke-linejoin:round;stroke-opacity:1"
               d="m 4917001,14774500 -95671,-19030 -81106,-54194 -54194,-81106 -19029,-95672 -1,-999997 19030,-95671 54194,-81106 81106,-54194 95672,-19029 1849997,-1 95671,19030 81106,54194 54194,81106 19029,95672 1,999997 -19030,95671 -54194,81106 -81106,54194 -95672,19029 z"
               id="path635" /></g><g
             id="g639" /><g
             id="g641" /><g
             style="fill:#000000;fill-opacity:1;stroke:#000000;stroke-width:1;stroke-linecap:round;stroke-linejoin:round;stroke-opacity:1"
             id="g645"><path
               style="fill:#000000;fill-opacity:1;fill-rule:evenodd;stroke:#000000;stroke-width:1;stroke-linecap:round;stroke-linejoin:round;stroke-opacity:1"
               d="m 1790000,13863500 -95671,-19030 -81106,-54193 -54193,-81106 -19030,-95671 v -500000 l 19030,-95671 54193,-81106 81106,-54193 95671,-19030 h 1500000 l 95671,19030 81106,54193 54193,81106 19030,95671 v 500000 l -19030,95671 -54193,81106 -81106,54193 -95671,19030 z"
               id="path643" /></g><g
             id="g647" /><g
             id="g649" /><g
             id="g651" /><g
             style="fill:#000000;fill-opacity:1;stroke:#000000;stroke-width:1;stroke-linecap:round;stroke-linejoin:round;stroke-opacity:1"
             id="g653" /><g
             style="fill:#000000;fill-opacity:1;stroke:#000000;stroke-width:600000;stroke-linecap:round;stroke-linejoin:round;stroke-opacity:1"
             id="g655" /><g
             style="fill:#000000;fill-opacity:0;stroke:#000000;stroke-width:600000;stroke-linecap:round;stroke-linejoin:round;stroke-opacity:1"
             id="g663"><path
               d="M 15848500,3558000 14478000,2187500"
               id="path657" /><path
               d="M 1016000,3203500 2032000,2187500"
               id="path659" /><path
               d="M 5842000,17274500 H 4064500"
               id="path661" /></g><g
             style="fill:#000000;fill-opacity:0;stroke:#000000;stroke-width:800000;stroke-linecap:round;stroke-linejoin:round;stroke-opacity:1"
             id="g667"><path
               d="M 5842000,17274500 H 8480000"
               id="path665" /></g><g
             style="fill:#000000;fill-opacity:0;stroke:#000000;stroke-width:600000;stroke-linecap:round;stroke-linejoin:round;stroke-opacity:1"
             id="g673"><path
               d="m 4064500,17274500 -508500,-508500"
               id="path669" /><path
               d="M 1016000,12347500 V 3203500"
               id="path671" /></g><g
             style="fill:#000000;fill-opacity:0;stroke:#000000;stroke-width:800000;stroke-linecap:round;stroke-linejoin:round;stroke-opacity:1"
             id="g677"><path
               d="m 8480000,17274500 221000,221000"
               id="path675" /></g><g
             style="fill:#000000;fill-opacity:0;stroke:#000000;stroke-width:600000;stroke-linecap:round;stroke-linejoin:round;stroke-opacity:1"
             id="g715"><path
               d="M 3556000,16766000 H 2386500"
               id="path679" /><path
               d="m 15848500,3711500 v 100500"
               id="path681" /><path
               d="m 2032000,2187500 h 508000"
               id="path683" /><path
               d="m 17145000,5108500 h 262000"
               id="path685" /><path
               d="M 2386500,16766000 1270000,15649500"
               id="path687" /><path
               d="m 15848500,3812000 1296500,1296500"
               id="path689" /><path
               d="M 1270000,15649500 V 14125500"
               id="path691" /><path
               d="M 15848500,3711500 V 3558000"
               id="path693" /><path
               d="M 14478000,2187500 H 3048000"
               id="path695" /><path
               d="m 1270000,14125500 762000,-762000"
               id="path697" /><path
               d="M 2540000,13363500 H 2032000"
               id="path699" /><path
               d="M 2032000,13363500 1016000,12347500"
               id="path701" /><path
               d="m 27319510,8649990 -903510,903510"
               id="path703" /><path
               d="M 26416000,9553500 H 22198500"
               id="path705" /><path
               d="M 20978500,6251500 V 8233500"
               id="path707" /><path
               d="M 22198500,9553500 20928500,8283500"
               id="path709" /><path
               d="m 20978500,8233500 -50000,50000"
               id="path711" /><path
               d="M 27319510,6090210 V 8649990"
               id="path713" /></g><g
             style="fill:#000000;fill-opacity:0;stroke:#000000;stroke-width:800000;stroke-linecap:round;stroke-linejoin:round;stroke-opacity:1"
             id="g723"><path
               d="M 32834000,17495500 H 20763000"
               id="path717" /><path
               d="M 34939510,22254770 V 19601010"
               id="path719" /><path
               d="M 34939510,19601010 32834000,17495500"
               id="path721" /></g><g
             style="fill:#000000;fill-opacity:0;stroke:#000000;stroke-width:600000;stroke-linecap:round;stroke-linejoin:round;stroke-opacity:1"
             id="g765"><path
               d="m 8001000,5108500 -254000,254000"
               id="path725" /><path
               d="M 12057000,5108500 H 8001000"
               id="path727" /><path
               d="M 7747000,5362500 H 6096000"
               id="path729" /><path
               d="M 6096000,5362500 V 6886500"
               id="path731" /><path
               d="m 10033000,7648500 -51637,-51637"
               id="path733" /><path
               d="M 12057000,7648500 H 10033000"
               id="path735" /><path
               d="m 8866274,6378500 -51637,51637"
               id="path737" /><path
               d="M 12057000,6378500 H 8866274"
               id="path739" /><path
               d="m 17407000,6378500 h 1619500"
               id="path741" /><path
               d="m 19026500,6378500 127000,-127000"
               id="path743" /><path
               d="M 7747000,8664500 H 6096000"
               id="path745" /><path
               d="M 12057000,8918500 H 8001000"
               id="path747" /><path
               d="M 8001000,8918500 7747000,8664500"
               id="path749" /><path
               d="m 6096000,8664500 v 1524000"
               id="path751" /><path
               d="m 22861270,22254770 h 1918240"
               id="path753" /><path
               d="m 21912000,23201500 948000,-948000"
               id="path755" /><path
               d="m 22860000,22253500 1270,1270"
               id="path757" /><path
               d="m 20871000,23201500 h 1041000"
               id="path759" /><path
               d="m 16721000,23201500 h 4150000"
               id="path761" /><path
               d="M 40019510,5538990 41593000,3965500"
               id="path763" /></g><g
             style="fill:#000000;fill-opacity:0;stroke:#000000;stroke-width:800000;stroke-linecap:round;stroke-linejoin:round;stroke-opacity:1"
             id="g769"><path
               d="m 41593000,2899700 -1000,-1000"
               id="path767" /></g><g
             style="fill:#000000;fill-opacity:0;stroke:#000000;stroke-width:600000;stroke-linecap:round;stroke-linejoin:round;stroke-opacity:1"
             id="g773"><path
               d="M 40019510,6090210 V 5538990"
               id="path771" /></g><g
             style="fill:#000000;fill-opacity:0;stroke:#000000;stroke-width:800000;stroke-linecap:round;stroke-linejoin:round;stroke-opacity:1"
             id="g777"><path
               d="M 41593000,3965500 V 2899700"
               id="path775" /></g><g
             id="g779" /><g
             style="fill:#000000;fill-opacity:0;stroke:#000000;stroke-width:800000;stroke-linecap:round;stroke-linejoin:round;stroke-opacity:1"
             id="g787"><g
               id="g781" /><g
               style="fill:#000000;fill-opacity:1;stroke:#000000;stroke-width:1;stroke-linecap:round;stroke-linejoin:round;stroke-opacity:1"
               id="g785"><path
                 style="fill:#000000;fill-opacity:1;fill-rule:evenodd;stroke:#000000;stroke-width:1;stroke-linecap:round;stroke-linejoin:round;stroke-opacity:1"
                 d="m 43891319,1903258 82079,54844 54844,82079 19258,96819 v 21477000 l -19258,96819 -54844,82079 -82079,54844 -96819,19258 h -2012500 l -96819,-19258 -82079,-54844 -54844,-82079 -19258,-96819 v -3773500 l -381000,-381000 h -2286000 l -381000,381000 v 3773500 l -19258,96819 -54844,82079 -82079,54844 -96819,19258 h -1526000 l -96819,-19258 -82079,-54844 -54844,-82079 -19258,-96819 v -3773500 l -746738,-746738 -20268,-23731 -3444,-5965 -43554,-48371 -8573,-10038 -10841,-13388 -12162,-12162 -9118,-9608 -34666,-38500 -8873,-9855 -10731,-7796 -9847,-8867 250,-278 -13154,-11235 -1976239,-1976239 -11235,-13154 -278,250 -8867,-9847 -7796,-10731 -48355,-43539 -9608,-9118 -12162,-12162 -13388,-10841 -10038,-8573 -48371,-43554 -11481,-6628 -8651,-6286 -8976,-5830 -10306,-8345 -11812,-6019 -10,-6 -46167,-23523 -11639,-6319 -13665,-7889 -42681,-24642 -12611,-4097 -9771,-4351 -9991,-3835 -11813,-6019 -62847,-16840 -12697,-3761 -61898,-20112 -13186,-1386 -10447,-2221 -10582,-1676 -12810,-3432 -64972,-3405 -13205,-1039 -10532,-1107 -6584,-692 h -17209 l -13241,-347 -567,-30 -64403,-3375 -13095,2074 -13243,694 -20,-373 -17242,1357 h -9729294 l -96819,-19258 -82079,-54844 -616601,-616601 -10536,-14058 -14058,-10536 -120603,-120603 h -66293 l -47141,-5527 -4850,-1818 -33447,-3633 -21919,-2382 h -8 l -6808,-740 h -2258268 l -6808,740 h -8 l -39592,4301 -3,1 -15771,1713 -31807,11924 -87703,32878 -2,1 -16877,6327 -14421,10808 -2,1 -87712,65737 -14421,10808 -87354,116556 -51130,136389 -6755,62182 v 2596268 l 6755,62182 18619,49665 24374,65018 8137,21706 10808,14421 1,2 54017,72074 22528,30059 14421,10808 87712,65737 2,1 14421,10808 16877,6327 2,1 51222,19202 68288,25600 15771,1713 3,1 39592,4301 h 8 l 6808,740 h 1830134 l 96819,19258 82079,54844 54844,82079 19258,96819 v 1731500 l -19258,96819 -54844,82079 -82079,54844 -96819,19258 h -5209000 l -96819,-19258 -82079,-54844 -54844,-82079 -19258,-96819 v -1166204 l 19258,-96819 54844,-82079 1830898,-1830898 v -4467204 l 19258,-96819 54844,-82079 2592898,-2592898 V 9683188 l 19258,-96819 54844,-82079 82079,-54844 96819,-19258 96819,19258 82079,54844 613953,613953 1863,1883 62557,63881 31037,20002 20780,14932 28855,23035 12737,6157 10457,5055 26939,15116 21662,13961 34705,12632 23557,9951 33249,16073 13775,3180 5,2 11328,2615 29618,8773 24210,8812 36628,4627 25198,4488 35974,8306 41030,143 274,9 980,124 h 36493 l 883,2 101725,355 1345,-301 1040,-56 h 4117369 l 2650,14 75300,789 h 2 l 14145,148 13829,-2990 h 1 l 22258,-4812 25254,-4136 8226,-923 28466,-3193 24335,-8474 29731,-8357 11358,-2456 4,-1 13827,-2990 12815,-5976 7,-2 20633,-9622 23723,-9633 21504,-7488 4,-2 13356,-4651 21860,-13659 27129,-14730 23361,-10894 29177,-22633 20977,-14633 31320,-19570 29121,-28918 193,-180 780,-606 25653,-25653 625,-623 69534,-69050 4,-4 2796,-2777 737,-1162 701,-781 636970,-636970 82079,-54844 96819,-19258 h 927112 l 96819,19258 82079,54844 54844,82079 19258,96819 v 2013292 l -5,1546 -471,77083 4952,17328 1,4 794,2779 7183,33649 410,2860 2556,17846 7460,16408 547,1870 10371,28186 798,1784 4955,17336 9619,15245 2,4 1535,2433 16344,30290 1196,2630 7461,16409 11767,13656 1045,1634 17872,24154 1265,1486 9619,15246 13509,11931 1,1 2164,1911 24184,24482 1888,2191 3,2 11762,13651 15120,9801 1460,1273 23936,18169 1636,1075 13512,11933 16317,7661 2617,1229 30067,16700 17563,11384 17270,5165 1767,816 28056,10713 1870,572 16322,7663 20675,3219 33547,7592 20044,5994 35036,214 v 41 l 350,14 934,145 h 30706 l 1547,5 77082,471 1594,-456 298,-20 h 8419479 l 1546,5 59061,361 h 1 l 18021,110 17328,-4952 4,-1 2779,-794 33460,-7156 625,-90 36060,-2583 h 1001623 L 41529000,9807500 V 5277688 l 19258,-96819 54844,-82079 76076,-76076 82079,-54844 84687,-18871 h 3690 l 5780,-531 54275,-4986 4,-1 13369,-1228 12810,-4014 3,-1 136273,-42706 14551,-4560 146682,-88833 121258,-121258 88833,-146682 42023,-134094 5244,-16733 1,-4 4013,-12806 3364,-36607 2853,-31047 v -10 l 530,-5763 V 2991109 l 1357,-17242 -373,-20 694,-13243 2074,-13095 -3405,-64970 -347,-13241 v -17208 l -667,-6344 -334,-12749 v -265931 l -6746,-73428 -13376,-42683 -11577,-75657 v -238298 l 19258,-96819 54844,-82079 82079,-54844 96819,-19258 h 1072700 z"
                 id="path783" /></g></g><g
             style="fill:#000000;fill-opacity:1;stroke:#000000;stroke-width:1;stroke-linecap:round;stroke-linejoin:round;stroke-opacity:1"
             id="g793"><g
               id="g791"><path
                 style="fill:#000000;fill-opacity:1;fill-rule:evenodd;stroke:#000000;stroke-width:1;stroke-linecap:round;stroke-linejoin:round;stroke-opacity:1"
                 d="m 3302000,3199714 v 3786 h 10943812 l 96819,19258 82078,54843 156988,156987 54844,82079 19259,96820 v 580613 l 1399098,1399098 54844,82079 19258,96819 v 322965 l -2681,29599 119,9 -2938,37329 v 433004 l 390,4955 2548,32374 -119,9 2681,29599 v 224561 l 431800,431800 h 2744200 l 96819,19258 82079,54844 54844,82079 19258,96819 v 2004404 l -19258,96819 -54844,82079 -1629796,1629796 -82079,54844 -96819,19258 h -5610204 l -381000,381000 v 5969000 l 1449898,1449898 54844,82079 19258,96819 v 4176704 l -19258,96819 -54844,82079 -82079,54844 -96819,19258 H 817500 l -96819,-19258 -82079,-54844 -54844,-82079 -19258,-96819 v -2488500 h 1128026 l 19865,252403 59104,246188 96889,233911 132288,215874 164430,192522 192522,164430 215874,132288 233911,96889 9658,2319 4,1 89718,21539 146808,35245 189204,14891 h 126398 l 189204,-14891 146808,-35245 89718,-21539 4,-1 9658,-2319 233911,-96889 215874,-132288 192522,-164430 164430,-192522 132288,-215874 96889,-233911 59104,-246188 19865,-252403 -19865,-252403 -59104,-246188 -96889,-233911 -132288,-215874 -164430,-192522 -192522,-164430 -215874,-132288 -233911,-96889 -9658,-2319 -4,-1 -89718,-21539 -146808,-35245 -189204,-14891 h -126398 l -189204,14891 -146808,35245 -89718,21539 -4,1 -9658,2319 -233911,96889 -215874,132288 -192522,164430 -164430,192522 -132288,215874 -96889,233911 -59104,246188 -19865,252403 H 564500 v -4207000 l 19258,-96819 54844,-82079 82079,-54844 96819,-19258 h 220312 l 96819,19258 82079,54844 591141,591141 1863,1883 62557,63881 31037,20002 20780,14932 28855,23035 23199,11215 26938,15117 9765,6294 10,5 11883,7658 34691,12626 23579,9961 20507,9914 4,1 12729,6154 13779,3181 5,2 11326,2615 29608,8770 10924,3976 7,2 13288,4836 36628,4627 25198,4488 35974,8306 41030,143 274,9 980,124 h 36493 l 883,2 101725,355 1345,-301 1040,-56 h 190505 l 96819,19258 65670,43839 1311,-1661 11538,9112 10399,10381 148083,91280 165111,54765 13748,1409 h 2 l 43486,4455 45501,4662 h 83912 l 96819,19258 83943,56728 16669,17021 31038,20003 20773,14927 28861,23039 12735,6156 10459,5056 26939,15116 21662,13961 34705,12632 23557,9951 13472,6513 7048,3407 2,1 12727,6152 13776,3181 h 1 l 11331,2616 29615,8772 24213,8813 14032,1773 h 2 l 22578,2852 25209,4490 22200,5126 h 3 l 13776,3181 41050,143 260,9 974,123 h 36207 l 883,2 25509,89 96751,19596 81887,55129 35617,45139 28399,45893 125175,124957 150565,92810 167877,55682 104461,10703 h 1950800 l 6514,-676 h 2 l 8477,-879 98290,9165 87300,46081 63020,75981 29146,94315 1351,26107 v 10540 l 6755,62182 51130,136389 87354,116556 14421,10808 87712,65737 2,1 14421,10808 16877,6327 2,1 51222,19202 68288,25600 15771,1713 3,1 39592,4301 h 8 l 6808,740 h 2258268 l 6808,-740 h 8 l 39592,-4301 3,-1 15771,-1713 68288,-25600 51222,-19202 2,-1 16877,-6327 14421,-10808 2,-1 87712,-65737 14421,-10808 87354,-116556 51130,-136389 6755,-62182 v -2596268 l -2020,-18595 -1480,-27324 v -501947 l -254000,-254000 H 4318000 l -179898,179898 -82079,54844 -96819,19258 h -679408 l -96819,-19258 -82079,-54844 -105796,-105796 -54844,-82079 -19258,-96819 v -531204 l 19258,-96819 54844,-82079 82079,-54844 96819,-19258 h 1017000 l 508000,-508000 v -255000 l 19258,-96819 54844,-82079 82079,-54844 96819,-19258 h 255000 l 381000,-381000 v -635000 l -127000,-127000 H 2794000 v 3786 l -37706,3714 h -484606 l -96819,-19258 -82079,-54844 -194188,-194188 -54844,-82079 -19258,-96819 v -957312 h 1096500 l 381000,381000 h 6096000 l 381000,-381000 v -890000 l 19258,-96819 54844,-82079 82079,-54844 96819,-19258 h 2922000 l 381000,-381000 v -224561 l 2681,-29599 -119,-9 2548,-32374 390,-4955 v -433004 l -2938,-37329 119,-9 -2681,-29599 v -703122 l 2681,-29599 -119,-9 2548,-32374 390,-4955 v -433004 l -2938,-37329 119,-9 -2681,-29599 v -703122 l 2681,-29599 -119,-9 2548,-32374 390,-4955 v -433004 l -2938,-37329 119,-9 -2681,-29599 v -703122 l 2681,-29599 -119,-9 2548,-32374 390,-4955 v -433004 l -2938,-37329 119,-9 -2681,-29599 v -224561 l -381000,-381000 H 3302000 l -381000,381000 v 6350000 H 1824500 V 3643188 l 19258,-96819 54844,-82079 194188,-194188 82079,-54844 96819,-19258 h 992606 z"
                 id="path789" /></g></g></g><g
           style="fill:#ffffff;fill-opacity:1;stroke:#ffffff;stroke-width:1;stroke-linecap:round;stroke-linejoin:round;stroke-opacity:1"
           id="g799"><circle
             cx="3306000"
             cy="21125500"
             r="1099999.5"
             id="circle797" /></g><g
           style="fill:#ffffff;fill-opacity:1;stroke:#ffffff;stroke-width:21200;stroke-linecap:round;stroke-linejoin:round;stroke-opacity:1"
           id="g801" /><g
           style="fill:#ffffff;fill-opacity:1;stroke:#ffffff;stroke-width:1;stroke-linecap:round;stroke-linejoin:round;stroke-opacity:1"
           id="g805"><circle
             cx="21806000"
             cy="3625500"
             r="1099999.5"
             id="circle803" /></g><g
           style="fill:#ffffff;fill-opacity:1;stroke:#ffffff;stroke-width:21200;stroke-linecap:round;stroke-linejoin:round;stroke-opacity:1"
           id="g807" /><g
           style="fill:#000000;fill-opacity:1;stroke:#000000;stroke-width:21200;stroke-linecap:round;stroke-linejoin:round;stroke-opacity:1"
           id="g809" /><g
           style="fill:#000000;fill-opacity:1;stroke:#000000;stroke-width:100000;stroke-linecap:round;stroke-linejoin:round;stroke-opacity:1"
           id="g811" /><g
           style="fill:#000000;fill-opacity:0;stroke:#000000;stroke-width:100000;stroke-linecap:round;stroke-linejoin:round;stroke-opacity:1"
           id="g881"><path
             d="M 44556000,24375500 H 56000"
             id="path813" /><path
             d="M 29556000,11625500 V 1375500"
             id="path815" /><path
             d="M 56000,24375500 V 1375500"
             id="path817" /><path
             d="M 44556000,1375500 H 38056000"
             id="path819" /><path
             d="M 38056000,11625500 H 29556000"
             id="path821" /><path
             d="M 38056000,1375500 V 11625500"
             id="path823" /><path
             d="M 44556000,1375500 V 24375500"
             id="path825" /><path
             d="M 56000,1375500 H 29556000"
             id="path827" /><g
             id="g829" /><g
             id="g831" /><g
             id="g833" /><g
             id="g835" /><g
             id="g837" /><g
             id="g839" /><g
             id="g841" /><g
             id="g843" /><g
             id="g845" /><g
             id="g847" /><g
             id="g849" /><g
             id="g851" /><g
             id="g853" /><g
             id="g855" /><g
             id="g857" /><g
             id="g859" /><g
             id="g861" /><g
             id="g863" /><g
             id="g865" /><g
             id="g867" /><g
             id="g869" /><g
             id="g871" /><g
             id="g873" /><g
             id="g875" /><g
             id="g877" /><g
             id="g879" /></g></g></g></g></svg>
