<?xml version="1.0" standalone="no"?>
 <!DOCTYPE svg PUBLIC "-//W3C//DTD SVG 1.1//EN" 
 "http://www.w3.org/Graphics/SVG/1.1/DTD/svg11.dtd"> 
<svg
  xmlns:svg="http://www.w3.org/2000/svg"
  xmlns="http://www.w3.org/2000/svg"
  xmlns:xlink="http://www.w3.org/1999/xlink"
  version="1.1"
  width="2.108200cm" height="1.300480cm" viewBox="0 0 21082000 13004800">
<title>SVG Picture created as SteeringMeterPCB-F_Cu.svg date 2023/08/23 21:00:43 </title>
  <desc>Picture generated by PCBNEW </desc>
<g style="fill:#000000; fill-opacity:1.000000;stroke:#000000; stroke-opacity:1.000000;
stroke-linecap:round; stroke-linejoin:round;"
 transform="translate(0 0) scale(1 1)">
</g>
<g style="fill:#000000; fill-opacity:0.0; 
stroke:#000000; stroke-width:0.000000; stroke-opacity:1; 
stroke-linecap:round; stroke-linejoin:round;">
<g >
</g>
<g style="fill:#000000; fill-opacity:0.0; 
stroke:#000000; stroke-width:1.000000; stroke-opacity:1; 
stroke-linecap:round; stroke-linejoin:round;">
</g>
<g style="fill:#000000; fill-opacity:1.0; 
stroke:#000000; stroke-width:1.000000; stroke-opacity:1; 
stroke-linecap:round; stroke-linejoin:round;">
<path style="fill:#000000; fill-opacity:1.0; 
stroke:#000000; stroke-width:1.000000; stroke-opacity:1; 
stroke-linecap:round; stroke-linejoin:round;fill-rule:evenodd;"
d="M 13112000.000000,1926000.000000
13123418.000000,1868597.000000
13155934.000000,1819934.000000
13204597.000000,1787418.000000
13262000.000000,1776000.000000
14912000.000000,1776000.000000
14969403.000000,1787418.000000
15018066.000000,1819934.000000
15050582.000000,1868597.000000
15062000.000000,1926000.000000
15062000.000000,2226000.000000
15050582.000000,2283403.000000
15018066.000000,2332066.000000
14969403.000000,2364582.000000
14912000.000000,2376000.000000
13262000.000000,2376000.000000
13204597.000000,2364582.000000
13155934.000000,2332066.000000
13123418.000000,2283403.000000
13112000.000000,2226000.000000
Z" /> 
<path style="fill:#000000; fill-opacity:1.0; 
stroke:#000000; stroke-width:1.000000; stroke-opacity:1; 
stroke-linecap:round; stroke-linejoin:round;fill-rule:evenodd;"
d="M 13112000.000000,3196000.000000
13123418.000000,3138597.000000
13155934.000000,3089934.000000
13204597.000000,3057418.000000
13262000.000000,3046000.000000
14912000.000000,3046000.000000
14969403.000000,3057418.000000
15018066.000000,3089934.000000
15050582.000000,3138597.000000
15062000.000000,3196000.000000
15062000.000000,3496000.000000
15050582.000000,3553403.000000
15018066.000000,3602066.000000
14969403.000000,3634582.000000
14912000.000000,3646000.000000
13262000.000000,3646000.000000
13204597.000000,3634582.000000
13155934.000000,3602066.000000
13123418.000000,3553403.000000
13112000.000000,3496000.000000
Z" /> 
<path style="fill:#000000; fill-opacity:1.0; 
stroke:#000000; stroke-width:1.000000; stroke-opacity:1; 
stroke-linecap:round; stroke-linejoin:round;fill-rule:evenodd;"
d="M 13112000.000000,4466000.000000
13123418.000000,4408597.000000
13155934.000000,4359934.000000
13204597.000000,4327418.000000
13262000.000000,4316000.000000
14912000.000000,4316000.000000
14969403.000000,4327418.000000
15018066.000000,4359934.000000
15050582.000000,4408597.000000
15062000.000000,4466000.000000
15062000.000000,4766000.000000
15050582.000000,4823403.000000
15018066.000000,4872066.000000
14969403.000000,4904582.000000
14912000.000000,4916000.000000
13262000.000000,4916000.000000
13204597.000000,4904582.000000
13155934.000000,4872066.000000
13123418.000000,4823403.000000
13112000.000000,4766000.000000
Z" /> 
<path style="fill:#000000; fill-opacity:1.0; 
stroke:#000000; stroke-width:1.000000; stroke-opacity:1; 
stroke-linecap:round; stroke-linejoin:round;fill-rule:evenodd;"
d="M 13112000.000000,5736000.000000
13123418.000000,5678597.000000
13155934.000000,5629934.000000
13204597.000000,5597418.000000
13262000.000000,5586000.000000
14912000.000000,5586000.000000
14969403.000000,5597418.000000
15018066.000000,5629934.000000
15050582.000000,5678597.000000
15062000.000000,5736000.000000
15062000.000000,6036000.000000
15050582.000000,6093403.000000
15018066.000000,6142066.000000
14969403.000000,6174582.000000
14912000.000000,6186000.000000
13262000.000000,6186000.000000
13204597.000000,6174582.000000
13155934.000000,6142066.000000
13123418.000000,6093403.000000
13112000.000000,6036000.000000
Z" /> 
<path style="fill:#000000; fill-opacity:1.0; 
stroke:#000000; stroke-width:1.000000; stroke-opacity:1; 
stroke-linecap:round; stroke-linejoin:round;fill-rule:evenodd;"
d="M 18062000.000000,5736000.000000
18073418.000000,5678597.000000
18105934.000000,5629934.000000
18154597.000000,5597418.000000
18212000.000000,5586000.000000
19862000.000000,5586000.000000
19919403.000000,5597418.000000
19968066.000000,5629934.000000
20000582.000000,5678597.000000
20012000.000000,5736000.000000
20012000.000000,6036000.000000
20000582.000000,6093403.000000
19968066.000000,6142066.000000
19919403.000000,6174582.000000
19862000.000000,6186000.000000
18212000.000000,6186000.000000
18154597.000000,6174582.000000
18105934.000000,6142066.000000
18073418.000000,6093403.000000
18062000.000000,6036000.000000
Z" /> 
<path style="fill:#000000; fill-opacity:1.0; 
stroke:#000000; stroke-width:1.000000; stroke-opacity:1; 
stroke-linecap:round; stroke-linejoin:round;fill-rule:evenodd;"
d="M 18062000.000000,4466000.000000
18073418.000000,4408597.000000
18105934.000000,4359934.000000
18154597.000000,4327418.000000
18212000.000000,4316000.000000
19862000.000000,4316000.000000
19919403.000000,4327418.000000
19968066.000000,4359934.000000
20000582.000000,4408597.000000
20012000.000000,4466000.000000
20012000.000000,4766000.000000
20000582.000000,4823403.000000
19968066.000000,4872066.000000
19919403.000000,4904582.000000
19862000.000000,4916000.000000
18212000.000000,4916000.000000
18154597.000000,4904582.000000
18105934.000000,4872066.000000
18073418.000000,4823403.000000
18062000.000000,4766000.000000
Z" /> 
<path style="fill:#000000; fill-opacity:1.0; 
stroke:#000000; stroke-width:1.000000; stroke-opacity:1; 
stroke-linecap:round; stroke-linejoin:round;fill-rule:evenodd;"
d="M 18062000.000000,3196000.000000
18073418.000000,3138597.000000
18105934.000000,3089934.000000
18154597.000000,3057418.000000
18212000.000000,3046000.000000
19862000.000000,3046000.000000
19919403.000000,3057418.000000
19968066.000000,3089934.000000
20000582.000000,3138597.000000
20012000.000000,3196000.000000
20012000.000000,3496000.000000
20000582.000000,3553403.000000
19968066.000000,3602066.000000
19919403.000000,3634582.000000
19862000.000000,3646000.000000
18212000.000000,3646000.000000
18154597.000000,3634582.000000
18105934.000000,3602066.000000
18073418.000000,3553403.000000
18062000.000000,3496000.000000
Z" /> 
<path style="fill:#000000; fill-opacity:1.0; 
stroke:#000000; stroke-width:1.000000; stroke-opacity:1; 
stroke-linecap:round; stroke-linejoin:round;fill-rule:evenodd;"
d="M 18062000.000000,1926000.000000
18073418.000000,1868597.000000
18105934.000000,1819934.000000
18154597.000000,1787418.000000
18212000.000000,1776000.000000
19862000.000000,1776000.000000
19919403.000000,1787418.000000
19968066.000000,1819934.000000
20000582.000000,1868597.000000
20012000.000000,1926000.000000
20012000.000000,2226000.000000
20000582.000000,2283403.000000
19968066.000000,2332066.000000
19919403.000000,2364582.000000
19862000.000000,2376000.000000
18212000.000000,2376000.000000
18154597.000000,2364582.000000
18105934.000000,2332066.000000
18073418.000000,2283403.000000
18062000.000000,2226000.000000
Z" /> 
</g>
<g >
</g>
<g style="fill:#000000; fill-opacity:1.0; 
stroke:#000000; stroke-width:1.000000; stroke-opacity:1; 
stroke-linecap:round; stroke-linejoin:round;">
<path style="fill:#000000; fill-opacity:1.0; 
stroke:#000000; stroke-width:1.000000; stroke-opacity:1; 
stroke-linecap:round; stroke-linejoin:round;fill-rule:evenodd;"
d="M 7291000.000000,10331000.000000
7182153.000000,10315121.000000
7069752.000000,10260178.000000
6981209.000000,10171789.000000
6926070.000000,10059484.000000
6910000.000000,9950000.000000
6910000.000000,9188000.000000
6925879.000000,9079153.000000
6980822.000000,8966752.000000
7069211.000000,8878209.000000
7181516.000000,8823070.000000
7291000.000000,8807000.000000
10339000.000000,8807000.000000
10447847.000000,8822879.000000
10560248.000000,8877822.000000
10648791.000000,8966211.000000
10703930.000000,9078516.000000
10720000.000000,9188000.000000
10720000.000000,9950000.000000
10704121.000000,10058847.000000
10649178.000000,10171248.000000
10560789.000000,10259791.000000
10448484.000000,10314930.000000
10339000.000000,10331000.000000
Z" /> 
<path style="fill:#000000; fill-opacity:1.0; 
stroke:#000000; stroke-width:1.000000; stroke-opacity:1; 
stroke-linecap:round; stroke-linejoin:round;fill-rule:evenodd;"
d="M 7291000.000000,7791000.000000
7182153.000000,7775121.000000
7069752.000000,7720178.000000
6981209.000000,7631789.000000
6926070.000000,7519484.000000
6910000.000000,7410000.000000
6910000.000000,6648000.000000
6925879.000000,6539153.000000
6980822.000000,6426752.000000
7069211.000000,6338209.000000
7181516.000000,6283070.000000
7291000.000000,6267000.000000
10339000.000000,6267000.000000
10447847.000000,6282879.000000
10560248.000000,6337822.000000
10648791.000000,6426211.000000
10703930.000000,6538516.000000
10720000.000000,6648000.000000
10720000.000000,7410000.000000
10704121.000000,7518847.000000
10649178.000000,7631248.000000
10560789.000000,7719791.000000
10448484.000000,7774930.000000
10339000.000000,7791000.000000
Z" /> 
<path style="fill:#000000; fill-opacity:1.0; 
stroke:#000000; stroke-width:1.000000; stroke-opacity:1; 
stroke-linecap:round; stroke-linejoin:round;fill-rule:evenodd;"
d="M 7291000.000000,5251000.000000
7182153.000000,5235121.000000
7069752.000000,5180178.000000
6981209.000000,5091789.000000
6926070.000000,4979484.000000
6910000.000000,4870000.000000
6910000.000000,4108000.000000
6925879.000000,3999153.000000
6980822.000000,3886752.000000
7069211.000000,3798209.000000
7181516.000000,3743070.000000
7291000.000000,3727000.000000
10339000.000000,3727000.000000
10447847.000000,3742879.000000
10560248.000000,3797822.000000
10648791.000000,3886211.000000
10703930.000000,3998516.000000
10720000.000000,4108000.000000
10720000.000000,4870000.000000
10704121.000000,4978847.000000
10649178.000000,5091248.000000
10560789.000000,5179791.000000
10448484.000000,5234930.000000
10339000.000000,5251000.000000
Z" /> 
<path style="fill:#000000; fill-opacity:1.0; 
stroke:#000000; stroke-width:1.000000; stroke-opacity:1; 
stroke-linecap:round; stroke-linejoin:round;fill-rule:evenodd;"
d="M 941000.000000,5251000.000000
832153.000000,5235121.000000
719752.000000,5180178.000000
631209.000000,5091789.000000
576070.000000,4979484.000000
560000.000000,4870000.000000
560000.000000,4108000.000000
575879.000000,3999153.000000
630822.000000,3886752.000000
719211.000000,3798209.000000
831516.000000,3743070.000000
941000.000000,3727000.000000
2719000.000000,3727000.000000
2827847.000000,3742879.000000
2940248.000000,3797822.000000
3028791.000000,3886211.000000
3083930.000000,3998516.000000
3100000.000000,4108000.000000
3100000.000000,4870000.000000
3084121.000000,4978847.000000
3029178.000000,5091248.000000
2940789.000000,5179791.000000
2828484.000000,5234930.000000
2719000.000000,5251000.000000
Z" /> 
<path style="fill:#000000; fill-opacity:1.0; 
stroke:#000000; stroke-width:1.000000; stroke-opacity:1; 
stroke-linecap:round; stroke-linejoin:round;fill-rule:evenodd;"
d="M 941000.000000,7791000.000000
832153.000000,7775121.000000
719752.000000,7720178.000000
631209.000000,7631789.000000
576070.000000,7519484.000000
560000.000000,7410000.000000
560000.000000,6648000.000000
575879.000000,6539153.000000
630822.000000,6426752.000000
719211.000000,6338209.000000
831516.000000,6283070.000000
941000.000000,6267000.000000
2719000.000000,6267000.000000
2827847.000000,6282879.000000
2940248.000000,6337822.000000
3028791.000000,6426211.000000
3083930.000000,6538516.000000
3100000.000000,6648000.000000
3100000.000000,7410000.000000
3084121.000000,7518847.000000
3029178.000000,7631248.000000
2940789.000000,7719791.000000
2828484.000000,7774930.000000
2719000.000000,7791000.000000
Z" /> 
<path style="fill:#000000; fill-opacity:1.0; 
stroke:#000000; stroke-width:1.000000; stroke-opacity:1; 
stroke-linecap:round; stroke-linejoin:round;fill-rule:evenodd;"
d="M 941000.000000,10331000.000000
832153.000000,10315121.000000
719752.000000,10260178.000000
631209.000000,10171789.000000
576070.000000,10059484.000000
560000.000000,9950000.000000
560000.000000,9188000.000000
575879.000000,9079153.000000
630822.000000,8966752.000000
719211.000000,8878209.000000
831516.000000,8823070.000000
941000.000000,8807000.000000
2719000.000000,8807000.000000
2827847.000000,8822879.000000
2940248.000000,8877822.000000
3028791.000000,8966211.000000
3083930.000000,9078516.000000
3100000.000000,9188000.000000
3100000.000000,9950000.000000
3084121.000000,10058847.000000
3029178.000000,10171248.000000
2940789.000000,10259791.000000
2828484.000000,10314930.000000
2719000.000000,10331000.000000
Z" /> 
</g>
<g >
</g>
<g style="fill:#000000; fill-opacity:1.0; 
stroke:#000000; stroke-width:1.000000; stroke-opacity:1; 
stroke-linecap:round; stroke-linejoin:round;">
<path style="fill:#000000; fill-opacity:1.0; 
stroke:#000000; stroke-width:1.000000; stroke-opacity:1; 
stroke-linecap:round; stroke-linejoin:round;fill-rule:evenodd;"
d="M 13268000.000000,8819000.000000
13287030.000000,8723329.000000
13341223.000000,8642223.000000
13422329.000000,8588030.000000
13518000.000000,8569000.000000
14018000.000000,8569000.000000
14113671.000000,8588030.000000
14194777.000000,8642223.000000
14248970.000000,8723329.000000
14268000.000000,8819000.000000
14268000.000000,10319000.000000
14248970.000000,10414671.000000
14194777.000000,10495777.000000
14113671.000000,10549970.000000
14018000.000000,10569000.000000
13518000.000000,10569000.000000
13422329.000000,10549970.000000
13341223.000000,10495777.000000
13287030.000000,10414671.000000
13268000.000000,10319000.000000
Z" /> 
</g>
<g >
</g>
<g style="fill:#000000; fill-opacity:1.0; 
stroke:#000000; stroke-width:1.000000; stroke-opacity:1; 
stroke-linecap:round; stroke-linejoin:round;">
<path style="fill:#000000; fill-opacity:1.0; 
stroke:#000000; stroke-width:1.000000; stroke-opacity:1; 
stroke-linecap:round; stroke-linejoin:round;fill-rule:evenodd;"
d="M 11490000.000000,8819000.000000
11509030.000000,8723329.000000
11563223.000000,8642223.000000
11644329.000000,8588030.000000
11740000.000000,8569000.000000
12240000.000000,8569000.000000
12335671.000000,8588030.000000
12416777.000000,8642223.000000
12470970.000000,8723329.000000
12490000.000000,8819000.000000
12490000.000000,10319000.000000
12470970.000000,10414671.000000
12416777.000000,10495777.000000
12335671.000000,10549970.000000
12240000.000000,10569000.000000
11740000.000000,10569000.000000
11644329.000000,10549970.000000
11563223.000000,10495777.000000
11509030.000000,10414671.000000
11490000.000000,10319000.000000
Z" /> 
</g>
<g >
</g>
<g style="fill:#000000; fill-opacity:1.0; 
stroke:#000000; stroke-width:1.000000; stroke-opacity:1; 
stroke-linecap:round; stroke-linejoin:round;">
<path style="fill:#000000; fill-opacity:1.0; 
stroke:#000000; stroke-width:1.000000; stroke-opacity:1; 
stroke-linecap:round; stroke-linejoin:round;fill-rule:evenodd;"
d="M 16030500.000000,7774500.000000
16012421.000000,7865387.000000
15960938.000000,7942438.000000
15883887.000000,7993921.000000
15793000.000000,8012000.000000
15193000.000000,8012000.000000
15102113.000000,7993921.000000
15025062.000000,7942438.000000
14973579.000000,7865387.000000
14955500.000000,7774500.000000
14955500.000000,7299500.000000
14973579.000000,7208613.000000
15025062.000000,7131562.000000
15102113.000000,7080079.000000
15193000.000000,7062000.000000
15793000.000000,7062000.000000
15883887.000000,7080079.000000
15960938.000000,7131562.000000
16012421.000000,7208613.000000
16030500.000000,7299500.000000
Z" /> 
<path style="fill:#000000; fill-opacity:1.0; 
stroke:#000000; stroke-width:1.000000; stroke-opacity:1; 
stroke-linecap:round; stroke-linejoin:round;fill-rule:evenodd;"
d="M 14305500.000000,7774500.000000
14287421.000000,7865387.000000
14235938.000000,7942438.000000
14158887.000000,7993921.000000
14068000.000000,8012000.000000
13468000.000000,8012000.000000
13377113.000000,7993921.000000
13300062.000000,7942438.000000
13248579.000000,7865387.000000
13230500.000000,7774500.000000
13230500.000000,7299500.000000
13248579.000000,7208613.000000
13300062.000000,7131562.000000
13377113.000000,7080079.000000
13468000.000000,7062000.000000
14068000.000000,7062000.000000
14158887.000000,7080079.000000
14235938.000000,7131562.000000
14287421.000000,7208613.000000
14305500.000000,7299500.000000
Z" /> 
</g>
<g >
</g>
<g style="fill:#000000; fill-opacity:1.0; 
stroke:#000000; stroke-width:1.000000; stroke-opacity:1; 
stroke-linecap:round; stroke-linejoin:round;">
<path style="fill:#000000; fill-opacity:1.0; 
stroke:#000000; stroke-width:1.000000; stroke-opacity:1; 
stroke-linecap:round; stroke-linejoin:round;fill-rule:evenodd;"
d="M 18856000.000000,8819000.000000
18875030.000000,8723329.000000
18929223.000000,8642223.000000
19010329.000000,8588030.000000
19106000.000000,8569000.000000
19606000.000000,8569000.000000
19701671.000000,8588030.000000
19782777.000000,8642223.000000
19836970.000000,8723329.000000
19856000.000000,8819000.000000
19856000.000000,10319000.000000
19836970.000000,10414671.000000
19782777.000000,10495777.000000
19701671.000000,10549970.000000
19606000.000000,10569000.000000
19106000.000000,10569000.000000
19010329.000000,10549970.000000
18929223.000000,10495777.000000
18875030.000000,10414671.000000
18856000.000000,10319000.000000
Z" /> 
</g>
<g >
</g>
<g style="fill:#000000; fill-opacity:1.0; 
stroke:#000000; stroke-width:1.000000; stroke-opacity:1; 
stroke-linecap:round; stroke-linejoin:round;">
<path style="fill:#000000; fill-opacity:1.0; 
stroke:#000000; stroke-width:1.000000; stroke-opacity:1; 
stroke-linecap:round; stroke-linejoin:round;fill-rule:evenodd;"
d="M 9609000.000000,1295000.000000
10759000.000000,1295000.000000
10759000.000000,2095000.000000
9609000.000000,2095000.000000
Z" /> 
<path style="fill:#000000; fill-opacity:1.0; 
stroke:#000000; stroke-width:1.000000; stroke-opacity:1; 
stroke-linecap:round; stroke-linejoin:round;fill-rule:evenodd;"
d="M 6109000.000000,1295000.000000
7259000.000000,1295000.000000
7259000.000000,2095000.000000
6109000.000000,2095000.000000
Z" /> 
</g>
<g >
</g>
<g style="fill:#000000; fill-opacity:1.0; 
stroke:#000000; stroke-width:1.000000; stroke-opacity:1; 
stroke-linecap:round; stroke-linejoin:round;">
<path style="fill:#000000; fill-opacity:1.0; 
stroke:#000000; stroke-width:1.000000; stroke-opacity:1; 
stroke-linecap:round; stroke-linejoin:round;fill-rule:evenodd;"
d="M 17043500.000000,7299500.000000
17061579.000000,7208613.000000
17113062.000000,7131562.000000
17190113.000000,7080079.000000
17281000.000000,7062000.000000
17781000.000000,7062000.000000
17871887.000000,7080079.000000
17948938.000000,7131562.000000
18000421.000000,7208613.000000
18018500.000000,7299500.000000
18018500.000000,7774500.000000
18000421.000000,7865387.000000
17948938.000000,7942438.000000
17871887.000000,7993921.000000
17781000.000000,8012000.000000
17281000.000000,8012000.000000
17190113.000000,7993921.000000
17113062.000000,7942438.000000
17061579.000000,7865387.000000
17043500.000000,7774500.000000
Z" /> 
<path style="fill:#000000; fill-opacity:1.0; 
stroke:#000000; stroke-width:1.000000; stroke-opacity:1; 
stroke-linecap:round; stroke-linejoin:round;fill-rule:evenodd;"
d="M 18868500.000000,7299500.000000
18886579.000000,7208613.000000
18938062.000000,7131562.000000
19015113.000000,7080079.000000
19106000.000000,7062000.000000
19606000.000000,7062000.000000
19696887.000000,7080079.000000
19773938.000000,7131562.000000
19825421.000000,7208613.000000
19843500.000000,7299500.000000
19843500.000000,7774500.000000
19825421.000000,7865387.000000
19773938.000000,7942438.000000
19696887.000000,7993921.000000
19606000.000000,8012000.000000
19106000.000000,8012000.000000
19015113.000000,7993921.000000
18938062.000000,7942438.000000
18886579.000000,7865387.000000
18868500.000000,7774500.000000
Z" /> 
</g>
<g >
</g>
<g style="fill:#000000; fill-opacity:1.0; 
stroke:#000000; stroke-width:1.000000; stroke-opacity:1; 
stroke-linecap:round; stroke-linejoin:round;">
<path style="fill:#000000; fill-opacity:1.0; 
stroke:#000000; stroke-width:1.000000; stroke-opacity:1; 
stroke-linecap:round; stroke-linejoin:round;fill-rule:evenodd;"
d="M 17962000.000000,9298500.000000
17943921.000000,9389387.000000
17892438.000000,9466438.000000
17815387.000000,9517921.000000
17724500.000000,9536000.000000
17224500.000000,9536000.000000
17133613.000000,9517921.000000
17056562.000000,9466438.000000
17005079.000000,9389387.000000
16987000.000000,9298500.000000
16987000.000000,8823500.000000
17005079.000000,8732613.000000
17056562.000000,8655562.000000
17133613.000000,8604079.000000
17224500.000000,8586000.000000
17724500.000000,8586000.000000
17815387.000000,8604079.000000
17892438.000000,8655562.000000
17943921.000000,8732613.000000
17962000.000000,8823500.000000
Z" /> 
<path style="fill:#000000; fill-opacity:1.0; 
stroke:#000000; stroke-width:1.000000; stroke-opacity:1; 
stroke-linecap:round; stroke-linejoin:round;fill-rule:evenodd;"
d="M 16137000.000000,9298500.000000
16118921.000000,9389387.000000
16067438.000000,9466438.000000
15990387.000000,9517921.000000
15899500.000000,9536000.000000
15399500.000000,9536000.000000
15308613.000000,9517921.000000
15231562.000000,9466438.000000
15180079.000000,9389387.000000
15162000.000000,9298500.000000
15162000.000000,8823500.000000
15180079.000000,8732613.000000
15231562.000000,8655562.000000
15308613.000000,8604079.000000
15399500.000000,8586000.000000
15899500.000000,8586000.000000
15990387.000000,8604079.000000
16067438.000000,8655562.000000
16118921.000000,8732613.000000
16137000.000000,8823500.000000
Z" /> 
</g>
<g >
</g>
<g style="fill:#000000; fill-opacity:1.0; 
stroke:#000000; stroke-width:1.000000; stroke-opacity:1; 
stroke-linecap:round; stroke-linejoin:round;">
<path style="fill:#000000; fill-opacity:1.0; 
stroke:#000000; stroke-width:1.000000; stroke-opacity:1; 
stroke-linecap:round; stroke-linejoin:round;fill-rule:evenodd;"
d="M 12227500.000000,2073000.000000
12318387.000000,2091079.000000
12395438.000000,2142562.000000
12446921.000000,2219613.000000
12465000.000000,2310500.000000
12465000.000000,2910500.000000
12446921.000000,3001387.000000
12395438.000000,3078438.000000
12318387.000000,3129921.000000
12227500.000000,3148000.000000
11752500.000000,3148000.000000
11661613.000000,3129921.000000
11584562.000000,3078438.000000
11533079.000000,3001387.000000
11515000.000000,2910500.000000
11515000.000000,2310500.000000
11533079.000000,2219613.000000
11584562.000000,2142562.000000
11661613.000000,2091079.000000
11752500.000000,2073000.000000
Z" /> 
<path style="fill:#000000; fill-opacity:1.0; 
stroke:#000000; stroke-width:1.000000; stroke-opacity:1; 
stroke-linecap:round; stroke-linejoin:round;fill-rule:evenodd;"
d="M 12227500.000000,3798000.000000
12318387.000000,3816079.000000
12395438.000000,3867562.000000
12446921.000000,3944613.000000
12465000.000000,4035500.000000
12465000.000000,4635500.000000
12446921.000000,4726387.000000
12395438.000000,4803438.000000
12318387.000000,4854921.000000
12227500.000000,4873000.000000
11752500.000000,4873000.000000
11661613.000000,4854921.000000
11584562.000000,4803438.000000
11533079.000000,4726387.000000
11515000.000000,4635500.000000
11515000.000000,4035500.000000
11533079.000000,3944613.000000
11584562.000000,3867562.000000
11661613.000000,3816079.000000
11752500.000000,3798000.000000
Z" /> 
</g>
<g >
</g>
<g >
</g>
<g style="fill:#000000; fill-opacity:1.0; 
stroke:#000000; stroke-width:1.000000; stroke-opacity:1; 
stroke-linecap:round; stroke-linejoin:round;">
</g>
<g style="fill:#000000; fill-opacity:1.0; 
stroke:#000000; stroke-width:600000.000000; stroke-opacity:1; 
stroke-linecap:round; stroke-linejoin:round;">
</g>
<g style="fill:#000000; fill-opacity:0.0; 
stroke:#000000; stroke-width:600000.000000; stroke-opacity:1; 
stroke-linecap:round; stroke-linejoin:round;">
<path d="M14087000 2076000
L12524500 2076000
" />
<path d="M12524500 2076000
L11990000 2610500
" />
</g>
<g style="fill:#000000; fill-opacity:0.0; 
stroke:#000000; stroke-width:800000.000000; stroke-opacity:1; 
stroke-linecap:round; stroke-linejoin:round;">
<path d="M11099500 2610500
L10184000 1695000
" />
<path d="M11990000 2610500
L11099500 2610500
" />
<path d="M11990000 5505000
L11990000 6775000
" />
<path d="M11990000 6775000
L9069000 6775000
" />
<path d="M13768000 9569000
L15141500 9569000
" />
<path d="M11990000 4335500
L11990000 5505000
" />
</g>
<g style="fill:#000000; fill-opacity:0.0; 
stroke:#000000; stroke-width:600000.000000; stroke-opacity:1; 
stroke-linecap:round; stroke-linejoin:round;">
<path d="M12270500 4616000
L11990000 4335500
" />
<path d="M14087000 4616000
L12270500 4616000
" />
</g>
<g style="fill:#000000; fill-opacity:0.0; 
stroke:#000000; stroke-width:800000.000000; stroke-opacity:1; 
stroke-linecap:round; stroke-linejoin:round;">
<path d="M13768000 9569000
L13768000 7537000
" />
</g>
<g style="fill:#000000; fill-opacity:0.0; 
stroke:#000000; stroke-width:600000.000000; stroke-opacity:1; 
stroke-linecap:round; stroke-linejoin:round;">
<path d="M14087000 3346000
L14087000 4616000
" />
</g>
<g style="fill:#000000; fill-opacity:0.0; 
stroke:#000000; stroke-width:800000.000000; stroke-opacity:1; 
stroke-linecap:round; stroke-linejoin:round;">
<path d="M11990000 6775000
L12752000 7537000
" />
<path d="M15141500 9569000
L15649500 9061000
" />
<path d="M9069000 6775000
L8815000 7029000
" />
<path d="M12752000 7537000
L13768000 7537000
" />
<path d="M17531000 7537000
L15493000 7537000
" />
</g>
<g style="fill:#000000; fill-opacity:0.0; 
stroke:#000000; stroke-width:600000.000000; stroke-opacity:1; 
stroke-linecap:round; stroke-linejoin:round;">
<path d="M14087000 5886000
L14911000 5886000
" />
<path d="M15493000 6468000
L15493000 7537000
" />
<path d="M14911000 5886000
L15493000 6468000
" />
</g>
<g style="fill:#000000; fill-opacity:0.0; 
stroke:#000000; stroke-width:800000.000000; stroke-opacity:1; 
stroke-linecap:round; stroke-linejoin:round;">
<path d="M11990000 9569000
L8815000 9569000
" />
<path d="M8815000 4489000
L7926000 4489000
" />
<path d="M7926000 4489000
L6684000 3247000
" />
<path d="M6684000 3247000
L6684000 1695000
" />
<path d="M19356000 9569000
L17982500 9569000
" />
<path d="M17982500 9569000
L17474500 9061000
" />
<path d="M19356000 7537000
L19356000 9569000
" />
</g>
<g >
</g>
</g>
<g style="fill:#FFFFFF; fill-opacity:0.0; 
stroke:#FFFFFF; stroke-width:800000.000000; stroke-opacity:1; 
stroke-linecap:round; stroke-linejoin:round;">
</g>
<g style="fill:#000000; fill-opacity:0.0; 
stroke:#000000; stroke-width:800000.000000; stroke-opacity:1; 
stroke-linecap:round; stroke-linejoin:round;">
</g>
<g style="fill:#000000; fill-opacity:0.0; 
stroke:#000000; stroke-width:100000.000000; stroke-opacity:1; 
stroke-linecap:round; stroke-linejoin:round;">
<path d="M50000 301000
L50000 11301000
" />
<path d="M50000 11301000
L21050000 11301000
" />
<path d="M21050000 11301000
L21050000 301000
" />
<path d="M21050000 301000
L50000 301000
" />
<g >
</g>
<g >
</g>
<g >
</g>
<g >
</g>
<g >
</g>
<g >
</g>
<g >
</g>
<g >
</g>
<g >
</g>
<g >
</g>
<g >
</g>
<g >
</g>
<g >
</g>
</g> 
</svg>
